<svg width="66" height="100" viewBox="0 0 66 100" fill="none" xmlns="http://www.w3.org/2000/svg">
<g clip-path="url(#clip0_10_17328)">
<path d="M21.6987 64.0956C21.2969 64.2984 21.1964 64.7042 21.3973 65.1099C23.0046 68.2544 25.8174 70.8917 29.8357 73.1232C29.9361 73.2247 30.0366 73.2247 30.1371 73.2247C30.4384 73.2247 30.6393 73.1232 30.8403 72.8189C31.0412 72.4132 30.9407 72.0075 30.5389 71.8046C26.7215 69.6745 24.2101 67.3415 22.7033 64.3999C22.5024 63.9941 22.0001 63.8927 21.6987 64.0956Z" fill="#57565C"/>
<path d="M65.2988 19.6674H34.3582C33.9564 19.6674 33.5546 19.9717 33.5546 20.4789V24.1305H31.9472C30.139 24.1305 28.6322 25.6521 28.6322 27.4779V31.1295H28.5317L27.0249 32.1439C24.7144 33.6654 23.4084 36.2012 23.4084 38.94C23.4084 39.3457 23.7098 39.7514 24.2121 39.7514C24.7144 39.7514 25.0157 39.4471 25.0157 38.94C25.0157 36.8098 26.1208 34.6797 28.0294 33.4625L28.7326 32.9553V36.5055C28.7326 37.4184 29.034 38.2299 29.7372 38.8385L33.0523 42.1859C33.3536 42.4902 33.5546 42.9973 33.5546 43.5045V60.5455C31.445 60.9512 29.9381 62.7771 29.9381 64.9072C29.9381 67.0373 31.5454 68.9646 33.5546 69.2689V74.442C33.5546 76.1664 34.6596 77.485 36.2669 77.8908C35.7646 78.0937 35.2623 78.2965 34.9609 78.6008C32.55 80.0209 32.6504 82.8611 32.7509 83.1654V95.1346C24.8148 91.8887 11.655 86.4113 9.04313 85.1941C7.33537 84.3826 6.43126 83.4697 6.43126 82.8611C6.43126 82.2525 7.23491 81.6439 8.03856 81.1367C8.03856 81.2381 8.03856 81.2381 8.03856 81.2381C8.03856 81.6439 8.44039 81.9482 8.84222 81.9482C9.24404 81.9482 9.54541 81.5424 9.54541 81.1367C9.54541 81.0353 9.04313 67.2402 9.54541 62.7771C9.94724 58.5168 7.53628 50.8078 5.12532 45.4318C2.41299 40.4615 1.30797 34.8826 1.50888 29.608C2.11162 15.7115 10.8513 10.234 11.0523 10.1326C30.7418 -4.5754 49.7281 4.45226 49.929 4.5537C56.0568 7.4953 59.171 11.5527 59.2714 16.4215C59.2714 16.8273 59.6733 17.233 60.0751 17.1316C60.4769 17.1316 60.7783 16.7258 60.7783 16.3201C60.6778 10.8426 57.1619 6.37952 50.5317 3.13362C50.3308 3.03218 30.5408 -6.40122 10.1482 8.81394C9.74633 9.11825 0.604772 14.7986 0.00203192 29.608C-0.198881 35.1869 1.0066 40.8672 3.51801 46.3447C5.92897 51.6193 8.23948 59.024 7.83765 62.7771C7.43582 66.4287 7.63674 75.5578 7.73719 79.5137C6.83308 79.9195 4.72349 81.0353 4.72349 82.7596C4.72349 83.2668 4.82395 83.6725 5.12532 84.1797L2.11162 90.4687C1.91071 90.8744 2.11162 91.2801 2.51345 91.483C2.6139 91.483 2.71436 91.483 2.81482 91.483C3.11619 91.483 3.3171 91.2801 3.51801 91.0773L6.23034 85.3969C6.73263 85.8027 7.43582 86.2084 8.23948 86.6141C12.0568 88.44 37.171 98.6848 38.1756 99.0906C38.276 99.0906 38.3765 99.192 38.4769 99.192C38.7783 99.192 39.0797 98.9891 39.1801 98.6848C39.381 98.2791 39.1801 97.8734 38.7783 97.6705C38.6778 97.6705 36.8696 96.859 34.1573 95.7432V83.1654C34.1573 83.0639 33.9564 80.9338 35.6641 79.9195C36.7692 79.3109 38.3765 78.7023 40.3856 78.0937H45.9107V79.108C45.9107 80.1223 46.7144 80.9338 47.7189 80.9338H54.2486C55.2532 80.9338 56.0568 80.1223 56.0568 79.108V76.1664C56.0568 75.2535 55.3536 74.442 54.4495 74.442C55.0523 73.3262 55.5546 72.0076 55.655 69.3703C56.0568 69.3703 56.3582 69.066 56.3582 68.6603V63.9943C57.4632 63.69 58.7692 63.3857 58.9701 63.3857C59.171 63.3857 59.3719 63.1828 59.5728 62.9799C59.7737 62.7771 59.6733 62.4728 59.5728 62.2699C59.171 61.5598 59.2714 59.734 59.3719 58.7197C61.1801 58.6182 62.687 57.7053 62.7874 57.7053C64.0934 56.9953 64.5956 55.9809 64.6961 55.3723C64.9975 54.2566 64.5956 53.0394 63.792 52.1264C63.1893 51.5178 62.2851 50.3006 61.1801 48.5762C60.0751 46.8519 59.4724 44.9246 59.4724 42.9973C59.4724 41.8816 59.6733 40.7658 60.0751 39.65C60.3765 38.7371 62.0842 31.5353 62.3856 30.1152H65.3993C65.8011 30.1152 66.2029 29.8109 66.2029 29.3037V20.4789C66.002 20.0732 65.7007 19.6674 65.2988 19.6674ZM31.244 64.9072C31.244 63.2842 32.55 61.9656 34.1573 61.9656C35.7646 61.9656 37.0705 63.2842 37.0705 64.9072C37.0705 66.5301 35.7646 67.8488 34.1573 67.8488C32.55 67.8488 31.244 66.5301 31.244 64.9072ZM37.0705 76.5721C35.8651 76.5721 34.9609 75.6592 34.9609 74.442V69.2689C36.7692 68.9646 38.276 67.443 38.5774 65.6172H50.2303V68.5588C50.2303 68.9646 50.5317 69.3703 51.034 69.3703H54.2486C54.1482 71.8047 53.6459 72.9205 53.0431 74.0363C52.9427 74.1377 52.9427 74.3406 52.8422 74.442H47.6185C46.6139 74.442 45.8103 75.2535 45.8103 76.2678V76.6736L37.0705 76.5721ZM54.7509 67.8488C54.6504 67.8488 54.6504 67.8488 54.55 67.8488H51.6367V61.9656H54.7509V67.8488ZM54.55 76.1664V79.108C54.55 79.2094 54.4495 79.3109 54.3491 79.3109H47.6185C47.518 79.3109 47.4176 79.2094 47.4176 79.108V76.1664C47.4176 76.065 47.518 75.9635 47.6185 75.9635H54.2486C54.4495 75.9635 54.55 76.065 54.55 76.1664ZM58.5682 39.0414C58.1664 40.2586 57.8651 41.5773 57.8651 42.8959C57.8651 45.1275 58.5682 47.359 59.7737 49.3877C60.5774 50.6049 61.6824 52.2279 62.4861 53.1408C62.9883 53.648 63.1893 54.358 62.9883 54.9666C62.8879 55.5752 62.4861 55.9809 61.7829 56.3867C61.7829 56.3867 59.2714 57.9082 57.1619 56.7924C56.76 56.5896 56.3582 56.691 56.1573 57.0967C55.9564 57.5025 56.0568 57.9082 56.4587 58.1111C56.8605 58.3139 57.2623 58.5168 57.6641 58.6182C57.5637 59.1254 57.4632 60.8498 57.7646 62.067C57.2623 62.1684 56.76 62.3713 56.2577 62.4728V61.2555C56.2577 60.8498 55.9564 60.4441 55.4541 60.4441H50.8331C50.4313 60.4441 50.0294 60.7484 50.0294 61.2555V64.0957H38.5774C38.276 62.2699 36.7692 60.7484 34.9609 60.4441V43.5045C34.9609 42.5916 34.6596 41.7801 33.9564 41.1715L30.6413 37.7228C30.3399 37.4184 30.139 36.9113 30.139 36.4041V27.4779C30.139 26.4635 30.9427 25.6521 31.9472 25.6521H33.5546V29.3037C33.5546 29.7094 33.8559 30.1152 34.3582 30.1152H60.7783C60.3765 31.7381 58.8696 38.3314 58.5682 39.0414ZM64.4952 28.4922H35.0614V25.6521H39.6824C40.0842 25.6521 40.4861 25.3478 40.4861 24.8406C40.4861 24.3334 40.1847 24.0291 39.6824 24.0291H35.0614V21.1889H64.4952V28.4922Z" fill="#57565C"/>
<path d="M43.4002 36.3025C43.6011 36.3025 43.802 36.2011 43.9025 36.0996C47.0166 33.0566 51.939 33.0566 55.0532 36.0996C55.3545 36.4039 55.8568 36.4039 56.1582 36.0996C56.4595 35.7953 56.4595 35.2882 56.1582 34.9838C52.5417 31.3322 46.5143 31.3322 42.8979 34.9838C42.5965 35.2882 42.5965 35.7953 42.8979 36.0996C42.9984 36.3025 43.1993 36.3025 43.4002 36.3025Z" fill="#57565C"/>
<path d="M54.5519 41.273C54.6523 39.2443 53.2459 37.3171 51.1364 37.0128C50.0313 36.8099 48.9263 37.1142 48.1227 37.7228C47.4195 38.23 46.9172 38.8386 46.7163 39.6501C46.6158 39.6501 46.6158 39.5486 46.5153 39.5486C46.214 39.3458 45.7117 39.4472 45.5108 39.7515C45.3099 40.0558 45.4103 40.563 45.7117 40.7659C47.8213 42.0845 50.1318 42.7945 52.4423 42.7945C53.045 42.7945 53.6478 42.7945 54.2505 42.6931C54.6523 42.5917 54.9537 42.1859 54.8532 41.7802C54.8532 41.5773 54.6523 41.3745 54.5519 41.273ZM48.0222 40.3601C48.2231 39.8529 48.5245 39.3458 49.0268 39.0415C49.6295 38.6357 50.2322 38.5343 50.9354 38.6357C51.6386 38.7372 52.2414 39.1429 52.6432 39.6501C52.9446 40.1573 53.1455 40.7659 53.1455 41.3745C51.3373 41.3745 49.6295 41.0702 48.0222 40.3601Z" fill="#57565C"/>
</g>
<defs>
<clipPath id="clip0_10_17328">
<rect width="66" height="99" fill="white" transform="translate(0 0.192383)"/>
</clipPath>
</defs>
</svg>
