<svg width="56" height="100" viewBox="0 0 56 100" fill="none" xmlns="http://www.w3.org/2000/svg">
<g clip-path="url(#clip0_10_17628)">
<path d="M55.3037 67.8169H47.1474C47.048 67.1062 47.048 66.3954 46.9485 65.6846C46.849 63.5523 46.9485 61.3185 47.6448 59.2877C48.0426 58.1708 48.6394 57.0539 49.1368 55.937C49.6341 54.7185 50.032 53.6016 50.4298 52.3831C51.2256 49.54 51.9218 46.697 52.2202 43.7523C52.4192 41.417 52.5187 38.777 51.7229 36.4416C51.0266 34.4108 49.6341 32.7862 47.5453 32.177C44.7602 31.3646 41.5773 32.38 38.9911 33.3954C37.9964 33.8016 37.0018 34.2077 36.0071 34.7154C35.1119 35.1216 35.9076 36.4416 36.8028 36.0354C39.5879 34.6139 42.7709 33.1923 45.9538 33.3954C47.8437 33.497 49.2362 34.4108 50.032 36.137C50.9272 37.9646 50.9272 40.4016 50.8277 42.4323C50.6288 45.1739 50.1314 47.8139 49.4352 50.3523C48.8384 52.3831 48.1421 54.4139 47.2469 56.4446C46.849 57.3585 46.3517 58.3739 46.0533 59.3893C45.7549 60.4046 45.6554 61.42 45.556 62.4354C45.4565 64.1616 45.556 65.8877 45.7549 67.6139H43.2682C42.1741 56.3431 37.2007 50.9616 27.5524 50.9616C21.1865 50.9616 16.9094 53.297 14.4227 58.0693C15.9147 51.4693 19.1972 42.94 21.286 39.6908C21.9822 38.6754 22.778 37.66 23.7726 36.5431C24.9663 35.2231 26.0604 33.8016 26.8561 32.2785C28.0497 30.1462 28.1492 26.2877 28.0497 24.6631C29.3428 24.46 30.3375 23.2416 30.3375 21.9216V21.1093H31.6306C32.6252 21.1093 33.421 20.297 33.421 19.2816V16.8446H33.6199C34.6146 16.8446 35.4103 16.0323 35.4103 15.017V0.801566C35.4103 0.395412 35.1119 -0.0107422 34.6146 -0.0107422H19.4956C19.0977 -0.0107422 18.6998 0.293873 18.6998 0.801566V15.017C18.6998 16.0323 19.4956 16.8446 20.4902 16.8446H20.6892V19.2816C20.6892 20.297 21.4849 21.1093 22.4796 21.1093H23.7726V21.9216C23.7726 23.4446 24.9663 24.7646 26.5577 24.7646H26.6572C26.6572 26.2877 26.5577 29.74 25.6625 31.5677C24.9663 32.8877 23.7726 34.2077 22.6785 35.5277C21.7833 36.6446 20.8881 37.7616 20.0924 38.777C16.9094 43.6508 11.6377 58.8816 12.135 64.6693C12.135 64.7708 12.2345 64.9739 12.3339 65.0754C12.2345 65.8877 12.135 66.8016 12.0355 67.7154H10.8419C10.9414 67.0046 10.9414 66.2939 11.0409 65.4816C11.1403 63.4508 11.0409 61.42 10.5435 59.4908C10.2451 58.4754 9.74778 57.46 9.34991 56.4446C8.85258 55.3277 8.35524 54.2108 7.95737 53.0939C6.9627 50.3523 6.3659 47.4077 5.96803 44.4631C5.66963 42.2293 5.57016 39.7923 6.16696 37.5585C6.6643 35.8323 7.5595 34.4108 9.25044 33.8016C11.8366 32.9893 14.7211 33.9031 17.1083 34.817C18.103 35.2231 18.9982 35.6293 19.8934 36.0354C20.7886 36.4416 21.4849 35.1216 20.6892 34.7154C20.2913 34.5123 19.8934 34.3093 19.3961 34.1062C20.9876 32.7862 22.778 31.8723 24.7673 31.5677C25.1652 31.4662 25.3641 30.9585 25.2647 30.6539C25.1652 30.2477 24.7673 30.0446 24.3694 30.1462C21.8828 30.4508 19.6945 31.7708 17.9041 33.497C13.627 31.7708 8.15631 30.5523 5.57016 35.02C4.47602 37.0508 4.27709 39.4877 4.27709 41.7216C4.37655 44.5646 4.87389 47.3062 5.57016 50.0477C6.0675 52.0785 6.6643 54.0077 7.5595 55.937C8.05684 57.0539 8.65364 58.0693 9.05151 59.1862C9.34991 60.2016 9.54885 61.217 9.64831 62.2323C9.84725 64.06 9.64831 65.7862 9.44938 67.5123H0.795737C0.397869 67.5123 0 67.8169 0 68.3246V98.177C0 98.5831 0.298401 98.9893 0.795737 98.9893H55.3037C55.7016 98.9893 56.0995 98.6846 56.0995 98.177V68.5277C56 68.1216 55.7016 67.8169 55.3037 67.8169ZM20.1918 15.22V1.71541H33.7194V15.22C33.7194 15.3216 33.6199 15.4231 33.5204 15.4231H20.4902C20.3908 15.4231 20.1918 15.3216 20.1918 15.22ZM22.1812 19.3831V16.9462H31.8295V19.3831C31.8295 19.4846 31.73 19.5862 31.6306 19.5862H29.6412H24.5684H22.579C22.2806 19.6877 22.1812 19.5862 22.1812 19.3831ZM25.1652 22.0231V21.2108H28.746V22.0231C28.746 22.7339 28.1492 23.2416 27.5524 23.2416H26.4583C25.762 23.2416 25.1652 22.7339 25.1652 22.0231ZM27.5524 52.4846C34.0178 52.4846 40.5826 54.4139 41.6767 67.8169H38.6927C36.405 61.6231 32.5258 60.1 27.5524 60.1C22.579 60.1 18.6998 61.7246 16.4121 67.8169H13.4281C14.5222 54.4139 21.087 52.4846 27.5524 52.4846ZM41.7762 71.777C41.7762 74.8231 41.4778 77.5646 40.7815 79.9C40.4831 75.4323 39.9858 71.98 39.1901 69.2385H41.7762C41.7762 70.0508 41.7762 70.9646 41.7762 71.777ZM37.1012 67.8169H18.0036C20.2913 62.3339 23.7726 61.6231 27.5524 61.6231C31.3321 61.6231 34.8135 62.2323 37.1012 67.8169ZM13.3286 69.34H15.9147C15.119 72.0816 14.5222 75.5339 14.3233 80.0016C13.627 77.5646 13.3286 74.9246 13.3286 71.8785C13.2291 70.9646 13.2291 70.0508 13.3286 69.34ZM11.8366 69.34C11.8366 70.1523 11.7371 70.9646 11.7371 71.777C11.7371 76.6508 12.5329 80.7123 14.1243 84.0631C14.3233 84.3677 14.6217 84.5708 14.9201 84.4693C15.2185 84.3677 15.5169 84.0631 15.5169 83.7585C15.7158 77.26 16.3126 72.5893 17.4067 69.34H37.5986C38.5933 72.5893 39.2895 77.26 39.4885 83.7585C39.4885 84.0631 39.6874 84.3677 40.0853 84.4693C40.1847 84.4693 40.1847 84.4693 40.2842 84.4693C40.5826 84.4693 40.881 84.2662 40.9805 84.0631C42.5719 80.8139 43.3677 76.6508 43.3677 71.777C43.3677 70.9646 43.3677 70.0508 43.2682 69.34H45.7549C45.9538 71.1677 46.2522 73.0969 46.2522 75.0262C46.3517 78.0723 45.556 81.22 44.7602 84.1646C44.2629 85.8908 43.6661 87.5154 42.9698 89.14C42.5719 89.9523 42.1741 90.6631 41.6767 91.3739C41.3783 91.8816 40.6821 92.897 40.0853 92.897C38.8917 92.7954 38.9911 90.1554 38.8917 89.4446C38.7922 87.82 38.7922 86.297 38.6927 84.6723C38.4938 81.4231 38.0959 78.0723 36.1066 75.4323C35.8082 75.0262 35.3108 74.62 34.913 74.2139C35.3108 73.3 35.8082 72.5893 36.206 72.0816C36.405 71.777 36.405 71.2693 36.1066 70.9646C35.8082 70.7616 35.3108 70.7616 35.1119 71.0662C33.5204 73.097 31.6306 77.057 31.3321 84.0631C31.1332 89.3431 30.1385 92.2877 28.3481 92.6939C27.9503 92.7954 27.5524 92.6939 27.1545 92.3893C25.9609 91.577 24.3694 88.8354 23.8721 83.9616C23.3748 80.3062 23.1758 76.6508 23.3748 74.3154C23.5737 72.4877 23.2753 71.2693 23.2753 71.2693C23.1758 70.8631 22.778 70.5585 22.3801 70.66C21.9822 70.7616 21.6838 71.1677 21.7833 71.5739C21.7833 71.5739 21.9822 72.3862 21.8828 73.7062C19.2966 75.737 18.302 78.7831 17.9041 82.0323C17.5062 85.0785 17.8046 88.3277 17.3073 91.3739C17.2078 91.8816 17.0089 92.8969 16.3126 92.7954C15.7158 92.7954 15.119 91.6785 14.8206 91.2723C13.8259 89.8508 13.0302 88.2262 12.5329 86.6016C11.5382 83.7585 10.8419 80.7123 10.444 77.7677C10.1456 75.8385 10.3446 73.9093 10.5435 71.98C10.643 71.1677 10.7425 70.2539 10.8419 69.4416L11.8366 69.34ZM54.508 97.6693H1.49201V69.34H9.15098C8.95204 71.3708 8.65364 73.5031 8.65364 75.5339C8.65364 77.0569 8.95204 78.6816 9.25044 80.2047C9.54885 81.8293 9.94671 83.4539 10.444 85.0785C10.9414 86.9062 11.6377 88.7339 12.5329 90.3585C12.9307 91.1708 13.4281 91.9831 14.0249 92.6939C14.5222 93.4046 15.119 94.1154 16.0142 94.3185C16.8099 94.5216 17.7052 94.1154 18.2025 93.5062C18.6998 92.897 18.7993 92.0846 18.8988 91.2723C19.0977 89.6477 19.0977 88.0231 19.1972 86.3985C19.2966 83.1493 19.3961 79.4939 21.1865 76.7523C21.3854 76.4477 21.5844 76.1431 21.8828 75.94C21.8828 78.2754 22.0817 81.22 22.4796 84.2662C22.9769 88.8354 24.3694 92.3893 26.3588 93.8108C26.9556 94.2169 27.5524 94.42 28.1492 94.42C28.3481 94.42 28.6465 94.42 28.8455 94.3185C32.1279 93.5062 32.8242 88.1246 32.9236 84.2662C33.1226 80.5093 33.7194 77.7677 34.5151 75.737C36.7034 77.8693 37.2007 81.1185 37.3996 84.0631C37.4991 85.7893 37.4991 87.4139 37.5986 89.14C37.698 90.5616 37.5986 92.5923 38.5933 93.7093C39.0906 94.3185 39.9858 94.6231 40.7815 94.42C41.6767 94.217 42.1741 93.4046 42.7709 92.7954C43.865 91.3739 44.7602 89.6477 45.357 87.9216C46.5506 84.8754 47.1474 81.7277 47.7442 78.4785C48.2416 75.5339 47.8437 72.4877 47.4458 69.5431H54.7069L54.508 97.6693Z" fill="#57565C"/>
<path d="M25.1647 37.8631C26.5572 37.2539 28.0492 36.6447 29.6407 36.6447C31.7295 36.6447 33.7188 37.5585 35.4098 38.777C36.2055 39.2847 37.0012 37.9647 36.2055 37.457C34.2162 36.137 32.0279 35.1216 29.6407 35.1216C27.8503 35.1216 26.1593 35.7308 24.4684 36.5431C23.4737 36.9493 24.2694 38.2693 25.1647 37.8631Z" fill="#57565C"/>
<path d="M17.9036 38.3708C17.8041 38.3708 17.7047 38.3708 17.7047 38.3708H17.6052C17.3068 38.3708 16.9089 38.2693 16.6105 38.1677C15.8148 37.9647 15.218 37.66 14.4223 37.2539C14.1239 37.0508 13.6265 37.1523 13.4276 37.5585C13.2287 37.8631 13.3281 38.3708 13.726 38.5739C15.218 39.3862 16.8095 39.9954 18.5004 39.9954C18.8983 39.9954 19.2962 39.6908 19.2962 39.1831C19.2962 38.777 18.9978 38.4723 18.5004 38.3708C18.202 38.3708 18.0031 38.3708 17.9036 38.3708Z" fill="#57565C"/>
<path d="M32.6258 33.8015C32.9242 34.0046 33.4215 33.903 33.6205 33.4969C33.8194 33.1923 33.7199 32.6846 33.3221 32.4815C31.8301 31.6692 30.2386 31.06 28.6471 30.6538C28.2492 30.5523 27.8514 30.7553 27.7519 31.1615C27.6524 31.5677 27.8514 31.9738 28.2492 32.0753C29.8407 32.4815 31.2333 33.0907 32.6258 33.8015Z" fill="#57565C"/>
<path d="M51.9228 75.94C52.3207 75.94 52.7186 75.6354 52.7186 75.1277C52.7186 74.62 52.4202 74.3154 51.9228 74.3154C51.525 74.3154 51.2266 74.62 51.2266 75.1277C51.2266 75.6354 51.525 75.94 51.9228 75.94Z" fill="#57565C"/>
<path d="M50.7275 81.6261C51.1254 81.6261 51.5233 81.3215 51.5233 80.8138C51.5233 80.3061 51.2249 80.0015 50.7275 80.0015C50.3297 80.0015 50.0312 80.3061 50.0312 80.8138C50.0312 81.3215 50.3297 81.6261 50.7275 81.6261Z" fill="#57565C"/>
<path d="M51.327 86.9062C50.9291 86.9062 50.5312 87.2109 50.5312 87.7186C50.5312 88.2262 50.8297 88.5309 51.327 88.5309C51.8243 88.5309 52.1227 88.2262 52.1227 87.7186C52.1227 87.2109 51.7249 86.9062 51.327 86.9062Z" fill="#57565C"/>
<path d="M47.6473 89.9521C47.2494 89.9521 46.8516 90.2568 46.8516 90.7645C46.8516 91.2721 47.15 91.5768 47.6473 91.5768C48.1446 91.5768 48.443 91.2721 48.443 90.7645C48.443 90.2568 48.0452 89.9521 47.6473 89.9521Z" fill="#57565C"/>
<path d="M51.327 93.2012C50.9291 93.2012 50.5312 93.5058 50.5312 94.0135C50.5312 94.5212 50.8297 94.8258 51.327 94.8258C51.8243 94.8258 52.1227 94.5212 52.1227 94.0135C52.1227 93.5058 51.7249 93.2012 51.327 93.2012Z" fill="#57565C"/>
<path d="M44.366 92.085C43.9682 92.085 43.5703 92.3896 43.5703 92.8973C43.5703 93.405 43.8687 93.7096 44.366 93.7096C44.8634 93.7096 45.1618 93.405 45.1618 92.8973C45.1618 92.3896 44.7639 92.085 44.366 92.085Z" fill="#57565C"/>
<path d="M46.9481 94.8262C46.5502 94.8262 46.1523 95.1308 46.1523 95.6385C46.1523 96.1462 46.4507 96.4508 46.9481 96.4508C47.4454 96.4508 47.7438 96.1462 47.7438 95.6385C47.7438 95.1308 47.3459 94.8262 46.9481 94.8262Z" fill="#57565C"/>
<path d="M40.3817 94.9277C39.9838 94.9277 39.5859 95.2323 39.5859 95.74C39.5859 96.2477 39.8843 96.5523 40.3817 96.5523C40.879 96.5523 41.1774 96.2477 41.1774 95.74C41.1774 95.2323 40.879 94.9277 40.3817 94.9277Z" fill="#57565C"/>
<path d="M34.4168 94.623C34.019 94.623 33.6211 94.9277 33.6211 95.4354C33.6211 95.9431 33.9195 96.2477 34.4168 96.2477C34.9142 96.2477 35.2126 95.9431 35.2126 95.4354C35.2126 94.9277 34.8147 94.623 34.4168 94.623Z" fill="#57565C"/>
<path d="M30.1395 94.2168C29.7416 94.2168 29.3438 94.5214 29.3438 95.0291C29.3438 95.5368 29.6422 95.8414 30.1395 95.8414C30.6368 95.8414 30.9352 95.5368 30.9352 95.0291C30.9352 94.5214 30.5374 94.2168 30.1395 94.2168Z" fill="#57565C"/>
<path d="M25.5653 95.2324C25.1674 95.2324 24.7695 95.537 24.7695 96.0447C24.7695 96.5524 25.0679 96.857 25.5653 96.857C26.0626 96.857 26.361 96.5524 26.361 96.0447C26.361 95.537 25.9631 95.2324 25.5653 95.2324Z" fill="#57565C"/>
<path d="M21.2879 93.8105C20.8901 93.8105 20.4922 94.1152 20.4922 94.6229C20.4922 95.1306 20.7906 95.4352 21.2879 95.4352C21.7853 95.4352 22.0837 95.1306 22.0837 94.6229C22.0837 94.1152 21.6858 93.8105 21.2879 93.8105Z" fill="#57565C"/>
<path d="M15.2176 94.7246C14.8197 94.7246 14.4219 95.0292 14.4219 95.5369C14.4219 96.0446 14.7203 96.3492 15.2176 96.3492C15.7149 96.3492 16.0133 96.0446 16.0133 95.5369C16.0133 95.0292 15.6155 94.7246 15.2176 94.7246Z" fill="#57565C"/>
<path d="M9.84652 89.6475C9.44865 89.6475 9.05078 89.9521 9.05078 90.4598C9.05078 90.9675 9.34918 91.2721 9.84652 91.2721C10.3439 91.2721 10.6423 90.9675 10.6423 90.4598C10.6423 89.9521 10.2444 89.6475 9.84652 89.6475Z" fill="#57565C"/>
<path d="M7.46076 86.6014C7.46076 86.1952 7.16236 85.7891 6.66502 85.7891C6.26715 85.7891 5.96875 86.0937 5.96875 86.6014C5.96875 87.1091 6.26715 87.4137 6.76449 87.4137C7.26182 87.4137 7.46076 87.0075 7.46076 86.6014Z" fill="#57565C"/>
<path d="M8.45199 80.6108C8.05412 80.6108 7.65625 80.9155 7.65625 81.4232C7.65625 81.9308 7.95465 82.2355 8.45199 82.2355C8.94932 82.2355 9.24772 81.9308 9.24772 81.4232C9.24772 80.9155 8.84986 80.6108 8.45199 80.6108Z" fill="#57565C"/>
<path d="M7.95589 92.4907C7.55803 92.4907 7.16016 92.7953 7.16016 93.303C7.16016 93.8107 7.45856 94.1153 7.95589 94.1153C8.45323 94.1153 8.75163 93.8107 8.75163 93.303C8.75163 92.7953 8.35376 92.4907 7.95589 92.4907Z" fill="#57565C"/>
<path d="M9.84652 95.2324C9.44865 95.2324 9.05078 95.537 9.05078 96.0447C9.05078 96.5524 9.34918 96.857 9.84652 96.857C10.3439 96.857 10.6423 96.5524 10.6423 96.0447C10.6423 95.537 10.2444 95.2324 9.84652 95.2324Z" fill="#57565C"/>
<path d="M4.87386 89.0386C4.47599 89.0386 4.07812 89.3432 4.07812 89.8509C4.07812 90.3586 4.47599 90.5617 4.87386 90.5617C5.27173 90.5617 5.6696 90.257 5.6696 89.7493C5.6696 89.2416 5.27173 89.0386 4.87386 89.0386Z" fill="#57565C"/>
<path d="M3.78221 84.4693C4.18008 84.4693 4.57794 84.1647 4.57794 83.657C4.57794 83.1493 4.27954 82.8447 3.78221 82.8447C3.38434 82.8447 3.08594 83.1493 3.08594 83.657C3.08594 84.1647 3.38434 84.4693 3.78221 84.4693Z" fill="#57565C"/>
<path d="M7.06232 77.6663C7.06232 77.2602 6.76392 76.854 6.26658 76.854C5.86871 76.854 5.57031 77.1586 5.57031 77.6663C5.57031 78.174 5.86871 78.3771 6.26658 78.3771C6.66445 78.3771 7.06232 78.0725 7.06232 77.6663Z" fill="#57565C"/>
<path d="M6.16502 73.8077C6.56289 73.8077 6.96076 73.5031 6.96076 72.9954C6.96076 72.4877 6.56289 72.2847 6.16502 72.2847C5.76715 72.2847 5.46875 72.5893 5.46875 73.097C5.46875 73.6047 5.76715 73.8077 6.16502 73.8077Z" fill="#57565C"/>
<path d="M3.0848 93.5063C2.68693 93.5063 2.28906 93.811 2.28906 94.3187C2.28906 94.8263 2.58746 95.131 3.0848 95.131C3.58214 95.131 3.88054 94.8263 3.88054 94.3187C3.88054 93.811 3.58214 93.5063 3.0848 93.5063Z" fill="#57565C"/>
<path d="M47.5478 85.9923C47.9457 85.9923 48.3436 85.6877 48.3436 85.18C48.3436 84.6723 48.0452 84.4692 47.5478 84.4692C47.15 84.4692 46.8516 84.7739 46.8516 85.2815C46.8516 85.7892 47.15 85.9923 47.5478 85.9923Z" fill="#57565C"/>
<path d="M48.8369 72.4879C49.2348 72.4879 49.6326 72.1833 49.6326 71.6756C49.6326 71.1679 49.3342 70.8633 48.8369 70.8633C48.439 70.8633 48.1406 71.1679 48.1406 71.6756C48.1406 72.1833 48.3396 72.4879 48.8369 72.4879Z" fill="#57565C"/>
<path d="M21.1873 90.3587C21.1873 89.9525 20.8889 89.5464 20.3916 89.5464C19.9937 89.5464 19.6953 89.851 19.6953 90.3587C19.6953 90.8664 19.9937 91.171 20.4911 91.171C20.9884 91.171 21.1873 90.7649 21.1873 90.3587Z" fill="#57565C"/>
<path d="M21.0869 85.4845C21.4848 85.4845 21.8826 85.1799 21.8826 84.6722C21.8826 84.1645 21.5842 83.8599 21.0869 83.8599C20.689 83.8599 20.3906 84.1645 20.3906 84.6722C20.3906 85.1799 20.689 85.4845 21.0869 85.4845Z" fill="#57565C"/>
<path d="M34.7147 91.1707C34.7147 90.7645 34.4163 90.3584 33.9189 90.3584C33.5211 90.3584 33.2227 90.663 33.2227 91.1707C33.2227 91.6784 33.5211 91.983 34.0184 91.983C34.5157 91.983 34.7147 91.5769 34.7147 91.1707Z" fill="#57565C"/>
<path d="M34.4168 84.5708C34.019 84.5708 33.6211 84.8754 33.6211 85.3831C33.6211 85.8908 33.9195 86.1954 34.4168 86.1954C34.9142 86.1954 35.2126 85.8908 35.2126 85.3831C35.2126 84.8754 34.8147 84.5708 34.4168 84.5708Z" fill="#57565C"/>
<path d="M34.7137 79.7983C34.3158 79.7983 33.918 80.103 33.918 80.6106C33.918 81.1183 34.2164 81.423 34.7137 81.423C35.211 81.423 35.5094 81.1183 35.5094 80.6106C35.5094 80.103 35.211 79.7983 34.7137 79.7983Z" fill="#57565C"/>
</g>
<defs>
<clipPath id="clip0_10_17628">
<rect width="56" height="99" fill="white" transform="translate(0 0.192383)"/>
</clipPath>
</defs>
</svg>
