<svg width="84" height="99" viewBox="0 0 84 99" fill="none" xmlns="http://www.w3.org/2000/svg">
<g clip-path="url(#clip0_10_18546)">
<path d="M77.2723 40.9227C76.5798 43.7129 75.7882 46.5031 74.7988 49.1899C73.9084 51.6701 72.5232 54.0469 72.1275 56.6305C71.7317 59.524 71.9296 62.4175 71.9296 65.4144C72.0285 68.3079 72.0285 71.2014 72.0285 74.095C71.9296 79.1586 71.237 84.429 69.1593 89.0793C68.6646 90.216 67.972 91.3528 67.3783 92.3862C66.7847 93.2129 66.0921 94.453 65.0038 94.6597C64.608 94.763 64.0144 94.6597 63.7176 94.143C63.5197 93.7296 63.6186 93.1096 63.5197 92.6962C63.5197 91.2494 63.4207 89.8027 63.4207 88.3559C63.3218 82.6722 63.3218 76.5751 60.4525 71.4081C60.8483 70.6847 61.2441 70.0647 61.6398 69.548C61.8377 69.238 61.8377 68.7213 61.5409 68.4112C61.2441 68.1012 60.7494 68.2046 60.4525 68.5146C58.6716 70.9948 56.396 75.7484 56.0002 84.2223C55.7034 91.7662 54.3183 96.8298 52.3395 97.3465C52.0427 97.4499 51.7458 97.3465 51.3501 97.1398C49.3713 95.7964 47.3925 90.1127 46.7988 84.2223C46.2052 79.6753 46.0073 75.335 46.2052 72.5449C46.4031 70.3747 46.0073 68.9279 46.0073 68.8246C45.9084 68.4112 45.5126 68.1012 45.1169 68.2046C44.7211 68.3079 44.4243 68.7213 44.5232 69.1346C44.5232 69.1346 44.7211 70.2714 44.7211 71.8215C39.4773 75.9551 39.873 83.4989 39.5762 89.6993C39.4773 91.0428 39.4773 92.5929 39.0815 93.9363C38.8836 94.5563 38.3889 95.1764 37.6964 94.9697C37.0038 94.763 36.5091 93.833 36.1133 93.3163C34.1345 90.5261 32.9472 87.0125 32.0568 83.7056C31.661 82.1555 31.3642 80.7087 31.0674 79.1586C30.8695 77.8152 30.5727 76.4718 30.4737 75.1284C30.2759 70.9947 31.0674 66.8611 31.3642 62.8309C31.5621 60.7641 31.5621 58.6973 31.1663 56.6305C30.8695 54.4603 29.979 52.7035 29.0886 50.7401C27.4066 46.9165 26.3183 42.8862 25.6257 38.8559C25.0321 35.6524 24.6363 32.2421 25.2299 29.0386C25.7246 26.6618 26.813 24.2849 29.1875 23.4582C29.7812 23.2515 30.4737 23.1482 31.1663 23.0449C32.1557 23.0449 32.1557 21.4948 31.1663 21.4948C28.396 21.5981 25.9225 23.0449 24.7352 25.6284C23.449 28.5219 23.3501 31.9321 23.6469 35.0323C23.9437 38.8559 24.8342 42.7829 25.9225 46.5031C26.6151 48.8799 27.7034 51.1534 28.6928 53.4269C29.5833 55.287 29.8801 57.4572 29.8801 59.524C29.979 63.8643 29.0886 68.2046 28.8907 72.5449C28.6928 75.8517 29.2865 79.0553 29.979 82.1555C30.7706 85.6691 31.8589 89.286 33.6398 92.4895C34.0356 93.3163 34.5303 94.0396 35.1239 94.763C35.7176 95.4864 36.2123 96.2098 37.1027 96.5198C38.8836 97.1399 40.1699 95.5897 40.5656 93.9363C41.1593 90.8361 40.9614 87.5292 41.1593 84.3256C41.3571 81.1221 41.7529 77.5052 43.7317 74.9217C43.9296 74.6117 44.2264 74.3016 44.5232 74.095C44.4243 76.9885 44.7211 80.7087 45.2158 84.5323C45.8094 90.0094 47.6893 96.6231 50.3607 98.5866C50.9543 99 51.548 99.1033 51.9437 99.1033C52.1416 99.1033 52.3395 99.1033 52.5373 99C56.0002 98.0699 56.9896 90.6294 57.2865 84.5323C57.4843 79.4687 58.3748 75.8517 59.4631 73.2682C60.3536 75.2317 60.9472 77.2985 61.2441 79.4687C61.6398 82.3622 61.7388 85.3591 61.7388 88.2526C61.7388 89.8027 61.8377 91.2495 61.8377 92.7996C61.8377 93.833 61.8377 94.9697 62.7282 95.6931C63.6186 96.5198 65.0038 96.4165 65.9932 95.8998C66.9826 95.3831 67.6752 94.3497 68.3677 93.4196C74.7988 83.7056 73.1169 71.5115 73.2158 60.454C73.2158 58.8006 73.2158 57.1472 73.6116 55.4937C74.0073 53.9436 74.7988 52.4968 75.3925 51.0501C76.5798 47.9499 77.5691 44.643 78.3607 41.4394C78.9543 40.3027 77.4702 39.8893 77.2723 40.9227Z" fill="#D1D5DB"/>
<path d="M30.6718 39.6827C30.4739 46.0898 34.1347 51.5668 34.9262 57.7672C34.9262 58.1806 35.5198 58.3872 35.8167 58.2839C36.2124 58.1806 36.4103 57.7672 36.3114 57.3538C35.5198 51.3601 31.958 45.8831 32.1559 39.6827C32.2548 38.7526 30.7707 38.7526 30.6718 39.6827Z" fill="#D1D5DB"/>
<path d="M70.544 50.74C71.6324 48.3632 72.5228 45.9864 73.3143 43.5062C73.6112 42.5762 72.1271 42.1628 71.9292 43.0929C71.2366 45.4697 70.3462 47.7432 69.3568 49.9133C69.1589 50.3267 69.2578 50.74 69.6536 50.9467C69.8515 51.2567 70.4451 51.1534 70.544 50.74Z" fill="#D1D5DB"/>
<path d="M84.0013 27.6952C84.0013 25.6284 82.6161 23.975 80.7363 23.5616C80.7363 21.5981 79.45 19.9447 77.6691 19.5313C77.2734 18.6013 76.4818 17.8779 75.4924 17.4645C75.0967 17.3612 74.7009 17.5679 74.503 17.9812C74.4041 18.3946 74.602 18.808 74.8988 19.0146C75.5914 19.2213 76.0861 19.8414 76.3829 20.5647C76.4818 20.8748 76.6797 21.0814 76.9765 21.0814C78.2628 21.1848 79.1532 22.3215 79.1532 23.6649C79.1532 23.8716 79.1532 23.975 79.1532 24.0783C79.0543 24.285 79.1532 24.595 79.3511 24.6983C79.549 24.8017 79.7469 25.0084 79.9447 25.0084C81.3299 25.0084 82.5172 26.1451 82.5172 27.5919C82.5172 28.7286 81.8246 29.762 80.7363 30.072C80.5384 30.1754 80.3405 30.2787 80.2416 30.5887C80.1426 30.7954 80.2416 31.1054 80.3405 31.3121C80.6373 31.7255 80.7363 32.2422 80.7363 32.7589C80.7363 34.2057 79.6479 35.3424 78.2628 35.3424C77.6691 35.3424 77.0755 35.1357 76.6797 34.7224C76.3829 34.5157 75.9871 34.5157 75.6903 34.7224C74.9977 35.3424 74.1073 35.5491 73.1179 35.1357C72.92 35.0324 72.7221 35.0324 72.5243 35.2391C72.3264 35.3424 72.2274 35.5491 72.1285 35.7558C71.9306 36.9958 70.8423 38.0292 69.655 38.0292C68.2698 38.0292 67.0826 36.8925 67.0826 35.4457C67.0826 35.2391 67.0826 34.929 67.1815 34.7224C67.2804 34.309 67.0826 33.8956 66.7857 33.7923C66.4889 33.5856 65.9942 33.7923 65.8953 34.1023C65.4006 34.929 64.6091 35.3424 63.7186 35.3424C63.125 35.3424 62.5313 35.1357 62.1356 34.7224C61.9377 34.5157 61.6409 34.5157 61.443 34.5157C61.2451 34.5157 61.0472 34.8257 60.9483 35.0324C60.6515 36.1691 59.6621 36.8925 58.5737 36.8925C57.4854 36.8925 56.496 36.1691 56.1992 35.0324C56.1002 34.8257 55.9023 34.619 55.7045 34.5157C55.5066 34.4123 55.2098 34.5157 55.0119 34.619C54.1214 35.4457 52.6373 35.3424 51.7469 34.5157C51.45 34.2057 51.0543 34.2057 50.7575 34.5157C50.2628 34.929 49.6691 35.2391 49.0755 35.2391C47.6903 35.2391 46.602 34.1023 46.602 32.5522C46.602 32.1388 46.4041 31.8288 46.0083 31.8288C44.8211 31.6221 43.9306 30.4854 44.0295 29.2453C44.0295 28.9353 43.8317 28.6253 43.5348 28.5219C43.238 28.4186 42.9412 28.5219 42.7433 28.7286C42.2486 29.2453 41.4571 29.5553 40.7645 29.5553C40.0719 29.5553 39.4783 29.2453 38.9836 28.6253C38.4889 28.1086 38.291 27.3852 38.39 26.6618C38.39 26.1451 38.5879 25.6284 38.9836 25.1117C39.1815 24.905 39.1815 24.6983 39.1815 24.4917C39.1815 24.285 38.9836 24.0783 38.7857 23.975C37.7963 23.4583 37.1038 22.4249 37.1038 21.1848C37.1038 19.5313 38.39 18.1879 39.973 18.1879C40.1709 18.1879 40.3688 18.1879 40.4677 18.1879C40.8635 18.2913 41.2592 17.9812 41.3582 17.5679C41.655 16.1211 42.8423 15.0877 44.2274 15.0877C44.92 15.0877 45.6126 15.2944 46.1073 15.8111C46.4041 16.1211 46.8988 16.0178 47.1956 15.8111C47.4924 15.5011 47.3935 14.9844 47.1956 14.6743C46.4041 13.951 45.4147 13.5376 44.3264 13.5376C42.4465 13.5376 40.8635 14.7777 40.1709 16.5345C37.6974 16.5345 35.7186 18.6013 35.7186 21.0814C35.7186 22.5282 36.4112 23.975 37.4995 24.8017C37.2027 25.3184 37.1038 25.9384 37.0048 26.4551C36.6091 27.9019 36.9059 28.9353 37.5984 29.762C38.291 30.5887 39.2804 31.1054 40.3688 31.2088C41.1603 31.2088 41.8529 31.1054 42.4465 30.7954C42.5454 31.2088 42.7433 31.5188 43.0401 31.8288C40.3688 32.0355 37.5985 31.7255 35.026 30.6921C34.6303 30.4854 34.2345 30.6921 34.0366 31.1054C33.8387 31.5188 34.0366 31.9322 34.4324 32.1388C36.6091 33.0689 38.9836 33.4823 41.3582 33.4823C42.3476 33.4823 43.337 33.3789 44.2274 33.2756C44.3264 33.2756 44.3264 33.2756 44.4253 33.1722C44.5242 33.2756 44.6232 33.2756 44.8211 33.3789C45.0189 35.4457 46.7999 36.9958 48.7787 36.9958C49.5702 36.9958 50.3617 36.7892 50.9553 36.2725C52.0437 37.0992 53.6267 37.2025 54.814 36.5825C55.5066 37.8226 56.7928 38.6493 58.2769 38.6493C59.6621 38.6493 61.0472 37.8226 61.7398 36.5825C62.9271 37.2025 64.4112 37.0992 65.4995 36.4791C65.8953 38.3393 67.4783 39.786 69.3582 39.786C71.0401 39.786 72.5242 38.6493 73.1179 36.9958C74.1073 37.2025 75.0967 36.9958 75.8882 36.4791C76.4818 36.8925 77.2734 37.0992 77.9659 37.0992C80.1426 37.0992 81.9235 35.2391 81.9235 32.9656C81.9235 32.4489 81.8246 31.9322 81.6267 31.4155C83.2098 30.5887 84.0013 29.2453 84.0013 27.6952Z" fill="#D6BEB3"/>
<path d="M52.735 21.1848C51.7456 21.3914 50.8551 21.9081 50.0636 22.7349C49.7668 23.0449 49.7668 23.5616 50.0636 23.8716C50.3604 24.1816 50.8551 24.1816 51.1519 23.8716C53.5265 21.4948 56.9894 22.8382 60.0565 23.975C62.629 25.0084 64.9046 25.1117 67.2792 25.1117C68.0707 25.1117 68.8622 25.1117 69.5548 25.1117C70.7421 25.1117 72.0283 25.0084 73.3145 25.1117C73.7103 25.1117 74.106 24.8017 74.106 24.3883C74.106 23.975 73.8092 23.5616 73.4134 23.5616C72.9187 23.5616 72.3251 23.5616 71.8304 23.5616L72.9187 14.6743L73.4134 10.8507C73.4134 10.6441 73.4134 10.4374 73.2155 10.2307C73.1166 10.024 72.9187 9.92068 72.7208 9.92068L1.28622 9.34489e-06C0.890459 -0.103331 0.59364 0.20669 0.4947 0.620051L0 4.54698C0 4.75366 0 4.96034 0.0989399 5.16702C0.19788 5.3737 0.39576 5.47705 0.59364 5.47705L53.7244 12.9175L52.735 21.1848ZM64.5088 23.4583C64.0141 23.4583 63.5194 23.3549 63.0247 23.2516L64.1131 14.571C64.1131 14.4677 64.1131 14.3643 64.1131 14.261L65.6961 14.4677L64.5088 23.4583ZM59.7597 13.6409L58.6714 21.9082C58.1767 21.7015 57.682 21.5981 57.1873 21.4948L58.1767 13.5376L59.7597 13.6409ZM54.2191 20.9781L55.2085 13.0209L56.6926 13.2276L55.7032 21.0814C55.2085 20.9781 54.7138 20.9781 54.2191 20.9781ZM60.0565 22.4249L61.1449 13.8476L62.7279 14.0543C62.629 14.1576 62.629 14.261 62.629 14.3643L61.5406 22.9416C61.1449 22.8382 60.7491 22.7349 60.3534 22.5282C60.2544 22.4249 60.1555 22.4249 60.0565 22.4249ZM65.9929 23.5616L67.1802 14.6743L68.7633 14.881L67.6749 23.5616C67.0813 23.6649 66.4876 23.6649 65.9929 23.5616ZM69.3569 23.5616C69.2579 23.5616 69.159 23.5616 69.0601 23.5616L70.1484 15.0877L71.2367 15.191L70.1484 23.4583C69.9505 23.5616 69.6537 23.5616 69.3569 23.5616ZM1.87986 1.65345L71.7315 11.3674L71.4346 13.6409L1.58304 3.92694L1.87986 1.65345Z" fill="#D6BEB3"/>
</g>
<defs>
<clipPath id="clip0_10_18546">
<rect width="84" height="99" fill="white"/>
</clipPath>
</defs>
</svg>
