<svg width="80" height="82" viewBox="0 0 80 82" fill="none" xmlns="http://www.w3.org/2000/svg">
<g clip-path="url(#clip0_10_17604)">
<path d="M34.8013 6.86749C32.7803 7.54113 31.0044 9.07214 28.7997 9.3171C27.2074 9.56207 25.6152 8.94966 24.2679 8.21478C23.533 7.84733 22.9206 8.94966 23.6555 9.31711C25.0028 10.052 26.4726 10.6644 28.0036 10.6032C29.2284 10.6032 30.392 10.297 31.433 9.86827C33.3927 9.0109 35.2299 7.66361 37.5571 7.66361C39.4555 7.72485 41.109 8.64346 42.7013 9.62331C43.3749 10.052 43.9873 8.94966 43.3137 8.52098C40.6803 6.86749 37.802 5.8264 34.8013 6.86749Z" fill="#9EA6B3" fill-opacity="0.41"/>
<path d="M61.3796 12.869C61.3184 10.7255 60.8897 8.58213 59.9098 6.62244C59.0525 4.9077 57.6439 3.62166 55.868 2.94801C53.6021 2.15189 51.1525 2.51932 48.9478 3.13173C47.3555 3.62165 45.7633 4.23406 44.2935 4.96895C43.5586 5.33639 44.171 6.43872 44.9672 6.13251C48.5804 4.35654 54.5207 2.09064 57.7664 5.70383C58.9912 7.05112 59.5424 8.82709 59.9098 10.5418C60.2773 12.7465 60.2773 15.0736 60.1548 17.2783C59.7261 22.1163 58.5625 26.9543 57.0315 31.5473C56.5416 32.8946 55.868 34.0581 54.5819 34.7318C53.9083 35.038 53.1734 35.1605 52.3773 35.2217C52.1323 35.2217 51.8873 35.2217 51.5199 35.2217C48.2129 35.2217 44.7834 35.2217 41.4765 35.2217C36.2098 35.2217 30.8206 35.2217 25.554 35.2217C24.3291 35.2217 23.1043 35.2217 21.8795 35.2217C21.6346 35.2217 21.2671 35.2217 21.0222 35.2217C19.9198 35.2217 18.94 34.8543 18.0826 34.2419C16.6741 33.0783 16.1842 31.1186 15.633 29.4651C14.8981 27.138 14.347 24.7496 14.0408 22.3612C13.6733 20.0341 13.4896 17.6457 13.6121 15.1961C13.6733 13.1752 13.9795 11.0318 14.7756 9.1333C15.5105 7.54104 16.5516 6.13251 18.2051 5.45887C20.1648 4.6015 22.4919 4.84646 24.5129 5.39763C26.0439 5.82631 27.5136 6.43872 28.9222 7.11236C29.6571 7.4798 30.3307 6.31624 29.5346 6.01003C29.0447 5.76507 28.5547 5.52011 27.9423 5.27515C29.4733 3.9891 31.1268 2.82553 33.209 2.45809C34.985 2.15189 36.8222 2.64181 38.5369 3.25422C39.7617 3.74414 40.8641 4.35654 42.0276 4.90771C42.7625 5.27515 43.3749 4.17282 42.64 3.80538C40.6191 2.76429 38.5369 1.66196 36.271 1.23328C34.1889 0.865837 32.1679 1.17204 30.2695 2.09065C28.9834 2.76429 27.7586 3.74414 26.6563 4.72399C22.9206 3.31545 18.5113 2.70305 15.4493 5.76507C12.326 8.88834 12.1423 14.0938 12.326 18.1969C12.4485 20.769 12.8159 23.3411 13.3671 25.8519C13.6121 27.0767 13.9183 28.2403 14.2857 29.4651C14.7756 31.1798 15.3268 33.2008 16.5516 34.5481C17.7764 36.0178 19.4912 36.5078 21.3284 36.5078C21.5121 37.6713 21.6958 38.8349 21.8183 40.0597C21.9408 40.7946 22.002 41.4682 22.4307 42.0194C22.9819 42.938 23.9005 43.4892 24.8803 43.4892C25.0028 43.4892 25.1253 43.4892 25.2478 43.4892C25.3702 44.8365 25.6152 46.1838 25.7377 47.531C25.9826 49.3683 26.1664 51.1442 26.4113 52.9814C26.3501 53.0427 26.2888 53.2264 26.2888 53.3489C26.3501 53.5326 26.4113 53.7163 26.5338 53.8388C26.7175 55.2473 26.9625 56.7171 27.085 58.1869C26.9625 58.3094 26.7788 58.4931 26.7788 58.738C26.7788 58.983 26.9625 59.2892 27.2687 59.3504C27.3912 60.6977 27.6361 62.045 27.8198 63.4536C27.5136 63.5148 27.2687 63.7598 27.2687 64.1272C27.2687 64.4946 27.5749 64.8008 27.9423 64.8008L28.0036 64.8621C28.126 66.2094 28.371 67.5567 28.4935 68.904L28.3098 68.8427C27.9423 68.8427 27.6361 69.1489 27.6361 69.5164C27.6361 69.8838 27.9423 70.19 28.3098 70.19L28.6772 70.19C28.7997 71.5373 29.0447 72.8846 29.1671 74.2319L28.6772 74.2319C28.3098 74.2319 28.0036 74.5381 28.0036 74.9055C28.0036 75.273 28.3098 75.5792 28.6772 75.5792L29.4121 75.5792C29.5346 76.1916 29.5958 76.8652 29.6571 77.5389C29.8408 78.5799 29.9633 79.5598 30.8819 80.2334C31.4943 80.7234 32.2292 80.7234 32.964 80.7234C33.6989 80.7234 34.4338 80.7234 35.2912 80.7234C37.0059 80.3559 38.7206 80.3559 40.4354 80.3559C41.2315 80.4172 41.9664 80.2947 42.64 79.7435C43.2524 79.2536 43.5586 78.5799 43.6199 77.7838C43.7424 76.9264 43.8036 76.1303 43.9261 75.273L44.5997 75.3342C44.7834 75.3954 44.9059 75.273 45.0284 75.1505C45.1509 75.028 45.2121 74.8443 45.2121 74.7218C45.2121 74.3544 44.9059 74.0481 44.5385 74.0481L44.0486 74.0481C44.171 73.4357 44.171 72.8233 44.2935 72.2109C44.416 71.476 44.4772 70.8024 44.5385 70.0063L44.9059 70.0063C45.0896 70.0675 45.2121 69.945 45.3346 69.8226C45.4571 69.7001 45.5183 69.5164 45.5183 69.3939C45.5183 69.0264 45.2121 68.7202 44.8447 68.7202V68.5977C44.9672 67.2505 45.2121 65.9032 45.3346 64.5559L45.3959 64.6171C45.6408 64.6171 45.7021 64.5559 45.8245 64.4334C45.947 64.3109 46.0083 64.1272 46.0083 64.0047C46.0083 63.6373 45.7633 63.3923 45.4571 63.3311C45.5796 62.5962 45.6408 61.8001 45.7021 61.1264C45.8245 60.514 45.8858 59.8404 45.947 59.2892C46.0695 59.2892 46.1307 59.228 46.192 59.1667C46.3145 59.0442 46.3757 58.8605 46.3757 58.738C46.3757 58.4931 46.2532 58.3706 46.0695 58.1869C46.2532 56.7783 46.4369 55.2473 46.6207 53.8388C46.7431 53.7163 46.8044 53.5326 46.8044 53.4101C46.8044 53.2876 46.8044 53.1652 46.6819 53.0427C46.8044 51.9404 46.9881 50.8993 47.1106 49.7969C47.3555 47.7148 47.6005 45.6326 47.9067 43.4892C48.0292 43.4892 48.0292 43.4892 48.1517 43.4892C49.7439 43.4892 51.03 42.3256 51.3362 40.7946C51.5811 39.3248 51.7649 37.9163 51.9486 36.5078C53.4183 36.5078 54.7656 36.1403 55.9292 35.2217C57.154 34.2419 57.7052 32.9558 58.1339 31.5473C58.5625 30.3837 58.8687 29.2202 59.2362 27.9953C59.9098 25.4845 60.461 22.9736 60.8284 20.4015C61.3184 17.9519 61.5021 15.4411 61.3796 12.869ZM30.5144 43.4892C31.3718 43.4892 32.2292 43.4892 33.0865 43.4892C37.0059 43.4892 40.8028 43.4892 44.7222 43.4892C45.3346 43.4892 46.0695 43.4892 46.6819 43.4892C46.4982 44.7752 46.3757 46 46.192 47.2861L27.085 47.2861C26.9012 46 26.7788 44.7752 26.595 43.4892C27.8811 43.5504 29.1671 43.4892 30.5144 43.4892ZM45.4571 52.6752L27.7586 52.614C27.6361 51.5117 27.5136 50.5318 27.3299 49.4907C27.2687 49.1845 27.2687 48.9396 27.2074 48.6334L45.947 48.6334C45.8245 49.9807 45.7021 51.3279 45.4571 52.6752ZM44.7835 58.0032L28.4323 57.9419C28.3098 56.5946 28.0648 55.2473 27.9423 53.9L45.3346 53.9C45.2121 55.1249 45.0284 56.4109 44.8447 57.5745C44.7834 57.7582 44.8447 57.8194 44.7835 58.0032ZM42.4563 76.8652C42.3951 77.4164 42.3951 78.0288 42.0889 78.4575C41.6602 79.1311 41.0478 79.1311 40.3129 79.1311C39.578 79.1311 38.8431 79.1311 38.047 79.1923C36.3323 79.1923 34.6175 79.1923 32.9028 79.1923C32.1679 79.1923 31.4943 79.1311 31.1881 78.4575C31.0656 78.2125 31.0043 78.0288 30.9431 77.7226C30.8819 76.9264 30.6981 76.1303 30.6369 75.3342L42.64 75.3342C42.5175 75.8241 42.5176 76.314 42.4563 76.8652ZM42.7625 73.9869L30.4532 73.9257C30.3307 73.0683 30.2695 72.2722 30.147 71.4148C30.0857 70.8636 29.9633 70.3737 29.9633 69.8838L43.3137 69.8838C43.13 71.2923 42.9462 72.5784 42.7625 73.9869ZM43.4362 68.659L29.7795 68.5977C29.6571 67.2505 29.4121 65.9032 29.2896 64.5559L43.9873 64.5559C43.8036 65.9644 43.6199 67.2505 43.4362 68.659ZM44.1098 63.3311L29.1059 63.2698C29.0447 62.3512 28.8609 61.4326 28.7385 60.4528C28.6772 60.0241 28.616 59.5954 28.5547 59.1667H44.5997C44.4772 60.6365 44.2935 61.9225 44.1098 63.3311ZM49.8052 41.2233C49.499 41.7744 48.9478 42.2031 48.2741 42.1419C48.0292 42.1419 47.6617 42.1419 47.4168 42.1419C45.8245 42.1419 44.3548 42.1419 42.7625 42.1419C42.64 42.1419 42.3951 42.1419 42.2726 42.1419C36.6385 42.1419 30.8819 42.1419 25.2478 42.1419C25.0028 42.1419 24.6353 42.1419 24.3904 42.0194C23.533 41.652 23.2881 40.7946 23.1043 39.9985C22.9206 38.8349 22.7369 37.6713 22.6144 36.4465C23.2268 36.4465 23.9617 36.4465 24.5741 36.4465C28.4935 36.4465 32.4129 36.4465 36.3323 36.4465C40.3741 36.4465 44.2935 36.4465 48.3354 36.4465C49.1928 36.4465 49.9276 36.4465 50.785 36.4465C50.6013 37.4876 50.4176 38.5287 50.2951 39.5085C50.1114 40.1822 50.1114 40.7946 49.8052 41.2233Z" fill="#57565C"/>
<path d="M63.71 53.0427C62.6077 54.145 60.7705 54.145 59.6681 53.0427C59.4232 52.7977 58.9945 52.7365 58.6883 53.0427C58.3821 53.3489 58.3821 53.7163 58.6883 54.0225C59.7906 55.1249 59.7906 56.9621 58.6883 58.0644C58.4433 58.3093 58.3821 58.738 58.6883 59.0442C58.9945 59.3504 59.3619 59.3504 59.6681 59.0442C60.7705 57.9419 62.6077 57.9419 63.71 59.0442C63.955 59.2892 64.3836 59.3504 64.6898 59.0442C64.996 58.738 64.996 58.3706 64.6898 58.0644C63.5875 56.9621 63.5875 55.1249 64.6898 54.0225C64.9348 53.7776 64.996 53.3489 64.6898 53.0427C64.3836 52.7365 63.955 52.7977 63.71 53.0427ZM62.6077 56.8396C61.9953 56.7171 61.3829 56.7171 60.7705 56.8396C60.8929 56.2272 60.8929 55.6148 60.7705 55.0024C61.3829 55.1249 61.9953 55.1249 62.6077 55.0024C62.4852 55.6148 62.4852 56.2272 62.6077 56.8396Z" fill="#9EA6B3" fill-opacity="0.41"/>
<path d="M71.9791 24.0765C70.3256 25.73 67.5697 25.7912 65.855 24.0765C65.61 23.8315 65.1814 23.7703 64.8752 24.0765C64.569 24.3827 64.6914 24.7501 64.9364 24.9951C66.5899 26.6486 66.6511 29.4044 64.9364 31.1191C64.6914 31.3641 64.6302 31.7928 64.9364 32.099C65.2426 32.4052 65.61 32.4052 65.9162 32.099C67.5697 30.4455 70.3256 30.3843 72.0403 32.099C72.2853 32.344 72.7139 32.4052 73.0201 32.099C73.3263 31.7928 73.3263 31.4254 73.0201 31.1192C71.3666 29.4657 71.3054 26.7098 73.0201 24.9951C73.2651 24.7501 73.3263 24.3215 73.0201 24.0153C72.5915 23.8315 72.224 23.8315 71.9791 24.0765ZM70.5705 29.6494C69.4682 29.2819 68.3046 29.3432 67.2635 29.6494C67.631 28.5471 67.5697 27.3835 67.2635 26.3424C68.3659 26.7098 69.5294 26.6486 70.5705 26.3424C70.2031 27.4447 70.2643 28.6083 70.5705 29.6494Z" fill="#9EA6B3" fill-opacity="0.41"/>
<path d="M-6.90281 34.8547C-5.24932 33.2012 -2.4935 33.14 -0.778764 34.8547C-0.533803 35.0997 -0.0438785 35.0997 0.201083 34.8547C0.446045 34.6098 0.507285 34.1811 0.201082 33.8749C-1.45241 32.2214 -1.51365 29.4656 0.201083 27.7508C0.446045 27.5059 0.446046 27.016 0.201084 26.771C-0.0438782 26.526 -0.472562 26.4648 -0.778763 26.771C-2.43226 28.4245 -5.18808 28.4857 -6.90281 26.771C-7.14777 26.6485 -7.51521 26.6485 -7.82141 26.9547C-8.06637 27.1997 -8.12762 27.6284 -7.82141 27.9346C-6.16792 29.5881 -6.10668 32.3439 -7.82141 34.0586C-8.06637 34.3036 -8.06637 34.7935 -7.82141 35.0385C-7.57645 35.2834 -7.14777 35.0997 -6.90281 34.8547ZM-5.49428 29.2819C-4.45319 29.5881 -3.22838 29.5881 -2.18729 29.2819C-2.4935 30.3229 -2.55474 31.4865 -2.18729 32.5888C-3.22838 32.2826 -4.45319 32.2826 -5.49428 32.5888C-5.12683 31.4865 -5.18807 30.3229 -5.49428 29.2819Z" fill="#9EA6B3" fill-opacity="0.41"/>
<path d="M11.2251 54.4514C11.3476 54.4514 11.5313 54.3901 11.6538 54.2677C11.7763 54.1452 11.8375 53.9614 11.8375 53.839C11.8375 53.7165 11.7763 53.5328 11.6538 53.4103C11.5313 53.2878 11.3476 53.2266 11.2251 53.2266C11.1027 53.2266 11.0414 53.2878 10.9802 53.2266C10.7352 53.349 10.6127 53.594 10.6127 53.839C10.6127 53.9614 10.674 54.1452 10.7965 54.2676C10.8577 54.3289 10.9189 54.3901 11.0414 54.3901C11.1027 54.4514 11.1639 54.5126 11.2251 54.4514Z" fill="#9EA6B3" fill-opacity="0.41"/>
<path d="M0.570533 46.2454C0.631773 46.1842 0.693014 46.1229 0.693014 46.0004C0.754254 45.9392 0.754254 45.8167 0.693013 45.7555C0.693013 45.633 0.631773 45.4493 0.509292 45.3268C0.386811 45.2043 0.20309 45.1431 0.0806089 45.1431C-0.0418719 45.1431 -0.0418711 45.1431 -0.164352 45.1431C-0.409314 45.2655 -0.531795 45.5105 -0.531795 45.7555C-0.531795 45.878 -0.470555 46.0617 -0.348074 46.1842C-0.225593 46.3066 -0.0418719 46.3679 0.0806089 46.3679C0.26433 46.4291 0.448052 46.3679 0.570533 46.2454Z" fill="#9EA6B3" fill-opacity="0.41"/>
<path d="M7.85834 36.3854C7.98082 36.2629 8.04206 36.0792 8.04206 35.9567C8.04206 35.8342 7.98082 35.6505 7.85833 35.528C7.79709 35.4668 7.73585 35.4056 7.61337 35.4056C7.55213 35.3443 7.42965 35.3443 7.36841 35.4056C7.12345 35.4056 6.87849 35.528 6.75601 35.773C6.69477 35.8342 6.69477 35.9567 6.75601 36.018C6.81725 36.0792 6.75601 36.1404 6.75601 36.2629C6.81725 36.3242 6.81725 36.4466 6.87849 36.5079C6.93973 36.5691 7.00097 36.6304 7.12345 36.6304C7.18469 36.6916 7.30717 36.6916 7.36841 36.6304C7.42965 36.5691 7.49089 36.6304 7.61337 36.6304C7.73586 36.5079 7.7971 36.4466 7.85834 36.3854Z" fill="#9EA6B3" fill-opacity="0.41"/>
<path d="M19.9251 48.205C20.0476 48.0825 20.1088 47.8988 20.1088 47.7763C20.1088 47.6539 20.0476 47.4701 19.9251 47.3477C19.8026 47.2252 19.6189 47.1639 19.4964 47.1639C19.129 47.1639 18.8228 47.4701 18.8228 47.8376C18.8228 47.9601 18.884 48.1438 19.0065 48.2663C19.129 48.3887 19.3127 48.45 19.4352 48.45C19.6189 48.3887 19.8026 48.3275 19.9251 48.205Z" fill="#9EA6B3" fill-opacity="0.41"/>
<path d="M18.2077 67.1898C18.1465 67.1285 18.024 67.1285 17.9628 67.1898C17.5953 67.1898 17.2891 67.496 17.2891 67.8634C17.2891 67.9859 17.3504 68.0471 17.2891 68.1084C17.2279 68.1696 17.4729 68.1696 17.5341 68.2308C17.6566 68.3533 17.8403 68.4146 17.9628 68.4146C18.0853 68.4146 18.269 68.3533 18.3915 68.2308C18.5139 68.1084 18.5752 67.9246 18.5752 67.8022C18.5752 67.6797 18.5139 67.496 18.3915 67.3735C18.3915 67.251 18.3302 67.1898 18.2077 67.1898Z" fill="#9EA6B3" fill-opacity="0.41"/>
<path d="M69.1 41.2848C69.0387 41.3461 69.0387 41.4686 69.1 41.5298C69.1 41.6523 69.1612 41.836 69.2837 41.9585C69.3449 42.0197 69.4062 42.081 69.5286 42.081C69.5899 42.1422 69.7124 42.1422 69.7736 42.081C69.8961 42.081 69.9573 42.0197 70.0186 42.081C70.0798 42.1422 70.2023 42.0197 70.2635 41.9585C70.386 41.836 70.4472 41.6523 70.4472 41.5298C70.4472 41.4073 70.386 41.3461 70.4472 41.2848C70.386 41.2236 70.386 41.1011 70.3248 41.0399C70.2023 40.9174 70.0186 40.8562 69.8961 40.8562C69.4674 40.9174 69.2224 41.0399 69.1 41.2848Z" fill="#9EA6B3" fill-opacity="0.41"/>
<path d="M78.5294 26.5868C78.3457 26.6481 78.2232 26.7706 78.162 26.9543C78.1007 27.0155 78.1007 27.138 78.162 27.1993C78.162 27.3217 78.2232 27.5055 78.3457 27.6279C78.407 27.6892 78.4682 27.7504 78.5907 27.7504C78.6519 27.8117 78.7744 27.8117 78.8356 27.7504C78.9581 27.7504 79.0194 27.6892 79.0806 27.7504C79.1418 27.6892 79.2643 27.6892 79.3256 27.6279C79.448 27.5055 79.5093 27.3217 79.5093 27.1993C79.5093 27.0768 79.448 27.0155 79.5093 26.9543C79.448 26.8931 79.448 26.7706 79.3868 26.7093C79.2643 26.5868 79.0806 26.5256 78.9581 26.5256C78.7131 26.5256 78.6519 26.5868 78.5294 26.5868Z" fill="#9EA6B3" fill-opacity="0.41"/>
<path d="M70.0163 15.5025C69.9551 15.4413 69.8939 15.38 69.7714 15.38C69.6489 15.38 69.5876 15.3188 69.5264 15.38C69.159 15.38 68.8528 15.6862 68.8528 16.0537C68.8528 16.1762 68.914 16.2374 68.8528 16.2986C68.914 16.3599 68.914 16.4824 68.9752 16.5436C69.0977 16.6661 69.2814 16.7273 69.4039 16.7273C69.5264 16.7273 69.7101 16.6661 69.8326 16.5436C69.9551 16.4211 70.0163 16.2374 70.0163 16.1149C70.2001 15.8087 70.1388 15.625 70.0163 15.5025Z" fill="#9EA6B3" fill-opacity="0.41"/>
<path d="M78.3462 16.2373C78.1013 16.2373 77.7951 16.421 77.7338 16.6047C77.6726 16.666 77.6726 16.7885 77.7338 16.8497C77.7338 16.9722 77.7951 17.1559 77.9176 17.2784C78.04 17.4009 78.2238 17.4621 78.3462 17.4621C78.4687 17.4621 78.53 17.4009 78.5912 17.4621C78.6524 17.4009 78.7749 17.4009 78.8362 17.3396C78.8974 17.2784 78.9586 17.2171 78.9586 17.0947C79.0199 17.0334 79.0199 16.9109 78.9586 16.8497C78.9586 16.7272 78.8974 16.5435 78.7749 16.421C78.6524 16.2985 78.4687 16.2373 78.3462 16.2373Z" fill="#9EA6B3" fill-opacity="0.41"/>
</g>
<defs>
<clipPath id="clip0_10_17604">
<rect width="80" height="81" fill="white" transform="translate(0 0.192383)"/>
</clipPath>
</defs>
</svg>
