<svg width="86" height="100" viewBox="0 0 86 100" fill="none" xmlns="http://www.w3.org/2000/svg">
<g clip-path="url(#clip0_10_17306)">
<path d="M35.2025 40.8183C35.4036 43.3831 35.9066 45.9479 36.5101 48.5126C37.2142 51.18 38.0188 53.8474 39.0247 56.4121C39.427 57.438 39.93 58.5665 40.4329 59.5924C40.9358 60.6184 41.137 61.7469 41.2376 62.9779C41.4387 65.4401 41.3381 67.9023 41.2376 70.3645C41.0364 75.0836 40.9358 79.8028 41.7405 84.3168C42.1428 86.4712 42.7463 88.523 43.551 90.4722C44.3557 92.3189 45.3615 94.3707 46.7697 95.7044C47.4738 96.4225 48.3791 96.8329 49.2843 96.7303C50.1896 96.6277 51.0949 96.1147 51.3966 95.1914C51.6984 94.1655 51.5978 93.037 51.5978 92.0111C51.5978 90.78 51.6984 89.5489 51.6984 88.4204C51.799 84.4194 51.8995 80.3158 53.6095 76.6225C54.5147 78.8795 55.3194 81.9572 55.5206 86.266C55.7218 91.7033 56.7276 98.2691 59.8457 99.0899C60.0469 99.0899 60.1475 99.1924 60.3487 99.1924C60.751 99.1924 61.2539 99.0899 61.8574 98.6795C64.3721 96.9354 66.082 91.0878 66.5849 86.266C66.9873 82.9831 67.1884 79.8028 67.1884 77.3406C67.4902 77.6484 67.6914 77.9562 67.8925 78.264C69.8036 81.0339 70.0048 84.6246 70.1054 87.9075C70.206 89.5489 70.206 91.1904 70.3066 92.8318C70.4071 94.3707 70.6083 96.3199 72.2177 96.9355C74.0282 97.6536 75.3358 95.7044 76.2411 94.3707C77.2469 92.8318 78.0516 91.0878 78.6551 89.3437C79.7615 86.3686 80.365 83.1883 80.868 80.008C81.5721 75.8018 80.5662 71.493 80.2645 67.2868C80.1639 65.1323 80.0633 62.9779 80.6668 60.9261C80.9685 59.7976 81.4715 58.8743 81.8738 57.7458C82.3767 56.6173 82.8797 55.4888 83.282 54.2577C84.489 51.0774 85.1931 47.5893 85.696 44.2038C85.9978 41.5365 86.199 38.7665 85.3943 36.0992C84.7908 33.8422 83.3826 31.9956 81.1697 31.2774C78.2528 30.2515 74.8329 31.2774 72.0165 32.3033C71.1112 32.6111 71.5136 34.15 72.4188 33.7396C73.3241 33.4318 74.1288 33.124 75.034 32.8163C77.2469 32.2007 80.0633 31.7904 81.9744 33.3292C83.4832 34.5603 84.0867 36.7147 84.1873 38.6639C84.3884 41.4339 84.0867 44.2038 83.4832 46.9738C83.1814 48.5126 82.7791 49.9489 82.3767 51.3852C81.7732 53.6422 80.7674 55.7966 79.8621 57.8484C78.0516 61.6443 78.3533 65.9531 78.8563 70.0567C79.0574 72.1085 79.3592 74.2629 79.4598 76.3147C79.4598 77.8536 79.2586 79.2899 79.0574 80.8287C78.4539 84.009 77.7498 87.2919 76.4422 90.2671C75.7381 91.8059 74.9335 93.4474 73.7264 94.6785C73.2235 95.1914 72.7206 95.4992 72.2177 94.8836C71.8153 94.3707 71.8153 93.55 71.7147 92.9344C71.0107 86.8816 72.3183 79.1873 66.8867 75.0836C66.8867 73.75 66.9873 72.8266 66.9873 72.7241C67.0878 72.3137 66.7861 71.9033 66.3838 71.8007C65.9814 71.6982 65.5791 72.0059 65.4785 72.4163C65.4785 72.5189 65.1767 73.75 65.3779 75.6992C65.5791 78.1614 65.3779 82.0598 64.875 85.9583C64.3721 91.0878 62.5615 96.0121 60.8516 97.2432C60.4493 97.551 60.1475 97.4484 60.0469 97.4484C58.337 97.038 57.13 92.5241 56.8282 86.0608C56.5264 78.6743 54.4142 74.4681 52.8048 72.2111C52.6036 71.9033 52.1007 71.8007 51.799 72.1085C51.4972 72.3137 51.3966 72.8266 51.6984 73.237C52.0001 73.6474 52.4025 74.1603 52.7042 74.8785C52.3019 75.5966 52.0001 76.2121 51.6984 76.9303C50.089 81.0339 50.1896 85.6505 50.089 89.9593C50.089 91.1904 49.9884 92.3189 49.9884 93.55C49.9884 94.3707 49.9884 95.3966 48.882 95.1914C47.9767 94.9862 47.3732 94.1655 46.8703 93.4474C46.2668 92.6266 45.7639 91.7033 45.3615 90.8826C41.4387 82.9831 42.7463 73.75 42.6457 65.2349C42.6457 62.9779 42.5452 60.9261 41.6399 58.8743C40.8352 57.2329 40.1311 55.5914 39.6282 53.8474C38.8235 51.4878 38.1194 49.0256 37.6165 46.5634C37.1136 44.3064 36.7112 41.9468 36.7112 39.5873C36.7112 37.7406 36.9124 35.7914 37.7171 34.15C38.5218 32.7137 39.8294 31.893 41.4387 31.5852C43.9533 31.2774 46.6691 32.0981 48.9826 33.124C49.8878 33.5344 50.2902 31.9956 49.3849 31.6878C48.5802 31.38 47.7756 31.0722 46.8703 30.7645C44.6574 30.0463 41.9417 29.636 39.6282 30.4567C37.8177 31.1748 36.6107 32.5085 35.9066 34.3551C35.1019 36.407 35.0013 38.6639 35.2025 40.8183Z" fill="#9EA6B3" fill-opacity="0.41"/>
<path d="M79.7605 47.0761C79.9617 52.7186 76.743 57.5403 75.9383 62.9776C75.8377 63.388 75.3348 63.5932 75.033 63.4906C74.6307 63.388 74.4295 62.9776 74.5301 62.5673C75.2342 57.2325 78.4529 52.5134 78.2517 47.0761C78.2517 46.0502 79.7605 46.0502 79.7605 47.0761Z" fill="#9EA6B3" fill-opacity="0.41"/>
<path d="M43.7492 56.8224C41.5364 52.1032 39.927 47.0763 39.5247 41.8441C39.4241 40.8182 40.9329 40.8182 41.0335 41.8441C41.5364 46.7685 43.0452 51.5903 45.0568 56.0017C45.4592 56.925 44.1516 57.7457 43.7492 56.8224Z" fill="#9EA6B3" fill-opacity="0.41"/>
<path d="M59.4453 34.2524C59.4453 33.842 59.7471 33.4316 60.25 33.4316C60.7529 33.4316 61.0547 33.7394 61.0547 34.2524V37.9456C61.0547 38.356 60.7529 38.7664 60.25 38.7664C59.7471 38.7664 59.4453 38.4586 59.4453 37.9456V34.2524Z" fill="#57565C"/>
<path d="M59.4453 26.7631C59.4453 26.3527 59.7471 25.9424 60.25 25.9424C60.7529 25.9424 61.0547 26.2502 61.0547 26.7631V30.4564C61.0547 30.8667 60.7529 31.2771 60.25 31.2771C59.7471 31.2771 59.4453 30.9693 59.4453 30.4564V26.7631Z" fill="#57565C"/>
<path d="M60.1484 40.9209C60.5508 40.9209 60.9531 41.2287 60.9531 41.7416V43.7934C60.9531 44.2038 60.6514 44.6142 60.1484 44.6142C59.6455 44.6142 59.3438 44.3064 59.3438 43.7934V41.7416C59.4444 41.2287 59.7461 40.9209 60.1484 40.9209Z" fill="#57565C"/>
<path d="M70.0067 37.1248C69.9061 37.2274 69.7049 37.2274 69.6043 37.2274C69.4032 37.2274 69.1014 37.1248 69.0008 36.817L66.8885 33.3289C66.6874 33.0212 66.788 32.5082 67.0897 32.303C67.4921 32.0979 67.8944 32.2004 68.0956 32.5082L70.2078 36.0989C70.409 36.5093 70.3084 36.9196 70.0067 37.1248Z" fill="#57565C"/>
<path d="M65.3778 30.3539C65.1766 30.3539 64.8748 30.2513 64.7743 29.9435L62.662 26.4554C62.4608 26.045 62.5614 25.6347 62.8631 25.4295C63.1649 25.2243 63.6678 25.3269 63.869 25.6347L65.9813 29.1228C66.1824 29.4305 66.0819 29.9435 65.7801 30.1487C65.6795 30.3539 65.5789 30.3539 65.3778 30.3539Z" fill="#57565C"/>
<path d="M72.3192 39.5871L73.325 41.3312C73.5262 41.6389 73.4256 42.1519 73.1239 42.3571C73.0233 42.4597 72.8221 42.4597 72.7215 42.4597C72.5203 42.4597 72.2186 42.3571 72.118 42.0493L71.1122 40.3053C70.911 39.9975 71.0116 39.4845 71.3133 39.2793C71.6151 39.0742 72.118 39.1768 72.3192 39.5871Z" fill="#57565C"/>
<path d="M58.8387 23.378C58.4364 23.1728 58.3358 22.6598 58.537 22.3521L59.5428 20.608C59.5428 20.608 59.5428 20.608 59.6434 20.5054C59.6434 20.5054 59.6434 20.4028 59.744 20.4028C59.744 20.4028 59.744 20.4028 59.8446 20.4028H59.9452H60.0458H60.1463C60.1463 20.4028 60.1463 20.4028 60.2469 20.4028H60.3475H60.4481H60.5487C60.5487 20.4028 60.5487 20.4028 60.6493 20.5054C60.6493 20.5054 60.7498 20.5054 60.7498 20.608C60.7498 20.608 60.7498 20.608 60.8504 20.7106L61.8563 22.4546C62.0574 22.865 61.9569 23.2754 61.6551 23.4806C61.5545 23.5831 61.3534 23.5831 61.2528 23.5831C61.1522 23.5831 60.951 23.5831 60.8504 23.4806C60.7498 23.6857 60.4481 23.8909 60.1463 23.8909C59.8446 23.8909 59.6434 23.7883 59.5428 23.4806C59.4422 23.5831 59.3417 23.5831 59.1405 23.5831C59.0399 23.5831 58.9393 23.4806 58.8387 23.378Z" fill="#57565C"/>
<path d="M51.1944 37.6383C51.0938 37.6383 50.8926 37.6383 50.792 37.5357C50.3897 37.3305 50.2891 36.8175 50.4903 36.5098L52.502 33.0217C52.7031 32.6113 53.2061 32.5087 53.5078 32.7139C53.9102 32.9191 54.0107 33.4321 53.8096 33.7398L51.7979 37.2279C51.6973 37.5357 51.4961 37.6383 51.1944 37.6383Z" fill="#57565C"/>
<path d="M55.2178 30.5592C55.1172 30.5592 54.916 30.5592 54.8155 30.4566C54.4131 30.2514 54.3125 29.7384 54.5137 29.4307L56.5254 25.9426C56.7266 25.5322 57.2295 25.4296 57.5313 25.6348C57.9336 25.84 58.0342 26.353 57.833 26.6607L55.8213 30.1488C55.7207 30.4566 55.5196 30.5592 55.2178 30.5592Z" fill="#57565C"/>
<path d="M48.2783 42.9728C48.1778 42.9728 47.9766 42.9728 47.876 42.8703C47.4737 42.6651 47.3731 42.1521 47.5742 41.8443L48.5801 40.1003C48.7813 39.6899 49.2842 39.5873 49.5859 39.7925C49.9883 39.9977 50.0889 40.5107 49.8877 40.8184L48.8818 42.5625C48.7813 42.8703 48.4795 42.9728 48.2783 42.9728Z" fill="#57565C"/>
<path d="M0.70388 3.57787H11.567V3.06492C11.567 2.65456 11.8688 2.2442 12.3717 2.2442H40.636C41.8431 2.2442 42.9495 2.85974 43.7542 3.78306H53.008V2.14161C53.008 1.1157 53.8127 0.192383 54.8185 0.192383H65.6817C66.6875 0.192383 67.4922 1.01311 67.4922 2.14161V14.9654C67.4922 15.7862 67.0898 16.4017 66.4863 16.7095V17.838C66.4863 18.8639 65.6817 19.6846 64.6758 19.6846H55.8244C54.8185 19.6846 54.0138 18.8639 54.0138 17.838V16.7095C53.4103 16.4017 53.008 15.6836 53.008 14.9654V13.2214H43.7542C43.0501 14.1447 41.9437 14.7603 40.636 14.7603H12.2711C11.8688 14.7603 11.4665 14.4525 11.4665 13.9395V13.4266H0.70388C0.301544 13.4266 -0.100792 13.1188 -0.100792 12.6059V4.3986C-0.000205994 3.98824 0.301544 3.57787 0.70388 3.57787ZM55.7238 18.0432H64.5752C64.6758 18.0432 64.7764 17.9406 64.7764 17.838V16.9147H55.422V17.838C55.5226 17.9406 55.6232 18.0432 55.7238 18.0432ZM54.5167 14.9654C54.5167 15.1706 54.7179 15.3758 54.7179 15.3758H65.6817C65.7822 15.3758 65.8828 15.1706 65.8828 14.9654V2.14161C65.8828 1.93642 65.7822 1.73124 65.6817 1.73124H54.8185C54.7179 1.73124 54.6173 1.93642 54.6173 2.14161V3.88565H55.3214C57.836 3.88565 59.8477 5.93746 59.8477 8.50223C59.8477 11.067 57.836 13.1188 55.3214 13.1188H54.6173V14.9654H54.5167ZM55.2208 11.6825C56.9308 11.6825 58.2384 10.2463 58.2384 8.60482C58.2384 6.86078 56.8302 5.5271 55.2208 5.5271H44.4583C44.5589 5.83487 44.5589 6.14264 44.5589 6.45041V10.7592C44.5589 11.067 44.5589 11.3748 44.4583 11.6825H55.2208ZM13.0758 13.2214H40.636C41.9437 13.2214 43.0501 12.0929 43.0501 10.7592V6.34782C43.0501 4.91155 41.9437 3.88565 40.636 3.88565H12.9752V4.3986V12.7084V13.2214H13.0758ZM1.50857 11.8877H11.567V5.11673H1.50857V11.8877Z" fill="#57565C"/>
</g>
<defs>
<clipPath id="clip0_10_17306">
<rect width="86" height="99" fill="white" transform="matrix(-1 0 0 1 86 0.192383)"/>
</clipPath>
</defs>
</svg>
