<svg width="99" height="58" viewBox="0 0 99 58" fill="none" xmlns="http://www.w3.org/2000/svg">
<g clip-path="url(#clip0_10_18560)">
<path d="M3.96058 38.5329C3.96058 38.1315 3.65596 37.7301 3.14827 37.7301C2.74212 37.7301 2.4375 38.0311 2.4375 38.5329C2.4375 39.0346 2.74212 39.3356 3.24981 39.3356C3.7575 39.3356 3.96058 38.9343 3.96058 38.5329Z" fill="#D0B5A9"/>
<path d="M4.06035 41.7439C3.6542 41.7439 3.24805 42.0449 3.24805 42.5467C3.24805 43.0484 3.55266 43.3494 4.06035 43.3494C4.56805 43.3494 4.87266 43.0484 4.87266 42.5467C4.87266 42.0449 4.46651 41.7439 4.06035 41.7439Z" fill="#D0B5A9"/>
<path d="M3.65606 46.6609C3.2499 46.6609 2.84375 46.9619 2.84375 47.4637C2.84375 47.9654 3.2499 48.1661 3.65606 48.1661C4.06221 48.1661 4.46837 47.865 4.46837 47.3633C4.46837 46.8616 4.06221 46.6609 3.65606 46.6609Z" fill="#D0B5A9"/>
<path d="M6.29668 48.7682C5.89053 48.7682 5.48438 49.0692 5.48438 49.571C5.48438 50.0727 5.78899 50.3737 6.29668 50.3737C6.80437 50.3737 7.10899 49.9723 7.10899 49.4706C7.10899 48.9689 6.70284 48.7682 6.29668 48.7682Z" fill="#D0B5A9"/>
<path d="M3.65606 52.481C3.2499 52.481 2.84375 52.782 2.84375 53.2837C2.84375 53.7855 3.14837 54.0865 3.65606 54.0865C4.16375 54.0865 4.46837 53.7855 4.46837 53.2837C4.46837 52.782 4.06221 52.481 3.65606 52.481Z" fill="#D0B5A9"/>
<path d="M9.443 52.0796C9.443 51.6782 9.13838 51.2769 8.63069 51.2769C8.22454 51.2769 7.91992 51.5779 7.91992 52.0796C7.91992 52.5814 8.22454 52.8824 8.73223 52.8824C9.23992 52.8824 9.443 52.481 9.443 52.0796Z" fill="#D0B5A9"/>
<path d="M9.64629 53.9862C9.24014 53.9862 8.83398 54.2872 8.83398 54.789C8.83398 55.2907 9.1386 55.5917 9.64629 55.5917C10.154 55.5917 10.4586 55.2907 10.4586 54.789C10.4586 54.2872 10.0524 53.9862 9.64629 53.9862Z" fill="#D0B5A9"/>
<path d="M14.1131 49.571C13.7069 49.571 13.3008 49.8721 13.3008 50.3738C13.3008 50.8755 13.6054 51.1766 14.1131 51.1766C14.6208 51.1766 14.9254 50.8755 14.9254 50.3738C14.9254 49.8721 14.5192 49.571 14.1131 49.571Z" fill="#D0B5A9"/>
<path d="M12.6912 51.5779C12.2851 51.5779 11.8789 51.8789 11.8789 52.3806C11.8789 52.8824 12.1835 53.1834 12.6912 53.1834C13.1989 53.1834 13.5035 52.8824 13.5035 52.3806C13.5035 51.8789 13.0974 51.5779 12.6912 51.5779Z" fill="#D0B5A9"/>
<path d="M15.9412 53.4845C15.5351 53.4845 15.1289 53.7855 15.1289 54.2873C15.1289 54.789 15.4335 55.09 15.9412 55.09C16.4489 55.09 16.7535 54.789 16.7535 54.2873C16.7535 53.7855 16.3474 53.4845 15.9412 53.4845Z" fill="#D0B5A9"/>
<path d="M19.1912 52.3806C18.7851 52.3806 18.3789 52.6817 18.3789 53.1834C18.3789 53.6851 18.6835 53.9862 19.1912 53.9862C19.6989 53.9862 20.0035 53.6851 20.0035 53.1834C20.0035 52.6817 19.5974 52.3806 19.1912 52.3806Z" fill="#D0B5A9"/>
<path d="M22.3377 54.2872C21.9315 54.2872 21.5254 54.5883 21.5254 55.09C21.5254 55.5917 21.83 55.8928 22.3377 55.8928C22.8454 55.8928 23.15 55.5917 23.15 55.09C23.15 54.5883 22.8454 54.2872 22.3377 54.2872Z" fill="#D0B5A9"/>
<path d="M22.3397 52.5814C22.7458 52.5814 23.152 52.2803 23.152 51.7786C23.152 51.2769 22.8474 50.9758 22.3397 50.9758C21.9335 50.9758 21.6289 51.2769 21.6289 51.7786C21.6289 52.2803 21.9335 52.5814 22.3397 52.5814Z" fill="#D0B5A9"/>
<path d="M25.4861 52.8823C25.08 52.8823 24.6738 53.1834 24.6738 53.6851C24.6738 54.1868 24.9784 54.4879 25.4861 54.4879C25.9938 54.4879 26.2984 54.1868 26.2984 53.6851C26.2984 53.1834 25.9938 52.8823 25.4861 52.8823Z" fill="#D0B5A9"/>
<path d="M26.9061 50.7751C26.4999 50.7751 26.0938 51.0762 26.0938 51.5779C26.0938 52.0796 26.3984 52.3807 26.9061 52.3807C27.4137 52.3807 27.7184 52.0796 27.7184 51.5779C27.7184 51.0762 27.3122 50.7751 26.9061 50.7751Z" fill="#D0B5A9"/>
<path d="M30.158 52.6816C29.7519 52.6816 29.3457 52.9827 29.3457 53.4844C29.3457 53.9861 29.6503 54.2872 30.158 54.2872C30.6657 54.2872 30.9703 53.9861 30.9703 53.4844C30.9703 52.9827 30.5642 52.6816 30.158 52.6816Z" fill="#D0B5A9"/>
<path d="M30.0565 50.8756C30.4626 50.8756 30.8688 50.5745 30.8688 50.0728C30.8688 49.5711 30.5642 49.27 30.0565 49.27C29.6503 49.27 29.3457 49.5711 29.3457 50.0728C29.3457 50.5745 29.6503 50.8756 30.0565 50.8756Z" fill="#D0B5A9"/>
<path d="M34.0153 52.0796C34.0153 51.6782 33.7106 51.2769 33.203 51.2769C32.7968 51.2769 32.4922 51.5779 32.4922 52.0796C32.4922 52.5814 32.7968 52.8824 33.3045 52.8824C33.8122 52.8824 34.0153 52.481 34.0153 52.0796Z" fill="#D0B5A9"/>
<path d="M34.7264 49.1696C34.3202 49.1696 33.9141 49.4706 33.9141 49.9723C33.9141 50.4741 34.2187 50.7751 34.7264 50.7751C35.1325 50.7751 35.5387 50.4741 35.5387 49.9723C35.5387 49.4706 35.1325 49.1696 34.7264 49.1696Z" fill="#D0B5A9"/>
<path d="M32.8981 48.0657C32.8981 47.6643 32.5935 47.2629 32.1873 47.2629C31.7812 47.2629 31.4766 47.564 31.4766 48.0657C31.4766 48.5674 31.7812 48.8685 32.2889 48.8685C32.5935 48.8685 32.8981 48.4671 32.8981 48.0657Z" fill="#D0B5A9"/>
<path d="M34.8279 45.3564C34.4218 45.3564 34.0156 45.6575 34.0156 46.1592C34.0156 46.6609 34.3202 46.962 34.8279 46.962C35.2341 46.962 35.6402 46.6609 35.6402 46.1592C35.6402 45.6575 35.2341 45.3564 34.8279 45.3564Z" fill="#D0B5A9"/>
<path d="M34.9295 42.1454C34.5233 42.1454 34.1172 42.4464 34.1172 42.9482C34.1172 43.4499 34.4218 43.7509 34.9295 43.7509C35.3357 43.7509 35.7418 43.4499 35.7418 42.9482C35.7418 42.4464 35.3357 42.1454 34.9295 42.1454Z" fill="#D0B5A9"/>
<path d="M32.3903 44.7544C32.3903 44.353 32.0856 43.9517 31.578 43.9517C31.1718 43.9517 30.8672 44.2527 30.8672 44.7544C30.8672 45.2562 31.1718 45.5572 31.6795 45.5572C32.1872 45.5572 32.3903 45.1558 32.3903 44.7544Z" fill="#D0B5A9"/>
<path d="M34.3201 38.6333C33.914 38.6333 33.5078 38.9343 33.5078 39.4361C33.5078 39.9378 33.8124 40.2388 34.3201 40.2388C34.7263 40.2388 35.1324 39.9378 35.1324 39.4361C35.1324 38.9343 34.8278 38.6333 34.3201 38.6333Z" fill="#D0B5A9"/>
<path d="M34.117 36.827C34.5232 36.827 34.9293 36.5259 34.9293 36.0242C34.9293 35.5225 34.6247 35.2214 34.117 35.2214C33.7109 35.2214 33.4062 35.5225 33.4062 36.0242C33.4062 36.5259 33.7109 36.827 34.117 36.827Z" fill="#D0B5A9"/>
<path d="M34.4217 54.0865C34.0155 54.0865 33.6094 54.3876 33.6094 54.8893C33.6094 55.391 33.914 55.6921 34.4217 55.6921C34.8278 55.6921 35.234 55.391 35.234 54.8893C35.234 54.3876 34.8278 54.0865 34.4217 54.0865Z" fill="#D0B5A9"/>
<path d="M37.8748 51.0762C37.4687 51.0762 37.0625 51.3772 37.0625 51.8789C37.0625 52.3807 37.3671 52.6817 37.8748 52.6817C38.281 52.6817 38.6871 52.3807 38.6871 51.8789C38.6871 51.3772 38.3825 51.0762 37.8748 51.0762Z" fill="#D0B5A9"/>
<path d="M39.8025 53.1833C39.3964 53.1833 38.9902 53.4844 38.9902 53.9861C38.9902 54.4878 39.2948 54.7889 39.8025 54.7889C40.2087 54.7889 40.6148 54.4878 40.6148 53.9861C40.6148 53.4844 40.2087 53.1833 39.8025 53.1833Z" fill="#D0B5A9"/>
<path d="M61.0252 50.3738C60.619 50.3738 60.2129 50.6748 60.2129 51.1765C60.2129 51.6783 60.5175 51.9793 61.0252 51.9793C61.5329 51.9793 61.8375 51.6783 61.8375 51.1765C61.8375 50.6748 61.4314 50.3738 61.0252 50.3738Z" fill="#D0B5A9"/>
<path d="M59.0955 53.1833C58.6894 53.1833 58.2832 53.4844 58.2832 53.9861C58.2832 54.4878 58.5878 54.7889 59.0955 54.7889C59.5017 54.7889 59.9078 54.4878 59.9078 53.9861C59.9078 53.4844 59.5017 53.1833 59.0955 53.1833Z" fill="#D0B5A9"/>
<path d="M42.7479 54.0865C42.3417 54.0865 41.9355 54.3876 41.9355 54.8893C41.9355 55.391 42.2402 55.6921 42.7479 55.6921C43.154 55.6921 43.5602 55.391 43.5602 54.8893C43.5602 54.3876 43.154 54.0865 42.7479 54.0865Z" fill="#D0B5A9"/>
<path d="M44.1678 51.0762C43.7616 51.0762 43.3555 51.3772 43.3555 51.8789C43.3555 52.3807 43.6601 52.6817 44.1678 52.6817C44.5739 52.6817 44.9801 52.3807 44.9801 51.8789C44.9801 51.3772 44.6755 51.0762 44.1678 51.0762Z" fill="#D0B5A9"/>
<path d="M47.826 51.9792C47.4198 51.9792 47.0137 52.2803 47.0137 52.782C47.0137 53.2837 47.3183 53.5848 47.826 53.5848C48.2321 53.5848 48.6383 53.2837 48.6383 52.782C48.6383 52.2803 48.2321 51.9792 47.826 51.9792Z" fill="#D0B5A9"/>
<path d="M51.074 53.2838C50.6679 53.2838 50.2617 53.5849 50.2617 54.0866C50.2617 54.5883 50.5663 54.8894 51.074 54.8894C51.4802 54.8894 51.8863 54.5883 51.8863 54.0866C51.8863 53.5849 51.4802 53.2838 51.074 53.2838Z" fill="#D0B5A9"/>
<path d="M55.0328 51.9793C55.0328 51.5779 54.7282 51.1765 54.2205 51.1765C53.8144 51.1765 53.5098 51.4776 53.5098 51.9793C53.5098 52.481 53.8144 52.782 54.3221 52.782C54.7282 52.782 55.0328 52.3807 55.0328 51.9793Z" fill="#D0B5A9"/>
<path d="M55.2361 54.0865C54.83 54.0865 54.4238 54.3876 54.4238 54.8893C54.4238 55.391 54.7284 55.6921 55.2361 55.6921C55.6423 55.6921 56.0484 55.391 56.0484 54.8893C56.0484 54.3876 55.6423 54.0865 55.2361 54.0865Z" fill="#D0B5A9"/>
<path d="M12.7945 13.5468C14.013 13.4464 15.1299 12.9447 16.2468 12.443C17.2622 11.9412 18.2776 11.5399 19.3945 11.4395C21.0191 11.3392 22.4406 11.9412 23.6591 12.8444C24.4714 13.3461 25.1822 12.0416 24.4714 11.5399C23.1514 10.6367 21.5268 9.93433 19.9022 9.93433C18.6837 9.93433 17.4653 10.3357 16.3483 10.8374C15.333 11.2388 14.3176 11.8409 13.3022 12.0416C11.9822 12.3426 10.6622 11.9412 9.54526 11.3392C8.73295 10.8374 7.92065 12.1419 8.73295 12.6437C9.84988 13.3461 11.2714 13.7475 12.7945 13.5468Z" fill="#D0B5A9"/>
<path d="M5.99001 17.9621C5.88847 21.5745 7.91924 24.5849 8.42693 28.097C8.52847 28.4984 8.73154 28.8998 9.23924 28.8998C9.64539 28.8998 10.0515 28.5987 10.0515 28.097C9.54385 24.6853 7.51308 21.4742 7.61462 17.9621C7.51308 16.9586 5.99001 16.9586 5.99001 17.9621Z" fill="#D0B5A9"/>
<path d="M28.4313 23.1799C29.8528 20.0692 30.8682 16.8581 31.2744 13.4463C31.2744 13.0449 30.8682 12.6436 30.4621 12.6436C30.0559 12.6436 29.7513 12.9446 29.6498 13.4463C29.3452 16.557 28.3298 19.6678 27.1113 22.4775C26.9082 22.8788 27.0098 23.2802 27.4159 23.4809C27.7205 23.6816 28.2282 23.5813 28.4313 23.1799Z" fill="#D0B5A9"/>
<path d="M27.8201 43.3494C28.2263 43.3494 28.6325 43.0484 28.6325 42.5467C28.6325 42.0449 28.3278 41.7439 27.8201 41.7439C27.414 41.7439 27.1094 42.0449 27.1094 42.5467C27.1094 43.0484 27.414 43.3494 27.8201 43.3494Z" fill="#D0B5A9"/>
<path d="M26.4002 40.5399C26.8064 40.5399 27.2125 40.2388 27.2125 39.7371C27.2125 39.3357 26.9079 38.9343 26.4002 38.9343C25.9941 38.9343 25.6895 39.2354 25.6895 39.7371C25.6895 40.1385 25.9941 40.5399 26.4002 40.5399Z" fill="#D0B5A9"/>
<path d="M28.533 38.0312C28.9392 38.0312 29.3453 37.7302 29.3453 37.2284C29.3453 36.7267 29.0407 36.4257 28.533 36.4257C28.1269 36.4257 27.8223 36.7267 27.8223 37.2284C27.8223 37.7302 28.1269 38.0312 28.533 38.0312Z" fill="#D0B5A9"/>
<path d="M20.0037 38.7336C20.4099 38.7336 20.816 38.4325 20.816 37.9308C20.816 37.4291 20.5114 37.1281 20.0037 37.1281C19.5976 37.1281 19.293 37.4291 19.293 37.9308C19.293 38.4325 19.5976 38.7336 20.0037 38.7336Z" fill="#D0B5A9"/>
<path d="M17.3631 39.0347C16.9569 39.0347 16.5508 39.3357 16.5508 39.8374C16.5508 40.3392 16.8554 40.5399 17.3631 40.5399C17.8708 40.5399 18.1754 40.2388 18.1754 39.7371C18.1754 39.3357 17.7692 39.0347 17.3631 39.0347Z" fill="#D0B5A9"/>
<path d="M19.0897 43.0484C19.4958 43.0484 19.902 42.7474 19.902 42.2456C19.902 41.7439 19.5974 41.4429 19.0897 41.4429C18.6835 41.4429 18.3789 41.7439 18.3789 42.2456C18.3789 42.7474 18.6835 43.0484 19.0897 43.0484Z" fill="#D0B5A9"/>
<path d="M18.4803 43.9517C18.0741 43.9517 17.668 44.2527 17.668 44.7544C17.668 45.2562 17.9726 45.5572 18.4803 45.5572C18.988 45.5572 19.2926 45.2562 19.2926 44.7544C19.2926 44.2527 18.8864 43.9517 18.4803 43.9517Z" fill="#D0B5A9"/>
<path d="M10.1541 43.8513C10.5603 43.8513 10.9664 43.5502 10.9664 43.0485C10.9664 42.5468 10.6618 42.2457 10.1541 42.2457C9.74797 42.2457 9.44336 42.5468 9.44336 43.0485C9.44336 43.5502 9.74797 43.8513 10.1541 43.8513Z" fill="#D0B5A9"/>
<path d="M8.63069 41.1419C9.03684 41.1419 9.443 40.8409 9.443 40.3391C9.443 39.9378 9.13838 39.5364 8.63069 39.5364C8.22454 39.5364 7.91992 39.8374 7.91992 40.3391C7.91992 40.8409 8.22454 41.1419 8.63069 41.1419Z" fill="#D0B5A9"/>
<path d="M11.1698 39.1351C11.5759 39.1351 11.9821 38.834 11.9821 38.3323C11.9821 37.8306 11.6774 37.5295 11.1698 37.5295C10.7636 37.5295 10.459 37.8306 10.459 38.3323C10.459 38.834 10.7636 39.1351 11.1698 39.1351Z" fill="#D0B5A9"/>
<path d="M8.73225 37.5295C9.13841 37.5295 9.54456 37.2284 9.54456 36.7267C9.54456 36.225 9.13841 36.0243 8.73225 36.0243C8.3261 36.0243 8.02148 36.3253 8.02148 36.8271C8.02148 37.3288 8.3261 37.5295 8.73225 37.5295Z" fill="#D0B5A9"/>
<path d="M18.3787 46.4602C17.9726 46.4602 17.5664 46.7612 17.5664 47.263C17.5664 47.7647 17.871 48.0657 18.3787 48.0657C18.8864 48.0657 19.191 47.7647 19.191 47.263C19.191 46.7612 18.7849 46.4602 18.3787 46.4602Z" fill="#D0B5A9"/>
<path d="M17.2616 37.0277C17.6677 37.0277 18.0739 36.7266 18.0739 36.2249C18.0739 35.7232 17.7692 35.4221 17.2616 35.4221C16.8554 35.4221 16.5508 35.7232 16.5508 36.2249C16.5508 36.7266 16.8554 37.0277 17.2616 37.0277Z" fill="#D0B5A9"/>
<path d="M10.2557 45.1558C9.84951 45.1558 9.44336 45.4568 9.44336 45.9585C9.44336 46.4603 9.74797 46.7613 10.2557 46.7613C10.7634 46.7613 11.068 46.4603 11.068 45.9585C11.068 45.4568 10.7634 45.1558 10.2557 45.1558Z" fill="#D0B5A9"/>
<path d="M12.7948 36.827C13.2009 36.827 13.6071 36.5259 13.6071 36.0242C13.6071 35.5225 13.3024 35.2214 12.7948 35.2214C12.3886 35.2214 12.084 35.5225 12.084 36.0242C12.084 36.5259 12.3886 36.827 12.7948 36.827Z" fill="#D0B5A9"/>
<path d="M58.4862 43.3494C58.8923 43.3494 59.2985 43.0484 59.2985 42.5467C59.2985 42.0449 58.9938 41.7439 58.4862 41.7439C58.08 41.7439 57.7754 42.0449 57.7754 42.5467C57.7754 43.0484 58.08 43.3494 58.4862 43.3494Z" fill="#D0B5A9"/>
<path d="M57.0643 40.5399C57.4704 40.5399 57.8766 40.2388 57.8766 39.7371C57.8766 39.3357 57.572 38.9343 57.0643 38.9343C56.6581 38.9343 56.3535 39.2354 56.3535 39.7371C56.3535 40.1385 56.6581 40.5399 57.0643 40.5399Z" fill="#D0B5A9"/>
<path d="M59.1971 38.0312C59.6033 38.0312 60.0094 37.7302 60.0094 37.2284C60.0094 36.7267 59.7048 36.4257 59.1971 36.4257C58.7909 36.4257 58.4863 36.7267 58.4863 37.2284C58.4863 37.7302 58.7909 38.0312 59.1971 38.0312Z" fill="#D0B5A9"/>
<path d="M50.6678 38.7336C51.074 38.7336 51.4801 38.4325 51.4801 37.9308C51.4801 37.4291 51.1755 37.1281 50.6678 37.1281C50.2616 37.1281 49.957 37.4291 49.957 37.9308C49.957 38.4325 50.2616 38.7336 50.6678 38.7336Z" fill="#D0B5A9"/>
<path d="M48.0272 39.0347C47.621 39.0347 47.2148 39.3357 47.2148 39.8374C47.2148 40.3392 47.5195 40.5399 48.0272 40.5399C48.4333 40.5399 48.8395 40.2388 48.8395 39.7371C48.8395 39.3357 48.4333 39.0347 48.0272 39.0347Z" fill="#D0B5A9"/>
<path d="M49.7537 43.0484C50.1599 43.0484 50.566 42.7474 50.566 42.2456C50.566 41.7439 50.2614 41.4429 49.7537 41.4429C49.3476 41.4429 49.043 41.7439 49.043 42.2456C49.043 42.7474 49.3476 43.0484 49.7537 43.0484Z" fill="#D0B5A9"/>
<path d="M49.1443 43.9517C48.7382 43.9517 48.332 44.2527 48.332 44.7544C48.332 45.2562 48.6366 45.5572 49.1443 45.5572C49.5505 45.5572 49.9566 45.2562 49.9566 44.7544C49.9566 44.2527 49.5505 43.9517 49.1443 43.9517Z" fill="#D0B5A9"/>
<path d="M40.8182 43.8513C41.2243 43.8513 41.6305 43.5502 41.6305 43.0485C41.6305 42.5468 41.3259 42.2457 40.8182 42.2457C40.412 42.2457 40.1074 42.5468 40.1074 43.0485C40.1074 43.5502 40.412 43.8513 40.8182 43.8513Z" fill="#D0B5A9"/>
<path d="M39.2967 39.6367C38.8905 39.6367 38.4844 39.9378 38.4844 40.4395C38.4844 40.8409 38.789 41.2423 39.2967 41.2423C39.7028 41.2423 40.109 40.9412 40.109 40.4395C40.109 40.0381 39.8044 39.6367 39.2967 39.6367Z" fill="#D0B5A9"/>
<path d="M41.8338 39.135C42.24 39.135 42.6461 38.8339 42.6461 38.3322C42.6461 37.8305 42.3415 37.5294 41.8338 37.5294C41.4277 37.5294 41.123 37.8305 41.123 38.3322C41.123 38.8339 41.4277 39.135 41.8338 39.135Z" fill="#D0B5A9"/>
<path d="M39.3963 37.5295C39.8025 37.5295 40.2086 37.2284 40.2086 36.7267C40.2086 36.225 39.904 35.924 39.3963 35.924C38.9902 35.924 38.6855 36.225 38.6855 36.7267C38.6855 37.2284 38.9902 37.5295 39.3963 37.5295Z" fill="#D0B5A9"/>
<path d="M49.0428 46.4602C48.6366 46.4602 48.2305 46.7612 48.2305 47.263C48.2305 47.7647 48.5351 48.0657 49.0428 48.0657C49.4489 48.0657 49.8551 47.7647 49.8551 47.263C49.8551 46.7612 49.4489 46.4602 49.0428 46.4602Z" fill="#D0B5A9"/>
<path d="M47.9256 37.0277C48.3318 37.0277 48.7379 36.7266 48.7379 36.2249C48.7379 35.7232 48.4333 35.4221 47.9256 35.4221C47.5195 35.4221 47.2148 35.7232 47.2148 36.2249C47.2148 36.7266 47.5195 37.0277 47.9256 37.0277Z" fill="#D0B5A9"/>
<path d="M40.9197 45.1558C40.5136 45.1558 40.1074 45.4568 40.1074 45.9585C40.1074 46.4603 40.412 46.7613 40.9197 46.7613C41.3259 46.7613 41.732 46.4603 41.732 45.9585C41.732 45.4568 41.4274 45.1558 40.9197 45.1558Z" fill="#D0B5A9"/>
<path d="M43.4588 36.827C43.865 36.827 44.2711 36.5259 44.2711 36.0242C44.2711 35.5225 43.9665 35.2214 43.4588 35.2214C43.0527 35.2214 42.748 35.5225 42.748 36.0242C42.748 36.5259 43.0527 36.827 43.4588 36.827Z" fill="#D0B5A9"/>
<path d="M58.5877 18.8651C58.9939 18.8651 59.4 18.564 59.4 18.0623C59.4 17.5606 59.0954 17.2595 58.5877 17.2595C58.1816 17.2595 57.877 17.5606 57.877 18.0623C57.877 18.564 58.1816 18.8651 58.5877 18.8651Z" fill="#D0B5A9"/>
<path d="M57.3689 13.7474C56.9628 13.7474 56.5566 14.0485 56.5566 14.5502C56.5566 15.0519 56.8613 15.353 57.3689 15.353C57.7751 15.353 58.1813 15.0519 58.1813 14.5502C58.1813 14.0485 57.7751 13.7474 57.3689 13.7474Z" fill="#D0B5A9"/>
<path d="M53.41 12.3425C53.0038 12.3425 52.6992 12.6436 52.6992 13.1453C52.6992 13.647 53.0038 13.9481 53.5115 13.9481C53.9177 13.9481 54.3238 13.647 54.3238 13.1453C54.3238 12.6436 53.8161 12.3425 53.41 12.3425Z" fill="#D0B5A9"/>
<path d="M56.4568 9.93433C56.0507 9.93433 55.6445 10.2354 55.6445 10.7371C55.6445 11.2388 55.9491 11.5399 56.4568 11.5399C56.863 11.5399 57.2691 11.2388 57.2691 10.7371C57.2691 10.2354 56.863 9.93433 56.4568 9.93433Z" fill="#D0B5A9"/>
<path d="M60.1111 10.6367C59.705 10.6367 59.2988 10.9378 59.2988 11.4395C59.2988 11.9412 59.6034 12.2423 60.1111 12.2423C60.5173 12.2423 60.9234 11.9412 60.9234 11.4395C60.9234 10.9378 60.6188 10.6367 60.1111 10.6367Z" fill="#D0B5A9"/>
<path d="M64.5778 10.9378C64.5778 10.5364 64.2731 10.135 63.7655 10.135C63.3593 10.135 63.0547 10.436 63.0547 10.9378C63.0547 11.4395 63.3593 11.7405 63.867 11.7405C64.3747 11.7405 64.5778 11.4395 64.5778 10.9378Z" fill="#D0B5A9"/>
<path d="M61.6346 13.8478C61.2284 13.8478 60.8223 14.1488 60.8223 14.6505C60.8223 15.1523 61.1269 15.4533 61.6346 15.4533C62.1423 15.4533 62.4469 15.1523 62.4469 14.6505C62.4469 14.1488 62.1423 13.8478 61.6346 13.8478Z" fill="#D0B5A9"/>
<path d="M62.5465 18.0623C62.5465 17.6609 62.2419 17.2595 61.7342 17.2595C61.3281 17.2595 61.0234 17.5606 61.0234 18.0623C61.0234 18.564 61.3281 18.8651 61.8357 18.8651C62.3434 18.8651 62.5465 18.4637 62.5465 18.0623Z" fill="#D0B5A9"/>
<path d="M60.9237 20.9724C60.5175 20.9724 60.2129 21.2735 60.2129 21.7752C60.2129 22.2769 60.5175 22.5779 61.0252 22.5779C61.5329 22.5779 61.8375 22.2769 61.8375 21.7752C61.8375 21.2735 61.3298 20.9724 60.9237 20.9724Z" fill="#D0B5A9"/>
<path d="M38.4823 24.0831C38.8884 24.0831 39.2946 23.782 39.2946 23.2803C39.2946 22.7786 38.9899 22.4775 38.4823 22.4775C38.0761 22.4775 37.7715 22.7786 37.7715 23.2803C37.7715 23.782 38.0761 24.0831 38.4823 24.0831Z" fill="#D0B5A9"/>
<path d="M38.6873 25.6886C38.2812 25.6886 37.875 25.9896 37.875 26.4914C37.875 26.9931 38.1796 27.2941 38.6873 27.2941C39.0935 27.2941 39.4996 26.9931 39.4996 26.4914C39.4996 25.9896 39.0935 25.6886 38.6873 25.6886Z" fill="#D0B5A9"/>
<path d="M99 29.7025C99 22.8789 93.3139 17.2596 86.4092 17.2596H73.6154C70.4677 17.2596 67.4215 18.4637 65.1877 20.571C65.4923 19.4672 65.7969 18.4637 66 17.3599C66.6092 14.6506 67.2185 10.9378 65.5938 8.42912C63.1569 4.71632 57.8769 6.92393 54.8308 8.42912C53.8154 8.73016 54.6277 10.0347 55.5415 9.63327C57.2677 8.8305 59.1969 7.92739 61.1262 7.82704C62.2431 7.7267 63.2585 8.02774 63.9692 8.8305C64.5785 9.53293 64.8831 10.7371 64.8831 11.7405C64.9846 13.2457 64.7815 14.6506 64.5785 16.1558C64.2738 17.7613 63.8677 19.3668 63.36 20.872C63.1569 21.5744 62.8523 22.3772 62.6492 23.0796C62.2431 24.0831 61.7354 25.0866 61.4308 26.09C59.9077 25.4879 59.0954 23.8824 58.1815 21.8755C57.2677 20.0693 56.3539 18.1627 54.8308 16.8582C54.2215 16.3565 53.6123 16.0554 53.0031 15.654C51.2769 14.7509 49.8554 13.9482 49.8554 11.0381C50.0585 11.0381 50.16 10.9378 50.2615 10.9378C51.8862 10.8374 53.3077 11.5398 54.5262 12.3426C55.3385 12.8443 56.0492 11.5398 55.3385 11.0381C54.0185 10.135 52.3938 9.43258 50.7692 9.33223C49.4492 9.33223 48.2308 9.73362 47.1138 10.2353C46.0985 10.7371 45.0831 11.2388 43.8646 11.4395C42.5446 11.7405 41.2246 11.3392 40.1077 10.7371C39.2954 10.2353 38.4831 11.5398 39.2954 12.0416C40.6154 12.744 42.0369 13.2457 43.4585 13.045C44.6769 12.9447 45.7938 12.443 47.0123 11.8409C47.4185 11.6402 47.8246 11.4395 48.2308 11.3392C48.4338 14.7509 50.4646 15.8547 52.1908 16.8582C52.8 17.1592 53.3077 17.4603 53.7139 17.8616C55.0339 18.9655 55.9477 20.6713 56.76 22.3772C57.7754 24.4845 58.8923 26.6921 61.0246 27.3945C60.8215 28.7994 60.9231 30.3046 60.9231 31.7094C60.9231 32.0104 60.9231 32.2111 60.9231 32.5122C56.0492 32.3115 51.7846 32.1108 48.84 32.1108C46.4031 32.1108 42.9508 32.2111 38.9908 32.4118C42.0369 28.398 41.8338 25.0866 41.1231 23.0796C39.8031 19.5675 36.3508 17.4603 34.32 16.9585C34.2185 16.6575 34.2185 16.2561 34.1169 15.8547C33.9138 14.2492 33.8123 12.6437 34.1169 11.0381C34.4215 9.73362 35.1323 8.62981 36.5538 8.32877C38.7877 7.82704 41.4277 9.0312 43.3569 10.0347C44.2708 10.436 44.9815 9.13154 44.1692 8.73016C43.9662 8.62981 43.7631 8.52947 43.56 8.42912C44.6769 7.52601 45.9969 6.92393 47.52 6.92393C49.1446 6.92393 50.7692 7.52601 52.2923 8.22843C53.1046 8.62981 53.9169 7.32531 53.1046 6.92393C51.3785 6.02082 49.4492 5.31839 47.52 5.41874C45.4892 5.51909 43.6615 6.4222 42.1385 7.82704C39.3969 6.72324 35.9446 6.02082 34.0154 8.22843C33.3046 7.32531 32.2892 6.72324 30.9692 6.52255C28.4308 6.22151 25.7908 7.42566 23.6585 8.42912C22.7446 8.8305 23.5569 10.135 24.4708 9.73362C26.4 9.0312 28.6338 8.02774 30.7662 8.22843C31.8831 8.32877 32.6954 8.93085 33.2031 9.83396C32.5938 11.0381 32.4923 12.6437 32.5938 14.0485C32.5938 15.4533 32.7969 16.8582 33.1015 18.1627C33.1015 18.4637 32.8985 18.8651 32.7969 19.1661C32.6954 19.5675 32.5938 19.9689 32.4923 20.3703C32.2892 21.1731 31.9846 21.8755 31.7815 22.6783C31.4769 23.481 31.2738 24.1834 30.8677 24.8859C30.5631 25.5883 30.2585 26.2907 30.0554 26.9931C29.7508 28.5987 29.8523 30.2042 29.8523 31.8097C29.8523 32.2111 29.8523 32.7129 29.8523 33.1142C22.1354 33.4153 12.5908 33.7163 6.80308 33.3149C6.90462 32.4118 7.00615 31.5087 7.10769 30.6056C7.20923 29.2007 7.10769 27.7959 6.80308 26.4914C6.39692 24.9862 5.58462 23.6817 5.07692 22.2769C4.36615 20.3703 3.96 18.263 3.65538 16.2561C3.45231 14.7509 3.35077 13.045 3.65538 11.5398C3.96 10.2353 4.67077 9.13154 6.09231 8.8305C8.32615 8.32877 10.8646 9.53293 12.7938 10.5364C13.7077 10.9378 14.4185 9.63327 13.6062 9.23189C13.4031 9.13154 13.2 9.13154 12.9969 9.0312C14.1138 8.22843 15.3323 7.52601 16.7538 7.52601C18.3785 7.52601 19.9015 8.02774 21.3231 8.73016C22.2369 9.13154 22.9477 7.82704 22.1354 7.42566C20.4092 6.62289 18.5815 5.92047 16.6523 6.02082C14.6215 6.12116 12.8954 7.02428 11.4738 8.32877C8.42769 7.12462 4.67077 6.4222 2.84308 9.53293C2.03077 10.9378 1.92923 12.6437 1.92923 14.1488C2.03077 16.1558 2.33538 18.1627 2.84308 20.0693C3.14769 21.3738 3.65538 22.7786 4.16308 24.0831C4.77231 25.5883 5.48308 26.8928 5.58462 28.5987C5.68615 30.1039 5.48308 31.609 5.38154 33.2146C3.24923 33.0139 1.82769 32.6125 1.52308 32.1108C1.52308 31.7094 1.21846 31.308 0.710769 31.308C0.203077 31.308 0 31.6091 0 32.0104V57.2976C0 57.699 0.304615 58.1004 0.812308 58.1004H98.2892C98.4923 58.1004 98.6954 58.0001 98.7969 57.8997C98.8985 57.7994 99 57.5987 99 57.398V32.0104V29.7025ZM49.0431 33.8167C51.9877 33.8167 56.2523 34.0174 61.1262 34.218C61.1262 35.1212 61.1262 36.0243 61.1262 36.9274C61.1262 39.7371 60.8215 42.6471 59.8062 45.3565C59.5015 46.0589 59.1969 46.7613 58.7908 47.4637C58.4862 47.9655 57.9785 48.8686 57.3692 49.0693C56.5569 49.3703 56.76 48.0658 56.76 47.5641C56.76 46.962 56.76 46.4603 56.76 45.8582C56.8615 45.9585 56.9631 45.9585 57.0646 45.9585C57.4708 45.9585 57.8769 45.6575 57.8769 45.1558C57.8769 44.654 57.5723 44.353 57.0646 44.353C56.9631 44.353 56.8615 44.353 56.6585 44.4533C56.5569 41.5433 56.3538 38.5329 54.9323 35.9239C55.1354 35.6229 55.3385 35.2215 55.5415 35.0208C55.7446 34.7198 55.7446 34.218 55.3385 34.0174C54.9323 33.8167 54.5262 33.8167 54.2215 34.218C53.1046 35.7232 51.7846 38.4326 51.48 43.4499C51.2769 48.1661 50.3631 50.4741 49.5508 50.6748C49.5508 50.6748 49.4492 50.6748 49.2462 50.5744C48.3323 49.9724 47.0123 46.962 46.7077 43.3495C46.4031 40.8409 46.2 38.2319 46.4031 36.6264C46.5046 35.3219 46.3015 34.4187 46.3015 34.4187C46.2 34.0174 45.7938 33.7163 45.3877 33.8167C44.9815 33.917 44.6769 34.3184 44.7785 34.7198C44.7785 34.7198 44.88 35.2215 44.88 36.1246C41.2246 39.135 42.24 44.1523 41.7323 48.2665C41.7323 48.5675 41.6308 49.27 41.3262 49.3703C41.0215 49.4706 40.5139 48.6679 40.3108 48.3668C39.6 47.3634 39.0923 46.2596 38.6862 45.1558C37.9754 43.1488 37.5692 41.1419 37.1631 39.0347C36.96 37.4291 37.0615 35.8236 37.2646 34.218C42.1385 33.917 46.2 33.8167 49.0431 33.8167ZM39.8031 23.7821C40.7169 26.2907 40.0062 29.0001 37.8738 31.8097C37.6708 32.1108 37.6708 32.4118 37.8738 32.7129C37.7723 32.7129 37.6708 32.7129 37.6708 32.7129C37.7723 32.0104 37.8738 31.4084 37.8738 30.7059C37.9754 29.3011 37.8738 27.8962 37.5692 26.4914C37.1631 24.9862 36.3508 23.5814 35.8431 22.1765C35.8431 22.0762 35.8431 22.0762 35.7415 21.9758C35.8431 22.0762 36.0462 22.1765 36.1477 22.1765C36.5538 22.1765 36.96 21.8755 36.96 21.3738C36.96 20.872 36.6554 20.571 36.1477 20.571C35.8431 20.571 35.5385 20.7717 35.4369 21.0727C35.2338 20.2699 34.9292 19.4672 34.7262 18.6644C36.5538 19.4672 38.8892 21.2734 39.8031 23.7821ZM31.4769 29.1004C31.4769 28.0969 31.5785 27.0935 31.9846 26.1904C32.3908 25.3876 32.7969 24.4845 33.1015 23.5814C33.4062 22.7786 33.7108 21.8755 33.9138 21.0727C34.2185 22.0762 34.5231 23.0796 35.0308 24.0831C35.64 25.5883 36.3508 26.8928 36.4523 28.4983C36.5538 29.9032 36.4523 31.308 36.2492 32.6125C36.0462 32.6125 35.8431 32.6125 35.64 32.6125C34.4215 32.7129 33 32.7129 31.5785 32.8132C31.4769 31.6091 31.3754 30.3046 31.4769 29.1004ZM29.9538 36.7267C29.9538 39.6367 29.6492 42.5468 28.5323 45.2561C28.3292 45.8582 28.0246 46.4603 27.6185 47.0623C27.3138 47.5641 26.9077 48.3668 26.4 48.6679C26.1969 48.7682 25.8923 48.8686 25.6892 48.6679C25.5877 48.4672 25.6892 48.0658 25.6892 47.9655C25.6892 47.1627 25.6892 46.3599 25.6892 45.6575C25.7908 45.9585 26.0954 46.0589 26.4 46.0589C26.8062 46.0589 27.2123 45.7578 27.2123 45.2561C27.2123 44.7544 26.9077 44.4533 26.4 44.4533C26.0954 44.4533 25.7908 44.654 25.6892 44.9551C25.5877 41.8443 25.4862 38.7336 24.0646 35.9239C24.2677 35.6229 24.4708 35.2215 24.6738 35.0208C24.7754 34.9205 24.7754 34.8201 24.7754 34.7198C26.5015 34.6194 28.2277 34.6194 30.0554 34.5191C29.9538 35.2215 29.9538 35.9239 29.9538 36.7267ZM15.6369 34.9205C17.8708 34.9205 20.3077 34.8201 22.8462 34.7198C21.8308 36.3253 20.8154 38.9343 20.6123 43.1488C20.4092 47.7648 19.4954 50.0727 18.6831 50.2734C18.5815 50.2734 18.5815 50.2734 18.48 50.1731C17.5662 49.571 16.3477 46.661 15.9415 43.0485C15.6369 40.5398 15.4338 38.0312 15.6369 36.526C15.7385 35.8236 15.6369 35.3219 15.6369 34.9205ZM14.1138 34.9205C14.1138 35.1212 14.2154 35.5225 14.1138 36.0243C10.56 38.9343 11.5754 43.8513 10.9662 47.8651C10.9662 48.0658 10.8646 48.9689 10.56 48.9689C10.2554 48.9689 9.74769 48.0658 9.54462 47.8651C8.93538 46.8616 8.42769 45.7578 8.02154 44.654C7.41231 42.7475 6.90462 40.8409 6.6 38.834C6.39692 37.4291 6.49846 36.1246 6.6 34.7198C8.73231 34.8201 11.2708 34.9205 14.1138 34.9205ZM1.52308 56.4949V33.7163C2.33538 34.0174 3.65538 34.3184 5.17846 34.5191C5.07692 35.5225 5.07692 36.4257 5.07692 37.4291C5.07692 39.6367 5.68615 41.9447 6.29538 44.052C6.70154 45.2561 7.10769 46.4603 7.71692 47.5641C8.22462 48.5675 9.03692 50.0727 10.1538 50.3738C10.8646 50.5744 11.4738 50.2734 11.9815 49.7717C12.3877 49.2699 12.4892 48.5675 12.5908 47.9655C12.7938 46.7613 12.7938 45.4568 12.7938 44.1523C12.8954 42.2457 12.9969 39.8374 14.1138 38.1315C14.1138 39.6367 14.2154 41.3426 14.52 43.1488C14.8246 46.2596 15.9415 50.1731 17.6677 51.3772C18.0738 51.6783 18.48 51.6783 18.7846 51.6783C18.9877 51.6783 19.0892 51.6783 19.1908 51.5779C20.9169 51.1765 21.9323 48.2665 22.2369 43.0485C22.3385 40.7405 22.7446 38.9343 23.1508 37.5295C24.1662 40.1385 24.0646 43.0485 24.1662 45.8582C24.1662 46.661 24.1662 47.5641 24.2677 48.3668C24.2677 48.9689 24.5723 49.571 25.1815 49.872C26.6031 50.6748 27.9231 49.27 28.6338 48.1661C31.4769 43.9516 31.5785 39.0347 31.5785 34.218C32.8985 34.1177 34.32 34.1177 35.64 34.0174C35.7415 34.0174 35.8431 34.0174 36.0462 34.0174C35.9446 35.2215 35.8431 36.3253 35.8431 37.5295C35.8431 39.7371 36.4523 42.045 37.0615 44.1523C37.4677 45.4568 37.8738 46.661 38.5846 47.8651C38.9908 48.6679 39.6 49.6713 40.4123 50.2734C40.4123 50.6748 40.7169 50.9758 41.1231 50.9758C41.4277 50.9758 41.6308 50.7751 41.7323 50.5744C42.7477 50.3738 43.2554 49.0693 43.3569 48.0658C43.56 46.7613 43.56 45.4568 43.56 44.1523C43.6615 42.1454 43.7631 39.8374 44.88 38.1315C44.88 39.6367 45.0831 41.443 45.2862 43.2492C45.5908 46.4603 46.7077 50.3738 48.5354 51.5779C48.9415 51.8789 49.3477 51.8789 49.6523 51.8789C49.8554 51.8789 49.9569 51.8789 50.0585 51.7786C51.8862 51.3772 52.9015 48.4672 53.1046 43.1488C53.2062 40.7405 53.6123 38.9343 54.12 37.5295C55.0338 39.9378 55.0338 42.6471 55.1354 45.2561C55.1354 46.0589 55.1354 46.962 55.2369 47.7648C55.2369 48.4672 55.2369 49.0693 55.6431 49.6713C56.6585 50.8755 58.3846 50.1731 59.1969 49.1696C63.36 43.9516 62.6492 36.827 62.6492 30.6056C62.6492 29.0001 62.5477 27.2942 63.1569 25.789C63.2585 25.5883 63.36 25.2873 63.4615 25.0866C63.4615 25.0866 63.5631 24.9862 63.5631 24.8859C64.0708 23.6817 64.8831 22.5779 65.8985 21.5744C68.0308 19.4672 70.7723 18.3634 73.7169 18.3634H86.5108C92.6031 18.3634 97.5785 23.2803 97.5785 29.3011V31.6091V56.0935L1.52308 56.4949Z" fill="#D1D5DB"/>
<path d="M72.1929 33.8167H88.7437C91.3837 33.8167 93.6176 32.3115 94.7345 29.9032C95.7499 27.5953 95.3437 25.0866 93.6176 23.2804C91.8914 21.4742 89.353 20.3704 86.8145 20.3704H74.2237C71.6853 20.3704 69.3499 21.3738 67.6237 23.0797L67.5222 23.1801C65.6945 24.9863 65.2883 27.4949 66.3037 29.9032C67.3191 32.3115 69.5529 33.8167 72.1929 33.8167ZM68.6391 24.1835C70.0606 22.6783 72.0914 21.8756 74.1222 21.8756H86.713C88.8453 21.8756 90.876 22.7787 92.3991 24.2839C93.7191 25.6887 94.0237 27.4949 93.2114 29.3012C92.6022 30.706 91.0791 32.3115 88.6422 32.3115H72.1929C69.756 32.3115 68.2329 30.706 67.6237 29.3012C66.9129 27.4949 67.2176 25.5884 68.6391 24.1835Z" fill="#D0B5A9"/>
<path d="M67.5231 42.3461C67.5231 41.9447 67.2185 41.5433 66.7108 41.5433C66.3046 41.5433 66 41.8444 66 42.3461C66 42.8478 66.3046 43.1489 66.8123 43.1489C67.32 43.1489 67.5231 42.7475 67.5231 42.3461Z" fill="#D0B5A9"/>
<path d="M65.1871 46.1592C65.1871 45.7578 64.8825 45.3564 64.3748 45.3564C63.9687 45.3564 63.6641 45.6575 63.6641 46.1592C63.6641 46.6609 63.9687 46.962 64.4764 46.962C64.9841 46.962 65.1871 46.5606 65.1871 46.1592Z" fill="#D0B5A9"/>
<path d="M68.1326 48.1661C67.7265 48.1661 67.3203 48.4672 67.3203 48.9689C67.3203 49.4706 67.6249 49.7717 68.1326 49.7717C68.6403 49.7717 68.9449 49.4706 68.9449 48.9689C68.9449 48.4672 68.5388 48.1661 68.1326 48.1661Z" fill="#D0B5A9"/>
<path d="M65.5955 52.6816C65.1894 52.6816 64.7832 52.9827 64.7832 53.4844C64.7832 53.9861 65.0878 54.2872 65.5955 54.2872C66.1032 54.2872 66.4078 53.9861 66.4078 53.4844C66.4078 52.9827 66.0017 52.6816 65.5955 52.6816Z" fill="#D0B5A9"/>
<path d="M72.4979 52.1799C72.0917 52.1799 71.6855 52.481 71.6855 52.9827C71.6855 53.4844 71.9902 53.7855 72.4979 53.7855C73.0056 53.7855 73.3102 53.4844 73.3102 52.9827C73.3102 52.481 72.904 52.1799 72.4979 52.1799Z" fill="#D0B5A9"/>
<path d="M73.3103 46.6609C72.9042 46.6609 72.498 46.9619 72.498 47.4637C72.498 47.9654 72.8027 48.2664 73.3103 48.2664C73.818 48.2664 74.1227 47.9654 74.1227 47.4637C74.1227 46.9619 73.7165 46.6609 73.3103 46.6609Z" fill="#D0B5A9"/>
<path d="M69.7576 43.0485C69.3515 43.0485 68.9453 43.3495 68.9453 43.8512C68.9453 44.353 69.2499 44.654 69.7576 44.654C70.2653 44.654 70.5699 44.353 70.5699 43.8512C70.5699 43.3495 70.1638 43.0485 69.7576 43.0485Z" fill="#D0B5A9"/>
<path d="M72.9041 38.834C72.498 38.834 72.1934 39.135 72.1934 39.6368C72.1934 40.1385 72.498 40.3392 73.0057 40.3392C73.5134 40.3392 73.818 40.0381 73.818 39.5364C73.818 39.0347 73.3103 38.834 72.9041 38.834Z" fill="#D0B5A9"/>
<path d="M64.578 38.4326C64.9841 38.4326 65.3903 38.1315 65.3903 37.6298C65.3903 37.1281 65.0856 36.827 64.578 36.827C64.1718 36.827 63.8672 37.1281 63.8672 37.6298C63.8672 38.1315 64.1718 38.4326 64.578 38.4326Z" fill="#D0B5A9"/>
<path d="M64.578 32.4118C64.9841 32.4118 65.3903 32.1108 65.3903 31.609C65.3903 31.2077 65.0856 30.8063 64.578 30.8063C64.1718 30.8063 63.8672 31.1073 63.8672 31.609C63.8672 32.1108 64.1718 32.4118 64.578 32.4118Z" fill="#D0B5A9"/>
<path d="M69.2498 37.2284C68.8437 37.2284 68.5391 37.5294 68.5391 38.0312C68.5391 38.5329 68.8437 38.8339 69.3514 38.8339C69.8591 38.8339 70.1637 38.5329 70.1637 38.0312C70.1637 37.5294 69.7575 37.2284 69.2498 37.2284Z" fill="#D0B5A9"/>
<path d="M75.0369 34.1177C74.6308 34.1177 74.2246 34.4187 74.2246 34.9204C74.2246 35.4222 74.5292 35.7232 75.0369 35.7232C75.5446 35.7232 75.8492 35.4222 75.8492 34.9204C75.8492 34.4187 75.4431 34.1177 75.0369 34.1177Z" fill="#D0B5A9"/>
<path d="M78.6932 38.2319C78.287 38.2319 77.9824 38.533 77.9824 39.0347C77.9824 39.5364 78.287 39.8375 78.7947 39.8375C79.3024 39.8375 79.607 39.5364 79.607 39.0347C79.607 38.533 79.0993 38.2319 78.6932 38.2319Z" fill="#D0B5A9"/>
<path d="M73.7166 42.2457C73.3105 42.2457 73.0059 42.5468 73.0059 43.0485C73.0059 43.5502 73.3105 43.8513 73.8182 43.8513C74.3259 43.8513 74.6305 43.5502 74.6305 43.0485C74.6305 42.5468 74.1228 42.2457 73.7166 42.2457Z" fill="#D0B5A9"/>
<path d="M78.7926 42.8478C78.7926 42.4464 78.488 42.045 77.9803 42.045C77.5742 42.045 77.2695 42.3461 77.2695 42.8478C77.2695 43.3495 77.5741 43.6506 78.0818 43.6506C78.5895 43.6506 78.7926 43.2492 78.7926 42.8478Z" fill="#D0B5A9"/>
<path d="M79.6053 44.8547C79.1991 44.8547 78.793 45.1558 78.793 45.6575C78.793 46.1592 79.0976 46.4603 79.6053 46.4603C80.113 46.4603 80.4176 46.1592 80.4176 45.6575C80.4176 45.1558 80.0114 44.8547 79.6053 44.8547Z" fill="#D0B5A9"/>
<path d="M78.9977 49.2699C78.9977 48.8685 78.6931 48.4672 78.1854 48.4672C77.7792 48.4672 77.4746 48.7682 77.4746 49.2699C77.4746 49.7717 77.7792 50.0727 78.2869 50.0727C78.7946 50.0727 78.9977 49.7717 78.9977 49.2699Z" fill="#D0B5A9"/>
<path d="M81.535 50.8755C81.1288 50.8755 80.7227 51.1765 80.7227 51.6783C80.7227 52.18 81.0273 52.481 81.535 52.481C82.0427 52.481 82.3473 52.18 82.3473 51.6783C82.3473 51.1765 81.9411 50.8755 81.535 50.8755Z" fill="#D0B5A9"/>
<path d="M78.49 53.7855C78.0839 53.7855 77.6777 54.0866 77.6777 54.5883C77.6777 55.09 77.9824 55.3911 78.49 55.3911C78.9977 55.3911 79.3023 55.09 79.3023 54.5883C79.3023 54.0866 78.9977 53.7855 78.49 53.7855Z" fill="#D0B5A9"/>
<path d="M86.1053 54.5883C85.6991 54.5883 85.293 54.8893 85.293 55.391C85.293 55.8928 85.5976 56.1938 86.1053 56.1938C86.613 56.1938 86.9176 55.8928 86.9176 55.391C86.9176 54.8893 86.5114 54.5883 86.1053 54.5883Z" fill="#D0B5A9"/>
<path d="M84.6834 48.1661C84.2773 48.1661 83.8711 48.4672 83.8711 48.9689C83.8711 49.4706 84.1757 49.7717 84.6834 49.7717C85.1911 49.7717 85.4957 49.4706 85.4957 48.9689C85.4957 48.4672 85.0896 48.1661 84.6834 48.1661Z" fill="#D0B5A9"/>
<path d="M86.5115 46.962C86.9177 46.962 87.3239 46.6609 87.3239 46.1592C87.3239 45.6575 87.0192 45.3564 86.5115 45.3564C86.1054 45.3564 85.8008 45.6575 85.8008 46.1592C85.8008 46.6609 86.1054 46.962 86.5115 46.962Z" fill="#D0B5A9"/>
<path d="M82.8553 41.8444C82.4491 41.8444 82.043 42.1454 82.043 42.6471C82.043 43.1489 82.3476 43.4499 82.8553 43.4499C83.363 43.4499 83.6676 43.1489 83.6676 42.6471C83.6676 42.1454 83.2614 41.8444 82.8553 41.8444Z" fill="#D0B5A9"/>
<path d="M85.3943 38.834C84.9882 38.834 84.582 39.135 84.582 39.6368C84.582 40.1385 84.8866 40.3392 85.3943 40.3392C85.902 40.3392 86.2066 40.0381 86.2066 39.5364C86.2066 39.0347 85.8005 38.834 85.3943 38.834Z" fill="#D0B5A9"/>
<path d="M82.2479 36.0243C81.8417 36.0243 81.5371 36.3253 81.5371 36.8271C81.5371 37.3288 81.8417 37.6298 82.3494 37.6298C82.8571 37.6298 83.1617 37.3288 83.1617 36.8271C83.1617 36.3253 82.654 36.0243 82.2479 36.0243Z" fill="#D0B5A9"/>
<path d="M87.9313 35.7232C87.9313 35.3218 87.6267 34.9204 87.119 34.9204C86.7128 34.9204 86.4082 35.2214 86.4082 35.7232C86.4082 36.2249 86.7128 36.5259 87.2205 36.5259C87.7282 36.5259 87.9313 36.1246 87.9313 35.7232Z" fill="#D0B5A9"/>
<path d="M90.5721 37.2284C90.1659 37.2284 89.8613 37.5294 89.8613 38.0312C89.8613 38.5329 90.1659 38.8339 90.6736 38.8339C91.1813 38.8339 91.4859 38.5329 91.4859 38.0312C91.4859 37.5294 90.9782 37.2284 90.5721 37.2284Z" fill="#D0B5A9"/>
<path d="M88.035 41.5432C87.6288 41.5432 87.2227 41.8443 87.2227 42.346C87.2227 42.8477 87.5273 43.1487 88.035 43.1487C88.5427 43.1487 88.8473 42.8477 88.8473 42.346C88.8473 41.8443 88.4411 41.5432 88.035 41.5432Z" fill="#D0B5A9"/>
<path d="M91.6891 46.1592C91.6891 45.7578 91.3845 45.3564 90.8768 45.3564C90.4706 45.3564 90.166 45.6575 90.166 46.1592C90.166 46.6609 90.4706 46.962 90.9783 46.962C91.486 46.962 91.6891 46.5606 91.6891 46.1592Z" fill="#D0B5A9"/>
<path d="M89.3533 49.1697C88.9472 49.1697 88.541 49.4707 88.541 49.9724C88.541 50.4742 88.8456 50.7752 89.3533 50.7752C89.861 50.7752 90.1656 50.4742 90.1656 49.9724C90.1656 49.4707 89.861 49.1697 89.3533 49.1697Z" fill="#D0B5A9"/>
<path d="M87.0193 51.2769C86.6132 51.2769 86.207 51.5779 86.207 52.0796C86.207 52.5814 86.5116 52.8824 87.0193 52.8824C87.527 52.8824 87.8316 52.5814 87.8316 52.0796C87.8316 51.5779 87.4255 51.2769 87.0193 51.2769Z" fill="#D0B5A9"/>
<path d="M91.5877 53.5848C91.1815 53.5848 90.7754 53.8859 90.7754 54.3876C90.7754 54.8893 91.08 55.1904 91.5877 55.1904C92.0954 55.1904 92.4 54.8893 92.4 54.3876C92.4 53.8859 91.9938 53.5848 91.5877 53.5848Z" fill="#D0B5A9"/>
<path d="M95.0408 50.1731C94.6347 50.1731 94.2285 50.4741 94.2285 50.9759C94.2285 51.4776 94.5331 51.7786 95.0408 51.7786C95.5485 51.7786 95.8531 51.4776 95.8531 50.9759C95.8531 50.4741 95.5485 50.1731 95.0408 50.1731Z" fill="#D0B5A9"/>
<path d="M93.6189 45.4568C93.2128 45.4568 92.8066 45.7578 92.8066 46.2596C92.8066 46.7613 93.1113 47.0623 93.6189 47.0623C94.1266 47.0623 94.4313 46.5606 94.4313 46.1592C94.4313 45.7578 94.0251 45.4568 93.6189 45.4568Z" fill="#D0B5A9"/>
<path d="M96.158 41.5432C95.7519 41.5432 95.3457 41.8443 95.3457 42.346C95.3457 42.8477 95.6503 43.1487 96.158 43.1487C96.6657 43.1487 96.9703 42.8477 96.9703 42.346C96.9703 41.8443 96.5642 41.5432 96.158 41.5432Z" fill="#D0B5A9"/>
<path d="M92.9061 40.2388C92.4999 40.2388 92.0938 40.5398 92.0938 41.0415C92.0938 41.5433 92.3984 41.8443 92.9061 41.8443C93.4138 41.8443 93.7184 41.5433 93.7184 41.0415C93.7184 40.5398 93.3122 40.2388 92.9061 40.2388Z" fill="#D0B5A9"/>
<path d="M94.5312 36.4256C94.5312 36.827 94.8359 37.2283 95.3436 37.2283C95.8513 37.2283 96.1559 36.9273 96.1559 36.4256C96.1559 35.9238 95.8513 35.6228 95.3436 35.6228C94.8359 35.6228 94.5312 35.9238 94.5312 36.4256Z" fill="#D0B5A9"/>
<path d="M92.9061 33.1143C92.4999 33.1143 92.0938 33.4153 92.0938 33.917C92.0938 34.4188 92.3984 34.7198 92.9061 34.7198C93.4138 34.7198 93.7184 34.4188 93.7184 33.917C93.7184 33.4153 93.3122 33.1143 92.9061 33.1143Z" fill="#D0B5A9"/>
<path d="M96.4607 29.7025C96.0546 29.7025 95.6484 30.0036 95.6484 30.5053C95.6484 31.007 95.9531 31.3081 96.4607 31.3081C96.9684 31.3081 97.2731 31.007 97.2731 30.5053C97.2731 30.0036 96.8669 29.7025 96.4607 29.7025Z" fill="#D0B5A9"/>
<path d="M77.0662 26.3911C77.4724 26.3911 77.8785 26.09 77.8785 25.5883C77.8785 25.0866 77.5739 24.7855 77.0662 24.7855C76.6601 24.7855 76.3555 25.0866 76.3555 25.5883C76.3555 26.09 76.6601 26.3911 77.0662 26.3911Z" fill="#D0B5A9"/>
<path d="M74.6307 24.8858C75.0368 24.8858 75.443 24.5848 75.443 24.083C75.443 23.5813 75.1384 23.2803 74.6307 23.2803C74.2245 23.2803 73.9199 23.5813 73.9199 24.083C73.9199 24.5848 74.123 24.8858 74.6307 24.8858Z" fill="#D0B5A9"/>
<path d="M71.2791 27.6956C71.6853 27.6956 72.0914 27.3946 72.0914 26.8929C72.0914 26.3911 71.7868 26.0901 71.2791 26.0901C70.873 26.0901 70.5684 26.3911 70.5684 26.8929C70.5684 27.3946 70.7714 27.6956 71.2791 27.6956Z" fill="#D0B5A9"/>
<path d="M76.2557 29.4014C76.6618 29.4014 77.068 29.1004 77.068 28.5987C77.068 28.0969 76.7634 27.7959 76.2557 27.7959C75.8495 27.7959 75.5449 28.0969 75.5449 28.5987C75.5449 29.1004 75.8495 29.4014 76.2557 29.4014Z" fill="#D0B5A9"/>
<path d="M84.5819 26.6921C84.988 26.6921 85.3942 26.391 85.3942 25.8893C85.3942 25.3876 85.0896 25.0865 84.5819 25.0865C84.1757 25.0865 83.8711 25.3876 83.8711 25.8893C83.8711 26.391 84.1757 26.6921 84.5819 26.6921Z" fill="#D0B5A9"/>
<path d="M81.3319 25.3875C81.738 25.3875 82.1442 25.0865 82.1442 24.5847C82.1442 24.083 81.8396 23.782 81.3319 23.782C80.9257 23.782 80.6211 24.083 80.6211 24.5847C80.6211 25.0865 80.8242 25.3875 81.3319 25.3875Z" fill="#D0B5A9"/>
<path d="M79.5037 27.4949C79.9099 27.4949 80.316 27.1939 80.316 26.6922C80.316 26.1904 80.0114 25.8894 79.5037 25.8894C79.0976 25.8894 78.793 26.1904 78.793 26.6922C78.793 27.1939 79.0976 27.4949 79.5037 27.4949Z" fill="#D0B5A9"/>
<path d="M81.0272 30.9066C81.4333 30.9066 81.8395 30.6055 81.8395 30.1038C81.8395 29.6021 81.5349 29.301 81.0272 29.301C80.621 29.301 80.3164 29.6021 80.3164 30.1038C80.3164 30.6055 80.5195 30.9066 81.0272 30.9066Z" fill="#D0B5A9"/>
<path d="M89.0487 29.2008C89.4548 29.2008 89.861 28.8997 89.861 28.398C89.861 27.8963 89.5563 27.5952 89.0487 27.5952C88.6425 27.5952 88.3379 27.8963 88.3379 28.398C88.3379 28.8997 88.6425 29.2008 89.0487 29.2008Z" fill="#D0B5A9"/>
<path d="M90.2674 25.5882C90.6736 25.5882 91.0797 25.2872 91.0797 24.7854C91.0797 24.2837 90.6736 24.083 90.2674 24.083C89.8613 24.083 89.5566 24.384 89.5566 24.8858C89.5566 25.3875 89.8613 25.5882 90.2674 25.5882Z" fill="#D0B5A9"/>
<path d="M85.2908 29.4014C84.8847 29.4014 84.4785 29.7024 84.4785 30.2041C84.4785 30.7059 84.7831 31.0069 85.2908 31.0069C85.7985 31.0069 86.1031 30.7059 86.1031 30.2041C86.1031 29.7024 85.697 29.4014 85.2908 29.4014Z" fill="#D0B5A9"/>
<path d="M86.5115 24.4844C86.9177 24.4844 87.3239 24.1834 87.3239 23.6817C87.3239 23.1799 87.0192 22.8789 86.5115 22.8789C86.1054 22.8789 85.8008 23.1799 85.8008 23.6817C85.8008 24.1834 86.0039 24.4844 86.5115 24.4844Z" fill="#D0B5A9"/>
<path d="M71.4844 29.7024C71.4844 30.1038 71.789 30.5052 72.2967 30.5052C72.8044 30.5052 73.109 30.2042 73.109 29.7024C73.109 29.2007 72.8044 28.8997 72.2967 28.8997C71.8905 29 71.4844 29.301 71.4844 29.7024Z" fill="#D0B5A9"/>
<path d="M74.4275 9.03118L80.7229 8.02772L76.4583 13.8478C76.2552 14.1488 76.2552 14.6506 76.6614 14.8513C76.7629 14.9516 76.966 15.0519 77.0675 15.0519C77.2706 15.0519 77.5752 14.9516 77.6768 14.7509L83.0583 7.52599C83.2614 7.3253 83.2614 6.92391 83.0583 6.72322C82.8552 6.42218 82.5506 6.32184 82.246 6.32184L75.9506 7.3253L80.4183 1.30454C80.6214 1.0035 80.6214 0.50177 80.2152 0.301078C79.8091 0.100386 79.606 4.01661e-05 79.3014 0.301078L73.7168 7.82703C73.5137 8.02772 73.5137 8.42911 73.7168 8.6298C73.9198 8.93084 74.1229 9.03118 74.4275 9.03118Z" fill="#D0B5A9"/>
<path d="M91.2835 15.5537C91.4866 15.7544 91.5882 15.7544 91.7912 15.7544C91.9943 15.7544 92.1974 15.654 92.2989 15.5537L95.2435 12.744C95.5482 12.443 95.5482 11.9412 95.2435 11.6402C94.9389 11.3392 94.4312 11.3392 94.1266 11.6402L91.3851 14.4499C91.0805 14.7509 90.9789 15.2527 91.2835 15.5537Z" fill="#D0B5A9"/>
<path d="M88.644 13.6472C88.7456 13.6472 88.8471 13.7475 88.9486 13.7475C89.2533 13.7475 89.4563 13.5468 89.6594 13.3461L91.3856 9.63332C91.5886 9.23193 91.3856 8.83055 91.0809 8.62986C90.7763 8.42917 90.2686 8.62986 90.0656 8.93089L88.2379 12.5434C88.0348 12.9447 88.2379 13.4465 88.644 13.6472Z" fill="#D0B5A9"/>
</g>
<defs>
<clipPath id="clip0_10_18560">
<rect width="99" height="58" fill="white"/>
</clipPath>
</defs>
</svg>
