<svg width="49" height="98" viewBox="0 0 49 98" fill="none" xmlns="http://www.w3.org/2000/svg">
<g clip-path="url(#clip0_10_18797)">
<path d="M33.1378 39.7078C32.9358 40.0124 32.4306 40.2156 32.1275 40.0124C31.5213 39.6062 28.8945 38.286 28.5914 38.286C28.1873 38.1845 27.9853 37.7782 28.0863 37.372C28.1873 36.9658 28.5914 36.7627 28.9956 36.8643C30.41 37.2705 31.7234 37.9814 32.8347 38.7938C33.2389 38.8953 33.3399 39.3016 33.1378 39.7078Z" fill="#D1D5DB"/>
<path d="M15.2573 41.0279C16.8737 40.9264 18.3892 40.317 19.9047 39.7077C20.3088 39.5046 20.4098 38.9968 20.2078 38.6922C20.0057 38.286 19.5006 38.286 19.1975 38.3875C17.9851 38.8953 16.6717 39.4031 15.3583 39.5046C13.6408 39.6062 12.0243 39.0984 10.6098 38.286C9.80158 37.7782 8.99334 39.0984 9.80158 39.6062C11.4181 40.5202 13.3377 41.231 15.2573 41.0279Z" fill="#D1D5DB"/>
<path d="M48.9992 40.6217C49.1003 42.9575 48.6961 45.3948 48.191 47.7305C47.6858 50.2694 46.9786 52.7067 46.1704 55.0425C45.5642 56.7689 44.857 58.4953 44.0487 60.2217C43.0384 62.4559 43.1394 64.8932 43.1394 67.229C43.1394 76.1658 44.2508 86.3212 38.391 93.8363C37.7848 94.5471 37.1786 95.258 36.2693 95.5627C35.3601 95.8673 34.1477 95.6642 33.5415 94.9534C32.9353 94.2425 33.0364 93.2269 33.0364 92.4145C33.0364 91.1958 32.9353 89.8756 32.9353 88.657C32.8343 84.6964 32.8343 80.4311 31.1168 76.7751C30.2075 78.9077 29.5003 81.8528 29.2982 85.8135C29.0961 90.9927 28.1869 97.2891 25.0549 98C24.8528 98 24.7518 98.1015 24.5498 98.1015C24.1456 98.1015 23.6405 98 23.1353 97.5938C20.7106 95.8673 19.0941 90.2818 18.5889 85.8135C18.1848 82.7668 17.9827 79.7202 17.9827 77.3844C17.7807 77.6891 17.4776 77.9938 17.2755 78.1969C15.3559 81.0404 15.3559 84.6964 15.2549 88.0476C15.2549 89.6725 15.1539 91.2974 14.9518 92.9223C14.8508 93.7347 14.7498 94.5471 14.1436 95.1565C13.6384 95.7658 12.7291 96.0704 11.9209 95.8673C11.0116 95.6642 10.5065 94.8518 9.90027 94.2425C9.29409 93.5316 8.78893 92.7192 8.38481 91.9067C7.47553 90.1803 6.86935 88.4539 6.26316 86.6259C5.75801 85.001 5.45491 83.3761 5.05079 81.6497C4.7477 80.0249 4.54563 78.5015 4.54563 76.8767C4.54563 72.5098 5.75801 68.143 5.35388 63.6746C5.25285 62.659 5.05079 61.6435 4.64667 60.628C4.24254 59.5109 3.63636 58.3938 3.1312 57.2767C2.32295 55.4487 1.71677 53.4176 1.21161 51.4881C0.605429 48.7461 0.100274 45.9026 -0.000757083 43.059C-0.101788 40.8248 0.100274 38.286 1.31264 36.2549C3.93945 31.7865 9.59718 33.0052 13.9415 34.7316C15.558 33.3098 17.2755 32.1927 19.2962 31.5834C20.2054 31.2787 20.6096 32.802 19.7003 33.1067C18.791 33.3098 18.0838 33.6145 17.2755 34.1223C16.6693 34.5285 16.0632 34.9347 15.457 35.3409C15.9621 35.544 16.3663 35.7471 16.7704 35.9502C17.6797 36.3565 16.8714 37.6767 15.9621 37.2704C14.9518 36.7627 14.0425 36.3565 13.0322 35.9502C10.6075 35.0362 7.67759 34.0207 5.05079 34.8331C3.33326 35.3409 2.32295 36.8642 1.8178 38.5907C1.21161 40.8248 1.31264 43.2622 1.61574 45.5979C2.01986 48.543 2.62605 51.4881 3.63636 54.23C4.04048 55.3471 4.4446 56.4642 4.94976 57.4798C5.45491 58.4953 5.96007 59.4093 6.26316 60.5264C6.86935 62.4559 6.97038 64.5886 6.86935 66.6197C6.86935 70.885 5.65697 75.1502 6.26316 79.2124C6.66728 82.259 7.3745 85.2041 8.38481 88.1492C8.99099 89.7741 9.69821 91.3989 10.7085 92.9223C11.0116 93.43 11.7188 94.5471 12.426 94.5471C13.1333 94.6487 13.3353 93.7347 13.4364 93.1254C13.9415 90.0787 13.6384 86.829 14.0425 83.6808C14.4467 80.4311 15.457 77.2829 18.1848 75.2518C18.1848 73.9316 18.0838 73.1192 18.0838 73.1192C17.9827 72.7129 18.2858 72.3067 18.69 72.2052C19.0941 72.1036 19.4982 72.4083 19.5992 72.8145C19.5992 72.916 19.9023 74.1347 19.7003 75.9627C19.4982 78.2984 19.7003 81.9544 20.2054 85.7119C20.7106 90.5865 22.4281 95.258 24.0446 96.3751C24.4487 96.6798 24.7518 96.5782 24.7518 96.5782C26.3683 96.172 27.5807 91.9067 27.7827 85.8135C28.0858 78.7046 30.1065 74.744 31.6219 72.7129C31.925 72.4083 32.3291 72.3067 32.6322 72.6114C32.9353 72.8145 33.0364 73.3223 32.7333 73.7285C32.4302 74.1347 32.1271 74.6425 31.723 75.2518C32.1271 75.8611 32.4302 76.572 32.7333 77.1813C34.3498 81.3451 34.2487 86.1181 34.3498 90.485C34.3498 91.6021 34.2487 92.7192 34.4508 93.8363C34.6528 94.7502 35.7642 94.5471 36.2693 94.0394C36.9766 93.43 37.4817 92.6176 37.9869 91.8052C38.492 90.8912 38.9972 89.9772 39.4013 89.0632C41.0178 85.2041 41.5229 80.9388 41.5229 76.7751C41.5229 74.4394 41.523 72.002 41.4219 69.6663C41.4219 67.3305 41.3209 64.9948 41.624 62.659C41.9271 60.4249 43.1394 58.5969 43.9477 56.5658C44.3518 55.4487 44.7559 54.3316 45.059 53.316C45.7663 50.9803 46.3724 48.7461 46.7766 46.3088C47.1807 44.2777 47.3827 42.1451 47.1807 40.0124C47.0797 38.4891 46.5745 36.7627 45.5642 35.6456C44.4528 34.4269 42.8364 34.1223 41.2199 34.1223C38.29 34.2238 35.3601 35.4425 32.8343 36.7627C31.925 37.1689 31.2178 35.8487 32.026 35.4425C32.9353 35.0362 33.7436 34.63 34.6528 34.2238C38.5931 32.5989 44.4528 31.0756 47.2817 35.3409C48.6961 36.6611 48.9992 38.7938 48.9992 40.6217Z" fill="#D1D5DB"/>
<path d="M5.9595 48.5429C5.85847 53.8237 8.8894 58.3937 9.59661 63.573C9.69764 63.9792 10.2028 64.1823 10.5059 64.0807C10.91 63.9792 11.1121 63.573 11.011 63.1667C10.3038 58.1906 7.2729 53.6206 7.37393 48.5429C7.57599 47.5274 6.06053 47.5274 5.9595 48.5429Z" fill="#D1D5DB"/>
<path d="M40.7159 57.7845C42.8375 53.3161 44.353 48.543 44.8581 43.5668C44.9592 42.5513 43.4437 42.5513 43.3427 43.5668C42.9386 48.2383 41.4231 52.8083 39.4025 56.972C38.9984 57.886 40.3118 58.5969 40.7159 57.7845Z" fill="#D1D5DB"/>
<path d="M23.7417 7.21028C21.519 7.92116 19.4984 9.34292 17.1746 9.64758C15.5582 9.85069 14.0427 9.34292 12.6283 8.63204C11.921 8.12427 11.1128 9.34292 12.0221 9.85069C13.3355 10.5616 14.7499 11.0693 16.2654 11.1709C17.4777 11.1709 18.6901 10.9678 19.8015 10.46C22.0241 9.64758 24.0448 8.22582 26.4695 8.32738C28.288 8.32738 30.0056 9.24137 31.521 10.1554C32.3293 10.6631 33.0365 9.34292 32.3293 8.83515C29.7025 7.10872 26.7726 6.29629 23.7417 7.21028Z" fill="#D1D5DB"/>
<path d="M49.0002 10.0538C49.1012 13.4051 48.293 16.8579 47.2827 20.0061C47.0806 20.8186 46.0703 23.8652 45.6662 24.4745C45.06 25.3885 44.0497 25.7947 43.0394 25.7947C42.6352 25.7947 27.9858 25.6932 24.8538 25.6932V28.0289C24.8538 28.4351 24.5507 28.8414 24.0455 28.8414C23.5404 28.8414 23.2373 28.5367 23.2373 28.0289V25.6932C19.6002 25.6932 8.08266 25.5916 5.96101 25.5916C5.05173 25.5916 4.14246 25.4901 3.43524 24.8807C2.3239 23.9667 2.02081 22.3419 1.61668 21.0217C1.11153 19.4984 0.808435 18.0766 0.505342 16.5533C-0.403937 11.9833 -0.80806 4.36675 4.54658 2.33566C6.46617 1.62478 8.68885 1.82789 10.7095 2.33566C11.8208 2.64032 12.9321 2.94499 13.9425 3.3512C16.1651 1.52322 18.6909 0.203018 21.6208 -9.119e-05C24.3486 -0.101646 26.9754 0.812344 29.4002 1.92944C30.3095 2.33566 29.5012 3.65587 28.5919 3.24965C26.4703 2.23411 24.1466 1.42167 21.7218 1.52322C19.3981 1.62478 17.2765 2.64032 15.4579 4.16364C15.862 4.36675 16.3672 4.56986 16.7713 4.77297C17.6806 5.17918 16.8724 6.49939 15.9631 6.09317C15.1548 5.68696 14.2455 5.28074 13.4373 4.97607C10.4064 3.75742 5.35483 2.23411 2.93008 5.48385C1.41462 7.61649 1.31359 10.6631 1.41462 13.1004C1.61668 16.0455 2.3239 18.9906 3.23318 21.7326C3.6373 22.8496 3.94039 24.1699 5.2538 24.2714C5.35483 24.2714 42.7363 24.4745 43.1404 24.373C43.8476 24.2714 44.2517 23.7636 44.4538 23.1543C44.6559 22.4434 46.0703 18.0766 46.4744 16.5533C47.1816 13.5066 47.5858 10.2569 46.8785 7.21027C46.4744 5.38229 45.4641 3.65587 43.6455 3.04654C41.928 2.43721 40.0084 2.74188 38.2909 3.1481C36.3713 3.65587 34.5528 4.36675 32.8352 5.28074C31.926 5.68696 31.2187 4.36675 32.027 3.96053C32.9363 3.55431 33.8455 3.1481 34.7548 2.74188C38.2909 1.32012 43.3425 -9.11476e-05 46.3734 2.94499C48.495 4.67141 49.0002 7.51493 49.0002 10.0538Z" fill="#D0B5A9"/>
<path d="M24.1461 37.1688C24.5503 37.1688 24.9544 36.8641 24.9544 36.3564V33.1066C24.9544 32.7004 24.6513 32.2942 24.1461 32.2942C23.641 32.2942 23.3379 32.5989 23.3379 33.1066V36.3564C23.3379 36.7626 23.742 37.1688 24.1461 37.1688Z" fill="#D0B5A9"/>
<path d="M23.3379 46.3087C23.3379 46.715 23.641 47.1212 24.1461 47.1212C24.6513 47.1212 24.9544 46.8165 24.9544 46.3087V41.3326C24.9544 40.9264 24.6513 40.5201 24.1461 40.5201C23.641 40.5201 23.3379 40.8248 23.3379 41.3326V46.3087Z" fill="#D0B5A9"/>
<path d="M23.6409 53.9253C23.843 54.1284 23.944 54.1284 24.1461 54.1284C24.3481 54.1284 24.5502 54.0269 24.6512 53.9253L28.9955 49.5585C29.2986 49.2538 29.2986 48.7461 28.9955 48.4414C28.6924 48.1367 28.1873 48.1367 27.8842 48.4414L24.8533 51.488V49.5585C24.8533 49.1523 24.5502 48.7461 24.045 48.7461C23.5399 48.7461 23.2368 49.0507 23.2368 49.5585V51.488L20.2058 48.4414C19.9028 48.1367 19.3976 48.1367 19.0945 48.4414C18.7914 48.7461 18.7914 49.2538 19.0945 49.5585L23.6409 53.9253Z" fill="#D0B5A9"/>
</g>
<defs>
<clipPath id="clip0_10_18797">
<rect width="49" height="98" fill="white"/>
</clipPath>
</defs>
</svg>
