<svg width="99" height="88" viewBox="0 0 99 88" fill="none" xmlns="http://www.w3.org/2000/svg">
<g clip-path="url(#clip0_10_17514)">
<path d="M85.7286 85.6477H69.7642V62.2761C69.7642 61.8643 69.4532 61.4524 68.9349 61.4524C68.4165 61.4524 68.1056 61.7613 68.1056 62.2761V85.6477H57.3244V81.0145C57.3244 79.4702 56.0804 78.1317 54.4218 78.1317H46.7506V58.5696H54.4218C55.9768 58.5696 57.3244 57.3341 57.3244 55.6867V54.966L74.3254 60.3199C74.6364 60.4228 74.8438 60.4228 75.1548 60.4228C75.6731 60.4228 76.1914 60.2169 76.6061 59.908C77.3317 59.3932 77.6427 58.6725 77.6427 57.8489C77.6427 56.9222 77.1244 55.9956 76.1914 55.5838L50.2752 43.0228C48.3056 42.0962 46.1286 41.5814 43.848 41.5814H16.8951V39.9341C16.8951 38.8015 16.6878 37.566 16.2731 36.5364L15.8584 35.4039C16.8951 34.3743 17.2061 32.8299 16.7914 31.3885L12.0228 18.0039C11.7118 16.9743 10.9862 16.1506 9.94954 15.7388C9.01656 15.327 7.87624 15.224 6.94326 15.5329L4.14431 16.5625L3.31499 12.9589L5.28462 12.5471C6.42493 12.3412 7.35792 11.6205 7.87624 10.6938C8.49823 9.76721 8.70556 8.63467 8.39457 7.50213L8.08357 5.85479C7.56525 3.5897 5.28462 2.14828 3.00399 2.76603L1.96734 2.97195C1.24169 3.07491 0.723364 3.48674 0.412369 4.00154C0.101374 4.51633 -0.00229057 5.23704 0.101374 5.85479C0.101374 5.85479 2.90033 17.798 3.00399 17.798L9.84588 37.2572C10.3642 38.8015 10.2605 40.4489 10.0532 42.1992C10.0532 42.1992 10.0532 42.4051 10.1569 42.714C14.7181 51.5684 16.0658 51.4654 16.5841 51.4654H23.737V55.7897C23.737 57.3341 24.981 58.6725 26.6396 58.6725H34.2071V78.2347H26.5359C24.981 78.2347 23.6333 79.4702 23.6333 81.1175V85.6477H7.35792C6.94326 85.6477 6.5286 85.9566 6.5286 86.4714C6.5286 86.9861 6.83959 87.295 7.35792 87.295H85.7286C86.1432 87.295 86.5579 86.9861 86.5579 86.4714C86.5579 85.9566 86.1432 85.6477 85.7286 85.6477ZM11.6082 41.6844C11.7118 40.3459 11.8155 38.9045 11.5045 37.566L14.4071 36.5364C14.5108 36.5364 14.5108 36.4335 14.6145 36.4335L14.8218 37.1542C15.1328 38.0808 15.3401 39.1104 15.3401 40.037V41.6844H11.6082ZM1.65635 4.8252C1.86368 4.61929 2.07101 4.51633 2.27834 4.41337L3.31499 4.20745C3.52232 4.10449 3.72965 4.10449 3.93698 4.10449C5.18095 4.10449 6.2176 4.92816 6.5286 6.16367L6.94326 7.811C7.15059 8.53171 6.94326 9.25242 6.63226 9.87017C6.2176 10.4879 5.69928 10.8998 4.97363 11.1057L3.00399 11.5175L1.55268 5.54591C1.55268 5.34 1.55268 5.03112 1.65635 4.8252ZM7.46158 17.0773C8.08357 16.8714 8.70556 16.8714 9.32755 17.1802C9.94954 17.4891 10.3642 17.9009 10.5715 18.5187L15.3401 31.9033C15.7548 33.1388 15.1328 34.5802 13.8888 34.9921L10.9862 36.0216L4.66263 18.1069L7.46158 17.0773ZM12.1265 43.2288H43.9516C45.9213 43.2288 47.8909 43.6406 49.6532 44.5672L75.5694 57.1282C75.8804 57.3341 76.1914 57.643 76.1914 58.0548C76.1914 58.3637 75.9841 58.6725 75.7768 58.8785C75.4658 59.0844 75.1548 59.0844 74.8438 58.9814L46.9579 50.2299C46.4396 50.127 46.0249 50.024 45.5066 50.024H16.5841C15.8584 49.5092 13.8888 46.3175 12.1265 43.2288ZM25.1883 55.7897V51.5684H45.4029C45.7139 51.5684 46.1286 51.5684 46.4396 51.6714L55.7694 54.5542V55.7897C55.7694 56.5104 55.1474 57.0252 54.5255 57.0252H26.5359C25.8103 57.1282 25.1883 56.5104 25.1883 55.7897ZM35.7621 58.6725H45.1956V78.2347H35.7621V58.6725ZM25.1883 81.0145C25.1883 80.2938 25.8103 79.779 26.4323 79.779H54.4218C55.1474 79.779 55.6658 80.3968 55.6658 81.0145V85.6477H25.1883V81.0145Z" fill="#57565C"/>
<path d="M37.2109 35.3011C37.2109 35.713 37.5219 36.1248 38.0403 36.1248H65.6151C66.0298 36.1248 66.4444 35.8159 66.4444 35.3011C66.4444 34.7863 66.1334 34.4775 65.6151 34.4775H64.2675V27.9911C64.2675 27.5792 63.9565 27.1674 63.4382 27.1674H62.1942V24.5934C62.1942 23.3579 61.1575 22.3284 59.9136 22.3284H59.4989C59.0842 22.3284 58.6696 22.6372 58.6696 23.152C58.6696 23.6668 58.9806 23.9757 59.4989 23.9757H59.9136C60.3282 23.9757 60.6392 24.2846 60.6392 24.6964V27.2704H59.0842C58.6696 27.2704 58.2549 27.5792 58.2549 28.094V34.6834H55.145C55.8706 33.3449 56.2853 31.9035 56.2853 30.3591C56.2853 29.9473 55.9743 29.5355 55.456 29.5355H47.6811V23.3579C47.6811 22.6372 48.3031 22.0195 49.0287 22.0195C49.7544 22.0195 50.3764 22.6372 50.3764 23.3579C50.3764 23.7698 50.6874 24.1816 51.2057 24.1816C51.724 24.1816 52.035 23.8727 52.035 23.3579C52.035 21.8136 50.6874 20.4751 49.1324 20.4751C47.5774 20.4751 46.2298 21.8136 46.2298 23.3579V29.5355H39.9062C39.4916 29.5355 39.0769 29.8443 39.0769 30.3591C39.0769 31.9035 39.4916 33.4479 40.2172 34.6834H37.9366C37.5219 34.5804 37.2109 34.8893 37.2109 35.3011ZM59.9136 28.7118H62.7125V34.4775H59.9136V28.7118ZM40.6319 30.9769H54.9376C54.834 32.3153 54.3156 33.5508 53.4863 34.5804H42.0832C41.3575 33.5508 40.8392 32.3153 40.6319 30.9769Z" fill="#57565C"/>
<path d="M97.1301 29.6385H81.2694C80.2327 29.6385 79.4034 30.4622 79.4034 31.4918V34.5806H69.7626V11.9297H79.4034V13.577C79.4034 14.6066 80.2327 15.4303 81.2694 15.4303H92.4652C93.5018 15.4303 94.3312 14.6066 94.3312 13.577V8.84091C94.3312 7.81132 93.5018 7.09061 92.4652 7.09061H81.2694C80.2327 7.09061 79.4034 7.91428 79.4034 8.84091V10.4882H69.2443L58.4631 0.398306C58.2558 0.192389 57.8411 0.0894307 57.5301 0.295348L42.9134 8.94387L40.7364 6.3699C40.0107 5.54624 38.8704 5.03144 37.6264 5.1344C36.4861 5.1344 35.2422 5.64919 34.2055 6.47286C33.8945 6.78174 33.7908 7.19357 34.1018 7.50245L34.9312 8.53203C34.5165 9.04683 34.2055 9.66458 33.9982 10.2823C33.7908 11.209 33.9982 12.1356 34.5165 12.7533L38.2484 17.2835C38.7668 17.9013 39.5961 18.3131 40.5291 18.3131H40.6327C41.2547 18.3131 41.9804 18.1072 42.4987 17.7983L43.328 18.8279C43.4317 18.9309 43.639 19.0338 43.8463 19.1368H43.95C44.1573 19.1368 44.261 19.0338 44.4683 18.9309C46.6453 17.0776 47.2673 14.2977 45.816 12.5474L43.7427 10.0764L57.6338 1.83973L68.2076 11.5178V46.5238C68.2076 46.9356 68.5186 47.3474 69.0369 47.3474C69.4516 47.3474 69.8662 47.0385 69.8662 46.5238V36.1249H79.5071V38.6989C79.5071 39.7285 80.3364 40.5522 81.373 40.5522H97.2338C98.2704 40.5522 99.0997 39.7285 99.0997 38.6989V31.4918C98.9961 30.4622 98.1668 29.6385 97.1301 29.6385ZM81.062 8.84091C81.062 8.73795 81.1657 8.63499 81.2694 8.63499H92.4652C92.5689 8.63499 92.6725 8.73795 92.6725 8.84091V13.577C92.6725 13.68 92.5689 13.7829 92.4652 13.7829H81.2694C81.1657 13.7829 81.062 13.68 81.062 13.577V8.84091ZM40.7364 16.8717C40.2181 16.8717 39.9071 16.7687 39.5961 16.4598L35.8641 11.9297C35.6568 11.6208 35.5531 11.209 35.6568 10.7971C35.7605 10.4882 35.8641 10.1794 36.0715 9.97345L41.773 16.7687C41.3584 16.7687 41.0474 16.8717 40.7364 16.8717ZM44.7793 13.577C45.505 14.5036 45.194 16.048 44.1573 17.1806L35.8641 7.19357C36.4861 6.78174 37.1081 6.57582 37.7301 6.57582C38.5594 6.57582 39.1814 6.78174 39.5961 7.29653L44.7793 13.577ZM97.4411 38.5959C97.4411 38.6989 97.3374 38.8019 97.2338 38.8019H81.2694C81.1657 38.8019 81.062 38.6989 81.062 38.5959V35.3013V31.3888C81.062 31.2859 81.1657 31.1829 81.2694 31.1829H97.1301C97.2338 31.1829 97.3374 31.2859 97.3374 31.3888V38.5959H97.4411Z" fill="#57565C"/>
</g>
<defs>
<clipPath id="clip0_10_17514">
<rect width="99" height="87" fill="white" transform="translate(0 0.192383)"/>
</clipPath>
</defs>
</svg>
