<svg width="99" height="63" viewBox="0 0 99 63" fill="none" xmlns="http://www.w3.org/2000/svg">
<g clip-path="url(#clip0_10_18706)">
<path d="M98.8993 32.5C97.9855 22.9 88.9486 11.2 77.4747 4.80004C68.5393 -0.299959 59.7055 -1.29996 52.8009 1.80004C50.7701 2.70004 48.3332 2.70004 46.2009 1.80004C39.6009 -0.999959 31.4778 -0.299959 23.2532 3.90004C19.1916 6.10004 10.5609 12.3 4.26547 21.4C1.01623 26.1 -0.405304 31 0.102388 35.6C0.102388 35.7 0.102388 35.9 0.102388 36C0.61008 39.7 2.33623 43.3 5.28085 46.7C13.7085 56.3 31.7824 63 49.9578 63C58.9947 63 67.9301 61.3 75.8501 57.6C91.7916 49.9 96.2593 42.6 98.087 37.7C98.087 37.7 98.087 37.6 98.1885 37.5C98.7978 35.9 99.1024 34.2 98.8993 32.5ZM5.48393 22.2C11.6778 13.3 19.9024 7.30004 23.8624 5.20004C31.6809 1.20004 39.3978 0.500041 45.4901 3.10004C48.0285 4.20004 50.8716 4.20004 53.3085 3.10004C59.807 0.200041 68.1332 1.20004 76.6624 6.00004C86.6132 11.6 94.6347 21.3 96.767 29.8C94.8378 27.3 91.487 24.8 87.2224 22.6C76.967 17.3 60.8224 13.6 49.4501 18C41.9362 15.2 31.4778 15.5 20.7147 19L17.1609 20.2C11.9824 22.2 7.5147 24.8 4.46854 27.5C3.35162 28.4 2.53931 29.3 1.82854 30.2C2.43777 27.7 3.5547 25.1 5.48393 22.2ZM95.8532 31C95.7516 31 95.7516 31 95.8532 31C94.8378 31.8 93.6193 32.2 92.4009 32.2C91.3855 32.2 90.5732 31.4 90.5732 30.4V26.3C92.807 27.8 94.6347 29.4 95.8532 31ZM26.5024 43.8C26.9085 43.8 27.3147 43.5 27.3147 43V41.7C28.5332 41.9 29.7516 42 30.9701 42.2V45.9C27.5178 45.2 24.3701 44.4 21.4255 43.6V40.5C21.527 40.7 21.7301 40.8 21.9332 40.9C23.1516 41.1 24.4716 41.3 25.7916 41.5V43C25.6901 43.5 26.0962 43.8 26.5024 43.8ZM27.2132 40.2V39.3C27.2132 38.9 26.9085 38.5 26.4009 38.5C25.9947 38.5 25.5885 38.8 25.5885 39.3V40C24.3701 39.8 23.1516 39.6 22.0347 39.4C21.7301 39.3 21.4255 39.5 21.2224 39.8C21.2224 39.6 21.2224 39.3 21.1208 39C21.3239 39 21.3239 38.9 21.3239 38.8C21.3239 37.9 23.0501 36.8 25.7916 36.2C27.2132 35.8 28.7362 36.2 29.7516 37.1C30.5639 37.9 30.9701 38.9 30.9701 40V40.8C29.6501 40.6 28.4316 40.4 27.2132 40.2ZM15.3332 25C14.927 25 14.5209 25.3 14.5209 25.8V27C12.9978 27.4 11.5762 27.8 10.1547 28.3V25.3C12.3885 24 14.927 22.7 17.6685 21.7L19.6993 21V25.9C18.3793 26.1 17.1609 26.4 15.9424 26.7V25.9C16.0439 25.3 15.7393 25 15.3332 25ZM14.5209 28.5V29.4C14.5209 29.8 14.8255 30.2 15.3332 30.2C15.7393 30.2 16.1455 29.9 16.1455 29.4V28.1C17.3639 27.8 18.5824 27.5 19.9024 27.3V29C19.9024 30.1 19.4962 31.1 18.6839 31.9C17.6685 32.9 16.1455 33.2 14.7239 32.8C12.0839 32.1 10.2562 31.1 10.2562 30.2V29.8C11.5762 29.4 12.9978 28.9 14.5209 28.5ZM18.5824 37.1C19.3947 37.9 19.8008 38.9 19.8008 40V43.2C16.1455 42 12.8962 40.8 10.2562 39.7V38.8C10.2562 37.9 11.9824 36.8 14.7239 36.2C16.0439 35.7 17.567 36.1 18.5824 37.1ZM19.6993 36C18.6839 35 17.3639 34.5 16.0439 34.5C17.4655 34.5 18.7855 33.9 19.6993 33C20.0039 32.7 20.3085 32.3 20.5116 31.9C21.6285 33.2 23.8624 33.9 25.3855 34.3C25.7916 34.4 26.2993 34.5 26.7055 34.5C26.2993 34.5 25.8932 34.6 25.487 34.7C23.9639 35.1 21.7301 35.8 20.6132 37.1C20.207 36.7 20.0039 36.3 19.6993 36ZM27.7208 22.7C27.3147 22.7 26.9085 23 26.9085 23.5V24.7C24.9793 24.9 23.0501 25.2 21.3239 25.6V20.4C24.5732 19.4 27.8224 18.6 30.8685 18.2V24.3C30.0562 24.4 29.2439 24.5 28.4316 24.6V23.6C28.5332 23 28.127 22.7 27.7208 22.7ZM27.0101 26.2V27.2C27.0101 27.6 27.3147 28 27.8224 28C28.3301 28 28.6347 27.7 28.6347 27.2V26C29.447 25.9 30.2593 25.8 31.0716 25.7V29.1C31.0716 30.2 30.6655 31.2 29.8532 32C28.8378 33 27.3147 33.3 25.8932 32.9C23.2532 32.2 21.527 31.2 21.527 30.3C21.527 30.2 21.527 30.1 21.4255 30C21.4255 29.7 21.527 29.5 21.527 29.2V27.2C23.1516 26.7 24.9793 26.4 27.0101 26.2ZM30.767 36C29.7516 35 28.5332 34.5 27.1116 34.5C28.5332 34.5 29.8532 33.9 30.767 33C30.9701 32.8 31.0716 32.6 31.2747 32.4C31.5793 33.2 32.1885 34 33.0009 34.5C32.1885 35 31.6809 35.7 31.2747 36.6C31.0716 36.4 30.9701 36.2 30.767 36ZM41.7332 20.4C41.327 20.4 40.9209 20.7 40.9209 21.2V23.5C37.9762 23.6 35.1332 23.8 32.3916 24.1V18C38.4839 17.3 44.1701 17.8 48.8409 19.5V23.4C46.7085 23.4 44.5762 23.4 42.5455 23.5V21.3C42.4439 20.7 42.1393 20.4 41.7332 20.4ZM40.9209 25V26.9C40.9209 27.3 41.2255 27.7 41.7332 27.7C42.1393 27.7 42.5455 27.4 42.5455 26.9V24.9C44.6778 24.8 46.7085 24.8 48.8409 24.8V30.8C48.8409 32.4 47.5209 33.7 45.7947 33.7H35.4378C34.6255 33.7 33.8132 33.4 33.3055 32.8C32.7978 32.3 32.3916 31.5 32.3916 30.7V28.9V25.4C35.2347 25.3 38.0778 25.1 40.9209 25ZM32.3916 42.4C34.8285 42.6 37.367 42.8 39.9055 43V45.4C39.9055 45.8 40.2101 46.2 40.7178 46.2C41.1239 46.2 41.5301 45.9 41.5301 45.4V43C43.967 43.1 46.4039 43.2 48.8409 43.2V47.8C42.9516 47.7 37.4685 47.1 32.4932 46.2V42.4H32.3916ZM41.5301 41.5V39.6C41.5301 39.2 41.2255 38.8 40.7178 38.8C40.3116 38.8 39.9055 39.1 39.9055 39.6V41.4C37.367 41.3 34.8285 41.1 32.3916 40.8V38.1C32.3916 36.5 33.7116 35.2 35.4378 35.2H45.7947C47.4193 35.2 48.7393 36.5 48.8409 38.1V41.6C46.4039 41.7 43.8655 41.6 41.5301 41.5ZM48.3332 34.5C48.8409 34.2 49.247 33.8 49.5516 33.3C49.8562 33.8 50.2624 34.2 50.7701 34.5C50.2624 34.8 49.8562 35.2 49.5516 35.7C49.247 35.2 48.8409 34.8 48.3332 34.5ZM56.6593 20.4C56.2532 20.4 55.847 20.7 55.847 21.2V23.4C54.0193 23.3 52.1916 23.3 50.3639 23.3V19.4C55.2378 17.6 60.9239 17.3 66.7116 18V24.2C63.6655 23.9 60.6193 23.7 57.3701 23.5V21.2C57.3701 20.7 57.0655 20.4 56.6593 20.4ZM55.847 24.9V26.9C55.847 27.3 56.1516 27.7 56.6593 27.7C57.0655 27.7 57.4716 27.4 57.4716 26.9V25C60.7209 25.1 63.767 25.4 66.8132 25.7V29V30.8C66.8132 32.4 65.4932 33.7 63.767 33.7H53.3085C52.4962 33.7 51.7855 33.4 51.1762 32.8C50.6685 32.3 50.2624 31.5 50.2624 30.7V24.7C52.1916 24.8 54.0193 24.8 55.847 24.9ZM50.3639 43.2C53.1055 43.2 55.847 43.1 58.487 43V45.3C58.487 45.7 58.7916 46.1 59.2993 46.1C59.7055 46.1 60.1116 45.8 60.1116 45.3V42.9C62.3455 42.8 64.6809 42.6 66.8132 42.4V46.4C61.127 47.3 55.6439 47.7 50.4655 47.7V43.2H50.3639ZM60.0101 41.4V39.6C60.0101 39.2 59.7055 38.8 59.1978 38.8C58.7916 38.8 58.3855 39.1 58.3855 39.6V41.5C55.7455 41.6 53.0039 41.7 50.2624 41.7V38.2C50.2624 36.6 51.5824 35.3 53.3085 35.3H63.6655C65.2901 35.3 66.7116 36.6 66.7116 38.2V40V41C64.5793 41.1 62.3455 41.3 60.0101 41.4ZM66.3055 34.5C67.0162 34 67.6255 33.3 68.0316 32.4C68.2347 32.6 68.3362 32.8 68.5393 33C69.5547 33.9 70.8747 34.5 72.2962 34.5C70.8747 34.5 69.5547 35.1 68.5393 36C68.3362 36.2 68.2347 36.4 68.0316 36.6C67.6255 35.7 67.0162 35 66.3055 34.5ZM70.6716 22.7C70.2655 22.7 69.8593 23 69.8593 23.5V24.5C69.3516 24.4 68.7424 24.4 68.2347 24.3V18.1C71.4839 18.6 74.7332 19.4 77.7793 20.3V25.6C77.5762 25.6 77.4747 25.5 77.2716 25.5C75.3424 25.2 73.4132 24.8 71.3824 24.6V23.4C71.3824 23 71.0778 22.7 70.6716 22.7ZM69.8593 26V27.2C69.8593 27.6 70.1639 28 70.6716 28C71.0778 28 71.4839 27.7 71.4839 27.2V26.2C73.4132 26.5 75.3424 26.7 77.1701 27.1C77.4747 27.1 77.6778 27.2 77.9824 27.3V29.1C77.9824 29.4 77.9824 29.7 78.0839 29.9C77.9824 30 77.9824 30.1 77.9824 30.2C77.9824 31.1 76.1547 32.2 73.6162 32.8C72.1947 33.2 70.6716 32.8 69.6562 31.9C68.8439 31.1 68.4378 30.1 68.4378 29V25.7C68.8439 25.8 69.3516 25.9 69.8593 26ZM68.2347 42.3C69.7578 42.1 71.2809 42 72.7024 41.8V43.1C72.7024 43.5 73.007 43.9 73.5147 43.9C73.9209 43.9 74.327 43.6 74.327 43.1V41.6C75.5455 41.4 76.7639 41.2 77.8809 41V44C74.6316 44.9 71.3824 45.6 68.3362 46.2V42.3H68.2347ZM74.327 40V39.3C74.327 38.9 74.0224 38.5 73.5147 38.5C73.1086 38.5 72.7024 38.8 72.7024 39.3V40.2C71.2809 40.4 69.7578 40.6 68.2347 40.7V39.8C68.2347 38.7 68.6409 37.7 69.4532 36.9C70.4686 35.9 71.9916 35.6 73.4132 36C76.0532 36.7 77.7793 37.7 77.7793 38.6C77.7793 38.7 77.7793 38.8 77.8809 38.9C77.8809 39 77.8809 39.1 77.8809 39.2C76.6624 39.7 75.5455 39.8 74.327 40ZM73.8193 34.7C73.4132 34.6 72.9055 34.5 72.4993 34.5C72.9055 34.5 73.3116 34.4 73.8193 34.3C75.3424 33.9 77.5762 33.2 78.6932 31.9C78.8962 32.3 79.2009 32.7 79.5055 33C80.4193 33.9 81.8409 34.5 83.1609 34.5C81.7393 34.5 80.4193 35.1 79.5055 36C79.2009 36.3 78.8962 36.7 78.6932 37.1C77.5762 35.8 75.3424 35.1 73.8193 34.7ZM79.4039 39.9C79.4039 38.8 79.8101 37.8 80.6224 37C81.6378 36 83.1609 35.7 84.5824 36.1C87.2224 36.8 88.9485 37.8 88.9485 38.7V40.2C85.6993 41.5 82.5516 42.6 79.4039 43.5V39.9ZM80.6224 31.9C79.8101 31.1 79.4039 30.1 79.4039 29V27.5C80.4193 27.7 81.3332 27.9 82.3485 28.1V29.4C82.3485 29.8 82.6532 30.2 83.1609 30.2C83.567 30.2 83.9732 29.9 83.9732 29.4V28.5C85.6993 29 87.3239 29.4 88.7455 30C88.847 30 88.9485 30 89.0501 30V30.2C89.0501 31.1 87.2224 32.2 84.6839 32.8C83.0593 33.2 81.5362 32.9 80.6224 31.9ZM83.7701 27V25.8C83.7701 25.4 83.4655 25 82.9578 25C82.5516 25 82.1455 25.3 82.1455 25.8V26.6C81.2316 26.4 80.2162 26.2 79.2009 26V20.9C81.8409 21.8 84.2778 22.9 86.4101 24C87.2224 24.4 88.0347 24.9 88.7455 25.3V28.5C87.4255 28 85.6993 27.5 83.7701 27ZM8.73316 26.2V30.4C8.73316 31.4 7.92085 32.2 6.90547 32.2C5.687 32.2 4.46854 31.8 3.45316 31C3.35162 31 3.35162 30.9 3.25008 30.9C3.85931 30.1 4.57008 29.4 5.48393 28.6C6.39777 27.8 7.5147 27 8.73316 26.2ZM2.43777 32.1C3.65623 33.1 5.17931 33.6 6.80393 33.6C8.02239 33.6 9.03777 33 9.647 32.1C10.8655 33.2 12.7947 33.9 14.2162 34.2C14.6224 34.3 15.1301 34.4 15.5362 34.4C15.1301 34.4 14.6224 34.5 14.2162 34.6C12.7947 34.9 10.7639 35.6 9.647 36.7C9.03777 35.8 8.02239 35.2 6.80393 35.2C5.48393 35.2 4.26547 35.5 3.25008 36.2C2.43777 35.7 1.82854 35.4 1.52393 35.2C1.52393 35 2.33623 32.5 2.43777 32.1ZM8.73316 38.6V39C7.31162 38.3 5.99162 37.7 4.97623 37.2C5.58547 37 6.1947 36.8 6.90547 36.8C7.81931 36.8 8.73316 37.6 8.73316 38.6ZM75.2409 56.2C52.6993 67.1 18.5824 59.5 6.49931 45.7C4.57008 43.5 2.74239 40.6 1.93008 37.2C7.007 40.1 25.2839 49.3 50.3639 49.3C63.8685 49.3 79.4039 46.6 95.9547 38.9C93.7209 43.5 88.7455 49.7 75.2409 56.2ZM90.4716 39.7V38.6C90.4716 37.6 91.2839 36.8 92.2993 36.8C93.3147 36.8 94.2285 37.1 95.1424 37.6C93.6193 38.3 92.0962 39 90.4716 39.7ZM96.8686 36.8C95.5486 35.8 94.0255 35.3 92.4009 35.3C91.1824 35.3 90.167 35.9 89.5578 36.8C88.3393 35.7 86.3085 35 84.9885 34.7C84.5824 34.6 84.0747 34.5 83.6685 34.5C84.0747 34.5 84.5824 34.4 84.9885 34.3C86.4101 34 88.3393 33.3 89.5578 32.2C90.167 33.1 91.1824 33.7 92.4009 33.7C94.0255 33.7 95.447 33.2 96.6655 32.2C96.8685 32.7 97.1732 36 96.8686 36.8Z" fill="#D0B5A9"/>
<path d="M31.6813 14.3001C31.7829 14.3001 31.7829 14.3001 31.6813 14.3001C32.189 14.3001 32.4936 13.9001 32.4936 13.5001C32.0875 10.2001 32.0875 8.70009 33.3059 6.40009C33.509 6.00009 33.3059 5.60009 33.0013 5.40009C32.5952 5.20009 32.189 5.40009 31.9859 5.70009C30.666 8.40009 30.666 10.2001 31.0721 13.7001C30.9706 14.0001 31.2752 14.3001 31.6813 14.3001Z" fill="#D1D5DB"/>
<path d="M78.7947 16.8C78.7947 17.2 78.9978 17.6 79.5055 17.6H79.607C80.0132 17.6 80.3178 17.3 80.3178 16.9C80.724 13.4 80.724 11.6 79.404 8.9C79.2009 8.5 78.7947 8.4 78.3886 8.6C77.9824 8.8 77.8809 9.2 78.084 9.6C79.2009 12 79.2009 13.5 78.7947 16.8Z" fill="#D1D5DB"/>
<path d="M19.2944 17.6C19.3959 17.6 19.3959 17.6 19.2944 17.6C19.8021 17.6 20.1067 17.2 20.1067 16.8C19.7005 13.5 19.7005 12 20.919 9.70001C21.1221 9.30001 20.919 8.90001 20.6144 8.70001C20.3097 8.50001 19.802 8.70001 19.599 9.00001C18.279 11.7 18.279 13.5 18.5836 17C18.5836 17.3 18.9897 17.6 19.2944 17.6Z" fill="#D1D5DB"/>
<path d="M65.9002 13.5001C65.9002 13.9001 66.1033 14.3001 66.611 14.3001H66.7125C67.1187 14.3001 67.4233 14.0001 67.4233 13.6001C67.8294 10.1001 67.8294 8.30007 66.5094 5.60007C66.3064 5.20007 65.9002 5.10007 65.494 5.30007C65.0879 5.50007 64.9864 5.90007 65.1894 6.30007C66.2048 8.70007 66.2048 10.1001 65.9002 13.5001Z" fill="#D1D5DB"/>
<path d="M48.6375 15.3C48.6375 15.7 49.0437 16 49.4498 16C49.856 16 50.1606 15.6 50.1606 15.2C50.1606 14.8 50.059 14.5 50.059 14.2C49.856 12.6 49.7544 10.9 50.1606 6.10005C50.1606 5.70005 49.856 5.30005 49.4498 5.30005C49.0437 5.30005 48.6375 5.60005 48.6375 6.00005C48.2314 11 48.4344 12.7 48.536 14.4C48.6375 14.7 48.6375 15 48.6375 15.3Z" fill="#D1D5DB"/>
<path d="M46.7088 56.3C38.6873 56.3 30.8688 54.8 24.0658 51.8C23.6596 51.6 23.2534 51.8 23.0504 52.2C22.8473 52.6 23.0504 53 23.4565 53.2C30.4627 56.2 38.4842 57.8 46.7088 57.8C47.115 57.8 47.5211 57.5 47.5211 57C47.5211 56.5 47.115 56.3 46.7088 56.3Z" fill="#D1D5DB"/>
<path d="M78.6937 48.7001C71.8906 51.6001 64.0721 53.2001 56.0506 53.2001C55.6444 53.2001 55.2383 53.5001 55.2383 54.0001C55.2383 54.5001 55.5429 54.8001 56.0506 54.8001C64.2752 54.8001 72.2967 53.2001 79.3029 50.2001C79.709 50.0001 79.9121 49.6001 79.7091 49.2001C79.506 48.7001 79.0998 48.6001 78.6937 48.7001Z" fill="#D1D5DB"/>
</g>
<defs>
<clipPath id="clip0_10_18706">
<rect width="99" height="63" fill="white"/>
</clipPath>
</defs>
</svg>
