<svg width="99" height="64" viewBox="0 0 99 64" fill="none" xmlns="http://www.w3.org/2000/svg">
<g clip-path="url(#clip0_10_17498)">
<path d="M98.8974 32.6923C97.9835 23.0923 88.9466 11.3923 77.4728 4.9923C68.5374 -0.107698 59.7035 -1.1077 52.7989 1.9923C50.7681 2.8923 48.3312 2.8923 46.1989 1.9923C39.5989 -0.807698 31.4758 -0.107698 23.2512 4.0923C19.1897 6.2923 10.5589 12.4923 4.26351 21.5923C1.01428 26.2923 -0.407257 31.1923 0.100435 35.7923C0.100435 35.8923 0.100435 36.0923 0.100435 36.1923C0.608127 39.8923 2.33428 43.4923 5.2789 46.8923C13.7066 56.4923 31.7804 63.1923 49.9558 63.1923C58.9927 63.1923 67.9281 61.4923 75.8481 57.7923C91.7897 50.0923 96.2574 42.7923 98.0851 37.8923C98.0851 37.8923 98.0851 37.7923 98.1866 37.6923C98.7958 36.0923 99.1004 34.3923 98.8974 32.6923ZM5.48197 22.3923C11.6758 13.4923 19.9004 7.4923 23.8604 5.3923C31.6789 1.3923 39.3958 0.692302 45.4881 3.2923C48.0266 4.3923 50.8697 4.3923 53.3066 3.2923C59.8051 0.392302 68.1312 1.3923 76.6604 6.1923C86.6112 11.7923 94.6328 21.4923 96.7651 29.9923C94.8358 27.4923 91.4851 24.9923 87.2204 22.7923C76.9651 17.4923 60.8204 13.7923 49.4481 18.1923C41.9343 15.3923 31.4758 15.6923 20.7127 19.1923L17.1589 20.3923C11.9804 22.3923 7.51274 24.9923 4.46659 27.6923C3.34967 28.5923 2.53736 29.4923 1.82659 30.3923C2.43582 27.8923 3.55274 25.2923 5.48197 22.3923ZM95.8512 31.1923C95.7497 31.1923 95.7497 31.1923 95.8512 31.1923C94.8358 31.9923 93.6174 32.3923 92.3989 32.3923C91.3835 32.3923 90.5712 31.5923 90.5712 30.5923V26.4923C92.8051 27.9923 94.6328 29.5923 95.8512 31.1923ZM26.5004 43.9923C26.9066 43.9923 27.3127 43.6923 27.3127 43.1923V41.8923C28.5312 42.0923 29.7497 42.1923 30.9681 42.3923V46.0923C27.5158 45.3923 24.3681 44.5923 21.4235 43.7923V40.6923C21.5251 40.8923 21.7281 40.9923 21.9312 41.0923C23.1497 41.2923 24.4697 41.4923 25.7897 41.6923V43.1923C25.6881 43.6923 26.0943 43.9923 26.5004 43.9923ZM27.2112 40.3923V39.4923C27.2112 39.0923 26.9066 38.6923 26.3989 38.6923C25.9927 38.6923 25.5866 38.9923 25.5866 39.4923V40.1923C24.3681 39.9923 23.1497 39.7923 22.0327 39.5923C21.7281 39.4923 21.4235 39.6923 21.2204 39.9923C21.2204 39.7923 21.2204 39.4923 21.1189 39.1923C21.322 39.1923 21.322 39.0923 21.322 38.9923C21.322 38.0923 23.0481 36.9923 25.7897 36.3923C27.2112 35.9923 28.7343 36.3923 29.7497 37.2923C30.562 38.0923 30.9681 39.0923 30.9681 40.1923V40.9923C29.6481 40.7923 28.4297 40.5923 27.2112 40.3923ZM15.3312 25.1923C14.9251 25.1923 14.5189 25.4923 14.5189 25.9923V27.1923C12.9958 27.5923 11.5743 27.9923 10.1527 28.4923V25.4923C12.3866 24.1923 14.9251 22.8923 17.6666 21.8923L19.6974 21.1923V26.0923C18.3774 26.2923 17.1589 26.5923 15.9404 26.8923V26.0923C16.042 25.4923 15.7374 25.1923 15.3312 25.1923ZM14.5189 28.6923V29.5923C14.5189 29.9923 14.8235 30.3923 15.3312 30.3923C15.7374 30.3923 16.1435 30.0923 16.1435 29.5923V28.2923C17.362 27.9923 18.5804 27.6923 19.9004 27.4923V29.1923C19.9004 30.2923 19.4943 31.2923 18.682 32.0923C17.6666 33.0923 16.1435 33.3923 14.722 32.9923C12.082 32.2923 10.2543 31.2923 10.2543 30.3923V29.9923C11.5743 29.5923 12.9958 29.0923 14.5189 28.6923ZM18.5804 37.2923C19.3927 38.0923 19.7989 39.0923 19.7989 40.1923V43.3923C16.1435 42.1923 12.8943 40.9923 10.2543 39.8923V38.9923C10.2543 38.0923 11.9804 36.9923 14.722 36.3923C16.042 35.8923 17.5651 36.2923 18.5804 37.2923ZM19.6974 36.1923C18.682 35.1923 17.362 34.6923 16.042 34.6923C17.4635 34.6923 18.7835 34.0923 19.6974 33.1923C20.002 32.8923 20.3066 32.4923 20.5097 32.0923C21.6266 33.3923 23.8604 34.0923 25.3835 34.4923C25.7897 34.5923 26.2974 34.6923 26.7035 34.6923C26.2974 34.6923 25.8912 34.7923 25.4851 34.8923C23.962 35.2923 21.7281 35.9923 20.6112 37.2923C20.205 36.8923 20.002 36.4923 19.6974 36.1923ZM27.7189 22.8923C27.3127 22.8923 26.9066 23.1923 26.9066 23.6923V24.8923C24.9774 25.0923 23.0481 25.3923 21.322 25.7923V20.5923C24.5712 19.5923 27.8204 18.7923 30.8666 18.3923V24.4923C30.0543 24.5923 29.242 24.6923 28.4297 24.7923V23.7923C28.5312 23.1923 28.1251 22.8923 27.7189 22.8923ZM27.0081 26.3923V27.3923C27.0081 27.7923 27.3127 28.1923 27.8204 28.1923C28.3281 28.1923 28.6327 27.8923 28.6327 27.3923V26.1923C29.4451 26.0923 30.2574 25.9923 31.0697 25.8923V29.2923C31.0697 30.3923 30.6635 31.3923 29.8512 32.1923C28.8358 33.1923 27.3127 33.4923 25.8912 33.0923C23.2512 32.3923 21.5251 31.3923 21.5251 30.4923C21.5251 30.3923 21.5251 30.2923 21.4235 30.1923C21.4235 29.8923 21.5251 29.6923 21.5251 29.3923V27.3923C23.1497 26.8923 24.9774 26.5923 27.0081 26.3923ZM30.7651 36.1923C29.7497 35.1923 28.5312 34.6923 27.1097 34.6923C28.5312 34.6923 29.8512 34.0923 30.7651 33.1923C30.9681 32.9923 31.0697 32.7923 31.2727 32.5923C31.5774 33.3923 32.1866 34.1923 32.9989 34.6923C32.1866 35.1923 31.6789 35.8923 31.2727 36.7923C31.0697 36.5923 30.9681 36.3923 30.7651 36.1923ZM41.7312 20.5923C41.3251 20.5923 40.9189 20.8923 40.9189 21.3923V23.6923C37.9743 23.7923 35.1312 23.9923 32.3897 24.2923V18.1923C38.482 17.4923 44.1681 17.9923 48.8389 19.6923V23.5923C46.7066 23.5923 44.5743 23.5923 42.5435 23.6923V21.4923C42.442 20.8923 42.1374 20.5923 41.7312 20.5923ZM40.9189 25.1923V27.0923C40.9189 27.4923 41.2235 27.8923 41.7312 27.8923C42.1374 27.8923 42.5435 27.5923 42.5435 27.0923V25.0923C44.6758 24.9923 46.7066 24.9923 48.8389 24.9923V30.9923C48.8389 32.5923 47.5189 33.8923 45.7927 33.8923H35.4358C34.6235 33.8923 33.8112 33.5923 33.3035 32.9923C32.7958 32.4923 32.3897 31.6923 32.3897 30.8923V29.0923V25.5923C35.2327 25.4923 38.0758 25.2923 40.9189 25.1923ZM32.3897 42.5923C34.8266 42.7923 37.3651 42.9923 39.9035 43.1923V45.5923C39.9035 45.9923 40.2081 46.3923 40.7158 46.3923C41.122 46.3923 41.5281 46.0923 41.5281 45.5923V43.1923C43.9651 43.2923 46.402 43.3923 48.8389 43.3923V47.9923C42.9497 47.8923 37.4666 47.2923 32.4912 46.3923V42.5923H32.3897ZM41.5281 41.6923V39.7923C41.5281 39.3923 41.2235 38.9923 40.7158 38.9923C40.3097 38.9923 39.9035 39.2923 39.9035 39.7923V41.5923C37.3651 41.4923 34.8266 41.2923 32.3897 40.9923V38.2923C32.3897 36.6923 33.7097 35.3923 35.4358 35.3923H45.7927C47.4174 35.3923 48.7374 36.6923 48.8389 38.2923V41.7923C46.402 41.8923 43.8635 41.7923 41.5281 41.6923ZM48.3312 34.6923C48.8389 34.3923 49.2451 33.9923 49.5497 33.4923C49.8543 33.9923 50.2604 34.3923 50.7681 34.6923C50.2604 34.9923 49.8543 35.3923 49.5497 35.8923C49.2451 35.3923 48.8389 34.9923 48.3312 34.6923ZM56.6574 20.5923C56.2512 20.5923 55.8451 20.8923 55.8451 21.3923V23.5923C54.0174 23.4923 52.1897 23.4923 50.362 23.4923V19.5923C55.2358 17.7923 60.922 17.4923 66.7097 18.1923V24.3923C63.6635 24.0923 60.6174 23.8923 57.3681 23.6923V21.3923C57.3681 20.8923 57.0635 20.5923 56.6574 20.5923ZM55.8451 25.0923V27.0923C55.8451 27.4923 56.1497 27.8923 56.6574 27.8923C57.0635 27.8923 57.4697 27.5923 57.4697 27.0923V25.1923C60.7189 25.2923 63.7651 25.5923 66.8112 25.8923V29.1923V30.9923C66.8112 32.5923 65.4912 33.8923 63.7651 33.8923H53.3066C52.4943 33.8923 51.7835 33.5923 51.1743 32.9923C50.6666 32.4923 50.2604 31.6923 50.2604 30.8923V24.8923C52.1897 24.9923 54.0174 24.9923 55.8451 25.0923ZM50.362 43.3923C53.1035 43.3923 55.8451 43.2923 58.4851 43.1923V45.4923C58.4851 45.8923 58.7897 46.2923 59.2974 46.2923C59.7035 46.2923 60.1097 45.9923 60.1097 45.4923V43.0923C62.3435 42.9923 64.6789 42.7923 66.8112 42.5923V46.5923C61.1251 47.4923 55.642 47.8923 50.4635 47.8923V43.3923H50.362ZM60.0081 41.5923V39.7923C60.0081 39.3923 59.7035 38.9923 59.1958 38.9923C58.7897 38.9923 58.3835 39.2923 58.3835 39.7923V41.6923C55.7435 41.7923 53.002 41.8923 50.2604 41.8923V38.3923C50.2604 36.7923 51.5804 35.4923 53.3066 35.4923H63.6635C65.2881 35.4923 66.7097 36.7923 66.7097 38.3923V40.1923V41.1923C64.5774 41.2923 62.3435 41.4923 60.0081 41.5923ZM66.3035 34.6923C67.0143 34.1923 67.6235 33.4923 68.0297 32.5923C68.2327 32.7923 68.3343 32.9923 68.5374 33.1923C69.5527 34.0923 70.8727 34.6923 72.2943 34.6923C70.8727 34.6923 69.5527 35.2923 68.5374 36.1923C68.3343 36.3923 68.2327 36.5923 68.0297 36.7923C67.6235 35.8923 67.0143 35.1923 66.3035 34.6923ZM70.6697 22.8923C70.2635 22.8923 69.8574 23.1923 69.8574 23.6923V24.6923C69.3497 24.5923 68.7404 24.5923 68.2327 24.4923V18.2923C71.482 18.7923 74.7312 19.5923 77.7774 20.4923V25.7923C77.5743 25.7923 77.4727 25.6923 77.2697 25.6923C75.3404 25.3923 73.4112 24.9923 71.3804 24.7923V23.5923C71.3804 23.1923 71.0758 22.8923 70.6697 22.8923ZM69.8574 26.1923V27.3923C69.8574 27.7923 70.162 28.1923 70.6697 28.1923C71.0758 28.1923 71.482 27.8923 71.482 27.3923V26.3923C73.4112 26.6923 75.3404 26.8923 77.1681 27.2923C77.4727 27.2923 77.6758 27.3923 77.9804 27.4923V29.2923C77.9804 29.5923 77.9804 29.8923 78.082 30.0923C77.9804 30.1923 77.9804 30.2923 77.9804 30.3923C77.9804 31.2923 76.1527 32.3923 73.6143 32.9923C72.1927 33.3923 70.6697 32.9923 69.6543 32.0923C68.842 31.2923 68.4358 30.2923 68.4358 29.1923V25.8923C68.842 25.9923 69.3497 26.0923 69.8574 26.1923ZM68.2327 42.4923C69.7558 42.2923 71.2789 42.1923 72.7004 41.9923V43.2923C72.7004 43.6923 73.0051 44.0923 73.5127 44.0923C73.9189 44.0923 74.3251 43.7923 74.3251 43.2923V41.7923C75.5435 41.5923 76.762 41.3923 77.8789 41.1923V44.1923C74.6297 45.0923 71.3804 45.7923 68.3343 46.3923V42.4923H68.2327ZM74.3251 40.1923V39.4923C74.3251 39.0923 74.0204 38.6923 73.5127 38.6923C73.1066 38.6923 72.7004 38.9923 72.7004 39.4923V40.3923C71.2789 40.5923 69.7558 40.7923 68.2327 40.8923V39.9923C68.2327 38.8923 68.6389 37.8923 69.4512 37.0923C70.4666 36.0923 71.9897 35.7923 73.4112 36.1923C76.0512 36.8923 77.7774 37.8923 77.7774 38.7923C77.7774 38.8923 77.7774 38.9923 77.8789 39.0923C77.8789 39.1923 77.8789 39.2923 77.8789 39.3923C76.6604 39.8923 75.5435 39.9923 74.3251 40.1923ZM73.8174 34.8923C73.4112 34.7923 72.9035 34.6923 72.4974 34.6923C72.9035 34.6923 73.3097 34.5923 73.8174 34.4923C75.3404 34.0923 77.5743 33.3923 78.6912 32.0923C78.8943 32.4923 79.1989 32.8923 79.5035 33.1923C80.4174 34.0923 81.8389 34.6923 83.1589 34.6923C81.7374 34.6923 80.4174 35.2923 79.5035 36.1923C79.1989 36.4923 78.8943 36.8923 78.6912 37.2923C77.5743 35.9923 75.3404 35.2923 73.8174 34.8923ZM79.402 40.0923C79.402 38.9923 79.8081 37.9923 80.6204 37.1923C81.6358 36.1923 83.1589 35.8923 84.5804 36.2923C87.2204 36.9923 88.9466 37.9923 88.9466 38.8923V40.3923C85.6974 41.6923 82.5497 42.7923 79.402 43.6923V40.0923ZM80.6204 32.0923C79.8081 31.2923 79.402 30.2923 79.402 29.1923V27.6923C80.4174 27.8923 81.3312 28.0923 82.3466 28.2923V29.5923C82.3466 29.9923 82.6512 30.3923 83.1589 30.3923C83.5651 30.3923 83.9712 30.0923 83.9712 29.5923V28.6923C85.6974 29.1923 87.322 29.5923 88.7435 30.1923C88.8451 30.1923 88.9466 30.1923 89.0481 30.1923V30.3923C89.0481 31.2923 87.2204 32.3923 84.682 32.9923C83.0574 33.3923 81.5343 33.0923 80.6204 32.0923ZM83.7681 27.1923V25.9923C83.7681 25.5923 83.4635 25.1923 82.9558 25.1923C82.5497 25.1923 82.1435 25.4923 82.1435 25.9923V26.7923C81.2297 26.5923 80.2143 26.3923 79.1989 26.1923V21.0923C81.8389 21.9923 84.2758 23.0923 86.4081 24.1923C87.2204 24.5923 88.0328 25.0923 88.7435 25.4923V28.6923C87.4235 28.1923 85.6974 27.6923 83.7681 27.1923ZM8.7312 26.3923V30.5923C8.7312 31.5923 7.9189 32.3923 6.90351 32.3923C5.68505 32.3923 4.46659 31.9923 3.4512 31.1923C3.34967 31.1923 3.34967 31.0923 3.24813 31.0923C3.85736 30.2923 4.56813 29.5923 5.48197 28.7923C6.39582 27.9923 7.51274 27.1923 8.7312 26.3923ZM2.43582 32.2923C3.65428 33.2923 5.17736 33.7923 6.80197 33.7923C8.02044 33.7923 9.03582 33.1923 9.64505 32.2923C10.8635 33.3923 12.7927 34.0923 14.2143 34.3923C14.6204 34.4923 15.1281 34.5923 15.5343 34.5923C15.1281 34.5923 14.6204 34.6923 14.2143 34.7923C12.7927 35.0923 10.762 35.7923 9.64505 36.8923C9.03582 35.9923 8.02044 35.3923 6.80197 35.3923C5.48197 35.3923 4.26351 35.6923 3.24813 36.3923C2.43582 35.8923 1.82659 35.5923 1.52197 35.3923C1.52197 35.1923 2.33428 32.6923 2.43582 32.2923ZM8.7312 38.7923V39.1923C7.30967 38.4923 5.98967 37.8923 4.97428 37.3923C5.58351 37.1923 6.19274 36.9923 6.90351 36.9923C7.81736 36.9923 8.7312 37.7923 8.7312 38.7923ZM75.2389 56.3923C52.6974 67.2923 18.5804 59.6923 6.49736 45.8923C4.56813 43.6923 2.74044 40.7923 1.92813 37.3923C7.00505 40.2923 25.282 49.4923 50.362 49.4923C63.8666 49.4923 79.402 46.7923 95.9528 39.0923C93.7189 43.6923 88.7435 49.8923 75.2389 56.3923ZM90.4697 39.8923V38.7923C90.4697 37.7923 91.282 36.9923 92.2974 36.9923C93.3128 36.9923 94.2266 37.2923 95.1404 37.7923C93.6174 38.4923 92.0943 39.1923 90.4697 39.8923ZM96.8666 36.9923C95.5466 35.9923 94.0235 35.4923 92.3989 35.4923C91.1804 35.4923 90.1651 36.0923 89.5558 36.9923C88.3374 35.8923 86.3066 35.1923 84.9866 34.8923C84.5804 34.7923 84.0728 34.6923 83.6666 34.6923C84.0728 34.6923 84.5804 34.5923 84.9866 34.4923C86.4081 34.1923 88.3374 33.4923 89.5558 32.3923C90.1651 33.2923 91.1804 33.8923 92.3989 33.8923C94.0235 33.8923 95.4451 33.3923 96.6635 32.3923C96.8666 32.8923 97.1712 36.1923 96.8666 36.9923Z" fill="#57565C"/>
<path d="M31.6794 14.4922C31.7809 14.4922 31.7809 14.4922 31.6794 14.4922C32.1871 14.4922 32.4917 14.0922 32.4917 13.6922C32.0855 10.3922 32.0855 8.89222 33.304 6.59222C33.5071 6.19222 33.304 5.79222 32.9994 5.59222C32.5932 5.39222 32.1871 5.59222 31.984 5.89222C30.664 8.59222 30.664 10.3922 31.0702 13.8922C30.9686 14.1922 31.2732 14.4922 31.6794 14.4922Z" fill="#9EA6B3" fill-opacity="0.41"/>
<path d="M78.7928 16.9924C78.7928 17.3924 78.9959 17.7924 79.5035 17.7924H79.6051C80.0112 17.7924 80.3159 17.4924 80.3159 17.0924C80.722 13.5924 80.722 11.7924 79.402 9.09238C79.1989 8.69238 78.7928 8.59238 78.3866 8.79238C77.9805 8.99238 77.8789 9.39238 78.082 9.79238C79.1989 12.1924 79.1989 13.6924 78.7928 16.9924Z" fill="#9EA6B3" fill-opacity="0.41"/>
<path d="M19.2905 17.792C19.392 17.792 19.392 17.792 19.2905 17.792C19.7981 17.792 20.1028 17.392 20.1028 16.992C19.6966 13.692 19.6966 12.192 20.9151 9.89203C21.1181 9.49203 20.9151 9.09203 20.6105 8.89203C20.3058 8.69203 19.7981 8.89203 19.5951 9.19203C18.2751 11.892 18.2751 13.692 18.5797 17.192C18.5797 17.492 18.9858 17.792 19.2905 17.792Z" fill="#9EA6B3" fill-opacity="0.41"/>
<path d="M65.8982 13.6921C65.8982 14.0921 66.1013 14.4921 66.609 14.4921H66.7106C67.1167 14.4921 67.4213 14.1921 67.4213 13.7921C67.8275 10.2921 67.8275 8.49209 66.5075 5.79209C66.3044 5.39209 65.8982 5.29209 65.4921 5.49209C65.0859 5.69209 64.9844 6.09209 65.1875 6.49209C66.2029 8.89209 66.2029 10.2921 65.8982 13.6921Z" fill="#9EA6B3" fill-opacity="0.41"/>
<path d="M48.6336 15.4922C48.6336 15.8922 49.0398 16.1922 49.4459 16.1922C49.8521 16.1922 50.1567 15.7922 50.1567 15.3922C50.1567 14.9922 50.0551 14.6922 50.0551 14.3922C49.8521 12.7922 49.7505 11.0922 50.1567 6.29219C50.1567 5.89219 49.8521 5.49219 49.4459 5.49219C49.0398 5.49219 48.6336 5.79219 48.6336 6.19219C48.2274 11.1922 48.4305 12.8922 48.5321 14.5922C48.6336 14.8922 48.6336 15.1922 48.6336 15.4922Z" fill="#9EA6B3" fill-opacity="0.41"/>
<path d="M46.7069 56.4925C38.6853 56.4925 30.8669 54.9925 24.0638 51.9925C23.6576 51.7925 23.2515 51.9925 23.0484 52.3925C22.8453 52.7925 23.0484 53.1925 23.4546 53.3925C30.4607 56.3925 38.4823 57.9925 46.7069 57.9925C47.113 57.9925 47.5192 57.6925 47.5192 57.1925C47.5192 56.6925 47.113 56.4925 46.7069 56.4925Z" fill="#9EA6B3" fill-opacity="0.41"/>
<path d="M78.6898 48.8923C71.8867 51.7923 64.0682 53.3923 56.0467 53.3923C55.6405 53.3923 55.2344 53.6923 55.2344 54.1923C55.2344 54.6923 55.539 54.9923 56.0467 54.9923C64.2713 54.9923 72.2928 53.3923 79.299 50.3923C79.7051 50.1923 79.9082 49.7923 79.7051 49.3923C79.5021 48.8923 79.0959 48.7923 78.6898 48.8923Z" fill="#9EA6B3" fill-opacity="0.41"/>
</g>
<defs>
<clipPath id="clip0_10_17498">
<rect width="99" height="63" fill="white" transform="translate(0 0.192383)"/>
</clipPath>
</defs>
</svg>
