<svg width="132" height="29" viewBox="0 0 132 29" fill="none" xmlns="http://www.w3.org/2000/svg">
<g style="mix-blend-mode:luminosity" clip-path="url(#clip0_10_17707)">
<path d="M27.8332 21.0678H25.6465V9.23242H27.8332V21.0678Z" fill="#007DD4"/>
<path d="M38.7209 18.1719C38.3805 19.1421 37.8347 19.9126 37.0848 20.4833C36.3349 21.054 35.4222 21.3387 34.3475 21.3387C32.7934 21.3387 31.5648 20.8237 30.6603 19.7923C29.8623 18.8894 29.4629 17.8159 29.4629 16.5726C29.4629 15.3293 29.846 14.3625 30.6122 13.4799C31.5058 12.4493 32.7243 11.9336 34.2675 11.9336C35.3632 11.9336 36.305 12.2237 37.0929 12.8046C37.8801 13.3855 38.4232 14.1614 38.7209 15.1323H36.3267C36.1247 14.7382 35.8453 14.442 35.4887 14.2449C35.132 14.0479 34.7143 13.9487 34.2356 13.9487C33.4159 13.9487 32.7697 14.2062 32.2964 14.7199C31.8232 15.2342 31.5858 15.8619 31.5858 16.6039C31.5858 17.3458 31.8252 18.0245 32.3039 18.5436C32.7826 19.0627 33.4267 19.3229 34.235 19.3229C34.7354 19.3229 35.1551 19.2271 35.4961 19.0348C35.8365 18.8425 36.1132 18.5551 36.3261 18.1713H38.7202L38.7209 18.1719Z" fill="#007DD4"/>
<path d="M48.9364 16.6395V16.8786C48.9364 17.1022 48.9202 17.3359 48.8883 17.5805H41.9607C42.099 18.1091 42.3784 18.5317 42.7988 18.8483C43.2192 19.1649 43.7114 19.3238 44.2756 19.3238C44.6478 19.3238 44.9936 19.2661 45.313 19.1513C45.6961 19.0045 46.01 18.7905 46.2548 18.5079H48.6489C48.255 19.4305 47.6726 20.133 46.9009 20.6154C46.1293 21.0978 45.2811 21.339 44.3549 21.339C42.8862 21.339 41.7105 20.8185 40.827 19.777C40.0608 18.8741 39.6777 17.8482 39.6777 16.7006C39.6777 15.5531 40.0608 14.4851 40.827 13.5604C41.7207 12.4767 42.9073 11.9346 44.3868 11.9346C45.7273 11.9346 46.8209 12.3837 47.6671 13.2825C48.5133 14.1807 48.9364 15.2997 48.9364 16.6395ZM46.7179 15.6931C46.5687 15.1441 46.2812 14.7154 45.8561 14.409C45.4303 14.1026 44.9407 13.9497 44.3874 13.9497C43.8341 13.9497 43.3046 14.1087 42.8632 14.4253C42.4218 14.7419 42.1106 15.1645 41.9295 15.6931H46.7179Z" fill="#007DD4"/>
<path d="M66.4114 21.0678H64.2247V12.2069L61.24 21.0678H59.3882L56.4035 12.2069V21.0678H54.2168V9.23242H57.186L60.3145 18.2849L63.443 9.23242H66.4121V21.0678H66.4114Z" fill="#007DD4"/>
<path d="M77.1708 21.0672H75.2235V19.8674C74.8722 20.3423 74.4383 20.7058 73.9223 20.9592C73.4063 21.2119 72.8449 21.339 72.238 21.339C71.0671 21.339 70.0669 20.9245 69.237 20.0957C68.3535 19.2138 67.9121 18.0873 67.9121 16.7163C67.9121 15.3452 68.3352 14.2058 69.1807 13.2975C70.0269 12.3891 71.067 11.9346 72.3011 11.9346C73.5351 11.9346 74.5413 12.4414 75.1902 13.4537L75.2221 12.2063H77.1695V21.0672H77.1708ZM75.1753 16.6211C75.1753 15.8473 74.9441 15.2087 74.481 14.7052C74.0179 14.2018 73.4036 13.9497 72.6374 13.9497C71.8712 13.9497 71.2589 14.2099 70.7701 14.729C70.2805 15.2481 70.0357 15.9105 70.0357 16.7163C70.0357 17.4691 70.2778 18.0921 70.7619 18.5846C71.2461 19.0772 71.8712 19.3238 72.6374 19.3238C73.4036 19.3238 74.005 19.0752 74.4729 18.5765C74.9407 18.0785 75.1753 17.4262 75.1753 16.6205V16.6211Z" fill="#007DD4"/>
<path d="M82.9174 13.9833C82.2787 13.9833 81.8027 14.1783 81.4887 14.5669C81.1748 14.9562 81.0175 15.5296 81.0175 16.2865V21.0689H78.8945V12.208H80.8419V13.0077C81.2779 12.2719 81.9003 11.9043 82.7092 11.9043H82.9167V13.9833H82.9174Z" fill="#007DD4"/>
<path d="M91.9988 21.0678H89.1578L86.1249 16.9254V21.0678H84.002V9.23242H86.1249V16.3819L88.9659 12.2076H91.472L88.2797 16.5422L91.9988 21.0684V21.0678Z" fill="#007DD4"/>
<path d="M102.138 16.6395V16.8786C102.138 17.1022 102.121 17.3359 102.089 17.5805H95.1619C95.3002 18.1091 95.5796 18.5317 95.9999 18.8483C96.4203 19.1649 96.9126 19.3238 97.4767 19.3238C97.849 19.3238 98.1948 19.2661 98.5141 19.1513C98.8972 19.0045 99.2112 18.7905 99.4559 18.5079H101.85C101.456 19.4305 100.874 20.133 100.102 20.6154C99.3305 21.0978 98.4823 21.339 97.5561 21.339C96.0874 21.339 94.9117 20.8185 94.0282 19.777C93.262 18.8741 92.8789 17.8482 92.8789 16.7006C92.8789 15.5531 93.262 14.4851 94.0282 13.5604C94.9219 12.4767 96.1084 11.9346 97.5879 11.9346C98.9284 11.9346 100.022 12.3837 100.868 13.2825C101.715 14.1807 102.138 15.2997 102.138 16.6395ZM99.919 15.6931C99.7699 15.1441 99.4824 14.7154 99.0572 14.409C98.6314 14.1026 98.1419 13.9497 97.5886 13.9497C97.0353 13.9497 96.5058 14.1087 96.0644 14.4253C95.623 14.7419 95.3117 15.1645 95.1307 15.6931H99.919Z" fill="#007DD4"/>
<path d="M107.193 14.094H105.916V21.0675H103.793V14.094H102.756V12.2066H103.793V9.23145H105.916V12.2066H107.193V14.094Z" fill="#007DD4"/>
<path d="M110.387 11.1837H108.264V9.23242H110.387V11.1837ZM110.387 21.0678H108.264V12.2069H110.387V21.0678Z" fill="#007DD4"/>
<path d="M119.949 21.0672H117.826V16.365C117.826 15.4695 117.634 14.8193 117.252 14.4137C116.953 14.0937 116.555 13.9341 116.054 13.9341C115.298 13.9341 114.777 14.2378 114.49 14.8458C114.309 15.2195 114.219 15.7257 114.219 16.365V21.0672H112.096V12.2063H114.043V13.0223C114.309 12.7281 114.575 12.5026 114.841 12.3443C115.32 12.0711 115.873 11.9346 116.501 11.9346C117.544 11.9346 118.379 12.2858 119.007 12.9883C119.635 13.6908 119.949 14.6597 119.949 15.8942V21.0672Z" fill="#007DD4"/>
<path d="M130.483 19.7233C130.483 21.2371 129.999 22.4315 129.03 23.3059C128.147 24.1055 127.046 24.5057 125.726 24.5057C124.651 24.5057 123.712 24.2231 122.909 23.6578C122.105 23.0925 121.57 22.2929 121.305 21.2588H123.747C123.874 21.6529 124.116 21.9572 124.473 22.1706C124.83 22.3839 125.247 22.4906 125.726 22.4906C126.46 22.4906 127.083 22.2562 127.593 21.7867C128.104 21.3172 128.36 20.7526 128.36 20.0916V19.7716C127.998 20.2512 127.602 20.6032 127.17 20.8274C126.739 21.0516 126.247 21.163 125.694 21.163C124.459 21.163 123.406 20.7105 122.533 19.8062C121.661 18.9012 121.225 17.8047 121.225 16.5172C121.225 15.2297 121.663 14.0768 122.541 13.22C123.419 12.3633 124.486 11.9346 125.742 11.9346C126.231 11.9346 126.673 12.0141 127.067 12.1717C127.684 12.4142 128.162 12.8307 128.503 13.4218L128.535 12.2063H130.483V19.7233ZM128.487 16.5804C128.487 15.7834 128.253 15.1455 127.785 14.6672C127.316 14.1889 126.694 13.9497 125.917 13.9497C125.141 13.9497 124.481 14.2099 124.002 14.731C123.565 15.2093 123.348 15.7997 123.348 16.5009C123.348 17.2448 123.565 17.8618 124.002 18.3502C124.481 18.8815 125.119 19.1472 125.917 19.1472C126.715 19.1472 127.317 18.9026 127.785 18.4134C128.253 17.9249 128.487 17.3135 128.487 16.5797V16.5804Z" fill="#007DD4"/>
<path d="M3.27344 19.5537L7.39413 28.9994H9.4689L3.27344 19.5537Z" fill="url(#paint0_linear_10_17707)"/>
<path d="M6.14895 17.1777L3.27344 19.5537L9.4689 28.9995L6.14895 17.1777Z" fill="url(#paint1_linear_10_17707)"/>
<path d="M3.80859 9.33691L9.4704 29.0008H12.9682L3.80859 9.33691Z" fill="url(#paint2_linear_10_17707)"/>
<path d="M18.538 20.6836L12.9648 29.0005H15.218L18.538 20.6836Z" fill="url(#paint3_linear_10_17707)"/>
<path d="M16.4627 14.3271L18.538 20.6839L12.9648 29.0008L16.4627 14.3271Z" fill="url(#paint4_linear_10_17707)"/>
<path d="M9.23322 2.14844L3.80859 9.33644L9.94476 6.21802L9.23322 2.14844Z" fill="url(#paint5_linear_10_17707)"/>
<path d="M13.4124 4.61385L9.94396 6.21802L9.23242 2.14844L13.4124 4.61385Z" fill="url(#paint6_linear_10_17707)"/>
<path d="M3.80859 9.33691L16.4661 14.3271L12.9682 29.0008L3.80859 9.33691Z" fill="white"/>
<path d="M10.7205 12.0611L9.94476 6.21777L3.80859 9.33619L10.7205 12.0611Z" fill="url(#paint7_linear_10_17707)"/>
<path d="M12.9668 29.0007L13.4118 4.61426L9.94336 6.21844L12.9668 29.0007Z" fill="url(#paint8_linear_10_17707)"/>
<path d="M3.80859 9.33691L16.4661 14.3271L12.9682 29.0008L3.80859 9.33691Z" fill="url(#paint9_linear_10_17707)"/>
<path d="M12.9685 29.0005L13.2589 13.0623L10.7207 12.0615L12.9685 29.0005Z" fill="url(#paint10_linear_10_17707)"/>
</g>
<defs>
<linearGradient id="paint0_linear_10_17707" x1="6.37144" y1="18.7851" x2="6.37144" y2="30.3382" gradientUnits="userSpaceOnUse">
<stop stop-color="#82F3F3"/>
<stop offset="0.92" stop-color="#4AEDED"/>
</linearGradient>
<linearGradient id="paint1_linear_10_17707" x1="3.27344" y1="23.0886" x2="9.4689" y2="23.0886" gradientUnits="userSpaceOnUse">
<stop stop-color="#0072FD"/>
<stop offset="0.61" stop-color="#34E1F2"/>
</linearGradient>
<linearGradient id="paint2_linear_10_17707" x1="1.68324" y1="10.5666" x2="12.5031" y2="29.2697" gradientUnits="userSpaceOnUse">
<stop offset="0.22" stop-color="#0078CC"/>
<stop offset="0.5" stop-color="#00C4FF"/>
</linearGradient>
<linearGradient id="paint3_linear_10_17707" x1="12.9648" y1="24.842" x2="18.538" y2="24.842" gradientUnits="userSpaceOnUse">
<stop stop-color="#82F3F3"/>
<stop offset="0.92" stop-color="#4AEDED"/>
</linearGradient>
<linearGradient id="paint4_linear_10_17707" x1="11.9808" y1="16.9201" x2="17.4638" y2="26.3983" gradientUnits="userSpaceOnUse">
<stop offset="0.31" stop-color="#2FC8EC"/>
<stop offset="0.92" stop-color="#0E9BEA"/>
</linearGradient>
<linearGradient id="paint5_linear_10_17707" x1="5.43566" y1="10.2778" x2="9.91146" y2="2.54107" gradientUnits="userSpaceOnUse">
<stop offset="0.28" stop-color="#47EAED"/>
<stop offset="0.93" stop-color="#4AEDED"/>
</linearGradient>
<linearGradient id="paint6_linear_10_17707" x1="9.0627" y1="4.68852" x2="12.3604" y2="2.78812" gradientUnits="userSpaceOnUse">
<stop stop-color="#2FC8EC"/>
<stop offset="0.72" stop-color="#2FC8EC"/>
</linearGradient>
<linearGradient id="paint7_linear_10_17707" x1="6.21628" y1="11.7493" x2="10.85" y2="7.12485" gradientUnits="userSpaceOnUse">
<stop offset="0.28" stop-color="#41E2ED"/>
<stop offset="0.93" stop-color="#22B6EB"/>
</linearGradient>
<linearGradient id="paint8_linear_10_17707" x1="11.1151" y1="5.0198" x2="15.2798" y2="28.5917" gradientUnits="userSpaceOnUse">
<stop offset="0.28" stop-color="#1190ED"/>
<stop offset="0.93" stop-color="#01299A"/>
</linearGradient>
<linearGradient id="paint9_linear_10_17707" x1="10.1373" y1="9.33691" x2="10.1373" y2="29.0008" gradientUnits="userSpaceOnUse">
<stop offset="0.31" stop-color="#2AC1EB"/>
<stop offset="1" stop-color="#0235F9"/>
</linearGradient>
<linearGradient id="paint10_linear_10_17707" x1="11.5111" y1="11.922" x2="14.4809" y2="28.733" gradientUnits="userSpaceOnUse">
<stop offset="0.28" stop-color="#1190ED"/>
<stop offset="0.93" stop-color="#01299A"/>
</linearGradient>
<clipPath id="clip0_10_17707">
<rect width="132" height="29" fill="white"/>
</clipPath>
</defs>
</svg>
