<svg width="1155" height="183" viewBox="0 0 1155 183" fill="none" xmlns="http://www.w3.org/2000/svg">
<path fill-rule="evenodd" clip-rule="evenodd" d="M9.53977 179.647C3.20318 179.647 0 175.456 0 167.145C0 160.509 2.50683 153.245 7.45077 145.492C13.0214 136.621 20.4721 128.24 29.8725 120.487C41.7798 110.219 51.598 105.469 59.3969 106.308C66.8476 86.0518 74.925 67.4026 83.4898 50.4996C95.6756 26.6118 106.747 11.4549 116.705 5.09883C121.44 2.02554 126.244 0.488876 131.258 0.488876C139.266 0.488876 143.304 4.67967 143.304 12.9915C143.304 27.7293 134.461 45.7499 116.705 67.1232C110.647 74.8762 103.753 82.5595 96.163 90.0332C88.5731 97.5069 80.2867 105.19 71.4434 112.943C68.101 121.534 65.5942 129.357 63.7837 136.272C61.9733 143.187 60.9288 149.473 60.6502 154.991C61.7644 166.097 66.8476 171.685 76.0392 171.685C86.8322 171.685 100.271 163.233 116.357 146.26C117.749 144.584 118.863 143.746 119.699 143.746C120.534 143.746 120.952 144.305 120.952 145.422C120.952 146.54 120.534 147.797 119.699 149.194C101.177 169.17 84.9521 179.228 71.0952 179.228C64.4801 179.228 59.0487 176.295 54.8707 170.497C50.4142 164.351 48.1164 157.017 47.8378 148.426C40.9442 157.576 33.9808 165.259 27.0872 171.336C19.915 176.923 14.0659 179.647 9.60937 179.647H9.53977ZM74.7857 104.631C88.9212 91.011 101.385 76.2732 112.179 60.4877C126.035 40.5114 133.765 24.7958 135.436 13.4107V11.3152C135.436 7.96256 134.322 6.28622 132.094 6.28622C126.523 6.28622 120.883 11.4549 115.033 21.7224C107.583 34.7839 100.48 48.2645 93.8651 62.1641C87.25 76.0637 80.8438 90.2427 74.7857 104.631ZM18.3135 167.145C21.3773 167.145 25.3464 165.049 30.3599 160.928C39.4818 153.175 45.4703 145.492 48.186 138.018C52.6425 124.398 55.4975 116.785 56.8901 115.108C49.4394 114.55 41.9191 117.483 34.4683 123.839C27.5747 129.148 22.0041 136.202 17.8261 145.073C14.7623 150.661 13.2303 155.62 13.2303 160.09C13.2303 164.84 14.9015 167.145 18.2439 167.145H18.3135ZM139.196 183C150.546 183 163.568 179.089 178.26 171.336C185.154 167.703 191.073 164.071 195.947 160.3C200.821 156.528 204.721 152.896 207.784 149.264C208.899 148.146 209.456 146.889 209.456 145.492C209.456 142.139 207.784 142.419 204.442 146.33C201.378 149.403 197.688 152.547 193.231 155.899C188.775 159.252 183.831 162.395 178.26 165.468C165.239 172.663 154.446 176.295 145.881 176.295C135.088 176.295 129.656 170.427 129.656 158.763C129.656 157.366 129.656 155.899 129.865 154.363C130.005 152.826 130.213 151.08 130.492 149.124C145.463 145.492 157.092 138.717 165.378 128.729C169.835 123.141 171.993 117.623 171.993 112.035C171.993 103.444 167.676 99.1133 159.111 99.1133C152.774 99.1133 145.672 102.745 137.943 109.94C131.606 116.016 126.175 123.769 121.718 133.059C117.262 142.349 115.103 150.102 115.103 156.179C115.103 173.99 123.111 182.86 139.196 182.86V183ZM132.163 144.654C145.742 140.184 155.003 133.548 160.016 124.677C163.359 119.09 165.03 114.41 165.03 110.498C165.03 107.425 164.055 105.888 162.105 105.888C159.877 105.888 156.813 107.914 152.983 111.965C149.084 116.016 145.324 120.906 141.564 126.773C137.803 132.64 134.74 138.577 132.233 144.654H132.163ZM200.682 179.647C198.732 179.647 197.061 178.809 195.668 177.133C194.276 175.456 193.719 174.06 193.997 172.942L206.461 144.165C213.634 127.192 217.255 116.924 217.255 113.362C218.09 112.245 220.875 110.568 225.541 108.333C226.655 107.774 227.63 107.355 228.465 107.076C229.301 106.796 230.137 106.657 230.972 106.657C232.922 106.657 233.897 107.914 233.897 110.429C231.947 116.016 229.092 123.141 225.402 131.872C221.641 140.603 216.906 151.08 211.057 163.303L255.483 115.388C259.382 111.197 262.237 109.171 264.187 109.171C265.58 109.171 266.276 110.009 266.276 111.686C266.276 112.245 266.276 112.873 266.067 113.572C265.928 114.27 265.719 115.039 265.44 115.877C259.591 136.132 256.736 150.032 256.736 157.576C256.736 167.005 259.939 171.755 266.276 171.755C272.125 171.755 279.019 168.542 287.027 162.185C288.419 161.068 290.578 159.112 293.433 156.318C296.357 153.524 299.839 149.962 304.017 145.492C305.131 144.374 306.245 143.816 307.359 143.816C308.195 143.816 308.613 144.374 308.613 145.492C308.891 146.051 308.613 147.029 307.777 148.426C290.299 167.843 274.841 177.622 261.262 177.622C249.077 177.622 243.019 168.053 243.019 148.845C243.019 146.61 243.019 144.374 243.228 142.209C243.367 139.974 243.576 137.599 243.854 135.155L224.357 153.874C222.129 155.829 219.97 157.925 217.951 160.09C215.862 162.325 213.982 164.56 212.311 166.726L204.024 177.133C203.189 178.809 202.075 179.647 200.682 179.647ZM328.18 179.228C342.315 179.508 359.027 169.38 378.455 148.845C379.29 148.006 379.708 146.889 379.708 145.492C379.708 144.374 379.151 143.816 378.037 143.816C376.923 143.816 375.669 144.654 374.277 146.33C369.82 151.08 365.572 155.131 361.395 158.623C357.217 162.116 353.247 164.91 349.348 167.145C343.777 170.218 338.694 171.755 333.959 171.755C324.28 171.755 319.406 166.027 319.406 154.642C319.406 144.654 323.723 131.592 332.288 115.458H360.559C367.174 115.458 371.073 115.318 372.188 115.038C378.246 114.2 381.31 112.524 381.31 110.01C381.31 108.613 380.056 107.495 377.549 106.657H336.814C344.265 95.2717 350.81 85.4233 356.311 77.0416C361.812 68.6599 366.408 62.0244 370.029 57.0653C370.586 56.5065 370.865 55.9477 370.865 55.3889C370.865 52.8744 368.358 51.6172 363.414 51.6172C357.843 51.6172 353.178 53.2934 349.278 56.6461C346.215 61.3957 343.36 65.7961 340.783 69.987C338.137 74.1778 335.839 77.8797 333.959 81.2324C330.338 87.3789 327.483 92.5477 325.255 96.8782C323.027 101.209 321.356 104.422 320.241 106.657H312.791L305.34 107.076C301.441 107.076 299.491 108.054 299.491 110.01V110.848C299.491 113.921 301.719 115.737 306.106 116.296C305.549 116.016 306.106 115.877 307.777 115.877C309.448 115.877 312.094 115.737 315.646 115.458C309.797 129.078 306.942 141.161 306.942 151.708C306.942 153.385 306.942 155.061 307.15 156.737C307.29 158.414 307.499 160.23 307.777 162.185C310.284 173.291 317.038 179.019 328.11 179.298L328.18 179.228ZM377.619 179.647C371.282 179.647 368.079 175.456 368.079 167.145C368.079 160.509 370.586 153.245 375.53 145.492C387.159 127.96 399.762 116.156 413.341 110.079C419.19 107.285 424.83 105.888 430.401 105.888C433.186 105.888 436.18 106.657 439.523 108.193C442.865 109.73 444.536 111.895 444.536 114.619C444.536 116.016 443.561 116.855 441.612 117.134C440.497 117.413 439.731 117.693 439.314 117.972C438.896 118.252 438.548 118.531 438.269 118.81C431.933 130.754 428.729 141.86 428.729 152.127C428.729 165.189 433.882 171.685 444.118 171.685C454.911 171.685 468.351 163.233 484.436 146.26C485.828 144.584 486.942 143.746 487.778 143.746C488.614 143.746 489.032 144.305 489.032 145.422C489.032 146.54 488.614 147.797 487.778 149.194C469.256 169.17 453.031 179.228 439.174 179.228C432.559 179.228 427.128 176.295 422.95 170.497C418.493 164.351 416.196 157.017 415.917 148.426C409.023 157.576 402.06 165.259 395.166 171.336C387.994 176.923 382.145 179.647 377.689 179.647H377.619ZM386.323 167.145C382.981 167.145 381.31 164.77 381.31 160.09C381.31 155.62 382.841 150.661 385.905 145.073C396.141 124.817 408.466 114.829 422.88 115.038C421.488 118.112 420.165 121.464 418.911 125.236C417.658 129.008 416.753 133.199 416.196 137.948C414.803 141.86 412.575 145.632 409.58 149.403C406.517 153.175 402.826 156.947 398.37 160.858C393.356 165.049 389.387 167.075 386.323 167.075V167.145ZM504.699 179.228C518.834 179.787 535.546 169.659 554.974 148.845C556.088 147.727 556.645 146.609 556.645 145.492C556.645 144.374 556.088 143.676 554.974 143.397C553.86 143.397 552.467 144.374 550.796 146.33C546.339 151.08 542.092 155.131 537.914 158.623C533.736 162.116 529.767 164.91 525.867 167.145C518.974 171.335 513.124 173.361 508.389 173.361C501.217 173.361 497.596 167.773 497.596 156.668C497.596 142.209 501.635 127.611 509.643 112.943C548.15 79.9053 571.268 50.9885 578.997 26.2626C580.668 21.5129 581.504 17.2522 581.504 13.3408C581.504 4.47015 577.744 0 570.293 0C556.715 0 540.42 17.8111 521.271 53.3634C513.821 66.9836 507.554 79.5561 502.61 91.0809C497.596 102.606 493.767 113.083 490.981 122.512C489.031 129.706 487.569 136.132 486.594 141.65C485.619 147.238 485.132 151.918 485.132 155.829C485.132 170.847 491.608 178.6 504.629 179.158L504.699 179.228ZM512.985 104.631C518.834 90.1729 525.032 75.9939 531.647 62.1641C538.262 48.3343 545.504 34.7839 553.233 21.7224C559.082 11.4549 564.305 6.28622 569.04 6.28622C572.103 6.28622 573.635 8.52131 573.635 12.9217C573.635 16.2744 572.661 20.3954 570.711 25.4244C568.483 31.5011 565.21 38.0667 560.962 44.9816C556.645 51.8965 551.492 59.44 545.364 67.4724C540.072 74.3873 534.78 80.953 529.349 87.0297C523.918 93.1763 518.486 98.9736 512.916 104.561L512.985 104.631ZM703.64 182.162C688.39 182.162 680.8 173.85 680.8 157.157C680.8 146.33 686.232 134.526 697.025 121.744C708.653 107.844 719.864 100.929 730.657 100.929C739.501 100.929 743.957 104.98 743.957 113.013C743.957 115.807 742.982 119.229 741.033 123.42C739.919 125.376 738.944 126.982 738.108 128.24C737.273 129.497 736.576 130.684 736.019 131.802C735.184 132.64 734.487 133.059 733.93 133.059C732.259 133.059 731.981 131.662 733.095 128.868C735.044 125.795 736.019 123.001 736.019 120.556C736.019 117.204 734.069 115.527 730.17 115.527C725.156 115.527 719.934 117.623 714.363 121.744C707.47 127.052 701.899 133.339 697.721 140.673C693.543 148.007 691.524 154.782 691.524 160.858C691.524 170.847 696.816 175.876 707.33 175.876C712.344 175.876 718.959 174.339 727.245 171.266C738.039 166.516 749.249 158.204 760.878 146.26C762.828 144.305 764.221 143.327 765.056 143.327C765.892 143.606 766.309 144.305 766.309 145.422C766.309 146.26 765.892 147.378 765.056 148.775C744.305 170.986 723.764 182.092 703.57 182.092L703.64 182.162ZM781.698 179.228C795.834 179.787 812.546 169.659 831.973 148.845C833.087 147.727 833.644 146.609 833.644 145.492C833.644 144.374 833.087 143.676 831.973 143.397C830.859 143.397 829.467 144.374 827.795 146.33C823.339 151.08 819.091 155.131 814.913 158.623C810.735 162.116 806.766 164.91 802.867 167.145C795.973 171.335 790.124 173.361 785.389 173.361C778.217 173.361 774.596 167.773 774.596 156.668C774.596 142.209 778.635 127.611 786.642 112.943C825.149 79.9053 848.267 50.9885 855.997 26.2626C857.668 21.5129 858.503 17.2522 858.503 13.3408C858.503 4.47015 854.743 0 847.292 0C833.714 0 817.42 17.8111 798.271 53.3634C790.82 66.9836 784.553 79.5561 779.609 91.0809C774.596 102.606 770.766 113.083 767.981 122.512C766.031 129.706 764.569 136.132 763.594 141.65C762.619 147.168 762.131 151.918 762.131 155.829C762.131 170.847 768.607 178.6 781.629 179.158L781.698 179.228ZM789.985 104.631C795.834 90.1729 802.031 75.9939 808.646 62.1641C815.261 48.3343 822.503 34.7839 830.232 21.7224C836.081 11.4549 841.304 6.28622 846.039 6.28622C849.103 6.28622 850.635 8.52131 850.635 12.9217C850.635 16.2744 849.66 20.3954 847.71 25.4244C845.482 31.5011 842.209 38.0667 837.962 44.9816C833.644 51.8965 828.492 59.44 822.364 67.4724C817.072 74.3873 811.78 80.953 806.348 87.0297C800.917 93.1763 795.486 98.9736 789.915 104.561L789.985 104.631ZM880.507 75.016C878 75.016 875.703 73.9683 873.683 71.8729C871.594 69.7774 870.55 67.4725 870.55 65.0279C870.55 61.6752 872.082 58.8813 875.146 56.716C877.374 54.7603 879.881 53.7824 882.596 53.7824C888.933 53.7824 892.136 56.5763 892.136 62.0943C892.136 70.6855 888.237 75.016 880.507 75.016ZM852.654 179.158C836.569 178.879 829.397 167.773 831.068 145.841C831.347 136.412 836.499 124.328 846.457 109.59C848.128 106.517 851.749 104.981 857.25 104.981C861.428 104.981 863.447 106.238 863.447 108.752L863.03 110.848L852.654 128.798C848.476 136.551 846.318 142.558 846.039 146.749C845.761 148.146 845.552 149.613 845.412 151.15C845.273 152.686 845.204 154.153 845.204 155.55C845.204 166.935 849.242 172.663 857.25 172.663C868.322 172.663 882.178 163.932 898.821 146.4C900.492 144.444 901.885 143.466 902.999 143.466C903.834 143.746 904.252 144.444 904.252 145.562C904.252 146.4 903.834 147.518 902.999 148.914C883.641 169.729 866.859 179.857 852.724 179.298L852.654 179.158ZM895.827 179.577C897.219 179.577 898.333 178.739 899.169 177.063L907.455 166.656C909.126 164.421 911.007 162.185 913.096 160.02C915.185 157.785 917.343 155.69 919.502 153.804L938.999 135.085C938.72 137.599 938.511 139.974 938.372 142.139C938.233 144.374 938.163 146.609 938.163 148.775C938.163 167.913 944.221 177.552 956.407 177.552C969.986 177.552 985.514 167.843 1002.92 148.356C1003.76 146.959 1004.04 145.981 1003.76 145.422C1003.76 144.305 1003.34 143.746 1002.5 143.746C1001.39 143.746 1000.28 144.305 999.162 145.422C994.984 149.892 991.502 153.455 988.578 156.248C985.653 159.042 983.494 160.998 982.171 162.116C974.163 168.472 967.2 171.685 961.421 171.685C955.084 171.685 951.881 166.935 951.881 157.506C951.881 150.032 954.805 136.132 960.585 115.807C960.864 114.969 961.072 114.2 961.212 113.502C961.351 112.803 961.421 112.175 961.421 111.616C961.421 109.94 960.724 109.102 959.332 109.102C957.382 109.102 954.457 111.197 950.628 115.318L906.202 163.233C912.051 151.01 916.786 140.533 920.546 131.802C924.306 123.071 927.092 115.877 929.041 110.359C929.041 107.844 928.067 106.587 926.117 106.587C925.281 106.587 924.446 106.727 923.61 107.006C922.774 107.285 921.8 107.705 920.686 108.263C915.951 110.498 913.235 112.175 912.399 113.292C912.399 116.924 908.778 127.192 901.606 144.095L889.142 172.872C888.863 173.99 889.42 175.387 890.813 177.063C892.206 178.739 893.877 179.577 895.827 179.577ZM1051.18 75.016C1048.67 75.016 1046.37 73.9683 1044.35 71.8729C1042.26 69.7774 1041.22 67.4725 1041.22 65.0279C1041.22 61.6752 1042.75 58.8813 1045.82 56.716C1048.04 54.7603 1050.55 53.7824 1053.27 53.7824C1059.6 53.7824 1062.81 56.5763 1062.81 62.0943C1062.81 70.6855 1058.91 75.016 1051.18 75.016ZM1023.32 179.158C1007.24 178.879 1000.07 167.773 1001.74 145.841C1002.02 136.412 1007.17 124.328 1017.13 109.59C1018.8 106.517 1022.42 104.981 1027.92 104.981C1032.1 104.981 1034.12 106.238 1034.12 108.752L1033.7 110.848L1023.32 128.798C1019.15 136.551 1016.99 142.558 1016.71 146.749C1016.43 148.146 1016.22 149.613 1016.08 151.15C1015.94 152.686 1015.87 154.153 1015.87 155.55C1015.87 166.935 1019.91 172.663 1027.92 172.663C1038.99 172.663 1052.85 163.932 1069.49 146.4C1071.16 144.444 1072.55 143.466 1073.67 143.466C1074.5 143.746 1074.92 144.444 1074.92 145.562C1074.92 146.4 1074.5 147.518 1073.67 148.914C1054.31 169.729 1037.53 179.857 1023.39 179.298L1023.32 179.158ZM1092.26 182.092C1112.45 182.092 1133 170.986 1153.75 148.775C1154.58 147.378 1155 146.26 1155 145.422C1155 144.305 1154.58 143.606 1153.75 143.327C1152.91 143.327 1151.52 144.305 1149.57 146.26C1137.94 158.204 1126.73 166.516 1115.94 171.266C1107.65 174.339 1100.96 175.876 1096.02 175.876C1085.51 175.876 1080.21 170.847 1080.21 160.858C1080.21 154.712 1082.3 148.007 1086.41 140.673C1090.59 133.339 1096.09 126.982 1103.05 121.744C1108.62 117.553 1113.85 115.527 1118.86 115.527C1122.76 115.527 1124.71 117.204 1124.71 120.556C1124.71 123.071 1123.73 125.865 1121.79 128.868C1120.67 131.662 1120.95 133.059 1122.62 133.059C1123.18 133.059 1123.87 132.64 1124.71 131.802C1125.27 130.684 1125.96 129.497 1126.8 128.24C1127.63 126.982 1128.61 125.376 1129.72 123.42C1131.67 119.229 1132.65 115.807 1132.65 113.013C1132.65 104.98 1128.19 100.929 1119.35 100.929C1108.55 100.929 1097.34 107.844 1085.72 121.744C1074.92 134.526 1069.49 146.33 1069.49 157.157C1069.49 173.85 1077.08 182.162 1092.33 182.162L1092.26 182.092Z" fill="white" fill-opacity="0.03"/>
</svg>
