<svg width="375" height="96" viewBox="0 0 375 96" fill="none" xmlns="http://www.w3.org/2000/svg">
<g filter="url(#filter0_d_10_16984)">
<path fill-rule="evenodd" clip-rule="evenodd" d="M313 70C336.748 70 356 50.7482 356 27C356 26.3943 355.987 25.7914 355.963 25.1918C355.711 19.0986 360.02 13 366.119 13V13C371.024 13 375 16.9763 375 21.8813V81C375 89.8366 367.837 97 359 97H16C7.16345 97 0 89.8366 0 81V29C0 20.1634 7.16345 13 16 13H258.073C265.057 13 270 20.0156 270 27V27C270 50.7482 289.252 70 313 70Z" fill="white"/>
</g>
<defs>
<filter id="filter0_d_10_16984" x="-9" y="0" width="393" height="102" filterUnits="userSpaceOnUse" color-interpolation-filters="sRGB">
<feFlood flood-opacity="0" result="BackgroundImageFix"/>
<feColorMatrix in="SourceAlpha" type="matrix" values="0 0 0 0 0 0 0 0 0 0 0 0 0 0 0 0 0 0 127 0" result="hardAlpha"/>
<feOffset dy="-4"/>
<feGaussianBlur stdDeviation="4.5"/>
<feComposite in2="hardAlpha" operator="out"/>
<feColorMatrix type="matrix" values="0 0 0 0 0.341176 0 0 0 0 0.337255 0 0 0 0 0.360784 0 0 0 0.1 0"/>
<feBlend mode="normal" in2="BackgroundImageFix" result="effect1_dropShadow_10_16984"/>
<feBlend mode="normal" in="SourceGraphic" in2="effect1_dropShadow_10_16984" result="shape"/>
</filter>
</defs>
</svg>
