<svg width="133" height="37" viewBox="0 0 133 37" fill="none" xmlns="http://www.w3.org/2000/svg">
<g clip-path="url(#clip0_10_17884)">
<mask id="mask0_10_17884" style="mask-type:luminance" maskUnits="userSpaceOnUse" x="0" y="0" width="183" height="16">
<path d="M182.239 0H0V15.8571H182.239V0Z" fill="white"/>
</mask>
<g mask="url(#mask0_10_17884)">
<path fill-rule="evenodd" clip-rule="evenodd" d="M35.9669 0.454244C33.66 1.20993 32.993 2.03875 32.9073 4.91522C32.8644 6.48754 32.7665 11.1557 33.0296 12.466C33.8191 16.2079 40.8136 16.3359 44.3261 15.2998C46.5842 14.6295 47.0248 13.6787 47.0675 10.9059C47.1104 8.85821 47.0675 7.02383 47.1104 5.48199C47.1104 2.43486 46.4189 0.563939 43.0839 0.192192C40.985 -0.0576726 37.8273 -0.149086 35.9609 0.454244H35.9669ZM44.3628 11.5457V4.67145C44.4178 2.73959 41.5295 2.98945 40.0793 2.98945C38.4883 2.98945 35.7099 2.8249 35.7099 4.67145V11.5457C35.7099 12.5087 36.9339 12.8682 38.3229 12.9657C39.5969 13.0099 40.8723 12.9732 42.1415 12.856C43.4388 12.7585 44.2832 12.399 44.3383 11.5336L44.3628 11.5457Z" fill="#9EA6B3"/>
<path fill-rule="evenodd" clip-rule="evenodd" d="M18.5484 0.0624099C21.9263 0.0624099 25.7243 -0.167399 27.8115 0.254953C29.8989 0.677305 30.9921 1.98162 30.9921 4.60269C30.9921 8.95045 29.6087 10.1926 26.5394 10.5094C26.4511 10.5162 26.3622 10.5162 26.2739 10.5094C24.4583 10.6647 22.0622 10.5094 19.0301 10.5094V14.4037C19.0301 14.7892 18.8778 15.1589 18.6068 15.4315C18.3358 15.704 17.9682 15.8571 17.585 15.8571C17.2018 15.8571 16.8343 15.704 16.5631 15.4315C16.2923 15.1589 16.1399 14.7892 16.1399 14.4037V11.9193C16.0844 10.0933 16.1399 7.93181 16.1399 6.12441C16.1399 4.65239 16.1955 3.07478 16.1399 1.60274C16.1146 1.43307 16.1227 1.26001 16.1639 1.09349C16.2052 0.926982 16.2787 0.770291 16.3803 0.632391C16.4817 0.494492 16.6094 0.378101 16.7556 0.289884C16.902 0.20167 17.0643 0.143364 17.2331 0.118309C17.6664 0.0558062 18.1051 0.0370797 18.5421 0.0624099H18.5484ZM26.3356 2.99403H19.0363V7.63991H25.4588C27.3114 7.63991 28.2624 7.51567 28.3427 5.39151C28.423 3.26732 27.7993 3.03751 26.3356 2.99403Z" fill="#9EA6B3"/>
<path d="M14.2567 14.3966V8.28377V5.56828C14.2689 2.47291 13.549 0.573334 10.2121 0.193419C8.11969 -0.049477 4.94744 -0.161584 3.07462 0.461228C0.780855 1.22106 0.109808 2.06186 0.0244017 4.98907C0.0244017 6.11635 -0.0305021 8.80691 0.0244017 10.7625V14.381C0.0252012 14.5724 0.0629166 14.7618 0.135395 14.9383C0.207872 15.1148 0.313693 15.275 0.446816 15.4098C0.57994 15.5445 0.737755 15.6512 0.911255 15.7237C1.08475 15.7961 1.27054 15.833 1.458 15.8322C1.83611 15.8323 2.19892 15.6797 2.46742 15.408C2.73593 15.1361 2.88839 14.7671 2.89161 14.381V8.50797V8.39588V4.73994C2.89161 2.86529 5.6795 3.03344 7.27781 3.03344C8.69922 3.03344 11.5115 2.78431 11.4566 4.73994V13.3472V14.406C11.4574 14.5974 11.4951 14.7867 11.5676 14.9632C11.6401 15.1397 11.7459 15.2999 11.879 15.4347C12.0121 15.5694 12.17 15.6761 12.3434 15.7486C12.5169 15.8211 12.7027 15.8579 12.8902 15.8571C13.2672 15.8571 13.6287 15.7042 13.8953 15.4321C14.1619 15.16 14.2567 14.7815 14.2567 14.3966Z" fill="#9EA6B3"/>
</g>
<path fill-rule="evenodd" clip-rule="evenodd" d="M0 35.5446C0.00161143 35.1558 0.154377 34.7834 0.425259 34.5086C0.695979 34.2337 1.06274 34.0786 1.44562 34.0769H2.40539L8.66162 21.9361C8.79682 21.6755 9.00534 21.4616 9.26059 21.3215C9.51568 21.1814 9.80622 21.1214 10.095 21.1492C10.3812 21.1228 10.6687 21.1835 10.9207 21.3236C11.1727 21.4638 11.3779 21.677 11.5098 21.9361L17.7662 34.0769H18.3815C18.7643 34.0786 19.1311 34.2337 19.402 34.5086C19.6727 34.7834 19.8255 35.1558 19.8271 35.5446C19.8263 35.7364 19.7884 35.9263 19.7152 36.1033C19.6421 36.2803 19.5354 36.441 19.4012 36.5761C19.2669 36.7112 19.1077 36.8182 18.9327 36.8908C18.7579 36.9635 18.5705 37.0005 18.3815 36.9997H1.44562C1.2566 37.0005 1.06919 36.9635 0.894346 36.8908C0.719345 36.8182 0.560133 36.7112 0.425901 36.5761C0.291669 36.441 0.184994 36.2803 0.111835 36.1033C0.0388368 35.9263 0.000805717 35.7364 0 35.5446ZM10.095 25.4834L5.65968 34.0769H14.5121L10.095 25.4834Z" fill="#9EA6B3"/>
<path fill-rule="evenodd" clip-rule="evenodd" d="M38.9886 21.1979C39.2001 21.1987 39.4103 21.2371 39.6054 21.3108C39.8014 21.3846 39.9787 21.4922 40.1276 21.6277C40.2772 21.7631 40.3955 21.9237 40.4759 22.1002C40.5557 22.2768 40.597 22.4658 40.5957 22.6565V26.9392L49.2963 21.4089C49.6474 21.1881 50.0806 21.0996 50.5038 21.1622C50.9262 21.2248 51.3052 21.4337 51.5595 21.7441C51.682 21.9009 51.7697 22.078 51.8167 22.2653C51.8637 22.4526 51.8686 22.6463 51.8322 22.8355C51.796 23.0246 51.7184 23.2054 51.6037 23.3675C51.4896 23.5296 51.3407 23.6697 51.1662 23.78L42.8865 29.0682L51.1662 34.3565C51.5175 34.5801 51.7561 34.9199 51.8295 35.3013C51.9035 35.6829 51.8059 36.0751 51.5595 36.3923C51.3058 36.7034 50.9283 36.9137 50.5059 36.9785C50.0834 37.0435 49.6497 36.9578 49.2963 36.7399L40.5957 31.2034V35.5482C40.5957 35.7377 40.5542 35.9256 40.4731 36.1007C40.3927 36.2757 40.2736 36.4348 40.1248 36.5686C39.9752 36.7024 39.7978 36.8083 39.6033 36.8803C39.4082 36.9523 39.1994 36.989 38.9886 36.9881C38.5619 36.9882 38.1523 36.8371 37.8487 36.5675C37.5453 36.298 37.3723 35.9318 37.3672 35.5482V22.6565C37.3708 22.2707 37.5425 21.9015 37.8459 21.6287C38.1494 21.3559 38.5598 21.2011 38.9886 21.1979Z" fill="#9EA6B3"/>
<path fill-rule="evenodd" clip-rule="evenodd" d="M62.1909 24.0643V35.5513C62.1873 35.9356 62.0222 36.303 61.7307 36.5741C61.4394 36.8451 61.0455 36.9981 60.6338 36.9997C60.43 37.0005 60.227 36.9636 60.0382 36.8913C59.8495 36.8188 59.6778 36.7123 59.5331 36.5777C59.3886 36.4431 59.2739 36.2832 59.1956 36.107C59.1171 35.9309 59.0765 35.742 59.0765 35.5513V24.0643H54.9535C54.539 24.0643 54.1416 23.9114 53.8473 23.639C53.553 23.3666 53.3864 22.9966 53.3828 22.6097C53.3864 22.2216 53.5524 21.8503 53.8466 21.5759C54.1401 21.3015 54.5375 21.1458 54.9535 21.1426H66.3147C66.5198 21.1434 66.7228 21.182 66.9124 21.2562C67.1018 21.3303 67.2735 21.4386 67.418 21.5749C67.5627 21.7111 67.6774 21.8726 67.755 22.0502C67.8333 22.2277 67.8725 22.4178 67.8718 22.6097C67.8718 22.9955 67.708 23.3654 67.4159 23.6382C67.1239 23.911 66.7277 24.0643 66.3147 24.0643H62.1909Z" fill="#9EA6B3"/>
<path fill-rule="evenodd" clip-rule="evenodd" d="M121.937 27.5103H127.557C129.542 27.5103 130.295 27.5789 130.295 25.8468C130.295 24.6006 129.84 24.071 127.557 24.071H121.937V27.5103ZM121.937 34.0837H129.024C130.048 33.8594 130.295 33.336 130.295 32.4201C130.295 30.688 129.542 30.7627 127.557 30.7627H121.937V34.0962V34.0837ZM129.157 36.9997C126.217 36.9997 123.254 36.9997 120.315 36.9997C119.959 37.0013 119.618 36.8502 119.363 36.5793C119.11 36.3083 118.966 35.9398 118.963 35.5542V22.6068C118.964 22.22 119.107 21.8495 119.359 21.5754C119.612 21.3014 119.953 21.1459 120.31 21.1426C122.806 21.1426 125.417 21.1426 127.874 21.1426C130.331 21.1426 132.682 22.1706 132.682 25.2673C132.722 26.2783 132.595 27.2888 132.308 28.2518C132.247 28.4189 132.173 28.5796 132.084 28.7316C132.016 28.8705 131.985 29.028 131.998 29.185C132.01 29.342 132.064 29.4918 132.153 29.6164C132.227 29.7762 132.292 29.9405 132.348 30.1085C132.603 31.0358 132.716 32.0018 132.682 32.9684C132.663 33.9943 132.289 34.9752 131.636 35.7178C130.982 36.4605 130.096 36.9112 129.151 36.981L129.157 36.9997Z" fill="#9EA6B3"/>
<path fill-rule="evenodd" clip-rule="evenodd" d="M24.5174 21.5968C22.1731 22.3525 21.495 23.1813 21.4082 26.0578C21.3646 27.6301 21.265 32.2983 21.5327 33.6085C22.3348 37.3504 29.4494 37.4784 33.0189 36.4423C35.3076 35.772 35.7549 34.8213 35.7983 32.0484C35.8425 30.0008 35.7983 28.1664 35.8425 26.6246C35.8425 23.5774 35.1395 21.7065 31.7503 21.3348C29.6169 21.0849 26.4079 20.9935 24.5117 21.5968H24.5174ZM33.0502 32.6883V25.814C33.1059 23.8822 30.1703 24.132 28.6965 24.132C27.0796 24.132 24.2566 23.9675 24.2566 25.814V32.6883C24.2566 33.6512 25.5004 34.0108 26.9122 34.1083C28.2064 34.1522 29.5029 34.1156 30.7922 33.9986C32.1107 33.9011 32.9691 33.5415 33.0253 32.6762L33.0502 32.6883Z" fill="#9EA6B3"/>
<path fill-rule="evenodd" clip-rule="evenodd" d="M72.561 21.5968C70.2239 22.3525 69.5322 23.1813 69.4453 26.0578C69.4017 27.6301 69.3077 32.2983 69.5883 33.6085C70.3734 37.3504 77.5145 37.4784 81.0783 36.4423C83.3712 35.772 83.8265 34.8213 83.8826 32.0484C83.8826 30.0008 83.8826 28.1664 83.8826 26.6246C83.9133 23.5774 83.1782 21.7065 79.7889 21.3348C77.6577 21.0849 74.4487 20.9935 72.5361 21.5968H72.561ZM81.0975 32.6883V25.814C81.153 23.8822 78.2061 24.132 76.7352 24.132C75.1217 24.132 72.2867 23.9675 72.2867 25.814V32.6883C72.2867 33.6512 73.5325 34.0108 74.9658 34.1083C76.2564 34.1522 77.5494 34.1156 78.8352 33.9986C80.1629 33.9011 81.0163 33.5415 81.0783 32.6762L81.0975 32.6883Z" fill="#9EA6B3"/>
<path fill-rule="evenodd" clip-rule="evenodd" d="M105.943 21.5968C103.715 22.3525 103.078 23.1813 102.996 26.0578C102.961 27.6301 102.866 32.2983 103.12 33.6085C103.88 37.3504 110.616 37.4784 114 36.4423C116.174 35.772 116.598 34.8213 116.64 32.0484C116.676 30.0008 116.64 28.1664 116.676 26.6246C116.676 23.5774 116.008 21.7065 112.803 21.3348C110.776 21.0849 107.74 20.9935 105.943 21.5968ZM114.053 32.6883V25.814C114.105 23.8822 111.318 24.132 109.927 24.132C108.394 24.132 105.713 23.9675 105.713 25.814V32.6883C105.713 33.6512 106.891 34.0108 108.235 34.1083C109.46 34.1524 110.687 34.1158 111.907 33.9986C113.163 33.9011 113.975 33.5415 114.029 32.6762L114.053 32.6883Z" fill="#9EA6B3"/>
<path fill-rule="evenodd" clip-rule="evenodd" d="M88.7275 21.1893C92.0253 21.1893 95.5179 20.9905 97.548 21.4131C99.5789 21.8357 100.661 23.1408 100.661 25.7634C100.661 30.1137 99.3147 31.3567 96.3288 31.6799C96.2428 31.6863 96.1561 31.6863 96.0701 31.6799C94.2679 31.8353 91.9544 31.711 89.0224 31.711V35.5455C89.0224 35.9312 88.8743 36.301 88.6109 36.5738C88.3472 36.8465 87.9896 36.9997 87.6168 36.9997C87.2441 36.9997 86.8864 36.8465 86.623 36.5738C86.3587 36.301 86.2107 35.9312 86.2107 35.5455V33.0596C86.145 31.2324 86.175 29.0696 86.2107 27.255C86.2107 25.782 86.2529 24.2097 86.2107 22.7368C86.1607 22.3932 86.2447 22.0431 86.4441 21.7634C86.6434 21.4837 86.9423 21.2974 87.2742 21.2453C87.6919 21.1861 88.1145 21.1673 88.5356 21.1893L88.7275 21.1893ZM96.0825 24.1476H89.0169V28.7962H95.253C97.0558 28.7962 97.9931 28.6719 98.0771 26.5527C98.1611 24.4334 97.5427 24.1911 96.0762 24.1476H96.0825Z" fill="#9EA6B3"/>
</g>
<defs>
<clipPath id="clip0_10_17884">
<rect width="133" height="37" fill="white"/>
</clipPath>
</defs>
</svg>
