<svg width="28" height="28" viewBox="0 0 28 28" fill="none" xmlns="http://www.w3.org/2000/svg">
<path fill-rule="evenodd" clip-rule="evenodd" d="M6.31423 27.9836C5.00199 27.9836 3.68974 27.4915 2.67275 26.4909C0.671582 24.4897 0.671582 21.2255 2.67275 19.2244L13.8268 8.0703C14.4173 7.46339 15.2211 7.10252 16.0904 7.10252C16.9926 7.08612 17.8456 7.43058 18.4853 8.0703C19.0758 8.67721 19.4203 9.48096 19.4203 10.3667C19.4203 11.2525 19.0922 12.0726 18.4853 12.7124L15.3687 15.7797C15.2047 15.9274 14.975 15.9274 14.8274 15.7633C14.6798 15.6157 14.6798 15.3697 14.8274 15.222L17.944 12.1711C18.879 11.1869 18.879 9.54657 17.944 8.6116C17.4519 8.11951 16.7958 7.85706 16.1068 7.87346C15.4507 7.87346 14.8274 8.13591 14.3845 8.6116L3.23046 19.7657C1.52454 21.4716 1.52454 24.2437 3.23046 25.9496C4.93637 27.6555 7.70849 27.6555 9.41441 25.9496L24.2756 11.1377C26.654 8.77563 26.654 4.92091 24.2756 2.54247C23.1438 1.41066 21.6183 0.770943 19.9944 0.770943C19.978 0.770943 19.978 0.770943 19.9616 0.770943C18.3541 0.787346 16.8614 1.41066 15.746 2.54247L2.3939 15.8781C2.24627 16.0258 2.00023 16.0258 1.8526 15.8781C1.70497 15.7305 1.70497 15.4845 1.8526 15.3368L15.2047 2.00117C16.4513 0.721734 18.1408 0.016403 19.9452 0H19.9944C21.8151 0 23.521 0.721734 24.8169 2.00117C27.4906 4.67487 27.4906 9.00527 24.8169 11.679L9.9393 26.4909C8.93872 27.4915 7.62647 27.9836 6.31423 27.9836Z" fill="#9F694F"/>
</svg>
