<svg width="89" height="37" viewBox="0 0 89 37" fill="none" xmlns="http://www.w3.org/2000/svg">
<path d="M37.9771 18.5C37.9771 16.2249 37.5356 14.0542 36.7632 12.0397C36.5573 18.6663 29.6442 23.7986 25.5851 27.195H35.7462C37.1671 24.6008 37.9771 21.6436 37.9771 18.5ZM30.6313 3.90763C27.4155 1.46621 23.3819 0 18.9875 0C8.50109 0 0 8.28264 0 18.5C0 28.7174 8.50109 37 18.9875 37C23.7913 37 28.1647 35.2507 31.5067 32.3857H17.7591L17.7182 28.4511C26.0012 21.4358 31.0795 16.6911 31.0795 12.1083C31.0795 10.405 30.4133 8.25568 27.4177 8.25568C25.0451 8.25568 22.7555 9.59492 23.1705 15.1901H18.3434C17.135 8.70284 20.7569 3.55035 27.6667 3.55035C28.7357 3.55035 29.7283 3.67618 30.6313 3.90763Z" fill="#9EA6B3"/>
<path d="M55.5902 12.7872H60.082C60.2347 9.45815 59.0838 4.18432 51.675 4.18432C46.2238 4.18432 42.2676 7.3639 42.2676 13.9837C42.2676 14.8814 42.3063 19.5193 42.3063 22.4001C42.3063 29.5805 47.4134 31.1523 51.7126 31.1523C54.2855 31.1523 58.0082 30.5906 59.7367 28.7581V17.3127H51.291V21.4653H55.0535V26.5133C52.2117 27.4481 47.0294 27.8233 47.0294 21.4653V13.9837C47.0294 9.53343 49.1408 7.99869 51.4813 7.99869C53.9015 7.99869 55.5902 9.19637 55.5902 12.7872ZM88.9981 23.8966C89.1918 13.6478 77.1373 17.051 77.2524 11.3277C77.29 9.30873 78.6346 7.99869 80.8224 7.99869C83.1629 7.99869 84.5461 9.3458 84.5063 12.8624H88.9217C89.0379 9.68174 88.271 4.25847 80.9773 4.25847C76.4468 4.25847 72.7219 6.42912 72.6455 11.2536C72.453 21.09 84.5838 17.8745 84.3912 23.8202C84.3149 26.2515 82.5111 27.3357 80.476 27.3357C78.0967 27.3357 76.1768 25.9897 76.5607 21.9507H72.1066C71.6086 27.2986 74.0277 31.1153 80.4384 31.1153C85.8509 31.1153 88.9217 28.1963 88.9981 23.8966ZM68.7192 30.7771H64.1887V4.59553H68.7192V30.7771ZM68.7192 30.7771H64.1887V4.59553H68.7192V30.7771Z" fill="#9EA6B3"/>
</svg>
