<svg width="141" height="29" viewBox="0 0 141 29" fill="none" xmlns="http://www.w3.org/2000/svg">
<g clip-path="url(#clip0_10_17981)">
<path d="M8.25731 15.718L5.10244 25.3032L13.3598 19.3764L21.6127 25.3032L18.4644 15.718L26.7173 9.79767H16.5146L13.3598 0.216797L10.2049 9.79767H0L8.25731 15.718Z" fill="white"/>
<path d="M45.0849 9.79767L41.9301 0.216797L38.7752 9.79767H28.5703L36.8276 15.718L33.6727 25.3032L41.9301 19.3764L50.1874 25.3032L47.0325 15.718L55.292 9.79767H45.0849Z" fill="white"/>
<path d="M73.6552 9.79767L70.5004 0.216797L67.3455 9.79767H57.1406L65.3979 15.718L62.2431 25.3032L70.5004 19.3764L78.7577 25.3032L75.6028 15.718L83.8601 9.79767H73.6552Z" fill="white"/>
<path d="M102.226 9.79767L99.0709 0.216797L95.9161 9.79767H85.709L93.9685 15.718L90.8136 25.3032L99.0709 19.3764L107.328 25.3032L104.173 15.718L112.431 9.79767H102.226Z" fill="white"/>
<path d="M130.796 9.79767L127.641 0.216797L124.486 9.79767H114.283L122.536 15.718L119.381 25.3032L127.641 19.3764L135.898 25.3032L132.743 15.718L141 9.79767H130.796Z" fill="white"/>
</g>
<defs>
<clipPath id="clip0_10_17981">
<rect width="141" height="29" fill="white"/>
</clipPath>
</defs>
</svg>
