<svg width="209" height="117" viewBox="0 0 209 117" fill="none" xmlns="http://www.w3.org/2000/svg">
<g clip-path="url(#clip0_10_19067)" filter="url(#filter0_d_10_19067)">
<path fill-rule="evenodd" clip-rule="evenodd" d="M130.117 1.10476H78.8788V52.4842H130.117V1.10476ZM78.3301 -0.000128554H131.219V53.5848H77.7812V26.7902V-0.00439453H78.3301V-0.000128554Z" fill="white"/>
<path fill-rule="evenodd" clip-rule="evenodd" d="M198.116 71.8091L201.086 80.1662H194.394L197.819 70.9645L198.116 71.8091ZM201.277 80.8359L203.324 86.8382H205.008L198.984 70.1582L197.444 70.6104L190.965 86.8382H191.944L194.215 80.6994L201.205 80.6098L201.282 80.8359H201.277ZM179.602 79.0997C179.172 79.1296 178.704 79.1466 178.185 79.1466H177.147V71.0242L177.913 70.9474L178.309 70.9133C178.419 70.9047 178.551 70.9005 178.704 70.8962C178.879 70.8919 179.023 70.8877 179.155 70.8877C179.483 70.8877 179.793 70.9047 180.091 70.9389C180.389 70.973 180.674 71.0242 180.946 71.0967C181.214 71.1692 181.47 71.2588 181.704 71.374C181.938 71.4892 182.155 71.6257 182.346 71.7878C182.542 71.9499 182.716 72.1333 182.865 72.3424C183.018 72.5514 183.146 72.7818 183.248 73.0335C183.35 73.2852 183.427 73.5624 183.478 73.8653C183.529 74.1597 183.554 74.4796 183.554 74.8167C183.554 75.0683 183.55 75.3158 183.537 75.5547C183.524 75.7893 183.507 76.0026 183.478 76.1903C183.452 76.378 183.418 76.5572 183.38 76.7235C183.341 76.8942 183.295 77.052 183.248 77.1971V77.2056C183.193 77.3464 183.133 77.4829 183.069 77.5981C183.005 77.7175 182.933 77.8284 182.857 77.9223C182.78 78.0204 182.699 78.1057 182.614 78.1825C182.529 78.2593 182.44 78.3318 182.346 78.3915C182.155 78.5152 181.925 78.6219 181.653 78.7158C181.389 78.8096 181.087 78.8864 180.755 78.9504C180.415 79.0144 180.032 79.0613 179.602 79.0912V79.0997ZM177.475 79.6799H180.04C180.381 80.2984 180.763 80.9469 181.078 81.5697C181.376 82.1243 181.661 82.6405 181.925 83.1097C182.206 83.6131 182.448 84.0397 182.657 84.3895C182.865 84.7436 183.069 85.0593 183.261 85.3365C183.452 85.6096 183.639 85.8485 183.814 86.0447C183.984 86.2367 184.154 86.3945 184.324 86.5225C184.486 86.6419 184.652 86.7358 184.818 86.7998H184.822C184.992 86.868 185.179 86.9192 185.392 86.9534C185.605 86.9875 185.843 87.0045 186.102 87.0045C186.294 87.0045 186.477 86.996 186.656 86.9832C186.834 86.9704 187.013 86.9491 187.196 86.9235H187.2C187.375 86.8979 187.532 86.8723 187.677 86.8382L187.842 86.7955V86.6121C187.587 86.5993 187.34 86.5481 187.098 86.4628C186.813 86.3646 186.532 86.2153 186.264 86.0191C186.009 85.8314 185.754 85.6138 185.503 85.3621C185.256 85.1147 185.009 84.8374 184.762 84.526C184.52 84.2189 184.277 83.8819 184.035 83.5192C183.792 83.1609 183.558 82.7898 183.329 82.4016L183.18 82.1499C182.767 81.446 182.329 80.708 181.87 79.9102L181.678 79.5817L182.031 79.441C182.261 79.3514 182.482 79.249 182.695 79.1381C182.908 79.0272 183.12 78.8992 183.329 78.7584C183.529 78.6262 183.716 78.4811 183.89 78.3233C184.069 78.1612 184.231 77.982 184.384 77.7943C184.533 77.6023 184.665 77.3933 184.784 77.1715C184.903 76.9496 185.009 76.7107 185.098 76.4548C185.188 76.2031 185.252 75.9301 185.298 75.6357C185.345 75.3414 185.367 75.0257 185.367 74.6844C185.367 74.3431 185.341 74.0104 185.286 73.7075C185.235 73.4046 185.154 73.1231 185.047 72.8586C184.941 72.5941 184.809 72.3552 184.648 72.1333C184.486 71.9115 184.294 71.711 184.077 71.5276C183.861 71.3441 183.614 71.1863 183.337 71.0455C183.061 70.9047 182.746 70.7853 182.397 70.6872C182.048 70.5891 181.67 70.5123 181.257 70.4611C180.844 70.4099 180.402 70.3843 179.925 70.3843C179.483 70.3843 179.079 70.3843 178.713 70.3971C178.313 70.4056 177.9 70.4184 177.475 70.4355C177.071 70.4526 176.671 70.4696 176.279 70.4909C176.016 70.5037 175.752 70.5208 175.492 70.5421V86.8296H177.139V79.6713H177.466L177.475 79.6799ZM166.499 77.0478C166.554 77.5554 166.584 78.0844 166.584 78.6304C166.584 78.9461 166.58 79.2789 166.567 79.6287C166.554 79.9742 166.537 80.307 166.512 80.6269C166.486 80.9554 166.452 81.2711 166.41 81.5868C166.367 81.8896 166.32 82.1883 166.261 82.4741C166.205 82.7556 166.146 83.0201 166.074 83.2718C166.001 83.5278 165.92 83.7709 165.831 84.0013C165.737 84.2359 165.635 84.4364 165.521 84.6156C165.401 84.799 165.269 84.9526 165.125 85.0763C164.831 85.328 164.512 85.5413 164.176 85.7205C163.844 85.8954 163.491 86.0319 163.121 86.1258C162.389 86.3135 161.513 86.4073 160.479 86.4073C159.935 86.4073 159.428 86.3561 158.965 86.258C158.497 86.1599 158.076 86.0063 157.697 85.8058C157.318 85.601 156.982 85.3621 156.68 85.0891C156.378 84.8118 156.119 84.4962 155.893 84.1421C155.672 83.7965 155.48 83.4126 155.323 82.9945C155.166 82.585 155.038 82.1456 154.944 81.6763C154.762 80.7421 154.668 79.7311 154.668 78.639C154.668 78.3105 154.672 77.9649 154.685 77.6066C154.698 77.2568 154.715 76.924 154.736 76.6126C154.757 76.2841 154.787 75.9642 154.825 75.6656C154.859 75.3627 154.906 75.0726 154.957 74.7868C155.008 74.5052 155.072 74.2365 155.136 73.9933C155.204 73.7416 155.281 73.5113 155.37 73.298C155.463 73.0719 155.566 72.8756 155.68 72.7007C155.8 72.5216 155.931 72.368 156.072 72.2443C156.314 72.0352 156.599 71.8561 156.923 71.7025C157.242 71.5532 157.599 71.4295 157.995 71.3313C158.386 71.2332 158.79 71.1607 159.211 71.1138C159.628 71.0669 160.062 71.0413 160.505 71.0413C161.028 71.0413 161.517 71.0882 161.972 71.182C162.432 71.2759 162.857 71.4167 163.24 71.6086C163.627 71.7963 163.976 72.0224 164.295 72.2869C164.614 72.5514 164.899 72.8543 165.15 73.1956C165.397 73.5326 165.61 73.9037 165.793 74.309C165.971 74.7143 166.12 75.1451 166.235 75.6101C166.35 76.0708 166.435 76.5529 166.49 77.0606L166.499 77.0478ZM168.277 80.4989C168.362 79.9102 168.405 79.2874 168.405 78.6304C168.405 77.9735 168.362 77.3677 168.281 76.7875C168.201 76.2116 168.073 75.6613 167.907 75.1494C167.741 74.6417 167.537 74.1682 167.29 73.7374C167.048 73.3108 166.763 72.9183 166.439 72.5685C166.116 72.2144 165.75 71.903 165.346 71.63C164.938 71.3569 164.491 71.1266 163.997 70.9346C163.01 70.5549 161.858 70.363 160.526 70.363C159.85 70.363 159.224 70.4099 158.65 70.508C158.08 70.6019 157.552 70.7469 157.072 70.9346C156.595 71.1266 156.157 71.3569 155.766 71.63C155.374 71.903 155.025 72.2144 154.719 72.5642C154.408 72.914 154.14 73.3022 153.915 73.7288C153.685 74.1597 153.494 74.6332 153.345 75.1451C153.196 75.6613 153.081 76.2074 153.009 76.7875C152.936 77.3634 152.898 77.982 152.898 78.6347C152.898 79.2874 152.936 79.906 153.009 80.4904C153.081 81.0706 153.192 81.6252 153.341 82.1499C153.49 82.6703 153.672 83.1481 153.898 83.5875C154.119 84.0226 154.387 84.4279 154.693 84.7948C154.996 85.1574 155.34 85.4816 155.727 85.7589C156.114 86.0404 156.553 86.2793 157.033 86.4798C157.995 86.8808 159.156 87.0813 160.5 87.0813C161.168 87.0813 161.794 87.0301 162.377 86.932C162.955 86.8339 163.491 86.6889 163.985 86.4926C164.478 86.2964 164.925 86.0575 165.338 85.7802C165.746 85.5029 166.112 85.183 166.435 84.8204C166.758 84.462 167.044 84.0568 167.295 83.6174C167.541 83.1737 167.75 82.6916 167.92 82.1755C168.086 81.655 168.213 81.0962 168.294 80.5032L168.277 80.4989ZM139.676 79.0997C139.246 79.1296 138.778 79.1466 138.259 79.1466H137.221V71.0242L137.987 70.9474L138.383 70.9133C138.493 70.9047 138.625 70.9005 138.778 70.8962C138.953 70.8919 139.097 70.8877 139.229 70.8877C139.557 70.8877 139.867 70.9047 140.165 70.9389C140.463 70.973 140.748 71.0242 141.02 71.0967C141.288 71.1692 141.544 71.2588 141.778 71.374C142.012 71.4892 142.229 71.6257 142.42 71.7878C142.616 71.9499 142.79 72.1333 142.939 72.3424C143.092 72.5514 143.22 72.7818 143.322 73.0335C143.424 73.2852 143.501 73.5624 143.552 73.8653C143.603 74.1597 143.628 74.4796 143.628 74.8167C143.628 75.0683 143.624 75.3158 143.611 75.5547C143.598 75.7893 143.581 76.0026 143.552 76.1903C143.526 76.378 143.492 76.5572 143.454 76.7235C143.415 76.8942 143.369 77.052 143.322 77.1971V77.2056C143.267 77.3464 143.207 77.4829 143.143 77.5981C143.079 77.7175 143.007 77.8284 142.93 77.9223C142.854 78.0204 142.773 78.1057 142.688 78.1825C142.603 78.2593 142.514 78.3318 142.42 78.3915C142.229 78.5152 141.999 78.6219 141.727 78.7158C141.463 78.8096 141.161 78.8864 140.829 78.9504C140.489 79.0144 140.106 79.0613 139.676 79.0912V79.0997ZM137.549 79.6799H140.114C140.455 80.2984 140.837 80.9469 141.152 81.5697C141.454 82.1243 141.735 82.6405 141.999 83.1097C142.28 83.6131 142.522 84.0397 142.731 84.3895C142.939 84.7436 143.143 85.0593 143.335 85.3365C143.526 85.6096 143.713 85.8485 143.888 86.0447C144.058 86.2367 144.228 86.3945 144.398 86.5225C144.56 86.6419 144.726 86.7358 144.892 86.7998H144.896C145.066 86.868 145.253 86.9192 145.466 86.9534C145.679 86.9875 145.917 87.0045 146.176 87.0045C146.368 87.0045 146.551 86.996 146.73 86.9832C146.908 86.9704 147.087 86.9491 147.27 86.9235H147.274C147.448 86.8979 147.606 86.8723 147.751 86.8382L147.916 86.7955V86.6121C147.661 86.5993 147.414 86.5481 147.172 86.4628C146.887 86.3646 146.606 86.2153 146.338 86.0191C146.083 85.8314 145.828 85.6138 145.577 85.3621C145.33 85.1147 145.083 84.8374 144.836 84.526C144.594 84.2189 144.351 83.8819 144.109 83.5192C143.866 83.1609 143.632 82.7898 143.403 82.4016L143.254 82.1499C142.841 81.446 142.403 80.708 141.944 79.9102L141.752 79.5817L142.105 79.441C142.335 79.3514 142.556 79.249 142.769 79.1381C142.982 79.0272 143.194 78.8992 143.403 78.7584C143.603 78.6262 143.79 78.4811 143.964 78.3233C144.143 78.1612 144.305 77.982 144.458 77.7943C144.607 77.6023 144.739 77.3933 144.858 77.1715C144.977 76.9496 145.083 76.7107 145.172 76.4548C145.262 76.2031 145.326 75.9301 145.372 75.6357C145.419 75.3414 145.44 75.0257 145.44 74.6844C145.44 74.3431 145.415 74.0104 145.36 73.7075C145.309 73.4046 145.228 73.1231 145.121 72.8586C145.015 72.5941 144.883 72.3552 144.722 72.1333C144.56 71.9115 144.368 71.711 144.151 71.5276C143.934 71.3441 143.688 71.1863 143.411 71.0455C143.135 70.9047 142.82 70.7853 142.471 70.6872C142.122 70.5891 141.744 70.5123 141.331 70.4611C140.918 70.4099 140.476 70.3843 139.999 70.3843C139.557 70.3843 139.153 70.3843 138.787 70.3971C138.387 70.4056 137.974 70.4184 137.549 70.4355C137.145 70.4526 136.745 70.4696 136.353 70.4909C136.09 70.5037 135.826 70.5208 135.566 70.5421V86.8296H137.213V79.6713H137.54L137.549 79.6799Z" fill="white"/>
<path fill-rule="evenodd" clip-rule="evenodd" d="M102.898 71.8091L105.868 80.1662H99.1758L102.6 70.9645L102.898 71.8091ZM106.059 80.8359L108.105 86.8382H109.79L103.766 70.1582L102.226 70.6104L95.7469 86.8382H96.7254L98.9971 80.6994L105.987 80.6098L106.063 80.8359H106.059ZM77.492 86.8382H85.9196L85.9962 86.2964L79.1384 86.1599V78.4982L84.8731 78.3617L84.9411 77.918L79.1384 77.8498V71.1991L85.3751 71.1138L85.4517 70.5251H77.4877V86.8339L77.492 86.8382ZM64.8441 71.5233V86.8382H66.4905V71.2076L71.5786 71.0711L71.6552 70.5293H59.756L59.6795 71.1223L64.8441 71.2076V71.5276V71.5233ZM52.3026 70.5293V86.8382H53.949V70.5293H52.3026ZM43.0199 79.2959V86.8382H44.6663V70.5293H43.0199V78.3659H33.065V70.5293H31.4186V86.8382H33.065V78.9674H43.0199V79.2959ZM16.0012 77.8796C16.0565 78.046 16.1033 78.1825 16.1459 78.2977L19.1153 86.8424H20.8681L25.5307 70.5336H24.6416C23.7269 73.8525 22.8675 77.2696 21.8721 80.5544C21.8465 80.6482 21.8168 80.7549 21.787 80.8658C21.7104 81.3052 21.5019 81.975 21.3871 82.4272L21.302 82.7727C21.268 82.9092 21.2297 83.0415 21.1871 83.2334C20.9957 83.7368 20.8298 84.6241 20.6894 85.1744L20.4214 86.2068L20.0683 85.2C19.9534 84.8801 19.8428 84.5473 19.7279 84.2061C19.6258 83.9032 19.5237 83.5875 19.4174 83.2548L19.1451 82.44C19.0728 82.2395 19.009 82.039 18.9409 81.8427L18.8686 81.6251C18.8175 81.4673 18.7537 81.2839 18.6941 81.1132L18.6176 80.8914C18.575 80.7762 18.5367 80.6653 18.4984 80.5587L18.4049 80.2686L15.7204 72.6325H14.6952L12.1086 80.2686C12.0022 80.597 11.9001 80.9213 11.7895 81.2455L11.5938 81.8384C11.5257 82.0389 11.4577 82.2394 11.3854 82.4442L11.2577 82.8452C11.1556 83.1822 11.0493 83.5107 10.9429 83.8435C10.811 84.253 10.6792 84.6711 10.5175 85.1872L10.1686 86.3135L9.89212 85.1702C9.80704 84.8161 9.7262 84.4876 9.64537 84.1847C9.56454 83.8648 9.47946 83.5534 9.39437 83.242L9.17741 82.44C8.97746 81.7147 8.78602 80.9938 8.59458 80.2686L5.79954 70.5293H4L8.80304 86.8382H10.56L13.4146 78.383C13.4912 78.1654 13.5678 77.9308 13.6571 77.6535L13.7294 77.4274C13.823 77.1245 13.9166 76.8259 14.0102 76.5358L14.0783 76.3268C14.1293 76.1348 14.1932 75.9258 14.2655 75.6826C14.3335 75.4651 14.4016 75.2432 14.4739 75.0214L14.7887 74.0744L15.0908 75.0257L15.4992 76.2884C15.5588 76.4591 15.6183 76.6425 15.6821 76.8345L15.8566 77.3933C15.9034 77.5554 15.9544 77.7175 16.0055 77.8711L16.0012 77.8796Z" fill="white"/>
<path fill-rule="evenodd" clip-rule="evenodd" d="M69.7957 108.799C69.4086 108.799 69.2129 108.543 69.2129 108.036C69.2129 107.63 69.366 107.187 69.6681 106.713C70.0084 106.171 70.4636 105.659 71.038 105.186C71.7654 104.559 72.3653 104.269 72.8418 104.32C73.297 103.083 73.7905 101.944 74.3137 100.911C75.0582 99.4525 75.7346 98.5268 76.343 98.1386C76.6323 97.9509 76.9258 97.857 77.2321 97.857C77.7214 97.857 77.9681 98.113 77.9681 98.6206C77.9681 99.5207 77.4278 100.621 76.343 101.927C75.9729 102.4 75.5517 102.87 75.088 103.326C74.6243 103.782 74.118 104.252 73.5777 104.725C73.3735 105.25 73.2204 105.728 73.1098 106.15C72.9992 106.572 72.9354 106.956 72.9183 107.293C72.9864 107.972 73.297 108.313 73.8585 108.313C74.5179 108.313 75.339 107.797 76.3217 106.76C76.4068 106.658 76.4749 106.607 76.5259 106.607C76.577 106.607 76.6025 106.641 76.6025 106.709C76.6025 106.777 76.577 106.854 76.5259 106.939C75.3943 108.159 74.4031 108.774 73.5565 108.774C73.1523 108.774 72.8205 108.594 72.5652 108.24C72.293 107.865 72.1526 107.417 72.1356 106.892C71.7144 107.451 71.289 107.92 70.8678 108.292C70.4296 108.633 70.0722 108.799 69.8 108.799H69.7957ZM73.7819 104.218C74.6456 103.386 75.4071 102.486 76.0665 101.521C76.9131 100.301 77.3853 99.3416 77.4874 98.6462V98.5182C77.4874 98.3135 77.4193 98.2111 77.2832 98.2111C76.9428 98.2111 76.5982 98.5268 76.2409 99.1539C75.7857 99.9516 75.3518 100.775 74.9476 101.624C74.5435 102.473 74.1521 103.339 73.7819 104.218ZM70.3318 108.036C70.5189 108.036 70.7614 107.908 71.0677 107.656C71.625 107.182 71.9909 106.713 72.1568 106.257C72.4291 105.425 72.6035 104.96 72.6886 104.857C72.2334 104.823 71.7739 105.003 71.3187 105.391C70.8976 105.715 70.5572 106.146 70.302 106.688C70.1148 107.029 70.0212 107.332 70.0212 107.605C70.0212 107.895 70.1233 108.036 70.3275 108.036H70.3318ZM77.7171 109.004C78.4106 109.004 79.2061 108.765 80.1037 108.292C80.5249 108.07 80.8865 107.848 81.1843 107.618C81.4821 107.387 81.7204 107.165 81.9075 106.944C81.9756 106.875 82.0096 106.798 82.0096 106.713C82.0096 106.508 81.9075 106.525 81.7033 106.764C81.5161 106.952 81.2907 107.144 81.0184 107.349C80.7461 107.554 80.4441 107.746 80.1037 107.933C79.3082 108.373 78.6488 108.594 78.1255 108.594C77.4661 108.594 77.1343 108.236 77.1343 107.524C77.1343 107.438 77.1343 107.349 77.147 107.255C77.1556 107.161 77.1683 107.054 77.1853 106.935C78.1 106.713 78.8105 106.299 79.3167 105.689C79.589 105.348 79.7209 105.011 79.7209 104.67C79.7209 104.145 79.4571 103.881 78.9338 103.881C78.5467 103.881 78.1128 104.102 77.6405 104.542C77.2534 104.913 76.9216 105.386 76.6493 105.954C76.377 106.521 76.2452 106.995 76.2452 107.366C76.2452 108.454 76.7344 108.995 77.7171 108.995V109.004ZM77.2874 106.662C78.117 106.389 78.6828 105.984 78.9891 105.442C79.1933 105.101 79.2954 104.815 79.2954 104.576C79.2954 104.388 79.2359 104.294 79.1168 104.294C78.9806 104.294 78.7934 104.418 78.5595 104.666C78.3212 104.913 78.0915 105.212 77.8618 105.57C77.632 105.928 77.4448 106.291 77.2917 106.662H77.2874ZM81.4736 108.799C81.3545 108.799 81.2524 108.748 81.1673 108.646C81.0822 108.543 81.0482 108.458 81.0652 108.39L81.8267 106.632C82.2649 105.595 82.4861 104.968 82.4861 104.751C82.5372 104.683 82.7073 104.58 82.9924 104.444C83.0604 104.41 83.12 104.384 83.1711 104.367C83.2221 104.35 83.2732 104.341 83.3242 104.341C83.4433 104.341 83.5029 104.418 83.5029 104.572C83.3838 104.913 83.2093 105.348 82.9839 105.881C82.7541 106.415 82.4648 107.054 82.1075 107.801L84.8217 104.875C85.0599 104.619 85.2344 104.495 85.3535 104.495C85.4386 104.495 85.4811 104.546 85.4811 104.648C85.4811 104.683 85.4811 104.721 85.4683 104.764C85.4598 104.806 85.4471 104.853 85.4301 104.904C85.0727 106.142 84.8983 106.99 84.8983 107.451C84.8983 108.027 85.094 108.317 85.4811 108.317C85.8385 108.317 86.2596 108.121 86.7489 107.733C86.8339 107.664 86.9658 107.545 87.1403 107.374C87.3189 107.204 87.5316 106.986 87.7869 106.713C87.855 106.645 87.923 106.611 87.9911 106.611C88.0421 106.611 88.0677 106.645 88.0677 106.713C88.0847 106.747 88.0677 106.807 88.0166 106.892C86.9488 108.078 86.0044 108.676 85.1748 108.676C84.4303 108.676 84.0602 108.091 84.0602 106.918C84.0602 106.781 84.0602 106.645 84.0729 106.513C84.0815 106.376 84.0942 106.231 84.1112 106.082L82.92 107.225C82.7839 107.345 82.652 107.473 82.5287 107.605C82.401 107.741 82.2862 107.878 82.1841 108.01L81.6778 108.646C81.6268 108.748 81.5587 108.799 81.4736 108.799ZM89.2631 108.774C90.1267 108.791 91.1477 108.172 92.3347 106.918C92.3857 106.867 92.4113 106.798 92.4113 106.713C92.4113 106.645 92.3772 106.611 92.3092 106.611C92.2411 106.611 92.1645 106.662 92.0794 106.764C91.8071 107.054 91.5476 107.302 91.2924 107.515C91.0371 107.728 90.7946 107.899 90.5564 108.036C90.2161 108.223 89.9055 108.317 89.6162 108.317C89.0249 108.317 88.7271 107.967 88.7271 107.272C88.7271 106.662 88.9908 105.864 89.5141 104.879H91.2413C91.6455 104.879 91.8837 104.87 91.9518 104.853C92.3219 104.802 92.5091 104.7 92.5091 104.546C92.5091 104.461 92.4325 104.392 92.2794 104.341H89.7906C90.2458 103.646 90.6457 103.044 90.9818 102.533C91.3179 102.021 91.5987 101.615 91.8199 101.312C91.8539 101.278 91.871 101.244 91.871 101.21C91.871 101.056 91.7178 100.98 91.4158 100.98C91.0754 100.98 90.7904 101.082 90.5522 101.287C90.365 101.577 90.1905 101.846 90.0331 102.102C89.8715 102.358 89.7311 102.584 89.6162 102.788C89.395 103.164 89.2206 103.48 89.0844 103.744C88.9483 104.009 88.8462 104.205 88.7781 104.341H88.3229L87.8677 104.367C87.6295 104.367 87.5104 104.427 87.5104 104.546V104.597C87.5104 104.785 87.6465 104.896 87.9145 104.93C87.8805 104.913 87.9145 104.904 88.0166 104.904C88.1187 104.904 88.2804 104.896 88.4974 104.879C88.14 105.711 87.9656 106.449 87.9656 107.093C87.9656 107.195 87.9656 107.298 87.9783 107.4C87.9868 107.502 87.9996 107.613 88.0166 107.733C88.1698 108.411 88.5824 108.761 89.2589 108.778L89.2631 108.774ZM92.2836 108.799C91.8965 108.799 91.7008 108.543 91.7008 108.036C91.7008 107.63 91.854 107.187 92.156 106.713C92.8665 105.642 93.6365 104.921 94.466 104.55C94.8234 104.38 95.168 104.294 95.5083 104.294C95.6785 104.294 95.8614 104.341 96.0656 104.435C96.2698 104.529 96.372 104.661 96.372 104.828C96.372 104.913 96.3124 104.964 96.1933 104.981C96.1252 104.998 96.0784 105.015 96.0529 105.032C96.0274 105.049 96.0061 105.067 95.9891 105.084C95.6019 105.813 95.4062 106.491 95.4062 107.118C95.4062 107.916 95.7211 108.313 96.3464 108.313C97.0058 108.313 97.8269 107.797 98.8096 106.76C98.8947 106.658 98.9628 106.607 99.0138 106.607C99.0649 106.607 99.0904 106.641 99.0904 106.709C99.0904 106.777 99.0649 106.854 99.0138 106.939C97.8822 108.159 96.891 108.774 96.0444 108.774C95.6402 108.774 95.3084 108.594 95.0531 108.24C94.7809 107.865 94.6405 107.417 94.6235 106.892C94.2023 107.451 93.7769 107.92 93.3557 108.292C92.9175 108.633 92.5602 108.799 92.2879 108.799H92.2836ZM92.8154 108.036C92.6112 108.036 92.5091 107.891 92.5091 107.605C92.5091 107.332 92.6027 107.029 92.7899 106.688C93.4153 105.45 94.1683 104.84 95.0489 104.853C94.9638 105.041 94.883 105.246 94.8064 105.476C94.7298 105.706 94.6745 105.962 94.6405 106.252C94.5554 106.491 94.4193 106.722 94.2363 106.952C94.0491 107.182 93.8237 107.413 93.5514 107.652C93.2451 107.908 93.0026 108.031 92.8154 108.031V108.036ZM100.048 108.774C100.911 108.808 101.932 108.189 103.119 106.918C103.187 106.85 103.221 106.781 103.221 106.713C103.221 106.645 103.187 106.602 103.119 106.585C103.051 106.585 102.966 106.645 102.864 106.764C102.592 107.054 102.332 107.302 102.077 107.515C101.822 107.728 101.579 107.899 101.341 108.036C100.92 108.292 100.562 108.415 100.273 108.415C99.8349 108.415 99.6137 108.074 99.6137 107.396C99.6137 106.513 99.8604 105.621 100.35 104.725C102.702 102.707 104.115 100.941 104.587 99.4312C104.689 99.1411 104.74 98.8808 104.74 98.6419C104.74 98.1002 104.51 97.8271 104.055 97.8271C103.226 97.8271 102.23 98.915 101.06 101.086C100.605 101.918 100.222 102.686 99.92 103.39C99.6137 104.094 99.3797 104.734 99.2095 105.31C99.0904 105.749 99.0011 106.142 98.9415 106.479C98.882 106.82 98.8522 107.106 98.8522 107.345C98.8522 108.262 99.2478 108.735 100.043 108.769L100.048 108.774ZM100.554 104.218C100.911 103.335 101.29 102.469 101.694 101.624C102.098 100.779 102.541 99.9516 103.013 99.1539C103.37 98.5268 103.689 98.2111 103.979 98.2111C104.166 98.2111 104.259 98.3476 104.259 98.6164C104.259 98.8211 104.2 99.0728 104.081 99.38C103.944 99.7511 103.745 100.152 103.485 100.574C103.221 100.997 102.906 101.457 102.532 101.948C102.209 102.37 101.885 102.771 101.554 103.143C101.222 103.518 100.89 103.872 100.55 104.213L100.554 104.218ZM112.202 108.953C111.27 108.953 110.807 108.445 110.807 107.426C110.807 106.764 111.138 106.043 111.798 105.263C112.508 104.414 113.193 103.991 113.853 103.991C114.393 103.991 114.665 104.239 114.665 104.729C114.665 104.9 114.606 105.109 114.486 105.365C114.418 105.485 114.359 105.583 114.308 105.659C114.257 105.736 114.214 105.809 114.18 105.877C114.129 105.928 114.087 105.954 114.053 105.954C113.95 105.954 113.933 105.869 114.002 105.698C114.121 105.51 114.18 105.34 114.18 105.19C114.18 104.985 114.061 104.883 113.823 104.883C113.517 104.883 113.197 105.011 112.857 105.263C112.436 105.587 112.096 105.971 111.84 106.419C111.585 106.867 111.462 107.281 111.462 107.652C111.462 108.262 111.785 108.569 112.427 108.569C112.734 108.569 113.138 108.475 113.644 108.287C114.304 107.997 114.988 107.49 115.699 106.76C115.818 106.641 115.903 106.581 115.954 106.581C116.005 106.598 116.031 106.641 116.031 106.709C116.031 106.76 116.005 106.828 115.954 106.914C114.686 108.27 113.431 108.949 112.198 108.949L112.202 108.953ZM116.971 108.774C117.835 108.808 118.856 108.189 120.043 106.918C120.111 106.85 120.145 106.781 120.145 106.713C120.145 106.645 120.111 106.602 120.043 106.585C119.974 106.585 119.889 106.645 119.787 106.764C119.515 107.054 119.256 107.302 119 107.515C118.745 107.728 118.502 107.899 118.264 108.036C117.843 108.292 117.486 108.415 117.196 108.415C116.758 108.415 116.537 108.074 116.537 107.396C116.537 106.513 116.784 105.621 117.273 104.725C119.626 102.707 121.038 100.941 121.51 99.4312C121.612 99.1411 121.663 98.8808 121.663 98.6419C121.663 98.1002 121.434 97.8271 120.978 97.8271C120.149 97.8271 119.153 98.915 117.983 101.086C117.528 101.918 117.145 102.686 116.843 103.39C116.537 104.094 116.303 104.734 116.133 105.31C116.014 105.749 115.924 106.142 115.865 106.479C115.805 106.816 115.776 107.106 115.776 107.345C115.776 108.262 116.171 108.735 116.967 108.769L116.971 108.774ZM117.477 104.218C117.835 103.335 118.213 102.469 118.617 101.624C119.022 100.779 119.464 99.9516 119.936 99.1539C120.294 98.5268 120.613 98.2111 120.902 98.2111C121.089 98.2111 121.183 98.3476 121.183 98.6164C121.183 98.8211 121.123 99.0728 121.004 99.38C120.868 99.7511 120.668 100.152 120.408 100.574C120.145 100.997 119.83 101.457 119.455 101.948C119.132 102.37 118.809 102.771 118.477 103.143C118.145 103.518 117.813 103.872 117.473 104.213L117.477 104.218ZM123.008 102.409C122.855 102.409 122.714 102.345 122.591 102.217C122.463 102.089 122.399 101.948 122.399 101.799C122.399 101.594 122.493 101.423 122.68 101.291C122.816 101.172 122.969 101.112 123.135 101.112C123.523 101.112 123.718 101.283 123.718 101.62C123.718 102.144 123.48 102.409 123.008 102.409ZM121.306 108.769C120.323 108.752 119.885 108.074 119.987 106.735C120.004 106.159 120.319 105.421 120.927 104.52C121.03 104.333 121.251 104.239 121.587 104.239C121.842 104.239 121.965 104.316 121.965 104.469L121.94 104.597L121.306 105.694C121.051 106.167 120.919 106.534 120.902 106.79C120.885 106.875 120.872 106.965 120.864 107.059C120.855 107.153 120.851 107.242 120.851 107.327C120.851 108.023 121.098 108.373 121.587 108.373C122.263 108.373 123.11 107.839 124.127 106.769C124.229 106.649 124.314 106.589 124.382 106.589C124.433 106.607 124.458 106.649 124.458 106.717C124.458 106.769 124.433 106.837 124.382 106.922C123.199 108.193 122.174 108.812 121.31 108.778L121.306 108.769ZM123.944 108.795C124.029 108.795 124.097 108.744 124.148 108.641L124.654 108.006C124.756 107.869 124.871 107.733 124.999 107.6C125.126 107.464 125.258 107.336 125.39 107.221L126.581 106.078C126.564 106.231 126.552 106.376 126.543 106.508C126.534 106.645 126.53 106.781 126.53 106.914C126.53 108.083 126.9 108.671 127.645 108.671C128.474 108.671 129.423 108.078 130.487 106.888C130.538 106.803 130.555 106.743 130.538 106.709C130.538 106.641 130.512 106.607 130.461 106.607C130.393 106.607 130.325 106.641 130.257 106.709C130.002 106.982 129.789 107.2 129.61 107.37C129.432 107.541 129.3 107.66 129.219 107.728C128.73 108.117 128.304 108.313 127.951 108.313C127.564 108.313 127.368 108.023 127.368 107.447C127.368 106.99 127.547 106.142 127.9 104.9C127.917 104.849 127.93 104.802 127.938 104.759C127.947 104.717 127.951 104.678 127.951 104.644C127.951 104.542 127.909 104.491 127.824 104.491C127.704 104.491 127.526 104.619 127.292 104.87L124.578 107.797C124.935 107.05 125.224 106.41 125.454 105.877C125.684 105.344 125.854 104.904 125.973 104.567C125.973 104.414 125.913 104.337 125.794 104.337C125.743 104.337 125.692 104.346 125.641 104.363C125.59 104.38 125.531 104.405 125.462 104.439C125.173 104.576 125.007 104.678 124.956 104.747C124.956 104.968 124.735 105.595 124.297 106.628L123.535 108.385C123.518 108.454 123.552 108.539 123.637 108.641C123.722 108.744 123.825 108.795 123.944 108.795ZM133.435 102.409C133.282 102.409 133.141 102.345 133.018 102.217C132.89 102.089 132.827 101.948 132.827 101.799C132.827 101.594 132.92 101.423 133.107 101.291C133.243 101.172 133.397 101.112 133.562 101.112C133.95 101.112 134.145 101.283 134.145 101.62C134.145 102.144 133.907 102.409 133.435 102.409ZM131.733 108.769C130.75 108.752 130.312 108.074 130.414 106.735C130.431 106.159 130.746 105.421 131.355 104.52C131.457 104.333 131.678 104.239 132.014 104.239C132.269 104.239 132.393 104.316 132.393 104.469L132.367 104.597L131.733 105.694C131.478 106.167 131.346 106.534 131.329 106.79C131.312 106.875 131.299 106.965 131.291 107.059C131.282 107.153 131.278 107.242 131.278 107.327C131.278 108.023 131.525 108.373 132.014 108.373C132.69 108.373 133.537 107.839 134.554 106.769C134.656 106.649 134.741 106.589 134.809 106.589C134.86 106.607 134.886 106.649 134.886 106.717C134.886 106.769 134.86 106.837 134.809 106.922C133.626 108.193 132.601 108.812 131.737 108.778L131.733 108.769ZM135.945 108.949C137.179 108.949 138.434 108.27 139.701 106.914C139.752 106.828 139.778 106.76 139.778 106.709C139.778 106.641 139.752 106.598 139.701 106.581C139.65 106.581 139.565 106.641 139.446 106.76C138.736 107.49 138.051 107.997 137.391 108.287C136.885 108.475 136.477 108.569 136.175 108.569C135.532 108.569 135.209 108.262 135.209 107.652C135.209 107.276 135.337 106.867 135.588 106.419C135.843 105.971 136.179 105.583 136.604 105.263C136.945 105.007 137.264 104.883 137.57 104.883C137.808 104.883 137.927 104.985 137.927 105.19C137.927 105.344 137.868 105.514 137.749 105.698C137.681 105.869 137.698 105.954 137.8 105.954C137.834 105.954 137.876 105.928 137.927 105.877C137.961 105.809 138.004 105.736 138.055 105.659C138.106 105.583 138.166 105.485 138.234 105.365C138.353 105.109 138.412 104.9 138.412 104.729C138.412 104.239 138.14 103.991 137.6 103.991C136.94 103.991 136.255 104.414 135.545 105.263C134.886 106.043 134.554 106.764 134.554 107.426C134.554 108.445 135.017 108.953 135.949 108.953L135.945 108.949Z" fill="white"/>
<path fill-rule="evenodd" clip-rule="evenodd" d="M127.884 82.3759C127.952 81.9962 127.99 81.6037 127.99 81.1942H126.442V81.6805C126.442 82.0602 126.425 82.4228 126.387 82.7684C126.348 83.1182 126.293 83.4424 126.216 83.741C126.14 84.0524 126.038 84.3297 125.919 84.5771C125.795 84.8288 125.646 85.0464 125.48 85.2256H125.476C125.28 85.4346 125.042 85.6095 124.766 85.7545C124.498 85.8996 124.187 86.0148 123.838 86.1086C123.494 86.1982 123.128 86.2665 122.745 86.3091C122.358 86.3518 121.949 86.3774 121.524 86.3774C121.179 86.3774 120.848 86.3603 120.533 86.3262C120.214 86.292 119.916 86.2366 119.644 86.1683C119.359 86.0915 119.099 85.9934 118.861 85.8654C118.623 85.7375 118.406 85.5839 118.206 85.3962C118.014 85.217 117.844 85.0037 117.695 84.7606C117.546 84.5217 117.423 84.2486 117.325 83.9543C117.231 83.6557 117.159 83.3229 117.108 82.9475C117.061 82.5764 117.036 82.1754 117.036 81.7445V81.1899H115.453V81.4246C115.453 81.9621 115.487 82.4569 115.559 82.9006C115.628 83.3443 115.734 83.7453 115.87 84.1036C116.006 84.4619 116.168 84.7819 116.359 85.0677C116.551 85.3535 116.776 85.6052 117.027 85.8228C117.282 86.0404 117.559 86.2281 117.865 86.3859C118.172 86.548 118.503 86.676 118.861 86.7741C119.222 86.8722 119.61 86.949 120.026 87.0002C120.439 87.0514 120.877 87.077 121.337 87.077C121.894 87.077 122.417 87.0386 122.902 86.9575C123.379 86.8808 123.83 86.7613 124.242 86.5992C124.659 86.4371 125.042 86.2537 125.391 86.0404C125.736 85.8313 126.046 85.5924 126.323 85.3279C126.599 85.0634 126.842 84.7734 127.05 84.4662C127.259 84.1548 127.433 83.822 127.573 83.4722C127.714 83.1182 127.82 82.7513 127.888 82.3716L127.884 82.3759Z" fill="white"/>
<path fill-rule="evenodd" clip-rule="evenodd" d="M114.091 33.9142C114.202 33.3255 114.253 32.7112 114.253 32.0756H111.849V32.8349C111.849 33.4279 111.82 33.991 111.76 34.5285C111.7 35.0703 111.615 35.5737 111.501 36.0429C111.377 36.525 111.224 36.9558 111.037 37.3398C110.845 37.7322 110.616 38.0693 110.356 38.3508L110.348 38.3593C110.041 38.675 109.675 38.948 109.242 39.1741C108.82 39.396 108.34 39.5794 107.799 39.7245C107.263 39.861 106.698 39.9676 106.098 40.0359C105.494 40.1041 104.864 40.1383 104.2 40.1383C103.66 40.1383 103.145 40.1084 102.656 40.0572C102.158 40.0017 101.695 39.9207 101.269 39.814C100.827 39.6946 100.423 39.541 100.052 39.3448C99.6823 39.1485 99.3419 38.9054 99.0356 38.6196C98.7378 38.3423 98.4698 38.0095 98.2401 37.6299C98.0104 37.2545 97.8189 36.8364 97.6615 36.3714C97.5126 35.9064 97.402 35.386 97.3254 34.8058C97.2531 34.2299 97.2148 33.607 97.2148 32.933V32.0713H94.7559V32.4339C94.7559 33.2743 94.8112 34.0379 94.9175 34.729C95.0239 35.4158 95.1855 36.0429 95.4025 36.6018C95.611 37.1606 95.8662 37.6597 96.1683 38.0991C96.4661 38.5428 96.8149 38.9352 97.2063 39.2723C97.6019 39.6093 98.0359 39.9036 98.5081 40.1511C98.9888 40.4027 99.5036 40.6032 100.052 40.7526C100.614 40.9061 101.218 41.0256 101.865 41.1066C102.507 41.1877 103.184 41.2261 103.902 41.2261C104.775 41.2261 105.587 41.1664 106.34 41.0384C107.085 40.9147 107.778 40.7312 108.425 40.4838C109.076 40.2321 109.671 39.942 110.212 39.6135C110.748 39.2851 111.228 38.9182 111.658 38.5086C112.092 38.0948 112.466 37.6469 112.794 37.1649C113.121 36.6785 113.389 36.1666 113.606 35.6206C113.823 35.0703 113.989 34.4986 114.1 33.9099L114.091 33.9142Z" fill="white"/>
</g>
<defs>
<filter id="filter0_d_10_19067" x="0" y="0" width="209" height="117" filterUnits="userSpaceOnUse" color-interpolation-filters="sRGB">
<feFlood flood-opacity="0" result="BackgroundImageFix"/>
<feColorMatrix in="SourceAlpha" type="matrix" values="0 0 0 0 0 0 0 0 0 0 0 0 0 0 0 0 0 0 127 0" result="hardAlpha"/>
<feOffset dy="4"/>
<feGaussianBlur stdDeviation="2"/>
<feComposite in2="hardAlpha" operator="out"/>
<feColorMatrix type="matrix" values="0 0 0 0 0 0 0 0 0 0 0 0 0 0 0 0 0 0 0.25 0"/>
<feBlend mode="normal" in2="BackgroundImageFix" result="effect1_dropShadow_10_19067"/>
<feBlend mode="normal" in="SourceGraphic" in2="effect1_dropShadow_10_19067" result="shape"/>
</filter>
<clipPath id="clip0_10_19067">
<rect width="201" height="109" fill="white" transform="translate(4)"/>
</clipPath>
</defs>
</svg>
