<svg width="48" height="47" viewBox="0 0 48 47" fill="none" xmlns="http://www.w3.org/2000/svg">
<g clip-path="url(#clip0_10_15832)">
<path fill-rule="evenodd" clip-rule="evenodd" d="M46.8239 0.972051H0.982001V46.204H46.8239V0.972051ZM0.491003 -0.00063897H47.8097V47.173H0V23.5843V-0.00439453H0.491003V-0.00063897Z" fill="white"/>
<path fill-rule="evenodd" clip-rule="evenodd" d="M32.4867 29.8563C32.5857 29.338 32.6313 28.7972 32.6313 28.2376H30.4808V28.9061C30.4808 29.4282 30.4542 29.9239 30.4009 30.3971C30.3476 30.874 30.2715 31.3172 30.1687 31.7303C30.0583 32.1547 29.9213 32.534 29.7538 32.872C29.5826 33.2175 29.377 33.5142 29.1448 33.7621L29.1372 33.7696C28.8632 34.0475 28.5359 34.2879 28.1476 34.4869C27.7708 34.6822 27.3407 34.8437 26.8573 34.9714C26.3777 35.0915 25.8715 35.1854 25.3348 35.2455C24.7944 35.3056 24.231 35.3356 23.6373 35.3356C23.1539 35.3356 22.6933 35.3094 22.2556 35.2643C21.8103 35.2155 21.3954 35.1441 21.0148 35.0502C20.619 34.9451 20.2574 34.8099 19.9262 34.6371C19.5951 34.4644 19.2906 34.2503 19.0165 33.9987C18.7501 33.7546 18.5103 33.4616 18.3048 33.1274C18.0992 32.7969 17.928 32.4288 17.7871 32.0195C17.6539 31.6101 17.555 31.152 17.4864 30.6412C17.4217 30.1342 17.3875 29.5859 17.3875 28.9925V28.2339H15.1875V28.5531C15.1875 29.293 15.237 29.9652 15.3321 30.5736C15.4273 31.1782 15.5719 31.7303 15.766 32.2223C15.9525 32.7143 16.1809 33.1537 16.4512 33.5405C16.7176 33.9311 17.0297 34.2766 17.3799 34.5733C17.7338 34.87 18.1221 35.1291 18.5446 35.3469C18.9747 35.5685 19.4352 35.745 19.9262 35.8765C20.4286 36.0117 20.9691 36.1168 21.5477 36.1882C22.1224 36.2595 22.7276 36.2933 23.3708 36.2933C24.1511 36.2933 24.8781 36.2407 25.5518 36.1281C26.2179 36.0192 26.8383 35.8577 27.4168 35.6399C27.9992 35.4183 28.5321 35.1629 29.0154 34.8737C29.495 34.5845 29.9251 34.2616 30.3095 33.901C30.6978 33.5367 31.0327 33.1424 31.3258 32.718C31.6189 32.2899 31.8587 31.8392 32.0528 31.3585C32.2469 30.874 32.3953 30.3708 32.4943 29.8525L32.4867 29.8563Z" fill="white"/>
</g>
<defs>
<clipPath id="clip0_10_15832">
<rect width="48" height="47" fill="white"/>
</clipPath>
</defs>
</svg>
