<svg width="767" height="107" viewBox="0 0 767 107" fill="none" xmlns="http://www.w3.org/2000/svg">
<path d="M1.05288 21.604H13.1489V22.78C13.1489 24.04 13.4009 25.216 13.7369 26.392L31.1249 73.18C31.2089 73.432 31.6289 75.028 31.6289 76.204H32.4689C32.4689 75.952 32.4689 74.944 33.0569 73.18L45.0689 33.196L43.3889 27.568C42.2129 23.62 41.4569 22.36 38.4329 22.36H36.5009V21.604H55.3169V22.36H47.3369V22.528C48.5129 22.948 49.5209 24.88 49.9409 26.392L63.9689 73.18C64.3049 74.692 64.4729 75.616 64.4729 76.204H65.6489C65.6489 75.532 65.8169 74.524 66.4049 72.928L82.9529 27.484C83.2889 26.56 83.4569 25.72 83.4569 25.048C83.4569 23.284 82.1969 22.36 79.3409 22.36H76.1489V21.604H90.4289V22.36H89.1689C86.4809 22.36 85.7249 24.292 84.5489 27.568L64.6409 82.336L59.9369 82.756L45.8249 35.884L31.8809 82.42L27.1769 82.756L7.18488 27.568C5.92488 23.452 5.33688 22.36 2.31288 22.36H1.05288V21.604ZM92.6175 82V81.244H95.5575C99.5895 81.244 100.009 80.068 100.009 76.036V27.568C100.009 23.536 99.5895 22.36 95.5575 22.36H92.6175V21.604H113.281V22.36H111.097C107.065 22.36 106.561 23.536 106.561 27.568V49.492H129.577V27.568C129.577 23.536 129.073 22.36 125.041 22.36H122.857V21.604H143.605V22.36H140.581C136.549 22.36 136.129 23.536 136.129 27.568V76.036C136.129 80.068 136.549 81.244 140.581 81.244H143.605V82H122.857V81.244H125.125C129.157 81.244 129.577 80.068 129.577 76.036V51.004H106.561V76.036C106.561 80.068 107.065 81.244 111.097 81.244H113.281V82H92.6175ZM146.512 82V81.244H149.452C153.484 81.244 153.904 80.908 153.904 76.876V26.728C153.904 22.696 153.484 22.36 149.452 22.36H146.512V21.604H167.932V22.528H164.992C160.96 22.528 160.456 22.864 160.456 26.896V76.876C160.456 80.908 160.96 81.244 164.992 81.244H167.932V82H146.512ZM177.931 82V81.244H184.315C188.347 81.244 188.767 80.824 188.767 76.792V23.116H183.727C175.663 23.116 172.807 24.712 172.387 32.776L172.051 36.304L170.623 36.136L171.883 16.648L172.723 16.732L172.387 21.604H211.531L211.111 16.816L212.035 16.732L213.295 36.136L211.783 36.304L211.531 32.776C210.943 24.712 208.255 23.116 200.191 23.116H195.319V76.792C195.319 80.824 195.739 81.244 199.771 81.244H205.987V82H177.931ZM243.207 64.696H242.451V60.076C242.451 52.012 238.083 51.088 233.379 51.088H230.019V76.036C230.019 77.884 229.179 79.396 228.171 80.404V80.488H244.887C252.951 80.488 256.815 77.212 257.403 69.148L257.907 62.428H259.251L257.823 85.192H257.067L257.319 81.244H257.235C256.647 81.832 255.471 82 254.127 82H216.075V81.244H219.015C223.047 81.244 223.467 80.824 223.467 76.792V26.812C223.467 22.78 223.047 22.36 219.015 22.36H216.075V21.604H249.591C250.935 21.604 252.111 21.772 252.699 22.36H252.783L252.531 18.496L253.287 18.412L254.799 41.176H253.287L252.951 35.296C252.447 26.224 248.079 23.116 240.015 23.116H228.171V23.2C229.179 24.208 230.019 25.72 230.019 27.568V49.576H233.379C238.083 49.576 242.451 48.736 242.451 40.672V37.732H243.207V64.696ZM283.895 82V81.244H285.239C287.339 81.244 288.599 78.892 289.859 76.036L313.379 21.604H319.931V22.612C319.931 24.292 320.267 26.476 320.687 27.484L340.511 76.036C342.191 80.068 342.695 81.244 345.467 81.244H346.139V82H330.095V81.244H336.563V81.076C335.471 80.656 334.547 78.556 333.959 77.128L329.255 65.62H295.991L291.455 76.036C291.119 76.792 290.951 77.38 290.951 77.968C290.951 79.984 292.547 81.244 295.067 81.244H299.183V82H283.895ZM296.579 64.108H328.583L314.387 29.08C313.799 27.736 313.715 26.644 313.715 25.72H312.959C312.959 26.224 312.707 27.316 311.951 29.08L296.579 64.108ZM491.936 71.752C476.732 71.752 466.652 61.588 466.652 46.3C466.652 31.096 476.732 20.932 491.936 20.932C506.972 20.932 517.052 31.096 517.052 46.3C517.052 61.588 506.972 71.752 491.936 71.752ZM492.188 70.24C503.528 70.24 509.744 62.428 509.744 47.896C509.744 31.432 503.36 22.444 491.6 22.444C480.092 22.444 473.96 30.34 473.96 44.788C473.96 61.336 480.26 70.24 492.188 70.24ZM415.328 82V81.244H418.268C422.3 81.244 422.72 80.824 422.72 76.792V26.812C422.72 22.78 422.3 22.36 418.268 22.36H415.328V21.604H437.252C450.692 21.604 459.596 29.08 459.596 40.252C459.596 50.5 451.868 57.472 441.788 58.396L440.108 58.48V58.984C443.636 59.404 446.324 61.672 449.18 64.78C462.2 79.144 476.06 83.512 486.896 83.512C500.504 83.512 510.836 76.54 513.776 74.02L515.624 72.424L516.128 73.012L514.28 74.608C506.72 81.076 495.212 85.948 482.696 85.948C470.096 85.948 455.564 80.992 443.972 67.636L442.208 65.536C439.016 61.84 436.58 58.9 433.724 58.9H432.716V57.472H436.58C445.988 57.472 452.288 50.584 452.288 40.252C452.288 30.004 445.988 23.116 436.58 23.116H427.844V23.2C428.852 24.208 429.272 25.636 429.272 27.568V76.792C429.272 80.824 429.776 81.244 433.808 81.244H438.68V82H415.328ZM520.492 82V81.244H523.432C527.464 81.244 527.884 80.824 527.884 76.792V26.812C527.884 22.78 527.464 22.36 523.432 22.36H520.492V21.604H542.416C555.856 21.604 564.76 29.08 564.76 40.252C564.76 50.5 557.032 57.472 546.952 58.396L545.272 58.48V58.984C550.732 59.572 554.764 64.864 558.796 70.408C563.164 76.624 567.952 82.672 575.008 82.672C580.552 82.672 584.248 79.144 584.248 73.684C584.248 69.148 581.224 66.04 576.604 65.62H575.176L575.848 64.108H604.66L590.464 29.08C589.876 27.736 589.792 26.644 589.792 25.72H589.036C589.036 26.224 588.784 27.316 588.028 29.08L567.868 75.028L566.776 73.936L589.456 21.604H596.008V22.612C596.008 24.292 596.344 26.476 596.764 27.484L616.588 76.036C618.268 80.068 618.772 81.244 621.544 81.244H622.216V82H606.172V81.244H612.64V81.076C611.548 80.656 610.624 78.556 610.036 77.128L605.332 65.62H579.88C583.072 66.964 585.088 69.904 585.088 73.684C585.088 80.572 579.46 85.192 571.144 85.192C561.568 85.192 555.268 76.624 550.06 69.232C546.112 63.688 542.668 58.9 538.888 58.9H537.88V57.472H541.744C551.152 57.472 557.452 50.584 557.452 40.252C557.452 30.004 551.152 23.116 541.744 23.116H533.008V23.2C534.016 24.208 534.436 25.636 534.436 27.568V76.792C534.436 80.824 534.94 81.244 538.972 81.244H543.844V82H520.492Z" fill="white"/>
<g clip-path="url(#clip0_465_65)">
<path d="M383.906 83.2294C369.754 83.2294 360.362 73.9007 360.362 59.8759C360.362 45.9147 369.754 36.586 383.906 36.586C397.93 36.586 407.322 45.9147 407.322 59.8759C407.322 73.9007 397.93 83.2294 383.906 83.2294ZM384.096 82.0871C395.582 82.0871 401.801 74.7891 401.801 61.0817C401.801 45.9147 395.392 37.7283 383.652 37.7283C372.102 37.7283 365.883 45.0897 365.883 58.7337C365.883 73.9641 372.229 82.0871 384.096 82.0871Z" fill="white"/>
</g>
<defs>
<clipPath id="clip0_465_65">
<rect width="51.8044" height="28.4924" fill="white" transform="translate(357.746 55.6895)"/>
</clipPath>
</defs>
</svg>
