<svg width="164" height="37" viewBox="0 0 164 37" fill="none" xmlns="http://www.w3.org/2000/svg">
<path fill-rule="evenodd" clip-rule="evenodd" d="M158.343 4.26821L160.78 10.6879H155.287L158.099 3.61936L158.343 4.26821ZM160.938 11.2024L162.617 15.8132H164L159.055 3L157.791 3.34736L152.473 15.8132H153.276L155.141 11.0976L160.878 11.0287L160.941 11.2024H160.938ZM143.146 9.86866C142.793 9.8916 142.409 9.90471 141.983 9.90471H141.131V3.66524L141.759 3.60625L142.084 3.58003C142.175 3.57348 142.283 3.5702 142.409 3.56693C142.552 3.56365 142.671 3.56037 142.779 3.56037C143.048 3.56037 143.303 3.57348 143.547 3.59969C143.792 3.62591 144.026 3.66524 144.249 3.72095C144.469 3.77666 144.679 3.84547 144.871 3.93395C145.063 4.02243 145.241 4.1273 145.398 4.25182C145.559 4.37635 145.702 4.51727 145.824 4.67784C145.95 4.83842 146.055 5.01537 146.138 5.20872C146.222 5.40206 146.285 5.61507 146.327 5.84774C146.369 6.07386 146.39 6.31964 146.39 6.57852C146.39 6.77187 146.386 6.96193 146.376 7.14545C146.365 7.32569 146.351 7.48954 146.327 7.63373C146.306 7.77792 146.278 7.91555 146.247 8.04336C146.215 8.17444 146.177 8.29569 146.138 8.40711V8.41366C146.093 8.5218 146.044 8.62667 145.992 8.71515C145.939 8.8069 145.88 8.89211 145.817 8.9642C145.754 9.03958 145.688 9.10512 145.618 9.1641C145.548 9.22309 145.475 9.2788 145.398 9.32467C145.241 9.41971 145.052 9.50164 144.829 9.57373C144.612 9.64583 144.364 9.70481 144.092 9.75397C143.813 9.80313 143.498 9.83917 143.146 9.86211V9.86866ZM141.4 10.3143H143.505C143.785 10.7895 144.099 11.2876 144.357 11.7661C144.602 12.1921 144.836 12.5886 145.052 12.9491C145.283 13.3358 145.482 13.6635 145.653 13.9322C145.824 14.2042 145.992 14.4467 146.149 14.6597C146.306 14.8694 146.46 15.0529 146.603 15.2037C146.743 15.3511 146.882 15.4724 147.022 15.5707C147.155 15.6625 147.291 15.7346 147.427 15.7837H147.43C147.57 15.8361 147.724 15.8755 147.898 15.9017C148.073 15.9279 148.269 15.941 148.482 15.941C148.639 15.941 148.789 15.9345 148.935 15.9246C149.082 15.9148 149.229 15.8984 149.379 15.8787H149.382C149.526 15.8591 149.655 15.8394 149.774 15.8132L149.91 15.7804V15.6395C149.7 15.6297 149.498 15.5904 149.299 15.5248C149.065 15.4495 148.834 15.3348 148.614 15.184C148.405 15.0398 148.195 14.8727 147.989 14.6794C147.787 14.4893 147.584 14.2763 147.382 14.0371C147.183 13.8011 146.983 13.5422 146.784 13.2637C146.585 12.9884 146.393 12.7033 146.205 12.4051L146.083 12.2117C145.744 11.671 145.384 11.1041 145.007 10.4913L144.85 10.239L145.14 10.1308C145.328 10.062 145.51 9.98336 145.684 9.89816C145.859 9.81295 146.034 9.71464 146.205 9.6065C146.369 9.50491 146.523 9.3935 146.666 9.27225C146.812 9.14772 146.945 9.01008 147.071 8.86589C147.193 8.71843 147.301 8.55785 147.399 8.38744C147.497 8.21704 147.584 8.03352 147.657 7.8369C147.731 7.64356 147.783 7.43383 147.822 7.20771C147.86 6.9816 147.877 6.7391 147.877 6.47693C147.877 6.21477 147.856 5.95916 147.811 5.72649C147.769 5.49382 147.703 5.27754 147.616 5.07436C147.528 4.87118 147.42 4.68767 147.287 4.51726C147.155 4.34686 146.997 4.19284 146.819 4.05193C146.641 3.91101 146.439 3.78976 146.212 3.68162C145.985 3.57348 145.726 3.48172 145.44 3.40635C145.154 3.33098 144.843 3.27199 144.504 3.23267C144.165 3.19334 143.802 3.17368 143.411 3.17368C143.048 3.17368 142.716 3.17368 142.416 3.18351C142.088 3.19007 141.749 3.1999 141.4 3.21301C141.068 3.22611 140.74 3.23922 140.418 3.25561C140.202 3.26544 139.985 3.27855 139.772 3.29493V15.8067H141.124V10.3078H141.393L141.4 10.3143ZM132.39 8.29241C132.436 8.68238 132.46 9.08873 132.46 9.50819C132.46 9.75069 132.457 10.0063 132.446 10.275C132.436 10.5405 132.422 10.7961 132.401 11.0418C132.38 11.2942 132.352 11.5367 132.317 11.7792C132.282 12.0118 132.244 12.2412 132.195 12.4608C132.149 12.6771 132.101 12.8803 132.041 13.0736C131.982 13.2702 131.915 13.457 131.842 13.634C131.765 13.8142 131.681 13.9682 131.587 14.1059C131.489 14.2468 131.381 14.3648 131.262 14.4598C131.021 14.6531 130.76 14.817 130.484 14.9546C130.211 15.089 129.922 15.1938 129.618 15.2659C129.017 15.4101 128.298 15.4822 127.449 15.4822C127.002 15.4822 126.587 15.4429 126.206 15.3675C125.822 15.2922 125.476 15.1742 125.165 15.0202C124.855 14.8629 124.579 14.6794 124.331 14.4696C124.083 14.2566 123.87 14.0141 123.685 13.7421C123.503 13.4767 123.346 13.1817 123.217 12.8606C123.088 12.546 122.983 12.2085 122.906 11.848C122.756 11.1303 122.679 10.3537 122.679 9.51474C122.679 9.26241 122.683 8.99697 122.693 8.7217C122.704 8.45298 122.718 8.19738 122.735 7.95815C122.752 7.70582 122.777 7.46004 122.808 7.23065C122.836 6.99798 122.875 6.77514 122.917 6.55558C122.958 6.3393 123.011 6.13284 123.063 5.94605C123.119 5.75271 123.182 5.57575 123.255 5.4119C123.332 5.23822 123.416 5.08747 123.51 4.95311C123.608 4.81547 123.716 4.6975 123.831 4.60247C124.031 4.4419 124.264 4.30426 124.53 4.18629C124.792 4.07159 125.085 3.97656 125.41 3.90118C125.731 3.82581 126.063 3.7701 126.409 3.73405C126.751 3.69801 127.107 3.67834 127.47 3.67834C127.9 3.67834 128.301 3.71439 128.675 3.78649C129.052 3.85858 129.401 3.96672 129.715 4.11419C130.033 4.25838 130.32 4.43206 130.582 4.63524C130.843 4.83841 131.077 5.07108 131.283 5.33325C131.486 5.59213 131.661 5.87724 131.811 6.18855C131.957 6.49987 132.08 6.83085 132.174 7.18805C132.268 7.54197 132.338 7.91227 132.383 8.30224L132.39 8.29241ZM133.85 10.9435C133.92 10.4913 133.955 10.0129 133.955 9.50819C133.955 9.00353 133.92 8.53819 133.854 8.09251C133.787 7.65011 133.682 7.22738 133.546 6.83413C133.41 6.44416 133.242 6.08041 133.04 5.74943C132.841 5.42173 132.607 5.12024 132.341 4.85152C132.076 4.57953 131.776 4.34031 131.444 4.13058C131.109 3.92085 130.742 3.74388 130.337 3.59642C129.527 3.30476 128.581 3.1573 127.488 3.1573C126.932 3.1573 126.419 3.19334 125.948 3.26871C125.48 3.34081 125.047 3.45223 124.652 3.59642C124.261 3.74388 123.901 3.92085 123.58 4.13058C123.259 4.34031 122.972 4.57953 122.721 4.84825C122.466 5.11696 122.246 5.41517 122.061 5.74288C121.872 6.07386 121.715 6.43761 121.593 6.83085C121.471 7.22737 121.377 7.64683 121.317 8.09251C121.258 8.53491 121.226 9.01008 121.226 9.51147C121.226 10.0129 121.258 10.488 121.317 10.937C121.377 11.3827 121.467 11.8087 121.59 12.2117C121.712 12.6115 121.862 12.9786 122.047 13.3161C122.229 13.6504 122.449 13.9617 122.7 14.2435C122.948 14.5221 123.231 14.7711 123.549 14.9841C123.866 15.2004 124.226 15.3839 124.621 15.5379C125.41 15.846 126.363 16 127.467 16C128.015 16 128.528 15.9607 129.007 15.8853C129.482 15.8099 129.922 15.6985 130.327 15.5478C130.732 15.397 131.098 15.2135 131.437 15.0005C131.772 14.7875 132.073 14.5417 132.338 14.2632C132.603 13.9879 132.837 13.6766 133.043 13.339C133.246 12.9982 133.417 12.6279 133.557 12.2314C133.693 11.8316 133.798 11.4023 133.864 10.9468L133.85 10.9435ZM110.373 9.86866C110.021 9.8916 109.636 9.90471 109.21 9.90471H108.358V3.66524L108.987 3.60625L109.312 3.58003C109.402 3.57348 109.511 3.5702 109.636 3.56693C109.78 3.56365 109.898 3.56037 110.007 3.56037C110.275 3.56037 110.53 3.57348 110.775 3.59969C111.019 3.62591 111.253 3.66524 111.477 3.72095C111.697 3.77666 111.906 3.84547 112.098 3.93395C112.29 4.02243 112.468 4.1273 112.626 4.25182C112.786 4.37635 112.929 4.51727 113.052 4.67784C113.177 4.83842 113.282 5.01537 113.366 5.20872C113.45 5.40206 113.513 5.61507 113.554 5.84774C113.596 6.07386 113.617 6.31964 113.617 6.57852C113.617 6.77187 113.614 6.96193 113.603 7.14545C113.593 7.32569 113.579 7.48954 113.554 7.63373C113.534 7.77792 113.506 7.91555 113.474 8.04336C113.443 8.17444 113.404 8.29569 113.366 8.40711V8.41366C113.321 8.5218 113.272 8.62667 113.219 8.71515C113.167 8.8069 113.108 8.89211 113.045 8.9642C112.982 9.03958 112.915 9.10512 112.846 9.1641C112.776 9.22309 112.702 9.2788 112.626 9.32467C112.468 9.41971 112.28 9.50164 112.056 9.57373C111.84 9.64583 111.592 9.70481 111.32 9.75397C111.04 9.80313 110.726 9.83917 110.373 9.86211V9.86866ZM108.627 10.3143H110.733C111.012 10.7895 111.327 11.2876 111.585 11.7661C111.833 12.1921 112.063 12.5886 112.28 12.9491C112.51 13.3358 112.709 13.6635 112.881 13.9322C113.052 14.2042 113.219 14.4467 113.376 14.6597C113.534 14.8694 113.687 15.0529 113.83 15.2037C113.97 15.3511 114.11 15.4724 114.249 15.5707C114.382 15.6625 114.518 15.7346 114.654 15.7837H114.658C114.798 15.8361 114.951 15.8755 115.126 15.9017C115.3 15.9279 115.496 15.941 115.709 15.941C115.866 15.941 116.016 15.9345 116.163 15.9246C116.31 15.9148 116.456 15.8984 116.606 15.8787H116.61C116.753 15.8591 116.882 15.8394 117.001 15.8132L117.137 15.7804V15.6395C116.928 15.6297 116.725 15.5904 116.526 15.5248C116.292 15.4495 116.062 15.3348 115.842 15.184C115.632 15.0398 115.423 14.8727 115.217 14.6794C115.014 14.4893 114.812 14.2763 114.609 14.0371C114.41 13.8011 114.211 13.5422 114.012 13.2637C113.813 12.9884 113.621 12.7033 113.432 12.4051L113.31 12.2117C112.971 11.671 112.612 11.1041 112.235 10.4913L112.077 10.239L112.367 10.1308C112.556 10.062 112.737 9.98336 112.912 9.89816C113.087 9.81295 113.261 9.71464 113.432 9.6065C113.596 9.50491 113.75 9.3935 113.893 9.27225C114.04 9.14772 114.173 9.01008 114.298 8.86589C114.421 8.71843 114.529 8.55785 114.627 8.38744C114.724 8.21704 114.812 8.03352 114.885 7.8369C114.958 7.64356 115.011 7.43383 115.049 7.20771C115.087 6.9816 115.105 6.7391 115.105 6.47693C115.105 6.21477 115.084 5.95916 115.039 5.72649C114.997 5.49382 114.93 5.27754 114.843 5.07436C114.756 4.87118 114.647 4.68767 114.515 4.51726C114.382 4.34686 114.225 4.19284 114.047 4.05193C113.869 3.91101 113.666 3.78976 113.439 3.68162C113.212 3.57348 112.954 3.48172 112.668 3.40635C112.381 3.33098 112.07 3.27199 111.732 3.23267C111.393 3.19334 111.03 3.17368 110.639 3.17368C110.275 3.17368 109.944 3.17368 109.643 3.18351C109.315 3.19007 108.976 3.1999 108.627 3.21301C108.296 3.22611 107.967 3.23922 107.646 3.25561C107.43 3.26544 107.213 3.27855 107 3.29493V15.8067H108.351V10.3078H108.62L108.627 10.3143Z" fill="white"/>
<path fill-rule="evenodd" clip-rule="evenodd" d="M80.3974 4.28637L82.8114 10.798H77.3713L80.1553 3.62823L80.3974 4.28637ZM82.967 11.3199L84.6305 15.9967H86L81.1029 3L79.851 3.35234L74.5838 15.9967H75.3793L77.226 11.2135L82.9082 11.1437L82.9704 11.3199H82.967ZM59.7438 15.9967H66.5949L66.6572 15.5745L61.0822 15.4682V9.49833L65.7442 9.39197L65.7995 9.04628L61.0822 8.9931V3.81104L66.1522 3.74456L66.2145 3.28586H59.7404V15.9934L59.7438 15.9967ZM49.462 4.06367V15.9967H50.8004V3.81769L54.9367 3.71133L54.9989 3.28918H45.3258L45.2635 3.75121L49.462 3.81769V4.06699V4.06367ZM39.2667 3.28918V15.9967H40.6051V3.28918H39.2667ZM31.7204 10.1199V15.9967H33.0588V3.28918H31.7204V9.39529H23.6278V3.28918H22.2894V15.9967H23.6278V9.86397H31.7204V10.1199ZM9.75614 9.01636C9.8011 9.146 9.83914 9.25236 9.87373 9.34211L12.2877 16H13.7126L17.503 3.2925H16.7801C16.0366 5.87854 15.338 8.54104 14.5287 11.1005C14.508 11.1736 14.4838 11.2567 14.4596 11.3431C14.3973 11.6855 14.2279 12.2074 14.1345 12.5597L14.0653 12.8289C14.0376 12.9353 14.0065 13.0384 13.9719 13.1879C13.8163 13.5802 13.6814 14.2715 13.5673 14.7003L13.3494 15.5047L13.0624 14.7203C12.969 14.471 12.8791 14.2117 12.7857 13.9458C12.7027 13.7098 12.6197 13.4638 12.5332 13.2045L12.3119 12.5697C12.2531 12.4134 12.2012 12.2572 12.1459 12.1043L12.0871 11.9348C12.0456 11.8118 11.9937 11.6689 11.9453 11.5359L11.8831 11.3631C11.8485 11.2733 11.8173 11.1869 11.7862 11.1038L11.7101 10.8778L9.52789 4.92789H8.69441L6.59171 10.8778C6.50525 11.1337 6.42225 11.3863 6.33233 11.639L6.17324 12.101C6.11791 12.2572 6.06257 12.4134 6.00378 12.573L5.90003 12.8854C5.81703 13.148 5.73057 13.404 5.64411 13.6633C5.5369 13.9824 5.42969 14.3081 5.29827 14.7103L5.01468 15.5878L4.78988 14.697C4.72071 14.4211 4.655 14.1652 4.58929 13.9292C4.52359 13.6799 4.45442 13.4372 4.38525 13.1946L4.20887 12.5697C4.04633 12.0046 3.8907 11.4429 3.73507 10.8778L1.4629 3.28918H0L3.90453 15.9967H5.33285L7.65344 9.40859C7.71569 9.23907 7.77794 9.05625 7.85056 8.84019L7.90936 8.66402C7.98544 8.42802 8.06153 8.19535 8.13761 7.96932L8.19295 7.80644C8.23445 7.65686 8.28632 7.49399 8.34512 7.30452C8.40045 7.135 8.45578 6.96216 8.51458 6.78931L8.7705 6.05139L9.01604 6.79263L9.34805 7.77653C9.39647 7.90948 9.44489 8.05241 9.49676 8.20199L9.63856 8.63743C9.6766 8.76374 9.7181 8.89005 9.7596 9.00971L9.75614 9.01636Z" fill="white"/>
<path fill-rule="evenodd" clip-rule="evenodd" d="M54.4708 33.8351C54.1581 33.8351 54 33.629 54 33.2202C54 32.8939 54.1237 32.5366 54.3677 32.1553C54.6426 31.7191 55.0103 31.3069 55.4742 30.9256C56.0619 30.4206 56.5464 30.187 56.9313 30.2282C57.299 29.2321 57.6976 28.3149 58.1203 27.4836C58.7217 26.3088 59.268 25.5634 59.7595 25.2508C59.9931 25.0996 60.2302 25.024 60.4777 25.024C60.8729 25.024 61.0722 25.2301 61.0722 25.6389C61.0722 26.3637 60.6357 27.25 59.7595 28.3011C59.4605 28.6824 59.1203 29.0603 58.7457 29.4279C58.3711 29.7954 57.9622 30.1733 57.5258 30.5546C57.3608 30.9771 57.2371 31.3618 57.1478 31.7019C57.0584 32.042 57.0069 32.3511 56.9931 32.6225C57.0481 33.1687 57.299 33.4435 57.7526 33.4435C58.2852 33.4435 58.9485 33.0279 59.7423 32.1931C59.811 32.1107 59.866 32.0695 59.9072 32.0695C59.9485 32.0695 59.9691 32.0969 59.9691 32.1519C59.9691 32.2069 59.9485 32.2687 59.9072 32.3374C58.9931 33.3198 58.1924 33.8145 57.5086 33.8145C57.1821 33.8145 56.9141 33.6702 56.7079 33.3851C56.488 33.0828 56.3746 32.7221 56.3608 32.2996C56.0206 32.7496 55.677 33.1275 55.3368 33.4263C54.9828 33.7011 54.6942 33.8351 54.4742 33.8351H54.4708ZM57.6907 30.1458C58.3883 29.476 59.0034 28.7511 59.5361 27.9748C60.2199 26.9924 60.6014 26.2195 60.6839 25.6595V25.5565C60.6839 25.3916 60.6289 25.3092 60.5189 25.3092C60.244 25.3092 59.9656 25.5634 59.677 26.0683C59.3093 26.7107 58.9588 27.3737 58.6323 28.0573C58.3058 28.7408 57.9897 29.4382 57.6907 30.1458ZM54.9038 33.2202C55.055 33.2202 55.2509 33.1172 55.4983 32.9145C55.9485 32.5332 56.244 32.1553 56.378 31.7878C56.5979 31.1179 56.7388 30.7435 56.8076 30.6611C56.4399 30.6336 56.0687 30.7779 55.701 31.0905C55.3608 31.3515 55.0859 31.6985 54.8797 32.1347C54.7285 32.4095 54.6529 32.6534 54.6529 32.8733C54.6529 33.1069 54.7354 33.2202 54.9003 33.2202H54.9038ZM60.8694 34C61.4296 34 62.0722 33.8076 62.7973 33.4263C63.1375 33.2477 63.4296 33.0691 63.6701 32.8836C63.9107 32.6981 64.1031 32.5195 64.2543 32.3408C64.3093 32.2859 64.3368 32.224 64.3368 32.1553C64.3368 31.9905 64.2543 32.0042 64.0893 32.1966C63.9381 32.3477 63.756 32.5023 63.5361 32.6672C63.3162 32.8321 63.0722 32.9866 62.7973 33.1378C62.1546 33.4916 61.622 33.6702 61.1993 33.6702C60.6667 33.6702 60.3986 33.3817 60.3986 32.808C60.3986 32.7393 60.3986 32.6672 60.4089 32.5916C60.4158 32.516 60.4261 32.4302 60.4399 32.334C61.1787 32.1553 61.7526 31.8221 62.1615 31.3309C62.3814 31.0561 62.488 30.7847 62.488 30.5099C62.488 30.0874 62.2749 29.8744 61.8522 29.8744C61.5395 29.8744 61.189 30.0531 60.8076 30.4069C60.4948 30.7057 60.2268 31.087 60.0069 31.5439C59.7869 32.0008 59.6804 32.3821 59.6804 32.6809C59.6804 33.5569 60.0756 33.9931 60.8694 33.9931V34ZM60.5223 32.1141C61.1924 31.8943 61.6495 31.5679 61.8969 31.1317C62.0619 30.8569 62.1443 30.6267 62.1443 30.4343C62.1443 30.2832 62.0962 30.2076 62 30.2076C61.89 30.2076 61.7388 30.3073 61.5498 30.5065C61.3574 30.7057 61.1718 30.9462 60.9863 31.2347C60.8007 31.5233 60.6495 31.8153 60.5258 32.1141H60.5223ZM63.9038 33.8351C63.8076 33.8351 63.7251 33.7939 63.6564 33.7114C63.5876 33.629 63.5601 33.5603 63.5739 33.5053L64.189 32.0901C64.543 31.2553 64.7217 30.7504 64.7217 30.5752C64.7629 30.5202 64.9003 30.4378 65.1306 30.3279C65.1856 30.3004 65.2337 30.2798 65.2749 30.266C65.3162 30.2523 65.3574 30.2454 65.3986 30.2454C65.4948 30.2454 65.543 30.3073 65.543 30.4309C65.4467 30.7057 65.3058 31.0561 65.1237 31.4855C64.9381 31.9149 64.7045 32.4302 64.4158 33.0313L66.6082 30.6748C66.8007 30.4687 66.9416 30.3691 67.0378 30.3691C67.1065 30.3691 67.1409 30.4103 67.1409 30.4927C67.1409 30.5202 67.1409 30.5511 67.1306 30.5855C67.1237 30.6198 67.1134 30.6576 67.0997 30.6989C66.811 31.695 66.6701 32.3786 66.6701 32.7496C66.6701 33.2134 66.8282 33.4469 67.1409 33.4469C67.4296 33.4469 67.7698 33.2889 68.1649 32.9763C68.2337 32.9214 68.3402 32.8252 68.4811 32.6878C68.6254 32.5504 68.7973 32.3752 69.0034 32.1553C69.0584 32.1004 69.1134 32.0729 69.1684 32.0729C69.2096 32.0729 69.2302 32.1004 69.2302 32.1553C69.244 32.1828 69.2302 32.2309 69.189 32.2996C68.3265 33.2546 67.5636 33.7355 66.8935 33.7355C66.2921 33.7355 65.9931 33.2649 65.9931 32.3202C65.9931 32.2103 65.9931 32.1004 66.0034 31.9939C66.0103 31.884 66.0206 31.7672 66.0344 31.6469L65.0722 32.5676C64.9622 32.6637 64.8557 32.7668 64.756 32.8733C64.6529 32.9832 64.5601 33.0931 64.4777 33.1996L64.0687 33.7114C64.0275 33.7939 63.9725 33.8351 63.9038 33.8351ZM70.1959 33.8145C70.8935 33.8282 71.7182 33.3302 72.677 32.3202C72.7182 32.279 72.7388 32.224 72.7388 32.1553C72.7388 32.1004 72.7113 32.0729 72.6564 32.0729C72.6014 32.0729 72.5395 32.1141 72.4708 32.1966C72.2509 32.4302 72.0412 32.6294 71.8351 32.8011C71.6289 32.9729 71.433 33.1103 71.2406 33.2202C70.9656 33.3714 70.7148 33.4469 70.4811 33.4469C70.0034 33.4469 69.7629 33.1653 69.7629 32.6053C69.7629 32.1141 69.9759 31.4718 70.3986 30.6782H71.7938C72.1203 30.6782 72.3127 30.6714 72.3677 30.6576C72.6667 30.6164 72.8179 30.534 72.8179 30.4103C72.8179 30.3416 72.756 30.2866 72.6323 30.2454H70.622C70.9897 29.6855 71.3127 29.2011 71.5842 28.7889C71.8557 28.3767 72.0825 28.0504 72.2612 27.8065C72.2887 27.779 72.3024 27.7515 72.3024 27.724C72.3024 27.6004 72.1787 27.5385 71.9347 27.5385C71.6598 27.5385 71.4296 27.621 71.2371 27.7859C71.0859 28.0195 70.945 28.2359 70.8179 28.442C70.6873 28.6481 70.5739 28.8301 70.4811 28.995C70.3024 29.2973 70.1615 29.5515 70.0515 29.7645C69.9416 29.9775 69.8591 30.1355 69.8041 30.2454H69.4364L69.0687 30.266C68.8763 30.266 68.7801 30.3141 68.7801 30.4103V30.4515C68.7801 30.6027 68.89 30.692 69.1065 30.7195C69.079 30.7057 69.1065 30.6989 69.189 30.6989C69.2715 30.6989 69.4021 30.692 69.5773 30.6782C69.2887 31.3481 69.1478 31.9424 69.1478 32.4611C69.1478 32.5435 69.1478 32.626 69.1581 32.7084C69.1649 32.7908 69.1753 32.8801 69.189 32.9763C69.3127 33.5225 69.6461 33.8042 70.1924 33.8179L70.1959 33.8145ZM72.6357 33.8351C72.323 33.8351 72.1649 33.629 72.1649 33.2202C72.1649 32.8939 72.2887 32.5366 72.5326 32.1553C73.1065 31.2931 73.7285 30.7126 74.3986 30.4137C74.6873 30.2763 74.9656 30.2076 75.2406 30.2076C75.378 30.2076 75.5258 30.2454 75.6907 30.321C75.8557 30.3966 75.9381 30.5031 75.9381 30.637C75.9381 30.7057 75.89 30.7469 75.7938 30.7607C75.7388 30.7744 75.701 30.7882 75.6804 30.8019C75.6598 30.8156 75.6426 30.8294 75.6289 30.8431C75.3162 31.4305 75.1581 31.9767 75.1581 32.4817C75.1581 33.124 75.4124 33.4435 75.9175 33.4435C76.4502 33.4435 77.1134 33.0279 77.9072 32.1931C77.9759 32.1107 78.0309 32.0695 78.0722 32.0695C78.1134 32.0695 78.134 32.0969 78.134 32.1519C78.134 32.2069 78.1134 32.2687 78.0722 32.3374C77.1581 33.3198 76.3574 33.8145 75.6735 33.8145C75.3471 33.8145 75.079 33.6702 74.8729 33.3851C74.6529 33.0828 74.5395 32.7221 74.5258 32.2996C74.1856 32.7496 73.8419 33.1275 73.5017 33.4263C73.1478 33.7011 72.8591 33.8351 72.6392 33.8351H72.6357ZM73.0653 33.2202C72.9003 33.2202 72.8179 33.1034 72.8179 32.8733C72.8179 32.6534 72.8935 32.4095 73.0447 32.1347C73.5498 31.1385 74.1581 30.6473 74.8694 30.6576C74.8007 30.8088 74.7354 30.9737 74.6735 31.1592C74.6117 31.3447 74.567 31.5508 74.5395 31.7844C74.4708 31.9767 74.3608 32.1622 74.2131 32.3477C74.0619 32.5332 73.8797 32.7187 73.6598 32.9111C73.4124 33.1172 73.2165 33.2168 73.0653 33.2168V33.2202ZM78.9072 33.8145C79.6048 33.842 80.4296 33.3439 81.3883 32.3202C81.4433 32.2653 81.4708 32.2103 81.4708 32.1553C81.4708 32.1004 81.4433 32.066 81.3883 32.0523C81.3333 32.0523 81.2646 32.1004 81.1821 32.1966C80.9622 32.4302 80.7526 32.6294 80.5464 32.8011C80.3402 32.9729 80.1443 33.1103 79.9519 33.2202C79.6117 33.4263 79.323 33.526 79.0893 33.526C78.7354 33.526 78.5567 33.2511 78.5567 32.705C78.5567 31.9939 78.756 31.276 79.1512 30.5546C81.0515 28.9298 82.1924 27.5076 82.5739 26.2916C82.6564 26.058 82.6976 25.8485 82.6976 25.6561C82.6976 25.2198 82.512 25 82.1443 25C81.4742 25 80.6701 25.876 79.7251 27.6244C79.3574 28.2943 79.0481 28.9126 78.8041 29.4794C78.5567 30.0462 78.3677 30.5614 78.2302 31.0252C78.134 31.379 78.0619 31.695 78.0137 31.9664C77.9656 32.2412 77.9416 32.4714 77.9416 32.6637C77.9416 33.4023 78.2612 33.7836 78.9038 33.8111L78.9072 33.8145ZM79.3162 30.1458C79.6048 29.4347 79.9107 28.7374 80.2371 28.0573C80.5636 27.3771 80.921 26.7107 81.3024 26.0683C81.5911 25.5634 81.8488 25.3092 82.0825 25.3092C82.2337 25.3092 82.3093 25.4191 82.3093 25.6355C82.3093 25.8004 82.2612 26.0031 82.1649 26.2504C82.055 26.5492 81.8935 26.8721 81.6839 27.2122C81.4708 27.5523 81.2165 27.9233 80.9141 28.3183C80.6529 28.6584 80.3918 28.9813 80.1237 29.2802C79.8557 29.5824 79.5876 29.8676 79.3127 30.1424L79.3162 30.1458ZM88.7251 33.9588C87.9725 33.9588 87.5979 33.55 87.5979 32.729C87.5979 32.1966 87.866 31.616 88.3986 30.9874C88.9725 30.3038 89.5258 29.9637 90.0584 29.9637C90.4948 29.9637 90.7148 30.163 90.7148 30.558C90.7148 30.6954 90.6667 30.8637 90.5704 31.0698C90.5155 31.166 90.4674 31.245 90.4261 31.3069C90.3849 31.3687 90.3505 31.4271 90.323 31.4821C90.2818 31.5233 90.2474 31.5439 90.2199 31.5439C90.1375 31.5439 90.1237 31.4752 90.1787 31.3378C90.2749 31.1866 90.323 31.0492 90.323 30.929C90.323 30.7641 90.2268 30.6817 90.0344 30.6817C89.7869 30.6817 89.5292 30.7847 89.2543 30.9874C88.9141 31.2485 88.6392 31.5576 88.433 31.9183C88.2268 32.279 88.1272 32.6122 88.1272 32.9111C88.1272 33.4023 88.3883 33.6496 88.9072 33.6496C89.1546 33.6496 89.4811 33.574 89.89 33.4229C90.4227 33.1893 90.9759 32.7805 91.5498 32.1931C91.646 32.0969 91.7148 32.0489 91.756 32.0489C91.7973 32.0626 91.8179 32.0969 91.8179 32.1519C91.8179 32.1931 91.7973 32.2481 91.756 32.3168C90.732 33.4092 89.7182 33.9553 88.7216 33.9553L88.7251 33.9588ZM92.5773 33.8145C93.2749 33.842 94.0997 33.3439 95.0584 32.3202C95.1134 32.2653 95.1409 32.2103 95.1409 32.1553C95.1409 32.1004 95.1134 32.066 95.0584 32.0523C95.0034 32.0523 94.9347 32.1004 94.8522 32.1966C94.6323 32.4302 94.4227 32.6294 94.2165 32.8011C94.0103 32.9729 93.8144 33.1103 93.622 33.2202C93.2818 33.4263 92.9931 33.526 92.7594 33.526C92.4055 33.526 92.2268 33.2511 92.2268 32.705C92.2268 31.9939 92.4261 31.276 92.8213 30.5546C94.7217 28.9298 95.8625 27.5076 96.244 26.2916C96.3265 26.058 96.3677 25.8485 96.3677 25.6561C96.3677 25.2198 96.1821 25 95.8144 25C95.1443 25 94.3402 25.876 93.3952 27.6244C93.0275 28.2943 92.7182 28.9126 92.4742 29.4794C92.2268 30.0462 92.0378 30.5614 91.9003 31.0252C91.8041 31.379 91.732 31.695 91.6839 31.9664C91.6357 32.2378 91.6117 32.4714 91.6117 32.6637C91.6117 33.4023 91.9313 33.7836 92.5739 33.8111L92.5773 33.8145ZM92.9863 30.1458C93.2749 29.4347 93.5808 28.7374 93.9072 28.0573C94.2337 27.3771 94.5911 26.7107 94.9725 26.0683C95.2612 25.5634 95.5189 25.3092 95.7526 25.3092C95.9038 25.3092 95.9794 25.4191 95.9794 25.6355C95.9794 25.8004 95.9313 26.0031 95.8351 26.2504C95.7251 26.5492 95.5636 26.8721 95.354 27.2122C95.1409 27.5523 94.8866 27.9233 94.5842 28.3183C94.323 28.6584 94.0619 28.9813 93.7938 29.2802C93.5258 29.5824 93.2577 29.8676 92.9828 30.1424L92.9863 30.1458ZM97.4536 28.6893C97.3299 28.6893 97.2165 28.6378 97.1168 28.5347C97.0137 28.4317 96.9622 28.3183 96.9622 28.1981C96.9622 28.0332 97.0378 27.8958 97.189 27.7893C97.299 27.6931 97.4227 27.645 97.5567 27.645C97.8694 27.645 98.0275 27.7824 98.0275 28.0538C98.0275 28.4763 97.835 28.6893 97.4536 28.6893ZM96.079 33.8111C95.2852 33.7973 94.9313 33.2511 95.0138 32.1725C95.0275 31.7088 95.2818 31.1145 95.7732 30.3897C95.8557 30.2385 96.0344 30.163 96.3058 30.163C96.512 30.163 96.6117 30.2248 96.6117 30.3485L96.5911 30.4515L96.079 31.3343C95.8728 31.7156 95.7663 32.0111 95.7526 32.2172C95.7388 32.2859 95.7285 32.358 95.7217 32.4336C95.7148 32.5092 95.7113 32.5813 95.7113 32.65C95.7113 33.2099 95.9107 33.4916 96.3058 33.4916C96.8522 33.4916 97.5361 33.0622 98.3574 32.2C98.4399 32.1038 98.5086 32.0557 98.5636 32.0557C98.6048 32.0695 98.6254 32.1038 98.6254 32.1588C98.6254 32.2 98.6048 32.255 98.5636 32.3237C97.6082 33.3473 96.7801 33.8454 96.0825 33.8179L96.079 33.8111ZM98.2096 33.8317C98.2784 33.8317 98.3333 33.7905 98.3746 33.708L98.7835 33.1962C98.866 33.0863 98.9588 32.9763 99.0619 32.8698C99.165 32.7599 99.2715 32.6569 99.378 32.5641L100.34 31.6435C100.326 31.7672 100.316 31.884 100.309 31.9905C100.302 32.1004 100.299 32.2103 100.299 32.3168C100.299 33.258 100.598 33.7321 101.199 33.7321C101.869 33.7321 102.636 33.2546 103.495 32.2962C103.536 32.2275 103.55 32.1794 103.536 32.1519C103.536 32.0969 103.515 32.0695 103.474 32.0695C103.419 32.0695 103.364 32.0969 103.309 32.1519C103.103 32.3718 102.931 32.5469 102.787 32.6844C102.643 32.8218 102.536 32.9179 102.471 32.9729C102.076 33.2855 101.732 33.4435 101.447 33.4435C101.134 33.4435 100.976 33.2099 100.976 32.7462C100.976 32.3786 101.12 31.695 101.405 30.6954C101.419 30.6542 101.43 30.6164 101.436 30.5821C101.443 30.5477 101.447 30.5168 101.447 30.4893C101.447 30.4069 101.412 30.3656 101.344 30.3656C101.247 30.3656 101.103 30.4687 100.914 30.6714L98.7216 33.0279C99.0103 32.4267 99.244 31.9114 99.4296 31.4821C99.6151 31.0527 99.7526 30.6989 99.8488 30.4275C99.8488 30.3038 99.8007 30.242 99.7045 30.242C99.6632 30.242 99.622 30.2489 99.5808 30.2626C99.5395 30.2763 99.4914 30.2969 99.4364 30.3244C99.2028 30.4344 99.0687 30.5168 99.0275 30.5718C99.0275 30.7504 98.8488 31.2553 98.4948 32.0866L97.8797 33.5019C97.866 33.5569 97.8935 33.6256 97.9622 33.708C98.0309 33.7905 98.1134 33.8317 98.2096 33.8317ZM105.876 28.6893C105.753 28.6893 105.639 28.6378 105.54 28.5347C105.436 28.4317 105.385 28.3183 105.385 28.1981C105.385 28.0332 105.46 27.8958 105.612 27.7893C105.722 27.6931 105.845 27.645 105.979 27.645C106.292 27.645 106.45 27.7824 106.45 28.0538C106.45 28.4763 106.258 28.6893 105.876 28.6893ZM104.502 33.8111C103.708 33.7973 103.354 33.2511 103.436 32.1725C103.45 31.7088 103.704 31.1145 104.196 30.3897C104.278 30.2385 104.457 30.163 104.729 30.163C104.935 30.163 105.034 30.2248 105.034 30.3485L105.014 30.4515L104.502 31.3343C104.296 31.7156 104.189 32.0111 104.175 32.2172C104.162 32.2859 104.151 32.358 104.144 32.4336C104.137 32.5092 104.134 32.5813 104.134 32.65C104.134 33.2099 104.333 33.4916 104.729 33.4916C105.275 33.4916 105.959 33.0622 106.78 32.2C106.863 32.1038 106.931 32.0557 106.986 32.0557C107.027 32.0695 107.048 32.1038 107.048 32.1588C107.048 32.2 107.027 32.255 106.986 32.3237C106.031 33.3473 105.203 33.8454 104.505 33.8179L104.502 33.8111ZM107.904 33.9553C108.9 33.9553 109.914 33.4092 110.938 32.3168C110.979 32.2481 111 32.1931 111 32.1519C111 32.0969 110.979 32.0626 110.938 32.0489C110.897 32.0489 110.828 32.0969 110.732 32.1931C110.158 32.7805 109.605 33.1893 109.072 33.4229C108.663 33.574 108.333 33.6496 108.089 33.6496C107.57 33.6496 107.309 33.4023 107.309 32.9111C107.309 32.6088 107.412 32.279 107.615 31.9183C107.821 31.5576 108.093 31.245 108.436 30.9874C108.711 30.7813 108.969 30.6817 109.216 30.6817C109.409 30.6817 109.505 30.7641 109.505 30.929C109.505 31.0527 109.457 31.1901 109.361 31.3378C109.306 31.4752 109.32 31.5439 109.402 31.5439C109.43 31.5439 109.464 31.5233 109.505 31.4821C109.533 31.4271 109.567 31.3687 109.608 31.3069C109.649 31.245 109.698 31.166 109.753 31.0698C109.849 30.8637 109.897 30.6954 109.897 30.558C109.897 30.163 109.677 29.9637 109.241 29.9637C108.708 29.9637 108.155 30.3038 107.581 30.9874C107.048 31.616 106.78 32.1966 106.78 32.729C106.78 33.55 107.155 33.9588 107.907 33.9588L107.904 33.9553Z" fill="white"/>
<path fill-rule="evenodd" clip-rule="evenodd" d="M100.915 12.0072C100.969 11.6848 101 11.3514 101 11.0036H99.7648V11.4167C99.7648 11.7391 99.7513 12.0471 99.7207 12.3406C99.6902 12.6377 99.6461 12.913 99.585 13.1667C99.5239 13.4312 99.4425 13.6667 99.3475 13.8768C99.2491 14.0906 99.1303 14.2754 98.998 14.4275H98.9946C98.8385 14.6051 98.6485 14.7536 98.4279 14.8768C98.2141 15 97.9664 15.0978 97.6882 15.1775C97.4133 15.2536 97.1215 15.3116 96.8161 15.3478C96.5073 15.3841 96.1815 15.4058 95.8422 15.4058C95.5674 15.4058 95.3027 15.3913 95.0516 15.3623C94.7971 15.3333 94.5595 15.2862 94.3424 15.2283C94.115 15.163 93.908 15.0797 93.718 14.971C93.528 14.8623 93.3549 14.7319 93.1955 14.5725C93.0428 14.4203 92.907 14.2391 92.7883 14.0326C92.6695 13.8297 92.5711 13.5978 92.493 13.3478C92.4184 13.0942 92.3607 12.8116 92.32 12.4928C92.2827 12.1775 92.2623 11.837 92.2623 11.471V11H91V11.1993C91 11.6558 91.0271 12.0761 91.0848 12.4529C91.1391 12.8297 91.2239 13.1703 91.3325 13.4746C91.4411 13.779 91.5701 14.0507 91.7228 14.2935C91.8755 14.5362 92.0553 14.75 92.2555 14.9348C92.4591 15.1196 92.6797 15.279 92.924 15.413C93.1683 15.5507 93.433 15.6594 93.718 15.7428C94.0064 15.8261 94.3152 15.8913 94.6478 15.9348C94.9769 15.9783 95.3264 16 95.6929 16C96.1374 16 96.5548 15.9674 96.9416 15.8986C97.3217 15.8333 97.6814 15.7319 98.0105 15.5942C98.3431 15.4565 98.6485 15.3007 98.9267 15.1196C99.2016 14.942 99.4493 14.7391 99.6698 14.5145C99.8904 14.2899 100.084 14.0435 100.25 13.7826C100.416 13.5181 100.555 13.2355 100.667 12.9384C100.779 12.6377 100.864 12.3261 100.919 12.0036L100.915 12.0072Z" fill="white"/>
</svg>
