<svg width="53" height="53" viewBox="0 0 53 53" fill="none" xmlns="http://www.w3.org/2000/svg">
<g clip-path="url(#clip0_10_6758)">
<path d="M26.119 18.6933C24.9357 18.6933 23.8554 19.1425 23.0391 19.8788V18.4119C23.0391 16.7136 24.4207 15.3319 26.119 15.3319C26.8145 15.3319 27.4706 15.558 28.0166 15.9857C28.3478 16.2452 28.8267 16.1869 29.086 15.8558C29.3455 15.5246 29.2873 15.0458 28.9561 14.7864C28.1394 14.1467 27.1584 13.8086 26.119 13.8086C23.5807 13.8086 21.5156 15.8737 21.5156 18.412V23.7548C21.5156 26.2932 23.5807 28.3582 26.119 28.3582C28.6574 28.3582 30.7225 26.2932 30.7225 23.7548V23.2968C30.7225 20.7584 28.6574 18.6933 26.119 18.6933ZM29.199 23.7547C29.199 25.453 27.8174 26.8347 26.119 26.8347C24.4207 26.8347 23.0391 25.453 23.0391 23.7547V23.2968C23.0391 21.5984 24.4207 20.2168 26.119 20.2168C27.8174 20.2168 29.199 21.5984 29.199 23.2968V23.7547Z" fill="white"/>
<path d="M17.3796 19.2644C17.9523 18.6852 18.3063 17.8896 18.3063 17.0127C18.3063 15.2459 16.869 13.8086 15.1022 13.8086C14.3125 13.8086 13.5538 14.0985 12.9658 14.6247C12.6523 14.9054 12.6257 15.3869 12.9063 15.7003C13.187 16.0137 13.6684 16.0404 13.9819 15.7598C14.29 15.484 14.688 15.332 15.1022 15.332C16.029 15.332 16.7829 16.0859 16.7829 17.0127C16.7829 17.9394 16.029 18.6934 15.1022 18.6934C14.6816 18.6934 14.3405 19.0344 14.3405 19.4552C14.3405 19.8758 14.6816 20.2169 15.1022 20.2169C16.9268 20.2169 18.4112 21.7012 18.4112 23.5258C18.411 25.3505 16.9266 26.8349 15.102 26.8349C14.0505 26.8349 13.0851 26.3517 12.4531 25.5092C12.2006 25.1727 11.7232 25.1046 11.3867 25.357C11.0502 25.6094 10.982 26.0869 11.2344 26.4234C12.1569 27.653 13.5666 28.3582 15.1021 28.3582C17.7667 28.3582 19.9346 26.1904 19.9346 23.5258C19.9346 21.6842 18.8989 20.0798 17.3796 19.2644Z" fill="white"/>
<path d="M36.6754 13.8086C34.2352 13.8086 32.25 15.7937 32.25 18.234V23.933C32.25 26.3731 34.2352 28.3583 36.6754 28.3583C39.1155 28.3583 41.1008 26.3731 41.1008 23.933V18.234C41.1008 15.7938 39.1155 13.8086 36.6754 13.8086ZM39.5773 23.933C39.5773 25.5331 38.2755 26.8349 36.6754 26.8349C35.0753 26.8349 33.7734 25.5331 33.7734 23.933V18.234C33.7734 16.6339 35.0753 15.332 36.6754 15.332C38.2755 15.332 39.5773 16.6339 39.5773 18.234V23.933Z" fill="white"/>
<path d="M43.1916 8.92383C41.6492 8.92383 40.3945 10.1785 40.3945 11.721C40.3945 13.2633 41.6492 14.518 43.1916 14.518C44.7339 14.518 45.9887 13.2633 45.9887 11.721C45.9887 10.1786 44.734 8.92383 43.1916 8.92383ZM43.1916 12.9947C42.4893 12.9947 41.918 12.4234 41.918 11.7211C41.918 11.0187 42.4893 10.4474 43.1916 10.4474C43.8939 10.4474 44.4653 11.0187 44.4653 11.7211C44.4653 12.4234 43.894 12.9947 43.1916 12.9947Z" fill="white"/>
<path d="M27.7557 41.7706L22.926 39.1416C22.5566 38.9405 22.094 39.0769 21.8928 39.4464C21.6916 39.8159 21.8282 40.2785 22.1977 40.4796L23.9278 41.4213C18.2808 41.1239 13.0551 39.85 9.00312 37.7587C4.50227 35.4358 2.02344 32.405 2.02344 29.2249C2.02344 25.3593 5.79374 21.6614 12.109 19.333C12.5037 19.1874 12.7057 18.7495 12.5601 18.3548C12.4146 17.9602 11.977 17.7581 11.5819 17.9037C8.27756 19.122 5.52359 20.7541 3.61756 22.6235C1.57798 24.6238 0.5 26.9065 0.5 29.2249C0.5 33.0035 3.27174 36.515 8.30447 39.1126C12.5263 41.2916 17.9412 42.6217 23.7747 42.9383L21.9618 43.5943C21.5662 43.7374 21.3615 44.1741 21.5048 44.5697C21.6169 44.8797 21.9094 45.0725 22.2211 45.0725C22.3071 45.0725 22.3946 45.0577 22.4803 45.0268L27.6509 43.1557C27.9327 43.0537 28.1286 42.7958 28.1512 42.4969C28.1739 42.198 28.0191 41.9139 27.7557 41.7706Z" fill="white"/>
<path d="M51.2668 31.8392C50.8914 31.6496 50.4332 31.8004 50.2435 32.1759C50.1342 32.3923 50.0111 32.6103 49.8776 32.824C49.6546 33.1808 49.7631 33.6507 50.1199 33.8736C50.2454 33.9522 50.385 33.9895 50.5228 33.9895C50.7767 33.9895 51.025 33.8626 51.1695 33.6314C51.3275 33.3787 51.4734 33.1201 51.6034 32.8625C51.793 32.487 51.6423 32.0289 51.2668 31.8392Z" fill="white"/>
<path d="M48.4992 35.6379C48.2315 35.3133 47.7515 35.2673 47.4271 35.5351C47.0155 35.8747 46.5661 36.2085 46.0912 36.5272C45.7419 36.7616 45.6488 37.2347 45.8832 37.5841C46.0302 37.8032 46.271 37.9215 46.5163 37.9215C46.6623 37.9215 46.8099 37.8797 46.9401 37.7922C47.4565 37.4457 47.9465 37.0817 48.3966 36.7103C48.7211 36.4425 48.767 35.9625 48.4992 35.6379Z" fill="white"/>
<path d="M43.7861 38.7289C43.6133 38.3453 43.1624 38.1743 42.7787 38.3473C42.2762 38.5736 41.7495 38.7921 41.2132 38.9967C40.8201 39.1466 40.6229 39.5867 40.7729 39.9798C40.8888 40.2836 41.1779 40.4703 41.4848 40.4703C41.5749 40.4703 41.6668 40.4542 41.756 40.4202C42.3202 40.2049 42.8748 39.9749 43.4045 39.7362C43.788 39.5634 43.9588 39.1124 43.7861 38.7289Z" fill="white"/>
<path d="M38.4906 40.698C38.3856 40.2906 37.9699 40.0453 37.5629 40.1502C37.021 40.2898 36.4619 40.4206 35.9012 40.5392C35.4896 40.6262 35.2265 41.0304 35.3135 41.442C35.3892 41.8004 35.7056 42.0463 36.058 42.0463C36.1102 42.0463 36.1633 42.0409 36.2164 42.0296C36.7987 41.9065 37.3797 41.7706 37.9428 41.6255C38.3502 41.5206 38.5955 41.1053 38.4906 40.698Z" fill="white"/>
<path d="M32.9525 41.828C32.9027 41.4103 32.524 41.1117 32.106 41.1617C31.8436 41.193 31.5758 41.2225 31.3101 41.2494C30.8916 41.2917 30.5866 41.6654 30.6289 42.0839C30.6686 42.4765 30.9996 42.769 31.3859 42.769C31.4116 42.769 31.4375 42.7676 31.4636 42.765C31.7382 42.7372 32.015 42.7067 32.2862 42.6744C32.704 42.6246 33.0022 42.2457 32.9525 41.828Z" fill="white"/>
<path d="M50.118 23.4052C48.6423 21.705 46.5573 20.2074 43.921 18.9539C43.5408 18.7732 43.0866 18.9348 42.906 19.3147C42.7254 19.6947 42.8869 20.1491 43.2668 20.3297C48.1655 22.6589 50.9751 25.901 50.9751 29.2247C50.9751 29.6454 51.3162 29.9864 51.7368 29.9864C52.1575 29.9864 52.4986 29.6454 52.4986 29.2247C52.4986 27.183 51.6976 25.2251 50.118 23.4052Z" fill="white"/>
</g>
<defs>
<clipPath id="clip0_10_6758">
<rect width="52" height="52" fill="white" transform="translate(0.5 0.998047)"/>
</clipPath>
</defs>
</svg>
