<svg width="20" height="20" viewBox="0 0 20 20" fill="none" xmlns="http://www.w3.org/2000/svg">
<g clip-path="url(#clip0_10_17667)">
<path d="M19.3374 18.438L1.30631 0.406919C1.14625 0.246862 0.875652 0.260579 0.701187 0.435044C0.526721 0.609509 0.515159 0.877952 0.675216 1.03801L18.7043 19.0671C18.8644 19.2272 19.1328 19.2156 19.3073 19.0411C19.4817 18.8667 19.4933 18.5982 19.3333 18.4382L19.3374 18.438Z" fill="#9F694F"/>
<path d="M18.7041 0.405294L0.673032 18.4364C0.512976 18.5964 0.526692 18.867 0.701157 19.0415C0.875622 19.216 1.14407 19.2275 1.30412 19.0675L19.3332 1.03836C19.4933 0.878303 19.4817 0.609858 19.3073 0.435393C19.1328 0.260928 18.8643 0.249367 18.7043 0.409424L18.7041 0.405294Z" fill="#9F694F"/>
</g>
<defs>
<clipPath id="clip0_10_17667">
<rect width="20" height="20" fill="white" transform="matrix(-1 0 0 1 20 0)"/>
</clipPath>
</defs>
</svg>
