<svg width="20" height="20" viewBox="0 0 20 20" fill="none" xmlns="http://www.w3.org/2000/svg">
<path d="M18.9526 18.3193L0.92154 0.288267C0.761484 0.12821 0.490886 0.141926 0.316421 0.316392C0.141956 0.490857 0.130394 0.7593 0.29045 0.919357L18.3196 18.9485C18.4796 19.1085 18.7481 19.097 18.9225 18.9225C19.097 18.748 19.1085 18.4796 18.9485 18.3195L18.9526 18.3193Z" fill="white"/>
<path d="M18.3193 0.286641L0.288267 18.3177C0.12821 18.4778 0.141926 18.7484 0.316392 18.9228C0.490857 19.0973 0.7593 19.1089 0.919357 18.9488L18.9485 0.919708C19.1085 0.759651 19.097 0.491206 18.9225 0.316741C18.748 0.142276 18.4796 0.130715 18.3195 0.290772L18.3193 0.286641Z" fill="white"/>
</svg>
