<svg width="32" height="32" viewBox="0 0 32 32" fill="none" xmlns="http://www.w3.org/2000/svg">
<g clip-path="url(#clip0_10_19163)">
<path d="M27.3137 4.68625C24.2917 1.66425 20.2737 0 16 0C11.7263 0 7.70831 1.66425 4.68631 4.68631C1.66431 7.70831 0 11.7263 0 16.0001C0 20.2738 1.66425 24.2918 4.68625 27.3138C7.70825 30.3357 11.7262 32 15.9999 32C20.2737 32 24.2917 30.3357 27.3137 27.3137C30.3357 24.2917 32 20.2738 32 16C32 11.7262 30.3357 7.70831 27.3137 4.68625ZM25.9879 25.9879C23.32 28.6558 19.7729 30.125 15.9999 30.125C12.227 30.125 8.67988 28.6558 6.01206 25.9879C3.34419 23.3201 1.875 19.773 1.875 16.0001C1.875 12.2271 3.34431 8.68 6.01213 6.01213C8.68 3.34425 12.2271 1.875 16 1.875C19.7729 1.875 23.32 3.34425 25.9879 6.01206C31.4951 11.5194 31.4951 20.4806 25.9879 25.9879Z" fill="#EC2327"/>
<path d="M23.0532 21.7276L17.3257 16.0001L23.0532 10.2725C23.4193 9.9064 23.4193 9.31284 23.0532 8.94677C22.6871 8.58065 22.0935 8.58065 21.7273 8.94677L15.9998 14.6743L10.2723 8.94671C9.90622 8.58059 9.31259 8.58059 8.94647 8.94671C8.58034 9.31284 8.58034 9.9064 8.94647 10.2725L14.674 16.0001L8.94647 21.7276C8.58034 22.0938 8.58034 22.6873 8.94647 23.0535C9.12953 23.2365 9.36947 23.328 9.60934 23.328C9.84928 23.328 10.0892 23.2365 10.2723 23.0535L15.9998 17.3259L21.7274 23.0535C21.9105 23.2365 22.1504 23.328 22.3903 23.328C22.6303 23.328 22.8702 23.2365 23.0532 23.0535C23.4193 22.6873 23.4193 22.0938 23.0532 21.7276Z" fill="#EC2327"/>
</g>
<defs>
<clipPath id="clip0_10_19163">
<rect width="32" height="32" fill="white"/>
</clipPath>
</defs>
</svg>
