<svg width="44" height="43" viewBox="0 0 44 43" fill="none" xmlns="http://www.w3.org/2000/svg">
<mask id="path-1-outside-1_10_18129" maskUnits="userSpaceOnUse" x="0.813477" y="0.303467" width="43" height="43" fill="black">
<rect fill="white" x="0.813477" y="0.303467" width="43" height="43"/>
<path fill-rule="evenodd" clip-rule="evenodd" d="M22.0045 38.6855C31.4988 38.6855 39.1955 30.9888 39.1955 21.4945C39.1955 12.0001 31.4988 4.30347 22.0045 4.30347C12.5102 4.30347 4.81348 12.0001 4.81348 21.4945C4.81348 30.9888 12.5102 38.6855 22.0045 38.6855ZM18.1829 28.9386L29.6436 21.4947L18.1829 14.0507V28.9386Z"/>
</mask>
<path fill-rule="evenodd" clip-rule="evenodd" d="M22.0045 38.6855C31.4988 38.6855 39.1955 30.9888 39.1955 21.4945C39.1955 12.0001 31.4988 4.30347 22.0045 4.30347C12.5102 4.30347 4.81348 12.0001 4.81348 21.4945C4.81348 30.9888 12.5102 38.6855 22.0045 38.6855ZM18.1829 28.9386L29.6436 21.4947L18.1829 14.0507V28.9386Z" fill="#9EA6B3"/>
<path d="M29.6436 21.4947L31.8224 24.8492L36.987 21.4947L31.8224 18.1402L29.6436 21.4947ZM18.1829 28.9386H14.1829V36.3064L20.3617 32.2931L18.1829 28.9386ZM18.1829 14.0507L20.3617 10.6962L14.1829 6.68298V14.0507H18.1829ZM35.1955 21.4945C35.1955 28.7797 29.2897 34.6855 22.0045 34.6855V42.6855C33.708 42.6855 43.1955 33.198 43.1955 21.4945H35.1955ZM22.0045 8.30347C29.2897 8.30347 35.1955 14.2093 35.1955 21.4945H43.1955C43.1955 9.79101 33.708 0.303467 22.0045 0.303467V8.30347ZM8.81348 21.4945C8.81348 14.2093 14.7193 8.30347 22.0045 8.30347V0.303467C10.301 0.303467 0.813477 9.79101 0.813477 21.4945H8.81348ZM22.0045 34.6855C14.7193 34.6855 8.81348 28.7797 8.81348 21.4945H0.813477C0.813477 33.198 10.301 42.6855 22.0045 42.6855V34.6855ZM27.4647 18.1402L16.0041 25.5841L20.3617 32.2931L31.8224 24.8492L27.4647 18.1402ZM16.0041 17.4053L27.4647 24.8492L31.8224 18.1402L20.3617 10.6962L16.0041 17.4053ZM22.1829 28.9386V14.0507H14.1829V28.9386H22.1829Z" fill="#9EA6B3" fill-opacity="0.17" mask="url(#path-1-outside-1_10_18129)"/>
</svg>
