<svg width="86" height="99" viewBox="0 0 86 99" fill="none" xmlns="http://www.w3.org/2000/svg">
<g clip-path="url(#clip0_10_18510)">
<path d="M35.2044 40.626C35.4056 43.1907 35.9085 45.7555 36.512 48.3203C37.2161 50.9876 38.0208 53.655 39.0266 56.2198C39.429 57.2457 39.9319 58.3742 40.4348 59.4001C40.9378 60.426 41.1389 61.5545 41.2395 62.7856C41.4407 65.2477 41.3401 67.7099 41.2395 70.1721C41.0383 74.8913 40.9378 79.6104 41.7424 84.1244C42.1448 86.2788 42.7483 88.3306 43.553 90.2799C44.3576 92.1265 45.3635 94.1783 46.7717 95.512C47.4758 96.2301 48.381 96.6405 49.2863 96.5379C50.1916 96.4353 51.0968 95.9223 51.3986 94.999C51.7003 93.9731 51.5997 92.8446 51.5997 91.8187C51.5997 90.5876 51.7003 89.3565 51.7003 88.228C51.8009 84.227 51.9015 80.1234 53.6114 76.4301C54.5167 78.6871 55.3214 81.7648 55.5226 86.0736C55.7237 91.5109 56.7296 98.0768 59.8477 98.8975C60.0489 98.8975 60.1495 99.0001 60.3506 99.0001C60.753 99.0001 61.2559 98.8975 61.8594 98.4871C64.374 96.7431 66.084 90.8954 66.5869 86.0736C66.9892 82.7907 67.1904 79.6104 67.1904 77.1483C67.4921 77.456 67.6933 77.7638 67.8945 78.0716C69.8056 80.8415 70.0068 84.4322 70.1073 87.7151C70.2079 89.3565 70.2079 90.998 70.3085 92.6394C70.4091 94.1783 70.6103 96.1275 72.2196 96.7431C74.0302 97.4612 75.3378 95.512 76.243 94.1783C77.2489 92.6394 78.0535 90.8954 78.6571 89.1514C79.7635 86.1762 80.367 82.9959 80.8699 79.8156C81.574 75.6094 80.5682 71.3006 80.2664 67.0944C80.1658 64.94 80.0652 62.7856 80.6687 60.7337C80.9705 59.6052 81.4734 58.6819 81.8758 57.5534C82.3787 56.4249 82.8816 55.2964 83.284 54.0653C84.491 50.885 85.1951 47.397 85.698 44.0115C85.9997 41.3441 86.2009 38.5742 85.3962 35.9068C84.7927 33.6498 83.3845 31.8032 81.1717 31.085C78.2547 30.0591 74.8348 31.085 72.0185 32.1109C71.1132 32.4187 71.5155 33.9576 72.4208 33.5472C73.3261 33.2394 74.1307 32.9317 75.036 32.6239C77.2489 32.0084 80.0652 31.598 81.9764 33.1368C83.4851 34.3679 84.0886 36.5223 84.1892 38.4716C84.3904 41.2415 84.0886 44.0115 83.4851 46.7814C83.1834 48.3203 82.781 49.7565 82.3787 51.1928C81.7752 53.4498 80.7693 55.6042 79.8641 57.656C78.0535 61.4519 78.3553 65.7607 78.8582 69.8643C79.0594 71.9161 79.3611 74.0705 79.4617 76.1223C79.4617 77.6612 79.2606 79.0975 79.0594 80.6363C78.4559 83.8166 77.7518 87.0996 76.4442 90.0747C75.7401 91.6135 74.9354 93.255 73.7284 94.4861C73.2255 94.999 72.7225 95.3068 72.2196 94.6913C71.8173 94.1783 71.8173 93.3576 71.7167 92.742C71.0126 86.6892 72.3202 78.9949 66.8886 74.8913C66.8886 73.5576 66.9892 72.6343 66.9892 72.5317C67.0898 72.1213 66.788 71.7109 66.3857 71.6084C65.9834 71.5058 65.581 71.8135 65.4804 72.2239C65.4804 72.3265 65.1787 73.5576 65.3799 75.5068C65.581 77.969 65.3799 81.8674 64.8769 85.7659C64.374 90.8954 62.5635 95.8197 60.8535 97.0508C60.4512 97.3586 60.1495 97.256 60.0489 97.256C58.3389 96.8457 57.1319 92.3317 56.8302 85.8685C56.5284 78.4819 54.4161 74.2757 52.8068 72.0187C52.6056 71.7109 52.1027 71.6084 51.8009 71.9161C51.4992 72.1213 51.3986 72.6343 51.7003 73.0446C52.0021 73.455 52.4044 73.9679 52.7062 74.6861C52.3038 75.4042 52.0021 76.0198 51.7003 76.7379C50.091 80.8415 50.1916 85.4581 50.091 89.7669C50.091 90.998 49.9904 92.1265 49.9904 93.3576C49.9904 94.1783 49.9904 95.2042 48.8839 94.999C47.9787 94.7938 47.3752 93.9731 46.8723 93.255C46.2687 92.4343 45.7658 91.5109 45.3635 90.6902C41.4407 82.7907 42.7483 73.5576 42.6477 65.0426C42.6477 62.7856 42.5471 60.7337 41.6418 58.6819C40.8372 57.0405 40.1331 55.399 39.6302 53.655C38.8255 51.2954 38.1214 48.8332 37.6185 46.371C37.1155 44.1141 36.7132 41.7545 36.7132 39.3949C36.7132 37.5482 36.9144 35.599 37.719 33.9576C38.5237 32.5213 39.8313 31.7006 41.4407 31.3928C43.9553 31.085 46.6711 31.9058 48.9845 32.9317C49.8898 33.342 50.2921 31.8032 49.3869 31.4954C48.5822 31.1876 47.7775 30.8799 46.8723 30.5721C44.6594 29.8539 41.9436 29.4436 39.6302 30.2643C37.8196 30.9824 36.6126 32.3161 35.9085 34.1628C35.1038 36.2146 35.0033 38.4716 35.2044 40.626Z" fill="#D1D5DB"/>
<path d="M79.7625 46.8839C79.9636 52.5264 76.7449 57.3482 75.9402 62.7855C75.8396 63.1959 75.3367 63.401 75.035 63.2984C74.6326 63.1959 74.4315 62.7855 74.532 62.3751C75.2361 57.0404 78.4549 52.3212 78.2537 46.8839C78.2537 45.858 79.7625 45.858 79.7625 46.8839Z" fill="#D1D5DB"/>
<path d="M43.7532 56.63C41.5403 51.9108 39.9309 46.8839 39.5286 41.6518C39.428 40.6258 40.9368 40.6258 41.0374 41.6518C41.5403 46.5761 43.0491 51.3979 45.0608 55.8093C45.4631 56.7326 44.1555 57.5533 43.7532 56.63Z" fill="#D1D5DB"/>
<path d="M59.4453 34.0601C59.4453 33.6497 59.7471 33.2394 60.25 33.2394C60.7529 33.2394 61.0547 33.5472 61.0547 34.0601V37.7534C61.0547 38.1637 60.7529 38.5741 60.25 38.5741C59.7471 38.5741 59.4453 38.2663 59.4453 37.7534V34.0601Z" fill="#D0B5A9"/>
<path d="M59.4453 26.571C59.4453 26.1606 59.7471 25.7502 60.25 25.7502C60.7529 25.7502 61.0547 26.058 61.0547 26.571V30.2642C61.0547 30.6746 60.7529 31.085 60.25 31.085C59.7471 31.085 59.4453 30.7772 59.4453 30.2642V26.571Z" fill="#D0B5A9"/>
<path d="M60.1484 40.7285C60.5508 40.7285 60.9531 41.0363 60.9531 41.5492V43.6011C60.9531 44.0114 60.6514 44.4218 60.1484 44.4218C59.6455 44.4218 59.3438 44.114 59.3438 43.6011V41.5492C59.4444 41.0363 59.7461 40.7285 60.1484 40.7285Z" fill="#D0B5A9"/>
<path d="M70.0067 36.9327C69.9061 37.0353 69.7049 37.0352 69.6043 37.0352C69.4032 37.0352 69.1014 36.9327 69.0008 36.6249L66.8885 33.1368C66.6874 32.829 66.788 32.3161 67.0897 32.1109C67.4921 31.9057 67.8944 32.0083 68.0956 32.3161L70.2078 35.9068C70.409 36.3171 70.3084 36.7275 70.0067 36.9327Z" fill="#D0B5A9"/>
<path d="M65.3797 30.1616C65.1786 30.1616 64.8768 30.059 64.7762 29.7512L62.6639 26.2631C62.4628 25.8528 62.5633 25.4424 62.8651 25.2372C63.1669 25.0321 63.6698 25.1346 63.8709 25.4424L65.9832 28.9305C66.1844 29.2383 66.0838 29.7512 65.7821 29.9564C65.6815 30.1616 65.5809 30.1616 65.3797 30.1616Z" fill="#D0B5A9"/>
<path d="M72.3211 39.3949L73.327 41.1389C73.5281 41.4467 73.4276 41.9596 73.1258 42.1648C73.0252 42.2674 72.8241 42.2674 72.7235 42.2674C72.5223 42.2674 72.2205 42.1648 72.12 41.857L71.1141 40.113C70.9129 39.8052 71.0135 39.2923 71.3153 39.0871C71.617 38.8819 72.12 38.9845 72.3211 39.3949Z" fill="#D0B5A9"/>
<path d="M58.8407 23.1855C58.4383 22.9803 58.3378 22.4673 58.5389 22.1595L59.5448 20.4155C59.5448 20.4155 59.5448 20.4155 59.6454 20.3129C59.6454 20.3129 59.6454 20.2103 59.7459 20.2103C59.7459 20.2103 59.7459 20.2103 59.8465 20.2103H59.9471H60.0477H60.1483C60.1483 20.2103 60.1483 20.2103 60.2489 20.2103H60.3495H60.45H60.5506C60.5506 20.2103 60.5506 20.2103 60.6512 20.3129C60.6512 20.3129 60.7518 20.3129 60.7518 20.4155C60.7518 20.4155 60.7518 20.4155 60.8524 20.5181L61.8582 22.2621C62.0594 22.6725 61.9588 23.0829 61.6571 23.288C61.5565 23.3906 61.3553 23.3906 61.2547 23.3906C61.1541 23.3906 60.953 23.3906 60.8524 23.288C60.7518 23.4932 60.45 23.6984 60.1483 23.6984C59.8465 23.6984 59.6454 23.5958 59.5448 23.288C59.4442 23.3906 59.3436 23.3906 59.1424 23.3906C59.0419 23.3906 58.9413 23.288 58.8407 23.1855Z" fill="#D0B5A9"/>
<path d="M51.1963 37.4456C51.0957 37.4456 50.8946 37.4456 50.794 37.3431C50.3916 37.1379 50.2911 36.6249 50.4922 36.3171L52.5039 32.8291C52.7051 32.4187 53.208 32.3161 53.5098 32.5213C53.9121 32.7265 54.0127 33.2394 53.8115 33.5472L51.7998 37.0353C51.6992 37.3431 51.4981 37.4456 51.1963 37.4456Z" fill="#D0B5A9"/>
<path d="M55.2198 30.3668C55.1192 30.3668 54.918 30.3668 54.8174 30.2642C54.4151 30.059 54.3145 29.5461 54.5157 29.2383L56.5274 25.7502C56.7285 25.3398 57.2315 25.2373 57.5332 25.4424C57.9355 25.6476 58.0361 26.1606 57.835 26.4683L55.8233 29.9564C55.7227 30.2642 55.5215 30.3668 55.2198 30.3668Z" fill="#D0B5A9"/>
<path d="M48.2803 42.7803C48.1797 42.7803 47.9785 42.7803 47.878 42.6777C47.4756 42.4726 47.375 41.9596 47.5762 41.6518L48.582 39.9078C48.7832 39.4974 49.2861 39.3948 49.5879 39.6C49.9902 39.8052 50.0908 40.3182 49.8896 40.6259L48.8838 42.37C48.7832 42.6777 48.4815 42.7803 48.2803 42.7803Z" fill="#D0B5A9"/>
<path d="M0.70388 3.38549H11.567V2.87254C11.567 2.46218 11.8688 2.05181 12.3717 2.05181H40.636C41.8431 2.05181 42.9495 2.66736 43.7542 3.59067H53.008V1.94922C53.008 0.923316 53.8127 0 54.8185 0H65.6817C66.6875 0 67.4922 0.820725 67.4922 1.94922V14.7731C67.4922 15.5938 67.0898 16.2093 66.4863 16.5171V17.6456C66.4863 18.6715 65.6817 19.4922 64.6758 19.4922H55.8244C54.8185 19.4922 54.0138 18.6715 54.0138 17.6456V16.5171C53.4103 16.2093 53.008 15.4912 53.008 14.7731V13.029H43.7542C43.0501 13.9523 41.9437 14.5679 40.636 14.5679H12.2711C11.8688 14.5679 11.4665 14.2601 11.4665 13.7471V13.2342H0.70388C0.301544 13.2342 -0.100792 12.9264 -0.100792 12.4135V4.20622C-0.000205994 3.79585 0.301544 3.38549 0.70388 3.38549ZM55.7238 17.8508H64.5752C64.6758 17.8508 64.7764 17.7482 64.7764 17.6456V16.7223H55.422V17.6456C55.5226 17.7482 55.6232 17.8508 55.7238 17.8508ZM54.5167 14.7731C54.5167 14.9782 54.7179 15.1834 54.7179 15.1834H65.6817C65.7822 15.1834 65.8828 14.9782 65.8828 14.7731V1.94922C65.8828 1.74404 65.7822 1.53886 65.6817 1.53886H54.8185C54.7179 1.53886 54.6173 1.74404 54.6173 1.94922V3.69326H55.3214C57.836 3.69326 59.8477 5.74508 59.8477 8.30984C59.8477 10.8746 57.836 12.9264 55.3214 12.9264H54.6173V14.7731H54.5167ZM55.2208 11.4902C56.9308 11.4902 58.2384 10.0539 58.2384 8.41243C58.2384 6.66839 56.8302 5.33471 55.2208 5.33471H44.4583C44.5589 5.64249 44.5589 5.95026 44.5589 6.25803V10.5668C44.5589 10.8746 44.5589 11.1824 44.4583 11.4902H55.2208ZM13.0758 13.029H40.636C41.9437 13.029 43.0501 11.9005 43.0501 10.5668V6.15544C43.0501 4.71917 41.9437 3.69326 40.636 3.69326H12.9752V4.20622V12.5161V13.029H13.0758ZM1.50857 11.6953H11.567V4.92435H1.50857V11.6953Z" fill="#D0B5A9"/>
</g>
<defs>
<clipPath id="clip0_10_18510">
<rect width="86" height="99" fill="white" transform="matrix(-1 0 0 1 86 0)"/>
</clipPath>
</defs>
</svg>
