<svg width="150" height="150" viewBox="0 0 150 150" fill="none" xmlns="http://www.w3.org/2000/svg">
<circle cx="75" cy="75" r="75" fill="#231F20"/>
<circle cx="75" cy="75" r="33" fill="white" fill-opacity="0.08"/>
<path d="M131.581 79.2919C131.66 78.1506 132.095 77.2363 132.885 76.5489C133.675 75.8687 134.644 75.5686 135.792 75.6486C136.941 75.7286 137.863 76.1603 138.558 76.9438C139.253 77.7347 139.561 78.7007 139.482 79.842C139.423 80.6833 139.156 81.3998 138.682 81.9916C138.206 82.5907 137.583 82.9957 136.811 83.2066L136.837 82.8335C137.506 82.6228 138.042 82.2522 138.447 81.7216C138.851 81.1984 139.079 80.5637 139.13 79.8175C139.202 78.786 138.921 77.91 138.288 77.1896C137.661 76.477 136.821 76.0841 135.767 76.0107C135.08 75.9629 134.451 76.0698 133.881 76.3315C133.311 76.6006 132.854 76.9951 132.509 77.5151C132.172 78.0356 131.979 78.636 131.932 79.3163C131.878 80.0845 132.026 80.7637 132.375 81.354C132.723 81.9516 133.236 82.399 133.913 82.6961L133.887 83.0692C133.108 82.7503 132.514 82.2569 132.105 81.5888C131.695 80.9208 131.521 80.1552 131.581 79.2919Z" fill="white"/>
<path d="M129.222 92.7967L129.306 92.4435L136.407 92.873L130.618 88.4593L130.648 88.3309L137.792 87.0175L131.278 84.1723L131.362 83.8192L138.535 86.9349L138.461 87.2452L131.278 88.5377L137.099 92.9591L137.023 93.2801L129.222 92.7967Z" fill="white"/>
<path d="M126.996 100.632C126.605 99.6484 126.638 98.628 127.094 97.5708C127.55 96.5137 128.27 95.7901 129.252 95.4C130.242 95.0128 131.255 95.0433 132.292 95.4914C132.978 95.7881 133.531 96.2107 133.949 96.759C134.374 97.3102 134.625 97.9337 134.7 98.6293C134.775 99.3249 134.663 100.02 134.364 100.713C133.908 101.77 133.185 102.492 132.196 102.88C131.213 103.27 130.196 103.238 129.146 102.784C128.103 102.333 127.386 101.616 126.996 100.632ZM127.417 97.7105C127.002 98.6734 126.974 99.5999 127.332 100.49C127.688 101.387 128.341 102.04 129.29 102.45C130.246 102.864 131.172 102.892 132.068 102.537C132.968 102.191 133.626 101.536 134.041 100.573C134.453 99.6172 134.478 98.6893 134.116 97.7896C133.753 96.8899 133.097 96.2349 132.148 95.8247C131.529 95.557 130.906 95.4555 130.279 95.5201C129.659 95.5876 129.095 95.8113 128.588 96.1912C128.08 96.5711 127.69 97.0775 127.417 97.7105Z" fill="white"/>
<path d="M128.971 110.58L128.678 110.404L129.969 108.254L123.662 104.461L123.849 104.15L130.156 107.942L131.446 105.792L131.739 105.968L128.971 110.58Z" fill="white"/>
<path d="M126.214 114.358C125.798 114.909 125.276 115.235 124.647 115.339C124.017 115.442 123.44 115.294 122.913 114.896C122.381 114.494 122.079 113.975 122.006 113.341C121.929 112.713 122.101 112.121 122.52 111.565L123.866 109.782L121.418 107.931L121.63 107.65L127.771 112.295L126.214 114.358ZM122.808 111.768C122.45 112.242 122.303 112.747 122.367 113.283C122.427 113.825 122.682 114.266 123.132 114.607C123.576 114.943 124.067 115.066 124.604 114.975C125.136 114.891 125.582 114.611 125.94 114.137L127.278 112.364L124.147 109.995L122.808 111.768Z" fill="white"/>
<path d="M117.739 113.128L115.05 115.96L114.795 115.718L117.726 112.631L123.305 117.938L120.457 120.937L120.202 120.695L122.808 117.95L120.52 115.774L118.112 118.311L117.865 118.076L120.273 115.539L117.739 113.128Z" fill="white"/>
<path d="M114.68 126.066L114.459 125.806L116.368 124.179L111.599 118.574L111.876 118.338L116.644 123.943L118.553 122.316L118.774 122.576L114.68 126.066Z" fill="white"/>
<path d="M109.106 126.253C108.525 126.65 107.923 126.796 107.3 126.689C106.67 126.587 106.165 126.257 105.785 125.7C105.412 125.155 105.293 124.57 105.426 123.946C105.559 123.322 105.913 122.813 106.488 122.419L108.685 120.916L113.028 127.275L112.737 127.474L111.013 124.948L109.106 126.253ZM106.69 122.695C106.199 123.03 105.896 123.464 105.78 123.997C105.669 124.535 105.772 125.038 106.09 125.504C106.409 125.97 106.837 126.246 107.375 126.331C107.917 126.423 108.433 126.3 108.923 125.965L110.82 124.667L108.587 121.397L106.69 122.695Z" fill="white"/>
<path d="M98.7891 131.188C98.5021 131.23 98.219 131.21 97.94 131.127C97.6609 131.045 97.4119 130.904 97.193 130.706C96.9674 130.51 96.791 130.272 96.6638 129.992C96.4184 129.451 96.4027 128.91 96.6166 128.37C96.8335 127.836 97.2424 127.433 97.8432 127.16L100.507 125.949L103.688 132.961L101.034 134.167C100.494 134.413 99.9753 134.451 99.4797 134.282C98.9872 134.119 98.6303 133.794 98.4091 133.307C98.2455 132.946 98.1991 132.568 98.2697 132.174C98.3433 131.786 98.5165 131.457 98.7891 131.188ZM100.829 133.874L103.222 132.786L101.932 129.941L99.4781 131.057C99.0909 131.233 98.8289 131.525 98.6921 131.933C98.5487 132.345 98.5633 132.741 98.736 133.122C98.9147 133.516 99.2064 133.786 99.611 133.932C100.016 134.079 100.422 134.059 100.829 133.874ZM97.9186 127.512C97.6181 127.649 97.3729 127.845 97.1828 128.1C96.9958 128.363 96.8867 128.646 96.8556 128.95C96.8208 129.264 96.8716 129.571 97.0079 129.871C97.2078 130.312 97.5344 130.615 97.9875 130.779C98.437 130.954 98.8887 130.938 99.3427 130.731L101.786 129.621L100.332 126.415L97.9186 127.512Z" fill="white"/>
<path d="M90.6248 137.792L90.3822 137.864L88.2017 130.479L88.5498 130.376L90.5278 137.075L93.4441 128.928L93.6762 128.859L95.8566 136.244L95.5191 136.344L93.5442 129.656L90.6248 137.792Z" fill="white"/>
<path d="M80.0502 132.133L79.2004 132.251L78.9224 130.258L79.2602 130.211L79.4911 131.867L86.289 130.917L86.0581 129.261L86.3959 129.214L86.6739 131.207L86.1182 131.285C86.0039 131.368 85.9092 131.459 85.8342 131.558C85.753 131.665 85.6825 131.798 85.6229 131.954C85.556 132.111 85.5081 132.325 85.4792 132.596C85.4503 132.867 85.429 133.166 85.4155 133.493C85.3957 133.829 85.3901 134.267 85.3987 134.806C85.4072 135.346 85.4245 135.921 85.4504 136.532C85.4764 137.143 85.5112 137.897 85.5549 138.794L81.0665 139.421L80.0502 132.133ZM85.1809 138.502C85.0853 136.701 85.0349 135.357 85.0296 134.469C85.018 133.59 85.0597 132.906 85.1547 132.419C85.2424 131.933 85.4038 131.577 85.6389 131.352L80.4097 132.083L81.3789 139.033L85.1809 138.502Z" fill="white"/>
<path d="M77.2426 132.271L73.3377 132.302L73.335 131.95L77.5919 131.917L77.6513 139.617L73.5154 139.648L73.5127 139.296L77.2965 139.267L77.2722 136.11L73.7743 136.137L73.7717 135.796L77.2696 135.769L77.2426 132.271Z" fill="white"/>
<path d="M64.2229 132.021C65.0645 131.381 66.0558 131.138 67.1966 131.293C68.3375 131.448 69.2283 131.946 69.869 132.788C70.5088 133.637 70.7528 134.621 70.6012 135.741C70.5007 136.482 70.243 137.128 69.8279 137.678C69.4119 138.236 68.8792 138.645 68.2298 138.904C67.5804 139.164 66.8814 139.243 66.133 139.141C64.9921 138.986 64.1018 138.484 63.462 137.635C62.8213 136.793 62.5778 135.806 62.7314 134.672C62.8841 133.546 63.3812 132.662 64.2229 132.021ZM67.1494 131.642C66.1102 131.501 65.2106 131.723 64.4505 132.308C63.6831 132.892 63.23 133.696 63.0911 134.721C62.9512 135.753 63.1734 136.652 63.7576 137.42C64.3336 138.194 65.1411 138.651 66.1802 138.792C67.2121 138.933 68.1122 138.707 68.8806 138.116C69.649 137.524 70.1026 136.716 70.2415 135.692C70.3321 135.023 70.2617 134.396 70.0304 133.809C69.7981 133.23 69.4306 132.747 68.9279 132.361C68.4253 131.974 67.8324 131.735 67.1494 131.642Z" fill="white"/>
<path d="M52.4323 128.463C53.3901 128.015 54.4102 127.987 55.4925 128.38C56.5748 128.773 57.3402 129.448 57.7887 130.407C58.2347 131.372 58.2655 132.386 57.881 133.447C57.6264 134.151 57.2381 134.728 56.7163 135.178C56.192 135.635 55.585 135.922 54.8955 136.039C54.206 136.155 53.5062 136.085 52.7962 135.827C51.7139 135.434 50.9497 134.755 50.5037 133.79C50.0552 132.832 50.0257 131.815 50.4151 130.739C50.8021 129.67 51.4745 128.912 52.4323 128.463ZM55.3726 128.711C54.3868 128.353 53.4607 128.38 52.5943 128.791C51.721 129.2 51.1084 129.89 50.7564 130.863C50.4019 131.842 50.4291 132.768 50.838 133.642C51.2375 134.52 51.9302 135.138 52.916 135.496C53.8949 135.851 54.8223 135.821 55.6981 135.405C56.5739 134.99 57.1878 134.296 57.5398 133.324C57.7695 132.689 57.8332 132.061 57.7309 131.439C57.6261 130.824 57.3688 130.274 56.9592 129.79C56.5495 129.306 56.0206 128.946 55.3726 128.711Z" fill="white"/>
<path d="M43.3893 122.427L44.2565 127.401L45.3808 128.072L47.3385 124.782L47.6408 124.962L43.7029 131.579L43.4006 131.399L45.2008 128.374L44.0765 127.704L39.6876 129.185L39.2908 128.948L43.8869 127.398L42.9831 122.185L43.3893 122.427Z" fill="white"/>
<path d="M36.5741 126.982L33.1239 124.251L37.8967 118.209L38.1727 118.427L33.6113 124.202L36.5354 126.516L40.0859 122.607C41.0301 121.577 41.9852 121.445 42.9513 122.209L43.0893 122.318L42.8711 122.595L42.7331 122.485C41.9453 121.862 41.1607 121.98 40.3792 122.839L36.5741 126.982Z" fill="white"/>
<path d="M26.1628 117.36L25.9892 117.176L31.5873 111.889L31.8363 112.153L26.758 116.949L35.3371 115.868L35.5031 116.044L29.905 121.331L29.6636 121.074L34.7338 116.286L26.1628 117.36Z" fill="white"/>
<path d="M20.5239 109.784L20.317 109.486L26.6396 105.091L26.8466 105.389L23.6943 107.58L26.5032 111.629L29.6555 109.438L29.8561 109.728L23.5335 114.122L23.3329 113.833L26.2142 111.83L23.4052 107.781L20.5239 109.784Z" fill="white"/>
<path d="M15.9546 101.294L15.8425 101.068L22.7418 97.6487L22.9027 97.9741L16.644 101.076L25.1654 102.549L25.2727 102.766L18.3734 106.185L18.2173 105.87L24.4661 102.773L15.9546 101.294Z" fill="white"/>
<path d="M20.2615 90.7015L17.7005 95.052L18.1229 96.291L21.7453 95.0535L21.8589 95.3866L14.5724 97.8759L14.4588 97.5427L17.7898 96.4048L17.3674 95.1658L13.0637 93.451L12.9146 93.0137L17.4205 94.8105L20.1089 90.2538L20.2615 90.7015Z" fill="white"/>
<path d="M19.4797 88.9893L18.6611 85.1711L19.0053 85.0971L19.8976 89.2596L12.3693 90.8766L11.5023 86.8325L11.8465 86.7586L12.6397 90.4585L15.7263 89.7955L14.993 86.3752L15.3264 86.3036L16.0597 89.7239L19.4797 88.9893Z" fill="white"/>
<path d="M20.4374 79.6846L9.14465 80.6022L9.11798 80.2733L20.4108 79.3557L20.4374 79.6846Z" fill="white"/>
<path d="M18.4202 70.7712C18.3407 71.9124 17.9058 72.8268 17.1154 73.5144C16.3256 74.1946 15.3564 74.4948 14.2078 74.4151C13.0593 74.3353 12.1374 73.9037 11.4421 73.1203C10.7474 72.3296 10.4397 71.3636 10.5192 70.2224C10.5778 69.3811 10.8446 68.6645 11.3195 68.0727C11.795 67.4735 12.4186 67.0684 13.1905 66.8574L13.1645 67.2305C12.4956 67.4413 11.9588 67.812 11.5543 68.3426C11.1503 68.8659 10.9223 69.5006 10.8704 70.2468C10.7985 71.2783 11.0794 72.1542 11.7128 72.8745C12.3395 73.5869 13.1796 73.9798 14.2331 74.0529C14.9207 74.1007 15.5494 73.9937 16.1189 73.7318C16.689 73.4627 17.1465 73.0681 17.4915 72.5481C17.8291 72.0276 18.0217 71.4271 18.069 70.7468C18.1225 69.9786 17.975 69.2995 17.6265 68.7092C17.2785 68.1117 16.7657 67.6644 16.088 67.3674L16.114 66.9943C16.8931 67.313 17.4873 67.8064 17.8965 68.4744C18.3058 69.1423 18.4803 69.9079 18.4202 70.7712Z" fill="white"/>
<path d="M20.693 57.5391L20.6101 57.8925L13.5076 57.4901L19.3136 61.8818L19.2835 62.0103L12.1453 63.3509L18.6698 66.1712L18.587 66.5246L11.4022 63.4363L11.475 63.1257L18.6535 61.8059L12.8154 57.4067L12.8907 57.0854L20.693 57.5391Z" fill="white"/>
<path d="M22.8551 49.7425C23.2491 50.7246 23.2201 51.7451 22.768 52.804C22.3159 53.8628 21.5992 54.5891 20.6178 54.9828C19.6296 55.3737 18.6164 55.347 17.578 54.9028C16.8903 54.6086 16.3363 54.1882 15.9159 53.6414C15.4887 53.0918 15.2362 52.4693 15.1583 51.7739C15.0804 51.0786 15.1898 50.3836 15.4863 49.6889C15.9384 48.63 16.6586 47.9052 17.6467 47.5144C18.6281 47.1206 19.6448 47.1488 20.6966 47.5987C21.7416 48.0458 22.4611 48.7604 22.8551 49.7425ZM22.4444 52.6655C22.8562 51.7011 22.881 50.7745 22.5189 49.8858C22.1596 48.9903 21.5047 48.3392 20.554 47.9325C19.5966 47.523 18.6705 47.4977 17.7757 47.8567C16.877 48.206 16.2217 48.8629 15.81 49.8274C15.4011 50.7851 15.3796 51.7131 15.7456 52.6114C16.1116 53.5098 16.7699 54.1623 17.7206 54.569C18.3409 54.8343 18.9643 54.9335 19.5909 54.8666C20.2108 54.7968 20.7737 54.571 21.2796 54.1892C21.7854 53.8074 22.1737 53.2995 22.4444 52.6655Z" fill="white"/>
<path d="M20.8596 39.734L21.1525 39.9086L19.8699 42.0638L26.1904 45.8328L26.0048 46.1448L19.6842 42.3758L18.4016 44.531L18.1087 44.3563L20.8596 39.734Z" fill="white"/>
<path d="M23.5821 35.9591C23.9954 35.4074 24.5165 35.0788 25.1454 34.9733C25.7743 34.8677 26.3527 35.013 26.8805 35.4093C27.4142 35.8099 27.7184 36.3272 27.7933 36.9611C27.8725 37.5891 27.7033 38.1819 27.2856 38.7394L25.9466 40.5265L28.401 42.369L28.1899 42.6507L22.0321 38.0278L23.5821 35.9591ZM26.9975 38.5369C27.3536 38.0615 27.4987 37.5561 27.4327 37.0205C27.371 36.479 27.1144 36.0388 26.6628 35.6998C26.2171 35.3652 25.726 35.244 25.1895 35.3364C24.6573 35.4229 24.2131 35.7039 23.857 36.1792L22.5246 37.9575L25.6651 40.3151L26.9975 38.5369Z" fill="white"/>
<path d="M31.9676 37.2421L34.6461 34.4004L34.902 34.6421L31.9821 37.7399L26.384 32.453L29.2209 29.4432L29.4768 29.6849L26.8814 32.4385L29.1766 34.6061L31.5759 32.0607L31.8238 32.2948L29.4245 34.8403L31.9676 37.2421Z" fill="white"/>
<path d="M34.9067 24.3232L35.1286 24.5821L33.2259 26.2161L38.0148 31.8037L37.7395 32.0402L32.9505 26.4526L31.0478 28.0865L30.8259 27.8276L34.9067 24.3232Z" fill="white"/>
<path d="M40.7493 23.8948C41.3303 23.4972 41.9325 23.3517 42.5559 23.4583C43.1853 23.5608 43.6903 23.8906 44.0708 24.4477C44.443 24.9927 44.5625 25.5774 44.4294 26.2016C44.2963 26.8259 43.9422 27.3347 43.3673 27.7281L41.1704 29.2314L36.8278 22.8728L37.1183 22.674L38.8429 25.1993L40.7493 23.8948ZM43.1659 27.4528C43.6561 27.1173 43.9592 26.6833 44.075 26.1509C44.1868 25.6123 44.0834 25.1099 43.765 24.6436C43.4465 24.1773 43.0184 23.9016 42.4807 23.8163C41.9388 23.7251 41.4228 23.8472 40.9326 24.1826L39.0353 25.4809L41.2686 28.7511L43.1659 27.4528Z" fill="white"/>
<path d="M50.7414 19.0687C51.0282 19.0258 51.3113 19.0452 51.5907 19.1267C51.87 19.2083 52.1195 19.3479 52.3392 19.5456C52.5655 19.7403 52.7428 19.9777 52.8711 20.2577C53.1185 20.7977 53.1362 21.3382 52.9243 21.8793C52.7094 22.4137 52.302 22.8186 51.7022 23.0939L49.043 24.3146L45.8359 17.3143L48.4851 16.0982C49.0249 15.8504 49.543 15.8103 50.0392 15.9779C50.5324 16.1388 50.8904 16.4626 51.1134 16.9493C51.2783 17.3093 51.3262 17.6867 51.2571 18.0816C51.1849 18.4698 51.013 18.7988 50.7414 19.0687ZM48.6917 16.3907L46.3024 17.4874L47.6035 20.3276L50.0528 19.2033C50.4394 19.0258 50.7003 18.7326 50.8355 18.3235C50.9774 17.9114 50.9614 17.5153 50.7873 17.1353C50.607 16.742 50.3144 16.4729 49.9092 16.328C49.5041 16.1832 49.0982 16.204 48.6917 16.3907ZM51.6255 22.7418C51.9254 22.6041 52.17 22.4071 52.3591 22.1509C52.5451 21.888 52.6532 21.6044 52.6832 21.3001C52.7168 20.9861 52.6649 20.6791 52.5274 20.3791C52.3258 19.9391 51.9982 19.6376 51.5444 19.4747C51.0943 19.3021 50.6426 19.3198 50.1894 19.5279L47.7502 20.6476L49.2162 23.8477L51.6255 22.7418Z" fill="white"/>
<path d="M59.1311 12.3291L59.3737 12.2573L61.5541 19.6421L61.206 19.7451L59.2281 13.046L56.3117 21.193L56.0797 21.2617L53.8992 13.8769L54.2368 13.777L56.2116 20.4655L59.1311 12.3291Z" fill="white"/>
<path d="M69.7291 17.9466L70.5789 17.8279L70.8569 19.8216L70.5191 19.8688L70.2882 18.2128L63.4903 19.1626L63.7212 20.8185L63.3834 20.8657L63.1054 18.872L63.6611 18.7944C63.7754 18.7118 63.8701 18.6208 63.9451 18.5215C64.0263 18.4139 64.0968 18.2818 64.1564 18.1254C64.2233 17.968 64.2712 17.754 64.3001 17.4834C64.329 17.2127 64.3503 16.9136 64.3638 16.5859C64.3836 16.2499 64.3892 15.8123 64.3806 15.2729C64.3721 14.7336 64.3548 14.1585 64.3289 13.5475C64.3029 12.9366 64.2681 12.1825 64.2244 11.2852L68.7128 10.6581L69.7291 17.9466ZM64.5984 11.5773C64.694 13.378 64.7444 14.7223 64.7497 15.6101C64.7613 16.4896 64.7196 17.173 64.6246 17.6601C64.5369 18.1463 64.3755 18.502 64.1404 18.7274L69.3696 17.9968L68.4004 11.0461L64.5984 11.5773Z" fill="white"/>
<path d="M72.1773 17.7904L76.0821 17.745L76.0861 18.097L71.8294 18.1464L71.7405 10.4469L75.8762 10.3989L75.8803 10.7509L72.0965 10.7948L72.133 13.9516L75.6308 13.911L75.6347 14.252L72.1369 14.2926L72.1773 17.7904Z" fill="white"/>
<path d="M85.3009 17.9538C84.4619 18.5975 83.4717 18.844 82.3302 18.6932C81.1888 18.5425 80.2961 18.0473 79.652 17.2078C79.0089 16.3609 78.7609 15.3777 78.9081 14.258C79.0055 13.5164 79.2607 12.8695 79.6735 12.3175C80.0872 11.7582 80.6183 11.3475 81.2666 11.0855C81.915 10.8234 82.6136 10.7419 83.3624 10.8408C84.5038 10.9915 85.3961 11.4903 86.0392 12.3371C86.6833 13.1767 86.9308 14.1636 86.7817 15.2978C86.6336 16.4248 86.14 17.3101 85.3009 17.9538ZM82.3761 18.3442C83.4157 18.4815 84.3144 18.2562 85.0722 17.6684C85.8372 17.0815 86.2871 16.2755 86.4218 15.2503C86.5575 14.2178 86.3318 13.3189 85.7445 12.5534C85.1655 11.7816 84.3562 11.3271 83.3165 11.1898C82.2841 11.0534 81.385 11.2823 80.619 11.8765C79.853 12.4707 79.4027 13.2803 79.2679 14.3055C79.18 14.9744 79.2529 15.6017 79.4866 16.1873C79.7212 16.7657 80.0906 17.2472 80.5948 17.6319C81.0989 18.0165 81.6927 18.254 82.3761 18.3442Z" fill="white"/>
<path d="M97.3783 21.5158C96.4204 21.964 95.4004 21.9918 94.3181 21.5992C93.2358 21.2065 92.4704 20.531 92.0218 19.5726C91.5758 18.6073 91.5451 17.5937 91.9295 16.5318C92.1842 15.8285 92.5724 15.2517 93.0943 14.8013C93.6186 14.344 94.2255 14.0571 94.915 13.9406C95.6045 13.8241 96.3043 13.8947 97.0144 14.1523C98.0967 14.5449 98.8608 15.2239 99.3069 16.1892C99.7554 17.1476 99.7849 18.1647 99.3954 19.2403C99.0085 20.3091 98.3361 21.0676 97.3783 21.5158ZM94.4379 21.2682C95.4237 21.6258 96.3498 21.5991 97.2162 21.1879C98.0895 20.7792 98.7022 20.0888 99.0542 19.1165C99.4087 18.1374 99.3815 17.2109 98.9725 16.3371C98.573 15.4588 97.8803 14.8409 96.8945 14.4833C95.9156 14.1281 94.9883 14.1583 94.1125 14.5739C93.2367 14.9895 92.6228 15.6834 92.2708 16.6556C92.0411 17.29 91.9774 17.9183 92.0797 18.5405C92.1845 19.1557 92.4417 19.7054 92.8514 20.1895C93.2611 20.6736 93.7899 21.0331 94.4379 21.2682Z" fill="white"/>
<path d="M106.47 27.5375L105.603 22.5635L104.479 21.8931L102.521 25.1826L102.219 25.0023L106.156 18.3854L106.459 18.5657L104.659 21.5906L105.783 22.261L110.172 20.7798L110.569 21.0164L105.972 22.5662L106.876 27.7797L106.47 27.5375Z" fill="white"/>
<path d="M113.049 22.7786L116.509 25.4966L111.759 31.5563L111.482 31.3389L116.022 25.5475L113.09 23.244L109.553 27.1663C108.613 28.1994 107.658 28.3355 106.69 27.5744L106.551 27.4657L106.768 27.1887L106.907 27.2974C107.697 27.918 108.481 27.7973 109.259 26.9353L113.049 22.7786Z" fill="white"/>
<path d="M123.728 32.5716L123.901 32.7557L118.303 38.0427L118.054 37.7785L123.133 32.9825L114.554 34.0644L114.388 33.8883L119.986 28.6013L120.227 28.8575L115.157 33.6459L123.728 32.5716Z" fill="white"/>
<path d="M129.3 39.9957L129.508 40.2932L123.202 44.7111L122.994 44.4136L126.138 42.211L123.314 38.1722L120.17 40.3748L119.968 40.0864L126.275 35.6685L126.477 35.9569L123.603 37.9702L126.426 42.009L129.3 39.9957Z" fill="white"/>
<path d="M133.911 48.4586L134.024 48.6849L127.138 52.1295L126.976 51.8047L133.223 48.68L124.696 47.2381L124.588 47.0215L131.474 43.577L131.632 43.8919L125.394 47.0117L133.911 48.4586Z" fill="white"/>
<path d="M129.646 59.0389L132.19 54.6788L131.763 53.4414L128.146 54.6925L128.031 54.3598L135.308 51.8431L135.423 52.1759L132.096 53.3263L132.523 54.5637L136.833 56.2623L136.984 56.699L132.471 54.9192L129.8 59.486L129.646 59.0389Z" fill="white"/>
<path d="M130.464 60.8258L131.297 64.6409L130.953 64.7161L130.045 60.5571L137.567 58.9113L138.449 62.9521L138.106 63.0274L137.298 59.3305L134.214 60.0053L134.96 63.4227L134.627 63.4956L133.881 60.0781L130.464 60.8258Z" fill="white"/>
<path d="M129.544 70.1338L140.833 69.1727L140.861 69.5015L129.571 70.4626L129.544 70.1338Z" fill="white"/>
<path d="M87 75L69 86.2583V63.7417L87 75Z" fill="#9F694F"/>
</svg>
