<svg width="49" height="47" viewBox="0 0 49 47" fill="none" xmlns="http://www.w3.org/2000/svg">
<path d="M25.0045 5H24.9955C15.0708 5 7 13.073 7 23C7 26.9375 8.269 30.587 10.4267 33.5503L8.1835 40.2373L15.1023 38.0255C17.9485 39.911 21.3438 41 25.0045 41C34.9292 41 43 32.9247 43 23C43 13.0753 34.9292 5 25.0045 5ZM35.4782 30.4182C35.044 31.6445 33.3205 32.6615 31.9457 32.9585C31.0052 33.1587 29.7768 33.3185 25.6413 31.604C20.3515 29.4125 16.945 24.0372 16.6795 23.6885C16.4253 23.3398 14.542 20.8422 14.542 18.2593C14.542 15.6763 15.8538 14.4185 16.3825 13.8785C16.8168 13.4353 17.5345 13.2327 18.223 13.2327C18.4458 13.2327 18.646 13.244 18.826 13.253C19.3547 13.2755 19.6202 13.307 19.969 14.1418C20.4032 15.188 21.4607 17.771 21.5868 18.0365C21.715 18.302 21.8433 18.662 21.6632 19.0108C21.4945 19.3708 21.346 19.5305 21.0805 19.8365C20.815 20.1425 20.563 20.3765 20.2975 20.705C20.0545 20.9908 19.78 21.2968 20.086 21.8255C20.392 22.343 21.4495 24.0687 23.0065 25.4548C25.0157 27.2435 26.6447 27.815 27.2275 28.058C27.6617 28.238 28.1793 28.1953 28.4965 27.8577C28.8993 27.4235 29.3965 26.7035 29.9028 25.9948C30.2628 25.4862 30.7173 25.4232 31.1943 25.6032C31.6803 25.772 34.252 27.0432 34.7808 27.3065C35.3095 27.572 35.6582 27.698 35.7865 27.9207C35.9125 28.1435 35.9125 29.1898 35.4782 30.4182Z" fill="#9F694F"/>
<path d="M14.8267 40.2133C17.8133 41.9882 21.289 43 25.0045 43C36.0345 43 45 34.0287 45 23C45 11.9713 36.0345 3 25.0045 3H24.9955C13.9657 3 5 11.9689 5 23C5 26.9974 6.17865 30.7323 8.21308 33.8607L6.28735 39.6012L5.03158 43.3445L8.79249 42.1423L14.8267 40.2133ZM21.5868 18.0365C21.715 18.302 21.8433 18.662 21.6632 19.0108L18.826 13.253C19.3547 13.2755 19.6202 13.307 19.969 14.1418C20.0991 14.4553 20.2852 14.9068 20.4854 15.3926C20.9534 16.528 21.4985 17.8506 21.5868 18.0365ZM18.223 15.2327C18.2341 15.2327 18.2451 15.2328 18.2561 15.2329C18.3485 15.4568 18.4578 15.7218 18.5748 16.0056C18.9315 16.8712 19.3599 17.9108 19.6035 18.4871C19.593 18.4992 19.5818 18.512 19.5699 18.5258C19.4876 18.6206 19.4105 18.7025 19.3036 18.816C19.2809 18.8403 19.2567 18.8659 19.2309 18.8934C19.0991 19.0338 18.9368 19.2091 18.7642 19.4205C18.7621 19.4229 18.7597 19.4256 18.7572 19.4285C18.6624 19.5358 18.2857 19.9626 18.0927 20.5291C17.8983 21.0998 17.9108 21.6756 18.0811 22.2115C17.8799 21.9223 17.5835 21.4678 17.2991 20.907C16.8607 20.0428 16.542 19.1003 16.542 18.2593C16.542 17.3285 16.7728 16.7024 17.0097 16.2787C17.2478 15.8528 17.5158 15.5794 17.7781 15.3118C17.7788 15.3112 17.7794 15.3105 17.7801 15.3099C17.7914 15.3045 17.8099 15.2967 17.8369 15.2878C17.9297 15.257 18.0659 15.2327 18.223 15.2327ZM19.7988 18.9352C19.7987 18.9352 19.7979 18.9332 19.7965 18.9295C19.7982 18.9334 19.7989 18.9353 19.7988 18.9352ZM33.8579 28.379C33.858 28.379 33.858 28.3791 33.858 28.3791L33.8579 28.379ZM32.1016 28.2204C32.7794 28.5478 33.4629 28.8852 33.7874 29.0462C33.7457 29.2562 33.6831 29.4955 33.593 29.7506C33.5924 29.752 33.5853 29.7703 33.5636 29.8049C33.5401 29.8424 33.5029 29.8935 33.447 29.956C33.3324 30.0838 33.1645 30.2311 32.9437 30.3805C32.4904 30.6873 31.9529 30.9104 31.5262 31.003C31.223 31.0675 30.937 31.1242 30.3049 31.024C29.7073 30.9292 28.7946 30.69 27.3555 30.1362C28.2076 30.2372 29.1953 30.0345 29.9538 29.2276L29.9538 29.2276L29.9629 29.2178C30.3301 28.8219 30.7409 28.2644 31.1097 27.7485C31.4004 27.8837 31.7473 28.0492 32.1016 28.2204Z" stroke="#9EA6B3" stroke-opacity="0.17" stroke-width="4"/>
</svg>
