<svg width="42" height="42" viewBox="0 0 42 42" fill="none" xmlns="http://www.w3.org/2000/svg">
<path d="M38.8545 7.24121H3.14549C1.40823 7.24121 0 8.64944 0 10.3867V31.6131C0 33.3503 1.40823 34.7586 3.14549 34.7586H38.8545C40.5917 34.7586 42 33.3504 42 31.6131V10.3867C42 8.64944 40.5918 7.24121 38.8545 7.24121Z" fill="#F5F5F5"/>
<path d="M25.0194 14.9733C21.6919 12.755 17.1977 13.662 14.9809 16.9836C13.869 18.6415 14.3209 20.8943 15.9845 22.0035C17.6469 23.1126 19.8925 22.6622 21.0017 20.9984C22.1108 19.3347 24.3579 18.8899 26.0202 19.9932C27.6852 21.1024 28.133 23.3552 27.0223 25.0131C29.2406 21.686 28.3439 17.1917 25.0194 14.9733Z" fill="#FF4B55"/>
<path d="M14.9824 16.9836C13.8705 18.6416 14.3225 20.8944 15.9861 22.0035C17.6484 23.1127 19.894 22.6623 21.0032 20.9985C22.1123 19.3348 24.3594 18.89 26.0217 19.9933C27.6868 21.1024 28.1346 23.3553 27.0239 25.0132C24.8085 28.3463 20.3158 29.2418 16.9883 27.0235C13.6639 24.8055 12.7642 20.3112 14.9824 16.9836Z" fill="#41479B"/>
<path d="M28.7019 12.2382L30.0172 14.2153C30.1277 14.3814 30.083 14.6057 29.9172 14.7167L29.5837 14.9401C29.4173 15.0515 29.192 15.0067 29.0809 14.84L27.7639 12.8634C27.6531 12.6971 27.698 12.4724 27.8642 12.3614L28.1994 12.1376C28.3659 12.0265 28.591 12.0716 28.7019 12.2382Z" fill="#464655"/>
<path d="M30.7318 15.2865L32.0515 17.2624C32.1629 17.4292 32.1174 17.655 31.95 17.7656L31.615 17.987C31.4488 18.0969 31.225 18.0517 31.1143 17.8861L29.7954 15.9122C29.6844 15.746 29.729 15.5212 29.8953 15.41L30.2296 15.1866C30.3957 15.0754 30.6207 15.1201 30.7318 15.2865Z" fill="#464655"/>
<path d="M30.1105 11.2983L33.4597 16.3246C33.5706 16.4909 33.5256 16.7157 33.3592 16.8266L33.0227 17.0509C32.8564 17.1618 32.6315 17.1168 32.5206 16.9505L29.1702 11.9245C29.0592 11.758 29.1043 11.5331 29.2709 11.4222L29.6084 11.1975C29.7749 11.087 29.9996 11.1319 30.1105 11.2983Z" fill="#464655"/>
<path d="M31.5153 10.3599L32.8336 12.3408C32.9447 12.5077 32.8991 12.7329 32.7318 12.8434L32.3965 13.0649C32.2302 13.1748 32.0063 13.1296 31.8957 12.9637L30.5765 10.9853C30.4655 10.819 30.5105 10.5941 30.6769 10.4831L31.0132 10.259C31.1795 10.1481 31.4044 10.1932 31.5153 10.3599Z" fill="#464655"/>
<path d="M33.5485 13.4147L34.8647 15.3915C34.9754 15.5577 34.9305 15.7822 34.7646 15.8932L34.4303 16.1166C34.2639 16.2279 34.0386 16.183 33.9277 16.0163L32.6115 14.0394C32.5008 13.8732 32.5456 13.6488 32.7116 13.5378L33.0459 13.3143C33.2124 13.203 33.4375 13.2478 33.5485 13.4147Z" fill="#464655"/>
<path d="M10.8855 24.1158L14.2344 29.1367C14.3453 29.303 14.3005 29.5277 14.1341 29.6387L13.7988 29.8627C13.6324 29.9738 13.4076 29.9289 13.2965 29.7624L9.94765 24.7415C9.83666 24.5753 9.88153 24.3505 10.0479 24.2395L10.3833 24.0156C10.5496 23.9045 10.7745 23.9494 10.8855 24.1158Z" fill="#464655"/>
<path d="M9.47894 25.0548L10.7937 27.0269C10.9046 27.1931 10.8599 27.4175 10.6939 27.5286L10.3604 27.7519C10.1941 27.8632 9.96899 27.8185 9.85784 27.6521L8.54148 25.6805C8.43041 25.5142 8.4752 25.2893 8.64156 25.1783L8.97674 24.9545C9.14302 24.8435 9.36795 24.8884 9.47894 25.0548Z" fill="#464655"/>
<path d="M11.5106 28.1043L12.8269 30.0814C12.9377 30.2476 12.8928 30.4721 12.7267 30.583L12.3921 30.8067C12.2257 30.918 12.0007 30.8731 11.8896 30.7065L10.5725 28.7298C10.4617 28.5635 10.5066 28.3388 10.6728 28.2279L11.0081 28.004C11.1746 27.8927 11.3997 27.9377 11.5106 28.1043Z" fill="#464655"/>
<path d="M8.07394 25.9938L11.4207 31.0149C11.5315 31.1811 11.4866 31.4057 11.3207 31.5168L10.9862 31.7404C10.8199 31.8516 10.5948 31.8067 10.4838 31.6403L7.13509 26.6198C7.02411 26.4535 7.06914 26.2286 7.2355 26.1176L7.57199 25.8934C7.73819 25.7825 7.96304 25.8274 8.07394 25.9938Z" fill="#464655"/>
<path d="M9.94749 17.2628L13.2958 12.2378C13.4068 12.0713 13.6318 12.0263 13.7982 12.1374L14.1335 12.3612C14.2997 12.4722 14.3445 12.697 14.2337 12.8633L10.884 17.8855C10.7733 18.0514 10.5493 18.0965 10.383 17.9864L10.049 17.7654C9.88186 17.6548 9.83642 17.4295 9.94749 17.2628Z" fill="#464655"/>
<path d="M8.54128 16.325L11.8902 11.299C12.0012 11.1325 12.2263 11.0875 12.3927 11.1988L12.7272 11.4224C12.8932 11.5334 12.938 11.7579 12.8273 11.9241L9.47923 16.9503C9.36824 17.1168 9.14331 17.1619 8.97687 17.0507L8.64152 16.8269C8.47533 16.716 8.43046 16.4913 8.54128 16.325Z" fill="#464655"/>
<path d="M7.13487 15.3912L10.4841 10.3602C10.5951 10.1936 10.8203 10.1485 10.9867 10.2598L11.3212 10.4834C11.4871 10.5944 11.532 10.8187 11.4214 10.9849L8.07421 16.0166C7.96339 16.1832 7.73837 16.2284 7.57193 16.1174L7.2356 15.8931C7.06916 15.7822 7.02421 15.5575 7.13487 15.3912Z" fill="#464655"/>
<path d="M27.7641 29.1366L29.0805 27.165C29.1917 26.9985 29.4167 26.9538 29.583 27.0651L29.9166 27.2884C30.0825 27.3995 30.1271 27.6239 30.0163 27.7901L28.7015 29.7621C28.5905 29.9286 28.3656 29.9735 28.1992 29.8625L27.8641 29.6387C27.6979 29.5277 27.6531 29.3029 27.7641 29.1366Z" fill="#464655"/>
<path d="M29.795 26.0975L31.1135 24.1161C31.2243 23.9496 31.4494 23.9044 31.6158 24.0154L31.9518 24.2394C32.1182 24.3504 32.1632 24.5754 32.0521 24.7417L30.7308 26.72C30.62 26.8859 30.396 26.9309 30.2297 26.8207L29.8965 26.5998C29.7296 26.4891 29.6841 26.2641 29.795 26.0975Z" fill="#464655"/>
<path d="M29.1702 30.0808L30.4873 28.104C30.5982 27.9375 30.8231 27.8925 30.9895 28.0035L31.3262 28.228C31.4925 28.3389 31.5374 28.5635 31.4267 28.73L30.1103 30.7069C29.9995 30.8734 29.7748 30.9185 29.6083 30.8077L29.2707 30.583C29.1044 30.4721 29.0593 30.2472 29.1702 30.0808Z" fill="#464655"/>
<path d="M31.2056 27.0262L32.5235 25.054C32.6346 24.8879 32.8592 24.8431 33.0255 24.9539L33.362 25.1782C33.5285 25.2892 33.5734 25.5142 33.4622 25.6806L32.1442 27.6529C32.0332 27.819 31.8086 27.8638 31.6424 27.753L31.3058 27.5287C31.1393 27.4176 31.0944 27.1926 31.2056 27.0262Z" fill="#464655"/>
<path d="M30.5767 31.0146L31.8954 29.0413C32.0061 28.8757 32.2298 28.8306 32.396 28.9404L32.7312 29.1619C32.8985 29.2725 32.9441 29.498 32.8328 29.6648L31.5152 31.6408C31.4043 31.8071 31.1794 31.852 31.0131 31.7412L30.6769 31.5171C30.5104 31.406 30.4655 31.181 30.5767 31.0146Z" fill="#464655"/>
<path d="M32.6115 27.9702L33.9269 25.9944C34.0379 25.8278 34.2631 25.7828 34.4295 25.8941L34.7635 26.1174C34.9297 26.2285 34.9744 26.4532 34.8635 26.6194L33.5469 28.5925C33.4363 28.7585 33.212 28.8035 33.0457 28.6933L32.7127 28.4726C32.5459 28.3619 32.5005 28.1368 32.6115 27.9702Z" fill="#464655"/>
</svg>
