<svg width="42" height="42" viewBox="0 0 42 42" fill="none" xmlns="http://www.w3.org/2000/svg">
<path d="M38.8545 7.24121H3.14549C1.40823 7.24121 0 8.64944 0 10.3867V31.6131C0 33.3503 1.40823 34.7586 3.14549 34.7586H38.8545C40.5917 34.7586 42 33.3504 42 31.6131V10.3867C42 8.64944 40.5918 7.24121 38.8545 7.24121Z" fill="#41479B"/>
<path d="M42 12.3105H0V29.6897H42V12.3105Z" fill="#F5F5F5"/>
<path d="M24.762 20.9999L26.6432 17.7415H22.8809L20.9993 14.4827L19.1178 17.7415H15.3555L17.2367 20.9999L15.3555 24.2582H19.1178L20.9993 27.5172L22.8808 24.2583H26.6431L24.762 20.9999ZM24.7975 18.8073L24.1468 19.9344L23.496 18.8073H24.7975ZM23.5315 20.9999L22.2655 23.1926H19.733L18.4671 20.9999L19.7331 18.8072H22.2656L23.5315 20.9999ZM20.9993 16.614L21.6503 17.7416H20.3483L20.9993 16.614ZM17.2011 18.8073H18.5025L17.8518 19.9344L17.2011 18.8073ZM17.2011 23.1926L17.8518 22.0655L18.5026 23.1926H17.2011ZM20.9993 25.3858L20.3483 24.2582H21.6503L20.9993 25.3858ZM24.1468 22.0656L24.7975 23.1927H23.4961L24.1468 22.0656Z" fill="#41479B"/>
</svg>
