<svg width="113" height="33" viewBox="0 0 113 33" fill="none" xmlns="http://www.w3.org/2000/svg">
<g clip-path="url(#clip0_10_13203)">
<path d="M108.803 25V22.4243H108V22H109.963V22.4243H109.195V25H108.803ZM112.572 25V22.7796L111.7 24.102L110.827 22.7796V25H110.4V22.0395H110.827L111.7 23.4013L112.572 22.0395H113V25H112.572Z" fill="#57565C"/>
<path d="M54.4331 10.83H54.3934L47.8562 1H45.0001V15.1757H47.4516V4.75695H47.4913L54.4331 15.1757H56.8845V1H54.4331V10.83ZM63.6597 4.51681C60.7561 4.51681 58.6378 6.59282 58.6378 10.0089C58.6378 13.425 60.7164 15.4313 63.6201 15.4313C66.5237 15.4313 68.642 13.3553 68.642 9.94696C68.642 6.53859 66.5634 4.51681 63.6597 4.51681ZM63.6597 13.3786C62.1524 13.3786 61.1131 12.1469 61.1131 9.98569C61.1131 7.82448 62.1524 6.59282 63.6597 6.59282C65.1671 6.59282 66.2143 7.83222 66.2143 9.98569C66.2143 12.1392 65.1512 13.3786 63.6359 13.3786H63.6597ZM75.8615 4.51681C75.2946 4.51212 74.7324 4.61796 74.2079 4.82812C73.6834 5.03829 73.2072 5.34855 72.8071 5.74073V1H70.3556V15.1757H72.5215L72.6246 14.0215C72.9912 14.4744 73.4594 14.8391 73.993 15.0876C74.5267 15.336 75.1116 15.4616 75.7028 15.4546C78.4795 15.4546 80.3201 13.2236 80.3201 9.8695C80.3201 6.51536 78.5827 4.51681 75.8615 4.51681ZM75.1871 13.3786C74.7241 13.3674 74.2695 13.2543 73.8574 13.0478C73.4453 12.8412 73.0863 12.5465 72.8071 12.1856V7.75476C73.0907 7.40082 73.4514 7.11292 73.863 6.91195C74.2747 6.71098 74.727 6.60197 75.1871 6.59282C76.869 6.59282 77.8449 7.83222 77.8449 9.94696C77.8449 12.0617 76.8452 13.3786 75.1951 13.3786H75.1871ZM86.6669 4.51681C83.7077 4.51681 81.7243 6.73225 81.7243 10.0477C81.7243 13.3631 83.7077 15.4701 86.8732 15.4701C88.3819 15.4788 89.8445 14.9625 90.9986 14.0138L89.9117 12.3173C89.1029 13.0344 88.0602 13.4488 86.9684 13.487C85.3817 13.487 84.4773 12.5884 84.2313 10.8688H91.3715V9.93147C91.3636 6.61606 89.5309 4.51681 86.6669 4.51681ZM84.2155 9.21106C84.2789 7.53012 85.2389 6.39142 86.5955 6.39142C87.9521 6.39142 88.8645 7.49139 88.92 9.21106H84.2155ZM96.4886 13.3011C95.9333 13.3011 95.6477 13.0222 95.6477 12.4413V1H93.2041V12.9603C93.163 13.2774 93.1957 13.5996 93.2999 13.9027C93.4041 14.2057 93.5771 14.4819 93.8059 14.7106C94.0348 14.9392 94.3136 15.1144 94.6215 15.2231C94.9294 15.3319 95.2585 15.3712 95.5842 15.3384C96.2419 15.326 96.8942 15.219 97.52 15.0208L97.3137 13.1849C97.0444 13.2556 96.7674 13.2946 96.4886 13.3011ZM52.4576 25.2615V25.215C53.0998 24.9836 53.6497 24.5585 54.0278 24.0014C54.4058 23.4443 54.5922 22.784 54.56 22.1165C54.56 19.9243 52.886 18.5222 50.268 18.5222H45.0001V32.6979H50.379C53.2827 32.6979 55.1392 31.1486 55.1392 28.7473C55.1828 27.9512 54.938 27.1656 54.4477 26.5282C53.9573 25.8908 53.2528 25.4423 52.4576 25.2615ZM46.4123 19.7461H50.1966C52.0292 19.7461 53.1954 20.7299 53.1954 22.2869C53.1954 23.8439 52.0689 24.7425 50.2918 24.7425H46.4123V19.7461ZM50.379 31.4507H46.4123V25.9354H50.379C52.5052 25.9354 53.7508 26.9347 53.7508 28.6543C53.7508 30.374 52.4735 31.4507 50.379 31.4507ZM58.0587 18.6771C57.8767 18.6771 57.6987 18.7298 57.5474 18.8286C57.3961 18.9273 57.2781 19.0676 57.2085 19.2318C57.1388 19.396 57.1206 19.5767 57.1561 19.751C57.1916 19.9253 57.2792 20.0854 57.4079 20.2111C57.5366 20.3367 57.7006 20.4223 57.8791 20.457C58.0577 20.4917 58.2427 20.4739 58.4109 20.4059C58.579 20.3378 58.7227 20.2227 58.8239 20.0749C58.925 19.9271 58.979 19.7534 58.979 19.5757C58.9834 19.4565 58.9626 19.3377 58.918 19.2268C58.8733 19.1158 58.8057 19.015 58.7193 18.9307C58.6329 18.8463 58.5297 18.7803 58.416 18.7367C58.3024 18.6931 58.1807 18.6728 58.0587 18.6771ZM57.3843 22.2946H58.733V32.6747H57.3843V22.2946ZM65.5717 22.0235C62.7315 22.0235 60.8116 24.2235 60.8116 27.5156C60.8116 30.8078 62.6919 32.938 65.5083 32.938C68.3247 32.938 70.2684 30.7458 70.2684 27.4537C70.2684 24.1615 68.3881 22.0235 65.5717 22.0235ZM65.5717 31.7683C63.5328 31.7683 62.2079 30.1106 62.2079 27.4924C62.2079 24.8741 63.509 23.2474 65.5479 23.2474C67.5868 23.2474 68.9197 24.9051 68.9197 27.5156C68.9197 30.1261 67.5948 31.7683 65.5479 31.7683H65.5717ZM76.2106 31.8071C74.2668 31.8071 72.9816 30.0874 72.9816 27.5156C72.9816 24.9439 74.3065 23.1855 76.3137 23.1855C76.9571 23.1978 77.5795 23.4115 78.0893 23.7949C78.5991 24.1784 78.9695 24.7114 79.146 25.3157L80.336 24.7812C80.0436 23.9802 79.5063 23.2863 78.7969 22.7931C78.0875 22.2999 77.2401 22.0313 76.3692 22.0235C73.5687 22.0235 71.6726 24.239 71.6726 27.5311C71.6726 30.8233 73.5132 32.9535 76.2502 32.9535C78.0432 32.9535 79.495 31.962 80.4153 30.0796L79.2491 29.5064C78.4716 31.0324 77.472 31.8071 76.2106 31.8071ZM90.1973 29.948V25.4396C90.1973 23.1157 88.9914 22.0235 86.5003 22.0235C84.932 22.0567 83.398 22.4778 82.0417 23.2474L82.5177 24.3474C83.6578 23.6295 84.9776 23.2304 86.3337 23.1932C88.0474 23.1932 88.8486 23.9291 88.8486 25.5171V26.2917C83.438 26.5938 81.7085 27.4304 81.7085 29.7233C81.7085 31.6986 83.1365 32.9768 85.342 32.9768C86.6821 32.9548 87.9614 32.4274 88.9121 31.505C88.9697 31.8242 89.1059 32.1251 89.3091 32.3815C89.5122 32.6379 89.7763 32.8422 90.0783 32.9768L90.9351 32.2409C90.3401 31.7683 90.1973 31.3113 90.1973 29.948ZM88.8486 30.3663C88.4516 30.8218 87.9596 31.1893 87.4056 31.4445C86.8515 31.6996 86.2481 31.8364 85.6356 31.8458C84.0489 31.8458 83.0492 31.0712 83.0492 29.7078C83.0492 28.0734 84.3107 27.5311 88.8486 27.2368V30.3663ZM94.2514 23.9446V22.3024H92.9106V32.6824H94.2514V25.1763C94.607 24.6212 95.0969 24.16 95.6779 23.8331C96.2589 23.5063 96.9133 23.3238 97.5834 23.3016C97.9191 23.3043 98.2539 23.338 98.5831 23.4024V22.101C98.2652 22.0541 97.9445 22.0282 97.6231 22.0235C96.9391 22.0327 96.2692 22.2144 95.6784 22.551C95.0876 22.8876 94.596 23.3677 94.2514 23.9446ZM103.534 22.0468C100.757 22.0468 98.8766 24.2854 98.8766 27.5776C98.8766 30.8698 100.757 33 103.732 33C105.183 32.9982 106.575 32.4421 107.611 31.4507L106.961 30.4902C106.121 31.319 104.981 31.7921 103.787 31.8071C101.733 31.8071 100.424 30.436 100.241 28.0346H108V27.4382C107.968 24.1692 106.231 22.0468 103.534 22.0468ZM100.241 27.0199C100.36 24.7425 101.637 23.2474 103.534 23.2474C105.43 23.2474 106.58 24.727 106.659 27.0586L100.241 27.0199Z" fill="#57565C"/>
<path d="M28.16 4.63V27.72C28.16 27.8818 28.0957 28.0369 27.9813 28.1513C27.8669 28.2657 27.7118 28.33 27.55 28.33H23.17C21.75 28.33 21.27 28.14 20.81 27.5L10 12.54C9.91149 12.4664 9.80395 12.4193 9.68981 12.4042C9.57568 12.3892 9.4596 12.4067 9.35501 12.4548C9.25042 12.5029 9.16158 12.5796 9.09876 12.6761C9.03593 12.7726 9.0017 12.8849 9 13V17.18C9.00077 17.3817 9.07961 17.5752 9.22 17.72L18.31 30.72C18.6926 31.2373 19.2014 31.6477 19.788 31.9121C20.3745 32.1765 21.0191 32.2859 21.66 32.23H31.57C31.7318 32.23 31.8869 32.1657 32.0013 32.0513C32.1157 31.9369 32.18 31.7818 32.18 31.62V0.61C32.18 0.448218 32.1157 0.293062 32.0013 0.178665C31.8869 0.0642677 31.7318 0 31.57 0L23.07 0C22.9082 0 22.7531 0.0642677 22.6387 0.178665C22.5243 0.293062 22.46 0.448218 22.46 0.61V3.41C22.46 3.57178 22.5243 3.72694 22.6387 3.84134C22.7531 3.95573 22.9082 4.02 23.07 4.02H27.55C27.7118 4.02 27.8669 4.08427 27.9813 4.19866C28.0957 4.31306 28.16 4.46822 28.16 4.63Z" fill="#CC0000"/>
<path d="M4 27.5499V4.46988C4 4.38978 4.01578 4.31046 4.04643 4.23645C4.07709 4.16244 4.12202 4.09519 4.17866 4.03855C4.23531 3.98191 4.30255 3.93697 4.37656 3.90632C4.45057 3.87566 4.52989 3.85988 4.61 3.85988H9C10.42 3.85988 10.89 4.03989 11.35 4.68989L22.12 19.6899C22.2066 19.7733 22.3156 19.8298 22.4337 19.8524C22.5518 19.875 22.6739 19.8628 22.7852 19.8172C22.8965 19.7716 22.9921 19.6947 23.0604 19.5957C23.1287 19.4968 23.1668 19.3801 23.17 19.2599V14.9999C23.1732 14.8185 23.1131 14.6417 23 14.4999L13.9 1.49988C13.5136 0.979838 12.9993 0.568463 12.4071 0.305654C11.8149 0.0428438 11.1649 -0.0624836 10.52 -0.000115046H0.61C0.448218 -0.000115046 0.293062 0.0641526 0.178665 0.17855C0.0642677 0.292947 0 0.448103 0 0.609885L0 31.6099C0 31.7717 0.0642677 31.9268 0.178665 32.0412C0.293062 32.1556 0.448218 32.2199 0.61 32.2199H9.11C9.27178 32.2199 9.42694 32.1556 9.54134 32.0412C9.65573 31.9268 9.72 31.7717 9.72 31.6099V28.8099C9.72 28.6481 9.65573 28.4929 9.54134 28.3785C9.42694 28.2642 9.27178 28.1999 9.11 28.1999H4.63C4.54475 28.2029 4.45982 28.1879 4.38069 28.1561C4.30157 28.1242 4.23001 28.0761 4.17064 28.0148C4.11127 27.9535 4.06541 27.8805 4.03602 27.8004C4.00662 27.7204 3.99435 27.635 4 27.5499Z" fill="#CC0000"/>
</g>
<defs>
<clipPath id="clip0_10_13203">
<rect width="113" height="33" fill="white"/>
</clipPath>
</defs>
</svg>
