<svg width="1155" height="183" viewBox="0 0 1155 183" fill="none" xmlns="http://www.w3.org/2000/svg">
<path fill-rule="evenodd" clip-rule="evenodd" d="M9.53977 180.645C3.20318 180.645 0 176.454 0 168.143C0 161.507 2.50683 154.243 7.45077 146.49C13.0214 137.619 20.4721 129.238 29.8725 121.485C41.7798 111.217 51.598 106.467 59.3969 107.306C66.8476 87.0499 74.925 68.4007 83.4898 51.4976C95.6756 27.6099 106.747 12.453 116.705 6.09687C121.44 3.02359 126.244 1.48692 131.258 1.48692C139.266 1.48692 143.304 5.67772 143.304 13.9895C143.304 28.7273 134.461 46.748 116.705 68.1212C110.647 75.8743 103.753 83.5576 96.163 91.0313C88.5731 98.5049 80.2867 106.188 71.4434 113.941C68.101 122.532 65.5942 130.355 63.7837 137.27C61.9733 144.185 60.9288 150.471 60.6502 155.989C61.7644 167.095 66.8476 172.683 76.0392 172.683C86.8322 172.683 100.271 164.231 116.357 147.258C117.749 145.582 118.863 144.744 119.699 144.744C120.534 144.744 120.952 145.303 120.952 146.42C120.952 147.538 120.534 148.795 119.699 150.192C101.177 170.168 84.9521 180.226 71.0952 180.226C64.4801 180.226 59.0487 177.293 54.8707 171.495C50.4142 165.349 48.1164 158.015 47.8378 149.424C40.9442 158.574 33.9808 166.257 27.0872 172.334C19.915 177.921 14.0659 180.645 9.60937 180.645H9.53977ZM74.7857 105.629C88.9212 92.0091 101.385 77.2713 112.179 61.4858C126.035 41.5094 133.765 25.7938 135.436 14.4087V12.3133C135.436 8.96061 134.322 7.28426 132.094 7.28426C126.523 7.28426 120.883 12.4529 115.033 22.7205C107.583 35.7819 100.48 49.2625 93.8651 63.1621C87.25 77.0618 80.8438 91.2408 74.7857 105.629ZM18.3135 168.143C21.3773 168.143 25.3464 166.047 30.3599 161.926C39.4818 154.173 45.4703 146.49 48.186 139.016C52.6425 125.396 55.4975 117.783 56.8901 116.106C49.4394 115.548 41.9191 118.481 34.4683 124.837C27.5747 130.146 22.0041 137.2 17.8261 146.071C14.7623 151.659 13.2303 156.618 13.2303 161.088C13.2303 165.838 14.9015 168.143 18.2439 168.143H18.3135ZM139.196 183.998C150.546 183.998 163.568 180.087 178.26 172.334C185.154 168.701 191.073 165.069 195.947 161.298C200.821 157.526 204.721 153.894 207.784 150.262C208.899 149.144 209.456 147.887 209.456 146.49C209.456 143.137 207.784 143.417 204.442 147.328C201.378 150.401 197.688 153.545 193.231 156.897C188.775 160.25 183.831 163.393 178.26 166.466C165.239 173.661 154.446 177.293 145.881 177.293C135.088 177.293 129.656 171.426 129.656 159.761C129.656 158.364 129.656 156.897 129.865 155.361C130.005 153.824 130.213 152.078 130.492 150.122C145.463 146.49 157.092 139.715 165.378 129.727C169.835 124.139 171.993 118.621 171.993 113.033C171.993 104.442 167.676 100.111 159.111 100.111C152.774 100.111 145.672 103.743 137.943 110.938C131.606 117.014 126.175 124.767 121.718 134.057C117.262 143.347 115.103 151.1 115.103 157.177C115.103 174.988 123.111 183.858 139.196 183.858V183.998ZM132.163 145.652C145.742 141.182 155.003 134.546 160.016 125.675C163.359 120.088 165.03 115.408 165.03 111.496C165.03 108.423 164.055 106.887 162.105 106.887C159.877 106.887 156.813 108.912 152.983 112.963C149.084 117.014 145.324 121.904 141.564 127.771C137.803 133.638 134.74 139.575 132.233 145.652H132.163ZM200.682 180.645C198.732 180.645 197.061 179.807 195.668 178.131C194.276 176.454 193.719 175.058 193.997 173.94L206.461 145.163C213.634 128.19 217.255 117.922 217.255 114.36C218.09 113.243 220.875 111.566 225.541 109.331C226.655 108.772 227.63 108.353 228.465 108.074C229.301 107.795 230.137 107.655 230.972 107.655C232.922 107.655 233.897 108.912 233.897 111.427C231.947 117.014 229.092 124.139 225.402 132.87C221.641 141.601 216.906 152.078 211.057 164.301L255.483 116.386C259.382 112.195 262.237 110.169 264.187 110.169C265.58 110.169 266.276 111.008 266.276 112.684C266.276 113.243 266.276 113.871 266.067 114.57C265.928 115.268 265.719 116.037 265.44 116.875C259.591 137.13 256.736 151.03 256.736 158.574C256.736 168.003 259.939 172.753 266.276 172.753C272.125 172.753 279.019 169.54 287.027 163.183C288.419 162.066 290.578 160.11 293.433 157.316C296.357 154.522 299.839 150.96 304.017 146.49C305.131 145.372 306.245 144.814 307.359 144.814C308.195 144.814 308.613 145.372 308.613 146.49C308.891 147.049 308.613 148.027 307.777 149.424C290.299 168.841 274.841 178.62 261.262 178.62C249.077 178.62 243.019 169.051 243.019 149.843C243.019 147.608 243.019 145.372 243.228 143.207C243.367 140.972 243.576 138.597 243.854 136.153L224.357 154.872C222.129 156.827 219.97 158.923 217.951 161.088C215.862 163.323 213.982 165.558 212.311 167.724L204.024 178.131C203.189 179.807 202.075 180.645 200.682 180.645ZM328.18 180.226C342.315 180.506 359.027 170.378 378.455 149.843C379.29 149.005 379.708 147.887 379.708 146.49C379.708 145.372 379.151 144.814 378.037 144.814C376.923 144.814 375.669 145.652 374.277 147.328C369.82 152.078 365.572 156.129 361.395 159.621C357.217 163.114 353.247 165.908 349.348 168.143C343.777 171.216 338.694 172.753 333.959 172.753C324.28 172.753 319.406 167.025 319.406 155.64C319.406 145.652 323.723 132.59 332.288 116.456H360.559C367.174 116.456 371.073 116.316 372.188 116.037C378.246 115.198 381.31 113.522 381.31 111.008C381.31 109.611 380.056 108.493 377.549 107.655H336.814C344.265 96.2697 350.81 86.4213 356.311 78.0396C361.812 69.658 366.408 63.0225 370.029 58.0633C370.586 57.5045 370.865 56.9457 370.865 56.3869C370.865 53.8724 368.358 52.6152 363.414 52.6152C357.843 52.6152 353.178 54.2915 349.278 57.6441C346.215 62.3938 343.36 66.7942 340.783 70.985C338.137 75.1758 335.839 78.8778 333.959 82.2304C330.338 88.377 327.483 93.5457 325.255 97.8763C323.027 102.207 321.356 105.42 320.241 107.655H312.791L305.34 108.074C301.441 108.074 299.491 109.052 299.491 111.008V111.846C299.491 114.919 301.719 116.735 306.106 117.294C305.549 117.014 306.106 116.875 307.777 116.875C309.448 116.875 312.094 116.735 315.646 116.456C309.797 130.076 306.942 142.159 306.942 152.706C306.942 154.383 306.942 156.059 307.15 157.735C307.29 159.412 307.499 161.228 307.777 163.183C310.284 174.289 317.038 180.017 328.11 180.296L328.18 180.226ZM377.619 180.645C371.282 180.645 368.079 176.454 368.079 168.143C368.079 161.507 370.586 154.243 375.53 146.49C387.159 128.958 399.762 117.154 413.341 111.077C419.19 108.284 424.83 106.887 430.401 106.887C433.186 106.887 436.18 107.655 439.523 109.192C442.865 110.728 444.536 112.893 444.536 115.617C444.536 117.014 443.561 117.853 441.612 118.132C440.497 118.411 439.731 118.691 439.314 118.97C438.896 119.25 438.548 119.529 438.269 119.808C431.933 131.752 428.729 142.858 428.729 153.126C428.729 166.187 433.882 172.683 444.118 172.683C454.911 172.683 468.351 164.231 484.436 147.258C485.828 145.582 486.942 144.744 487.778 144.744C488.614 144.744 489.032 145.303 489.032 146.42C489.032 147.538 488.614 148.795 487.778 150.192C469.256 170.168 453.031 180.226 439.174 180.226C432.559 180.226 427.128 177.293 422.95 171.495C418.493 165.349 416.196 158.015 415.917 149.424C409.023 158.574 402.06 166.257 395.166 172.334C387.994 177.921 382.145 180.645 377.689 180.645H377.619ZM386.323 168.143C382.981 168.143 381.31 165.768 381.31 161.088C381.31 156.618 382.841 151.659 385.905 146.071C396.141 125.815 408.466 115.827 422.88 116.037C421.488 119.11 420.165 122.463 418.911 126.234C417.658 130.006 416.753 134.197 416.196 138.947C414.803 142.858 412.575 146.63 409.58 150.401C406.517 154.173 402.826 157.945 398.37 161.856C393.356 166.047 389.387 168.073 386.323 168.073V168.143ZM504.699 180.226C518.834 180.785 535.546 170.657 554.974 149.843C556.088 148.725 556.645 147.608 556.645 146.49C556.645 145.372 556.088 144.674 554.974 144.395C553.86 144.395 552.467 145.372 550.796 147.328C546.339 152.078 542.092 156.129 537.914 159.621C533.736 163.114 529.767 165.908 525.867 168.143C518.974 172.334 513.124 174.359 508.389 174.359C501.217 174.359 497.596 168.771 497.596 157.666C497.596 143.207 501.635 128.609 509.643 113.941C548.15 80.9034 571.268 51.9866 578.997 27.2606C580.668 22.511 581.504 18.2503 581.504 14.3388C581.504 5.4682 577.744 0.998047 570.293 0.998047C556.715 0.998047 540.42 18.8091 521.271 54.3614C513.821 67.9816 507.554 80.5541 502.61 92.0789C497.596 103.604 493.767 114.081 490.981 123.51C489.031 130.704 487.569 137.13 486.594 142.648C485.619 148.236 485.132 152.916 485.132 156.827C485.132 171.845 491.608 179.598 504.629 180.156L504.699 180.226ZM512.985 105.629C518.834 91.1709 525.032 76.9919 531.647 63.1621C538.262 49.3324 545.504 35.7819 553.233 22.7205C559.082 12.4529 564.305 7.28426 569.04 7.28426C572.103 7.28426 573.635 9.51936 573.635 13.9197C573.635 17.2724 572.661 21.3935 570.711 26.4225C568.483 32.4992 565.21 39.0648 560.962 45.9796C556.645 52.8945 551.492 60.438 545.364 68.4705C540.072 75.3854 534.78 81.951 529.349 88.0278C523.918 94.1743 518.486 99.9716 512.916 105.559L512.985 105.629ZM703.64 183.16C688.39 183.16 680.8 174.848 680.8 158.155C680.8 147.328 686.232 135.524 697.025 122.742C708.653 108.842 719.864 101.927 730.657 101.927C739.501 101.927 743.957 105.979 743.957 114.011C743.957 116.805 742.982 120.227 741.033 124.418C739.919 126.374 738.944 127.98 738.108 129.238C737.273 130.495 736.576 131.682 736.019 132.8C735.184 133.638 734.487 134.057 733.93 134.057C732.259 134.057 731.981 132.66 733.095 129.866C735.044 126.793 736.019 123.999 736.019 121.555C736.019 118.202 734.069 116.525 730.17 116.525C725.156 116.525 719.934 118.621 714.363 122.742C707.47 128.05 701.899 134.337 697.721 141.671C693.543 149.005 691.524 155.78 691.524 161.856C691.524 171.845 696.816 176.874 707.33 176.874C712.344 176.874 718.959 175.337 727.245 172.264C738.039 167.514 749.249 159.202 760.878 147.258C762.828 145.303 764.221 144.325 765.056 144.325C765.892 144.604 766.309 145.303 766.309 146.42C766.309 147.258 765.892 148.376 765.056 149.773C744.305 171.984 723.764 183.09 703.57 183.09L703.64 183.16ZM781.698 180.226C795.834 180.785 812.546 170.657 831.973 149.843C833.087 148.725 833.644 147.608 833.644 146.49C833.644 145.372 833.087 144.674 831.973 144.395C830.859 144.395 829.467 145.372 827.795 147.328C823.339 152.078 819.091 156.129 814.913 159.621C810.735 163.114 806.766 165.908 802.867 168.143C795.973 172.334 790.124 174.359 785.389 174.359C778.217 174.359 774.596 168.771 774.596 157.666C774.596 143.207 778.635 128.609 786.642 113.941C825.149 80.9034 848.267 51.9866 855.997 27.2606C857.668 22.511 858.503 18.2503 858.503 14.3388C858.503 5.4682 854.743 0.998047 847.292 0.998047C833.714 0.998047 817.42 18.8091 798.271 54.3614C790.82 67.9816 784.553 80.5541 779.609 92.0789C774.596 103.604 770.766 114.081 767.981 123.51C766.031 130.704 764.569 137.13 763.594 142.648C762.619 148.166 762.131 152.916 762.131 156.827C762.131 171.845 768.607 179.598 781.629 180.156L781.698 180.226ZM789.985 105.629C795.834 91.1709 802.031 76.9919 808.646 63.1621C815.261 49.3324 822.503 35.7819 830.232 22.7205C836.081 12.4529 841.304 7.28426 846.039 7.28426C849.103 7.28426 850.635 9.51936 850.635 13.9197C850.635 17.2724 849.66 21.3935 847.71 26.4225C845.482 32.4992 842.209 39.0648 837.962 45.9796C833.644 52.8945 828.492 60.438 822.364 68.4705C817.072 75.3854 811.78 81.951 806.348 88.0278C800.917 94.1743 795.486 99.9716 789.915 105.559L789.985 105.629ZM880.507 76.014C878 76.014 875.703 74.9663 873.683 72.8709C871.594 70.7755 870.55 68.4706 870.55 66.0259C870.55 62.6732 872.082 59.8793 875.146 57.7141C877.374 55.7583 879.881 54.7805 882.596 54.7805C888.933 54.7805 892.136 57.5744 892.136 63.0923C892.136 71.6835 888.237 76.014 880.507 76.014ZM852.654 180.156C836.569 179.877 829.397 168.771 831.068 146.839C831.347 137.41 836.499 125.326 846.457 110.588C848.128 107.515 851.749 105.979 857.25 105.979C861.428 105.979 863.447 107.236 863.447 109.75L863.03 111.846L852.654 129.796C848.476 137.549 846.318 143.556 846.039 147.747C845.761 149.144 845.552 150.611 845.412 152.148C845.273 153.684 845.204 155.151 845.204 156.548C845.204 167.933 849.242 173.661 857.25 173.661C868.322 173.661 882.178 164.93 898.821 147.398C900.492 145.442 901.885 144.464 902.999 144.464C903.834 144.744 904.252 145.442 904.252 146.56C904.252 147.398 903.834 148.516 902.999 149.913C883.641 170.727 866.859 180.855 852.724 180.296L852.654 180.156ZM895.827 180.575C897.219 180.575 898.333 179.737 899.169 178.061L907.455 167.654C909.126 165.419 911.007 163.183 913.096 161.018C915.185 158.783 917.343 156.688 919.502 154.802L938.999 136.083C938.72 138.597 938.511 140.972 938.372 143.137C938.233 145.372 938.163 147.608 938.163 149.773C938.163 168.911 944.221 178.55 956.407 178.55C969.986 178.55 985.514 168.841 1002.92 149.354C1003.76 147.957 1004.04 146.979 1003.76 146.42C1003.76 145.303 1003.34 144.744 1002.5 144.744C1001.39 144.744 1000.28 145.303 999.162 146.42C994.984 150.89 991.502 154.453 988.578 157.247C985.653 160.04 983.494 161.996 982.171 163.114C974.163 169.47 967.2 172.683 961.421 172.683C955.084 172.683 951.881 167.933 951.881 158.504C951.881 151.03 954.805 137.13 960.585 116.805C960.864 115.967 961.072 115.198 961.212 114.5C961.351 113.801 961.421 113.173 961.421 112.614C961.421 110.938 960.724 110.1 959.332 110.1C957.382 110.1 954.457 112.195 950.628 116.316L906.202 164.231C912.051 152.008 916.786 141.531 920.546 132.8C924.306 124.069 927.092 116.875 929.041 111.357C929.041 108.842 928.067 107.585 926.117 107.585C925.281 107.585 924.446 107.725 923.61 108.004C922.774 108.284 921.8 108.703 920.686 109.261C915.951 111.497 913.235 113.173 912.399 114.29C912.399 117.922 908.778 128.19 901.606 145.093L889.142 173.87C888.863 174.988 889.42 176.385 890.813 178.061C892.206 179.737 893.877 180.575 895.827 180.575ZM1051.18 76.014C1048.67 76.014 1046.37 74.9663 1044.35 72.8709C1042.26 70.7755 1041.22 68.4706 1041.22 66.0259C1041.22 62.6732 1042.75 59.8793 1045.82 57.7141C1048.04 55.7583 1050.55 54.7805 1053.27 54.7805C1059.6 54.7805 1062.81 57.5744 1062.81 63.0923C1062.81 71.6835 1058.91 76.014 1051.18 76.014ZM1023.32 180.156C1007.24 179.877 1000.07 168.771 1001.74 146.839C1002.02 137.41 1007.17 125.326 1017.13 110.588C1018.8 107.515 1022.42 105.979 1027.92 105.979C1032.1 105.979 1034.12 107.236 1034.12 109.75L1033.7 111.846L1023.32 129.796C1019.15 137.549 1016.99 143.556 1016.71 147.747C1016.43 149.144 1016.22 150.611 1016.08 152.148C1015.94 153.684 1015.87 155.151 1015.87 156.548C1015.87 167.933 1019.91 173.661 1027.92 173.661C1038.99 173.661 1052.85 164.93 1069.49 147.398C1071.16 145.442 1072.55 144.464 1073.67 144.464C1074.5 144.744 1074.92 145.442 1074.92 146.56C1074.92 147.398 1074.5 148.516 1073.67 149.913C1054.31 170.727 1037.53 180.855 1023.39 180.296L1023.32 180.156ZM1092.26 183.09C1112.45 183.09 1133 171.984 1153.75 149.773C1154.58 148.376 1155 147.258 1155 146.42C1155 145.303 1154.58 144.604 1153.75 144.325C1152.91 144.325 1151.52 145.303 1149.57 147.258C1137.94 159.202 1126.73 167.514 1115.94 172.264C1107.65 175.337 1100.96 176.874 1096.02 176.874C1085.51 176.874 1080.21 171.845 1080.21 161.856C1080.21 155.71 1082.3 149.005 1086.41 141.671C1090.59 134.337 1096.09 127.98 1103.05 122.742C1108.62 118.551 1113.85 116.525 1118.86 116.525C1122.76 116.525 1124.71 118.202 1124.71 121.555C1124.71 124.069 1123.73 126.863 1121.79 129.866C1120.67 132.66 1120.95 134.057 1122.62 134.057C1123.18 134.057 1123.87 133.638 1124.71 132.8C1125.27 131.682 1125.96 130.495 1126.8 129.238C1127.63 127.98 1128.61 126.374 1129.72 124.418C1131.67 120.227 1132.65 116.805 1132.65 114.011C1132.65 105.979 1128.19 101.927 1119.35 101.927C1108.55 101.927 1097.34 108.842 1085.72 122.742C1074.92 135.524 1069.49 147.328 1069.49 158.155C1069.49 174.848 1077.08 183.16 1092.33 183.16L1092.26 183.09Z" fill="white" fill-opacity="0.09"/>
</svg>
