<svg width="47" height="30" viewBox="0 0 47 30" fill="none" xmlns="http://www.w3.org/2000/svg">
<path d="M13.1204 27.4944V25.8033C13.1322 25.6628 13.114 25.5214 13.0669 25.3886C13.0199 25.2558 12.9451 25.1348 12.8476 25.0338C12.7502 24.9327 12.6323 24.854 12.5021 24.803C12.3719 24.752 12.2323 24.7298 12.0928 24.738C11.9083 24.726 11.724 24.7642 11.559 24.8484C11.394 24.9327 11.2544 25.06 11.1546 25.2171C11.0636 25.0647 10.9337 24.9398 10.7784 24.8555C10.6232 24.7712 10.4484 24.7306 10.2722 24.738C10.1159 24.7286 9.95985 24.76 9.81902 24.8291C9.67818 24.8982 9.55733 25.0027 9.46805 25.1325V24.8028H8.91797V27.5001H9.45967V25.9499C9.44979 25.8563 9.4602 25.7617 9.49019 25.6727C9.52017 25.5836 9.56901 25.5021 9.63331 25.434C9.69761 25.3659 9.77583 25.3127 9.86253 25.2782C9.94924 25.2436 10.0424 25.2286 10.1354 25.234C10.5207 25.234 10.7385 25.4877 10.7385 25.9443V27.4973H11.2803V25.9499C11.2709 25.8564 11.2816 25.762 11.3118 25.6732C11.3419 25.5843 11.3908 25.5031 11.455 25.4351C11.5192 25.3671 11.5972 25.3139 11.6837 25.2792C11.7702 25.2445 11.8631 25.2291 11.956 25.234C12.3525 25.234 12.5647 25.4877 12.5647 25.9443V27.4973L13.1204 27.4944ZM21.8212 24.8028H20.8495V23.9854H20.305V24.8028H19.7465V25.2932H20.305V26.57C20.305 27.1957 20.5228 27.5677 21.2097 27.5677C21.4663 27.5684 21.7179 27.4962 21.9357 27.3591L21.7681 26.88C21.6124 26.9738 21.4356 27.0261 21.2544 27.0322C20.9751 27.0322 20.8467 26.8518 20.8467 26.5812V25.2876H21.8184L21.8212 24.8028ZM26.7803 24.7351C26.6359 24.7321 26.4931 24.7669 26.3659 24.836C26.2387 24.9052 26.1313 25.0063 26.0543 25.1297V24.8028H25.5238V27.5001H26.0599V25.9781C26.0599 25.5328 26.2721 25.2453 26.6519 25.2453C26.7761 25.2436 26.8994 25.2666 27.0149 25.3129L27.1936 24.8028C27.0609 24.7549 26.9212 24.7301 26.7803 24.7295V24.7351ZM19.283 25.017C18.9542 24.8198 18.5762 24.722 18.194 24.7351C17.5183 24.7351 17.105 25.0564 17.105 25.5807C17.105 26.0204 17.4066 26.2853 18.0041 26.3699L18.2833 26.4093C18.6017 26.4544 18.7748 26.5672 18.7748 26.7194C18.7748 26.9279 18.5402 27.0632 18.1437 27.0632C17.8245 27.0745 17.5111 26.9751 17.2558 26.7814L16.9765 27.2041C17.3169 27.4384 17.7207 27.5605 18.1326 27.5536C18.9032 27.5536 19.3305 27.1929 19.3305 26.6799C19.3305 26.1669 19.0038 25.9725 18.4258 25.8879L18.1465 25.8484C17.8952 25.8146 17.6718 25.7357 17.6718 25.5666C17.6718 25.3975 17.884 25.234 18.2024 25.234C18.4966 25.2376 18.785 25.3172 19.0401 25.4651L19.283 25.017ZM27.3807 26.1444C27.3715 26.3319 27.4013 26.5193 27.4682 26.6945C27.5351 26.8696 27.6376 27.0287 27.7691 27.1615C27.9007 27.2943 28.0583 27.3977 28.2318 27.4653C28.4054 27.5328 28.591 27.5629 28.7768 27.5536C29.1255 27.5715 29.4682 27.4569 29.7374 27.2323L29.4581 26.8095C29.2573 26.9639 29.0125 27.0489 28.7601 27.0519C28.5348 27.03 28.3256 26.9242 28.1735 26.7551C28.0213 26.586 27.937 26.3658 27.937 26.1373C27.937 25.9089 28.0213 25.6886 28.1735 25.5195C28.3256 25.3504 28.5348 25.2446 28.7601 25.2227C29.0125 25.2258 29.2573 25.3108 29.4581 25.4651L29.7374 25.0424C29.4682 24.8178 29.1255 24.7031 28.7768 24.721C28.591 24.7118 28.4054 24.7419 28.2318 24.8094C28.0583 24.8769 27.9007 24.9804 27.7691 25.1132C27.6376 25.2459 27.5351 25.405 27.4682 25.5802C27.4013 25.7554 27.3715 25.9428 27.3807 26.1303V26.1444ZM23.6222 24.7351C22.8404 24.7351 22.3015 25.2988 22.3015 26.1444C22.29 26.3293 22.3171 26.5146 22.3809 26.6884C22.4447 26.8621 22.5439 27.0205 22.672 27.1532C22.8 27.286 22.9543 27.3902 23.1246 27.4591C23.295 27.5281 23.4779 27.5603 23.6613 27.5536C24.0597 27.5675 24.4493 27.4331 24.7559 27.1759L24.4767 26.7757C24.2561 26.954 23.983 27.0532 23.7004 27.0576C23.5048 27.0648 23.3136 26.998 23.1643 26.8702C23.015 26.7425 22.9184 26.563 22.8934 26.367H24.8899C24.8899 26.2938 24.8899 26.2205 24.8899 26.1416C24.8899 25.296 24.3817 24.7323 23.6306 24.7323L23.6222 24.7351ZM23.6222 25.2368C23.7131 25.2338 23.8036 25.2492 23.8885 25.282C23.9734 25.3149 24.0509 25.3646 24.1165 25.4281C24.1821 25.4917 24.2344 25.5679 24.2703 25.6522C24.3063 25.7364 24.3252 25.8271 24.3259 25.9189H22.8934C22.9036 25.7305 22.9864 25.5536 23.1242 25.4261C23.262 25.2986 23.4438 25.2307 23.6306 25.2368H23.6222ZM16.3874 26.1472V24.8028H15.8512V25.1297C15.7474 25.0004 15.6151 24.8974 15.4648 24.8289C15.3145 24.7604 15.1504 24.7283 14.9856 24.7351C14.6135 24.7351 14.2566 24.8844 13.9935 25.15C13.7303 25.4156 13.5825 25.7758 13.5825 26.1514C13.5825 26.5271 13.7303 26.8873 13.9935 27.1529C14.2566 27.4185 14.6135 27.5677 14.9856 27.5677C15.1504 27.5746 15.3145 27.5425 15.4648 27.4739C15.6151 27.4054 15.7474 27.3024 15.8512 27.1731V27.5001H16.3874V26.1472ZM14.2233 26.1472C14.2141 26.0306 14.2289 25.9133 14.2668 25.8028C14.3047 25.6923 14.3649 25.5909 14.4437 25.5051C14.5224 25.4193 14.6179 25.3508 14.7242 25.3042C14.8305 25.2575 14.9451 25.2336 15.061 25.234C15.2863 25.2559 15.4954 25.3617 15.6476 25.5308C15.7998 25.6999 15.8841 25.9202 15.8841 26.1486C15.8841 26.3771 15.7998 26.5973 15.6476 26.7664C15.4954 26.9355 15.2863 27.0413 15.061 27.0632C14.9451 27.0636 14.8305 27.0397 14.7242 26.993C14.6179 26.9464 14.5224 26.878 14.4437 26.7921C14.3649 26.7063 14.3047 26.6049 14.2668 26.4944C14.2289 26.3839 14.2141 26.2666 14.2233 26.15V26.1472ZM34.8556 24.738C34.7112 24.7349 34.5684 24.7697 34.4412 24.8388C34.314 24.908 34.2067 25.0092 34.1296 25.1325V24.8028H33.5991V27.5001H34.1352V25.9781C34.1352 25.5328 34.3474 25.2453 34.7272 25.2453C34.8514 25.2436 34.9748 25.2666 35.0902 25.3129L35.2689 24.8056C35.1363 24.7577 34.9965 24.7329 34.8556 24.7323V24.738ZM39.1614 27.1111C39.1977 27.1107 39.2337 27.1174 39.2675 27.1309C39.2995 27.1441 39.3289 27.1632 39.354 27.1872C39.3786 27.2115 39.3985 27.2402 39.4127 27.2718C39.4268 27.3047 39.4341 27.3402 39.4341 27.3761C39.4341 27.4119 39.4268 27.4474 39.4127 27.4803C39.3985 27.5119 39.3786 27.5406 39.354 27.5649C39.3289 27.5889 39.2995 27.6081 39.2675 27.6213C39.2341 27.6362 39.1979 27.6438 39.1614 27.6438C39.1084 27.6434 39.0567 27.6278 39.0122 27.5989C38.9677 27.5699 38.9323 27.5288 38.9101 27.4803C38.8961 27.4474 38.8889 27.4119 38.8889 27.3761C38.8889 27.3402 38.8961 27.3047 38.9101 27.2718C38.9243 27.2402 38.9442 27.2115 38.9687 27.1872C38.9938 27.1632 39.0232 27.1441 39.0553 27.1309C39.0884 27.1145 39.1245 27.1049 39.1614 27.1027V27.1111ZM39.1614 27.5874C39.1892 27.5876 39.2168 27.5819 39.2424 27.5705C39.2663 27.5597 39.2881 27.5444 39.3066 27.5254C39.3415 27.487 39.3609 27.4367 39.3609 27.3845C39.3609 27.3323 39.3415 27.2821 39.3066 27.2436C39.2882 27.2246 39.2664 27.2093 39.2424 27.1985C39.2168 27.1872 39.1892 27.1814 39.1614 27.1816C39.1335 27.1817 39.106 27.1874 39.0804 27.1985C39.0553 27.2089 39.0325 27.2242 39.0134 27.2436C38.9785 27.2821 38.9591 27.3323 38.9591 27.3845C38.9591 27.4367 38.9785 27.487 39.0134 27.5254C39.0326 27.5447 39.0554 27.56 39.0804 27.5705C39.1064 27.5797 39.1339 27.5835 39.1614 27.5818V27.5874ZM39.1781 27.252C39.2042 27.2508 39.2299 27.2587 39.2507 27.2746C39.2593 27.2817 39.266 27.2908 39.2704 27.3011C39.2748 27.3114 39.2766 27.3226 39.2759 27.3338C39.2763 27.3431 39.2747 27.3525 39.2714 27.3612C39.268 27.37 39.2629 27.3779 39.2563 27.3845C39.2401 27.3994 39.2195 27.4083 39.1977 27.4099L39.2786 27.5029H39.2144L39.139 27.4099H39.1139V27.5029H39.0609V27.2549L39.1781 27.252ZM39.1167 27.3V27.3676H39.1781C39.1891 27.3709 39.2007 27.3709 39.2116 27.3676C39.2136 27.3637 39.2146 27.3593 39.2146 27.3549C39.2146 27.3505 39.2136 27.3462 39.2116 27.3422C39.2136 27.3383 39.2146 27.334 39.2146 27.3296C39.2146 27.3251 39.2136 27.3208 39.2116 27.3169C39.2007 27.3137 39.1891 27.3137 39.1781 27.3169L39.1167 27.3ZM32.7977 26.1528V24.8028H32.2616V25.1297C32.1578 25.0004 32.0254 24.8974 31.8751 24.8289C31.7248 24.7604 31.5608 24.7283 31.396 24.7351C31.0239 24.7351 30.667 24.8844 30.4038 25.15C30.1407 25.4156 29.9929 25.7758 29.9929 26.1514C29.9929 26.5271 30.1407 26.8873 30.4038 27.1529C30.667 27.4185 31.0239 27.5677 31.396 27.5677C31.5608 27.5746 31.7248 27.5425 31.8751 27.4739C32.0254 27.4054 32.1578 27.3024 32.2616 27.1731V27.5001H32.7977V26.1528ZM30.6337 26.1528C30.6244 26.0362 30.6392 25.919 30.6771 25.8085C30.7151 25.6979 30.7753 25.5965 30.854 25.5107C30.9328 25.4249 31.0283 25.3565 31.1345 25.3098C31.2408 25.2632 31.3555 25.2393 31.4714 25.2396C31.6967 25.2615 31.9058 25.3673 32.058 25.5364C32.2101 25.7055 32.2944 25.9258 32.2944 26.1542C32.2944 26.3827 32.2101 26.6029 32.058 26.772C31.9058 26.9411 31.6967 27.047 31.4714 27.0688C31.3555 27.0692 31.2408 27.0453 31.1345 26.9987C31.0283 26.952 30.9328 26.8836 30.854 26.7978C30.7753 26.7119 30.7151 26.6106 30.6771 26.5C30.6392 26.3895 30.6244 26.2722 30.6337 26.1557V26.1528ZM38.1924 26.1528V23.7148H37.6563V25.1241C37.5525 24.9948 37.4201 24.8918 37.2698 24.8233C37.1195 24.7548 36.9555 24.7226 36.7907 24.7295C36.4186 24.7295 36.0617 24.8787 35.7985 25.1443C35.5354 25.4099 35.3876 25.7702 35.3876 26.1458C35.3876 26.5214 35.5354 26.8817 35.7985 27.1473C36.0617 27.4129 36.4186 27.5621 36.7907 27.5621C36.9555 27.5689 37.1195 27.5368 37.2698 27.4683C37.4201 27.3998 37.5525 27.2968 37.6563 27.1675V27.4944H38.1924V26.1528ZM36.0284 26.1528C36.0191 26.0362 36.0339 25.919 36.0719 25.8085C36.1098 25.6979 36.17 25.5965 36.2488 25.5107C36.3275 25.4249 36.423 25.3565 36.5293 25.3098C36.6355 25.2632 36.7502 25.2393 36.8661 25.2396C37.082 25.2732 37.2787 25.3839 37.4203 25.5517C37.562 25.7195 37.6392 25.933 37.6379 26.1535C37.6365 26.3739 37.5567 26.5865 37.413 26.7525C37.2692 26.9185 37.0712 27.0267 36.8549 27.0576C36.7393 27.0579 36.6249 27.0341 36.5188 26.9876C36.4127 26.9411 36.3174 26.873 36.2387 26.7875C36.16 26.7019 36.0997 26.6009 36.0616 26.4907C36.0235 26.3805 36.0084 26.2636 36.0172 26.1472L36.0284 26.1528Z" fill="white"/>
<path d="M27.8973 4.26709H19.1016V20.2226H27.8973V4.26709Z" fill="#FF5F00"/>
<path d="M19.6586 12.2462C19.6574 10.7099 20.0025 9.19334 20.6677 7.81145C21.3328 6.42955 22.3007 5.21849 23.498 4.26991C22.0151 3.09353 20.2342 2.36201 18.3588 2.15896C16.4835 1.9559 14.5893 2.2895 12.8929 3.12163C11.1965 3.95376 9.76627 5.25085 8.76564 6.86464C7.76501 8.47844 7.23438 10.3438 7.23438 12.2476C7.23437 14.1514 7.76501 16.0168 8.76564 17.6306C9.76627 19.2444 11.1965 20.5415 12.8929 21.3736C14.5893 22.2058 16.4835 22.5394 18.3588 22.3363C20.2342 22.1333 22.0151 21.4018 23.498 20.2254C22.3003 19.2765 21.3322 18.065 20.667 16.6826C20.0019 15.3001 19.657 13.7831 19.6586 12.2462Z" fill="#EB001B"/>
<path d="M38.8104 18.5342V18.2073H38.9417V18.1396H38.6094V18.2073H38.7406V18.5342H38.8104ZM39.4554 18.5342V18.1396H39.3549L39.2376 18.4215L39.1204 18.1396H39.0198V18.5342H39.0897V18.2355L39.1986 18.492H39.2739L39.3828 18.2355V18.5342H39.4554Z" fill="#F79E1B"/>
<path d="M39.7652 12.2463C39.7651 14.1503 39.2343 16.0158 38.2335 17.6296C37.2327 19.2435 35.8023 20.5405 34.1056 21.3726C32.409 22.2046 30.5147 22.5379 28.6393 22.3346C26.7638 22.1313 24.9828 21.3994 23.5 20.2226C24.6969 19.2732 25.6645 18.0618 26.3298 16.6798C26.9952 15.2979 27.3409 13.7814 27.3409 12.2449C27.3409 10.7084 26.9952 9.19194 26.3298 7.80997C25.6645 6.428 24.6969 5.2166 23.5 4.26717C24.9828 3.09043 26.7638 2.35856 28.6393 2.15521C30.5147 1.95186 32.409 2.28525 34.1056 3.11726C35.8023 3.94927 37.2327 5.24633 38.2335 6.86018C39.2343 8.47403 39.7651 10.3396 39.7652 12.2435V12.2463Z" fill="#F79E1B"/>
</svg>
