<svg width="68" height="25" viewBox="0 0 68 25" fill="none" xmlns="http://www.w3.org/2000/svg">
<g clip-path="url(#clip0_10_6308)">
<path fill-rule="evenodd" clip-rule="evenodd" d="M43.4863 0.120645H43.4873C43.4863 0.0960553 43.4853 0.0714652 43.4844 0.046875C48.9691 0.0489242 54.4537 0.0509734 59.9384 0.0519979C60.2794 0.0571209 60.6204 0.0847848 60.9575 0.136014C62.3816 0.294826 63.7493 0.9229 64.882 1.84093C65.7281 2.53663 66.4402 3.41265 66.9696 4.39729C67.4825 5.31327 67.8391 6.32556 68.0003 7.37782V10.4116C63.9514 10.4321 59.9025 10.4178 55.8536 10.4249C54.6587 10.4147 53.4532 10.4823 52.269 10.2692C49.9279 9.87679 47.7344 8.60835 46.148 6.75384C44.5889 4.94749 43.5883 2.58171 43.4863 0.130891V0.120645Z" fill="url(#paint0_linear_10_6308)"/>
<path fill-rule="evenodd" clip-rule="evenodd" d="M0 0H6.42503C7.13806 0.106557 7.87537 -0.0215164 8.57577 0.178279C9.80366 0.487705 10.8819 1.40061 11.425 2.60451C11.6202 3.01434 11.7232 3.46311 11.8446 3.90266C12.8403 7.52971 13.8244 11.1609 14.8259 14.7859C14.9959 14.7838 15.1669 14.7807 15.3379 14.7787C16.3909 10.9518 17.4294 7.1209 18.4824 3.29406C18.8885 1.78689 20.0979 0.566598 21.5385 0.190574C22.1097 0.022541 22.7101 0.0747951 23.2939 0H29.4586C29.6305 0.0163934 29.9734 0.0502049 30.1454 0.0665984C30.1289 8.03689 30.1454 16.0082 30.1376 23.9785C30.1357 24.3186 30.1609 24.6619 30.1133 25H22.5857C22.5818 20.0861 22.5925 15.1732 22.5799 10.2592C22.4138 10.2643 22.2467 10.2674 22.0815 10.2756C20.6497 15.1834 19.211 20.0891 17.7907 25H12.377C10.9412 20.0922 9.50931 15.1834 8.08131 10.2736C7.91326 10.2736 7.7452 10.2715 7.57811 10.2705C7.57714 15.1803 7.57617 20.0902 7.57811 25H0V0ZM33.3472 0.0461066C35.8632 0.0563525 38.3782 0.0502049 40.8942 0.0491803C40.902 8.36578 40.8933 16.6834 40.8991 25H33.3443C33.3462 16.6824 33.3404 8.36475 33.3472 0.0461066ZM43.963 11.8996C46.4382 11.9262 48.9143 11.9037 51.3895 11.9109C56.882 11.9068 62.3745 11.9201 67.8669 11.9047C66.9305 14.3207 64.9109 16.1568 62.6037 17.0266C64.2862 19.6834 65.961 22.3463 67.6474 25H59.0017C57.5785 22.5492 56.1505 20.1014 54.7283 17.6506C53.6705 17.6475 52.6135 17.6465 51.5576 17.6506C51.5731 20.1004 51.5304 22.5523 51.578 25H43.9571C43.961 20.6332 43.9494 16.2664 43.963 11.8996Z" fill="#03A774"/>
</g>
<defs>
<linearGradient id="paint0_linear_10_6308" x1="43.4873" y1="5.23745" x2="68.0013" y2="5.23745" gradientUnits="userSpaceOnUse">
<stop stop-color="#5B9FD7"/>
<stop offset="1" stop-color="#3C509E"/>
</linearGradient>
<clipPath id="clip0_10_6308">
<rect width="68" height="25" fill="white"/>
</clipPath>
</defs>
</svg>
