<svg width="76" height="26" viewBox="0 0 76 26" fill="none" xmlns="http://www.w3.org/2000/svg">
<g clip-path="url(#clip0_10_6306)">
<path d="M49.4911 0.0400391C44.1002 0.0400391 39.2827 2.98417 39.2827 8.42369C39.2827 14.6618 47.8268 15.0927 47.8268 18.2265C47.8268 19.546 46.3916 20.7272 43.9404 20.7272C40.4617 20.7272 37.8616 19.0767 37.8616 19.0767L36.7491 24.5658C36.7491 24.5658 39.7443 25.96 43.7209 25.96C49.6148 25.96 54.2527 22.8713 54.2527 17.3387C54.2527 10.7471 45.673 10.329 45.673 7.42028C45.673 6.38661 46.8511 5.25403 49.2953 5.25403C52.0531 5.25403 54.3031 6.45438 54.3031 6.45438L55.3919 1.15286C55.3919 1.15286 52.9437 0.0400391 49.4911 0.0400391ZM0.169598 0.440154L0.0390625 1.24038C0.0390625 1.24038 2.30702 1.67773 4.34969 2.55013C6.97979 3.55052 7.16715 4.1329 7.6101 5.94173L12.4369 25.5473H18.9073L28.8755 0.440154H22.4199L16.0148 17.5107L13.4011 3.0409C13.1614 1.38485 11.9473 0.440154 10.4611 0.440154H0.169598ZM31.4713 0.440154L26.4072 25.5473H32.5631L37.6095 0.440154H31.4713ZM65.8051 0.440154C64.3206 0.440154 63.5341 1.27753 62.957 2.74081L53.9382 25.5473H60.3938L61.6428 21.7463H69.5075L70.267 25.5473H75.9631L70.9938 0.440154H65.8051ZM66.6446 7.22335L68.5582 16.6448H63.4317L66.6446 7.22335Z" fill="#405FEE"/>
</g>
<defs>
<clipPath id="clip0_10_6306">
<rect width="76" height="26" fill="white"/>
</clipPath>
</defs>
</svg>
