<svg width="150" height="150" viewBox="0 0 150 150" fill="none" xmlns="http://www.w3.org/2000/svg">
<circle cx="75" cy="75" r="75" fill="white" fill-opacity="0.12"/>
<circle cx="75" cy="75" r="33" fill="#9F694F"/>
<path d="M131.581 79.292C131.66 78.1507 132.095 77.2364 132.885 76.5489C133.675 75.8688 134.644 75.5687 135.792 75.6487C136.941 75.7286 137.863 76.1604 138.558 76.9439C139.253 77.7347 139.561 78.7008 139.482 79.842C139.423 80.6833 139.156 81.3999 138.682 81.9917C138.206 82.5908 137.583 82.9958 136.811 83.2067L136.837 82.8336C137.506 82.6228 138.042 82.2522 138.447 81.7217C138.851 81.1985 139.079 80.5638 139.13 79.8176C139.202 78.7861 138.921 77.9101 138.288 77.1897C137.661 76.4771 136.821 76.0841 135.767 76.0108C135.08 75.9629 134.451 76.0699 133.881 76.3316C133.311 76.6007 132.854 76.9952 132.509 77.5151C132.172 78.0356 131.979 78.636 131.932 79.3164C131.878 80.0846 132.026 80.7638 132.375 81.3541C132.723 81.9517 133.236 82.3991 133.913 82.6962L133.887 83.0693C133.108 82.7504 132.514 82.2569 132.105 81.5889C131.695 80.9209 131.521 80.1552 131.581 79.292Z" fill="white"/>
<path d="M129.222 92.7967L129.306 92.4435L136.407 92.873L130.618 88.4593L130.648 88.3309L137.792 87.0175L131.278 84.1723L131.362 83.8192L138.535 86.9349L138.461 87.2452L131.278 88.5377L137.099 92.9591L137.023 93.2801L129.222 92.7967Z" fill="white"/>
<path d="M126.997 100.632C126.607 99.6484 126.64 98.628 127.096 97.5708C127.552 96.5137 128.271 95.7901 129.254 95.4C130.244 95.0128 131.257 95.0433 132.294 95.4914C132.98 95.7881 133.533 96.2107 133.951 96.759C134.376 97.3102 134.627 97.9337 134.702 98.6293C134.777 99.3249 134.665 100.02 134.366 100.713C133.91 101.77 133.187 102.492 132.198 102.88C131.215 103.27 130.198 103.238 129.148 102.784C128.105 102.333 127.388 101.616 126.997 100.632ZM127.419 97.7105C127.004 98.6734 126.975 99.5999 127.334 100.49C127.69 101.387 128.343 102.04 129.292 102.45C130.248 102.864 131.174 102.892 132.07 102.537C132.97 102.191 133.628 101.536 134.043 100.573C134.455 99.6172 134.48 98.6893 134.118 97.7896C133.755 96.8899 133.099 96.2349 132.15 95.8247C131.531 95.557 130.908 95.4555 130.281 95.5201C129.661 95.5876 129.097 95.8113 128.59 96.1912C128.082 96.5711 127.692 97.0775 127.419 97.7105Z" fill="white"/>
<path d="M128.971 110.58L128.678 110.404L129.969 108.254L123.662 104.461L123.849 104.15L130.156 107.942L131.446 105.792L131.739 105.968L128.971 110.58Z" fill="white"/>
<path d="M126.214 114.358C125.798 114.909 125.276 115.235 124.647 115.339C124.017 115.442 123.44 115.294 122.913 114.896C122.381 114.494 122.079 113.975 122.006 113.341C121.929 112.713 122.101 112.121 122.52 111.565L123.866 109.782L121.418 107.931L121.63 107.65L127.771 112.295L126.214 114.358ZM122.808 111.768C122.45 112.242 122.303 112.747 122.367 113.283C122.427 113.825 122.682 114.266 123.132 114.607C123.576 114.943 124.067 115.066 124.604 114.975C125.136 114.891 125.582 114.611 125.94 114.137L127.278 112.364L124.147 109.995L122.808 111.768Z" fill="white"/>
<path d="M117.741 113.128L115.052 115.96L114.797 115.718L117.728 112.631L123.307 117.938L120.459 120.937L120.204 120.695L122.81 117.95L120.522 115.774L118.114 118.311L117.867 118.076L120.275 115.539L117.741 113.128Z" fill="white"/>
<path d="M114.68 126.066L114.459 125.806L116.368 124.179L111.599 118.574L111.876 118.338L116.644 123.943L118.553 122.316L118.774 122.576L114.68 126.066Z" fill="white"/>
<path d="M109.108 126.253C108.527 126.65 107.925 126.796 107.302 126.689C106.672 126.587 106.167 126.257 105.787 125.7C105.414 125.155 105.295 124.57 105.428 123.946C105.561 123.322 105.915 122.813 106.49 122.419L108.687 120.916L113.03 127.275L112.739 127.473L111.014 124.948L109.108 126.253ZM106.692 122.695C106.201 123.03 105.898 123.464 105.782 123.997C105.671 124.535 105.774 125.038 106.092 125.504C106.411 125.97 106.839 126.246 107.377 126.331C107.919 126.422 108.435 126.3 108.925 125.965L110.822 124.667L108.589 121.396L106.692 122.695Z" fill="white"/>
<path d="M98.7891 131.188C98.5021 131.23 98.219 131.21 97.94 131.127C97.6609 131.045 97.4119 130.904 97.193 130.706C96.9674 130.51 96.791 130.272 96.6638 129.992C96.4184 129.451 96.4027 128.91 96.6166 128.37C96.8335 127.836 97.2424 127.433 97.8432 127.16L100.507 125.949L103.688 132.961L101.034 134.167C100.494 134.413 99.9753 134.451 99.4797 134.282C98.9872 134.119 98.6303 133.794 98.4091 133.307C98.2455 132.946 98.1991 132.568 98.2697 132.174C98.3433 131.786 98.5165 131.457 98.7891 131.188ZM100.829 133.874L103.222 132.786L101.932 129.941L99.4781 131.057C99.0909 131.233 98.8289 131.525 98.6921 131.933C98.5487 132.345 98.5633 132.741 98.736 133.122C98.9147 133.516 99.2064 133.786 99.611 133.932C100.016 134.079 100.422 134.059 100.829 133.874ZM97.9186 127.512C97.6181 127.649 97.3729 127.845 97.1828 128.1C96.9958 128.363 96.8867 128.646 96.8556 128.95C96.8208 129.264 96.8716 129.571 97.0079 129.871C97.2078 130.312 97.5344 130.615 97.9875 130.779C98.437 130.954 98.8887 130.938 99.3427 130.731L101.786 129.621L100.332 126.415L97.9186 127.512Z" fill="white"/>
<path d="M90.6248 137.792L90.3822 137.864L88.2017 130.479L88.5498 130.376L90.5278 137.075L93.4441 128.928L93.6762 128.859L95.8566 136.244L95.5191 136.344L93.5442 129.656L90.6248 137.792Z" fill="white"/>
<path d="M80.0521 132.133L79.2024 132.251L78.9244 130.258L79.2621 130.211L79.493 131.867L86.291 130.917L86.0601 129.261L86.3978 129.214L86.6758 131.207L86.1202 131.285C86.0058 131.368 85.9112 131.459 85.8362 131.558C85.7549 131.665 85.6845 131.798 85.6248 131.954C85.5579 132.111 85.51 132.325 85.4811 132.596C85.4522 132.867 85.431 133.166 85.4175 133.493C85.3977 133.829 85.392 134.267 85.4006 134.806C85.4092 135.346 85.4264 135.921 85.4524 136.532C85.4783 137.143 85.5132 137.897 85.5568 138.794L81.0684 139.421L80.0521 132.133ZM85.1829 138.502C85.0873 136.701 85.0368 135.357 85.0315 134.469C85.0199 133.59 85.0616 132.906 85.1566 132.419C85.2443 131.933 85.4057 131.577 85.6409 131.352L80.4116 132.083L81.3808 139.033L85.1829 138.502Z" fill="white"/>
<path d="M77.2406 132.271L73.3358 132.302L73.333 131.95L77.5899 131.917L77.6493 139.617L73.5134 139.648L73.5107 139.296L77.2946 139.267L77.2702 136.11L73.7724 136.137L73.7697 135.796L77.2676 135.769L77.2406 132.271Z" fill="white"/>
<path d="M64.2248 132.021C65.0665 131.381 66.0577 131.138 67.1986 131.293C68.3394 131.448 69.2303 131.946 69.871 132.788C70.5107 133.637 70.7548 134.621 70.6031 135.741C70.5027 136.482 70.2449 137.128 69.8299 137.678C69.4139 138.236 68.8812 138.645 68.2318 138.904C67.5823 139.164 66.8834 139.243 66.1349 139.141C64.9941 138.986 64.1038 138.484 63.464 137.635C62.8233 136.793 62.5797 135.806 62.7333 134.672C62.886 133.546 63.3832 132.662 64.2248 132.021ZM67.1513 131.642C66.1122 131.501 65.2126 131.723 64.4524 132.308C63.685 132.892 63.2319 133.696 63.093 134.721C62.9532 135.753 63.1754 136.652 63.7596 137.42C64.3355 138.194 65.1431 138.651 66.1822 138.792C67.2141 138.933 68.1142 138.707 68.8826 138.116C69.6509 137.524 70.1046 136.716 70.2434 135.692C70.334 135.023 70.2637 134.396 70.0323 133.809C69.8 133.23 69.4325 132.747 68.9299 132.361C68.4272 131.974 67.8344 131.735 67.1513 131.642Z" fill="white"/>
<path d="M52.4303 128.463C53.3881 128.015 54.4082 127.987 55.4905 128.38C56.5728 128.773 57.3382 129.448 57.7867 130.407C58.2328 131.372 58.2635 132.386 57.8791 133.447C57.6244 134.151 57.2362 134.728 56.7143 135.178C56.19 135.635 55.5831 135.922 54.8936 136.039C54.2041 136.155 53.5043 136.085 52.7942 135.827C51.7119 135.434 50.9478 134.755 50.5017 133.79C50.0532 132.832 50.0237 131.815 50.4132 130.739C50.8001 129.67 51.4725 128.912 52.4303 128.463ZM55.3707 128.711C54.3849 128.353 53.4588 128.38 52.5924 128.791C51.7191 129.2 51.1064 129.89 50.7544 130.863C50.3999 131.842 50.4271 132.768 50.836 133.642C51.2356 134.52 51.9283 135.138 52.9141 135.496C53.893 135.851 54.8203 135.821 55.6961 135.405C56.5719 134.99 57.1858 134.296 57.5378 133.324C57.7675 132.689 57.8312 132.061 57.7289 131.439C57.6241 130.824 57.3669 130.274 56.9572 129.79C56.5475 129.306 56.0187 128.946 55.3707 128.711Z" fill="white"/>
<path d="M43.3893 122.427L44.2565 127.401L45.3808 128.072L47.3385 124.782L47.6408 124.962L43.7029 131.579L43.4006 131.399L45.2008 128.374L44.0765 127.704L39.6876 129.185L39.2908 128.948L43.8869 127.398L42.9831 122.185L43.3893 122.427Z" fill="white"/>
<path d="M36.5761 126.982L33.1259 124.251L37.8987 118.209L38.1747 118.427L33.6133 124.202L36.5373 126.516L40.0879 122.607C41.0321 121.577 41.9872 121.445 42.9532 122.209L43.0912 122.318L42.873 122.595L42.735 122.485C41.9472 121.862 41.1626 121.98 40.3812 122.839L36.5761 126.982Z" fill="white"/>
<path d="M26.1628 117.36L25.9892 117.176L31.5873 111.889L31.8363 112.153L26.758 116.949L35.3371 115.868L35.5031 116.044L29.905 121.331L29.6636 121.074L34.7338 116.286L26.1628 117.36Z" fill="white"/>
<path d="M20.5259 109.784L20.319 109.486L26.6416 105.091L26.8485 105.389L23.6962 107.58L26.5052 111.629L29.6574 109.438L29.8581 109.728L23.5354 114.122L23.3348 113.833L26.2161 111.83L23.4072 107.781L20.5259 109.784Z" fill="white"/>
<path d="M15.9527 101.294L15.8405 101.068L22.7398 97.6487L22.9007 97.9741L16.6421 101.076L25.1635 102.549L25.2707 102.766L18.3714 106.185L18.2154 105.87L24.4642 102.773L15.9527 101.294Z" fill="white"/>
<path d="M20.2596 90.7015L17.6985 95.052L18.1209 96.291L21.7434 95.0535L21.857 95.3866L14.5704 97.8759L14.4568 97.5427L17.7878 96.4048L17.3654 95.1658L13.0618 93.451L12.9127 93.0137L17.4186 94.8105L20.1069 90.2538L20.2596 90.7015Z" fill="white"/>
<path d="M19.4797 88.9893L18.6611 85.1711L19.0053 85.0971L19.8976 89.2596L12.3693 90.8766L11.5023 86.8325L11.8465 86.7586L12.6397 90.4585L15.7263 89.7955L14.993 86.3752L15.3264 86.3036L16.0597 89.7239L19.4797 88.9893Z" fill="white"/>
<path d="M20.4374 79.6846L9.14465 80.6022L9.11798 80.2733L20.4108 79.3557L20.4374 79.6846Z" fill="white"/>
<path d="M18.4202 70.7712C18.3407 71.9125 17.9058 72.8269 17.1154 73.5144C16.3256 74.1947 15.3564 74.4949 14.2078 74.4151C13.0593 74.3353 12.1374 73.9038 11.4421 73.1204C10.7474 72.3297 10.4397 71.3637 10.5192 70.2225C10.5778 69.3812 10.8446 68.6646 11.3195 68.0727C11.795 67.4736 12.4186 67.0685 13.1905 66.8575L13.1645 67.2306C12.4956 67.4414 11.9588 67.8121 11.5543 68.3427C11.1503 68.8659 10.9223 69.5007 10.8704 70.2468C10.7985 71.2783 11.0794 72.1542 11.7128 72.8745C12.3395 73.587 13.1796 73.9798 14.2331 74.053C14.9207 74.1008 15.5494 73.9937 16.1189 73.7319C16.689 73.4627 17.1465 73.0682 17.4915 72.5481C17.8291 72.0276 18.0217 71.4272 18.069 70.7468C18.1225 69.9787 17.975 69.2995 17.6265 68.7093C17.2785 68.1117 16.7657 67.6645 16.088 67.3675L16.114 66.9944C16.8931 67.3131 17.4873 67.8065 17.8965 68.4744C18.3058 69.1424 18.4803 69.908 18.4202 70.7712Z" fill="white"/>
<path d="M20.693 57.5391L20.6101 57.8925L13.5076 57.4901L19.3136 61.8818L19.2835 62.0103L12.1453 63.3509L18.6698 66.1712L18.587 66.5246L11.4022 63.4363L11.475 63.1257L18.6535 61.8059L12.8154 57.4067L12.8907 57.0854L20.693 57.5391Z" fill="white"/>
<path d="M22.8532 49.7424C23.2472 50.7246 23.2182 51.745 22.7661 52.8039C22.314 53.8628 21.5972 54.5891 20.6158 54.9828C19.6276 55.3736 18.6144 55.347 17.5761 54.9028C16.8884 54.6086 16.3343 54.1881 15.9139 53.6413C15.4867 53.0917 15.2342 52.4692 15.1563 51.7739C15.0784 51.0785 15.1878 50.3835 15.4844 49.6889C15.9365 48.63 16.6566 47.9051 17.6448 47.5143C18.6262 47.1206 19.6428 47.1487 20.6946 47.5986C21.7397 48.0457 22.4592 48.7603 22.8532 49.7424ZM22.4424 52.6655C22.8542 51.701 22.879 50.7744 22.5169 49.8857C22.1577 48.9903 21.5027 48.3392 20.5521 47.9325C19.5947 47.5229 18.6685 47.4976 17.7737 47.8566C16.875 48.206 16.2198 48.8629 15.808 49.8273C15.3991 50.785 15.3777 51.713 15.7437 52.6114C16.1096 53.5097 16.768 54.1622 17.7186 54.5689C18.3389 54.8343 18.9624 54.9335 19.589 54.8665C20.2088 54.7967 20.7717 54.5709 21.2776 54.1891C21.7835 53.8073 22.1718 53.2994 22.4424 52.6655Z" fill="white"/>
<path d="M20.8596 39.734L21.1525 39.9086L19.8699 42.0638L26.1904 45.8328L26.0048 46.1448L19.6842 42.3758L18.4016 44.531L18.1087 44.3563L20.8596 39.734Z" fill="white"/>
<path d="M23.584 35.9591C23.9974 35.4074 24.5185 35.0788 25.1474 34.9733C25.7763 34.8677 26.3546 35.013 26.8825 35.4093C27.4161 35.8099 27.7204 36.3272 27.7953 36.9611C27.8745 37.5891 27.7053 38.1819 27.2875 38.7394L25.9486 40.5265L28.4029 42.369L28.1919 42.6507L22.034 38.0278L23.584 35.9591ZM26.9994 38.5369C27.3556 38.0615 27.5007 37.5561 27.4346 37.0205C27.373 36.479 27.1164 36.0388 26.6648 35.6998C26.2191 35.3652 25.728 35.244 25.1914 35.3364C24.6593 35.4229 24.2151 35.7039 23.8589 36.1792L22.5266 37.9575L25.6671 40.3151L26.9994 38.5369Z" fill="white"/>
<path d="M31.9696 37.2421L34.648 34.4004L34.9039 34.6421L31.9841 37.7399L26.386 32.453L29.2229 29.4432L29.4788 29.6849L26.8833 32.4385L29.1786 34.6061L31.5778 32.0607L31.8257 32.2948L29.4265 34.8403L31.9696 37.2421Z" fill="white"/>
<path d="M34.9048 24.3232L35.1267 24.5821L33.224 26.2161L38.0129 31.8037L37.7375 32.0402L32.9486 26.4526L31.0459 28.0865L30.824 27.8276L34.9048 24.3232Z" fill="white"/>
<path d="M40.7513 23.8948C41.3323 23.4972 41.9345 23.3517 42.5578 23.4583C43.1873 23.5608 43.6922 23.8906 44.0727 24.4477C44.4449 24.9927 44.5645 25.5774 44.4314 26.2016C44.2982 26.8259 43.9442 27.3347 43.3692 27.7281L41.1724 29.2314L36.8298 22.8728L37.1203 22.674L38.8449 25.1993L40.7513 23.8948ZM43.1678 27.4528C43.6581 27.1173 43.9611 26.6833 44.077 26.1509C44.1888 25.6123 44.0854 25.1099 43.7669 24.6436C43.4485 24.1773 43.0204 23.9016 42.4827 23.8163C41.9408 23.7251 41.4247 23.8472 40.9345 24.1826L39.0372 25.4809L41.2705 28.7511L43.1678 27.4528Z" fill="white"/>
<path d="M50.7394 19.0687C51.0263 19.0258 51.3094 19.0452 51.5887 19.1267C51.8681 19.2083 52.1176 19.3479 52.3372 19.5456C52.5635 19.7403 52.7408 19.9777 52.8691 20.2577C53.1165 20.7977 53.1343 21.3382 52.9224 21.8793C52.7074 22.4137 52.3 22.8186 51.7002 23.0939L49.041 24.3146L45.8339 17.3143L48.4831 16.0982C49.023 15.8504 49.541 15.8103 50.0372 15.9779C50.5304 16.1388 50.8885 16.4626 51.1115 16.9493C51.2764 17.3093 51.3243 17.6867 51.2551 18.0816C51.1829 18.4698 51.011 18.7988 50.7394 19.0687ZM48.6897 16.3907L46.3004 17.4874L47.6016 20.3276L50.0509 19.2033C50.4374 19.0258 50.6983 18.7326 50.8336 18.3235C50.9755 17.9114 50.9594 17.5153 50.7853 17.1353C50.6051 16.742 50.3124 16.4729 49.9073 16.328C49.5021 16.1832 49.0963 16.204 48.6897 16.3907ZM51.6236 22.7418C51.9235 22.6041 52.168 22.4071 52.3571 22.1509C52.5432 21.888 52.6512 21.6044 52.6812 21.3001C52.7148 20.9861 52.6629 20.6791 52.5255 20.3791C52.3239 19.9391 51.9962 19.6376 51.5425 19.4747C51.0923 19.3021 50.6407 19.3198 50.1875 19.5279L47.7482 20.6476L49.2143 23.8477L51.6236 22.7418Z" fill="white"/>
<path d="M59.133 12.3291L59.3756 12.2573L61.5561 19.6421L61.208 19.7451L59.23 13.046L56.3137 21.193L56.0816 21.2617L53.9012 13.8769L54.2387 13.777L56.2136 20.4655L59.133 12.3291Z" fill="white"/>
<path d="M69.7291 17.9466L70.5789 17.8279L70.8569 19.8216L70.5191 19.8688L70.2882 18.2128L63.4903 19.1626L63.7212 20.8185L63.3834 20.8657L63.1054 18.872L63.6611 18.7944C63.7754 18.7118 63.8701 18.6208 63.9451 18.5215C64.0263 18.4139 64.0968 18.2818 64.1564 18.1254C64.2233 17.968 64.2712 17.754 64.3001 17.4834C64.329 17.2127 64.3503 16.9136 64.3638 16.5859C64.3836 16.2499 64.3892 15.8123 64.3806 15.2729C64.3721 14.7336 64.3548 14.1585 64.3289 13.5475C64.3029 12.9366 64.2681 12.1825 64.2244 11.2852L68.7128 10.6581L69.7291 17.9466ZM64.5984 11.5773C64.694 13.378 64.7444 14.7223 64.7497 15.6101C64.7613 16.4896 64.7196 17.173 64.6246 17.6601C64.5369 18.1463 64.3755 18.502 64.1404 18.7274L69.3696 17.9968L68.4004 11.0461L64.5984 11.5773Z" fill="white"/>
<path d="M72.1793 17.7904L76.084 17.745L76.0881 18.097L71.8314 18.1464L71.7424 10.4469L75.8782 10.3989L75.8822 10.7509L72.0985 10.7948L72.1349 13.9516L75.6327 13.911L75.6367 14.252L72.1389 14.2926L72.1793 17.7904Z" fill="white"/>
<path d="M85.299 17.9538C84.4599 18.5975 83.4697 18.844 82.3283 18.6932C81.1869 18.5425 80.2941 18.0473 79.65 17.2078C79.0069 16.3609 78.7589 15.3777 78.9061 14.258C79.0036 13.5164 79.2587 12.8695 79.6715 12.3175C80.0853 11.7582 80.6163 11.3475 81.2647 11.0855C81.913 10.8234 82.6116 10.7419 83.3604 10.8408C84.5019 10.9915 85.3941 11.4903 86.0373 12.3371C86.6813 13.1767 86.9288 14.1636 86.7797 15.2978C86.6316 16.4248 86.138 17.3101 85.299 17.9538ZM82.3742 18.3442C83.4138 18.4815 84.3125 18.2562 85.0702 17.6684C85.8352 17.0815 86.2851 16.2755 86.4199 15.2503C86.5556 14.2178 86.3298 13.3189 85.7426 12.5534C85.1635 11.7816 84.3542 11.3271 83.3146 11.1898C82.2822 11.0534 81.383 11.2823 80.6171 11.8765C79.8511 12.4707 79.4007 13.2803 79.266 14.3055C79.1781 14.9744 79.2509 15.6017 79.4846 16.1873C79.7192 16.7657 80.0886 17.2472 80.5928 17.6319C81.097 18.0165 81.6908 18.254 82.3742 18.3442Z" fill="white"/>
<path d="M97.3783 21.5158C96.4204 21.964 95.4004 21.9918 94.3181 21.5992C93.2358 21.2065 92.4704 20.531 92.0218 19.5726C91.5758 18.6073 91.5451 17.5937 91.9295 16.5318C92.1842 15.8285 92.5724 15.2517 93.0943 14.8013C93.6186 14.344 94.2255 14.0571 94.915 13.9406C95.6045 13.8241 96.3043 13.8947 97.0144 14.1523C98.0967 14.5449 98.8608 15.2239 99.3069 16.1892C99.7554 17.1476 99.7849 18.1647 99.3954 19.2403C99.0085 20.3091 98.3361 21.0676 97.3783 21.5158ZM94.4379 21.2682C95.4237 21.6258 96.3498 21.5991 97.2162 21.1879C98.0895 20.7792 98.7022 20.0888 99.0542 19.1165C99.4087 18.1374 99.3815 17.2109 98.9725 16.3371C98.573 15.4588 97.8803 14.8409 96.8945 14.4833C95.9156 14.1281 94.9883 14.1583 94.1125 14.5739C93.2367 14.9895 92.6228 15.6834 92.2708 16.6556C92.0411 17.29 91.9774 17.9183 92.0797 18.5405C92.1845 19.1557 92.4417 19.7054 92.8514 20.1895C93.2611 20.6736 93.7899 21.0331 94.4379 21.2682Z" fill="white"/>
<path d="M106.47 27.5375L105.603 22.5635L104.479 21.8931L102.521 25.1826L102.219 25.0023L106.156 18.3854L106.459 18.5657L104.659 21.5906L105.783 22.261L110.172 20.7798L110.569 21.0164L105.972 22.5662L106.876 27.7797L106.47 27.5375Z" fill="white"/>
<path d="M113.047 22.7786L116.507 25.4966L111.757 31.5563L111.48 31.3389L116.02 25.5475L113.088 23.244L109.551 27.1663C108.611 28.1994 107.656 28.3355 106.688 27.5744L106.549 27.4657L106.766 27.1887L106.905 27.2974C107.695 27.918 108.479 27.7973 109.257 26.9353L113.047 22.7786Z" fill="white"/>
<path d="M123.728 32.5716L123.901 32.7557L118.303 38.0427L118.054 37.7785L123.133 32.9825L114.554 34.0644L114.388 33.8883L119.986 28.6013L120.227 28.8575L115.157 33.6459L123.728 32.5716Z" fill="white"/>
<path d="M129.3 39.9957L129.508 40.2932L123.202 44.7111L122.994 44.4136L126.138 42.211L123.314 38.1722L120.17 40.3748L119.968 40.0864L126.275 35.6685L126.477 35.9569L123.603 37.9702L126.426 42.009L129.3 39.9957Z" fill="white"/>
<path d="M133.911 48.4585L134.024 48.6849L127.138 52.1294L126.976 51.8046L133.223 48.6799L124.696 47.238L124.588 47.0215L131.474 43.5769L131.632 43.8919L125.394 47.0117L133.911 48.4585Z" fill="white"/>
<path d="M129.648 59.0388L132.192 54.6786L131.765 53.4413L128.148 54.6924L128.033 54.3597L135.31 51.843L135.425 52.1757L132.098 53.3262L132.525 54.5636L136.835 56.2622L136.986 56.6989L132.473 54.9191L129.802 59.4859L129.648 59.0388Z" fill="white"/>
<path d="M130.462 60.8258L131.295 64.6409L130.951 64.7161L130.043 60.5571L137.565 58.9113L138.447 62.9521L138.104 63.0274L137.296 59.3305L134.212 60.0053L134.959 63.4227L134.625 63.4956L133.879 60.0781L130.462 60.8258Z" fill="white"/>
<path d="M129.544 70.1338L140.833 69.1726L140.861 69.5015L129.571 70.4626L129.544 70.1338Z" fill="white"/>
<path d="M87 75L69 86.2583V63.7417L87 75Z" fill="white"/>
</svg>
