<svg width="74" height="49" viewBox="0 0 74 49" fill="none" xmlns="http://www.w3.org/2000/svg">
<g clip-path="url(#clip0_10_18086)">
<path d="M26.9529 0H5.85127C2.62196 0 0 2.58934 0 5.77847V26.6176C0 29.8067 2.62196 32.396 5.85127 32.396H9.49535C12.5839 32.396 15.0948 34.8683 15.0948 37.9258V48.371C15.0948 48.9342 15.7836 49.2121 16.1836 48.8171C16.1836 48.8171 24.1087 41.0564 27.375 37.7649C31.0191 34.093 32.8041 30.604 32.8041 24.8182V5.77847C32.8041 2.58934 30.1822 0 26.9529 0Z" fill="#F4EFE7"/>
<path d="M67.7575 0H46.656C43.4266 0 40.8047 2.58934 40.8047 5.77847V26.6176C40.8047 29.8067 43.4266 32.396 46.656 32.396H50.3C53.3886 32.396 55.8995 34.8683 55.8995 37.9258V48.371C55.8995 48.9342 56.5883 49.2121 56.9883 48.8171C56.9883 48.8171 64.9134 41.0564 68.1797 37.7649C71.8238 34.093 73.6088 30.604 73.6088 24.8182V5.77847C73.6088 2.58934 70.9869 0 67.7575 0Z" fill="#F4EFE7"/>
</g>
<defs>
<clipPath id="clip0_10_18086">
<rect width="74" height="49" fill="white"/>
</clipPath>
</defs>
</svg>
