<svg width="132" height="37" viewBox="0 0 132 37" fill="none" xmlns="http://www.w3.org/2000/svg">
<g clip-path="url(#clip0_10_17933)">
<path fill-rule="evenodd" clip-rule="evenodd" d="M67.5217 28.091C67.5217 23.8844 64.7681 21.3731 60.6376 21.3564C56.454 21.3564 53.7534 24.1275 53.7534 28.0543C53.7534 32.2776 56.5071 34.7889 60.6376 34.7889C64.7681 34.7889 67.5217 32.0145 67.5217 28.091ZM32.7294 21.3731C30.6923 21.3731 29.206 21.9859 28.4695 22.5255V25.7629C29.2193 24.6105 30.7819 23.4747 32.726 23.5114C34.0863 23.548 35.1513 24.0343 35.1513 25.2433C35.1513 26.2125 34.5806 27.0119 32.9284 27.0119H31.0009V28.927H32.9483C34.9489 28.927 35.7949 29.4665 35.7949 30.6189C35.7949 31.9412 34.5474 32.6107 32.9848 32.6273C30.616 32.6473 28.9439 31.6048 28.1543 30.2825V33.1469C28.8377 33.9263 30.6127 34.7856 32.945 34.7656C36.3987 34.7456 38.177 33.017 38.177 30.7655C38.177 29.0535 37.2248 28.011 35.2408 27.7146C36.7271 27.1751 37.5168 26.1692 37.5168 24.6438C37.5168 22.3556 35.6091 21.3898 32.726 21.3698L32.7294 21.3731ZM40.7349 32.4441C41.4681 30.6756 42.0022 28.2209 42.0586 24.2574L42.0951 21.5596H51.1291V32.4441H52.6155V37.0038H50.4689V34.5857H41.4913V37.0038H39.3448V32.4441H40.7415H40.7349ZM42.9743 32.4441H48.83V23.6979H44.1853V24.3107C44.1123 27.7146 43.7042 30.3958 42.9743 32.4408V32.4441ZM72.2162 30.529V34.5857H69.9204V21.5629H74.1969C78.2544 21.5629 79.9829 23.0318 79.9829 25.9727C79.9829 28.9137 77.9624 30.5323 74.1969 30.5323H72.2162V30.529ZM72.2162 23.7012V28.3907H74.3628C76.4927 28.3907 77.5942 27.6846 77.5942 25.9161C77.5942 24.3174 76.642 23.7012 74.3993 23.7012H72.2162ZM125.206 28.947H131.118V26.8054H125.209V23.6979H131.802V21.5596H122.913V34.5824H132.001V32.4441H125.206V28.947ZM114.722 25.6163H112.977V21.5596H110.681V34.5824H114.742C118.488 34.5824 120.508 33.057 120.508 30.0228C120.508 26.9885 118.796 25.613 114.722 25.613V25.6163ZM112.977 32.4441V27.7546H114.925C117.164 27.7546 118.136 28.3674 118.136 29.9695C118.136 31.738 117.035 32.4441 114.885 32.4441H112.977ZM97.7755 34.5824V21.5596H103.356C106.219 21.5596 107.689 22.6387 107.689 24.797C107.689 26.2858 107.101 27.2716 105.778 27.7912C107.357 28.071 108.074 29.0935 108.074 30.7855C108.074 33.4833 106.163 34.5824 103.041 34.5824H97.7722H97.7755ZM103.027 27.0652C104.477 27.0652 105.396 26.4157 105.396 25.2966C105.396 24.2541 104.716 23.6979 103.084 23.6979H100.075V27.0652H103.031H103.027ZM103.193 32.4441C104.955 32.4441 105.764 31.8679 105.764 30.6189C105.764 29.3699 104.845 28.887 103.233 28.887H100.075V32.4408H103.197L103.193 32.4441ZM95.3702 28.0943C95.3702 23.8877 92.6166 21.3764 88.4861 21.3598C84.3025 21.3598 81.6019 24.1309 81.6019 28.0577C81.6019 32.2809 84.3556 34.7922 88.4861 34.7922C92.6166 34.7922 95.3702 32.0178 95.3702 28.0943ZM92.9483 28.0743C92.9483 30.8088 91.2397 32.6506 88.5027 32.6506C85.5665 32.6306 84.0238 30.6189 84.0238 28.0743C84.0238 25.3565 85.7125 23.5147 88.4695 23.498C91.4056 23.518 92.9483 25.5264 92.9483 28.0743ZM65.0965 28.0743C65.0965 30.8088 63.3879 32.6506 60.6508 32.6506C57.7147 32.6306 56.172 30.6189 56.172 28.0743C56.172 25.3565 57.864 23.5147 60.6177 23.498C63.5538 23.518 65.0965 25.5264 65.0965 28.0743Z" fill="#9EA6B3"/>
<path fill-rule="evenodd" clip-rule="evenodd" d="M34.853 14.9779C35.6891 14.9812 36.5086 14.7747 37.2418 14.3751L37.8555 14.042L39.6471 15.3709C38.466 16.6466 36.7242 17.346 34.727 17.346C32.7297 17.346 31.0742 16.6632 29.8268 15.4342C28.5793 14.2052 27.8926 12.4966 27.8926 10.6414C27.8926 8.78626 28.5893 7.10429 29.8334 5.91859C31.0775 4.73288 32.8226 4.08008 34.7436 4.08008C36.5152 4.08008 38.0645 4.62297 39.2224 5.64881L39.3551 5.76205L37.3678 7.23752C36.6346 6.70795 35.7521 6.43151 34.8497 6.44483C32.3548 6.44483 30.5434 8.24004 30.5434 10.7114C30.5434 13.1827 32.3548 14.9779 34.8497 14.9779H34.853Z" fill="#9EA6B3"/>
<path fill-rule="evenodd" clip-rule="evenodd" d="M48.1285 9.28534H44.7611V6.39768H50.139L53.0387 4.24609H41.9941V17.1723H47.7702C51.0116 17.1723 52.8728 15.6935 52.8728 13.1122C52.8728 10.6442 51.1907 9.28534 48.1318 9.28534H48.1285ZM47.6474 15.0207H44.7611V11.4369H47.6474C49.4058 11.4369 50.222 12.0364 50.222 13.2288C50.222 14.4212 49.3527 15.0207 47.6474 15.0207Z" fill="#9EA6B3"/>
<path fill-rule="evenodd" clip-rule="evenodd" d="M65.152 4.25L62.2524 6.40159H58.2181V9.55903H64.1335V11.7139H58.2181V15.0213H65.152V17.1729H55.4512V4.25H65.152Z" fill="#9EA6B3"/>
<path fill-rule="evenodd" clip-rule="evenodd" d="M67.7305 4.25H73.0122C76.3829 4.25 78.4731 6.0219 78.4731 8.87625C78.4731 11.7306 76.3796 13.5158 73.0089 13.5158H70.4974V17.1762H67.7305V4.25ZM70.4974 11.3609H72.9492C74.7241 11.3609 75.6995 10.4816 75.6995 8.88291C75.6995 7.28421 74.7241 6.40159 72.9492 6.40159H70.4974V11.3609Z" fill="#9EA6B3"/>
<path fill-rule="evenodd" clip-rule="evenodd" d="M19.1361 4.19669C19.6404 4.85616 20.0717 5.57557 20.4167 6.34162L10.6827 13.5924L6.61523 11.0145V7.91368L10.6827 10.4916L19.1361 4.19336V4.19669Z" fill="#9EA6B3"/>
<path fill-rule="evenodd" clip-rule="evenodd" d="M2.46834 10.7984C2.46834 10.6585 2.46834 10.5219 2.4783 10.3854L0.0132707 10.2588C0.00331767 10.4386 0 10.6185 0 10.7984C0 13.7793 1.19436 16.4804 3.12856 18.4355L4.87697 16.6703C3.39066 15.1648 2.46834 13.0898 2.46834 10.8017V10.7984Z" fill="#9EA6B3"/>
<path fill-rule="evenodd" clip-rule="evenodd" d="M10.6832 2.49464C10.8193 2.49464 10.9586 2.49797 11.0946 2.50464L11.2174 0.0133225C11.0415 0.00333063 10.8624 0 10.6832 0C7.73383 0 5.06311 1.20902 3.12891 3.1641L4.87732 4.92934C6.36695 3.42389 8.41727 2.49464 10.6832 2.49464Z" fill="#9EA6B3"/>
<path fill-rule="evenodd" clip-rule="evenodd" d="M10.6826 19.1007C10.5432 19.1007 10.4072 19.0974 10.2712 19.0907L10.1484 21.582C10.3243 21.592 10.5034 21.5954 10.6826 21.5954C13.632 21.5954 16.3027 20.3863 18.2369 18.4313L16.4885 16.666C15.0022 18.1681 12.9485 19.1007 10.6826 19.1007Z" fill="#9EA6B3"/>
<path fill-rule="evenodd" clip-rule="evenodd" d="M15.3151 3.94347L17.3919 2.39473C15.5572 0.89594 13.2249 0 10.6836 0V2.49464C12.4021 2.49464 13.9946 3.03088 15.3151 3.94347Z" fill="#9EA6B3"/>
<path fill-rule="evenodd" clip-rule="evenodd" d="M21.3664 10.7984C21.3664 10.1389 21.3067 9.49277 21.1939 8.86328L18.8947 10.5752C18.8947 10.6485 18.8947 10.7218 18.8947 10.795C18.8947 13.2331 17.8497 15.428 16.1875 16.9501L17.8463 18.8019C20.0061 16.8268 21.3597 13.9725 21.3597 10.795L21.3664 10.7984Z" fill="#9EA6B3"/>
<path fill-rule="evenodd" clip-rule="evenodd" d="M10.6829 19.1016C8.271 19.1016 6.09793 18.0458 4.59502 16.3672L2.76367 18.0425C4.71778 20.2241 7.54443 21.5963 10.6863 21.5963V19.1016H10.6829Z" fill="#9EA6B3"/>
<path fill-rule="evenodd" clip-rule="evenodd" d="M5.17556 4.64285L3.51673 2.79102C1.35693 4.76608 0 7.62376 0 10.7979H2.46834C2.46834 8.35983 3.51341 6.16495 5.17556 4.64285Z" fill="#9EA6B3"/>
</g>
<defs>
<clipPath id="clip0_10_17933">
<rect width="132" height="37" fill="white"/>
</clipPath>
</defs>
</svg>
