<svg width="128" height="37" viewBox="0 0 128 37" fill="none" xmlns="http://www.w3.org/2000/svg">
<g clip-path="url(#clip0_10_17970)">
<path fill-rule="evenodd" clip-rule="evenodd" d="M122.372 32.2187C124.89 32.2187 126.673 31.7646 128.001 30.7876V26.3544C126.637 27.297 124.994 27.8909 122.686 27.8909C118.805 27.8909 117.195 24.8888 117.195 20.1414C117.195 15.1508 119.153 12.6007 122.721 12.6007C124.819 12.6007 126.882 13.3345 127.967 14.0318V9.42427C126.813 8.79588 124.819 8.3418 122.091 8.3418C115.131 8.3418 111.531 13.3324 111.531 20.3136C111.565 27.9576 115.097 32.2165 122.372 32.2165V32.2187ZM88.3433 30.1936V25.7604C86.6636 26.9117 83.7959 27.9254 81.1741 27.9254C77.1873 27.9254 75.6823 26.0402 75.4387 22.2009H88.5891V19.3387C88.5891 11.346 85.0573 8.34395 79.6367 8.34395C72.9915 8.34395 69.8435 13.4055 69.8435 20.3523C69.8435 28.345 73.7957 32.2208 80.7191 32.2208C84.1819 32.2208 86.7348 31.2782 88.3433 30.1958V30.1936ZM38.437 8.76144V17.8366H31.1621V8.76144H25.707V31.7646H31.1621V22.1643H38.437V31.7646H43.892V8.76144H38.437ZM68.4786 27.4368H66.0659V8.76144H50.188V10.7155C50.188 16.3345 49.8387 23.5954 47.9154 27.4347H46.1668V36.9983H51.2035V31.7624H63.4095V36.9983H68.4463V27.4347H68.4808L68.4786 27.4368ZM105.724 31.7646L97.6794 20.4556V31.7646H92.2243V8.76144H97.6794V19.3731L105.373 8.76144H110.864L103.171 19.3731L111.914 31.7646H105.724ZM79.4944 12.6007C82.1874 12.6007 83.0262 14.8345 83.0262 17.7311V18.1852H75.4365C75.5767 14.5203 76.9049 12.6007 79.4944 12.6007ZM60.6087 27.4368H52.9155C54.4184 23.9807 54.8388 17.6989 54.8388 13.7197V13.0225H60.6087V27.439V27.4368Z" fill="#9EA6B3"/>
<path fill-rule="evenodd" clip-rule="evenodd" d="M21.1583 31.7641H15.5976V4.29332H13.1137C8.56639 4.29332 6.18816 6.56157 6.18816 9.94887C6.18816 13.7881 7.83115 15.5678 11.2249 17.8382L14.0236 19.7234L5.97901 31.7662H0L7.24036 21.0147C3.07683 18.047 0.735248 15.1482 0.735248 10.2631C0.735248 4.15343 5.00012 0 13.0792 0H21.1238V31.7641H21.1583Z" fill="#9EA6B3"/>
</g>
<defs>
<clipPath id="clip0_10_17970">
<rect width="128" height="37" fill="white"/>
</clipPath>
</defs>
</svg>
