<svg width="16" height="19" viewBox="0 0 16 19" fill="none" xmlns="http://www.w3.org/2000/svg">
<rect width="16" height="19" rx="8" fill="#231F20"/>
<path d="M7.505 13.8C7.895 13.8 8.165 14.055 8.165 14.475C8.165 14.865 7.925 15.135 7.505 15.135C7.115 15.135 6.83 14.895 6.83 14.475C6.83 14.115 7.13 13.8 7.505 13.8ZM5.75 6.795H5.48V3.915H5.63V4.5C6.17 4.065 6.92 3.825 7.595 3.81C9.365 3.81 10.565 4.77 10.565 6.21C10.565 8.16 7.7 9.315 7.7 10.605V11.94H7.295V10.605C7.295 8.94 9.425 7.77 9.425 6.21C9.425 4.905 8.795 4.215 7.61 4.215C6.2 4.215 5.915 5.175 5.75 6.18V6.795Z" fill="white"/>
</svg>
