<svg width="122" height="57" viewBox="0 0 122 57" fill="none" xmlns="http://www.w3.org/2000/svg">
<rect x="0.5" y="0.5" width="121" height="56" rx="28" fill="white" fill-opacity="0.6" stroke="#9EA6B3"/>
<path d="M101.354 28.3536C101.549 28.1583 101.549 27.8417 101.354 27.6464L98.1716 24.4645C97.9763 24.2692 97.6597 24.2692 97.4645 24.4645C97.2692 24.6597 97.2692 24.9763 97.4645 25.1716L100.293 28L97.4645 30.8284C97.2692 31.0237 97.2692 31.3403 97.4645 31.5355C97.6597 31.7308 97.9763 31.7308 98.1716 31.5355L101.354 28.3536ZM77 28.5L101 28.5L101 27.5L77 27.5L77 28.5Z" fill="#9EA6B3"/>
<path d="M18.6464 28.3536C18.4512 28.1583 18.4512 27.8417 18.6464 27.6464L21.8284 24.4645C22.0237 24.2692 22.3403 24.2692 22.5355 24.4645C22.7308 24.6597 22.7308 24.9763 22.5355 25.1716L19.7071 28L22.5355 30.8284C22.7308 31.0237 22.7308 31.3403 22.5355 31.5355C22.3403 31.7308 22.0237 31.7308 21.8284 31.5355L18.6464 28.3536ZM43 28.5L19 28.5L19 27.5L43 27.5L43 28.5Z" fill="#9EA6B3"/>
</svg>
