<svg width="16" height="16" viewBox="0 0 16 16" fill="none" xmlns="http://www.w3.org/2000/svg">
<rect x="-0.25" y="0.25" width="15.5" height="15.5" rx="7.75" transform="matrix(-1 0 0 1 15.5 0)" fill="white" fill-opacity="0.04" stroke="url(#paint0_linear_10_6266)" stroke-width="0.5"/>
<g clip-path="url(#clip0_10_6266)">
<path d="M13.4138 4.10296C13.2856 3.97479 13.0778 3.97479 12.9496 4.10296L7.62943 9.42315L5.53684 7.33055C5.40869 7.20237 5.20087 7.20237 5.07269 7.33055C4.94452 7.45872 4.94452 7.66652 5.07269 7.7947L7.39738 10.1194C7.52549 10.2475 7.73338 10.2475 7.86153 10.1194L13.4138 4.56711C13.5419 4.43893 13.5419 4.23113 13.4138 4.10296Z" fill="white"/>
</g>
<defs>
<linearGradient id="paint0_linear_10_6266" x1="17.375" y1="8.34483" x2="0.0511567" y2="7.21535" gradientUnits="userSpaceOnUse">
<stop stop-color="white"/>
<stop offset="1" stop-color="white" stop-opacity="0"/>
</linearGradient>
<clipPath id="clip0_10_6266">
<rect width="8.53333" height="8.53333" fill="white" transform="translate(4.97656 2.84473)"/>
</clipPath>
</defs>
</svg>
