<?xml version="1.0" encoding="utf-8"?><svg viewBox="0 0 99 100" xmlns="http://www.w3.org/2000/svg" xmlns:xlink="http://www.w3.org/1999/xlink"><style>:root>svg{display:none}:root>svg:target{display:block}</style><svg viewBox="0 0 11 11" id="btn-arrow" xmlns="http://www.w3.org/2000/svg"><path d="M10.283 10.783a.5.5 0 00.5-.5v-4.5a.5.5 0 10-1 0v4h-4a.5.5 0 000 1h4.5zM.266.973l9.663 9.663.707-.707L.973.266.266.973z"/></svg><svg viewBox="0 0 14 14" id="loadmore" xmlns="http://www.w3.org/2000/svg"><path fill-rule="evenodd" clip-rule="evenodd" d="M7.5 6.5V0h-1v6.5H0v1h6.5V14h1V7.5H14v-1H7.5z"/></svg><svg viewBox="0 0 18 24" id="play" xmlns="http://www.w3.org/2000/svg"><path d="M18 12L0 23.258V.742L18 12z"/></svg><svg viewBox="0 0 56 100" id="price-1" xmlns="http://www.w3.org/2000/svg"><g clip-path="url(#dclip0_10_17628)"><path d="M55.304 67.817h-8.157c-.099-.71-.099-1.422-.198-2.132-.1-2.133 0-4.367.696-6.397.398-1.117.994-2.234 1.492-3.351a51 51 0 001.293-3.554c.796-2.843 1.492-5.686 1.79-8.63.2-2.336.299-4.976-.497-7.311-.696-2.031-2.089-3.656-4.178-4.265-2.785-.812-5.968.203-8.554 1.218-.995.407-1.99.813-2.984 1.32-.895.407-.1 1.727.796 1.32 2.785-1.421 5.968-2.843 9.15-2.64 1.89.102 3.283 1.016 4.079 2.742.895 1.828.895 4.265.796 6.295-.2 2.742-.697 5.382-1.393 7.92-.597 2.031-1.293 4.062-2.188 6.093-.398.913-.895 1.929-1.194 2.944-.298 1.016-.398 2.031-.497 3.046-.1 1.727 0 3.453.199 5.179h-2.487c-1.094-11.27-6.067-16.652-15.716-16.652-6.366 0-10.643 2.335-13.13 7.107 1.493-6.6 4.775-15.129 6.864-18.378a31.28 31.28 0 012.487-3.148c1.193-1.32 2.287-2.741 3.083-4.264 1.194-2.133 1.293-5.991 1.194-7.616 1.293-.203 2.287-1.421 2.287-2.741v-.813h1.294c.994 0 1.79-.812 1.79-1.827v-2.437h.199c.995 0 1.79-.813 1.79-1.828V.802c0-.407-.298-.813-.795-.813h-15.12a.792.792 0 00-.795.813v14.215c0 1.015.796 1.828 1.79 1.828h.2v2.437c0 1.015.795 1.827 1.79 1.827h1.293v.813c0 1.523 1.193 2.843 2.785 2.843h.1c0 1.523-.1 4.975-.995 6.803-.697 1.32-1.89 2.64-2.985 3.96a392.29 392.29 0 00-2.586 3.249c-3.183 4.874-8.454 20.105-7.957 25.892 0 .102.1.305.199.406-.1.813-.199 1.727-.298 2.64h-1.194c.1-.71.1-1.421.199-2.233.1-2.031 0-4.062-.498-5.991-.298-1.016-.795-2.031-1.193-3.046-.497-1.117-.995-2.234-1.393-3.351-.994-2.742-1.591-5.686-1.989-8.63-.298-2.235-.398-4.672.199-6.905.497-1.727 1.393-3.148 3.083-3.757 2.587-.813 5.471.101 7.858 1.015.995.406 1.89.812 2.785 1.218.896.407 1.592-.913.796-1.32a16.05 16.05 0 00-1.293-.609c1.592-1.32 3.382-2.234 5.371-2.538.398-.102.597-.61.498-.914-.1-.406-.498-.61-.896-.508-2.486.305-4.674 1.625-6.465 3.351-4.277-1.726-9.748-2.945-12.334 1.523-1.094 2.03-1.293 4.468-1.293 6.702.1 2.843.597 5.584 1.293 8.326.497 2.03 1.094 3.96 1.99 5.889.497 1.117 1.094 2.132 1.492 3.25.298 1.015.497 2.03.596 3.045.2 1.828 0 3.554-.199 5.28H.796a.792.792 0 00-.796.813v29.852c0 .406.298.812.796.812h54.508a.793.793 0 00.795-.812v-29.65c-.099-.405-.397-.71-.795-.71zM20.192 15.22V1.715h13.527V15.22c0 .102-.1.203-.199.203H20.49c-.1 0-.298-.101-.298-.203zm1.99 4.163v-2.437h9.648v2.437c0 .102-.1.203-.2.203H22.58c-.298.102-.398 0-.398-.203zm2.983 2.64v-.812h3.581v.812c0 .71-.597 1.219-1.194 1.219h-1.094c-.696 0-1.293-.508-1.293-1.219zm2.387 30.462c6.466 0 13.03 1.929 14.125 15.332h-2.984c-2.288-6.194-6.167-7.717-11.14-7.717-4.974 0-8.853 1.625-11.14 7.717h-2.985c1.094-13.403 7.659-15.332 14.124-15.332zm14.224 19.292c0 3.046-.298 5.788-.995 8.123-.298-4.468-.795-7.92-1.59-10.662h2.585v2.539zm-4.675-3.96H18.004c2.287-5.483 5.769-6.194 9.548-6.194 3.78 0 7.261.61 9.55 6.194zM13.33 69.34h2.586c-.796 2.742-1.393 6.194-1.592 10.662-.696-2.437-.994-5.077-.994-8.123-.1-.914-.1-1.828 0-2.539zm-1.492 0c0 .812-.1 1.625-.1 2.437 0 4.874.796 8.935 2.387 12.286.2.305.498.508.796.406.299-.101.597-.406.597-.71.199-6.499.796-11.17 1.89-14.419h20.192c.994 3.25 1.69 7.92 1.89 14.418 0 .305.198.61.596.711h.2c.298 0 .596-.203.696-.406 1.59-3.25 2.387-7.412 2.387-12.286 0-.812 0-1.726-.1-2.437h2.487c.199 1.828.497 3.757.497 5.686.1 3.046-.696 6.194-1.492 9.139a42.09 42.09 0 01-1.79 4.975 16.238 16.238 0 01-1.293 2.234c-.299.508-.995 1.523-1.592 1.523-1.193-.102-1.094-2.742-1.193-3.452-.1-1.625-.1-3.148-.2-4.773-.198-3.249-.596-6.6-2.585-9.24-.299-.406-.796-.812-1.194-1.218a9.775 9.775 0 011.293-2.132c.199-.305.199-.813-.1-1.117-.298-.203-.795-.203-.994.101-1.592 2.031-3.481 5.991-3.78 12.997-.199 5.28-1.194 8.225-2.984 8.63-.398.102-.796 0-1.194-.304-1.193-.812-2.785-3.554-3.282-8.427-.497-3.656-.696-7.311-.497-9.647.199-1.827-.1-3.046-.1-3.046-.1-.406-.497-.71-.895-.609-.398.102-.696.508-.597.914 0 0 .2.812.1 2.132-2.586 2.031-3.581 5.077-3.979 8.326-.398 3.047-.1 6.296-.597 9.342-.1.508-.298 1.523-.994 1.421-.597 0-1.194-1.117-1.492-1.523a16.92 16.92 0 01-2.288-4.67c-.995-2.844-1.691-5.89-2.089-8.834-.298-1.93-.1-3.859.1-5.788.099-.812.198-1.726.298-2.538l.995-.102zm42.671 28.33H1.492V69.34h7.659c-.199 2.03-.497 4.163-.497 6.194 0 1.523.298 3.148.596 4.67.299 1.625.697 3.25 1.194 4.875.497 1.827 1.194 3.655 2.089 5.28.398.812.895 1.624 1.492 2.335.497.71 1.094 1.421 1.99 1.624.795.204 1.69-.203 2.188-.812.497-.609.596-1.421.696-2.234.199-1.624.199-3.249.298-4.874.1-3.249.2-6.904 1.99-9.646.198-.304.397-.609.696-.812 0 2.335.199 5.28.597 8.326.497 4.57 1.89 8.123 3.879 9.545.597.406 1.193.609 1.79.609.2 0 .497 0 .697-.102 3.282-.812 3.978-6.193 4.078-10.052.199-3.757.795-6.498 1.591-8.529 2.188 2.132 2.686 5.382 2.885 8.326.1 1.726.1 3.35.199 5.077.099 1.422 0 3.452.994 4.57.498.609 1.393.913 2.188.71.896-.203 1.393-1.015 1.99-1.625 1.094-1.421 1.99-3.147 2.586-4.873 1.194-3.047 1.79-6.194 2.387-9.444.498-2.944.1-5.99-.298-8.935h7.26l-.198 28.126z"/><path d="M25.165 37.863c1.392-.61 2.884-1.218 4.476-1.218 2.089 0 4.078.913 5.769 2.132.796.508 1.591-.812.796-1.32-1.99-1.32-4.178-2.335-6.565-2.335-1.79 0-3.482.609-5.173 1.421-.994.406-.199 1.726.697 1.32zM17.904 38.37H17.605c-.298 0-.696-.1-.995-.202-.795-.203-1.392-.508-2.188-.914-.298-.203-.796-.102-.994.305-.2.304-.1.812.298 1.015 1.492.812 3.083 1.421 4.774 1.421a.792.792 0 00.796-.812c0-.406-.298-.71-.796-.812h-.596zM32.626 33.801c.298.204.796.102.995-.304.198-.305.099-.812-.299-1.016a20.34 20.34 0 00-4.675-1.827c-.398-.102-.796.101-.895.508-.1.406.1.812.497.913 1.592.406 2.984 1.016 4.377 1.726zM51.923 75.94a.792.792 0 00.796-.812c0-.508-.299-.813-.796-.813-.398 0-.696.305-.696.813 0 .507.298.812.696.812zM50.727 81.626a.792.792 0 00.796-.812c0-.508-.298-.813-.796-.813-.397 0-.696.305-.696.813s.299.812.697.812zM51.327 86.906a.793.793 0 00-.796.813c0 .507.299.812.796.812.497 0 .796-.305.796-.812a.792.792 0 00-.796-.813zM47.647 89.952a.792.792 0 00-.795.813c0 .507.298.812.795.812.498 0 .796-.305.796-.813a.792.792 0 00-.796-.812zM51.327 93.201a.792.792 0 00-.796.813c0 .507.299.812.796.812.497 0 .796-.305.796-.813a.792.792 0 00-.796-.812zM44.366 92.085a.792.792 0 00-.796.812c0 .508.299.813.796.813.497 0 .796-.305.796-.813a.792.792 0 00-.796-.812zM46.948 94.826a.792.792 0 00-.796.813c0 .507.299.812.796.812.497 0 .796-.305.796-.813a.792.792 0 00-.796-.812zM40.382 94.928a.792.792 0 00-.796.812c0 .508.298.812.796.812.497 0 .795-.304.795-.812s-.298-.812-.795-.812zM34.417 94.623a.793.793 0 00-.796.812c0 .508.298.813.796.813.497 0 .796-.305.796-.813a.793.793 0 00-.796-.812zM30.14 94.217a.792.792 0 00-.796.812c0 .508.298.812.796.812.497 0 .795-.304.795-.812a.792.792 0 00-.795-.812zM25.565 95.232a.792.792 0 00-.796.813c0 .507.299.812.796.812.498 0 .796-.305.796-.812a.792.792 0 00-.796-.813zM21.288 93.81a.793.793 0 00-.796.813c0 .508.299.812.796.812.497 0 .796-.304.796-.812a.793.793 0 00-.796-.813zM15.218 94.725a.792.792 0 00-.796.812c0 .508.298.812.796.812.497 0 .795-.304.795-.812a.792.792 0 00-.795-.812zM9.847 89.647a.792.792 0 00-.796.813c0 .508.298.812.796.812.497 0 .795-.305.795-.812a.792.792 0 00-.795-.813zM7.46 86.601c0-.406-.298-.812-.795-.812-.398 0-.696.305-.696.812 0 .508.298.813.795.813.498 0 .697-.407.697-.813zM8.452 80.61a.793.793 0 00-.796.813c0 .508.299.813.796.813.497 0 .796-.305.796-.813a.793.793 0 00-.796-.812zM7.956 92.49a.792.792 0 00-.796.813c0 .508.299.812.796.812.497 0 .796-.304.796-.812a.792.792 0 00-.796-.812zM9.847 95.232a.792.792 0 00-.796.813c0 .507.298.812.796.812.497 0 .795-.305.795-.812a.792.792 0 00-.795-.813zM4.874 89.039a.792.792 0 00-.796.812c0 .508.398.71.796.71a.793.793 0 00.796-.812c0-.507-.398-.71-.796-.71zM3.782 84.47a.792.792 0 00.796-.813c0-.508-.298-.812-.796-.812-.398 0-.696.304-.696.812s.298.812.696.812zM7.062 77.666c0-.406-.298-.812-.795-.812-.398 0-.697.305-.697.812 0 .508.299.711.697.711.397 0 .795-.304.795-.71zM6.165 73.808a.792.792 0 00.796-.813c0-.507-.398-.71-.796-.71s-.696.304-.696.812.298.71.696.71zM3.085 93.506a.793.793 0 00-.796.813c0 .507.298.812.796.812.497 0 .796-.305.796-.812 0-.508-.299-.813-.796-.813zM47.548 85.992a.792.792 0 00.796-.812c0-.508-.299-.71-.796-.71-.398 0-.696.304-.696.811 0 .508.298.711.696.711zM48.837 72.488a.792.792 0 00.796-.812c0-.508-.299-.813-.796-.813-.398 0-.696.305-.696.813 0 .507.199.812.696.812zM21.187 90.359c0-.406-.298-.813-.795-.813-.398 0-.697.305-.697.813 0 .507.299.812.796.812.497 0 .696-.406.696-.812zM21.087 85.484a.792.792 0 00.796-.812c0-.507-.299-.812-.796-.812-.398 0-.696.305-.696.812 0 .508.298.813.696.813zM34.715 91.17c0-.406-.299-.812-.796-.812-.398 0-.696.305-.696.813 0 .507.298.812.795.812.498 0 .697-.406.697-.812zM34.417 84.57a.792.792 0 00-.796.813c0 .508.298.812.796.812.497 0 .796-.304.796-.812a.792.792 0 00-.796-.812zM34.714 79.798a.792.792 0 00-.796.813c0 .507.298.812.796.812.497 0 .795-.305.795-.812 0-.508-.298-.813-.795-.813z"/></g><defs><clipPath id="dclip0_10_17628"><path transform="translate(0 .192)" d="M0 0h56v99H0z"/></clipPath></defs></svg><svg viewBox="0 0 86 99" id="price-10" xmlns="http://www.w3.org/2000/svg"><g clip-path="url(#eclip0_10_18510)"><path d="M35.204 40.626c.202 2.565.704 5.13 1.308 7.694.704 2.668 1.509 5.335 2.515 7.9a43.895 43.895 0 001.408 3.18c.503 1.026.704 2.154.804 3.386.202 2.462.101 4.924 0 7.386-.2 4.72-.301 9.438.503 13.952a31 31 0 001.811 6.156c.805 1.846 1.81 3.898 3.219 5.232.704.718 1.609 1.129 2.514 1.026.906-.103 1.81-.616 2.113-1.539.301-1.026.2-2.154.2-3.18 0-1.231.101-2.463.101-3.591.1-4.001.201-8.105 1.911-11.798.906 2.257 1.71 5.335 1.912 9.644.2 5.437 1.207 12.003 4.325 12.823.2 0 .302.103.503.103.402 0 .905-.103 1.508-.513 2.515-1.744 4.225-7.592 4.728-12.413.402-3.283.603-6.464.603-8.926.302.308.503.616.704.924 1.912 2.77 2.113 6.36 2.213 9.643.1 1.641.1 3.283.201 4.924.101 1.54.302 3.489 1.912 4.104 1.81.718 3.118-1.231 4.023-2.565 1.006-1.539 1.81-3.283 2.414-5.027 1.106-2.975 1.71-6.155 2.213-9.335.704-4.207-.302-8.515-.604-12.722-.1-2.154-.2-4.308.403-6.36.302-1.129.804-2.052 1.207-3.18.503-1.13 1.006-2.258 1.408-3.489 1.207-3.18 1.911-6.668 2.414-10.053.302-2.668.503-5.438-.302-8.105-.603-2.257-2.011-4.104-4.224-4.822-2.917-1.026-6.337 0-9.153 1.026-.906.308-.504 1.847.402 1.436.905-.308 1.71-.615 2.615-.923 2.213-.616 5.03-1.026 6.94.513 1.51 1.23 2.113 3.385 2.213 5.335.201 2.77-.1 5.54-.704 8.31-.302 1.538-.704 2.975-1.106 4.41-.604 2.258-1.61 4.412-2.515 6.464-1.81 3.796-1.509 8.105-1.006 12.208.201 2.052.503 4.206.604 6.258 0 1.54-.201 2.975-.403 4.514-.603 3.18-1.307 6.464-2.615 9.439-.704 1.538-1.509 3.18-2.716 4.411-.502.513-1.005.82-1.508.205-.403-.513-.403-1.333-.503-1.949-.704-6.053.603-13.747-4.828-17.85 0-1.334.1-2.258.1-2.36.1-.41-.201-.821-.603-.924-.403-.102-.805.206-.906.616 0 .102-.301 1.334-.1 3.283.201 2.462 0 6.36-.503 10.259-.503 5.13-2.313 10.054-4.023 11.285-.403.308-.704.205-.805.205-1.71-.41-2.917-4.924-3.219-11.388-.302-7.386-2.414-11.592-4.023-13.85-.201-.307-.704-.41-1.006-.102-.302.205-.402.718-.1 1.129.301.41.703.923 1.005 1.641a19.282 19.282 0 00-1.006 2.052c-1.609 4.103-1.508 8.72-1.609 13.029 0 1.231-.1 2.36-.1 3.59 0 .821 0 1.847-1.107 1.642-.905-.205-1.509-1.026-2.012-1.744-.603-.82-1.106-1.744-1.508-2.565-3.923-7.9-2.616-17.132-2.716-25.647 0-2.257-.1-4.31-1.006-6.361-.805-1.642-1.509-3.283-2.012-5.027-.805-2.36-1.509-4.822-2.012-7.284-.503-2.257-.905-4.617-.905-6.976 0-1.847.201-3.796 1.006-5.437.805-1.437 2.112-2.257 3.722-2.565 2.514-.308 5.23.513 7.543 1.539.906.41 1.308-1.129.403-1.437a69.009 69.009 0 00-2.515-.923c-2.213-.718-4.928-1.128-7.242-.308-1.81.718-3.017 2.052-3.722 3.899-.804 2.052-.905 4.309-.704 6.463z"/><path d="M79.763 46.884c.2 5.642-3.018 10.464-3.823 15.901-.1.41-.603.616-.905.513-.402-.102-.603-.513-.503-.923.704-5.335 3.923-10.054 3.722-15.491 0-1.026 1.508-1.026 1.508 0zM43.753 56.63c-2.213-4.72-3.822-9.746-4.224-14.978-.101-1.026 1.408-1.026 1.508 0 .503 4.924 2.012 9.746 4.024 14.157.402.924-.905 1.744-1.308.821zM59.445 34.06c0-.41.302-.82.805-.82.503 0 .805.307.805.82v3.693c0 .41-.302.821-.805.821-.503 0-.805-.308-.805-.82V34.06zM59.445 26.571c0-.41.302-.82.805-.82.503 0 .805.307.805.82v3.693c0 .41-.302.821-.805.821-.503 0-.805-.308-.805-.82V26.57zM60.148 40.728c.403 0 .805.308.805.821v2.052c0 .41-.302.82-.805.82-.503 0-.804-.307-.804-.82V41.55c.1-.513.402-.82.804-.82zM70.007 36.933c-.1.102-.302.102-.403.102-.2 0-.503-.102-.603-.41l-2.113-3.488c-.2-.308-.1-.82.202-1.026.402-.205.804-.103 1.006.205l2.112 3.59c.201.411.1.822-.201 1.027zM65.38 30.162c-.201 0-.503-.103-.604-.41l-2.112-3.489c-.201-.41-.1-.82.201-1.026.302-.205.805-.102 1.006.205l2.112 3.488c.201.308.1.821-.2 1.026-.102.206-.202.206-.403.206zM72.321 39.395l1.006 1.744c.201.308.1.82-.201 1.026-.1.102-.302.102-.403.102-.2 0-.502-.102-.603-.41l-1.006-1.744c-.201-.308-.1-.82.201-1.026.302-.205.805-.103 1.006.308zM58.84 23.186c-.402-.206-.502-.719-.301-1.026l1.006-1.744.1-.103s0-.103.1-.103H60.55l.101.103s.1 0 .1.103l.101.102 1.006 1.744c.201.41.1.82-.2 1.026-.102.103-.303.103-.403.103-.1 0-.302 0-.403-.103-.1.205-.402.41-.704.41-.302 0-.503-.102-.603-.41-.1.103-.201.103-.403.103-.1 0-.2-.103-.301-.205zM51.196 37.446c-.1 0-.301 0-.402-.103-.402-.205-.503-.718-.302-1.026l2.012-3.488c.201-.41.704-.513 1.006-.308.402.206.503.718.302 1.026L51.8 37.035c-.1.308-.302.41-.604.41zM55.22 30.367c-.1 0-.302 0-.403-.103-.402-.205-.502-.718-.301-1.026l2.011-3.488c.201-.41.704-.513 1.006-.308.402.206.503.719.302 1.026l-2.012 3.488c-.1.308-.301.41-.603.41zM48.28 42.78c-.1 0-.302 0-.402-.102-.402-.205-.503-.718-.302-1.026l1.006-1.744c.201-.41.704-.513 1.006-.308.402.205.503.718.302 1.026l-1.006 1.744c-.1.308-.403.41-.604.41zM.704 3.385h10.863v-.512c0-.41.302-.821.805-.821h28.264c1.207 0 2.313.615 3.118 1.539h9.254V1.949c0-1.026.805-1.949 1.81-1.949h10.864c1.005 0 1.81.82 1.81 1.95v12.823c0 .82-.402 1.436-1.006 1.744v1.129c0 1.026-.804 1.846-1.81 1.846h-8.852c-1.005 0-1.81-.82-1.81-1.846v-1.129c-.604-.308-1.006-1.026-1.006-1.744V13.03h-9.254a3.883 3.883 0 01-3.118 1.539H12.271a.801.801 0 01-.805-.82v-.514H.704a.801.801 0 01-.805-.82V4.206c.1-.41.403-.82.805-.82zm55.02 14.466h8.851c.1 0 .201-.103.201-.205v-.924h-9.354v.924c.1.102.201.205.302.205zm-1.207-3.078c0 .205.2.41.2.41h10.965c.1 0 .2-.205.2-.41V1.95c0-.205-.1-.41-.2-.41H54.818c-.1 0-.2.205-.2.41v1.744h.703c2.515 0 4.527 2.052 4.527 4.617s-2.012 4.616-4.527 4.616h-.704v1.847h-.1zm.704-3.283c1.71 0 3.017-1.436 3.017-3.078 0-1.744-1.408-3.077-3.017-3.077H44.458c.1.307.1.615.1.923v4.309c0 .308 0 .615-.1.923h10.763zM13.076 13.03h27.56c1.308 0 2.414-1.129 2.414-2.462V6.155c0-1.436-1.106-2.462-2.414-2.462h-27.66v9.336h.1zM1.509 11.695h10.058v-6.77H1.509v6.77z"/></g><defs><clipPath id="eclip0_10_18510"><path transform="matrix(-1 0 0 1 86 0)" d="M0 0h86v99H0z"/></clipPath></defs></svg><svg viewBox="0 0 99 63" id="price-2" xmlns="http://www.w3.org/2000/svg"><g clip-path="url(#fclip0_10_18706)"><path d="M98.9 32.5c-.915-9.6-9.951-21.3-21.425-27.7-8.936-5.1-17.77-6.1-24.674-3-2.03.9-4.468.9-6.6 0C39.6-1 31.478-.3 23.253 3.9c-4.061 2.2-12.692 8.4-18.988 17.5C1.016 26.1-.405 31 .102 35.6v.4c.508 3.7 2.234 7.3 5.179 10.7C13.709 56.3 31.782 63 49.958 63c9.037 0 17.972-1.7 25.892-5.4 15.942-7.7 20.41-15 22.237-19.9 0 0 0-.1.102-.2.609-1.6.913-3.3.71-5zM5.483 22.2c6.194-8.9 14.418-14.9 18.378-17 7.819-4 15.536-4.7 21.628-2.1 2.538 1.1 5.382 1.1 7.819 0C59.806.2 68.133 1.2 76.662 6c9.951 5.6 17.973 15.3 20.105 23.8-1.93-2.5-5.28-5-9.545-7.2-10.255-5.3-26.4-9-37.772-4.6-7.514-2.8-17.972-2.5-28.735 1l-3.554 1.2c-5.179 2-9.646 4.6-12.692 7.3-1.117.9-1.93 1.8-2.64 2.7.609-2.5 1.726-5.1 3.655-8zm90.37 8.8c-.102 0-.102 0 0 0a5.568 5.568 0 01-3.453 1.2c-1.016 0-1.828-.8-1.828-1.8v-4.1c2.234 1.5 4.062 3.1 5.28 4.7zM26.501 43.8c.407 0 .813-.3.813-.8v-1.3c1.218.2 2.437.3 3.655.5v3.7c-3.452-.7-6.6-1.5-9.544-2.3v-3.1c.101.2.304.3.507.4 1.219.2 2.539.4 3.859.6V43c-.102.5.304.8.71.8zm.711-3.6v-.9c0-.4-.305-.8-.812-.8-.406 0-.813.3-.813.8v.7c-1.218-.2-2.436-.4-3.553-.6-.305-.1-.61.1-.813.4 0-.2 0-.5-.101-.8.203 0 .203-.1.203-.2 0-.9 1.726-2 4.468-2.6 1.421-.4 2.944 0 3.96.9.812.8 1.218 1.8 1.218 2.9v.8c-1.32-.2-2.538-.4-3.757-.6zM15.333 25c-.406 0-.812.3-.812.8V27c-1.523.4-2.945.8-4.366 1.3v-3c2.234-1.3 4.772-2.6 7.514-3.6l2.03-.7v4.9c-1.32.2-2.538.5-3.757.8v-.8c.102-.6-.203-.9-.609-.9zm-.812 3.5v.9c0 .4.304.8.812.8.406 0 .812-.3.812-.8v-1.3c1.219-.3 2.437-.6 3.757-.8V29c0 1.1-.406 2.1-1.218 2.9-1.015 1-2.539 1.3-3.96.9-2.64-.7-4.468-1.7-4.468-2.6v-.4c1.32-.4 2.742-.9 4.265-1.3zm4.061 8.6c.813.8 1.219 1.8 1.219 2.9v3.2c-3.655-1.2-6.905-2.4-9.545-3.5v-.9c0-.9 1.726-2 4.468-2.6 1.32-.5 2.843-.1 3.858.9zM19.7 36a5.194 5.194 0 00-3.655-1.5c1.421 0 2.741-.6 3.655-1.5.305-.3.61-.7.813-1.1 1.116 1.3 3.35 2 4.873 2.4.407.1.914.2 1.32.2-.406 0-.812.1-1.218.2-1.523.4-3.757 1.1-4.874 2.4-.406-.4-.61-.8-.914-1.1zm8.022-13.3c-.406 0-.813.3-.813.8v1.2c-1.929.2-3.858.5-5.584.9v-5.2c3.25-1 6.498-1.8 9.544-2.2v6.1l-2.436.3v-1c.101-.6-.305-.9-.711-.9zm-.71 3.5v1c0 .4.304.8.811.8.508 0 .813-.3.813-.8V26l2.437-.3v3.4c0 1.1-.406 2.1-1.219 2.9-1.015 1-2.538 1.3-3.96.9-2.64-.7-4.366-1.7-4.366-2.6 0-.1 0-.2-.102-.3 0-.3.102-.5.102-.8v-2c1.625-.5 3.452-.8 5.483-1zm3.756 9.8c-1.015-1-2.234-1.5-3.655-1.5 1.421 0 2.741-.6 3.655-1.5.203-.2.305-.4.508-.6.304.8.913 1.6 1.726 2.1-.813.5-1.32 1.2-1.726 2.1-.203-.2-.305-.4-.508-.6zm10.966-15.6c-.406 0-.812.3-.812.8v2.3c-2.945.1-5.788.3-8.53.6V18c6.093-.7 11.78-.2 16.45 1.5v3.9c-2.133 0-4.265 0-6.296.1v-2.2c-.101-.6-.406-.9-.812-.9zm-.812 4.6v1.9c0 .4.304.8.812.8.406 0 .813-.3.813-.8v-2c2.132-.1 4.163-.1 6.295-.1v6c0 1.6-1.32 2.9-3.046 2.9H35.438c-.813 0-1.625-.3-2.133-.9-.507-.5-.913-1.3-.913-2.1v-5.3c2.843-.1 5.686-.3 8.529-.4zm-8.53 17.4c2.438.2 4.976.4 7.515.6v2.4c0 .4.304.8.812.8.406 0 .812-.3.812-.8V43c2.437.1 4.874.2 7.31.2v4.6c-5.888-.1-11.372-.7-16.347-1.6v-3.8h-.101zm9.14-.9v-1.9c0-.4-.306-.8-.813-.8-.406 0-.813.3-.813.8v1.8c-2.538-.1-5.077-.3-7.513-.6v-2.7c0-1.6 1.32-2.9 3.046-2.9h10.357c1.624 0 2.944 1.3 3.046 2.9v3.5c-2.437.1-4.976 0-7.31-.1zm6.802-7c.508-.3.914-.7 1.219-1.2.304.5.71.9 1.218 1.2-.508.3-.914.7-1.218 1.2-.305-.5-.711-.9-1.219-1.2zm8.326-14.1c-.406 0-.812.3-.812.8v2.2c-1.828-.1-3.655-.1-5.483-.1v-3.9c4.874-1.8 10.56-2.1 16.348-1.4v6.2c-3.047-.3-6.093-.5-9.342-.7v-2.3c0-.5-.304-.8-.71-.8zm-.812 4.5v2c0 .4.305.8.812.8.407 0 .813-.3.813-.8V25c3.249.1 6.295.4 9.341.7v5.1c0 1.6-1.32 2.9-3.046 2.9H53.308c-.812 0-1.523-.3-2.132-.9-.508-.5-.914-1.3-.914-2.1v-6c1.93.1 3.757.1 5.585.2zm-5.483 18.3c2.742 0 5.483-.1 8.123-.2v2.3c0 .4.305.8.812.8.407 0 .813-.3.813-.8v-2.4c2.233-.1 4.569-.3 6.701-.5v4c-5.686.9-11.17 1.3-16.348 1.3v-4.5h-.101zm9.646-1.8v-1.8c0-.4-.304-.8-.812-.8-.406 0-.813.3-.813.8v1.9c-2.64.1-5.381.2-8.123.2v-3.5c0-1.6 1.32-2.9 3.047-2.9h10.357c1.624 0 3.046 1.3 3.046 2.9V41c-2.133.1-4.367.3-6.702.4zm6.295-6.9c.711-.5 1.32-1.2 1.727-2.1.203.2.304.4.507.6 1.016.9 2.336 1.5 3.757 1.5-1.421 0-2.741.6-3.757 1.5-.203.2-.304.4-.507.6a5.12 5.12 0 00-1.727-2.1zm4.367-11.8c-.406 0-.813.3-.813.8v1c-.507-.1-1.117-.1-1.624-.2v-6.2c3.249.5 6.498 1.3 9.544 2.2v5.3c-.203 0-.304-.1-.507-.1-1.93-.3-3.859-.7-5.89-.9v-1.2c0-.4-.304-.7-.71-.7zm-.813 3.3v1.2c0 .4.305.8.813.8.406 0 .812-.3.812-.8v-1c1.93.3 3.858.5 5.686.9.305 0 .508.1.812.2v1.8c0 .3 0 .6.102.8-.102.1-.102.2-.102.3 0 .9-1.827 2-4.366 2.6-1.421.4-2.944 0-3.96-.9a3.974 3.974 0 01-1.218-2.9v-3.3c.406.1.914.2 1.421.3zm-1.624 16.3c1.523-.2 3.046-.3 4.467-.5v1.3c0 .4.305.8.813.8.406 0 .812-.3.812-.8v-1.5c1.219-.2 2.437-.4 3.554-.6v3c-3.25.9-6.499 1.6-9.545 2.2v-3.9h-.101zm6.092-2.3v-.7c0-.4-.305-.8-.812-.8-.406 0-.813.3-.813.8v.9c-1.421.2-2.944.4-4.467.5v-.9c0-1.1.406-2.1 1.218-2.9 1.016-1 2.539-1.3 3.96-.9 2.64.7 4.366 1.7 4.366 2.6 0 .1 0 .2.102.3v.3c-1.219.5-2.335.6-3.554.8zm-.508-5.3c-.406-.1-.913-.2-1.32-.2.407 0 .813-.1 1.32-.2 1.523-.4 3.757-1.1 4.874-2.4.203.4.508.8.813 1.1.913.9 2.335 1.5 3.655 1.5-1.422 0-2.742.6-3.656 1.5-.304.3-.609.7-.812 1.1-1.117-1.3-3.35-2-4.874-2.4zm5.585 5.2c0-1.1.406-2.1 1.218-2.9 1.016-1 2.539-1.3 3.96-.9 2.64.7 4.367 1.7 4.367 2.6v1.5c-3.25 1.3-6.397 2.4-9.545 3.3v-3.6zm1.218-8a3.975 3.975 0 01-1.218-2.9v-1.5c1.015.2 1.93.4 2.945.6v1.3c0 .4.304.8.812.8.406 0 .812-.3.812-.8v-.9c1.726.5 3.35.9 4.773 1.5h.304v.2c0 .9-1.828 2-4.366 2.6-1.625.4-3.148.1-4.062-.9zM83.77 27v-1.2c0-.4-.304-.8-.812-.8-.406 0-.813.3-.813.8v.8c-.913-.2-1.929-.4-2.944-.6v-5.1c2.64.9 5.077 2 7.21 3.1.811.4 1.624.9 2.335 1.3v3.2c-1.32-.5-3.047-1-4.976-1.5zm-75.037-.8v4.2c0 1-.812 1.8-1.828 1.8-1.218 0-2.436-.4-3.452-1.2-.101 0-.101-.1-.203-.1.61-.8 1.32-1.5 2.234-2.3.914-.8 2.03-1.6 3.25-2.4zm-6.295 5.9c1.218 1 2.741 1.5 4.366 1.5 1.218 0 2.234-.6 2.843-1.5 1.219 1.1 3.148 1.8 4.57 2.1.405.1.913.2 1.32.2-.407 0-.915.1-1.32.2-1.422.3-3.453 1-4.57 2.1-.61-.9-1.625-1.5-2.843-1.5-1.32 0-2.539.3-3.554 1-.812-.5-1.421-.8-1.726-1 0-.2.812-2.7.914-3.1zm6.295 6.5v.4c-1.421-.7-2.741-1.3-3.757-1.8.61-.2 1.219-.4 1.93-.4.913 0 1.827.8 1.827 1.8zm66.508 17.6C52.699 67.1 18.582 59.5 6.499 45.7c-1.929-2.2-3.757-5.1-4.569-8.5 5.077 2.9 23.354 12.1 48.434 12.1 13.505 0 29.04-2.7 45.59-10.4-2.233 4.6-7.208 10.8-20.713 17.3zm15.23-16.5v-1.1c0-1 .813-1.8 1.828-1.8 1.016 0 1.93.3 2.843.8-1.523.7-3.046 1.4-4.67 2.1zm6.398-2.9a7.28 7.28 0 00-4.468-1.5c-1.219 0-2.234.6-2.843 1.5-1.219-1.1-3.25-1.8-4.57-2.1-.406-.1-.913-.2-1.32-.2.407 0 .914-.1 1.32-.2 1.422-.3 3.351-1 4.57-2.1.609.9 1.624 1.5 2.843 1.5 1.624 0 3.046-.5 4.264-1.5.203.5.508 3.8.204 4.6z"/><path d="M31.681 14.3c.102 0 .102 0 0 0 .508 0 .813-.4.813-.8-.407-3.3-.407-4.8.812-7.1.203-.4 0-.8-.305-1-.406-.2-.812 0-1.015.3-1.32 2.7-1.32 4.5-.914 8-.101.3.203.6.61.6zM78.795 16.8c0 .4.203.8.71.8h.102c.406 0 .71-.3.71-.7.407-3.5.407-5.3-.913-8-.203-.4-.61-.5-1.015-.3-.407.2-.508.6-.305 1 1.117 2.4 1.117 3.9.71 7.2zM19.294 17.6c.102 0 .102 0 0 0 .508 0 .813-.4.813-.8-.406-3.3-.406-4.8.812-7.1.203-.4 0-.8-.305-1-.304-.2-.812 0-1.015.3-1.32 2.7-1.32 4.5-1.015 8 0 .3.406.6.71.6zM65.9 13.5c0 .4.203.8.711.8h.102c.406 0 .71-.3.71-.7.406-3.5.406-5.3-.914-8-.203-.4-.609-.5-1.015-.3-.406.2-.508.6-.305 1 1.016 2.4 1.016 3.8.711 7.2zM48.638 15.3c0 .4.406.7.812.7s.71-.4.71-.8-.101-.7-.101-1c-.203-1.6-.305-3.3.102-8.1 0-.4-.305-.8-.711-.8-.406 0-.813.3-.813.7-.406 5-.203 6.7-.101 8.4.102.3.102.6.102.9zM46.709 56.3c-8.022 0-15.84-1.5-22.643-4.5-.406-.2-.813 0-1.016.4-.203.4 0 .8.406 1 7.007 3 15.028 4.6 23.253 4.6.406 0 .812-.3.812-.8s-.406-.7-.812-.7zM78.694 48.7c-6.803 2.9-14.622 4.5-22.643 4.5-.407 0-.813.3-.813.8s.305.8.813.8c8.224 0 16.246-1.6 23.252-4.6.406-.2.61-.6.406-1-.203-.5-.61-.6-1.015-.5z"/></g><defs><clipPath id="fclip0_10_18706"><path d="M0 0h99v63H0z"/></clipPath></defs></svg><svg viewBox="0 0 80 81" id="price-3" xmlns="http://www.w3.org/2000/svg"><g clip-path="url(#gclip0_10_18816)"><path d="M34.805 6.675c-2.02.674-3.797 2.205-6.001 2.45-1.593.245-3.185-.368-4.532-1.102-.735-.368-1.348.734-.613 1.102 1.348.735 2.818 1.347 4.349 1.286 1.224 0 2.388-.306 3.429-.735 1.96-.857 3.797-2.205 6.124-2.205 1.898.062 3.552.98 5.144 1.96.674.429 1.286-.674.613-1.102-2.634-1.654-5.512-2.695-8.513-1.654z"/><path d="M61.383 12.677c-.06-2.144-.49-4.287-1.47-6.247-.857-1.714-2.265-3-4.041-3.674-2.266-.796-4.716-.429-6.92.184-1.593.49-3.185 1.102-4.655 1.837-.734.367-.122 1.47.674 1.163 3.613-1.776 9.554-4.042 12.8-.428 1.224 1.347 1.775 3.123 2.143 4.838.367 2.204.367 4.532.245 6.736-.429 4.838-1.593 9.676-3.124 14.27-.49 1.346-1.163 2.51-2.45 3.184-.673.306-1.408.428-2.204.49H21.026c-1.102 0-2.082-.368-2.94-.98-1.408-1.164-1.898-3.123-2.45-4.777-.734-2.327-1.285-4.715-1.591-7.104-.368-2.327-.552-4.715-.429-7.165.061-2.021.367-4.164 1.164-6.063.734-1.592 1.775-3 3.429-3.674 1.96-.858 4.287-.613 6.308-.062 1.53.43 3 1.042 4.41 1.715.734.368 1.408-.796.611-1.102-.49-.245-.98-.49-1.592-.735 1.531-1.286 3.185-2.45 5.267-2.817 1.776-.306 3.613.184 5.328.796 1.225.49 2.327 1.102 3.49 1.654.735.367 1.348-.735.613-1.103-2.021-1.04-4.103-2.143-6.37-2.572-2.081-.367-4.102-.061-6 .858-1.287.673-2.512 1.653-3.614 2.633-3.736-1.409-8.145-2.021-11.207 1.04-3.123 3.124-3.307 8.33-3.123 12.433.122 2.572.49 5.144 1.041 7.655.245 1.225.551 2.388.919 3.613.49 1.715 1.04 3.736 2.265 5.083 1.225 1.47 2.94 1.96 4.777 1.96.184 1.163.368 2.327.49 3.552.123.734.184 1.408.613 1.96.55.918 1.47 1.469 2.45 1.469h.367c.122 1.347.367 2.695.49 4.042.244 1.837.428 3.613.673 5.45-.061.061-.122.245-.122.368.061.184.122.367.245.49.183 1.408.428 2.878.55 4.348-.122.122-.305.306-.305.55 0 .246.183.552.49.613.122 1.348.367 2.695.55 4.103a.666.666 0 00-.55.674.68.68 0 00.673.674l.061.06c.123 1.348.368 2.696.49 4.043l-.183-.061a.68.68 0 00-.674.673.68.68 0 00.674.674h.367c.123 1.347.368 2.694.49 4.042h-.49a.68.68 0 00-.674.673.68.68 0 00.674.674h.735c.122.612.184 1.286.245 1.96.184 1.04.306 2.02 1.225 2.694.612.49 1.347.49 2.082.49h2.327c1.715-.367 3.43-.367 5.144-.367.796.061 1.531-.061 2.205-.613.612-.49.919-1.163.98-1.96.122-.857.183-1.653.306-2.51l.674.061c.183.061.306-.061.428-.184a.661.661 0 00.184-.428.68.68 0 00-.674-.674h-.49c.123-.612.123-1.225.245-1.837.123-.735.184-1.409.245-2.205h.368c.184.061.306-.061.429-.184a.661.661 0 00.183-.428.68.68 0 00-.673-.674v-.122c.122-1.348.367-2.695.49-4.042l.06.061c.246 0 .307-.061.43-.184a.662.662 0 00.183-.428.666.666 0 00-.551-.674c.123-.735.184-1.531.245-2.205.122-.612.184-1.286.245-1.837.122 0 .184-.061.245-.122a.661.661 0 00.184-.43c0-.244-.123-.367-.307-.55.184-1.409.368-2.94.552-4.348a.662.662 0 00.183-.429c0-.123 0-.245-.122-.368.122-1.102.306-2.143.428-3.245.245-2.082.49-4.165.797-6.308h.245c1.592 0 2.878-1.163 3.184-2.694.245-1.47.429-2.879.612-4.287 1.47 0 2.818-.368 3.981-1.286 1.225-.98 1.776-2.266 2.205-3.675.428-1.163.735-2.327 1.102-3.552.674-2.51 1.225-5.021 1.592-7.594.49-2.45.674-4.96.551-7.532zm-30.865 30.62h16.168c-.184 1.286-.306 2.51-.49 3.797H27.089c-.184-1.286-.306-2.51-.49-3.797 1.286.061 2.572 0 3.92 0zm14.943 9.186l-17.698-.061a47.973 47.973 0 00-.43-3.123c-.06-.307-.06-.552-.122-.858h18.74c-.123 1.347-.245 2.695-.49 4.042zm-.674 5.328l-16.35-.061c-.123-1.347-.368-2.695-.49-4.042h17.392a66.615 66.615 0 01-.49 3.674c-.062.184 0 .245-.062.429zM42.46 76.673c-.061.551-.061 1.164-.367 1.592-.429.674-1.041.674-1.776.674-.735 0-1.47 0-2.266.061h-5.144c-.735 0-1.409-.061-1.715-.735a2.594 2.594 0 01-.245-.735c-.061-.796-.245-1.592-.306-2.388h12.003c-.122.49-.122.98-.184 1.531zm.306-2.878l-12.309-.061c-.122-.858-.184-1.654-.306-2.511-.061-.552-.184-1.041-.184-1.531h13.35c-.183 1.408-.367 2.694-.55 4.103zm.674-5.328l-13.657-.061c-.122-1.348-.367-2.695-.49-4.042h14.698c-.184 1.408-.367 2.694-.55 4.103zm.674-5.328l-15.004-.061c-.061-.919-.245-1.838-.368-2.817-.06-.429-.122-.858-.183-1.286h16.045c-.123 1.47-.307 2.755-.49 4.164zm5.695-22.108c-.306.551-.857.98-1.53.919H25.251c-.245 0-.613 0-.858-.123-.857-.367-1.102-1.224-1.286-2.02-.184-1.164-.367-2.328-.49-3.553H50.79c-.184 1.041-.367 2.083-.49 3.062-.184.674-.184 1.286-.49 1.715zM63.712 52.85c-1.102 1.103-2.94 1.103-4.042 0a.683.683 0 00-.98 0c-.306.307-.306.674 0 .98 1.103 1.103 1.103 2.94 0 4.042a.683.683 0 000 .98c.306.306.674.306.98 0 1.102-1.102 2.94-1.102 4.042 0a.683.683 0 00.98 0c.306-.306.306-.673 0-.98-1.102-1.102-1.102-2.94 0-4.042a.683.683 0 000-.98.683.683 0 00-.98 0zm-1.102 3.797a4.642 4.642 0 00-1.838 0 4.638 4.638 0 000-1.837 4.638 4.638 0 001.838 0 4.638 4.638 0 000 1.837zM71.98 23.884c-1.654 1.653-4.41 1.715-6.125 0a.683.683 0 00-.98 0c-.306.306-.184.674.061.918 1.654 1.654 1.715 4.41 0 6.125a.683.683 0 000 .98c.307.306.674.306.98 0 1.654-1.654 4.41-1.715 6.124 0a.683.683 0 00.98 0c.306-.307.306-.674 0-.98-1.653-1.654-1.715-4.41 0-6.125a.683.683 0 000-.98c-.428-.183-.796-.183-1.04.062zm-1.41 5.573c-1.102-.368-2.265-.306-3.306 0 .367-1.103.306-2.266 0-3.307 1.102.367 2.265.306 3.306 0-.367 1.102-.306 2.266 0 3.307zM-6.899 34.662c1.654-1.653 4.41-1.715 6.124 0 .245.245.735.245.98 0a.683.683 0 000-.98c-1.653-1.653-1.715-4.41 0-6.124.245-.245.245-.735 0-.98a.683.683 0 00-.98 0c-1.653 1.654-4.41 1.715-6.124 0-.245-.122-.612-.122-.919.184a.683.683 0 000 .98c1.654 1.653 1.715 4.41 0 6.124-.244.245-.244.735 0 .98.245.245.674.061.92-.184zm1.409-5.573a6.067 6.067 0 003.307 0c-.307 1.041-.368 2.205 0 3.307a6.067 6.067 0 00-3.307 0c.367-1.102.306-2.266 0-3.307zM11.227 54.26a.661.661 0 00.429-.185.661.661 0 00.183-.428.661.661 0 00-.183-.429.661.661 0 00-.429-.184c-.122 0-.184.062-.245 0a.674.674 0 00-.367.613c0 .122.06.306.183.428.062.062.123.123.245.123.062.061.123.122.184.061zM.572 46.053c.062-.061.123-.123.123-.245a.186.186 0 000-.245.662.662 0 00-.184-.429.661.661 0 00-.428-.183h-.245a.673.673 0 00-.368.612c0 .122.061.306.184.429a.662.662 0 00.429.183c.183.062.367 0 .49-.122zM7.86 36.193a.661.661 0 00.184-.428.662.662 0 00-.184-.43c-.061-.06-.122-.122-.245-.122a.186.186 0 00-.245 0 .674.674 0 00-.612.368.186.186 0 000 .245c.061.06 0 .122 0 .245.061.06.061.183.122.245.062.06.123.122.245.122a.186.186 0 00.245 0c.062-.061.123 0 .245 0l.245-.245z"/><path d="M19.925 48.013a.661.661 0 00.184-.43.662.662 0 00-.184-.428.662.662 0 00-.429-.184.68.68 0 00-.673.674c0 .123.061.306.183.429a.662.662 0 00.43.184c.183-.062.367-.123.49-.245zM18.21 66.997a.186.186 0 00-.245 0 .68.68 0 00-.674.674c0 .122.061.183 0 .245-.061.061.184.061.245.122a.661.661 0 00.429.184.661.661 0 00.428-.184.661.661 0 00.184-.428.661.661 0 00-.184-.43c0-.122-.06-.183-.183-.183zM69.1 41.092a.186.186 0 000 .245c0 .123.061.306.184.429.06.061.122.123.245.123a.186.186 0 00.245 0c.122 0 .183-.062.245 0 .06.06.183-.062.244-.123a.661.661 0 00.184-.429c0-.122-.061-.183 0-.245-.061-.06-.061-.183-.122-.245a.661.661 0 00-.429-.183c-.429.06-.674.183-.796.428zM78.531 26.395a.552.552 0 00-.367.367.186.186 0 000 .245c0 .123.061.306.184.429.06.061.122.122.245.122a.186.186 0 00.245 0c.122 0 .183-.061.245 0 .06-.061.183-.061.245-.122a.661.661 0 00.183-.429c0-.122-.061-.184 0-.245-.061-.061-.061-.184-.122-.245a.661.661 0 00-.429-.183c-.245 0-.306.06-.429.06zM70.018 15.31c-.061-.061-.122-.122-.245-.122-.122 0-.183-.062-.245 0a.68.68 0 00-.673.673c0 .123.061.184 0 .245.061.061.061.184.122.245a.661.661 0 00.429.184.661.661 0 00.429-.184.662.662 0 00.183-.428c.184-.307.123-.49 0-.613zM78.348 16.045c-.245 0-.551.184-.612.367a.186.186 0 000 .245c0 .123.061.307.183.43a.662.662 0 00.43.183c.122 0 .183-.061.244 0 .061-.061.184-.061.245-.123.061-.06.123-.122.123-.245a.186.186 0 000-.245.661.661 0 00-.184-.428.662.662 0 00-.429-.184z"/></g><defs><clipPath id="gclip0_10_18816"><path d="M0 0h80v81H0z"/></clipPath></defs></svg><svg viewBox="0 0 99 58" id="price-4" xmlns="http://www.w3.org/2000/svg"><g clip-path="url(#hclip0_10_18560)"><path d="M3.96 38.533a.796.796 0 00-.812-.803c-.406 0-.71.301-.71.803s.304.803.812.803c.507 0 .71-.402.71-.803zM4.06 41.744c-.406 0-.812.3-.812.803 0 .501.305.802.812.802.508 0 .813-.3.813-.802s-.406-.803-.813-.803zM3.656 46.66c-.406 0-.812.302-.812.804 0 .501.406.702.812.702s.812-.301.812-.803c0-.501-.406-.702-.812-.702zM6.297 48.768c-.406 0-.813.301-.813.803s.305.803.813.803c.507 0 .812-.402.812-.903 0-.502-.406-.703-.812-.703zM3.656 52.481c-.406 0-.812.301-.812.803s.304.803.812.803.812-.302.812-.803c0-.502-.406-.803-.812-.803zM9.443 52.08a.796.796 0 00-.812-.803c-.406 0-.711.3-.711.803 0 .501.305.802.812.802.508 0 .711-.401.711-.802zM9.646 53.986c-.406 0-.812.301-.812.803s.305.803.812.803c.508 0 .813-.301.813-.803s-.407-.803-.813-.803zM14.113 49.571c-.406 0-.812.301-.812.803s.304.803.812.803.812-.301.812-.803-.406-.803-.812-.803zM12.691 51.578c-.406 0-.812.3-.812.803 0 .501.305.802.812.802.508 0 .813-.3.813-.802s-.407-.803-.813-.803zM15.941 53.484c-.406 0-.812.301-.812.803s.305.803.812.803c.508 0 .812-.301.812-.803s-.406-.803-.812-.803zM19.191 52.38c-.406 0-.812.302-.812.803 0 .502.304.803.812.803s.813-.3.813-.803c0-.501-.407-.802-.813-.802zM22.338 54.287c-.407 0-.813.301-.813.803s.305.803.813.803c.507 0 .812-.301.812-.803s-.305-.803-.812-.803zM22.34 52.581c.406 0 .812-.3.812-.802s-.305-.803-.812-.803c-.407 0-.711.3-.711.803 0 .501.304.802.71.802zM25.486 52.882c-.406 0-.812.301-.812.803s.304.803.812.803.812-.301.812-.803-.304-.803-.812-.803zM26.906 50.775c-.406 0-.812.301-.812.803s.304.803.812.803.812-.301.812-.803-.406-.803-.812-.803zM30.158 52.682c-.406 0-.812.3-.812.802s.304.803.812.803.812-.3.812-.803c0-.501-.406-.802-.812-.802zM30.056 50.876c.407 0 .813-.301.813-.803s-.305-.803-.813-.803c-.406 0-.71.301-.71.803s.304.803.71.803zM34.015 52.08a.796.796 0 00-.812-.803c-.406 0-.71.3-.71.803 0 .501.304.802.811.802.508 0 .711-.401.711-.802zM34.726 49.17c-.406 0-.812.3-.812.802s.305.803.812.803c.407 0 .813-.3.813-.803 0-.501-.407-.802-.813-.802zM32.898 48.066c0-.402-.305-.803-.71-.803-.407 0-.711.301-.711.803 0 .501.304.802.812.802.304 0 .61-.4.61-.802zM34.828 45.356c-.406 0-.812.301-.812.803s.304.803.812.803c.406 0 .812-.301.812-.803s-.406-.803-.812-.803zM34.93 42.145c-.407 0-.813.301-.813.803s.305.803.813.803c.406 0 .812-.301.812-.803s-.406-.803-.813-.803zM32.39 44.754a.796.796 0 00-.812-.802c-.406 0-.71.3-.71.802s.304.803.812.803c.507 0 .71-.401.71-.803zM34.32 38.633c-.406 0-.812.301-.812.803s.304.803.812.803c.406 0 .812-.301.812-.803s-.304-.803-.812-.803zM34.117 36.827c.406 0 .812-.301.812-.803s-.304-.803-.812-.803c-.406 0-.71.302-.71.803 0 .502.304.803.71.803zM34.422 54.087c-.406 0-.813.3-.813.802s.305.803.813.803c.406 0 .812-.301.812-.803 0-.501-.406-.803-.812-.803zM37.875 51.076c-.406 0-.813.301-.813.803s.305.803.813.803c.406 0 .812-.301.812-.803s-.304-.803-.812-.803zM39.803 53.183c-.407 0-.813.301-.813.803s.305.803.813.803c.406 0 .812-.301.812-.803s-.406-.803-.813-.803zM61.025 50.374c-.406 0-.812.3-.812.802s.304.803.812.803.813-.3.813-.803c0-.501-.407-.802-.813-.802zM59.096 53.183c-.407 0-.813.301-.813.803s.305.803.813.803c.406 0 .812-.301.812-.803s-.406-.803-.813-.803zM42.748 54.087c-.406 0-.813.3-.813.802s.305.803.813.803c.406 0 .812-.301.812-.803 0-.501-.406-.803-.812-.803zM44.168 51.076c-.406 0-.813.301-.813.803s.305.803.813.803c.406 0 .812-.301.812-.803s-.304-.803-.812-.803zM47.826 51.98c-.406 0-.812.3-.812.802s.304.803.812.803c.406 0 .812-.301.812-.803s-.406-.803-.812-.803zM51.074 53.284c-.406 0-.812.3-.812.803 0 .501.304.802.812.802.406 0 .812-.3.812-.802s-.406-.803-.812-.803zM55.033 51.98a.796.796 0 00-.813-.803c-.406 0-.71.3-.71.802s.304.803.812.803c.406 0 .71-.401.71-.803zM55.236 54.087c-.406 0-.812.3-.812.802s.304.803.812.803c.406 0 .812-.301.812-.803 0-.501-.406-.803-.812-.803zM12.794 13.547c1.219-.1 2.336-.602 3.453-1.104 1.015-.502 2.03-.903 3.148-1.003 1.624-.1 3.046.501 4.264 1.404.812.502 1.523-.802.812-1.304-1.32-.903-2.944-1.606-4.569-1.606-1.218 0-2.437.402-3.554.903-1.015.402-2.03 1.004-3.046 1.205-1.32.3-2.64-.1-3.757-.703-.812-.502-1.624.803-.812 1.305a6.125 6.125 0 004.061.903zM5.99 17.962c-.102 3.613 1.93 6.623 2.437 10.135.101.401.305.803.812.803.406 0 .813-.301.813-.803-.508-3.412-2.539-6.623-2.437-10.135-.102-1.003-1.625-1.003-1.625 0zM28.431 23.18c1.422-3.11 2.437-6.322 2.843-9.734 0-.401-.406-.802-.812-.802s-.71.3-.812.802c-.305 3.111-1.32 6.222-2.539 9.031-.203.402-.101.803.305 1.004.305.2.812.1 1.015-.301zM27.82 43.35c.406 0 .813-.302.813-.803 0-.502-.305-.803-.813-.803-.406 0-.71.3-.71.803 0 .501.304.802.71.802zM26.4 40.54c.406 0 .813-.301.813-.803a.796.796 0 00-.813-.803c-.406 0-.71.301-.71.803 0 .401.304.803.71.803zM28.533 38.031c.406 0 .812-.3.812-.803 0-.501-.304-.802-.812-.802-.406 0-.71.3-.71.802s.304.803.71.803zM20.004 38.734c.406 0 .812-.302.812-.803 0-.502-.305-.803-.812-.803-.406 0-.711.301-.711.803s.305.803.71.803zM17.363 39.035c-.406 0-.812.3-.812.802s.304.703.812.703.812-.301.812-.803c0-.401-.406-.702-.812-.702zM19.09 43.048c.406 0 .812-.3.812-.802s-.305-.803-.812-.803c-.407 0-.711.3-.711.803 0 .501.304.802.71.802zM18.48 43.952c-.406 0-.812.3-.812.802s.305.803.812.803c.508 0 .813-.3.813-.803 0-.501-.407-.802-.813-.802zM10.154 43.851c.406 0 .812-.3.812-.803 0-.501-.304-.802-.812-.802-.406 0-.71.3-.71.802s.304.803.71.803zM8.63 41.142c.407 0 .813-.301.813-.803a.796.796 0 00-.812-.803c-.406 0-.711.301-.711.803s.305.803.71.803zM11.17 39.135c.406 0 .812-.301.812-.803 0-.501-.305-.803-.812-.803-.406 0-.711.302-.711.803 0 .502.305.803.71.803zM8.732 37.53c.406 0 .813-.302.813-.803 0-.502-.407-.703-.813-.703-.406 0-.71.301-.71.803s.304.703.71.703zM18.379 46.46c-.406 0-.813.301-.813.803s.305.803.813.803c.507 0 .812-.301.812-.803s-.406-.803-.812-.803zM17.262 37.028c.406 0 .812-.301.812-.803s-.305-.803-.812-.803c-.407 0-.711.301-.711.803s.304.803.71.803zM10.256 45.156c-.406 0-.813.3-.813.803 0 .501.305.802.813.802.507 0 .812-.3.812-.803 0-.501-.305-.802-.812-.802zM12.795 36.827c.406 0 .812-.301.812-.803s-.305-.803-.812-.803c-.406 0-.711.302-.711.803 0 .502.305.803.71.803zM58.486 43.35c.406 0 .813-.302.813-.803 0-.502-.305-.803-.813-.803-.406 0-.71.3-.71.803 0 .501.304.802.71.802zM57.064 40.54c.406 0 .813-.301.813-.803a.796.796 0 00-.813-.803c-.406 0-.71.301-.71.803 0 .401.304.803.71.803zM59.197 38.031c.406 0 .812-.3.812-.803 0-.501-.304-.802-.812-.802-.406 0-.71.3-.71.802s.304.803.71.803zM50.668 38.734c.406 0 .812-.302.812-.803 0-.502-.304-.803-.812-.803-.406 0-.711.301-.711.803s.305.803.71.803zM48.027 39.035c-.406 0-.812.3-.812.802s.304.703.812.703c.406 0 .813-.301.813-.803 0-.401-.407-.702-.813-.702zM49.754 43.048c.406 0 .812-.3.812-.802s-.305-.803-.812-.803c-.406 0-.711.3-.711.803 0 .501.305.802.71.802zM49.144 43.952c-.406 0-.812.3-.812.802s.305.803.812.803c.407 0 .813-.3.813-.803 0-.501-.407-.802-.813-.802zM40.818 43.851c.406 0 .813-.3.813-.803 0-.501-.305-.802-.813-.802-.406 0-.71.3-.71.802s.304.803.71.803zM39.297 39.637c-.406 0-.813.3-.813.803 0 .4.305.802.813.802.406 0 .812-.3.812-.802a.796.796 0 00-.812-.803zM41.834 39.135c.406 0 .812-.301.812-.803s-.304-.803-.812-.803c-.406 0-.711.301-.711.803s.305.803.71.803zM39.396 37.53c.407 0 .813-.302.813-.803 0-.502-.305-.803-.813-.803-.406 0-.71.301-.71.803 0 .501.304.803.71.803zM49.043 46.46c-.406 0-.813.301-.813.803s.305.803.813.803c.406 0 .812-.301.812-.803s-.406-.803-.812-.803zM47.926 37.028c.406 0 .812-.301.812-.803s-.305-.803-.812-.803c-.407 0-.711.301-.711.803s.304.803.71.803zM40.92 45.156c-.406 0-.813.3-.813.803 0 .501.305.802.813.802.406 0 .812-.3.812-.803 0-.501-.305-.802-.812-.802zM43.459 36.827c.406 0 .812-.301.812-.803s-.304-.803-.812-.803c-.406 0-.711.302-.711.803 0 .502.305.803.71.803zM58.588 18.865c.406 0 .812-.301.812-.803 0-.501-.305-.803-.812-.803-.406 0-.711.302-.711.803 0 .502.305.803.71.803zM57.369 13.747c-.406 0-.812.302-.812.803 0 .502.304.803.812.803.406 0 .812-.301.812-.803s-.406-.803-.812-.803zM53.41 12.342c-.406 0-.71.302-.71.803 0 .502.304.803.811.803.407 0 .813-.301.813-.803 0-.501-.508-.803-.914-.803zM56.457 9.934c-.406 0-.813.301-.813.803s.305.803.813.803c.406 0 .812-.301.812-.803s-.406-.803-.812-.803zM60.111 10.637c-.406 0-.812.3-.812.803 0 .501.304.802.812.802.406 0 .812-.3.812-.803 0-.501-.304-.802-.812-.802zM64.578 10.938a.796.796 0 00-.813-.803c-.406 0-.71.301-.71.803s.304.803.812.803.71-.301.71-.803zM61.635 13.848c-.407 0-.813.3-.813.802s.305.803.813.803c.507 0 .812-.3.812-.803 0-.501-.305-.802-.812-.802zM62.547 18.062a.796.796 0 00-.813-.803c-.406 0-.71.302-.71.803 0 .502.304.803.812.803.507 0 .71-.401.71-.803zM60.924 20.972c-.407 0-.711.301-.711.803s.304.803.812.803.813-.301.813-.803-.508-.803-.914-.803zM38.482 24.083c.406 0 .813-.301.813-.803 0-.501-.305-.803-.813-.803-.406 0-.71.302-.71.803 0 .502.304.803.71.803zM38.687 25.689c-.406 0-.812.3-.812.802s.305.803.812.803c.407 0 .813-.3.813-.803 0-.501-.407-.802-.813-.802z"/><path d="M99 29.703c0-6.824-5.686-12.443-12.59-12.443H73.614c-3.147 0-6.194 1.204-8.427 3.311.304-1.104.609-2.107.812-3.211.61-2.71 1.219-6.422-.406-8.93-2.437-3.714-7.717-1.506-10.763 0-1.016.3-.203 1.605.71 1.203 1.727-.802 3.656-1.706 5.585-1.806 1.117-.1 2.133.2 2.843 1.004.61.702.914 1.906.914 2.91.102 1.505-.102 2.91-.304 4.415a35.725 35.725 0 01-1.219 4.716c-.203.702-.508 1.505-.71 2.208-.407 1.003-.915 2.007-1.22 3.01-1.522-.602-2.335-2.208-3.248-4.215-.914-1.806-1.828-3.712-3.351-5.017-.61-.502-1.219-.803-1.828-1.204-1.726-.903-3.148-1.706-3.148-4.616.204 0 .305-.1.407-.1 1.624-.1 3.046.602 4.264 1.405.813.501 1.523-.803.813-1.305-1.32-.903-2.945-1.605-4.57-1.706-1.32 0-2.538.402-3.655.903-1.015.502-2.03 1.004-3.25 1.205-1.32.3-2.64-.1-3.756-.703-.813-.502-1.625.803-.813 1.305 1.32.702 2.742 1.204 4.163 1.003 1.219-.1 2.336-.602 3.554-1.204.407-.2.813-.401 1.219-.502.203 3.412 2.234 4.516 3.96 5.52.609.3 1.117.601 1.523 1.003 1.32 1.104 2.234 2.81 3.046 4.515 1.015 2.108 2.132 4.315 4.265 5.018-.203 1.404-.102 2.91-.102 4.314v.803c-4.874-.2-9.138-.401-12.083-.401-2.437 0-5.89.1-9.85.3 3.047-4.013 2.844-7.324 2.133-9.331-1.32-3.512-4.772-5.62-6.803-6.121-.102-.302-.102-.703-.203-1.104-.203-1.606-.305-3.211 0-4.817.305-1.304 1.015-2.408 2.437-2.71 2.234-.501 4.874.703 6.803 1.707.914.401 1.624-.903.812-1.305l-.609-.3c1.117-.904 2.437-1.506 3.96-1.506 1.625 0 3.25.602 4.772 1.304.813.402 1.625-.903.813-1.304-1.726-.903-3.656-1.606-5.585-1.505-2.03.1-3.859 1.003-5.382 2.408-2.741-1.104-6.193-1.806-8.123.401-.71-.903-1.726-1.505-3.046-1.705-2.538-.301-5.178.903-7.31 1.906-.914.402-.102 1.706.812 1.305 1.929-.703 4.163-1.706 6.295-1.506 1.117.1 1.93.703 2.437 1.606-.61 1.204-.71 2.81-.61 4.215 0 1.404.204 2.81.508 4.114 0 .3-.203.702-.304 1.003l-.305 1.204c-.203.803-.507 1.505-.71 2.308-.305.803-.508 1.505-.914 2.208-.305.702-.61 1.405-.813 2.107-.304 1.606-.203 3.211-.203 4.817v1.304c-7.717.301-17.261.602-23.049.2l.305-2.708c.101-1.405 0-2.81-.305-4.115-.406-1.505-1.218-2.81-1.726-4.214-.71-1.907-1.117-4.014-1.422-6.02-.203-1.506-.304-3.212 0-4.717.305-1.305 1.016-2.408 2.437-2.71 2.234-.501 4.773.703 6.702 1.706.914.402 1.624-.903.812-1.304-.203-.1-.406-.1-.61-.2 1.118-.804 2.336-1.506 3.758-1.506 1.624 0 3.147.502 4.57 1.204.913.402 1.624-.903.811-1.304-1.726-.803-3.554-1.506-5.483-1.405-2.03.1-3.757 1.003-5.178 2.308-3.046-1.204-6.803-1.907-8.63 1.204-.813 1.405-.915 3.11-.915 4.616.102 2.007.406 4.014.914 5.92.305 1.305.812 2.71 1.32 4.014.61 1.505 1.32 2.81 1.422 4.516.101 1.505-.102 3.01-.203 4.616-2.133-.201-3.554-.603-3.859-1.104a.796.796 0 00-.812-.803c-.508 0-.711.301-.711.702v25.288c0 .401.305.802.812.802H98.29a.78.78 0 00.508-.2.761.761 0 00.203-.502V29.703zm-49.957 4.114c2.945 0 7.21.2 12.083.401v2.71c0 2.81-.304 5.72-1.32 8.428-.304.703-.61 1.405-1.015 2.108-.305.502-.813 1.405-1.422 1.605-.812.301-.609-1.003-.609-1.505v-1.706c.102.1.203.1.305.1.406 0 .812-.3.812-.802s-.305-.803-.812-.803c-.102 0-.203 0-.407.1-.101-2.91-.304-5.92-1.726-8.53.203-.3.407-.702.61-.902.203-.301.203-.803-.203-1.004-.407-.2-.813-.2-1.117.201-1.117 1.505-2.437 4.215-2.742 9.232-.203 4.716-1.117 7.024-1.93 7.225 0 0-.1 0-.304-.1-.914-.603-2.234-3.613-2.538-7.226-.305-2.508-.508-5.117-.305-6.723.102-1.304-.102-2.207-.102-2.207-.101-.402-.507-.703-.913-.602-.407.1-.711.501-.61.903 0 0 .102.502.102 1.405-3.655 3.01-2.64 8.027-3.148 12.142 0 .3-.101 1.003-.406 1.103-.304.1-.812-.702-1.015-1.003-.711-1.004-1.219-2.107-1.625-3.211-.71-2.007-1.117-4.014-1.523-6.121-.203-1.606-.101-3.211.102-4.817 4.873-.301 8.935-.401 11.778-.401zm-9.24-10.035c.914 2.509.203 5.218-1.93 8.028-.202.3-.202.602 0 .903h-.202c.101-.703.203-1.305.203-2.007.101-1.405 0-2.81-.305-4.215-.406-1.505-1.218-2.91-1.726-4.314 0-.1 0-.1-.102-.201.102.1.305.2.407.2.406 0 .812-.3.812-.802s-.305-.803-.812-.803c-.305 0-.61.2-.711.502-.203-.803-.508-1.606-.71-2.409 1.827.803 4.162 2.61 5.076 5.118zM31.477 29.1c0-1.003.101-2.007.508-2.91.406-.802.812-1.706 1.117-2.609.304-.802.609-1.706.812-2.508.304 1.003.61 2.007 1.117 3.01.609 1.505 1.32 2.81 1.421 4.415.102 1.405 0 2.81-.203 4.114h-.609c-1.218.1-2.64.1-4.062.201-.101-1.204-.203-2.508-.101-3.713zm-1.523 7.627c0 2.91-.305 5.82-1.422 8.53a7.564 7.564 0 01-.913 1.805c-.305.502-.711 1.305-1.219 1.606-.203.1-.508.2-.71 0-.102-.2 0-.602 0-.703v-2.308c.1.302.405.402.71.402.406 0 .812-.301.812-.803s-.304-.803-.812-.803c-.305 0-.61.201-.71.502-.102-3.11-.204-6.221-1.625-9.031.203-.301.406-.703.609-.903.101-.1.101-.2.101-.301 1.727-.1 3.453-.1 5.28-.2-.101.701-.101 1.404-.101 2.207zM15.637 34.92c2.234 0 4.67-.1 7.21-.201-1.016 1.605-2.032 4.214-2.235 8.429-.203 4.616-1.117 6.924-1.929 7.124-.102 0-.102 0-.203-.1-.914-.602-2.132-3.512-2.539-7.125-.304-2.508-.507-5.017-.304-6.522.101-.702 0-1.204 0-1.606zm-1.523 0c0 .2.101.602 0 1.103-3.554 2.91-2.539 7.827-3.148 11.841 0 .2-.101 1.104-.406 1.104-.305 0-.812-.903-1.015-1.104a18.633 18.633 0 01-1.523-3.211c-.61-1.907-1.117-3.813-1.422-5.82-.203-1.405-.102-2.71 0-4.114 2.132.1 4.67.2 7.514.2zM1.524 56.495V33.716c.811.301 2.131.602 3.654.803-.101 1.004-.101 1.907-.101 2.91 0 2.208.61 4.516 1.218 6.623.407 1.204.813 2.408 1.422 3.512.508 1.004 1.32 2.509 2.437 2.81.71.2 1.32-.1 1.828-.602.406-.502.507-1.204.609-1.806.203-1.205.203-2.51.203-3.814.101-1.906.203-4.315 1.32-6.02 0 1.505.101 3.21.406 5.017.305 3.11 1.421 7.024 3.148 8.228.406.301.812.301 1.117.301.203 0 .304 0 .406-.1 1.726-.402 2.741-3.312 3.046-8.53.102-2.308.508-4.114.914-5.519 1.015 2.61.914 5.52 1.015 8.33 0 .802 0 1.705.102 2.508 0 .602.304 1.204.913 1.505 1.422.803 2.742-.602 3.453-1.706 2.843-4.214 2.944-9.131 2.944-13.948 1.32-.1 2.742-.1 4.062-.2h.406c-.101 1.203-.203 2.307-.203 3.511 0 2.208.61 4.516 1.218 6.623.407 1.305.813 2.509 1.524 3.713.406.803 1.015 1.806 1.827 2.408a.69.69 0 00.711.703c.305 0 .508-.2.61-.402 1.015-.2 1.522-1.505 1.624-2.508.203-1.305.203-2.61.203-3.914.101-2.007.203-4.315 1.32-6.02 0 1.505.203 3.311.406 5.117.305 3.211 1.422 7.125 3.25 8.329.405.3.812.3 1.116.3.203 0 .305 0 .407-.1 1.827-.4 2.843-3.31 3.046-8.63.101-2.408.507-4.214 1.015-5.619.914 2.409.914 5.118 1.015 7.727 0 .803 0 1.706.102 2.509 0 .702 0 1.304.406 1.906 1.015 1.205 2.742.502 3.554-.501 4.163-5.218 3.452-12.343 3.452-18.564 0-1.606-.101-3.312.508-4.817.102-.2.203-.502.305-.702 0 0 .101-.1.101-.201.508-1.204 1.32-2.308 2.335-3.312 2.133-2.107 4.874-3.21 7.819-3.21H86.51c6.092 0 11.068 4.916 11.068 10.937v26.792l-96.056.402z"/><path d="M72.193 33.817h16.55c2.64 0 4.875-1.505 5.992-3.914 1.015-2.308.609-4.816-1.117-6.623-1.727-1.806-4.265-2.91-6.803-2.91H74.224a9.346 9.346 0 00-6.6 2.71l-.102.1c-1.828 1.806-2.234 4.315-1.218 6.723 1.015 2.409 3.249 3.914 5.889 3.914zm-3.554-9.634c1.422-1.505 3.452-2.307 5.483-2.307h12.591c2.132 0 4.163.903 5.686 2.408 1.32 1.405 1.625 3.21.812 5.017-.609 1.405-2.132 3.01-4.569 3.01h-16.45c-2.436 0-3.96-1.605-4.568-3.01-.711-1.806-.406-3.713 1.015-5.117zM67.523 42.346a.796.796 0 00-.812-.803c-.406 0-.711.301-.711.803s.305.803.812.803c.508 0 .711-.401.711-.803zM65.187 46.16a.796.796 0 00-.812-.804c-.406 0-.71.301-.71.803s.304.803.811.803c.508 0 .711-.401.711-.803zM68.133 48.166c-.406 0-.813.301-.813.803s.305.803.813.803c.507 0 .812-.301.812-.803s-.406-.803-.812-.803zM65.596 52.682c-.407 0-.813.3-.813.802s.305.803.813.803c.507 0 .812-.3.812-.803 0-.501-.406-.802-.813-.802zM72.498 52.18c-.406 0-.813.301-.813.803 0 .501.305.803.813.803s.812-.302.812-.803c0-.502-.406-.803-.812-.803zM73.31 46.66c-.406 0-.812.302-.812.804 0 .501.305.802.812.802.508 0 .813-.3.813-.802s-.407-.803-.813-.803zM69.758 43.048c-.406 0-.813.301-.813.803s.305.803.813.803c.507 0 .812-.301.812-.803s-.406-.803-.812-.803zM72.904 38.834c-.406 0-.71.301-.71.803s.304.702.812.702c.507 0 .812-.3.812-.803 0-.501-.508-.702-.914-.702zM64.578 38.433c.406 0 .812-.301.812-.803s-.304-.803-.812-.803c-.406 0-.71.301-.71.803s.304.803.71.803zM64.578 32.412c.406 0 .812-.301.812-.803a.796.796 0 00-.812-.803c-.406 0-.71.301-.71.803s.304.803.71.803zM69.25 37.228c-.406 0-.71.301-.71.803s.304.803.811.803c.508 0 .813-.301.813-.803s-.407-.803-.914-.803zM75.037 34.118c-.406 0-.812.3-.812.802s.304.803.812.803.812-.3.812-.803c0-.501-.406-.802-.812-.802zM78.693 38.232c-.406 0-.71.301-.71.803 0 .501.304.803.812.803.507 0 .812-.302.812-.803 0-.502-.508-.803-.914-.803zM73.717 42.246c-.406 0-.711.3-.711.802s.305.803.812.803c.508 0 .813-.3.813-.803 0-.501-.508-.802-.914-.802zM78.793 42.848a.796.796 0 00-.813-.803c-.406 0-.71.301-.71.803s.304.803.812.803.71-.402.71-.803zM79.605 44.855c-.406 0-.812.3-.812.803 0 .501.305.802.812.802.508 0 .813-.3.813-.803 0-.501-.407-.802-.813-.802zM78.998 49.27a.796.796 0 00-.813-.803c-.406 0-.71.301-.71.803s.304.803.812.803.71-.301.71-.803zM81.535 50.876c-.406 0-.812.3-.812.802s.304.803.812.803.812-.301.812-.803-.406-.802-.812-.802zM78.49 53.785c-.406 0-.812.302-.812.803 0 .502.304.803.812.803s.812-.301.812-.803c0-.501-.304-.803-.812-.803zM86.105 54.588c-.406 0-.812.301-.812.803s.305.803.812.803c.508 0 .813-.301.813-.803s-.407-.803-.813-.803zM84.683 48.166c-.406 0-.812.301-.812.803s.305.803.812.803c.508 0 .813-.301.813-.803s-.406-.803-.813-.803zM86.511 46.962c.407 0 .813-.301.813-.803s-.305-.803-.813-.803c-.406 0-.71.301-.71.803s.304.803.71.803zM82.855 41.844c-.406 0-.812.301-.812.803s.305.803.812.803c.508 0 .813-.301.813-.803s-.407-.803-.813-.803zM85.394 38.834c-.406 0-.812.301-.812.803s.305.702.812.702c.508 0 .813-.3.813-.803 0-.501-.406-.702-.813-.702zM82.248 36.024c-.406 0-.71.301-.71.803s.304.803.811.803c.508 0 .813-.301.813-.803s-.508-.803-.914-.803zM87.931 35.723a.796.796 0 00-.812-.803c-.406 0-.71.301-.71.803s.304.803.811.803c.508 0 .711-.401.711-.803zM90.572 37.228c-.406 0-.71.301-.71.803s.304.803.812.803c.507 0 .812-.301.812-.803s-.508-.803-.914-.803zM88.035 41.543c-.406 0-.812.301-.812.803s.304.803.812.803.812-.301.812-.803-.406-.803-.812-.803zM91.69 46.16a.796.796 0 00-.813-.804c-.406 0-.711.301-.711.803s.305.803.812.803c.508 0 .711-.401.711-.803zM89.353 49.17c-.406 0-.812.3-.812.802s.305.803.812.803c.508 0 .813-.3.813-.803 0-.501-.305-.802-.813-.802zM87.02 51.277c-.407 0-.813.3-.813.803 0 .501.305.802.812.802.508 0 .813-.3.813-.802s-.406-.803-.813-.803zM91.588 53.585c-.406 0-.813.3-.813.803 0 .501.305.802.813.802.507 0 .812-.3.812-.802s-.406-.803-.812-.803zM95.04 50.173c-.405 0-.812.301-.812.803s.305.803.813.803.812-.301.812-.803-.304-.803-.812-.803zM93.619 45.457c-.406 0-.812.3-.812.803 0 .501.304.802.812.802s.812-.501.812-.903c0-.401-.406-.702-.812-.702zM96.158 41.543c-.406 0-.812.301-.812.803s.304.803.812.803.812-.301.812-.803-.406-.803-.812-.803zM92.906 40.239c-.406 0-.812.3-.812.803 0 .501.304.802.812.802s.812-.3.812-.803c0-.501-.406-.802-.812-.802zM94.531 36.426c0 .401.305.802.813.802.507 0 .812-.3.812-.802s-.305-.803-.812-.803c-.508 0-.813.3-.813.803zM92.906 33.114c-.406 0-.812.301-.812.803s.304.803.812.803.812-.301.812-.803-.406-.803-.812-.803zM96.46 29.703c-.405 0-.812.3-.812.802s.305.803.813.803c.507 0 .812-.301.812-.803 0-.501-.406-.802-.812-.802z"/><path d="M77.066 26.391c.406 0 .813-.301.813-.803 0-.501-.305-.803-.813-.803-.406 0-.71.302-.71.803 0 .502.304.803.71.803zM74.63 24.886c.407 0 .813-.301.813-.803s-.305-.803-.812-.803c-.406 0-.711.301-.711.803s.203.803.71.803zM71.28 27.696c.405 0 .811-.301.811-.803s-.304-.803-.812-.803c-.406 0-.71.301-.71.803s.202.803.71.803zM76.256 29.401c.406 0 .812-.3.812-.802s-.305-.803-.812-.803c-.406 0-.711.3-.711.803 0 .501.305.802.71.802zM84.582 26.692c.406 0 .812-.301.812-.803 0-.501-.304-.802-.812-.802-.406 0-.71.3-.71.802s.304.803.71.803zM81.332 25.387c.406 0 .812-.3.812-.802s-.304-.803-.812-.803c-.406 0-.71.301-.71.803s.202.802.71.802zM79.504 27.495c.406 0 .812-.301.812-.803s-.305-.803-.812-.803c-.406 0-.711.301-.711.803s.305.803.71.803zM81.027 30.907c.406 0 .813-.302.813-.803 0-.502-.305-.803-.813-.803-.406 0-.71.301-.71.803s.203.803.71.803zM89.049 29.2c.406 0 .812-.3.812-.802s-.305-.803-.812-.803c-.407 0-.711.301-.711.803s.305.803.71.803zM90.267 25.588c.407 0 .813-.3.813-.803 0-.501-.406-.702-.813-.702-.406 0-.71.301-.71.803s.304.702.71.702zM85.29 29.401c-.405 0-.812.301-.812.803s.305.803.813.803.812-.301.812-.803-.406-.803-.812-.803zM86.511 24.484c.407 0 .813-.3.813-.802s-.305-.803-.813-.803c-.406 0-.71.3-.71.803 0 .501.203.802.71.802zM71.484 29.702c0 .402.305.803.813.803.507 0 .812-.3.812-.803 0-.501-.305-.802-.812-.802-.406.1-.813.401-.813.802zM74.427 9.031l6.296-1.003-4.265 5.82c-.203.3-.203.803.203 1.003.102.1.305.2.406.2.204 0 .508-.1.61-.3l5.381-7.225c.203-.2.203-.602 0-.803-.203-.3-.507-.401-.812-.401l-6.295 1.003 4.467-6.02c.203-.301.203-.803-.203-1.004-.406-.2-.609-.301-.914 0l-5.584 7.526c-.203.2-.203.602 0 .803.203.3.406.401.71.401zM91.284 15.554c.203.2.304.2.507.2a.78.78 0 00.508-.2l2.944-2.81a.78.78 0 000-1.104.804.804 0 00-1.116 0l-2.742 2.81c-.305.3-.406.803-.102 1.104zM88.644 13.647c.102 0 .203.1.305.1.304 0 .507-.2.71-.4l1.727-3.714c.203-.401 0-.802-.305-1.003-.305-.2-.812 0-1.015.3l-1.828 3.613c-.203.402 0 .904.406 1.104z"/></g><defs><clipPath id="hclip0_10_18560"><path d="M0 0h99v58H0z"/></clipPath></defs></svg><svg viewBox="0 0 49 98" id="price-5" xmlns="http://www.w3.org/2000/svg"><g clip-path="url(#iclip0_10_18797)"><path d="M33.138 39.708c-.202.304-.707.508-1.01.304-.607-.406-3.233-1.726-3.537-1.726-.404-.102-.606-.508-.505-.914.101-.406.505-.61.91-.508 1.414.407 2.727 1.117 3.839 1.93.404.101.505.508.303.914zM15.257 41.028c1.617-.102 3.132-.711 4.648-1.32.404-.203.505-.711.303-1.016-.202-.406-.707-.406-1.01-.304-1.213.507-2.526 1.015-3.84 1.117-1.717.101-3.334-.407-4.748-1.219-.808-.508-1.617.812-.808 1.32 1.616.914 3.536 1.625 5.455 1.422z"/><path d="M49 40.622c.1 2.336-.304 4.773-.809 7.108-.505 2.54-1.212 4.977-2.02 7.313a55.864 55.864 0 01-2.122 5.179c-1.01 2.234-.91 4.671-.91 7.007 0 8.937 1.112 19.092-4.748 26.607-.606.711-1.212 1.422-2.122 1.727-.909.304-2.121.101-2.727-.61-.607-.71-.506-1.726-.506-2.538 0-1.22-.1-2.54-.1-3.758-.102-3.96-.102-8.226-1.82-11.882-.909 2.133-1.616 5.078-1.818 9.038-.202 5.18-1.111 11.476-4.243 12.187-.202 0-.303.102-.505.102a2.2 2.2 0 01-1.415-.508c-2.424-1.727-4.04-7.312-4.546-11.78-.404-3.047-.606-6.094-.606-8.43-.202.305-.505.61-.707.813-1.92 2.843-1.92 6.5-2.021 9.85 0 1.626-.101 3.25-.303 4.875-.101.813-.202 1.625-.808 2.234-.506.61-1.415.914-2.223.711-.91-.203-1.414-1.015-2.02-1.624a11.537 11.537 0 01-1.516-2.336c-.91-1.727-1.516-3.453-2.122-5.281-.505-1.625-.808-3.25-1.212-4.976-.303-1.625-.505-3.149-.505-4.773 0-4.367 1.212-8.734.808-13.202-.101-1.016-.303-2.031-.707-3.047-.404-1.117-1.01-2.234-1.516-3.351-.808-1.828-1.414-3.86-1.92-5.789C.606 48.746.102 45.903 0 43.06c-.1-2.234.101-4.773 1.314-6.804 2.626-4.469 8.284-3.25 12.628-1.523 1.617-1.422 3.335-2.54 5.355-3.149.91-.304 1.314 1.219.404 1.524-.909.203-1.616.508-2.424 1.015l-1.819 1.219c.505.203.91.406 1.313.61.91.405.101 1.726-.808 1.32a37.25 37.25 0 00-2.93-1.32c-2.425-.915-5.354-1.93-7.981-1.118-1.718.508-2.728 2.031-3.233 3.758-.606 2.234-.505 4.671-.202 7.007.404 2.945 1.01 5.89 2.02 8.632.404 1.117.809 2.234 1.314 3.25.505 1.015 1.01 1.93 1.313 3.046.606 1.93.707 4.063.606 6.094 0 4.265-1.212 8.53-.606 12.592a45.973 45.973 0 002.122 8.937c.606 1.625 1.313 3.25 2.324 4.773.303.508 1.01 1.625 1.717 1.625.707.102.91-.812 1.01-1.422.505-3.046.202-6.296.607-9.444.404-3.25 1.414-6.398 4.142-8.43 0-1.32-.101-2.132-.101-2.132-.101-.406.202-.812.606-.914.404-.101.808.203.91.61 0 .101.302 1.32.1 3.148-.202 2.335 0 5.991.505 9.749.506 4.874 2.223 9.546 3.84 10.663.404.305.707.203.707.203 1.616-.406 2.829-4.671 3.03-10.764.304-7.11 2.325-11.07 3.84-13.101.303-.305.707-.406 1.01-.102.303.203.404.711.101 1.117-.303.407-.606.915-1.01 1.524.404.61.707 1.32 1.01 1.93 1.617 4.163 1.516 8.936 1.617 13.303 0 1.117-.101 2.234.1 3.351.203.914 1.314.711 1.82.203.707-.609 1.212-1.421 1.717-2.234.505-.914 1.01-1.828 1.414-2.742 1.617-3.859 2.122-8.124 2.122-12.288 0-2.336 0-4.773-.101-7.109 0-2.335-.101-4.671.202-7.007.303-2.234 1.515-4.062 2.324-6.093.404-1.117.808-2.234 1.111-3.25.707-2.336 1.313-4.57 1.718-7.007.404-2.031.606-4.164.404-6.297-.101-1.523-.606-3.25-1.617-4.366-1.111-1.22-2.728-1.524-4.344-1.524-2.93.102-5.86 1.32-8.386 2.64-.909.407-1.616-.913-.808-1.32.91-.406 1.718-.812 2.627-1.218 3.94-1.625 9.8-3.148 12.629 1.117 1.414 1.32 1.717 3.453 1.717 5.28z"/><path d="M5.96 48.543c-.102 5.28 2.93 9.85 3.637 15.03.1.406.606.61.909.508.404-.102.606-.508.505-.914-.707-4.976-3.738-9.546-3.637-14.624.202-1.016-1.313-1.016-1.414 0zM40.716 57.785c2.121-4.469 3.637-9.242 4.142-14.218.101-1.016-1.414-1.016-1.515 0-.404 4.671-1.92 9.241-3.94 13.405-.405.914.909 1.625 1.313.813zM23.742 7.21c-2.223.711-4.244 2.133-6.567 2.438-1.617.203-3.132-.305-4.547-1.016-.707-.508-1.515.71-.606 1.219 1.313.71 2.728 1.218 4.243 1.32 1.213 0 2.425-.203 3.537-.711 2.222-.812 4.243-2.234 6.668-2.133 1.818 0 3.536.914 5.051 1.828.808.508 1.515-.812.808-1.32-2.627-1.726-5.556-2.539-8.587-1.625z"/><path d="M49 10.054c.101 3.351-.707 6.804-1.717 9.952-.202.813-1.213 3.86-1.617 4.468-.606.915-1.616 1.32-2.627 1.32-.404 0-15.053-.1-18.185-.1v2.335c0 .406-.303.812-.808.812-.506 0-.809-.304-.809-.812v-2.336c-3.637 0-15.154-.101-17.276-.101-.91 0-1.819-.102-2.526-.711-1.111-.914-1.414-2.54-1.818-3.86-.505-1.523-.809-2.944-1.112-4.468-.909-4.57-1.313-12.186 4.042-14.217 1.92-.711 4.142-.508 6.163 0 1.11.304 2.222.609 3.232 1.015C16.166 1.523 18.692.203 21.622 0c2.728-.102 5.354.812 7.78 1.93.909.406.1 1.726-.81 1.32-2.12-1.016-4.444-1.828-6.87-1.727-2.323.102-4.445 1.117-6.263 2.64.404.204.91.407 1.313.61.91.406.101 1.726-.808 1.32a27.405 27.405 0 00-2.526-1.117c-3.03-1.219-8.082-2.742-10.507.508-1.515 2.132-1.616 5.18-1.515 7.616.202 2.946.909 5.89 1.818 8.633.404 1.117.707 2.437 2.02 2.538.102 0 37.483.203 37.887.102.708-.102 1.112-.61 1.314-1.219.202-.71 1.616-5.077 2.02-6.6.708-3.047 1.112-6.297.405-9.344-.405-1.828-1.415-3.554-3.233-4.163-1.718-.61-3.638-.305-5.355.101a25.395 25.395 0 00-5.456 2.133c-.909.406-1.616-.914-.808-1.32l2.728-1.22c3.536-1.42 8.587-2.741 11.618.204C48.495 4.671 49 7.515 49 10.054zM24.146 37.169a.799.799 0 00.808-.813v-3.25c0-.406-.303-.812-.808-.812-.505 0-.808.305-.808.813v3.25c0 .406.404.812.808.812zM23.338 46.309c0 .406.303.812.808.812.505 0 .808-.305.808-.812v-4.976c0-.407-.303-.813-.808-.813-.505 0-.808.305-.808.813v4.976zM23.64 53.925c.203.203.304.203.506.203a.77.77 0 00.505-.203l4.345-4.366a.8.8 0 000-1.118.79.79 0 00-1.112 0l-3.03 3.047v-1.93c0-.406-.304-.812-.809-.812-.505 0-.808.305-.808.813v1.929l-3.031-3.047a.79.79 0 00-1.111 0 .8.8 0 000 1.117l4.546 4.367z"/></g><defs><clipPath id="iclip0_10_18797"><path d="M0 0h49v98H0z"/></clipPath></defs></svg><svg viewBox="0 0 84 99" id="price-6" xmlns="http://www.w3.org/2000/svg"><g clip-path="url(#jclip0_10_18546)"><path d="M77.272 40.923c-.692 2.79-1.484 5.58-2.473 8.267-.89 2.48-2.276 4.857-2.672 7.44-.395 2.894-.197 5.787-.197 8.784.098 2.894.098 5.787.098 8.681-.098 5.064-.791 10.334-2.869 14.984-.494 1.137-1.187 2.274-1.78 3.307-.594.827-1.287 2.067-2.375 2.274-.396.103-.99 0-1.286-.517-.198-.413-.1-1.033-.198-1.447 0-1.447-.1-2.893-.1-4.34-.098-5.684-.098-11.78-2.968-16.948.396-.723.792-1.343 1.188-1.86.198-.31.198-.827-.1-1.137-.296-.31-.79-.206-1.087.104-1.781 2.48-4.057 7.233-4.453 15.707-.297 7.544-1.682 12.608-3.66 13.125-.297.103-.594 0-.99-.207-1.979-1.344-3.958-7.027-4.551-12.918-.594-4.547-.792-8.887-.594-11.677.198-2.17-.198-3.617-.198-3.72-.099-.414-.494-.724-.89-.62-.396.103-.693.516-.594.93 0 0 .198 1.136.198 2.686-5.244 4.134-4.848 11.678-5.145 17.878-.099 1.344-.099 2.894-.495 4.237-.197.62-.692 1.24-1.385 1.034-.692-.207-1.187-1.137-1.583-1.654-1.978-2.79-3.166-6.303-4.056-9.61-.396-1.55-.693-2.997-.99-4.547-.198-1.344-.494-2.687-.593-4.03-.198-4.134.593-8.268.89-12.298.198-2.067.198-4.134-.198-6.2-.297-2.17-1.187-3.928-2.077-5.89-1.682-3.825-2.77-7.855-3.463-11.885-.594-3.204-.99-6.614-.396-9.817.495-2.377 1.583-4.754 3.957-5.58.594-.207 1.287-.31 1.98-.414.989 0 .989-1.55 0-1.55-2.771.103-5.245 1.55-6.432 4.133-1.286 2.894-1.385 6.304-1.088 9.404.297 3.824 1.187 7.75 2.276 11.471.692 2.377 1.78 4.65 2.77 6.924.89 1.86 1.187 4.03 1.187 6.097.099 4.34-.791 8.68-.99 13.02-.197 3.308.396 6.511 1.089 9.612.792 3.513 1.88 7.13 3.66 10.334.397.826.891 1.55 1.485 2.273.594.723 1.088 1.447 1.979 1.757 1.78.62 3.067-.93 3.463-2.584.593-3.1.395-6.407.593-9.61.198-3.204.594-6.82 2.573-9.404.198-.31.494-.62.791-.827-.099 2.894.198 6.614.693 10.437.593 5.477 2.473 12.091 5.145 14.055a2.796 2.796 0 001.583.516c.198 0 .395 0 .593-.103 3.463-.93 4.453-8.37 4.75-14.468.197-5.063 1.088-8.68 2.176-11.264a22.222 22.222 0 011.781 6.2c.396 2.894.495 5.891.495 8.785 0 1.55.099 2.996.099 4.547 0 1.033 0 2.17.89 2.893.89.827 2.276.724 3.265.207.99-.517 1.682-1.55 2.375-2.48 6.43-9.714 4.749-21.909 4.848-32.966 0-1.653 0-3.307.396-4.96.395-1.55 1.187-2.997 1.78-4.444 1.188-3.1 2.177-6.407 2.969-9.61.593-1.137-.89-1.55-1.089-.517z"/><path d="M30.672 39.683c-.198 6.407 3.463 11.884 4.254 18.084 0 .414.594.62.89.517.396-.103.594-.517.495-.93-.791-5.994-4.353-11.47-4.155-17.671.099-.93-1.385-.93-1.484 0zM70.544 50.74c1.088-2.377 1.979-4.754 2.77-7.234.297-.93-1.187-1.343-1.385-.413-.692 2.377-1.583 4.65-2.572 6.82-.198.414-.1.827.297 1.034.198.31.791.206.89-.207zM84.001 27.695c0-2.067-1.385-3.72-3.265-4.133 0-1.964-1.286-3.617-3.067-4.03-.396-.93-1.187-1.654-2.177-2.067-.395-.104-.791.103-.989.516-.099.414.099.827.396 1.034.692.206 1.187.826 1.484 1.55.099.31.297.516.594.516 1.286.104 2.176 1.24 2.176 2.584v.413c-.099.207 0 .517.198.62.198.104.396.31.594.31a2.588 2.588 0 012.572 2.584c0 1.137-.692 2.17-1.78 2.48-.199.103-.396.207-.495.517-.1.206 0 .516.099.723.296.413.395.93.395 1.447 0 1.447-1.088 2.583-2.473 2.583-.594 0-1.188-.206-1.583-.62a.867.867 0 00-.99 0c-.692.62-1.583.827-2.572.414-.198-.104-.396-.104-.594.103-.198.103-.297.31-.395.517-.198 1.24-1.287 2.273-2.474 2.273a2.588 2.588 0 01-2.572-2.583c0-.207 0-.517.099-.724.098-.413-.1-.826-.396-.93-.297-.206-.792 0-.89.31-.495.827-1.287 1.24-2.177 1.24-.594 0-1.188-.206-1.583-.62-.198-.206-.495-.206-.693-.206-.198 0-.396.31-.495.516a2.452 2.452 0 01-2.374 1.86 2.452 2.452 0 01-2.375-1.86 1.22 1.22 0 00-.494-.516c-.198-.104-.495 0-.693.103-.89.827-2.375.723-3.265-.103-.297-.31-.693-.31-.99 0-.494.413-1.088.723-1.681.723-1.386 0-2.474-1.137-2.474-2.687 0-.413-.198-.723-.594-.723-1.187-.207-2.077-1.344-1.979-2.584 0-.31-.197-.62-.494-.723a.747.747 0 00-.792.207c-.494.516-1.286.826-1.979.826-.692 0-1.286-.31-1.78-.93-.495-.516-.693-1.24-.594-1.963 0-.517.198-1.034.594-1.55.197-.207.197-.414.197-.62 0-.207-.197-.414-.395-.517a3.125 3.125 0 01-1.682-2.79c0-1.654 1.286-2.997 2.869-2.997h.495c.395.103.791-.207.89-.62.297-1.447 1.484-2.48 2.87-2.48.692 0 1.385.206 1.88.723.296.31.79.207 1.088 0 .296-.31.198-.827 0-1.137-.792-.723-1.781-1.136-2.87-1.136-1.88 0-3.462 1.24-4.155 2.997-2.474 0-4.452 2.066-4.452 4.546 0 1.447.692 2.894 1.78 3.72-.296.517-.395 1.137-.494 1.654-.396 1.447-.1 2.48.593 3.307a4.104 4.104 0 002.77 1.447c.792 0 1.485-.104 2.078-.414.1.414.297.724.594 1.034-2.671.206-5.441-.104-8.014-1.137-.396-.207-.792 0-.99.413-.197.414 0 .827.396 1.034 2.177.93 4.552 1.343 6.926 1.343.99 0 1.979-.103 2.87-.206.098 0 .098 0 .197-.104.1.104.198.104.396.207.198 2.067 1.979 3.617 3.958 3.617.791 0 1.583-.207 2.176-.724 1.089.827 2.672.93 3.859.31.693 1.24 1.979 2.067 3.463 2.067 1.385 0 2.77-.826 3.463-2.066 1.187.62 2.671.516 3.76-.104.395 1.86 1.978 3.307 3.858 3.307 1.682 0 3.166-1.137 3.76-2.79.99.206 1.979 0 2.77-.517.594.413 1.385.62 2.078.62 2.177 0 3.958-1.86 3.958-4.133 0-.517-.1-1.034-.297-1.55 1.583-.827 2.374-2.17 2.374-3.72z"/><path d="M52.735 21.185c-.99.206-1.88.723-2.671 1.55a.837.837 0 000 1.137c.296.31.791.31 1.088 0 2.374-2.377 5.837-1.034 8.904.103 2.573 1.033 4.849 1.137 7.223 1.137h2.276c1.187 0 2.473-.104 3.76 0 .395 0 .791-.31.791-.724 0-.413-.297-.826-.693-.826H71.83l1.089-8.888.494-3.823c0-.207 0-.414-.197-.62a.541.541 0 00-.495-.31L1.286 0C.89-.103.594.207.495.62L0 4.547c0 .207 0 .413.099.62.099.207.297.31.495.31l53.13 7.44-.989 8.268zm11.774 2.273c-.495 0-.99-.103-1.484-.206l1.088-8.681v-.31l1.583.207-1.187 8.99zm-4.75-9.817l-1.088 8.267c-.494-.207-.989-.31-1.484-.413l.99-7.957 1.583.103zm-5.54 7.337l.99-7.957 1.484.207-.99 7.853c-.495-.103-.99-.103-1.484-.103zm5.837 1.447l1.089-8.577 1.583.206c-.099.104-.099.207-.099.31l-1.088 8.578c-.396-.104-.792-.207-1.188-.414-.099-.103-.197-.103-.297-.103zm5.937 1.137l1.187-8.888 1.583.207-1.088 8.68c-.594.104-1.187.104-1.682 0zm3.364 0h-.297l1.088-8.474 1.089.103-1.089 8.267c-.197.104-.494.104-.791.104zM1.88 1.653l69.852 9.714-.297 2.274L1.583 3.927l.297-2.274z"/></g><defs><clipPath id="jclip0_10_18546"><path d="M0 0h84v99H0z"/></clipPath></defs></svg><svg viewBox="0 0 61 99" id="price-7" xmlns="http://www.w3.org/2000/svg"><g clip-path="url(#kclip0_10_18735)"><path d="M28.647 12.388c-.4 0-.801.304-.801.812s.3.812.801.812c.5 0 .801-.304.801-.812s-.4-.812-.801-.812zM56.594 71.585c.4 0 .801-.305.801-.813 0-.507-.4-.71-.801-.71-.4 0-.701.304-.701.812s.3.71.7.71zM55.39 77.677c.401 0 .802-.305.802-.812 0-.508-.4-.711-.801-.711s-.701.304-.701.812.3.71.7.71zM55.891 83.668c-.4 0-.801.304-.801.812s.3.812.801.812c.501 0 .802-.304.802-.812s-.301-.812-.802-.812zM51.985 86.917c-.4 0-.801.305-.801.812 0 .508.3.813.8.813.502 0 .802-.305.802-.813 0-.507-.4-.812-.801-.812zM55.891 92.705c-.4 0-.801.304-.801.812s.3.812.801.812c.501 0 .802-.304.802-.812s-.301-.812-.802-.812zM48.28 90.775c-.4 0-.802.305-.802.813 0 .507.301.812.802.812.5 0 .801-.305.801-.812 0-.508-.3-.813-.801-.813zM46.877 94.939c-.4 0-.8.304-.8.812 0 .507.3.812.8.812.501 0 .802-.305.802-.812 0-.508-.4-.813-.802-.813zM42.37 91.283c-.401 0-.802.305-.802.812 0 .508.3.813.802.813.5 0 .801-.305.801-.813 0-.507-.4-.812-.801-.812zM37.561 94.228c-.4 0-.801.304-.801.812s.3.812.801.812c.5 0 .801-.304.801-.812s-.4-.812-.8-.812zM27.846 94.837c-.4 0-.801.304-.801.812s.3.813.801.813c.501 0 .802-.305.802-.813s-.401-.812-.802-.812zM23.14 93.314c-.402 0-.802.305-.802.812 0 .508.3.813.801.813.501 0 .802-.305.802-.813s-.401-.812-.802-.812zM16.227 93.01c-.4 0-.801.304-.801.812 0 .507.3.812.801.812.5 0 .801-.305.801-.812 0-.508-.4-.813-.8-.813zM10.717 90.065c-.4 0-.801.304-.801.812s.3.812.801.812c.501 0 .802-.304.802-.812s-.401-.812-.802-.812zM7.311 82.45c-.4 0-.801.304-.801.811 0 .508.3.813.801.813.5 0 .701-.406.701-.813 0-.406-.3-.812-.7-.812zM9.917 77.575c0-.406-.301-.812-.802-.812-.4 0-.7.305-.7.812 0 .508.3.813.8.813.501 0 .702-.407.702-.813zM9.816 94.634c-.4 0-.7.305-.7.812 0 .508.3.813.7.813.401 0 .802-.305.802-.813 0-.507-.401-.812-.802-.812zM6.311 88.643c-.4 0-.801.305-.801.812 0 .508.3.813.801.813.5 0 .701-.406.701-.813 0-.406-.3-.812-.7-.812zM4.006 79.302c-.4 0-.8.304-.8.812 0 .507.3.812.8.812.501 0 .802-.305.802-.812 0-.508-.4-.813-.802-.813zM6.811 72.701c-.4 0-.801.407-.801.813 0 .406.3.812.801.812.5 0 .801-.304.801-.812s-.4-.813-.8-.813zM6.71 69.25c.402 0 .802-.305.802-.813s-.3-.812-.801-.812c-.4 0-.701.304-.701.812s.3.812.7.812zM3.305 92.908c-.4 0-.801.304-.801.812s.4.71.801.71c.4 0 .802-.304.802-.812 0-.507-.301-.71-.802-.71z"/><path d="M60.299 62.852h-9.916v-.203c0-2.234-.1-4.569.2-6.904.3-2.133 1.502-4.062 2.203-5.991.702-1.828 1.303-3.655 1.904-5.483 1.102-3.554 2.103-7.311 2.103-10.966.1-2.945-.5-6.093-2.905-8.022-1.803-1.422-4.207-1.93-6.41-1.828-1.703.102-3.306.61-4.908 1.219-1.202-2.945-4.407-8.022-7.012-10.56.802-.71 1.603-1.422 2.504-2.133 4.007-3.553 8.114-7.107 11.119-10.763 0-.203 0-.507-.1-.812C48.98.203 48.68 0 48.379 0H30.75c-.3 0-.6.203-.7.508-.401 1.015-.902 2.132-1.403 3.249-.601-1.219-1.102-2.234-1.402-3.25-.2-.304-.501-.507-.802-.507H8.814c-.3 0-.6.203-.7.406-.1.203-.1.61.1.812 3.004 3.554 7.111 7.108 11.018 10.662l2.704 2.437c-5.008 7.615-8.815 15.434-1.102 23.05.2.202.601.405.902.405.2 0 .5-.101.7-.203.502-.406.702-1.117.401-1.726-.901-2.03-.901-4.062-.2-6.194.1.102.3.102.5 0 2.204-.812 4.208-2.03 6.411-2.538 3.005-.711 5.81.406 8.214 2.132.801.508 1.602-.812.801-1.32-2.704-1.828-5.71-2.944-9.015-2.335-2.203.406-4.206 1.523-6.31 2.437 1.102-2.437 3.005-4.874 5.309-7.311.901 1.015 2.404 2.538 2.905 3.148.2.203.3.203.6.203.2 0 .401-.102.501-.204.3-.304.3-.812.1-1.116-.5-.61-2.003-2.234-3.004-3.25a97.436 97.436 0 014.607-4.366c2.504 2.336 5.71 7.311 6.811 10.053-.7.304-1.502.609-2.203 1.015-.902.406-.1 1.726.801 1.32a46.778 46.778 0 015.209-2.132c.3-.102.7-.204 1.001-.305h.601c1.803-.203 3.606-.101 5.309.61 2.504 1.116 3.506 3.553 3.706 6.193.2 3.35-.601 6.803-1.502 10.052-.902 3.046-1.904 6.093-3.206 9.037-2.203-.913-3.405-3.35-4.808-6.295-1.202-2.64-2.504-5.28-4.707-7.21-.802-.608-1.703-1.116-2.505-1.624-2.504-1.422-4.807-2.742-4.707-7.31 0-.407-.3-.813-.701-.813-.401 0-.701.305-.802.71-.1 5.585 2.905 7.21 5.51 8.733.8.508 1.602.914 2.303 1.523 2.004 1.726 3.205 4.265 4.407 6.702 1.403 3.046 2.805 5.889 5.61 7.006 0 .101-.1.203-.1.203-.802 1.828-1.002 3.757-1.102 5.686v4.57H11.619c.2-1.727.3-3.352.2-5.078.1 0 .2-.101.2-.203 3.807-5.077 3.506-9.138 2.605-11.677-1.603-4.467-6.01-7.107-8.414-7.717-.1-1.015-.2-1.929-.3-2.944-.1-2.336 0-4.976 1.202-7.108 1.202-2.03 3.405-2.538 5.609-2.437.801 0 1.502.203 2.304.406.901.204 1.302-1.218.4-1.523-2.704-.609-5.81-.812-8.013 1.016-1.903 1.523-2.604 4.061-2.905 6.498-.3 3.046.2 6.194.802 9.139.4 1.726.801 3.35 1.302 4.975.701 2.335 1.703 4.468 2.704 6.6 1.403 3.046 1.202 6.6.902 9.95H.8c-.4 0-.801.305-.801.813v34.625c0 .406.3.812.801.812H60.3c.4 0 .801-.305.801-.812V63.665c-.1-.407-.4-.813-.801-.813zM20.233 10.763c-3.405-3.046-6.911-6.092-9.716-9.24h15.425c.401 1.219 1.002 2.437 1.803 3.757-1.201 2.03-2.504 4.163-3.906 6.092-.3.508-.701 1.016-1.002 1.523-.901-.609-1.802-1.421-2.604-2.132zm7.813 8.225c-5.309 5.483-8.814 10.966-7.011 16.449-6.511-7.412-1.403-15.028 4.006-23.15 2.404-3.555 4.808-7.21 6.21-10.764h15.425c-2.804 3.148-6.41 6.295-9.816 9.342-3.105 2.64-6.11 5.381-8.814 8.123zM9.716 50.363c-.902-1.93-1.603-3.96-2.204-5.99-.4-1.524-.801-3.047-1.001-4.57 2.303.812 5.509 3.148 6.71 6.6 1.002 2.843.401 5.99-1.702 9.24-.2-1.93-1.002-3.554-1.803-5.28zM48.88 64.375v.61c.2 7.818.2 16.144-4.407 22.744-.4.61-.902 1.32-1.603 1.726-.7.305-1.502.204-1.602-.71-.1-.914-.1-1.93-.1-2.945 0-1.117 0-2.132-.1-3.148-.1-3.96-.201-8.224-1.703-11.88l-.902-1.827c.3-.61.701-1.219 1.002-1.625.2-.305.2-.812-.1-1.117-.301-.203-.802-.203-1.002.102-1.703 2.233-3.806 6.498-4.107 14.113-.3 6.6-1.602 11.17-3.305 11.677-.1 0-.4.102-.802-.203-1.803-1.218-3.605-6.295-4.106-11.474-.501-4.061-.802-7.92-.501-10.458.2-1.93-.1-3.25-.2-3.35-.1-.407-.501-.712-.902-.61-.4.102-.701.508-.6.914 0 0 .2.914.1 2.335-5.21 3.96-4.408 11.373-4.809 17.262 0 .609-.1 1.218-.2 1.929-.1.61-.2 1.422-1.002 1.523-.7.102-1.202-.71-1.502-1.218-.5-.61-1.002-1.32-1.402-2.133-1.603-2.944-2.505-6.194-3.206-9.443-.2-1.218-.5-2.437-.7-3.655-.301-1.828-.201-3.757 0-5.585.1-1.218.3-2.437.4-3.655H48.88v.101zm10.617 33.102H1.503V64.375h8.414c0 .305-.1.61-.1.914-.2 2.031-.5 4.163-.5 6.194 0 1.523.3 2.945.5 4.366.601 3.351 1.402 6.6 2.805 9.748a21.05 21.05 0 002.704 4.57c.5.608 1.102 1.218 2.003 1.32.802.1 1.603-.305 2.104-.915.901-1.117.901-2.944 1.002-4.366.1-1.624.1-3.25.2-4.874.1-3.147.4-6.6 2.304-9.24.2-.304.5-.609.7-.812 0 2.538.201 5.788.602 9.138.5 4.773 2.203 10.763 4.808 12.591.6.406 1.101.508 1.502.508.2 0 .4 0 .601-.102.3-.101.5-.203.701-.304v.101c0 .406.3.813.802.813.5 0 .8-.305.8-.813a.69.69 0 00-.7-.71c2.003-2.234 2.704-7.514 2.904-12.084.2-4.366 1.002-7.615 2.004-9.849 1.602 3.351 1.803 7.108 2.003 10.763.1 2.234.1 4.57.2 6.803 0 .711 0 1.523.501 2.133.601.71 1.603 1.015 2.504.812 1.803-.305 2.905-2.234 3.806-3.655a26.72 26.72 0 002.404-5.483c1.202-3.96 1.503-8.123 1.603-12.287 0-1.827 0-3.553-.1-5.381h9.115l-.2 33.203z"/><path d="M15.526 29.65c-.1 0-.2-.102-.3-.102h-.3c-.101 0-.201.101-.301.101-.1 0-.2.102-.2.203 0 .102 0 .102-.1.203v.407c0 .101 0 .101.1.203l.3.304c.1 0 .2.102.3.102h.3c.101 0 .201-.102.301-.102.1 0 .2-.101.2-.203 0-.101 0-.101.1-.203v-.406c0-.102 0-.102-.1-.203 0-.102-.1-.203-.3-.305.1 0 .1 0 0 0zM51.885 82.55c.4 0 .801-.304.801-.811 0-.508-.3-.813-.801-.813-.4 0-.701.305-.701.813 0 .507.3.812.7.812zM52.385 68.437c.4 0 .801-.305.801-.812 0-.508-.3-.813-.801-.813-.4 0-.701.305-.701.813 0 .507.2.812.7.812zM50.182 36.25c-.4 0-.801.304-.801.812 0 .507.3.812.801.812.501 0 .801-.305.801-.812 0-.508-.4-.813-.8-.813zM44.672 34.218c0-.406-.3-.812-.8-.812-.402 0-.702.305-.702.812 0 .508.3.813.801.813.501 0 .701-.305.701-.813zM42.971 28.43c0-.405-.3-.811-.801-.811-.4 0-.701.304-.701.812s.3.812.801.812c.5 0 .701-.406.701-.812zM54.59 35.03c0-.405-.3-.812-.801-.812-.4 0-.701.305-.701.813s.3.812.801.812c.501 0 .701-.406.701-.812zM48.98 42.646c0 .406.301.813.802.813.5 0 .801-.305.801-.813s-.3-.812-.801-.812c-.501.101-.801.406-.801.812zM50.283 45.692c-.4 0-.701.305-.701.813 0 .507.3.812.801.812.501 0 .802-.305.802-.812 0-.508-.401-.813-.902-.813zM46.276 39.092c0-.406-.3-.812-.801-.812-.401 0-.702.305-.702.812 0 .508.3.813.802.813.5 0 .7-.407.7-.813zM39.764 33.203c0-.406-.3-.812-.801-.812-.4 0-.701.304-.701.812s.3.812.801.812c.5 0 .701-.406.701-.812zM45.975 78.083c.4 0 .8-.305.8-.812 0-.508-.3-.813-.8-.813-.401 0-.702.305-.702.813 0 .507.3.812.702.812zM43.672 73.21c.4 0 .801-.305.801-.813s-.3-.812-.801-.812c-.4 0-.701.304-.701.812s.3.812.7.812zM47.277 68.945c.401 0 .802-.305.802-.813 0-.507-.3-.812-.802-.812-.4 0-.7.305-.7.812 0 .508.2.813.7.813zM32.853 70.061c.401 0 .802-.304.802-.812 0-.507-.3-.812-.802-.812-.4 0-.7.305-.7.812 0 .508.3.813.7.813zM28.446 71.686c-.4 0-.802.305-.802.813 0 .507.301.812.802.812.5 0 .801-.305.801-.813 0-.507-.4-.812-.801-.812zM31.252 77.677c.4 0 .801-.305.801-.812 0-.508-.3-.711-.801-.711-.4 0-.701.304-.701.812s.3.71.7.71zM30.35 81.637c.4 0 .8-.305.8-.812 0-.508-.3-.813-.8-.813-.401 0-.702.305-.702.813 0 .507.3.812.702.812zM16.326 78.895c.4 0 .802-.304.802-.812s-.301-.812-.802-.812c-.4 0-.701.304-.701.812s.3.812.701.812zM13.822 74.326c.4 0 .802-.304.802-.812s-.3-.813-.802-.813c-.4 0-.7.305-.7.813s.3.812.7.812zM18.13 70.772c.402 0 .802-.304.802-.812s-.3-.812-.801-.812c-.4 0-.701.304-.701.812s.2.812.7.812zM13.922 68.132c.4 0 .801-.304.801-.812s-.3-.812-.801-.812c-.4 0-.701.304-.701.812s.3.812.7.812zM43.47 82.652c.401 0 .802-.304.802-.812s-.3-.812-.801-.812c-.401 0-.701.304-.701.812s.3.812.7.812zM30.15 86.003c.401 0 .802-.305.802-.812 0-.508-.3-.813-.802-.813-.4 0-.7.305-.7.813 0 .507.3.812.7.812zM28.246 67.117c.4 0 .801-.305.801-.812 0-.508-.3-.813-.8-.813-.402 0-.702.305-.702.813 0 .507.3.812.701.812zM16.526 82.246c-.4 0-.801.305-.801.812 0 .508.3.813.8.813.502 0 .802-.305.802-.813 0-.507-.3-.812-.801-.812zM20.734 66.914c.401 0 .802-.305.802-.813 0-.507-.3-.812-.802-.812-.4 0-.7.305-.7.813 0 .507.3.812.7.812zM8.616 42.748c-.4 0-.802.304-.802.812s.301.812.802.812c.5 0 .801-.304.801-.812s-.4-.812-.801-.812zM12.22 45.895c0-.406-.301-.812-.802-.812-.4 0-.701.305-.701.812 0 .508.3.813.7.813.402 0 .802-.407.802-.813zM11.719 50.566c.4 0 .801-.305.801-.812 0-.508-.3-.813-.801-.813-.4 0-.701.305-.701.813s.3.812.7.812z"/></g><defs><clipPath id="kclip0_10_18735"><path d="M0 0h61v99H0z"/></clipPath></defs></svg><svg viewBox="0 0 66 100" id="price-8" xmlns="http://www.w3.org/2000/svg"><g clip-path="url(#lclip0_10_17328)"><path d="M21.699 64.096c-.402.202-.503.608-.302 1.014 1.608 3.144 4.42 5.782 8.439 8.013.1.102.2.102.301.102.301 0 .502-.102.703-.406.201-.406.1-.812-.301-1.014-3.818-2.13-6.329-4.464-7.836-7.405-.2-.406-.703-.507-1.004-.304z"/><path d="M65.299 19.667h-30.94a.796.796 0 00-.804.812v3.652h-1.608c-1.808 0-3.315 1.521-3.315 3.347v3.651h-.1l-1.507 1.015c-2.31 1.521-3.617 4.057-3.617 6.796 0 .406.302.811.804.811s.804-.304.804-.811c0-2.13 1.105-4.26 3.013-5.477l.704-.508v3.55c0 .913.301 1.725 1.004 2.334l3.315 3.347c.302.304.503.811.503 1.319v17.04a4.438 4.438 0 00-3.617 4.362c0 2.13 1.607 4.058 3.617 4.362v5.173c0 1.724 1.105 3.043 2.712 3.449-.502.203-1.005.405-1.306.71-2.411 1.42-2.31 4.26-2.21 4.564v11.97c-7.936-3.246-21.096-8.724-23.708-9.94-1.708-.812-2.612-1.725-2.612-2.334s.804-1.217 1.608-1.724v.101c0 .406.401.71.803.71s.703-.406.703-.811c0-.102-.502-13.897 0-18.36.402-4.26-2.009-11.97-4.42-17.345-2.712-4.97-3.817-10.55-3.616-15.824.603-13.897 9.342-19.374 9.543-19.475 19.69-14.708 38.676-5.68 38.877-5.58 6.128 2.942 9.242 7 9.342 11.869 0 .405.402.811.804.71.402 0 .703-.406.703-.812-.1-5.477-3.616-9.94-10.246-13.186-.201-.102-19.991-9.535-40.384 5.68C9.746 9.118.605 14.799.002 29.608c-.2 5.579 1.005 11.26 3.516 16.737 2.411 5.274 4.721 12.679 4.32 16.432-.402 3.652-.201 12.78-.1 16.737-.905.406-3.015 1.521-3.015 3.246 0 .507.101.912.402 1.42l-3.013 6.289c-.201.405 0 .811.401 1.014h.302c.301 0 .502-.203.703-.406l2.712-5.68c.503.406 1.206.811 2.01 1.217 3.817 1.826 28.931 12.07 29.936 12.477.1 0 .2.101.3.101a.756.756 0 00.704-.507c.201-.406 0-.812-.402-1.014-.1 0-1.908-.812-4.62-1.928V83.165c0-.101-.202-2.231 1.506-3.246 1.105-.608 2.712-1.217 4.722-1.825h5.525v1.014a1.81 1.81 0 001.808 1.826h6.53a1.81 1.81 0 001.808-1.826v-2.942c0-.912-.703-1.724-1.608-1.724.603-1.116 1.106-2.434 1.206-5.072a.69.69 0 00.703-.71v-4.666c1.105-.304 2.411-.608 2.612-.608.201 0 .402-.203.603-.406.2-.203.1-.507 0-.71-.402-.71-.302-2.536-.201-3.55 1.808-.102 3.315-1.015 3.415-1.015 1.306-.71 1.809-1.724 1.91-2.333.3-1.115-.101-2.333-.905-3.246-.603-.608-1.507-1.825-2.612-3.55-1.105-1.724-1.708-3.651-1.708-5.579 0-1.115.201-2.231.603-3.347.301-.913 2.01-8.115 2.31-9.535H65.4a.796.796 0 00.804-.811v-8.825c-.201-.406-.502-.812-.904-.812zm-34.055 45.24c0-1.623 1.306-2.941 2.913-2.941 1.608 0 2.914 1.318 2.914 2.941 0 1.623-1.306 2.942-2.914 2.942-1.607 0-2.913-1.319-2.913-2.942zm5.827 11.665c-1.206 0-2.11-.913-2.11-2.13v-5.173c1.808-.304 3.315-1.826 3.616-3.652H50.23v2.942c0 .406.302.811.804.811h3.215c-.1 2.435-.603 3.55-1.206 4.666-.1.102-.1.305-.2.406h-5.225a1.81 1.81 0 00-1.808 1.826v.406l-8.74-.102zm17.68-8.723h-3.114v-5.883h3.114v5.883zm-.201 8.317v2.942c0 .101-.1.203-.2.203h-6.732c-.1 0-.2-.102-.2-.203v-2.942c0-.101.1-.203.2-.203h6.63c.202 0 .302.102.302.203zm4.018-37.125c-.402 1.218-.703 2.536-.703 3.855 0 2.231.703 4.463 1.909 6.492.803 1.217 1.908 2.84 2.712 3.753.502.507.703 1.217.502 1.826-.1.608-.502 1.014-1.205 1.42 0 0-2.512 1.521-4.621.405-.402-.202-.804-.101-1.005.305-.2.405-.1.811.302 1.014.401.203.803.406 1.205.507-.1.507-.2 2.232.1 3.449-.502.101-1.004.304-1.506.406v-1.218c0-.405-.302-.81-.804-.81h-4.62a.796.796 0 00-.805.81v2.84H38.577c-.301-1.825-1.808-3.347-3.616-3.65v-16.94c0-.913-.301-1.725-1.005-2.334l-3.315-3.448c-.301-.305-.502-.812-.502-1.319v-8.926a1.81 1.81 0 011.808-1.826h1.608v3.652c0 .405.3.811.803.811h26.42c-.401 1.623-1.908 8.216-2.21 8.926zm5.927-10.549H35.061v-2.84h4.621a.796.796 0 00.804-.811c0-.508-.301-.812-.804-.812h-4.62v-2.84h29.433v7.303z"/><path d="M43.4 36.303c.201 0 .402-.102.503-.203a7.951 7.951 0 0111.15 0 .783.783 0 001.105 0 .802.802 0 000-1.116c-3.616-3.652-9.644-3.652-13.26 0a.801.801 0 000 1.116c.1.203.301.203.502.203zM54.552 41.273c.1-2.029-1.306-3.956-3.416-4.26a3.879 3.879 0 00-3.013.71c-.703.507-1.206 1.116-1.407 1.927-.1 0-.1-.101-.2-.101-.302-.203-.804-.102-1.005.203-.201.304-.1.811.2 1.014 2.11 1.319 4.42 2.029 6.731 2.029.603 0 1.206 0 1.809-.102.401-.101.703-.507.602-.913 0-.203-.2-.406-.301-.507zm-6.53-.913c.201-.507.503-1.014 1.005-1.319.602-.405 1.205-.507 1.908-.405.704.101 1.306.507 1.708 1.014.302.507.502 1.116.502 1.724-1.808 0-3.516-.304-5.123-1.014z"/></g><defs><clipPath id="lclip0_10_17328"><path transform="translate(0 .192)" d="M0 0h66v99H0z"/></clipPath></defs></svg><svg viewBox="0 0 99 87" id="price-9" xmlns="http://www.w3.org/2000/svg"><g clip-path="url(#mclip0_10_18723)"><path d="M85.73 85.456H69.767V62.084a.815.815 0 00-.83-.824c-.518 0-.829.31-.829.824v23.372h-10.78v-4.633a2.888 2.888 0 00-2.903-2.883h-7.672V58.378h7.672c1.555 0 2.902-1.236 2.902-2.883v-.721l17.001 5.354c.311.103.519.103.83.103.518 0 1.036-.206 1.451-.515.726-.515 1.037-1.236 1.037-2.06 0-.926-.519-1.852-1.452-2.264L50.277 42.83a15.056 15.056 0 00-6.427-1.442H16.897v-1.647c0-1.133-.207-2.368-.622-3.398l-.415-1.132c1.037-1.03 1.348-2.574.933-4.016l-4.768-13.384a3.479 3.479 0 00-2.074-2.265c-.932-.412-2.073-.515-3.006-.206l-2.799 1.03-.83-3.604 1.97-.412a3.745 3.745 0 002.592-1.853c.622-.927.83-2.06.519-3.192l-.311-1.647c-.519-2.265-2.8-3.707-5.08-3.089l-1.037.206A2.129 2.129 0 00.414 3.81C.104 4.324 0 5.045.104 5.663c0 0 2.798 11.943 2.902 11.943l6.842 19.46c.518 1.543.414 3.19.207 4.941 0 0 0 .206.104.515 4.561 8.854 5.909 8.751 6.427 8.751h7.153v4.325a2.888 2.888 0 002.902 2.883h7.568v19.562h-7.671c-1.555 0-2.903 1.235-2.903 2.882v4.53H7.36c-.415 0-.83.31-.83.824 0 .515.312.824.83.824h78.37c.415 0 .83-.309.83-.824 0-.514-.415-.823-.83-.823zM11.61 41.492c.104-1.338.208-2.78-.103-4.118l2.902-1.03c.104 0 .104-.102.207-.102l.208.72c.31.927.518 1.956.518 2.883v1.647H11.61zM1.658 4.633c.208-.206.415-.309.622-.412l1.037-.206c.207-.103.415-.103.622-.103 1.244 0 2.28.824 2.592 2.06l.414 1.647c.208.72 0 1.441-.31 2.06-.415.617-.934 1.029-1.66 1.235l-1.97.412-1.45-5.972c0-.206 0-.515.103-.72zm5.806 12.252c.622-.206 1.244-.206 1.865.103.622.31 1.037.72 1.244 1.339l4.77 13.384c.414 1.236-.208 2.677-1.452 3.089l-2.903 1.03-6.323-17.915 2.799-1.03zm4.665 26.152h31.825c1.97 0 3.939.412 5.701 1.338l25.916 12.561c.311.206.622.515.622.927 0 .309-.207.617-.414.823-.311.206-.622.206-.933.103L46.96 50.038c-.519-.103-.933-.206-1.451-.206H16.586c-.726-.515-2.695-3.706-4.457-6.795zm13.061 12.56v-4.22h20.215c.31 0 .725 0 1.036.102l9.33 2.883v1.236c0 .72-.622 1.235-1.244 1.235h-27.99c-.725.103-1.347-.515-1.347-1.235zm10.574 2.883h9.434v19.563h-9.434V58.48zM25.19 80.823c0-.721.622-1.236 1.244-1.236h27.99c.725 0 1.244.618 1.244 1.236v4.633H25.19v-4.633z"/><path d="M37.215 35.109c0 .412.31.823.83.823h27.574c.415 0 .83-.308.83-.823 0-.515-.312-.824-.83-.824h-1.348V27.8a.815.815 0 00-.829-.824h-1.244v-2.574c0-1.235-1.037-2.265-2.28-2.265h-.415c-.415 0-.83.309-.83.824 0 .515.311.823.83.823h.414c.415 0 .726.31.726.721v2.574h-1.555c-.415 0-.83.309-.83.824v6.59h-3.11c.726-1.34 1.141-2.78 1.141-4.325a.815.815 0 00-.83-.824h-7.774v-6.177c0-.721.622-1.339 1.348-1.339.725 0 1.347.618 1.347 1.339 0 .412.311.823.83.823.518 0 .829-.309.829-.823 0-1.545-1.348-2.883-2.903-2.883s-2.902 1.338-2.902 2.883v6.177H39.91c-.414 0-.83.31-.83.824 0 1.544.416 3.089 1.141 4.324h-2.28c-.415-.103-.726.206-.726.618zm22.702-6.59h2.8v5.766h-2.8V28.52zm-19.281 2.266H54.94a6.527 6.527 0 01-1.45 3.603H42.086a8.546 8.546 0 01-1.451-3.603z"/><path d="M97.134 29.446h-15.86a1.852 1.852 0 00-1.867 1.853v3.09h-9.64V11.736h9.64v1.648c0 1.03.83 1.853 1.866 1.853H92.47a1.852 1.852 0 001.866-1.853V8.649c0-1.03-.83-1.75-1.866-1.75H81.273c-1.036 0-1.866.823-1.866 1.75v1.647H69.248L58.467.206c-.207-.206-.622-.309-.933-.103L42.917 8.752 40.74 6.178a3.74 3.74 0 00-3.11-1.236c-1.14 0-2.384.515-3.42 1.339-.312.308-.415.72-.104 1.03l.83 1.029a5.709 5.709 0 00-.934 1.75c-.207.927 0 1.853.518 2.471l3.732 4.53c.519.618 1.348 1.03 2.281 1.03h.104a3.9 3.9 0 001.866-.515l.829 1.03c.104.103.31.206.518.309h.104c.207 0 .31-.103.518-.206 2.177-1.854 2.8-4.634 1.348-6.384l-2.073-2.47 13.89-8.238 10.575 9.679V46.33c0 .412.31.824.829.824.415 0 .83-.309.83-.824V35.933h9.64v2.574c0 1.03.83 1.853 1.866 1.853h15.86a1.852 1.852 0 001.867-1.853V31.3c-.104-1.03-.933-1.854-1.97-1.854zM81.066 8.65c0-.103.104-.206.207-.206H92.47c.104 0 .207.103.207.206v4.736c0 .103-.103.206-.207.206H81.273c-.103 0-.207-.103-.207-.206V8.649zm-40.326 8.03c-.518 0-.829-.102-1.14-.411l-3.732-4.53a1.422 1.422 0 01-.207-1.133c.103-.309.207-.618.414-.824l5.702 6.795c-.415 0-.726.103-1.037.103zm4.043-3.294c.726.926.415 2.47-.622 3.603l-8.293-9.987c.622-.412 1.244-.617 1.866-.617.83 0 1.451.205 1.866.72l5.183 6.28zm52.662 25.019c0 .103-.104.206-.207.206H81.273c-.103 0-.207-.103-.207-.206v-7.207c0-.103.104-.206.207-.206h15.861c.104 0 .207.103.207.206v7.207h.104z"/></g><defs><clipPath id="mclip0_10_18723"><path d="M0 0h99v87H0z"/></clipPath></defs></svg><svg viewBox="0 0 25 8" id="slider-next" xmlns="http://www.w3.org/2000/svg"><path d="M24.354 4.354a.5.5 0 000-.708L21.172.464a.5.5 0 10-.707.708L23.293 4l-2.828 2.828a.5.5 0 10.707.708l3.182-3.182zM0 4.5h24v-1H0v1z"/></svg><svg viewBox="0 0 25 8" id="slider-prev" xmlns="http://www.w3.org/2000/svg"><path d="M.646 4.354a.5.5 0 010-.708L3.828.464a.5.5 0 11.708.708L1.707 4l2.829 2.828a.5.5 0 11-.708.708L.646 4.354zM25 4.5H1v-1h24v1z"/></svg></svg>