<?xml version="1.0" encoding="utf-8"?><svg viewBox="0 0 25 24" xmlns="http://www.w3.org/2000/svg" xmlns:xlink="http://www.w3.org/1999/xlink"><style>:root>svg{display:none}:root>svg:target{display:block}</style><svg viewBox="0 0 11 11" id="btn-arrow" xmlns="http://www.w3.org/2000/svg"><path d="M10.283 10.783a.5.5 0 00.5-.5v-4.5a.5.5 0 10-1 0v4h-4a.5.5 0 000 1h4.5zM.266.973l9.663 9.663.707-.707L.973.266.266.973z"/></svg><svg viewBox="0 0 18 24" id="play" xmlns="http://www.w3.org/2000/svg"><path d="M18 12L0 23.258V.742L18 12z"/></svg><svg viewBox="0 0 25 8" id="slider-next" xmlns="http://www.w3.org/2000/svg"><path d="M24.354 4.354a.5.5 0 000-.708L21.172.464a.5.5 0 10-.707.708L23.293 4l-2.828 2.828a.5.5 0 10.707.708l3.182-3.182zM0 4.5h24v-1H0v1z"/></svg><svg viewBox="0 0 25 8" id="slider-prev" xmlns="http://www.w3.org/2000/svg"><path d="M.646 4.354a.5.5 0 010-.708L3.828.464a.5.5 0 11.708.708L1.707 4l2.829 2.828a.5.5 0 11-.708.708L.646 4.354zM25 4.5H1v-1h24v1z"/></svg></svg>