<?xml version="1.0" encoding="utf-8"?><svg viewBox="0 0 49 47" xmlns="http://www.w3.org/2000/svg" xmlns:xlink="http://www.w3.org/1999/xlink"><style>:root>svg{display:none}:root>svg:target{display:block}</style><svg viewBox="0 0 11 11" id="btn-arrow" xmlns="http://www.w3.org/2000/svg"><path d="M10.283 10.783a.5.5 0 00.5-.5v-4.5a.5.5 0 10-1 0v4h-4a.5.5 0 000 1h4.5zM.266.973l9.663 9.663.707-.707L.973.266.266.973z"/></svg><svg viewBox="0 0 18 24" id="play" xmlns="http://www.w3.org/2000/svg"><path d="M18 12L0 23.258V.742L18 12z"/></svg><svg viewBox="0 0 25 8" id="slider-next" xmlns="http://www.w3.org/2000/svg"><path d="M24.354 4.354a.5.5 0 000-.708L21.172.464a.5.5 0 10-.707.708L23.293 4l-2.828 2.828a.5.5 0 10.707.708l3.182-3.182zM0 4.5h24v-1H0v1z"/></svg><svg viewBox="0 0 25 8" id="slider-prev" xmlns="http://www.w3.org/2000/svg"><path d="M.646 4.354a.5.5 0 010-.708L3.828.464a.5.5 0 11.708.708L1.707 4l2.829 2.828a.5.5 0 11-.708.708L.646 4.354zM25 4.5H1v-1h24v1z"/></svg><svg viewBox="0 0 49 47" id="whatsapp" xmlns="http://www.w3.org/2000/svg"><path d="M25.005 5h-.01C15.072 5 7 13.073 7 23c0 3.938 1.269 7.587 3.427 10.55l-2.243 6.687 6.918-2.212A17.844 17.844 0 0025.004 41C34.93 41 43 32.925 43 23S34.93 5 25.005 5zm10.473 25.418c-.434 1.227-2.157 2.243-3.532 2.54-.94.2-2.17.36-6.305-1.354-5.29-2.191-8.696-7.567-8.961-7.915-.255-.35-2.138-2.847-2.138-5.43 0-2.583 1.312-3.84 1.84-4.38.435-.444 1.152-.646 1.841-.646.223 0 .423.011.603.02.529.022.794.054 1.143.889.434 1.046 1.492 3.629 1.618 3.895.128.265.256.625.076.974-.169.36-.317.52-.582.826-.266.305-.518.54-.784.868-.242.286-.517.592-.211 1.12.306.518 1.364 2.244 2.92 3.63 2.01 1.789 3.639 2.36 4.221 2.603.435.18.952.137 1.27-.2.402-.434.9-1.155 1.406-1.863.36-.509.814-.572 1.291-.392.486.169 3.058 1.44 3.587 1.703.529.266.877.392 1.005.615.127.223.127 1.269-.308 2.497z"/><path d="M14.827 40.213A19.843 19.843 0 0025.005 43C36.035 43 45 34.029 45 23S36.035 3 25.005 3h-.01C13.966 3 5 11.969 5 23c0 3.997 1.179 7.732 3.213 10.86l-1.926 5.741-1.255 3.743 3.76-1.202 6.035-1.929zm6.76-22.177c.128.266.256.626.076.975l-2.837-5.758c.529.022.794.054 1.143.889l.516 1.25c.468 1.136 1.014 2.459 1.102 2.645zm-3.364-2.803h.033l.319.773c.357.865.785 1.905 1.029 2.481l-.034.039c-.082.095-.16.177-.266.29l-.073.077c-.132.14-.294.316-.467.527l-.007.008c-.095.108-.471.535-.664 1.101a2.657 2.657 0 00-.012 1.683c-.201-.29-.497-.744-.782-1.305-.438-.864-.757-1.807-.757-2.648 0-.93.23-1.557.468-1.98.238-.426.506-.7.768-.967l.002-.002a.49.49 0 01.057-.022c.093-.031.229-.055.386-.055zm1.576 3.702zm14.059 9.444zm-1.756-.159c.677.328 1.36.665 1.685.826-.041.21-.104.45-.194.705a1.144 1.144 0 01-.146.205 2.758 2.758 0 01-.503.425c-.454.306-.991.53-1.418.622-.303.064-.589.121-1.221.021-.598-.095-1.51-.334-2.95-.888.853.101 1.84-.101 2.599-.908l.009-.01c.367-.396.778-.954 1.147-1.47.29.136.637.301.992.472z"/></svg></svg>