<svg width="45" height="64" viewBox="0 0 45 64" fill="none" xmlns="http://www.w3.org/2000/svg">
<g clip-path="url(#clip0_859_61)">
<path d="M22.5 45C34.9264 45 45 34.9264 45 22.5C45 10.0736 34.9264 0 22.5 0C10.0736 0 0 10.0736 0 22.5C0 34.9264 10.0736 45 22.5 45Z" fill="#0F0F0F"/>
<path d="M22.5 29C26.0899 29 29 26.0899 29 22.5C29 18.9101 26.0899 16 22.5 16C18.9101 16 16 18.9101 16 22.5C16 26.0899 18.9101 29 22.5 29Z" fill="#9F694F"/>
<path d="M22 64C24.2091 64 26 62.2091 26 60C26 57.7909 24.2091 56 22 56C19.7909 56 18 57.7909 18 60C18 62.2091 19.7909 64 22 64Z" fill="#0F0F0F"/>
<path d="M21 52C21 52.5523 21.4477 53 22 53C22.5523 53 23 52.5523 23 52H21ZM21 38V52H23V38H21Z" fill="#0F0F0F"/>
</g>
<defs>
<clipPath id="clip0_859_61">
<rect width="45" height="64" fill="white"/>
</clipPath>
</defs>
</svg>
