<svg width="66" height="99" viewBox="0 0 66 99" fill="none" xmlns="http://www.w3.org/2000/svg">
<g clip-path="url(#clip0_10_18533)">
<path d="M21.6987 63.9037C21.2969 64.1065 21.1964 64.5123 21.3973 64.918C23.0046 68.0625 25.8174 70.6998 29.8357 72.9313C29.9361 73.0328 30.0366 73.0328 30.1371 73.0328C30.4384 73.0328 30.6393 72.9313 30.8403 72.627C31.0412 72.2213 30.9407 71.8156 30.5389 71.6127C26.7215 69.4826 24.2101 67.1496 22.7033 64.208C22.5024 63.8022 22.0001 63.7008 21.6987 63.9037Z" fill="#D0B5A9"/>
<path d="M65.2969 19.4754H34.3562C33.9544 19.4754 33.5526 19.7797 33.5526 20.2869V23.9385H31.9453C30.1371 23.9385 28.6302 25.46 28.6302 27.2859V30.9375H28.5298L27.0229 31.9518C24.7124 33.4734 23.4065 36.0092 23.4065 38.748C23.4065 39.1537 23.7078 39.5594 24.2101 39.5594C24.7124 39.5594 25.0138 39.2551 25.0138 38.748C25.0138 36.6178 26.1188 34.4877 28.0275 33.2705L28.7307 32.7633V36.3135C28.7307 37.2264 29.032 38.0379 29.7352 38.6465L33.0503 41.9939C33.3517 42.2982 33.5526 42.8053 33.5526 43.3125V60.3535C31.443 60.7592 29.9362 62.585 29.9362 64.7152C29.9362 66.8453 31.5435 68.7725 33.5526 69.0768V74.25C33.5526 75.9744 34.6576 77.293 36.2649 77.6988C35.7626 77.9016 35.2604 78.1045 34.959 78.4088C32.548 79.8289 32.6485 82.6691 32.7489 82.9734V94.9426C24.8129 91.6967 11.653 86.2193 9.04118 85.0021C7.33341 84.1906 6.4293 83.2777 6.4293 82.6691C6.4293 82.0604 7.23296 81.4518 8.03661 80.9447C8.03661 81.0461 8.03661 81.0461 8.03661 81.0461C8.03661 81.4518 8.43844 81.7561 8.84026 81.7561C9.24209 81.7561 9.54346 81.3504 9.54346 80.9447C9.54346 80.8432 9.04118 67.0482 9.54346 62.585C9.94529 58.3248 7.53433 50.6158 5.12337 45.2397C2.41104 40.2695 1.30602 34.6906 1.50693 29.416C2.10967 15.5195 10.8494 10.042 11.0503 9.94057C30.7398 -4.76742 49.7261 4.26025 49.927 4.36168C56.0549 7.30328 59.169 11.3607 59.2695 16.2295C59.2695 16.6352 59.6713 17.041 60.0731 16.9396C60.475 16.9396 60.7763 16.5338 60.7763 16.1281C60.6759 10.6506 57.1599 6.1875 50.5298 2.9416C50.3288 2.84017 30.5389 -6.59324 10.1462 8.62193C9.74437 8.92623 0.602819 14.6066 7.87955e-05 29.416C-0.200834 34.9949 1.00464 40.6752 3.51606 46.1527C5.92702 51.4273 8.23752 58.832 7.8357 62.585C7.43387 66.2367 7.63478 75.3658 7.73524 79.3217C6.83113 79.7275 4.72154 80.8432 4.72154 82.5676C4.72154 83.0748 4.822 83.4805 5.12337 83.9877L2.10967 90.2766C1.90875 90.6824 2.10967 91.0881 2.51149 91.291C2.61195 91.291 2.71241 91.291 2.81286 91.291C3.11423 91.291 3.31515 91.0881 3.51606 90.8852L6.22839 85.2049C6.73067 85.6107 7.43387 86.0164 8.23752 86.4221C12.0549 88.2479 37.169 98.4928 38.1736 98.8986C38.2741 98.8986 38.3745 99 38.475 99C38.7763 99 39.0777 98.7971 39.1782 98.4928C39.3791 98.0871 39.1782 97.6814 38.7763 97.4785C38.6759 97.4785 36.8677 96.667 34.1553 95.5512V82.9734C34.1553 82.8719 33.9544 80.7418 35.6622 79.7275C36.7672 79.1189 38.3745 78.5102 40.3836 77.9016H45.9088V78.916C45.9088 79.9303 46.7124 80.7418 47.717 80.7418H54.2467C55.2512 80.7418 56.0549 79.9303 56.0549 78.916V75.9744C56.0549 75.0615 55.3517 74.25 54.4476 74.25C55.0503 73.1342 55.5526 71.8156 55.6531 69.1783C56.0549 69.1783 56.3562 68.874 56.3562 68.4682V63.8023C57.4613 63.498 58.7672 63.1936 58.9681 63.1936C59.169 63.1936 59.3699 62.9908 59.5709 62.7879C59.7718 62.585 59.6713 62.2807 59.5709 62.0779C59.169 61.3678 59.2695 59.542 59.3699 58.5277C61.1782 58.4262 62.685 57.5133 62.7855 57.5133C64.0914 56.8033 64.5937 55.7889 64.6941 55.1803C64.9955 54.0645 64.5937 52.8473 63.79 51.9344C63.1873 51.3258 62.2832 50.1086 61.1782 48.3842C60.0731 46.6598 59.4704 44.7326 59.4704 42.8053C59.4704 41.6895 59.6713 40.5738 60.0731 39.458C60.3745 38.5451 62.0823 31.3432 62.3836 29.9232H65.3973C65.7992 29.9232 66.201 29.6189 66.201 29.1117V20.2869C66.0001 19.8811 65.6987 19.4754 65.2969 19.4754ZM31.2421 64.7152C31.2421 63.0922 32.548 61.7736 34.1553 61.7736C35.7626 61.7736 37.0686 63.0922 37.0686 64.7152C37.0686 66.3381 35.7626 67.6568 34.1553 67.6568C32.548 67.6568 31.2421 66.3381 31.2421 64.7152ZM37.0686 76.3801C35.8631 76.3801 34.959 75.4672 34.959 74.25V69.0768C36.7672 68.7725 38.2741 67.251 38.5754 65.4252H50.2284V68.3668C50.2284 68.7725 50.5298 69.1783 51.032 69.1783H54.2467C54.1462 71.6127 53.6439 72.7285 53.0412 73.8443C52.9407 73.9457 52.9407 74.1486 52.8403 74.25H47.6165C46.612 74.25 45.8083 75.0615 45.8083 76.0758V76.4816L37.0686 76.3801ZM54.7489 67.6568C54.6485 67.6568 54.6485 67.6568 54.548 67.6568H51.6348V61.7736H54.7489V67.6568ZM54.548 75.9744V78.916C54.548 79.0174 54.4476 79.1189 54.3471 79.1189H47.6165C47.5161 79.1189 47.4156 79.0174 47.4156 78.916V75.9744C47.4156 75.8729 47.5161 75.7715 47.6165 75.7715H54.2467C54.4476 75.7715 54.548 75.8729 54.548 75.9744ZM58.5663 38.8494C58.1645 40.0666 57.8631 41.3852 57.8631 42.7039C57.8631 44.9354 58.5663 47.167 59.7718 49.1957C60.5754 50.4129 61.6805 52.0359 62.4841 52.9488C62.9864 53.4559 63.1873 54.166 62.9864 54.7746C62.8859 55.3832 62.4841 55.7889 61.7809 56.1947C61.7809 56.1947 59.2695 57.7162 57.1599 56.6004C56.7581 56.3975 56.3563 56.499 56.1553 56.9047C55.9544 57.3104 56.0549 57.7162 56.4567 57.9191C56.8585 58.1219 57.2604 58.3248 57.6622 58.4262C57.5617 58.9334 57.4613 60.6578 57.7626 61.875C57.2604 61.9764 56.7581 62.1793 56.2558 62.2807V61.0635C56.2558 60.6578 55.9544 60.252 55.4521 60.252H50.8311C50.4293 60.252 50.0275 60.5564 50.0275 61.0635V63.9037H38.5754C38.2741 62.0779 36.7672 60.5564 34.959 60.252V43.3125C34.959 42.3996 34.6576 41.5881 33.9544 40.9795L30.6394 37.5307C30.338 37.2264 30.1371 36.7193 30.1371 36.2121V27.2859C30.1371 26.2715 30.9407 25.46 31.9453 25.46H33.5526V29.1117C33.5526 29.5174 33.854 29.9232 34.3562 29.9232H60.7763C60.3745 31.5461 58.8677 38.1393 58.5663 38.8494ZM64.4932 28.3002H35.0594V25.46H39.6804C40.0823 25.46 40.4841 25.1557 40.4841 24.6486C40.4841 24.1414 40.1827 23.8371 39.6804 23.8371H35.0594V20.9969H64.4932V28.3002Z" fill="#D0B5A9"/>
<path d="M43.3963 36.1106C43.5972 36.1106 43.7981 36.0092 43.8986 35.9077C47.0127 32.8647 51.9351 32.8647 55.0492 35.9077C55.3506 36.212 55.8529 36.212 56.1543 35.9077C56.4556 35.6034 56.4556 35.0963 56.1543 34.792C52.5378 31.1403 46.5104 31.1403 42.894 34.792C42.5926 35.0963 42.5926 35.6034 42.894 35.9077C42.9945 36.1106 43.1954 36.1106 43.3963 36.1106Z" fill="#D0B5A9"/>
<path d="M54.548 41.0809C54.6484 39.0522 53.242 37.1249 51.1324 36.8206C50.0274 36.6178 48.9224 36.9221 48.1187 37.5307C47.4155 38.0379 46.9133 38.6465 46.7124 39.4579C46.6119 39.4579 46.6119 39.3565 46.5114 39.3565C46.2101 39.1536 45.7078 39.2551 45.5069 39.5594C45.306 39.8637 45.4064 40.3709 45.7078 40.5737C47.8174 41.8924 50.1279 42.6024 52.4384 42.6024C53.0411 42.6024 53.6439 42.6024 54.2466 42.501C54.6484 42.3995 54.9498 41.9938 54.8493 41.5881C54.8493 41.3852 54.6484 41.1823 54.548 41.0809ZM48.0183 40.168C48.2192 39.6608 48.5206 39.1536 49.0229 38.8493C49.6256 38.4436 50.2283 38.3422 50.9315 38.4436C51.6347 38.545 52.2375 38.9508 52.6393 39.4579C52.9407 39.9651 53.1416 40.5737 53.1416 41.1823C51.3334 41.1823 49.6256 40.878 48.0183 40.168Z" fill="#D0B5A9"/>
</g>
<defs>
<clipPath id="clip0_10_18533">
<rect width="66" height="99" fill="white"/>
</clipPath>
</defs>
</svg>
