<svg width="32" height="32" viewBox="0 0 32 32" fill="none" xmlns="http://www.w3.org/2000/svg">
<g clip-path="url(#clip0_10_19199)">
<path d="M27.3137 4.68625C24.2917 1.66431 20.2738 0 16 0C11.7262 0 7.70819 1.66431 4.68625 4.68625C1.66425 7.70825 0 11.7262 0 16C0 20.2738 1.66425 24.2917 4.68625 27.3137C7.70825 30.3357 11.7262 32 16 32C20.2738 32 24.2917 30.3357 27.3137 27.3137C30.3357 24.2917 32 20.2738 32 16C32 11.7262 30.3357 7.70831 27.3137 4.68625ZM16 30.125C8.21144 30.125 1.875 23.7886 1.875 16C1.875 8.21144 8.21144 1.875 16 1.875C23.7886 1.875 30.125 8.21144 30.125 16C30.125 23.7886 23.7886 30.125 16 30.125Z" fill="#9F694F"/>
<path d="M23.6448 10.8663C23.2787 10.5003 22.6851 10.5003 22.3191 10.8664L14.0404 19.145L9.68244 14.7871C9.31637 14.421 8.72275 14.421 8.35662 14.7871C7.9905 15.1532 7.9905 15.7468 8.35662 16.1129L13.3774 21.1337C13.5605 21.3168 13.8004 21.4083 14.0403 21.4083C14.2802 21.4083 14.5202 21.3167 14.7032 21.1337L23.6448 12.1921C24.0109 11.826 24.0109 11.2324 23.6448 10.8663Z" fill="#9F694F"/>
</g>
<defs>
<clipPath id="clip0_10_19199">
<rect width="32" height="32" fill="white"/>
</clipPath>
</defs>
</svg>
