<svg width="30" height="29" viewBox="0 0 30 29" fill="none" xmlns="http://www.w3.org/2000/svg">
<g clip-path="url(#clip0_10_6809)">
<path d="M26.9998 5.36468L23.2039 24.5028C23.2039 24.5028 22.6732 25.8298 21.2131 25.1928L12.4142 18.4583C13.5968 17.3952 22.7717 9.14656 23.1729 8.7725C23.7931 8.19359 23.4082 7.84906 22.6873 8.28687L9.13527 16.8931L3.90683 15.133C3.90683 15.133 3.0837 14.8409 3.00448 14.2039C2.9248 13.5669 3.93355 13.2219 3.93355 13.2219L25.2481 4.86031C25.2481 4.86031 26.9998 4.09062 26.9998 5.36468Z" fill="#9EA6B3"/>
<path d="M28.4998 5.51201L28.4711 5.65651L24.6752 24.7946L24.6482 24.9308L24.5966 25.0597L23.2039 24.5028C24.5966 25.0597 24.5963 25.0605 24.596 25.0613L24.5954 25.0628L24.5941 25.0661L24.5913 25.073L24.5848 25.0885C24.5802 25.0995 24.5748 25.112 24.5687 25.1258C24.5564 25.1535 24.541 25.1867 24.5223 25.2245C24.4851 25.2996 24.4333 25.3956 24.365 25.5034C24.2321 25.713 24.0161 25.9996 23.693 26.258C23.3613 26.5234 22.9108 26.7624 22.3431 26.84C21.774 26.9176 21.1895 26.8191 20.6133 26.5677L20.4462 26.4948L20.3014 26.384L11.5025 19.6494L10.0673 18.551L11.4114 17.3427C11.5098 17.2543 11.6621 17.1174 11.8591 16.9403L9.9394 18.1594L9.33511 18.5431L8.65668 18.3147L3.42824 16.5546L3.41673 16.5507L3.40528 16.5466L3.90683 15.133C3.40528 16.5466 3.40483 16.5465 3.40436 16.5463L3.40343 16.546L3.40148 16.5453L3.39734 16.5438L3.38805 16.5404L3.36552 16.532C3.34881 16.5257 3.32867 16.5178 3.30553 16.5084C3.25947 16.4896 3.20037 16.4642 3.13214 16.4317C2.99888 16.3683 2.81458 16.2702 2.61886 16.1317C2.27364 15.8874 1.63348 15.3306 1.51608 14.3901L28.4998 5.51201ZM28.4998 5.51201V5.36468C28.4998 4.66641 28.2308 3.93848 27.545 3.49163C26.9724 3.11852 26.355 3.11293 26.0107 3.139C25.6295 3.16787 25.287 3.26057 25.067 3.33056C24.9506 3.36759 24.8528 3.40339 24.7814 3.43103C24.7455 3.44495 24.7156 3.45708 24.6926 3.46661L24.6821 3.47106L3.40601 11.8175M28.4998 5.51201L3.40601 11.8175M3.40601 11.8175C3.38948 11.8236 3.36937 11.8311 3.34617 11.8401C3.29709 11.8592 3.23266 11.8856 3.15797 11.9195C3.01362 11.9849 2.80695 12.0889 2.5916 12.2364C2.27546 12.4529 1.36339 13.1647 1.51595 14.389L3.40601 11.8175Z" stroke="#9EA6B3" stroke-opacity="0.17" stroke-width="3"/>
</g>
<defs>
<clipPath id="clip0_10_6809">
<rect width="30" height="28" fill="white" transform="translate(0 0.998047)"/>
</clipPath>
</defs>
</svg>
