<svg width="132" height="130" viewBox="0 0 132 130" fill="none" xmlns="http://www.w3.org/2000/svg">
<path d="M122.581 69.292C122.66 68.1507 123.095 67.2364 123.885 66.5489C124.675 65.8688 125.644 65.5687 126.792 65.6487C127.941 65.7286 128.863 66.1604 129.558 66.9439C130.253 67.7347 130.561 68.7008 130.482 69.842C130.423 70.6833 130.156 71.3999 129.682 71.9917C129.206 72.5908 128.583 72.9958 127.811 73.2067L127.837 72.8336C128.506 72.6228 129.042 72.2522 129.447 71.7217C129.851 71.1985 130.079 70.5638 130.13 69.8176C130.202 68.7861 129.921 67.9101 129.288 67.1897C128.661 66.4771 127.821 66.0841 126.767 66.0108C126.08 65.9629 125.451 66.0699 124.881 66.3316C124.311 66.6007 123.854 66.9952 123.509 67.5151C123.172 68.0356 122.979 68.636 122.932 69.3164C122.878 70.0846 123.026 70.7638 123.375 71.3541C123.723 71.9517 124.236 72.3991 124.913 72.6962L124.887 73.0693C124.108 72.7504 123.514 72.2569 123.105 71.5889C122.695 70.9209 122.521 70.1552 122.581 69.292Z" fill="white"/>
<path d="M120.222 82.7969L120.306 82.4438L127.407 82.8733L121.618 78.4595L121.648 78.3311L128.792 77.0177L122.278 74.1726L122.362 73.8195L129.535 76.9352L129.461 77.2455L122.278 78.5379L128.099 82.9594L128.023 83.2804L120.222 82.7969Z" fill="white"/>
<path d="M117.996 90.632C117.605 89.6484 117.638 88.628 118.094 87.5708C118.55 86.5137 119.27 85.7901 120.252 85.4C121.242 85.0128 122.255 85.0433 123.292 85.4914C123.978 85.7881 124.531 86.2107 124.949 86.759C125.374 87.3102 125.625 87.9337 125.7 88.6293C125.775 89.3249 125.663 90.0195 125.364 90.7131C124.908 91.7702 124.185 92.4924 123.196 92.8795C122.213 93.2696 121.196 93.2377 120.146 92.7838C119.103 92.3328 118.386 91.6156 117.996 90.632ZM118.417 87.7105C118.002 88.6734 117.974 89.5999 118.332 90.4899C118.688 91.3867 119.341 92.0403 120.29 92.4505C121.246 92.8636 122.172 92.8924 123.068 92.5368C123.968 92.1908 124.626 91.5363 125.041 90.5734C125.453 89.6172 125.478 88.6893 125.116 87.7896C124.753 86.8899 124.097 86.2349 123.148 85.8247C122.529 85.557 121.906 85.4555 121.279 85.5201C120.659 85.5876 120.095 85.8113 119.588 86.1912C119.08 86.5711 118.69 87.0775 118.417 87.7105Z" fill="white"/>
<path d="M119.971 100.58L119.678 100.404L120.969 98.2538L114.662 94.4616L114.849 94.1504L121.156 97.9426L122.446 95.7921L122.739 95.9678L119.971 100.58Z" fill="white"/>
<path d="M117.214 104.358C116.798 104.908 116.276 105.235 115.647 105.338C115.017 105.442 114.44 105.294 113.913 104.896C113.381 104.493 113.079 103.975 113.006 103.341C112.929 102.713 113.101 102.12 113.52 101.564L114.866 99.7822L112.418 97.9307L112.63 97.6498L118.771 102.295L117.214 104.358ZM113.808 101.768C113.45 102.242 113.303 102.747 113.367 103.283C113.427 103.824 113.682 104.266 114.132 104.606C114.576 104.943 115.067 105.065 115.604 104.975C116.136 104.89 116.582 104.611 116.94 104.137L118.278 102.364L115.147 99.9946L113.808 101.768Z" fill="white"/>
<path d="M108.739 103.129L106.05 105.961L105.795 105.718L108.726 102.631L114.305 107.938L111.457 110.937L111.202 110.695L113.808 107.951L111.52 105.775L109.112 108.311L108.865 108.076L111.273 105.54L108.739 103.129Z" fill="white"/>
<path d="M105.68 116.065L105.459 115.806L107.368 114.179L102.599 108.574L102.876 108.338L107.644 113.943L109.553 112.316L109.774 112.576L105.68 116.065Z" fill="white"/>
<path d="M100.106 116.253C99.5251 116.65 98.9229 116.796 98.2996 116.689C97.6702 116.587 97.1652 116.257 96.7847 115.7C96.4125 115.155 96.2929 114.57 96.4261 113.946C96.5592 113.322 96.9132 112.813 97.4882 112.419L99.6851 110.916L104.028 117.275L103.737 117.473L102.013 114.948L100.106 116.253ZM97.6896 112.695C97.1994 113.03 96.8963 113.464 96.7804 113.997C96.6687 114.535 96.772 115.038 97.0905 115.504C97.4089 115.97 97.837 116.246 98.3748 116.331C98.9166 116.422 99.4327 116.3 99.9229 115.965L101.82 114.667L99.5869 111.396L97.6896 112.695Z" fill="white"/>
<path d="M89.7891 121.188C89.5021 121.23 89.219 121.21 88.94 121.127C88.6609 121.044 88.4119 120.904 88.193 120.705C87.9674 120.51 87.791 120.272 87.6638 119.991C87.4184 119.45 87.4027 118.91 87.6166 118.37C87.8335 117.836 88.2424 117.433 88.8432 117.16L91.507 115.949L94.688 122.961L92.0343 124.167C91.4935 124.413 90.9753 124.451 90.4797 124.282C89.9872 124.119 89.6303 123.794 89.4091 123.306C89.2455 122.946 89.1991 122.568 89.2697 122.173C89.3433 121.786 89.5165 121.457 89.7891 121.188ZM91.8288 123.874L94.2221 122.786L92.9316 119.941L90.4781 121.056C90.0909 121.232 89.8289 121.525 89.6921 121.933C89.5487 122.345 89.5633 122.741 89.736 123.121C89.9147 123.515 90.2064 123.786 90.611 123.932C91.0156 124.078 91.4215 124.059 91.8288 123.874ZM88.9186 117.512C88.6181 117.648 88.3729 117.845 88.1828 118.1C87.9958 118.362 87.8867 118.646 87.8556 118.95C87.8208 119.264 87.8716 119.571 88.0079 119.871C88.2078 120.312 88.5344 120.615 88.9875 120.779C89.437 120.954 89.8887 120.938 90.3427 120.731L92.7861 119.621L91.332 116.415L88.9186 117.512Z" fill="white"/>
<path d="M81.6248 127.792L81.3822 127.864L79.2017 120.479L79.5498 120.376L81.5278 127.075L84.4441 118.928L84.6762 118.859L86.8566 126.244L86.5191 126.344L84.5442 119.655L81.6248 127.792Z" fill="white"/>
<path d="M71.0502 122.133L70.2004 122.251L69.9224 120.258L70.2602 120.211L70.4911 121.867L77.289 120.917L77.0581 119.261L77.3959 119.214L77.6739 121.207L77.1182 121.285C77.0039 121.368 76.9092 121.459 76.8342 121.558C76.753 121.665 76.6825 121.798 76.6229 121.954C76.556 122.111 76.5081 122.325 76.4792 122.596C76.4503 122.867 76.429 123.166 76.4155 123.493C76.3957 123.829 76.3901 124.267 76.3987 124.806C76.4072 125.346 76.4245 125.921 76.4504 126.532C76.4764 127.143 76.5112 127.897 76.5549 128.794L72.0665 129.421L71.0502 122.133ZM76.1809 128.502C76.0853 126.701 76.0349 125.357 76.0296 124.469C76.018 123.59 76.0597 122.906 76.1547 122.419C76.2424 121.933 76.4038 121.577 76.6389 121.352L71.4097 122.083L72.3789 129.033L76.1809 128.502Z" fill="white"/>
<path d="M68.2426 122.271L64.3377 122.302L64.335 121.95L68.5919 121.917L68.6513 129.617L64.5154 129.648L64.5127 129.296L68.2965 129.267L68.2722 126.11L64.7743 126.137L64.7717 125.796L68.2696 125.769L68.2426 122.271Z" fill="white"/>
<path d="M55.2229 122.021C56.0645 121.381 57.0558 121.138 58.1966 121.293C59.3375 121.448 60.2283 121.946 60.869 122.788C61.5088 123.637 61.7528 124.621 61.6012 125.741C61.5007 126.482 61.243 127.128 60.8279 127.678C60.4119 128.236 59.8792 128.645 59.2298 128.904C58.5804 129.164 57.8814 129.243 57.133 129.141C55.9921 128.986 55.1018 128.484 54.462 127.635C53.8213 126.793 53.5778 125.806 53.7314 124.672C53.8841 123.546 54.3812 122.662 55.2229 122.021ZM58.1494 121.642C57.1102 121.501 56.2106 121.723 55.4505 122.308C54.6831 122.892 54.23 123.696 54.0911 124.721C53.9512 125.753 54.1734 126.652 54.7576 127.42C55.3336 128.194 56.1411 128.651 57.1802 128.792C58.2121 128.933 59.1122 128.707 59.8806 128.116C60.649 127.524 61.1026 126.716 61.2415 125.692C61.3321 125.023 61.2617 124.396 61.0304 123.809C60.7981 123.23 60.4306 122.747 59.9279 122.361C59.4253 121.974 58.8324 121.735 58.1494 121.642Z" fill="white"/>
<path d="M43.4323 118.463C44.3901 118.015 45.4102 117.987 46.4925 118.38C47.5748 118.773 48.3402 119.448 48.7887 120.407C49.2347 121.372 49.2655 122.386 48.881 123.447C48.6264 124.151 48.2381 124.728 47.7163 125.178C47.192 125.635 46.585 125.922 45.8955 126.039C45.206 126.155 44.5062 126.085 43.7962 125.827C42.7139 125.434 41.9497 124.755 41.5037 123.79C41.0552 122.832 41.0257 121.815 41.4151 120.739C41.8021 119.67 42.4745 118.912 43.4323 118.463ZM46.3726 118.711C45.3868 118.353 44.4607 118.38 43.5943 118.791C42.721 119.2 42.1084 119.89 41.7564 120.863C41.4019 121.842 41.4291 122.768 41.838 123.642C42.2375 124.52 42.9302 125.138 43.916 125.496C44.8949 125.851 45.8223 125.821 46.6981 125.405C47.5739 124.99 48.1878 124.296 48.5398 123.324C48.7695 122.689 48.8332 122.061 48.7309 121.439C48.6261 120.824 48.3688 120.274 47.9592 119.79C47.5495 119.306 47.0206 118.946 46.3726 118.711Z" fill="white"/>
<path d="M34.3893 112.427L35.2565 117.401L36.3808 118.072L38.3385 114.782L38.6408 114.962L34.7029 121.579L34.4006 121.399L36.2008 118.374L35.0765 117.704L30.6876 119.185L30.2908 118.948L34.8869 117.398L33.9831 112.185L34.3893 112.427Z" fill="white"/>
<path d="M27.5741 116.982L24.1239 114.251L28.8967 108.209L29.1727 108.427L24.6113 114.202L27.5354 116.516L31.0859 112.607C32.0301 111.577 32.9852 111.445 33.9513 112.209L34.0893 112.318L33.8711 112.595L33.7331 112.485C32.9453 111.862 32.1607 111.98 31.3792 112.839L27.5741 116.982Z" fill="white"/>
<path d="M17.1628 107.36L16.9892 107.176L22.5873 101.889L22.8363 102.153L17.758 106.949L26.3371 105.868L26.5031 106.044L20.905 111.331L20.6636 111.074L25.7338 106.286L17.1628 107.36Z" fill="white"/>
<path d="M11.5239 99.7838L11.317 99.4856L17.6396 95.0908L17.8466 95.389L14.6943 97.5802L17.5032 101.629L20.6555 99.4381L20.8561 99.7273L14.5335 104.122L14.3329 103.833L17.2142 101.83L14.4052 97.7811L11.5239 99.7838Z" fill="white"/>
<path d="M6.95461 91.2945L6.84245 91.0677L13.7418 87.6487L13.9027 87.9741L7.64403 91.0756L16.1654 92.5491L16.2727 92.766L9.37337 96.185L9.21732 95.8695L15.4661 92.7729L6.95461 91.2945Z" fill="white"/>
<path d="M11.2615 80.7017L8.70045 85.0523L9.12288 86.2912L12.7453 85.0537L12.8589 85.3869L5.57239 87.8761L5.45879 87.543L8.78978 86.405L8.36735 85.1661L4.06371 83.4513L3.91462 83.014L8.42055 84.8108L11.1089 80.254L11.2615 80.7017Z" fill="white"/>
<path d="M10.4797 78.9893L9.66111 75.1711L10.0053 75.0971L10.8976 79.2596L3.36931 80.8766L2.50234 76.8325L2.84649 76.7586L3.63967 80.4585L6.72627 79.7955L5.99304 76.3752L6.32643 76.3036L7.05967 79.7239L10.4797 78.9893Z" fill="white"/>
<path d="M11.4374 69.6848L0.144654 70.6024L0.11798 70.2735L11.4108 69.3559L11.4374 69.6848Z" fill="white"/>
<path d="M9.42019 60.7712C9.34071 61.9125 8.90579 62.8269 8.11544 63.5144C7.3256 64.1947 6.3564 64.4949 5.20784 64.4151C4.05927 64.3353 3.13736 63.9038 2.44211 63.1204C1.74737 62.3297 1.43974 61.3637 1.51923 60.2225C1.57782 59.3812 1.84458 58.6646 2.31952 58.0727C2.79497 57.4736 3.41862 57.0685 4.19048 56.8575L4.16449 57.2306C3.49556 57.4414 2.95884 57.8121 2.55433 58.3427C2.15033 58.8659 1.92235 59.5007 1.87038 60.2468C1.79854 61.2783 2.07936 62.1542 2.71285 62.8745C3.33952 63.587 4.1796 63.9798 5.23306 64.053C5.92073 64.1008 6.54936 63.9937 7.11892 63.7319C7.689 63.4627 8.14652 63.0682 8.49149 62.5481C8.82914 62.0276 9.02165 61.4272 9.06904 60.7468C9.12254 59.9787 8.97504 59.2995 8.62654 58.7093C8.27854 58.1117 7.76572 57.6645 7.08805 57.3675L7.11403 56.9944C7.8931 57.3131 8.48726 57.8065 8.89651 58.4744C9.30575 59.1424 9.48031 59.908 9.42019 60.7712Z" fill="white"/>
<path d="M11.693 47.5391L11.6101 47.8925L4.50758 47.4901L10.3136 51.8818L10.2835 52.0103L3.14527 53.3509L9.66985 56.1712L9.58701 56.5246L2.40218 53.4363L2.47498 53.1257L9.65354 51.8059L3.81536 47.4067L3.89066 47.0854L11.693 47.5391Z" fill="white"/>
<path d="M13.8551 39.7427C14.2491 40.7248 14.2201 41.7453 13.768 42.8042C13.3159 43.863 12.5992 44.5893 11.6178 44.983C10.6296 45.3739 9.61635 45.3472 8.57804 44.903C7.89032 44.6088 7.33626 44.1883 6.91585 43.6416C6.4887 43.0919 6.23618 42.4695 6.15829 41.7741C6.0804 41.0788 6.18975 40.3838 6.48634 39.6891C6.93843 38.6302 7.65855 37.9054 8.64672 37.5145C9.62814 37.1208 10.6448 37.1489 11.6966 37.5989C12.7416 38.046 13.4611 38.7606 13.8551 39.7427ZM13.4444 42.6657C13.8562 41.7013 13.881 40.7747 13.5189 39.886C13.1596 38.9905 12.5047 38.3394 11.554 37.9327C10.5966 37.5232 9.67049 37.4979 8.77566 37.8568C7.87697 38.2062 7.22174 38.8631 6.80997 39.8275C6.40108 40.7852 6.37963 41.7133 6.74561 42.6116C7.11159 43.51 7.76991 44.1625 8.72057 44.5692C9.34086 44.8345 9.96432 44.9337 10.5909 44.8668C11.2108 44.797 11.7737 44.5712 12.2796 44.1894C12.7854 43.8076 13.1737 43.2997 13.4444 42.6657Z" fill="white"/>
<path d="M11.8596 29.734L12.1525 29.9086L10.8699 32.0638L17.1904 35.8328L17.0048 36.1448L10.6842 32.3758L9.40159 34.531L9.10871 34.3563L11.8596 29.734Z" fill="white"/>
<path d="M14.5821 25.9593C14.9954 25.4077 15.5165 25.0791 16.1454 24.9735C16.7743 24.8679 17.3527 25.0133 17.8805 25.4095C18.4142 25.8102 18.7184 26.3274 18.7933 26.9613C18.8725 27.5894 18.7033 28.1821 18.2856 28.7397L16.9466 30.5267L19.401 32.3693L19.1899 32.651L13.0321 28.0281L14.5821 25.9593ZM17.9975 28.5371C18.3536 28.0618 18.4987 27.5563 18.4327 27.0207C18.371 26.4793 18.1144 26.039 17.6628 25.7C17.2171 25.3654 16.726 25.2443 16.1895 25.3367C15.6573 25.4232 15.2131 25.7041 14.857 26.1795L13.5246 27.9577L16.6651 30.3154L17.9975 28.5371Z" fill="white"/>
<path d="M22.9676 27.2418L25.6461 24.4002L25.902 24.6418L22.9821 27.7397L17.384 22.4527L20.2209 19.443L20.4768 19.6847L17.8814 22.4383L20.1766 24.6059L22.5759 22.0604L22.8238 22.2946L20.4245 24.84L22.9676 27.2418Z" fill="white"/>
<path d="M25.9067 14.3235L26.1286 14.5824L24.2259 16.2163L29.0148 21.8039L28.7395 22.0404L23.9505 16.4528L22.0478 18.0868L21.8259 17.8279L25.9067 14.3235Z" fill="white"/>
<path d="M31.7493 13.8948C32.3303 13.4972 32.9325 13.3517 33.5559 13.4583C34.1853 13.5608 34.6903 13.8906 35.0708 14.4477C35.443 14.9927 35.5625 15.5774 35.4294 16.2016C35.2963 16.8259 34.9422 17.3347 34.3673 17.7281L32.1704 19.2314L27.8278 12.8728L28.1183 12.674L29.8429 15.1993L31.7493 13.8948ZM34.1659 17.4528C34.6561 17.1173 34.9592 16.6833 35.075 16.1509C35.1868 15.6123 35.0834 15.1099 34.765 14.6436C34.4465 14.1773 34.0184 13.9016 33.4807 13.8163C32.9388 13.7251 32.4228 13.8472 31.9326 14.1826L30.0353 15.4809L32.2686 18.7511L34.1659 17.4528Z" fill="white"/>
<path d="M41.7414 9.06875C42.0282 9.02583 42.3113 9.04515 42.5907 9.12671C42.87 9.20828 43.1195 9.34792 43.3392 9.54565C43.5655 9.74032 43.7428 9.97766 43.8711 10.2577C44.1185 10.7977 44.1362 11.3382 43.9243 11.8793C43.7094 12.4137 43.302 12.8186 42.7022 13.0939L40.043 14.3146L36.8359 7.31426L39.4851 6.09818C40.0249 5.85037 40.543 5.81027 41.0392 5.97786C41.5324 6.13879 41.8904 6.4626 42.1134 6.94929C42.2783 7.30931 42.3262 7.68675 42.2571 8.0816C42.1849 8.46979 42.013 8.79884 41.7414 9.06875ZM39.6917 6.39066L37.3024 7.48743L38.6035 10.3276L41.0528 9.20326C41.4394 9.02582 41.7003 8.73257 41.8355 8.32352C41.9774 7.9114 41.9614 7.51534 41.7873 7.13532C41.607 6.74197 41.3144 6.47287 40.9092 6.32801C40.5041 6.18316 40.0982 6.20404 39.6917 6.39066ZM42.6255 12.7418C42.9254 12.6041 43.17 12.4071 43.3591 12.1509C43.5451 11.888 43.6532 11.6044 43.6832 11.3001C43.7168 10.9861 43.6649 10.6791 43.5274 10.3791C43.3258 9.93909 42.9982 9.63763 42.5444 9.47474C42.0943 9.30212 41.6426 9.31983 41.1894 9.52786L38.7502 10.6476L40.2162 13.8477L42.6255 12.7418Z" fill="white"/>
<path d="M50.1311 2.3293L50.3737 2.25753L52.5541 9.64236L52.206 9.74534L50.2281 3.04624L47.3117 11.1933L47.0797 11.2619L44.8992 3.8771L45.2368 3.77724L47.2116 10.4658L50.1311 2.3293Z" fill="white"/>
<path d="M60.7291 7.94637L61.5789 7.82765L61.8569 9.82137L61.5191 9.86855L61.2882 8.21257L54.4903 9.16232L54.7212 10.8183L54.3834 10.8655L54.1054 8.87177L54.6611 8.79414C54.7754 8.71153 54.8701 8.62055 54.9451 8.52122C55.0263 8.41361 55.0968 8.28159 55.1564 8.12517C55.2233 7.96773 55.2712 7.75371 55.3001 7.48311C55.329 7.2125 55.3503 6.91336 55.3638 6.58566C55.3836 6.24969 55.3892 5.81204 55.3806 5.2727C55.3721 4.73337 55.3548 4.15822 55.3289 3.54727C55.3029 2.93632 55.2681 2.18222 55.2244 1.28496L59.7128 0.657883L60.7291 7.94637ZM55.5984 1.57703C55.694 3.37779 55.7444 4.72207 55.7497 5.60988C55.7613 6.4894 55.7196 7.17274 55.6246 7.6599C55.5369 8.14605 55.3755 8.50181 55.1404 8.72717L60.3696 7.9966L59.4004 1.04584L55.5984 1.57703Z" fill="white"/>
<path d="M63.1773 7.79061L67.0821 7.74528L67.0861 8.09726L62.8294 8.14667L62.7405 0.447184L66.8762 0.399175L66.8803 0.751152L63.0965 0.795074L63.133 3.95186L66.6308 3.91126L66.6347 4.25224L63.1369 4.29284L63.1773 7.79061Z" fill="white"/>
<path d="M76.3009 7.9538C75.4619 8.59748 74.4717 8.84396 73.3302 8.69322C72.1888 8.54248 71.2961 8.04733 70.652 7.20777C70.0089 6.36095 69.7609 5.37768 69.9081 4.25798C70.0055 3.51636 70.2607 2.86953 70.6735 2.31749C71.0872 1.75818 71.6183 1.34751 72.2666 1.08547C72.915 0.823438 73.6136 0.741867 74.3624 0.840761C75.5038 0.991502 76.3961 1.49029 77.0392 2.33711C77.6833 3.17667 77.9308 4.16356 77.7817 5.29781C77.6336 6.42478 77.14 7.31011 76.3009 7.9538ZM73.3761 8.34422C74.4157 8.48152 75.3144 8.25624 76.0722 7.66839C76.8372 7.0815 77.2871 6.27546 77.4218 5.25028C77.5575 4.21783 77.3318 3.31886 76.7445 2.55339C76.1655 1.7816 75.3562 1.32706 74.3165 1.18976C73.2841 1.05342 72.385 1.28233 71.619 1.87649C70.853 2.47066 70.4027 3.28033 70.2679 4.30551C70.18 4.97442 70.2529 5.6017 70.4866 6.18733C70.7212 6.7657 71.0906 7.2472 71.5948 7.63186C72.0989 8.01651 72.6927 8.25397 73.3761 8.34422Z" fill="white"/>
<path d="M88.3783 11.5161C87.4204 11.9643 86.4004 11.9921 85.3181 11.5994C84.2358 11.2068 83.4704 10.5313 83.0218 9.57285C82.5758 8.60754 82.5451 7.59395 82.9295 6.53208C83.1842 5.82876 83.5724 5.25191 84.0943 4.80154C84.6186 4.34427 85.2255 4.05739 85.915 3.94089C86.6045 3.82439 87.3043 3.89493 88.0144 4.15253C89.0967 4.54517 89.8608 5.22415 90.3069 6.18945C90.7554 7.14787 90.7849 8.1649 90.3954 9.24057C90.0085 10.3093 89.3361 11.0678 88.3783 11.5161ZM85.4379 11.2685C86.4237 11.6261 87.3498 11.5993 88.2162 11.1881C89.0895 10.7795 89.7022 10.089 90.0542 9.11677C90.4087 8.13764 90.3815 7.21115 89.9725 6.33731C89.573 5.45907 88.8803 4.84113 87.8945 4.4835C86.9156 4.12837 85.9883 4.15859 85.1125 4.57416C84.2367 4.98973 83.6228 5.68364 83.2708 6.65587C83.0411 7.29024 82.9774 7.91851 83.0797 8.5407C83.1845 9.15599 83.4417 9.70566 83.8514 10.1897C84.2611 10.6738 84.7899 11.0334 85.4379 11.2685Z" fill="white"/>
<path d="M97.47 17.5377L96.6028 12.5637L95.4786 11.8933L93.5209 15.1828L93.2185 15.0025L97.1564 8.38568L97.4588 8.56596L95.6586 11.5908L96.7829 12.2612L101.172 10.78L101.569 11.0166L96.9725 12.5664L97.8763 17.78L97.47 17.5377Z" fill="white"/>
<path d="M104.049 12.7786L107.509 15.4966L102.759 21.5563L102.482 21.3389L107.022 15.5475L104.09 13.244L100.553 17.1663C99.613 18.1994 98.6584 18.3355 97.6896 17.5744L97.5512 17.4657L97.7684 17.1887L97.9068 17.2974C98.6968 17.918 99.481 17.7973 100.259 16.9353L104.049 12.7786Z" fill="white"/>
<path d="M114.728 22.5714L114.901 22.7555L109.303 28.0424L109.054 27.7783L114.133 22.9823L105.554 24.0641L105.388 23.888L110.986 18.6011L111.227 18.8572L106.157 23.6457L114.728 22.5714Z" fill="white"/>
<path d="M120.3 29.9955L120.508 30.293L114.202 34.7109L113.994 34.4134L117.138 32.2107L114.314 28.172L111.17 30.3746L110.968 30.0861L117.275 25.6682L117.477 25.9567L114.603 27.97L117.426 32.0088L120.3 29.9955Z" fill="white"/>
<path d="M124.911 38.4585L125.024 38.6849L118.138 42.1294L117.976 41.8046L124.223 38.6799L115.696 37.238L115.588 37.0215L122.474 33.5769L122.632 33.8919L116.394 37.0117L124.911 38.4585Z" fill="white"/>
<path d="M120.646 49.0388L123.19 44.6786L122.763 43.4413L119.146 44.6924L119.031 44.3597L126.308 41.843L126.423 42.1757L123.096 43.3262L123.523 44.5636L127.833 46.2622L127.984 46.6989L123.471 44.9191L120.8 49.4859L120.646 49.0388Z" fill="white"/>
<path d="M121.464 50.8256L122.297 54.6407L121.953 54.7159L121.045 50.5569L128.567 48.9111L129.449 52.9519L129.106 53.0271L128.298 49.3302L125.214 50.005L125.96 53.4225L125.627 53.4954L124.881 50.0779L121.464 50.8256Z" fill="white"/>
<path d="M120.544 60.1338L131.833 59.1726L131.861 59.5015L120.571 60.4626L120.544 60.1338Z" fill="white"/>
</svg>
