<svg width="223" height="169" viewBox="0 0 223 169" fill="none" xmlns="http://www.w3.org/2000/svg">
<path d="M163.002 112C163.002 139.615 140.616 162 113.002 162C85.3877 162 63.002 139.615 63.002 112C63.002 84.3861 85.3877 62.0004 113.002 62.0004C140.616 62.0004 163.002 84.3861 163.002 112Z" fill="white"/>
<path d="M113.648 124.353C113.844 124.549 114.16 124.549 114.356 124.353L117.537 121.171C117.733 120.976 117.733 120.66 117.537 120.464C117.342 120.269 117.026 120.269 116.83 120.464L114.002 123.293L111.174 120.464C110.978 120.269 110.662 120.269 110.466 120.464C110.271 120.66 110.271 120.976 110.466 121.171L113.648 124.353ZM113.502 98.9999L113.502 124L114.502 124L114.502 98.9999L113.502 98.9999Z" fill="#9EA6B3"/>
<path d="M29.8392 114.282L29.826 113.472L49.6414 113.151L49.6546 113.961L29.8392 114.282Z" fill="#9EA6B3"/>
<path d="M46.2785 103.432L46.5696 102.224C45.7752 100.681 43.5282 98.2509 40.0502 97.3939L36.498 96.5375C35.273 96.2422 35.1693 96.3653 34.874 97.5902L34.7812 97.9751L34.6237 97.9372L36.6782 89.4153L36.8357 89.4533L36.6838 90.0833C36.4813 90.9232 36.7052 91.0698 37.5452 91.2723L48.5693 93.9301L48.9448 92.3727L52.1995 93.1574L52.0476 93.7873L50.1928 93.3401C49.3528 93.1376 49.0826 93.1836 48.8801 94.0235L46.9732 101.933C46.7707 102.773 46.9903 102.937 47.8303 103.139L49.6851 103.587L49.5333 104.217L46.2785 103.432ZM47.0337 100.3L48.2402 95.295L36.2887 92.4136L35.4702 95.8083L39.7399 96.8377C43.2221 97.6772 45.7005 99.0709 47.0337 100.3Z" fill="#9EA6B3"/>
<path d="M38.236 85.0181L38.8622 83.6024L40.8574 79.092L42.0734 76.3429L42.2216 76.4085L41.9594 77.0011C41.6099 77.7912 41.804 77.9755 42.5941 78.325L52.0924 82.5265C52.8825 82.876 53.1494 82.8956 53.4989 82.1055L53.761 81.5129L53.9092 81.5784L52.1106 85.6444L51.9625 85.5788L52.1591 85.1344C52.5086 84.3442 52.3145 84.16 51.5244 83.8105L41.1537 79.223L39.4498 83.075L43.4664 84.8517C47.8616 86.7959 50.1158 89.3086 50.5498 90.8193L49.0245 91.2862C48.5026 89.6185 46.9407 86.92 43.6721 85.4545L40.3305 83.9763C39.1782 83.4666 39.0541 83.5692 38.5444 84.7215L38.3842 85.0836L38.236 85.0181Z" fill="#9EA6B3"/>
<path d="M58.2007 74.9514L58.066 74.8613L58.2461 74.592C58.7263 73.8737 58.7115 73.7339 57.9933 73.2537L54.2074 70.7226L53.4371 71.8748C56.32 73.8456 57.42 76.3782 56.1695 78.2486C55.7593 78.8621 55.1746 79.3157 54.4854 79.5045L53.3033 78.7141C54.3072 78.346 55.0118 77.8427 55.402 77.2591C56.4924 75.6281 55.7011 73.7999 53.247 72.1591C51.6463 74.5533 49.4783 75.5939 47.4731 74.2533C45.483 72.9227 45.611 70.4966 47.2117 68.1024L49.8228 64.1969L49.9575 64.2869L49.6073 64.8107C49.1271 65.5289 49.1519 65.6538 49.8702 66.134L58.7736 72.0866C59.4919 72.5668 59.6167 72.542 60.0969 71.8237L60.4471 71.3L60.5817 71.39L58.2007 74.9514ZM53.9381 70.5426L49.2245 67.3912C48.8803 67.1611 48.676 66.9162 48.6165 66.6166L48.6015 66.6066L47.5611 68.1628C46.3405 69.9884 46.3683 71.6309 48.3435 72.9514C50.3487 74.292 51.8472 73.67 53.0677 71.8444L53.9381 70.5426Z" fill="#9EA6B3"/>
<path d="M63.087 67.9072L64.003 67.0685C64.2064 65.3447 63.7007 62.0737 61.2951 59.4197L58.8275 56.7247C57.9766 55.7954 57.8218 55.8395 56.8925 56.6904L56.6004 56.9578L56.491 56.8384L62.9563 50.9187L63.0657 51.0381L62.5878 51.4757C61.9505 52.0592 62.0543 52.3058 62.6378 52.9431L70.2957 61.3068L71.4773 60.2249L73.7382 62.6942L73.2603 63.1318L71.9718 61.7246C71.3883 61.0874 71.1385 60.9744 70.5013 61.5579L64.5006 67.0522C63.8634 67.6356 63.9539 67.8944 64.5374 68.5316L65.8258 69.9389L65.3479 70.3765L63.087 67.9072ZM65.4634 65.7314L69.2602 62.2549L60.9581 53.1876L58.3826 55.5457L61.3485 58.785C63.7674 61.4269 65.0442 63.9675 65.4634 65.7314Z" fill="#9EA6B3"/>
<path d="M67.7606 47.939L67.8097 48.0144C68.1478 48.138 68.449 48.436 68.6748 48.783L71.9632 53.8374L72.8081 53.2877C74.7092 52.0508 75.048 50.3272 73.7621 48.3507C72.486 46.3893 70.763 45.9855 68.862 47.2224L67.7606 47.939ZM72.3839 59.963L72.2956 59.8272L72.8236 59.4837C73.5479 59.0125 73.5742 58.888 73.103 58.1638L67.2623 49.1865C66.7912 48.4623 66.6666 48.436 65.9424 48.9072L65.4143 49.2507L65.326 49.1149L69.1281 46.6412C71.3913 45.1688 73.779 45.5051 75.0747 47.4966C76.3705 49.4882 75.7006 51.7923 73.4375 53.2648L72.1399 54.109L74.2799 57.3981C74.7511 58.1223 74.8907 58.1388 75.6149 57.6677L75.9921 57.4222L76.0804 57.558L72.3839 59.963Z" fill="#9EA6B3"/>
<path d="M81.8859 52.6085C82.1378 52.5539 82.6267 52.4118 82.8563 52.308C84.07 51.7592 84.2845 51.0103 84.2565 50.0747L84.2468 49.7037C84.2441 49.5667 84.2101 49.4042 84.1434 49.2566C84.0692 49.0926 83.9623 48.9434 83.8151 48.7927L77.5902 43.1525C76.9375 42.5389 76.704 42.3284 76.1463 42.5806L75.9003 42.6918L75.8336 42.5442L78.999 41.1128L79.0657 41.2605L77.9013 41.787L77.9161 41.8198C78.1828 41.798 78.5412 42.11 78.8059 42.3459L83.6003 46.6575C83.8025 46.8426 83.9821 47.1961 84.0266 47.2945L84.0414 47.3273L84.1414 47.2425L83.7898 40.349C83.7813 40.1554 83.7489 39.9527 83.6822 39.8051C83.5487 39.5099 83.248 39.3693 82.6412 39.6437L81.8867 39.9848L81.82 39.8372L84.641 38.5616L84.7003 38.6928L84.6019 38.7373C84.0607 38.982 84.0704 39.353 84.1179 40.2007L84.6176 50.5238C84.6845 52.1134 84.1447 53.1477 83.3083 53.5259C82.7506 53.7781 82.279 53.4777 81.8859 52.6085Z" fill="#9EA6B3"/>
<path d="M90.4197 50.2945L90.3741 50.139L90.9787 49.9619C91.8078 49.7189 91.8689 49.6072 91.6259 48.7781L88.6139 38.5003C88.3709 37.6712 88.2593 37.6101 87.4301 37.8531L86.8256 38.0303L86.78 37.8748L93.2749 35.9715C93.5512 35.8905 93.6305 35.9048 93.7868 35.9903L93.8041 35.9852L93.3908 34.8308L93.5412 34.768L95.3526 39.733L95.0416 39.8241L94.6182 38.6352C93.9678 36.8 92.4159 36.5608 90.7577 37.0468L89.3585 37.4568L89.3636 37.4741C89.6316 37.6206 89.8955 37.8809 90.0068 38.2609L92.9732 48.3832C93.2162 49.2124 93.3451 49.2683 94.1743 49.0254L95.2971 48.6963L95.3426 48.8518L90.4197 50.2945Z" fill="#9EA6B3"/>
<path d="M98.0962 47.9283L98.0749 47.7677L98.6994 47.6848C99.5559 47.5711 99.6119 47.3095 99.4983 46.453L98.1321 36.1573C98.0185 35.3008 97.8961 35.0628 97.0396 35.1764L96.4151 35.2593L96.3938 35.0987L100.783 34.5163L100.805 34.6768L100.341 34.7384C99.4842 34.8521 99.4103 35.1161 99.5239 35.9726L100.897 46.3219L104.423 34.0332L107.225 33.6615L107.246 33.8221L106.604 33.9073C105.747 34.021 105.691 34.2826 105.805 35.1391L107.171 45.4349C107.285 46.2914 107.407 46.5294 108.264 46.4157L108.906 46.3305L108.927 46.4911L104.52 47.0759L104.499 46.9153L104.98 46.8514C105.837 46.7377 105.893 46.4761 105.779 45.6196L104.406 35.2703L100.88 47.5589L98.0962 47.9283Z" fill="#9EA6B3"/>
<path d="M110.417 46.457L110.423 46.2951L110.585 46.3006C111.322 46.3257 111.619 46.0836 112.251 44.9524L114.861 40.2322L112.71 35.1523C112.21 33.9826 111.858 33.7186 111.355 33.7015L111.157 33.6948L111.162 33.5329L114.238 33.6373L114.233 33.7992L113.261 33.7662L113.26 33.8022C113.509 33.9007 113.944 34.3657 114.144 34.8227L115.978 39.1534L118.235 35.2857C118.484 34.8439 118.638 34.543 118.646 34.3271C118.655 34.0573 118.424 33.9414 117.867 33.9225L117.237 33.9011L117.243 33.7392L120.247 33.8412L120.241 34.0031L120.026 33.9957C119.486 33.9774 119.243 34.2213 118.575 35.3513L116.128 39.5187L118.548 45.1661C119.032 46.2811 119.22 46.5757 119.814 46.5958L120.12 46.6062L120.114 46.7861L115.94 46.6445L115.946 46.4646L116.324 46.4774C117.008 46.5006 117.281 46.4018 117.292 46.096C117.296 45.9701 117.147 45.5868 116.98 45.1849L115.028 40.6161L112.611 44.9646C112.343 45.4418 112.188 45.7607 112.181 45.9766C112.17 46.2824 112.42 46.3629 113.031 46.3837L113.643 46.4044L113.638 46.5663L110.417 46.457Z" fill="#9EA6B3"/>
<path d="M125.085 47.6071L125.124 47.4499L125.735 47.6022C126.574 47.811 126.683 47.7454 126.892 46.9071L129.481 36.5147C129.689 35.6763 129.624 35.5672 128.785 35.3584L128.174 35.2061L128.213 35.0489L134.781 36.6849C135.06 36.7545 135.121 36.8069 135.213 36.9596L135.23 36.9639L135.456 35.7588L135.618 35.7805L134.675 40.9808L134.361 40.9025L134.595 39.6624C134.96 37.75 133.742 36.76 132.065 36.3423L130.65 35.9898L130.646 36.0073C130.803 36.2691 130.899 36.627 130.804 37.0113L128.254 47.2465C128.045 48.0848 128.128 48.1983 128.967 48.4071L130.102 48.6899L130.063 48.8471L125.085 47.6071Z" fill="#9EA6B3"/>
<path d="M139.199 52.2176C135.517 50.6211 134.125 47.1338 135.707 43.484C137.282 39.8507 140.779 38.4826 144.461 40.0791C148.111 41.6613 149.503 45.1485 147.928 48.7818C146.346 52.4316 142.849 53.7998 139.199 52.2176ZM139.378 51.9418C142.367 53.2376 144.809 52.04 146.355 48.4728C148.066 44.5257 147.322 41.6722 144.266 40.3477C141.261 39.0447 138.812 40.2588 137.273 43.8096C135.554 47.7732 136.289 50.603 139.378 51.9418Z" fill="#9EA6B3"/>
<path d="M154.672 45.9748L154.622 46.0496C154.641 46.4091 154.486 46.8033 154.256 47.1475L150.904 52.1603L151.742 52.7206C153.628 53.9811 155.346 53.6139 156.656 51.6537C157.957 49.7084 157.65 47.9657 155.764 46.7051L154.672 45.9748ZM145.439 54.9588L145.529 54.8241L146.053 55.1743C146.771 55.6545 146.896 55.6297 147.376 54.9114L153.329 46.008C153.809 45.2897 153.784 45.1649 153.066 44.6847L152.542 44.3345L152.632 44.1999L156.403 46.721C158.648 48.2216 159.279 50.5489 157.958 52.5241C156.638 54.4993 154.256 54.7907 152.011 53.29L150.724 52.4297L148.543 55.6917C148.063 56.41 148.103 56.5449 148.821 57.0251L149.195 57.2752L149.105 57.4098L145.439 54.9588Z" fill="#9EA6B3"/>
<path d="M158.852 65.3892C155.964 62.6018 155.884 58.8479 158.646 55.9854C161.396 53.1359 165.151 53.0818 168.039 55.8692C170.902 58.6316 170.981 62.3855 168.231 65.235C165.469 68.0975 161.714 68.1516 158.852 65.3892ZM159.116 65.1935C161.46 67.4559 164.167 67.1914 166.867 64.3937C169.854 61.2981 170.158 58.3648 167.762 56.0524C165.405 53.7774 162.686 54.055 159.998 56.8397C156.998 59.9483 156.694 62.8561 159.116 65.1935Z" fill="#9EA6B3"/>
<path d="M163.94 69.7099L164.652 70.728C166.334 71.1556 169.643 71.0832 172.59 69.0463L175.585 66.9534C176.618 66.2317 176.594 66.0724 175.872 65.0396L175.646 64.7149L175.778 64.6222L180.799 71.8078L180.667 71.9006L180.295 71.3694C179.801 70.6612 179.542 70.7317 178.834 71.2266L169.539 77.7218L170.456 79.035L167.712 80.9527L167.341 80.4215L168.905 79.3286C169.613 78.8338 169.758 78.6009 169.263 77.8927L164.603 71.2235C164.108 70.5152 163.839 70.571 163.131 71.0659L161.567 72.1588L161.196 71.6276L163.94 69.7099ZM165.786 72.3511L168.734 76.5709L178.812 69.5293L176.812 66.6668L173.212 69.1825C170.276 71.2341 167.589 72.1668 165.786 72.3511Z" fill="#9EA6B3"/>
<path d="M173.422 86.2459C171.796 82.5762 173.135 79.0685 176.772 77.4567C180.393 75.8521 183.891 77.2155 185.517 80.8852C187.129 84.5221 185.79 88.0297 182.169 89.6343C178.532 91.2461 175.034 89.8827 173.422 86.2459ZM173.74 86.164C175.06 89.1426 177.668 89.9165 181.222 88.3411C185.155 86.598 186.541 83.9951 185.192 80.9507C183.865 77.9557 181.241 77.189 177.703 78.7571C173.753 80.5075 172.376 83.0867 173.74 86.164Z" fill="#9EA6B3"/>
<path d="M177.334 95.9209L177.806 97.9181C178.318 100.09 179.993 101.23 181.99 100.759C184.092 100.263 185.231 98.3486 184.718 96.1762L184.499 95.2477L184.797 95.1774L184.962 95.8782C185.326 97.4199 186.572 98.3096 187.956 97.9831C189.375 97.6483 190.044 96.2513 189.635 94.5169L189.3 93.0979L189.282 93.102C189.122 93.3618 188.845 93.5197 188.442 93.6148L178.333 95.9997C177.93 96.0948 177.629 96.0733 177.37 95.9127L177.334 95.9209ZM176.403 93.385L176.561 93.3478L176.706 93.961C176.904 94.8019 177.012 94.8688 177.853 94.6704L188.277 92.2111C189.118 92.0127 189.185 91.9044 188.986 91.0635L188.842 90.4504L188.999 90.4132L190.008 94.6878C190.595 97.1755 189.919 99.0919 188.342 99.4639C187.344 99.6995 185.902 99.0779 185.294 97.5199L185.224 97.5364C185.604 99.8511 184.136 101.862 182.349 102.283C180.16 102.8 178.205 101.023 177.565 98.3078L176.403 93.385Z" fill="#9EA6B3"/>
<path d="M195.577 114.765L195.562 115.575L175.747 115.208L175.762 114.398L195.577 114.765Z" fill="#9EA6B3"/>
</svg>
