<svg width="252" height="889" viewBox="0 0 252 889" fill="none" xmlns="http://www.w3.org/2000/svg">
<path d="M116.474 228.912C148.374 173.048 221.842 147.784 315.065 152.287C408.257 156.789 521.034 191.041 631.288 254C741.542 316.958 828.355 396.678 879.593 474.651C930.848 552.65 946.426 628.762 914.526 684.626C882.625 740.49 809.158 765.754 715.935 761.25C622.743 756.749 509.966 722.497 399.712 659.538C289.458 596.579 202.645 516.859 151.407 438.886C100.152 360.888 84.5741 284.776 116.474 228.912Z" stroke="url(#paint0_linear_10_18225)"/>
<path d="M100.075 219.741C122.318 159.378 190.607 122.335 283.295 111.39C375.953 100.449 492.836 115.618 611.969 159.516C731.102 203.414 829.882 267.713 893.287 336.159C956.712 404.629 984.639 477.126 962.396 537.488C940.154 597.851 871.864 634.894 779.176 645.839C686.518 656.78 569.635 641.612 450.502 597.714C331.369 553.816 232.589 489.517 169.185 421.07C105.759 352.601 77.8327 280.104 100.075 219.741Z" stroke="url(#paint1_linear_10_18225)"/>
<defs>
<linearGradient id="paint0_linear_10_18225" x1="169.082" y1="481.086" x2="631.536" y2="253.565" gradientUnits="userSpaceOnUse">
<stop stop-color="#DAD2C5"/>
<stop offset="1" stop-color="#DAD2C5" stop-opacity="0"/>
</linearGradient>
<linearGradient id="paint1_linear_10_18225" x1="193.582" y1="459.774" x2="612.142" y2="159.047" gradientUnits="userSpaceOnUse">
<stop stop-color="#DAD2C5"/>
<stop offset="1" stop-color="#DAD2C5" stop-opacity="0"/>
</linearGradient>
</defs>
</svg>
