<svg width="74" height="278" viewBox="0 0 74 278" fill="none" xmlns="http://www.w3.org/2000/svg">
<path d="M36.638 71.5904C46.4929 54.3324 69.2404 46.4538 98.2824 47.8567C127.294 49.2581 162.427 59.924 196.789 79.5458C231.151 99.1676 258.192 124.005 274.143 148.279C290.11 172.578 294.885 196.173 285.03 213.431C275.176 230.689 252.428 238.567 223.386 237.164C194.375 235.763 159.241 225.097 124.879 205.475C90.5174 185.853 63.4763 161.016 47.5258 136.742C31.5582 112.443 26.7831 88.8484 36.638 71.5904Z" stroke="url(#paint0_linear_10_15384)"/>
<path d="M31.5451 68.6775C38.4164 50.0297 59.5516 38.5047 88.4269 35.0951C117.272 31.689 153.684 36.4099 190.813 50.0913C227.942 63.7726 258.712 83.8068 278.45 105.115C298.209 126.445 306.813 148.928 299.941 167.576C293.07 186.224 271.935 197.749 243.06 201.158C214.215 204.565 177.803 199.844 140.674 186.162C103.544 172.481 72.7748 152.447 53.0367 131.139C33.2776 109.809 24.6737 87.3254 31.5451 68.6775Z" stroke="url(#paint1_linear_10_15384)"/>
<defs>
<linearGradient id="paint0_linear_10_15384" x1="52.7526" y1="150.098" x2="197.037" y2="79.1116" gradientUnits="userSpaceOnUse">
<stop stop-color="#DAD2C5"/>
<stop offset="1" stop-color="#DAD2C5" stop-opacity="0"/>
</linearGradient>
<linearGradient id="paint1_linear_10_15384" x1="60.3961" y1="143.448" x2="190.986" y2="49.6221" gradientUnits="userSpaceOnUse">
<stop stop-color="#DAD2C5"/>
<stop offset="1" stop-color="#DAD2C5" stop-opacity="0"/>
</linearGradient>
</defs>
</svg>
