<svg width="42" height="42" viewBox="0 0 42 42" fill="none" xmlns="http://www.w3.org/2000/svg">
<path d="M38.8545 34.7587H3.14549C1.40823 34.7587 0 33.3504 0 31.6132V10.3869C0 8.64977 1.40823 7.24146 3.14549 7.24146H38.8545C40.5917 7.24146 42 8.64969 42 10.3869V31.6133C42 33.3504 40.5918 34.7587 38.8545 34.7587Z" fill="#FF4B55"/>
<path d="M28.9639 18.1034H23.8949V13.0345C23.8949 12.6346 23.5707 12.3103 23.1708 12.3103H18.8259C18.426 12.3103 18.1017 12.6346 18.1017 13.0345V18.1034H13.0328C12.6329 18.1034 12.3086 18.4277 12.3086 18.8276V23.1725C12.3086 23.5724 12.6329 23.8966 13.0328 23.8966H18.1017V28.9656C18.1017 29.3655 18.426 29.6898 18.8259 29.6898H23.1708C23.5707 29.6898 23.8949 29.3655 23.8949 28.9656V23.8965H28.9639C29.3638 23.8965 29.6881 23.5722 29.6881 23.1723V18.8274C29.6881 18.4276 29.3638 18.1034 28.9639 18.1034Z" fill="#F5F5F5"/>
</svg>
