<svg width="154" height="34" viewBox="0 0 154 34" fill="none" xmlns="http://www.w3.org/2000/svg">
<g clip-path="url(#clip0_10_13137)">
<path fill-rule="evenodd" clip-rule="evenodd" d="M145.307 10.9556H140.891V23.5974H145.307V16.9955C145.307 15.452 145.719 14.0424 147.515 14.0424C149.723 14.0424 149.583 16.1479 149.583 17.4148V23.5974H153.999V15.7286C153.999 12.6417 152.624 10.5273 149.311 10.5273C147.515 10.5273 146.28 11.0894 145.307 12.4901V10.9467V10.9556Z" fill="#1D1D1B"/>
<path fill-rule="evenodd" clip-rule="evenodd" d="M130.124 10.9556H125.848V23.5974H130.124V16.9955C130.124 15.452 130.676 14.0424 132.472 14.0424C134.68 14.0424 134.54 16.1479 134.54 17.4148V23.5974H138.956V15.7286C138.956 12.6417 137.581 10.5273 134.268 10.5273C132.472 10.5273 131.237 11.0894 130.264 12.4901H130.124V10.9467V10.9556Z" fill="#1D1D1B"/>
<path fill-rule="evenodd" clip-rule="evenodd" d="M117.015 14.4708C118.812 14.4708 119.916 15.7376 119.916 17.2811C119.916 18.9672 118.812 20.0913 117.015 20.0913C115.219 20.0913 114.115 18.9672 114.115 17.2811C114.115 15.7376 115.219 14.4708 117.015 14.4708ZM124.052 10.9557H119.635V12.2225C118.672 11.0984 117.156 10.5364 115.771 10.5364C112.047 10.5364 109.559 13.6232 109.559 17.2811C109.559 20.9389 112.179 24.0257 115.771 24.0257C117.287 24.0257 118.803 23.4637 119.495 22.1968H119.635V23.5975H124.052V10.9557Z" fill="#1D1D1B"/>
<path fill-rule="evenodd" clip-rule="evenodd" d="M92.0413 10.9556H87.625V23.5974H92.0413V17.5575C92.0413 16.1568 92.0413 14.0424 93.969 14.0424C95.8967 14.0424 95.8968 16.1479 95.8968 17.5575V23.5974H100.313V17.5575C100.313 16.0141 100.453 14.0424 102.381 14.0424C104.309 14.0424 104.177 16.2907 104.177 17.5575V23.5974H108.594V15.5859C108.594 12.6328 107.63 10.5273 104.458 10.5273C102.661 10.5273 101.005 11.366 100.182 12.9183C99.3579 11.2321 97.7018 10.5273 95.9055 10.5273C94.3896 10.5273 93.0051 11.0894 92.0413 12.4901V10.9467V10.9556Z" fill="#1D1D1B"/>
<path fill-rule="evenodd" clip-rule="evenodd" d="M72.5781 10.9556V18.5389C72.5781 22.7498 75.4785 24.0167 79.2025 24.0167C82.9266 24.0167 85.8269 22.7498 85.8269 18.5389V10.9556H81.4107V17.7003C81.4107 19.2437 80.9988 20.3678 79.2025 20.3678C77.4062 20.3678 76.9944 19.2437 76.9944 17.7003V10.9556H72.5781Z" fill="#1D1D1B"/>
<path fill-rule="evenodd" clip-rule="evenodd" d="M63.4768 14.4708C65.2731 14.4708 66.3772 15.7376 66.3772 17.2811C66.3772 18.9672 65.2731 20.0913 63.4768 20.0913C61.6805 20.0913 60.7166 18.9672 60.7166 17.2811C60.7166 15.7376 61.6805 14.4708 63.4768 14.4708ZM70.6532 10.9557H66.237V12.2225C65.2731 11.0984 63.7572 10.5364 62.3727 10.5364C58.6487 10.5364 56.1602 13.6232 56.1602 17.2811C56.1602 20.9389 58.7801 24.0257 62.5042 24.0257C63.8799 24.0257 65.4045 23.4637 66.2282 22.1968V23.5975H70.6445V10.9557H70.6532Z" fill="#1D1D1B"/>
<path fill-rule="evenodd" clip-rule="evenodd" d="M51.471 10.9557H47.0547V23.5976H51.471V18.539C51.471 16.2908 52.023 14.7474 54.5028 14.7474C55.195 14.7474 55.747 14.7474 56.2991 15.024V10.813H55.4666C53.8105 10.813 52.2946 11.375 51.4622 13.0612V10.9557H51.471Z" fill="#1D1D1B"/>
<path fill-rule="evenodd" clip-rule="evenodd" d="M44.2959 14.6136H46.7844V10.9557H44.2959V7.16406H39.8796V10.9557H38.5039V14.6136H39.8796V23.6065H44.2959V14.6136Z" fill="#1D1D1B"/>
<path fill-rule="evenodd" clip-rule="evenodd" d="M37.6683 11.384C36.4241 10.6792 35.0484 10.5454 33.6639 10.5454C30.9037 10.5454 28.1436 11.9461 28.1436 15.0419C28.1436 17.2901 29.5193 17.9949 30.9037 18.4142C32.2794 18.6908 33.6639 18.8335 33.6639 19.8149C33.6639 20.3769 32.8315 20.7963 32.2882 20.7963C31.1841 20.7963 29.6682 20.0915 28.8358 19.3956L27.1797 22.6252C28.6956 23.4638 30.3517 24.0259 32.148 24.0259C35.0484 24.0259 38.0802 22.6252 38.0802 19.2528C38.0802 17.0046 36.5643 16.0232 34.4963 15.6039C33.8041 15.4612 32.4284 15.3274 32.4284 14.4798C32.4284 13.775 33.3923 13.6412 33.8041 13.6412C34.6278 13.6412 35.6004 13.7839 36.1524 14.2032L37.6683 11.393V11.384Z" fill="#1D1D1B"/>
<path fill-rule="evenodd" clip-rule="evenodd" d="M23.5968 0C17.2528 4.21097 10.7598 8.70743 4.41581 13.0701C1.51544 15.3183 1.65564 18.6906 3.58338 21.5009L23.588 7.8688V0H23.5968Z" fill="#009178"/>
<path fill-rule="evenodd" clip-rule="evenodd" d="M0 34C6.34401 29.6463 12.837 25.1498 19.181 20.7961C22.0814 18.5479 21.9412 15.3183 20.0134 12.3652L0 26.1312V34Z" fill="#009178"/>
</g>
<defs>
<clipPath id="clip0_10_13137">
<rect width="154" height="34" fill="white"/>
</clipPath>
</defs>
</svg>
