<svg width="29" height="29" viewBox="0 0 29 29" fill="none" xmlns="http://www.w3.org/2000/svg">
<path d="M26.8281 5H2.17188C0.97235 5 0 5.97235 0 7.17189V21.8282C0 23.0277 0.97235 24.0001 2.17188 24.0001H26.8281C28.0276 24.0001 29 23.0278 29 21.8282V7.17189C29 5.97235 28.0277 5 26.8281 5Z" fill="#41479B"/>
<path d="M29 8.5H0V20.4999H29V8.5Z" fill="#F5F5F5"/>
<path d="M17.0965 14.5L18.3955 12.2502H15.7977L14.4985 10L13.1994 12.2502H10.6016L11.9005 14.5L10.6016 16.7498H13.1994L14.4985 19L15.7976 16.7499H18.3954L17.0965 14.5ZM17.1211 12.986L16.6717 13.7643L16.2224 12.986H17.1211ZM16.2469 14.5L15.3728 16.014H13.6241L12.7501 14.5L13.6242 12.986H15.3729L16.2469 14.5ZM14.4985 11.4716L14.948 12.2502H14.049L14.4985 11.4716ZM11.8759 12.986H12.7745L12.3252 13.7643L11.8759 12.986ZM11.8759 16.014L12.3252 15.2357L12.7746 16.014H11.8759ZM14.4985 17.5284L14.049 16.7498H14.948L14.4985 17.5284ZM16.6717 15.2358L17.1211 16.014H16.2225L16.6717 15.2358Z" fill="#41479B"/>
</svg>
