<svg width="29" height="29" viewBox="0 0 29 29" fill="none" xmlns="http://www.w3.org/2000/svg">
<path d="M26.8281 5H2.17188C0.97235 5 0 5.97235 0 7.17189V21.8282C0 23.0277 0.97235 24.0001 2.17188 24.0001H26.8281C28.0276 24.0001 29 23.0278 29 21.8282V7.17189C29 5.97235 28.0277 5 26.8281 5Z" fill="#F5F5F5"/>
<path d="M17.2743 10.3388C14.9767 8.80709 11.8736 9.43331 10.3429 11.7268C9.57516 12.8716 9.88725 14.4271 11.0359 15.1929C12.1837 15.9588 13.7343 15.6477 14.5001 14.499C15.266 13.3502 16.8175 13.0431 17.9653 13.8049C19.115 14.5707 19.4242 16.1262 18.6573 17.271C20.1889 14.9737 19.5698 11.8705 17.2743 10.3388Z" fill="#FF4B55"/>
<path d="M10.3441 11.7266C9.57632 12.8713 9.8884 14.4268 11.0371 15.1927C12.1849 15.9585 13.7354 15.6475 14.5013 14.4987C15.2671 13.35 16.8187 13.0428 17.9664 13.8047C19.1161 14.5705 19.4253 16.126 18.6584 17.2708C17.1288 19.5722 14.0266 20.1905 11.7291 18.6589C9.43369 17.1274 8.81246 14.0241 10.3441 11.7266Z" fill="#41479B"/>
<path d="M19.8224 8.44991L20.7306 9.81507C20.8069 9.92976 20.7761 10.0846 20.6616 10.1613L20.4313 10.3155C20.3164 10.3924 20.1608 10.3615 20.0841 10.2464L19.1748 8.88157C19.0983 8.76676 19.1293 8.61162 19.2441 8.53499L19.4755 8.38047C19.5905 8.30372 19.7458 8.33488 19.8224 8.44991Z" fill="#464655"/>
<path d="M21.2239 10.555L22.1351 11.9193C22.212 12.0345 22.1806 12.1904 22.065 12.2668L21.8337 12.4196C21.7189 12.4955 21.5644 12.4643 21.488 12.35L20.5773 10.9871C20.5006 10.8723 20.5314 10.7171 20.6463 10.6403L20.8771 10.486C20.9918 10.4093 21.1471 10.4402 21.2239 10.555Z" fill="#464655"/>
<path d="M20.7928 7.80082L23.1054 11.2714C23.1819 11.3862 23.1508 11.5414 23.036 11.618L22.8036 11.7729C22.6888 11.8494 22.5335 11.8184 22.4569 11.7035L20.1436 8.23322C20.0669 8.11829 20.0981 7.96298 20.2131 7.88641L20.4461 7.73127C20.5611 7.65497 20.7162 7.68595 20.7928 7.80082Z" fill="#464655"/>
<path d="M21.7645 7.15309L22.6747 8.52091C22.7514 8.63612 22.7199 8.79165 22.6044 8.86795L22.3729 9.02088C22.2581 9.09677 22.1035 9.06557 22.0271 8.95098L21.1163 7.58498C21.0396 7.47011 21.0707 7.31486 21.1856 7.23823L21.4178 7.08348C21.5326 7.00691 21.6879 7.038 21.7645 7.15309Z" fill="#464655"/>
<path d="M23.1654 9.26239L24.0742 10.6274C24.1507 10.7421 24.1197 10.8971 24.0051 10.9737L23.7743 11.128C23.6594 11.2048 23.5039 11.1738 23.4273 11.0587L22.5185 9.69376C22.4421 9.57901 22.473 9.42404 22.5876 9.34741L22.8184 9.19312C22.9334 9.11626 23.0888 9.14718 23.1654 9.26239Z" fill="#464655"/>
<path d="M7.51777 16.6514L9.83006 20.1182C9.90664 20.233 9.87572 20.3882 9.76085 20.4648L9.5293 20.6194C9.41443 20.6961 9.25918 20.6651 9.18249 20.5502L6.87019 17.0834C6.79356 16.9686 6.82454 16.8134 6.93941 16.7368L7.17101 16.5821C7.28582 16.5055 7.44113 16.5364 7.51777 16.6514Z" fill="#464655"/>
<path d="M6.54879 17.2998L7.45663 18.6615C7.53315 18.7763 7.50228 18.9312 7.3877 19.0079L7.1574 19.1621C7.04259 19.239 6.88716 19.2081 6.81042 19.0932L5.9015 17.7318C5.82481 17.617 5.85574 17.4617 5.97061 17.3851L6.20204 17.2305C6.31685 17.1539 6.47216 17.1849 6.54879 17.2998Z" fill="#464655"/>
<path d="M7.95145 19.4054L8.86031 20.7706C8.93677 20.8853 8.90579 21.0403 8.79109 21.1169L8.56011 21.2714C8.44519 21.3482 8.28982 21.3172 8.21313 21.2022L7.30371 19.8373C7.22719 19.7225 7.25817 19.5673 7.37292 19.4908L7.60447 19.3361C7.71945 19.2593 7.87482 19.2904 7.95145 19.4054Z" fill="#464655"/>
<path d="M5.577 17.9478L7.88783 21.4147C7.96435 21.5295 7.93337 21.6846 7.81878 21.7613L7.58786 21.9157C7.47299 21.9925 7.31763 21.9615 7.24094 21.8466L4.92875 18.38C4.85212 18.2652 4.88321 18.1099 4.99808 18.0333L5.23042 17.8784C5.34517 17.8019 5.50043 17.8329 5.577 17.9478Z" fill="#464655"/>
<path d="M6.87008 11.9194L9.18204 8.44979C9.25868 8.33481 9.41398 8.30378 9.52891 8.38047L9.7604 8.53504C9.87521 8.61167 9.90614 8.76687 9.82961 8.88168L7.51675 12.3494C7.44029 12.464 7.2856 12.4951 7.17079 12.4191L6.94021 12.2665C6.82477 12.1901 6.79339 12.0345 6.87008 11.9194Z" fill="#464655"/>
<path d="M5.90136 11.2721L8.21372 7.80182C8.29035 7.68684 8.44578 7.6558 8.5607 7.7326L8.79162 7.887C8.90626 7.96364 8.93719 8.11866 8.86072 8.23342L6.54899 11.7039C6.47236 11.8189 6.31705 11.85 6.20213 11.7732L5.97058 11.6187C5.85583 11.5421 5.82484 11.3869 5.90136 11.2721Z" fill="#464655"/>
<path d="M4.9286 10.6268L7.24118 7.15298C7.31781 7.03795 7.47329 7.00685 7.58821 7.08366L7.81914 7.23806C7.93372 7.31469 7.9647 7.46955 7.88835 7.58436L5.57719 11.0586C5.50067 11.1736 5.3453 11.2048 5.23038 11.1282L4.99815 10.9733C4.88323 10.8968 4.85219 10.7416 4.9286 10.6268Z" fill="#464655"/>
<path d="M19.1749 20.1181L20.0839 18.7567C20.1606 18.6418 20.316 18.6109 20.4308 18.6878L20.6611 18.842C20.7757 18.9186 20.8065 19.0736 20.73 19.1884L19.8222 20.55C19.7455 20.6649 19.5902 20.696 19.4754 20.6193L19.2439 20.4648C19.1292 20.3881 19.0983 20.2329 19.1749 20.1181Z" fill="#464655"/>
<path d="M20.577 18.0196L21.4874 16.6515C21.5639 16.5366 21.7193 16.5054 21.8342 16.582L22.0662 16.7367C22.1812 16.8133 22.2122 16.9687 22.1355 17.0835L21.2232 18.4495C21.1467 18.564 20.992 18.5951 20.8772 18.519L20.6471 18.3665C20.5318 18.29 20.5005 18.1347 20.577 18.0196Z" fill="#464655"/>
<path d="M20.1435 20.7698L21.053 19.4049C21.1296 19.2899 21.2848 19.2589 21.3998 19.3355L21.6322 19.4905C21.747 19.5671 21.7781 19.7222 21.7016 19.8371L20.7927 21.2021C20.7162 21.3171 20.561 21.3482 20.4461 21.2717L20.213 21.1166C20.0981 21.04 20.067 20.8847 20.1435 20.7698Z" fill="#464655"/>
<path d="M21.5461 18.6609L22.4561 17.2991C22.5328 17.1844 22.6879 17.1535 22.8027 17.23L23.035 17.3849C23.15 17.4615 23.181 17.6169 23.1042 17.7318L22.1942 19.0936C22.1175 19.2083 21.9624 19.2392 21.8477 19.1627L21.6153 19.0078C21.5003 18.9311 21.4693 18.7758 21.5461 18.6609Z" fill="#464655"/>
<path d="M21.1164 21.4146L22.0269 20.052C22.1034 19.9377 22.2578 19.9065 22.3726 19.9824L22.604 20.1353C22.7196 20.2116 22.751 20.3674 22.6742 20.4826L21.7644 21.8469C21.6878 21.9618 21.5325 21.9928 21.4177 21.9162L21.1856 21.7615C21.0706 21.6848 21.0396 21.5294 21.1164 21.4146Z" fill="#464655"/>
<path d="M22.5185 19.3126L23.4267 17.9484C23.5034 17.8333 23.6589 17.8022 23.7738 17.8791L24.0044 18.0333C24.1191 18.11 24.15 18.2651 24.0734 18.3799L23.1644 19.7422C23.088 19.8569 22.9331 19.888 22.8183 19.8119L22.5883 19.6595C22.4732 19.5831 22.4419 19.4276 22.5185 19.3126Z" fill="#464655"/>
</svg>
