<svg width="29" height="29" viewBox="0 0 29 29" fill="none" xmlns="http://www.w3.org/2000/svg">
<path d="M26.8281 24H2.17188C0.97235 24 0 23.0276 0 21.8281V7.17189C0 5.97241 0.97235 5 2.17188 5H26.8281C28.0276 5 29 5.97235 29 7.17189V21.8282C29 23.0276 28.0277 24 26.8281 24Z" fill="#FF4B55"/>
<path d="M20.0001 12.5H16.5001V9.00002C16.5001 8.7239 16.2762 8.5 16.0001 8.5H13C12.7239 8.5 12.5 8.7239 12.5 9.00002V12.5H9.00002C8.7239 12.5 8.5 12.7239 8.5 13V16.0001C8.5 16.2762 8.7239 16.5001 9.00002 16.5001H12.5V20.0001C12.5 20.2762 12.7239 20.5001 13 20.5001H16.0001C16.2762 20.5001 16.5001 20.2762 16.5001 20.0001V16.5H20.0001C20.2762 16.5 20.5001 16.2761 20.5001 16V12.9999C20.5001 12.7239 20.2762 12.5 20.0001 12.5Z" fill="#F5F5F5"/>
</svg>
