<svg width="53" height="53" viewBox="0 0 53 53" fill="none" xmlns="http://www.w3.org/2000/svg">
<g filter="url(#filter0_b_10_7948)">
<mask id="path-1-outside-1_10_7948" maskUnits="userSpaceOnUse" x="0" y="0" width="53" height="53" fill="black">
<rect fill="white" width="53" height="53"/>
<path fill-rule="evenodd" clip-rule="evenodd" d="M26.5 5C14.6259 5 5 14.6259 5 26.5C5 38.3741 14.6259 48 26.5 48C38.3741 48 48 38.3741 48 26.5C48 14.6259 38.3741 5 26.5 5ZM22.431 16.2018C23.745 16.0633 25.11 16 26.5 16C33.974 16 39 17.9681 39 19.7977C39 20.8698 37.355 21.9418 34.587 22.6865C34.473 22.7241 34.396 22.8121 34.396 22.9259V30.1277C33.171 30.0139 31.909 29.9131 30.633 29.8498C30.607 29.6856 30.569 29.5214 30.518 29.383L29.523 26.5446C29.319 25.9383 28.771 25.4972 28.133 25.3835C29.076 24.8287 29.727 23.8189 29.727 22.6588C29.727 20.8925 28.273 19.4545 26.5 19.4545C24.714 19.4545 23.273 20.8925 23.273 22.6588C23.273 23.8189 23.91 24.8287 24.867 25.3835C24.23 25.5101 23.681 25.9393 23.477 26.5446L22.482 29.383C22.4736 29.417 22.4635 29.4539 22.453 29.4927C22.4323 29.5687 22.4096 29.6522 22.393 29.736C22.393 29.7573 22.3891 29.7704 22.3855 29.7822C22.3826 29.7919 22.38 29.8006 22.38 29.8122C21.117 29.8626 19.88 29.9506 18.604 30.0772V22.9249C18.604 22.8121 18.528 22.7231 18.413 22.6855C15.645 21.9418 14 20.8698 14 19.7967C14 18.2203 17.469 16.7447 22.431 16.2018ZM38.387 21.5888C38.604 21.4374 38.77 21.2733 38.923 21.1091C38.9282 21.1039 38.9334 21.0988 38.9386 21.0937C38.9593 21.0734 38.9796 21.0535 38.998 21.033V32.2866L37.927 30.6469L37.774 30.4194C37.609 30.1544 37.302 30.0159 37.009 30.0535C36.716 30.0782 36.461 30.2424 36.346 30.4946C36.334 30.5203 36.321 30.545 36.308 30.5579L34.905 34.1904V23.1276C35.351 23.002 35.76 22.8626 36.155 22.7241C36.2211 22.702 36.2828 22.6759 36.3428 22.6506C36.3872 22.6318 36.4306 22.6135 36.474 22.5975C36.755 22.4848 37.01 22.371 37.252 22.2573C37.3318 22.2227 37.4222 22.1786 37.4955 22.1427L37.52 22.1307C37.826 21.9675 38.106 21.8034 38.336 21.6392C38.3534 21.6303 38.365 21.6156 38.3748 21.6031C38.3791 21.5977 38.383 21.5927 38.387 21.5888ZM36.896 26.7097C36.896 27.5177 37.202 28.3247 37.776 28.3247C38.337 28.3247 38.643 27.492 38.643 26.7097C38.643 25.8899 38.35 25.0571 37.776 25.0571C37.202 25.0571 36.896 25.8899 36.896 26.7097ZM37.406 26.7097C37.406 25.965 37.674 25.5744 37.776 25.5744C37.865 25.5744 38.133 25.9532 38.133 26.7097C38.133 27.4287 37.865 27.8194 37.776 27.8194C37.661 27.8194 37.406 27.404 37.406 26.7097ZM37.049 30.545C37.176 30.5579 37.278 30.5826 37.342 30.6963L38.849 32.9799C38.402 33.7998 37.05 34.5939 35.073 35.1745L36.769 30.7844C36.7746 30.7784 36.7804 30.7698 36.7864 30.761C36.7931 30.751 36.8001 30.7408 36.807 30.7339C36.845 30.633 36.934 30.5579 37.049 30.545ZM23.783 22.6608C23.783 21.1724 24.995 19.9737 26.5 19.9737C27.992 19.9737 29.217 21.1724 29.217 22.6608C29.217 24.1364 27.992 25.335 26.5 25.335C24.995 25.335 23.783 24.1364 23.783 22.6608ZM30.033 29.561C30.097 29.7123 30.135 29.9012 30.148 30.1158C30.148 30.1392 30.1508 30.1626 30.1536 30.1861C30.1568 30.2131 30.1601 30.2401 30.159 30.2671C30.159 30.5193 30.095 30.7844 30.006 31.0237L27.353 38H25.644L22.991 31.0365C22.889 30.7458 22.838 30.4432 22.851 30.1534C22.864 30.1287 22.864 30.0901 22.864 30.0525C22.864 29.8863 22.9211 29.6972 22.9594 29.57C22.9617 29.5625 22.9639 29.5552 22.966 29.5481L23.961 26.7097C24.127 26.2053 24.625 25.8394 25.173 25.8394H27.826C28.375 25.8394 28.872 26.2053 29.038 26.7097L30.033 29.561ZM17.189 30.5312C17.189 30.5569 17.201 30.5816 17.214 30.6073L18.094 33.4457V35.212C15.518 34.4802 14 33.4329 14 32.4112V31.0741L15.825 27.0371C15.863 26.9619 15.927 26.9491 15.965 26.9491C15.99 26.9491 16.08 26.9491 16.118 27.0499L17.189 30.5312ZM16.6459 22.646C16.7091 22.6727 16.7741 22.7003 16.844 22.7231C17.24 22.8626 17.648 23.001 18.095 23.1276V31.7061L17.687 30.3937C17.687 30.368 17.674 30.3423 17.661 30.3176L16.602 26.8986C16.513 26.6336 16.284 26.4575 16.003 26.4447C15.735 26.4318 15.467 26.5831 15.365 26.8353L14 29.8379V21.033C14.0087 21.0416 14.0173 21.0502 14.0259 21.0588C14.0429 21.0758 14.0597 21.0927 14.077 21.1091C14.23 21.2733 14.395 21.4365 14.612 21.5878C14.616 21.5917 14.6199 21.5967 14.6242 21.6022C14.634 21.6146 14.6456 21.6293 14.663 21.6382C14.892 21.8014 15.173 21.9656 15.479 22.1297C15.556 22.1683 15.658 22.2187 15.747 22.2563C15.989 22.3691 16.244 22.4828 16.525 22.5965C16.565 22.6117 16.6051 22.6286 16.6459 22.646Z"/>
</mask>
<path fill-rule="evenodd" clip-rule="evenodd" d="M26.5 5C14.6259 5 5 14.6259 5 26.5C5 38.3741 14.6259 48 26.5 48C38.3741 48 48 38.3741 48 26.5C48 14.6259 38.3741 5 26.5 5ZM22.431 16.2018C23.745 16.0633 25.11 16 26.5 16C33.974 16 39 17.9681 39 19.7977C39 20.8698 37.355 21.9418 34.587 22.6865C34.473 22.7241 34.396 22.8121 34.396 22.9259V30.1277C33.171 30.0139 31.909 29.9131 30.633 29.8498C30.607 29.6856 30.569 29.5214 30.518 29.383L29.523 26.5446C29.319 25.9383 28.771 25.4972 28.133 25.3835C29.076 24.8287 29.727 23.8189 29.727 22.6588C29.727 20.8925 28.273 19.4545 26.5 19.4545C24.714 19.4545 23.273 20.8925 23.273 22.6588C23.273 23.8189 23.91 24.8287 24.867 25.3835C24.23 25.5101 23.681 25.9393 23.477 26.5446L22.482 29.383C22.4736 29.417 22.4635 29.4539 22.453 29.4927C22.4323 29.5687 22.4096 29.6522 22.393 29.736C22.393 29.7573 22.3891 29.7704 22.3855 29.7822C22.3826 29.7919 22.38 29.8006 22.38 29.8122C21.117 29.8626 19.88 29.9506 18.604 30.0772V22.9249C18.604 22.8121 18.528 22.7231 18.413 22.6855C15.645 21.9418 14 20.8698 14 19.7967C14 18.2203 17.469 16.7447 22.431 16.2018ZM38.387 21.5888C38.604 21.4374 38.77 21.2733 38.923 21.1091C38.9282 21.1039 38.9334 21.0988 38.9386 21.0937C38.9593 21.0734 38.9796 21.0535 38.998 21.033V32.2866L37.927 30.6469L37.774 30.4194C37.609 30.1544 37.302 30.0159 37.009 30.0535C36.716 30.0782 36.461 30.2424 36.346 30.4946C36.334 30.5203 36.321 30.545 36.308 30.5579L34.905 34.1904V23.1276C35.351 23.002 35.76 22.8626 36.155 22.7241C36.2211 22.702 36.2828 22.6759 36.3428 22.6506C36.3872 22.6318 36.4306 22.6135 36.474 22.5975C36.755 22.4848 37.01 22.371 37.252 22.2573C37.3318 22.2227 37.4222 22.1786 37.4955 22.1427L37.52 22.1307C37.826 21.9675 38.106 21.8034 38.336 21.6392C38.3534 21.6303 38.365 21.6156 38.3748 21.6031C38.3791 21.5977 38.383 21.5927 38.387 21.5888ZM36.896 26.7097C36.896 27.5177 37.202 28.3247 37.776 28.3247C38.337 28.3247 38.643 27.492 38.643 26.7097C38.643 25.8899 38.35 25.0571 37.776 25.0571C37.202 25.0571 36.896 25.8899 36.896 26.7097ZM37.406 26.7097C37.406 25.965 37.674 25.5744 37.776 25.5744C37.865 25.5744 38.133 25.9532 38.133 26.7097C38.133 27.4287 37.865 27.8194 37.776 27.8194C37.661 27.8194 37.406 27.404 37.406 26.7097ZM37.049 30.545C37.176 30.5579 37.278 30.5826 37.342 30.6963L38.849 32.9799C38.402 33.7998 37.05 34.5939 35.073 35.1745L36.769 30.7844C36.7746 30.7784 36.7804 30.7698 36.7864 30.761C36.7931 30.751 36.8001 30.7408 36.807 30.7339C36.845 30.633 36.934 30.5579 37.049 30.545ZM23.783 22.6608C23.783 21.1724 24.995 19.9737 26.5 19.9737C27.992 19.9737 29.217 21.1724 29.217 22.6608C29.217 24.1364 27.992 25.335 26.5 25.335C24.995 25.335 23.783 24.1364 23.783 22.6608ZM30.033 29.561C30.097 29.7123 30.135 29.9012 30.148 30.1158C30.148 30.1392 30.1508 30.1626 30.1536 30.1861C30.1568 30.2131 30.1601 30.2401 30.159 30.2671C30.159 30.5193 30.095 30.7844 30.006 31.0237L27.353 38H25.644L22.991 31.0365C22.889 30.7458 22.838 30.4432 22.851 30.1534C22.864 30.1287 22.864 30.0901 22.864 30.0525C22.864 29.8863 22.9211 29.6972 22.9594 29.57C22.9617 29.5625 22.9639 29.5552 22.966 29.5481L23.961 26.7097C24.127 26.2053 24.625 25.8394 25.173 25.8394H27.826C28.375 25.8394 28.872 26.2053 29.038 26.7097L30.033 29.561ZM17.189 30.5312C17.189 30.5569 17.201 30.5816 17.214 30.6073L18.094 33.4457V35.212C15.518 34.4802 14 33.4329 14 32.4112V31.0741L15.825 27.0371C15.863 26.9619 15.927 26.9491 15.965 26.9491C15.99 26.9491 16.08 26.9491 16.118 27.0499L17.189 30.5312ZM16.6459 22.646C16.7091 22.6727 16.7741 22.7003 16.844 22.7231C17.24 22.8626 17.648 23.001 18.095 23.1276V31.7061L17.687 30.3937C17.687 30.368 17.674 30.3423 17.661 30.3176L16.602 26.8986C16.513 26.6336 16.284 26.4575 16.003 26.4447C15.735 26.4318 15.467 26.5831 15.365 26.8353L14 29.8379V21.033C14.0087 21.0416 14.0173 21.0502 14.0259 21.0588C14.0429 21.0758 14.0597 21.0927 14.077 21.1091C14.23 21.2733 14.395 21.4365 14.612 21.5878C14.616 21.5917 14.6199 21.5967 14.6242 21.6022C14.634 21.6146 14.6456 21.6293 14.663 21.6382C14.892 21.8014 15.173 21.9656 15.479 22.1297C15.556 22.1683 15.658 22.2187 15.747 22.2563C15.989 22.3691 16.244 22.4828 16.525 22.5965C16.565 22.6117 16.6051 22.6286 16.6459 22.646Z" fill="#9EA6B3"/>
<path d="M22.431 16.2018L21.907 11.2293L21.8971 11.2303L21.8871 11.2314L22.431 16.2018ZM34.587 22.6865L33.288 17.8582L33.1537 17.8944L33.0215 17.9379L34.587 22.6865ZM34.396 30.1277L33.9338 35.1063L39.396 35.6134V30.1277H34.396ZM30.633 29.8498L25.6945 30.6318L26.3297 34.6424L30.3853 34.8436L30.633 29.8498ZM30.518 29.383L25.7995 31.037L25.8126 31.0742L25.8262 31.1112L30.518 29.383ZM29.523 26.5446L24.7841 28.1392L24.7941 28.169L24.8045 28.1986L29.523 26.5446ZM28.133 25.3835L25.5975 21.0741L13.9408 27.9324L27.2555 30.3059L28.133 25.3835ZM24.867 25.3835L25.8416 30.2876L38.8395 27.7045L27.3748 21.0579L24.867 25.3835ZM23.477 26.5446L28.1955 28.1986L28.2055 28.1701L28.2151 28.1415L23.477 26.5446ZM22.482 29.383L17.7635 27.7289L17.6855 27.9514L17.6288 28.1803L22.482 29.383ZM22.453 29.4927L17.6285 28.1796L17.6285 28.1796L22.453 29.4927ZM22.393 29.736L17.4877 28.7673L17.393 29.247V29.736H22.393ZM22.3855 29.7822L17.5962 28.3461L17.5961 28.3464L22.3855 29.7822ZM22.38 29.8122L22.5795 34.8082L27.38 34.6165V29.8122H22.38ZM18.604 30.0772H13.604V35.5978L19.0976 35.0528L18.604 30.0772ZM18.413 22.6855L19.9662 17.9329L19.8393 17.8914L19.7104 17.8568L18.413 22.6855ZM38.923 21.1091L35.407 17.5541L35.3346 17.6257L35.2652 17.7002L38.923 21.1091ZM38.387 21.5888L35.5272 17.4874L35.1753 17.7327L34.8703 18.0344L38.387 21.5888ZM38.9386 21.0937L42.4405 24.6626L42.4408 24.6623L38.9386 21.0937ZM38.998 21.033H43.998V7.94376L35.2714 17.6994L38.998 21.033ZM38.998 32.2866L34.8118 35.0208L43.998 49.0852V32.2866H38.998ZM37.927 30.6469L42.1132 27.9127L42.0947 27.8844L42.0758 27.8563L37.927 30.6469ZM37.774 30.4194L33.5293 33.0619L33.5759 33.1368L33.6252 33.21L37.774 30.4194ZM37.009 30.0535L37.4294 35.0358L37.5375 35.0267L37.6451 35.0129L37.009 30.0535ZM36.346 30.4946L40.8768 32.6092L40.8862 32.5892L40.8953 32.5691L36.346 30.4946ZM36.308 30.5579L32.7918 27.0031L32.0299 27.7567L31.6438 28.7564L36.308 30.5579ZM34.905 34.1904H29.905L39.5692 35.9919L34.905 34.1904ZM34.905 23.1276L33.5496 18.3148L29.905 19.3412V23.1276H34.905ZM36.155 22.7241L34.565 17.9837L34.5329 17.9944L34.501 18.0056L36.155 22.7241ZM36.3428 22.6506L34.3985 18.0441L34.3985 18.0441L36.3428 22.6506ZM36.474 22.5975L38.2027 27.2892L38.2696 27.2645L38.3358 27.238L36.474 22.5975ZM37.252 22.2573L35.2638 17.6696L35.1941 17.6998L35.1253 17.7321L37.252 22.2573ZM37.4955 22.1427L35.3004 17.6503L35.2992 17.6509L37.4955 22.1427ZM37.52 22.1307L39.7151 26.6231L39.7947 26.5842L39.8728 26.5426L37.52 22.1307ZM38.336 21.6392L36.0493 17.1927L35.7266 17.3587L35.4311 17.5696L38.336 21.6392ZM38.3748 21.6031L42.3002 24.7001L42.3002 24.7001L38.3748 21.6031ZM37.342 30.6963L32.9845 33.1483L33.0713 33.3026L33.1688 33.4503L37.342 30.6963ZM37.049 30.545L37.5526 25.5704L37.0227 25.5168L36.4935 25.576L37.049 30.545ZM38.849 32.9799L43.2389 35.3733L44.6777 32.7345L43.0222 30.2259L38.849 32.9799ZM35.073 35.1745L30.4089 33.3726L26.7562 42.8277L36.4817 39.9719L35.073 35.1745ZM36.769 30.7844L33.1136 27.3729L32.4536 28.0801L32.1049 28.9825L36.769 30.7844ZM36.7864 30.761L32.6475 27.9557L32.647 27.9564L36.7864 30.761ZM36.807 30.7339L40.3229 34.289L41.1005 33.5199L41.486 32.4965L36.807 30.7339ZM30.148 30.1158H35.148V29.9645L35.1389 29.8135L30.148 30.1158ZM30.033 29.561L25.3122 31.2084L25.3652 31.3604L25.428 31.5087L30.033 29.561ZM30.1536 30.1861L25.189 30.78L25.189 30.7801L30.1536 30.1861ZM30.159 30.2671L25.1629 30.0693L25.159 30.1681V30.2671H30.159ZM30.006 31.0237L34.6795 32.8009L34.686 32.7837L34.6925 32.7664L30.006 31.0237ZM27.353 38V43H30.8009L32.0265 39.7773L27.353 38ZM25.644 38L20.9716 39.7801L22.1984 43H25.644V38ZM22.991 31.0365L18.2729 32.6917L18.2949 32.7545L18.3186 32.8167L22.991 31.0365ZM22.851 30.1534L18.4255 27.8264L17.906 28.8143L17.856 29.9293L22.851 30.1534ZM22.9594 29.57L27.7464 31.014L27.7465 31.0135L22.9594 29.57ZM22.966 29.5481L18.2475 27.8941L18.21 28.0012L18.1773 28.11L22.966 29.5481ZM23.961 26.7097L28.6795 28.3638L28.6954 28.3185L28.7104 28.2728L23.961 26.7097ZM29.038 26.7097L24.2886 28.2728L24.3025 28.3151L24.3172 28.3572L29.038 26.7097ZM17.214 30.6073L21.9897 29.1267L21.8655 28.7259L21.6762 28.3514L17.214 30.6073ZM17.189 30.5312H22.189V29.7794L21.968 29.0609L17.189 30.5312ZM18.094 33.4457H23.094V32.6884L22.8697 31.9651L18.094 33.4457ZM18.094 35.212L16.7276 40.0217L23.094 41.8304V35.212H18.094ZM14 31.0741L9.44392 29.0145L9 29.9965V31.0741H14ZM15.825 27.0371L11.3628 24.7812L11.3137 24.8783L11.2689 24.9774L15.825 27.0371ZM16.118 27.0499L20.897 25.5797L20.8515 25.432L20.797 25.2873L16.118 27.0499ZM16.844 22.7231L18.5047 18.007L18.4511 17.9881L18.3971 17.9705L16.844 22.7231ZM16.6459 22.646L18.597 18.0423L18.5969 18.0423L16.6459 22.646ZM18.095 23.1276H23.095V19.347L19.4574 18.3168L18.095 23.1276ZM18.095 31.7061L13.3204 33.1904L23.095 31.7061H18.095ZM17.687 30.3937H12.687V31.153L12.9124 31.878L17.687 30.3937ZM17.661 30.3176L12.8849 31.7969L13.0211 32.2368L13.2354 32.6444L17.661 30.3176ZM16.602 26.8986L21.3781 25.4192L21.3607 25.3629L21.3419 25.307L16.602 26.8986ZM16.003 26.4447L15.7634 31.439L15.7745 31.4395L16.003 26.4447ZM15.365 26.8353L19.9167 28.9046L19.9605 28.8082L20.0002 28.7101L15.365 26.8353ZM14 29.8379H9L18.5517 31.9072L14 29.8379ZM14 21.033L17.5158 17.4778L9 9.05619V21.033H14ZM14.0259 21.0588L10.487 24.5909L10.4871 24.591L14.0259 21.0588ZM14.077 21.1091L17.7348 17.7002L17.6319 17.5898L17.5225 17.4858L14.077 21.1091ZM14.612 21.5878L18.1278 18.0326L17.8232 17.7314L17.4719 17.4864L14.612 21.5878ZM14.6242 21.6022L18.5495 18.505L18.549 18.5044L14.6242 21.6022ZM14.663 21.6382L17.5646 17.5663L17.2708 17.3569L16.9499 17.1918L14.663 21.6382ZM15.479 22.1297L13.1152 26.5357L13.177 26.5688L13.2397 26.6002L15.479 22.1297ZM15.747 22.2563L17.8585 17.7241L17.7759 17.6856L17.692 17.6501L15.747 22.2563ZM16.525 22.5965L14.6491 27.2313L14.7026 27.2529L14.7565 27.2733L16.525 22.5965ZM10 26.5C10 17.3873 17.3873 10 26.5 10V0C11.8645 0 0 11.8645 0 26.5H10ZM26.5 43C17.3873 43 10 35.6127 10 26.5H0C0 41.1355 11.8645 53 26.5 53V43ZM43 26.5C43 35.6127 35.6127 43 26.5 43V53C41.1355 53 53 41.1355 53 26.5H43ZM26.5 10C35.6127 10 43 17.3873 43 26.5H53C53 11.8645 41.1355 0 26.5 0V10ZM26.5 11C24.9609 11 23.4191 11.07 21.907 11.2293L22.955 21.1742C24.0709 21.0566 25.2591 21 26.5 21V11ZM44 19.7977C44 16.9663 42.1251 15.2042 41.1015 14.4351C39.9164 13.5447 38.4948 12.917 37.1153 12.4632C34.301 11.5373 30.6257 11 26.5 11V21C29.8483 21 32.423 21.4467 33.9902 21.9623C34.8015 22.2292 35.1034 22.4366 35.0943 22.4298C35.0813 22.4199 34.8546 22.2522 34.6043 21.8754C34.3383 21.4749 34 20.7592 34 19.7977H44ZM35.886 27.5148C37.5414 27.0695 39.2005 26.4437 40.5677 25.5498C41.671 24.8284 44 22.9878 44 19.7977H34C34 18.7239 34.4236 17.9642 34.7019 17.5938C34.9605 17.2494 35.1643 17.1349 35.0953 17.18C35.0469 17.2117 34.8809 17.3093 34.5536 17.443C34.2346 17.5733 33.8147 17.7165 33.288 17.8582L35.886 27.5148ZM39.396 22.9259C39.396 25.4422 37.6014 26.9575 36.1525 27.4351L33.0215 17.9379C31.3446 18.4908 29.396 20.1821 29.396 22.9259H39.396ZM39.396 30.1277V22.9259H29.396V30.1277H39.396ZM30.3853 34.8436C31.5646 34.9021 32.7498 34.9963 33.9338 35.1063L34.8582 25.1491C33.5922 25.0315 32.2534 24.924 30.8807 24.8559L30.3853 34.8436ZM25.8262 31.1112C25.7721 30.9643 25.7417 30.8508 25.7257 30.785C25.7089 30.7157 25.6997 30.6641 25.6945 30.6318L35.5715 29.0677C35.5138 28.7038 35.4099 28.1979 35.2098 27.6547L25.8262 31.1112ZM24.8045 28.1986L25.7995 31.037L35.2365 27.7289L34.2415 24.8905L24.8045 28.1986ZM27.2555 30.3059C26.2541 30.1274 25.2125 29.4122 24.7841 28.1392L34.2619 24.9499C33.4255 22.4645 31.2879 20.8671 29.0105 20.4611L27.2555 30.3059ZM24.727 22.6588C24.727 21.8832 25.1605 21.3312 25.5975 21.0741L30.6685 29.6929C32.9915 28.3262 34.727 25.7547 34.727 22.6588H24.727ZM26.5 24.4545C25.5508 24.4545 24.727 23.693 24.727 22.6588H34.727C34.727 18.092 30.9952 14.4545 26.5 14.4545V24.4545ZM28.273 22.6588C28.273 23.6799 27.4494 24.4545 26.5 24.4545V14.4545C21.9786 14.4545 18.273 18.1051 18.273 22.6588H28.273ZM27.3748 21.0579C27.8537 21.3355 28.273 21.9158 28.273 22.6588H18.273C18.273 25.7221 19.9663 28.3218 22.3592 29.7091L27.3748 21.0579ZM28.2151 28.1415C27.766 29.474 26.6962 30.1178 25.8416 30.2876L23.8924 20.4794C21.7638 20.9024 19.596 22.4046 18.7389 24.9476L28.2151 28.1415ZM27.2005 31.037L28.1955 28.1986L18.7585 24.8905L17.7635 27.7289L27.2005 31.037ZM27.2775 30.8058C27.2844 30.7803 27.3104 30.6856 27.3352 30.5856L17.6288 28.1803C17.6316 28.169 17.6338 28.1604 17.6351 28.1554C17.6364 28.1505 17.6371 28.1479 17.6369 28.1484C17.6367 28.1491 17.6361 28.1515 17.6346 28.157C17.633 28.1629 17.6313 28.1693 17.6285 28.1796L27.2775 30.8058ZM27.2983 30.7048C27.2841 30.7762 27.2719 30.825 27.2687 30.8378C27.2668 30.8452 27.2662 30.8476 27.2677 30.8418C27.2695 30.8349 27.2719 30.8264 27.2775 30.8057L17.6285 28.1796C17.6149 28.2296 17.5441 28.4817 17.4877 28.7673L27.2983 30.7048ZM27.1748 31.2183C27.2188 31.0717 27.393 30.4982 27.393 29.736H17.393C17.393 29.4222 17.4236 29.1143 17.4808 28.8173C17.5329 28.5463 17.6009 28.3303 17.5962 28.3461L27.1748 31.2183ZM27.38 29.8122C27.38 30.6148 27.1674 31.2432 27.1749 31.218L17.5961 28.3464C17.5961 28.3465 17.595 28.3502 17.5937 28.3545C17.5923 28.359 17.5902 28.3663 17.5876 28.3751C17.5825 28.3925 17.5743 28.4207 17.5647 28.4554C17.5455 28.5247 17.5169 28.6332 17.4887 28.7674C17.4281 29.0556 17.38 29.4086 17.38 29.8122H27.38ZM19.0976 35.0528C20.282 34.9353 21.4207 34.8545 22.5795 34.8082L22.1805 24.8162C20.8133 24.8708 19.478 24.966 18.1104 25.1017L19.0976 35.0528ZM13.604 22.9249V30.0772H23.604V22.9249H13.604ZM16.8598 27.4382C15.3676 26.9505 13.604 25.4126 13.604 22.9249H23.604C23.604 20.2116 21.6884 18.4957 19.9662 17.9329L16.8598 27.4382ZM9 19.7967C9 22.986 11.3272 24.827 12.4323 25.5495C13.8001 26.4438 15.4599 27.0694 17.1156 27.5143L19.7104 17.8568C19.1839 17.7153 18.7642 17.5723 18.4454 17.4422C18.1184 17.3087 17.9528 17.2112 17.9047 17.1797C17.8361 17.1349 18.0401 17.2496 18.2988 17.5943C18.5772 17.9651 19 18.7243 19 19.7967H9ZM21.8871 11.2314C19.1086 11.5355 16.481 12.1229 14.3948 13.0118C13.3699 13.4485 12.22 14.0647 11.2443 14.9574C10.2948 15.8262 9 17.4517 9 19.7967H19C19 21.3535 18.1388 22.2034 17.9948 22.3352C17.8247 22.4908 17.8521 22.4086 18.3147 22.2115C19.2035 21.8328 20.7914 21.411 22.9749 21.1721L21.8871 11.2314ZM35.2652 17.7002C35.2114 17.758 35.323 17.6297 35.5272 17.4874L41.2468 25.6901C41.8849 25.2452 42.3286 24.7886 42.5808 24.518L35.2652 17.7002ZM35.4367 17.5249C35.4325 17.529 35.4204 17.5409 35.407 17.5541L42.439 24.6641C42.4371 24.666 42.436 24.667 42.4363 24.6667C42.4369 24.6662 42.4377 24.6653 42.4405 24.6626L35.4367 17.5249ZM35.2714 17.6994C35.3347 17.6287 35.3859 17.5761 35.4112 17.5505C35.4337 17.5277 35.452 17.5099 35.4365 17.5251L42.4408 24.6623C42.4459 24.6573 42.4847 24.6194 42.5271 24.5764C42.5724 24.5306 42.6429 24.4578 42.7246 24.3665L35.2714 17.6994ZM43.998 32.2866V21.033H33.998V32.2866H43.998ZM33.7408 33.3811L34.8118 35.0208L43.1842 29.5524L42.1132 27.9127L33.7408 33.3811ZM33.6252 33.21L33.7782 33.4375L42.0758 27.8563L41.9228 27.6288L33.6252 33.21ZM37.6451 35.0129C36.025 35.2207 34.4123 34.4803 33.5293 33.0619L42.0187 27.777C40.8057 25.8284 38.579 24.8112 36.3729 25.0941L37.6451 35.0129ZM40.8953 32.5691C40.1649 34.1709 38.6949 34.929 37.4294 35.0358L36.5886 25.0712C34.7371 25.2274 32.7571 26.3139 31.7967 28.4201L40.8953 32.5691ZM39.8242 34.1127C40.3009 33.6411 40.5701 33.1819 40.6536 33.0378C40.7681 32.8402 40.8461 32.675 40.8768 32.6092L31.8152 28.3799C31.8339 28.3399 31.8994 28.1999 32.0011 28.0243C32.0544 27.9324 32.1369 27.7971 32.2491 27.6399C32.3561 27.4901 32.535 27.2571 32.7918 27.0031L39.8242 34.1127ZM39.5692 35.9919L40.9722 32.3593L31.6438 28.7564L30.2408 32.389L39.5692 35.9919ZM29.905 23.1276V34.1904H39.905V23.1276H29.905ZM34.501 18.0056C34.1277 18.1365 33.8392 18.2333 33.5496 18.3148L36.2604 27.9404C36.8628 27.7708 37.3923 27.5887 37.809 27.4426L34.501 18.0056ZM34.3985 18.0441C34.3816 18.0512 34.378 18.0527 34.3761 18.0535C34.3756 18.0537 34.3839 18.0503 34.3976 18.0448C34.4248 18.0339 34.4843 18.0107 34.565 17.9837L37.745 27.4646C38.0185 27.3728 38.25 27.2727 38.2871 27.2571L34.3985 18.0441ZM34.7453 17.9059C34.5743 17.9689 34.423 18.0337 34.3985 18.0441L38.287 27.2571C38.2993 27.2519 38.3038 27.25 38.3072 27.2486C38.3099 27.2474 38.3069 27.2487 38.3005 27.2513C38.2887 27.2562 38.253 27.2706 38.2027 27.2892L34.7453 17.9059ZM35.1253 17.7321C34.9474 17.8157 34.7829 17.8886 34.6122 17.9571L38.3358 27.238C38.7271 27.081 39.0726 26.9264 39.3787 26.7825L35.1253 17.7321ZM35.2992 17.6509C35.2801 17.6602 35.2669 17.6667 35.2541 17.6729C35.2419 17.6788 35.2338 17.6827 35.2286 17.6852C35.2232 17.6878 35.2233 17.6877 35.2277 17.6857C35.2317 17.6838 35.2443 17.6781 35.2638 17.6696L39.2402 26.845C39.4447 26.7564 39.6415 26.6591 39.6918 26.6345L35.2992 17.6509ZM35.3249 17.6384L35.3004 17.6503L39.6906 26.6351L39.7151 26.6231L35.3249 17.6384ZM35.4311 17.5696C35.4512 17.5552 35.4414 17.5636 35.3895 17.5946C35.3393 17.6246 35.267 17.6657 35.1672 17.7189L39.8728 26.5426C40.2658 26.333 40.7591 26.0527 41.2409 25.7088L35.4311 17.5696ZM34.4494 18.5062C34.4234 18.5391 34.5854 18.3259 34.8098 18.0998C35.0578 17.85 35.4655 17.4929 36.0493 17.1927L40.6227 26.0857C41.2238 25.7765 41.646 25.4076 41.9066 25.1451C42.0364 25.0144 42.1355 24.9003 42.1983 24.8254C42.2302 24.7874 42.2558 24.7558 42.2724 24.7351C42.2808 24.7246 42.2876 24.716 42.2922 24.7102C42.2964 24.705 42.3 24.7003 42.3002 24.7001L34.4494 18.5062ZM34.8703 18.0344C34.711 18.1921 34.5958 18.3274 34.5407 18.3935C34.5103 18.4299 34.4863 18.4598 34.4725 18.477C34.4653 18.486 34.4595 18.4934 34.4558 18.498C34.4525 18.5023 34.4495 18.5061 34.4493 18.5062L42.3002 24.7001C42.3113 24.686 42.2704 24.7384 42.2213 24.7973C42.1703 24.8585 42.059 24.9894 41.9036 25.1431L34.8703 18.0344ZM37.776 23.3247C40.2555 23.3247 41.3786 25.1462 41.6113 25.6213C41.8861 26.1825 41.896 26.5801 41.896 26.7097H31.896C31.896 27.6473 32.0589 28.8525 32.6302 30.0191C33.1594 31.0998 34.7225 33.3247 37.776 33.3247V23.3247ZM33.643 26.7097C33.643 26.5475 33.6596 26.1742 33.9109 25.6498C34.083 25.2906 35.178 23.3247 37.776 23.3247V33.3247C40.935 33.3247 42.4635 30.9425 42.9289 29.9714C43.4734 28.8351 43.643 27.6542 43.643 26.7097H33.643ZM37.776 30.0571C35.1906 30.0571 34.0865 28.1031 33.894 27.6907C33.644 27.155 33.643 26.7956 33.643 26.7097H43.643C43.643 25.804 43.4955 24.6183 42.9555 23.4613C42.473 22.4275 40.9354 20.0571 37.776 20.0571V30.0571ZM41.896 26.7097C41.896 26.8241 41.8891 27.1932 41.6333 27.7294C41.4386 28.1373 40.3348 30.0571 37.776 30.0571V20.0571C34.6432 20.0571 33.0994 22.3933 32.6082 23.4226C32.0559 24.5801 31.896 25.7755 31.896 26.7097H41.896ZM37.776 20.5744C36.2704 20.5744 35.2304 21.2357 34.8358 21.516C34.3474 21.8628 34.0103 22.2303 33.8047 22.4816C33.3834 22.9969 33.1133 23.5188 32.9397 23.9341C32.576 24.804 32.406 25.7533 32.406 26.7097H42.406C42.406 26.9214 42.37 27.3031 42.1658 27.7914C42.0719 28.016 41.888 28.3937 41.5456 28.8125C41.3795 29.0155 41.08 29.3467 40.6258 29.6692C40.2654 29.9252 39.2561 30.5744 37.776 30.5744V20.5744ZM43.133 26.7097C43.133 25.7538 42.9652 24.8121 42.6096 23.9506C42.4396 23.5388 42.1804 23.0333 41.7827 22.5333C41.5906 22.2917 41.2721 21.9321 40.8089 21.5862C40.4815 21.3416 39.3955 20.5744 37.776 20.5744V30.5744C36.1787 30.5744 35.1206 29.819 34.8249 29.5981C34.3933 29.2758 34.1104 28.9518 33.9559 28.7575C33.6336 28.3521 33.458 27.9886 33.3661 27.7661C33.1668 27.2831 33.133 26.9091 33.133 26.7097H43.133ZM37.776 32.8194C39.4381 32.8194 40.5418 32.0112 40.8492 31.7768C41.3038 31.43 41.6148 31.0729 41.7994 30.8381C42.1832 30.3502 42.4361 29.8584 42.6034 29.4569C42.9537 28.6159 43.133 27.6796 43.133 26.7097H33.133C33.133 26.4589 33.1783 26.0774 33.3724 25.6114C33.4615 25.3974 33.6308 25.0483 33.9393 24.6561C34.0862 24.4692 34.3617 24.1482 34.7846 23.8256C35.0603 23.6153 36.1362 22.8194 37.776 22.8194V32.8194ZM32.406 26.7097C32.406 27.6485 32.5753 28.5766 32.9213 29.421C33.0859 29.8226 33.3503 30.3515 33.7748 30.8789C33.983 31.1376 34.3306 31.5222 34.8402 31.8825C35.2854 32.1974 36.3131 32.8194 37.776 32.8194V22.8194C39.2101 22.8194 40.2048 23.4284 40.614 23.7178C41.0876 24.0527 41.3964 24.3994 41.5646 24.6084C41.9089 25.0361 42.0879 25.4178 42.1744 25.6288C42.3642 26.0919 42.406 26.4652 42.406 26.7097H32.406ZM41.6995 28.2443C40.3407 25.8297 37.9205 25.6077 37.5526 25.5704L36.5454 35.5196C36.5151 35.5165 35.9022 35.47 35.1838 35.1498C34.2868 34.7501 33.4977 34.0603 32.9845 33.1483L41.6995 28.2443ZM43.0222 30.2259L41.5152 27.9423L33.1688 33.4503L34.6758 35.7339L43.0222 30.2259ZM36.4817 39.9719C37.7378 39.6031 38.9688 39.1184 40.0525 38.4868C41.041 37.9106 42.3863 36.9372 43.2389 35.3733L34.4591 30.5865C34.6837 30.1744 34.9182 29.9476 35.0002 29.8737C35.0894 29.7933 35.1114 29.7921 35.017 29.8471C34.9283 29.8988 34.7725 29.9792 34.5366 30.076C34.3032 30.1717 34.0131 30.2746 33.6643 30.377L36.4817 39.9719ZM32.1049 28.9825L30.4089 33.3726L39.7371 36.9763L41.4331 32.5862L32.1049 28.9825ZM32.647 27.9564C32.6344 27.975 32.6777 27.9103 32.7307 27.8373C32.7798 27.7696 32.9144 27.5864 33.1136 27.3729L40.4244 34.1958C40.6292 33.9764 40.7696 33.7858 40.8244 33.7102C40.8581 33.6638 40.8845 33.6257 40.8996 33.6038C40.9076 33.5923 40.914 33.5828 40.9182 33.5767C40.922 33.5711 40.9254 33.566 40.9257 33.5656L32.647 27.9564ZM33.2911 27.1789C33.0233 27.4437 32.8446 27.6811 32.7755 27.7747C32.7328 27.8325 32.6995 27.8801 32.6803 27.9077C32.6703 27.9223 32.6621 27.9342 32.6569 27.9419C32.652 27.949 32.6477 27.9553 32.6475 27.9557L40.9252 33.5663C40.9403 33.5441 40.8857 33.6259 40.8178 33.7179C40.7555 33.8021 40.5838 34.031 40.3229 34.289L33.2911 27.1789ZM36.4935 25.576C34.4148 25.8083 32.7939 27.2035 32.128 28.9713L41.486 32.4965C40.8961 34.0625 39.4531 35.3074 37.6045 35.5141L36.4935 25.576ZM26.5 14.9737C22.2859 14.9737 18.783 18.3589 18.783 22.6608H28.783C28.783 23.9859 27.7041 24.9737 26.5 24.9737V14.9737ZM34.217 22.6608C34.217 18.3434 30.6854 14.9737 26.5 14.9737V24.9737C25.2986 24.9737 24.217 24.0014 24.217 22.6608H34.217ZM26.5 30.335C30.6697 30.335 34.217 26.9808 34.217 22.6608H24.217C24.217 21.2919 25.3143 20.335 26.5 20.335V30.335ZM18.783 22.6608C18.783 26.9654 22.3016 30.335 26.5 30.335V20.335C27.6883 20.335 28.783 21.3074 28.783 22.6608H18.783ZM35.1389 29.8135C35.1037 29.2325 34.9896 28.4443 34.638 27.6132L25.428 31.5087C25.3101 31.2301 25.2471 30.9919 25.2122 30.8222C25.1767 30.6498 25.1628 30.5118 25.1572 30.4181L35.1389 29.8135ZM35.1182 29.5921C35.1153 29.5679 35.1231 29.6298 35.1297 29.7041C35.1371 29.7865 35.148 29.9322 35.148 30.1158H25.148C25.148 30.3228 25.1603 30.4919 25.1698 30.5978C25.1746 30.6518 25.1794 30.6966 25.1827 30.7258C25.1858 30.7531 25.1887 30.7773 25.189 30.78L35.1182 29.5921ZM35.1551 30.465C35.1659 30.1916 35.1532 29.9681 35.1421 29.8287C35.1364 29.7576 35.1303 29.699 35.1261 29.6611C35.1223 29.6259 35.1185 29.5947 35.1182 29.592L25.189 30.7801C25.1926 30.8102 25.1819 30.7257 25.1738 30.6245C25.1648 30.5121 25.1532 30.3157 25.1629 30.0693L35.1551 30.465ZM34.6925 32.7664C34.9085 32.1853 35.159 31.3077 35.159 30.2671H25.159C25.159 29.9788 25.1945 29.7548 25.225 29.6114C25.2562 29.4646 25.2923 29.3542 25.3195 29.2809L34.6925 32.7664ZM32.0265 39.7773L34.6795 32.8009L25.3325 29.2464L22.6795 36.2227L32.0265 39.7773ZM25.644 43H27.353V33H25.644V43ZM18.3186 32.8167L20.9716 39.7801L30.3164 36.2199L27.6634 29.2564L18.3186 32.8167ZM17.856 29.9293C17.8104 30.9453 17.9906 31.8869 18.2729 32.6917L27.7091 29.3814C27.7874 29.6046 27.8656 29.941 27.846 30.3775L17.856 29.9293ZM17.864 30.0525C17.864 30.124 17.86 29.9008 17.884 29.6436C17.8978 29.4956 17.9266 29.2597 17.9944 28.9746C18.0614 28.6931 18.1852 28.2834 18.4255 27.8264L27.2765 32.4803C27.7367 31.6052 27.8178 30.8183 27.8408 30.5719C27.8565 30.4032 27.8609 30.2664 27.8626 30.19C27.8635 30.1492 27.8638 30.1154 27.8639 30.0936C27.864 30.0732 27.864 30.0549 27.864 30.0525H17.864ZM18.1725 28.126C18.1575 28.1755 18.0844 28.4123 18.0214 28.6898C17.9621 28.9507 17.864 29.4451 17.864 30.0525H27.864C27.864 30.2896 27.8442 30.4806 27.8266 30.6085C27.8085 30.7392 27.7875 30.8406 27.7733 30.9034C27.7484 31.013 27.7229 31.0917 27.7464 31.014L18.1725 28.126ZM18.1773 28.11C18.1762 28.1137 18.1749 28.118 18.1723 28.1265L27.7465 31.0135C27.7485 31.007 27.7516 30.9966 27.7547 30.9863L18.1773 28.11ZM19.2425 25.0557L18.2475 27.8941L27.6845 31.2022L28.6795 28.3638L19.2425 25.0557ZM25.173 20.8394C22.4697 20.8394 20.0538 22.5877 19.2116 25.1466L28.7104 28.2728C28.2002 29.823 26.7803 30.8394 25.173 30.8394V20.8394ZM27.826 20.8394H25.173V30.8394H27.826V20.8394ZM33.7874 25.1466C32.9459 22.5899 30.5326 20.8394 27.826 20.8394V30.8394C26.2174 30.8394 24.7981 29.8208 24.2886 28.2728L33.7874 25.1466ZM34.7538 27.9136L33.7588 25.0623L24.3172 28.3572L25.3122 31.2084L34.7538 27.9136ZM21.6762 28.3514C21.6767 28.3525 21.6839 28.3666 21.6933 28.3857C21.703 28.4054 21.7183 28.4367 21.7365 28.4759C21.7716 28.5511 21.8297 28.6808 21.8908 28.8475C22.0103 29.1732 22.189 29.7658 22.189 30.5312H12.189C12.189 31.3222 12.3737 31.9401 12.5024 32.291C12.5682 32.4703 12.6318 32.6127 12.6727 32.7005C12.7121 32.7851 12.7467 32.853 12.7518 32.8632L21.6762 28.3514ZM22.8697 31.9651L21.9897 29.1267L12.4383 32.088L13.3183 34.9264L22.8697 31.9651ZM23.094 35.212V33.4457H13.094V35.212H23.094ZM9 32.4112C9 35.4804 11.1722 37.3026 12.2534 38.044C13.5654 38.9436 15.152 39.5741 16.7276 40.0217L19.4604 30.4024C18.46 30.1182 17.9996 29.8591 17.9086 29.7966C17.8687 29.7693 18.0791 29.9002 18.3336 30.2534C18.6051 30.63 19 31.3738 19 32.4112H9ZM9 31.0741V32.4112H19V31.0741H9ZM11.2689 24.9774L9.44392 29.0145L18.5561 33.1338L20.3811 29.0967L11.2689 24.9774ZM15.965 21.9491C14.815 21.9491 12.5522 22.4287 11.3628 24.7812L20.2871 29.293C19.8104 30.236 19.0402 30.9875 18.1113 31.4468C17.2603 31.8677 16.4742 31.9491 15.965 31.9491V21.9491ZM20.797 25.2873C20.2507 23.837 19.1493 22.8402 17.9537 22.3438C16.9466 21.9257 16.0603 21.9491 15.965 21.9491V31.9491C15.9678 31.9491 15.9419 31.9491 15.9101 31.9487C15.8761 31.9483 15.8308 31.9474 15.7774 31.9453C15.6706 31.941 15.532 31.9319 15.3708 31.9116C15.0557 31.872 14.6147 31.7851 14.1195 31.5796C12.9847 31.1084 11.9473 30.162 11.439 28.8125L20.797 25.2873ZM21.968 29.0609L20.897 25.5797L11.339 28.5202L12.41 32.0014L21.968 29.0609ZM18.3971 17.9705C18.4901 18.0008 18.559 18.0275 18.5916 18.0405C18.6182 18.0511 18.6362 18.059 18.597 18.0423L14.6948 27.2496C14.7324 27.2655 14.9877 27.3767 15.2909 27.4758L18.3971 17.9705ZM19.4574 18.3168C19.1603 18.2327 18.8672 18.1346 18.5047 18.007L15.1833 27.4393C15.6128 27.5905 16.1357 27.7694 16.7326 27.9384L19.4574 18.3168ZM23.095 31.7061V23.1276H13.095V31.7061H23.095ZM12.9124 31.878L13.3204 33.1904L22.8696 30.2217L22.4616 28.9094L12.9124 31.878ZM13.2354 32.6444C13.2346 32.6428 13.2268 32.628 13.2166 32.6082C13.2061 32.5877 13.19 32.5558 13.1707 32.5161C13.1338 32.44 13.0733 32.31 13.0094 32.143C12.8897 31.8304 12.687 31.2088 12.687 30.3937H22.687C22.687 29.5529 22.4778 28.9056 22.3484 28.5675C22.2796 28.3878 22.2133 28.2452 22.1703 28.1564C22.1287 28.0705 22.0925 28.0019 22.0866 27.9907L13.2354 32.6444ZM11.8259 28.378L12.8849 31.7969L22.4371 28.8382L21.3781 25.4192L11.8259 28.378ZM15.7745 31.4395C13.9601 31.3564 12.4195 30.1504 11.8621 28.4902L21.3419 25.307C20.6065 23.1168 18.6079 21.5586 16.2315 21.4499L15.7745 31.4395ZM20.0002 28.7101C19.2149 30.6518 17.3666 31.5158 15.7634 31.4389L16.2426 21.4504C14.1034 21.3478 11.7191 22.5145 10.7298 24.9606L20.0002 28.7101ZM18.5517 31.9072L19.9167 28.9046L10.8133 24.7661L9.44828 27.7686L18.5517 31.9072ZM9 21.033V29.8379H19V21.033H9ZM17.5647 17.5266C17.558 17.5198 17.538 17.4997 17.5158 17.4778L10.4842 24.5881C10.481 24.585 10.4793 24.5832 10.4799 24.5838C10.4808 24.5848 10.4822 24.5862 10.487 24.5909L17.5647 17.5266ZM17.5225 17.4858C17.5447 17.5069 17.5608 17.5227 17.5671 17.529C17.5704 17.5323 17.5723 17.5341 17.5717 17.5335C17.5708 17.5326 17.5694 17.5313 17.5647 17.5265L10.4871 24.591C10.4962 24.6001 10.559 24.6635 10.6315 24.7324L17.5225 17.4858ZM17.4719 17.4864C17.6755 17.6284 17.788 17.7573 17.7348 17.7002L10.4192 24.518C10.672 24.7893 11.1145 25.2445 11.7521 25.6891L17.4719 17.4864ZM18.549 18.5044C18.5489 18.5043 18.5459 18.5005 18.5426 18.4963C18.539 18.4917 18.5331 18.4844 18.526 18.4754C18.5123 18.4583 18.4882 18.4284 18.4578 18.3919C18.4028 18.326 18.2874 18.1904 18.1278 18.0326L11.0962 25.1429C10.9406 24.989 10.8291 24.858 10.7781 24.7968C10.7291 24.738 10.6881 24.6855 10.6995 24.6999L18.549 18.5044ZM16.9499 17.1918C17.5335 17.492 17.9412 17.8491 18.1892 18.0989C18.4136 18.3249 18.5756 18.5381 18.5495 18.505L10.699 24.6993C10.6991 24.6995 10.7028 24.7041 10.7069 24.7094C10.7115 24.7151 10.7183 24.7238 10.7267 24.7342C10.7433 24.7549 10.7689 24.7865 10.8007 24.8244C10.8635 24.8993 10.9626 25.0133 11.0924 25.1441C11.3529 25.4066 11.7751 25.7754 12.3761 26.0846L16.9499 17.1918ZM17.8428 17.7238C17.7372 17.6671 17.6608 17.6237 17.6074 17.5918C17.552 17.5587 17.5424 17.5505 17.5646 17.5663L11.7614 25.7101C12.2426 26.0531 12.7368 26.3327 13.1152 26.5357L17.8428 17.7238ZM17.692 17.6501C17.7076 17.6567 17.7204 17.6623 17.7301 17.6666C17.7399 17.6709 17.7475 17.6743 17.7529 17.6768C17.7631 17.6814 17.768 17.6838 17.7665 17.6831C17.7652 17.6825 17.7607 17.6803 17.7521 17.676C17.7434 17.6717 17.7329 17.6665 17.7183 17.6592L13.2397 26.6002C13.3091 26.635 13.5449 26.754 13.802 26.8625L17.692 17.6501ZM18.4009 17.9618C18.2208 17.8889 18.0472 17.812 17.8585 17.7241L13.6355 26.7886C13.9308 26.9262 14.2672 27.0767 14.6491 27.2313L18.4009 17.9618ZM18.5969 18.0423C18.5728 18.0321 18.4414 17.9757 18.2935 17.9197L14.7565 27.2733C14.7157 27.2579 14.6872 27.2462 14.6787 27.2427C14.6741 27.2408 14.6723 27.2401 14.6754 27.2414C14.6791 27.2429 14.6837 27.2449 14.6949 27.2496L18.5969 18.0423Z" fill="#9EA6B3" fill-opacity="0.17" mask="url(#path-1-outside-1_10_7948)"/>
</g>
<defs>
<filter id="filter0_b_10_7948" x="-12" y="-12" width="77" height="77" filterUnits="userSpaceOnUse" color-interpolation-filters="sRGB">
<feFlood flood-opacity="0" result="BackgroundImageFix"/>
<feGaussianBlur in="BackgroundImageFix" stdDeviation="6"/>
<feComposite in2="SourceAlpha" operator="in" result="effect1_backgroundBlur_10_7948"/>
<feBlend mode="normal" in="SourceGraphic" in2="effect1_backgroundBlur_10_7948" result="shape"/>
</filter>
</defs>
</svg>
