<svg width="223" height="29" viewBox="0 0 223 29" fill="none" xmlns="http://www.w3.org/2000/svg">
<g clip-path="url(#clip0_10_19043)">
<path fill-rule="evenodd" clip-rule="evenodd" d="M14.2804 0.00247567C17.2722 0.00247567 20.2641 0.00618918 23.2559 0C20.4623 2.95471 17.5869 5.83516 14.7734 8.77254C17.904 13.5939 21.0458 18.4091 24.1516 23.2453C21.0953 23.2366 18.0391 23.2503 14.9828 23.2391C13.1394 20.1718 11.2712 17.1193 9.44508 14.042C8.78724 14.6238 8.22108 15.3009 7.6128 15.9322C7.63139 18.3682 7.61528 20.8055 7.62024 23.2428C5.08057 23.2404 2.5409 23.249 0.00123886 23.2379C0 15.4927 0.00371658 7.74885 0 0.00371351C2.53967 0.00123784 5.08057 0.00371351 7.62024 0.00371351C7.62024 2.50166 7.62271 5.00085 7.62024 7.49881C9.84028 4.99962 12.0653 2.50538 14.2804 0.00247567ZM29.5481 5.96265C27.6985 6.20403 25.8662 6.90217 24.4749 8.16971C22.9127 9.56599 22.0517 11.6134 21.8523 13.6731C21.5958 16.0114 22.0047 18.5353 23.4938 20.4206C24.8355 22.1585 26.9279 23.1673 29.06 23.5374C31.3023 23.91 33.6648 23.7912 35.8019 22.9779C37.6552 22.2847 39.2632 20.8971 40.1119 19.0973C41.036 17.1836 41.2144 14.9704 40.906 12.8871C40.5665 10.7308 39.345 8.71065 37.5078 7.50623C35.1911 5.95894 32.2624 5.62844 29.5481 5.96265ZM30.7423 10.4832C31.5885 10.2468 32.5635 10.4597 33.1606 11.1219C34.0414 12.0714 34.2991 13.4194 34.309 14.6733C34.2793 15.8678 34.1765 17.1453 33.4864 18.1615C32.924 19.0045 31.8102 19.3536 30.8427 19.1283C30.1142 18.9872 29.501 18.4623 29.1653 17.8124C28.6685 16.8915 28.557 15.8232 28.5248 14.7946C28.5211 13.7004 28.6821 12.5578 29.2669 11.6121C29.5976 11.0687 30.1266 10.6503 30.7423 10.4832ZM87.6717 9.17731C89.2166 7.26981 91.5965 6.16318 94.0135 5.91438C96.1728 5.70147 98.4313 5.96389 100.38 6.96282C101.971 7.77237 103.274 9.1117 104.067 10.7073C104.945 12.4291 105.292 14.3849 105.276 16.306C101.008 16.3171 96.7402 16.3097 92.4723 16.3097C92.4674 17.2839 92.8948 18.2643 93.6666 18.872C94.649 19.6704 96.1257 19.8623 97.2444 19.2384C97.6978 18.9995 98.0423 18.5948 98.2752 18.1442C100.432 18.1244 102.59 18.1479 104.748 18.133C104.303 19.7534 103.26 21.2004 101.831 22.0929C99.7172 23.4396 97.1255 23.8147 94.6614 23.7182C92.2159 23.6055 89.701 22.7725 87.974 20.9776C86.6571 19.6234 85.9175 17.7803 85.7726 15.9111C85.5496 13.5407 86.1368 11.0353 87.6717 9.17731ZM93.3172 10.7296C92.7226 11.268 92.4661 12.0924 92.4798 12.8772C94.5016 12.8772 96.5247 12.8772 98.5465 12.8784C98.5205 11.3967 97.2444 10.0785 95.7714 9.97571C94.9055 9.93486 93.9714 10.1267 93.3172 10.7296ZM114.302 6.43427C116.097 5.62967 118.222 5.67176 120.035 6.40085C121.734 7.08784 123.044 8.53487 123.759 10.2022C124.624 12.2174 124.788 14.479 124.492 16.6365C124.253 18.3571 123.606 20.0715 122.411 21.3588C121.317 22.5806 119.772 23.3419 118.166 23.6129C117.018 23.7986 115.803 23.8159 114.705 23.3839C113.781 23.0386 113.009 22.3776 112.397 21.6188C112.394 24.0784 112.402 26.5379 112.393 28.9975C110.142 28.9951 107.89 29.0074 105.639 28.9926C105.65 21.4344 105.646 13.8761 105.641 6.31791C107.666 6.3142 109.689 6.3142 111.713 6.31791C111.723 7.16707 111.706 8.01746 111.725 8.86661C112.243 7.76865 113.197 6.91826 114.302 6.43427ZM114.378 10.8546C113.364 11.1281 112.723 12.1036 112.469 13.0703C112.164 14.2425 112.199 15.5138 112.584 16.6637C112.834 17.3718 113.294 18.0588 114.004 18.3682C115.008 18.8176 116.299 18.523 116.991 17.6614C117.736 16.7702 117.921 15.5497 117.876 14.422C117.829 13.4553 117.639 12.4254 116.991 11.6691C116.375 10.9227 115.306 10.6082 114.378 10.8546ZM128.749 7.3874C130.394 6.34019 132.361 5.87477 134.298 5.85001C136.094 5.81287 137.924 6.07158 139.575 6.80562C140.685 7.30323 141.703 8.03726 142.442 9.0102C143.287 10.097 143.725 11.4512 143.86 12.8091C141.585 12.8203 139.307 12.8091 137.032 12.8141C136.996 12.1976 136.8 11.5676 136.359 11.1195C135.545 10.2567 134.105 10.1713 133.124 10.789C132.256 11.3745 131.911 12.4415 131.762 13.428C131.603 14.6894 131.575 16.0114 131.992 17.2282C132.271 18.0526 132.88 18.8188 133.739 19.0738C134.591 19.3127 135.601 19.2075 136.281 18.6009C136.819 18.112 137.063 17.3891 137.169 16.6885C139.444 16.6699 141.72 16.6922 143.994 16.6786C143.818 18.112 143.352 19.5429 142.431 20.6768C141.234 22.203 139.387 23.0794 137.517 23.4557C135.508 23.8481 133.409 23.8494 131.417 23.3604C129.656 22.9061 127.961 22.0013 126.794 20.5802C125.684 19.2756 125.088 17.5872 124.953 15.8926C124.793 13.9739 125.09 11.9736 126.027 10.2716C126.67 9.09933 127.616 8.09792 128.749 7.3874ZM148.889 6.58652C150.369 6.07901 151.944 5.91809 153.5 5.85744C155.153 5.82773 156.821 5.84506 158.445 6.1867C159.451 6.40085 160.46 6.74496 161.273 7.39854C161.991 7.96918 162.473 8.80225 162.687 9.68854C163.039 11.0724 162.964 12.5133 162.973 13.9294V21.1076C162.978 21.5878 163.073 22.1028 163.419 22.4593C163.61 22.7007 163.981 22.8764 163.878 23.2428C161.557 23.2453 159.237 23.2379 156.917 23.2465C156.799 22.6561 156.692 22.0619 156.593 21.4678C155.978 22.0347 155.299 22.5385 154.538 22.8925C153.147 23.5882 151.561 23.7541 150.026 23.738C148.592 23.6909 147.102 23.3555 145.953 22.4543C145.022 21.7512 144.418 20.6632 144.259 19.5132C144.103 18.2754 144.227 16.941 144.912 15.869C145.546 14.8738 146.603 14.2462 147.69 13.8489C149.237 13.3043 150.881 13.1409 152.5 12.9403C153.449 12.8215 154.417 12.7262 155.316 12.3808C155.753 12.2013 156.212 11.8523 156.227 11.3373C156.275 10.7754 155.854 10.2777 155.337 10.1119C154.515 9.83336 153.588 9.82222 152.768 10.1082C152.156 10.3223 151.767 10.9202 151.702 11.549C149.543 11.5379 147.382 11.549 145.223 11.5428C145.232 10.5513 145.424 9.52762 145.98 8.68836C146.634 7.64363 147.75 6.98634 148.89 6.58652H148.889ZM152.88 16.7219C152.391 16.8655 151.876 17.0413 151.525 17.4312C151.073 17.9585 151.004 18.8671 151.542 19.361C152.111 19.8437 152.903 19.9477 153.624 19.8871C154.349 19.845 155.089 19.5467 155.525 18.9451C156.154 18.0291 156.22 16.8667 156.224 15.7911C155.169 16.2899 153.998 16.4224 152.88 16.7219ZM77.5069 6.32039C80.0788 6.30677 82.6519 6.32286 85.2237 6.31172C85.2498 11.9538 85.2287 17.5958 85.2349 23.2379C83.2416 23.2465 81.2495 23.2441 79.2562 23.2379C79.2611 20.9194 79.2512 18.5997 79.2611 16.28C79.4234 14.9184 79.66 13.5642 79.8521 12.2051C79.8644 12.0738 79.8607 11.9439 79.8421 11.8127C78.6058 15.6153 77.4165 19.4315 76.1912 23.2379C75.1246 23.2428 74.0579 23.2478 72.9925 23.2354C72.0869 20.381 71.1738 17.5302 70.2682 14.677C69.9374 13.735 69.7132 12.7509 69.318 11.8349C69.4469 13.4516 69.7628 15.0508 69.93 16.6637C69.9412 18.8559 69.93 21.0481 69.935 23.2404C67.9416 23.2366 65.9471 23.254 63.9537 23.2317C63.9636 17.5933 63.9537 11.955 63.9587 6.31667C66.5343 6.32162 69.1111 6.29687 71.6855 6.32905C72.6357 9.44221 73.6243 12.543 74.5943 15.65C75.5668 12.5405 76.5517 9.43478 77.5069 6.31915V6.32039ZM164.335 6.31791C166.582 6.31172 168.831 6.31791 171.081 6.3142C171.104 8.20437 171.076 10.0945 171.094 11.9847C172.731 11.9736 174.366 11.9748 176.003 11.9847C176.022 10.0958 176.011 8.20685 176.009 6.31791C178.26 6.31296 180.512 6.31667 182.763 6.31667C182.764 11.9575 182.767 17.5995 182.763 23.2416C180.512 23.2428 178.263 23.2465 176.011 23.2416C176.011 21.1286 176.017 19.0156 176.01 16.9026C174.367 16.9026 172.725 16.8927 171.082 16.9064C171.1 19.0181 171.087 21.1286 171.09 23.2404C168.839 23.249 166.587 23.2441 164.336 23.2428C164.336 17.6008 164.337 11.96 164.336 6.31915L164.335 6.31791ZM182.945 6.32039C189.091 6.31048 195.236 6.31667 201.379 6.31667C201.376 7.96794 201.383 9.61922 201.376 11.2693C199.427 11.2668 197.476 11.2655 195.528 11.2693C195.523 15.2588 195.527 19.2483 195.527 23.2379C193.287 23.2441 191.046 23.2441 188.804 23.2379C188.799 19.2471 188.814 15.2551 188.798 11.2643C186.85 11.2717 184.904 11.2593 182.958 11.2705C182.94 9.62045 182.959 7.96918 182.945 6.31915V6.32039ZM41.7843 6.32039C44.35 6.3142 46.9169 6.30925 49.4826 6.32286C50.4464 9.43354 51.4152 12.5417 52.4051 15.6438C53.364 12.5393 54.3612 9.44468 55.2991 6.334C57.8709 6.28944 60.4453 6.334 63.0184 6.31172C63.0444 11.9538 63.0234 17.5971 63.0283 23.2404C61.0362 23.2453 59.0441 23.2428 57.052 23.2404V17.5203C56.974 15.6066 57.5141 13.7412 57.6888 11.8448C57.6331 11.9166 57.5872 11.9934 57.5513 12.0751C56.3657 15.7985 55.1876 19.5231 53.9933 23.2441C52.9304 23.2404 51.8699 23.2391 50.8082 23.2441C49.9075 20.4787 49.0428 17.701 48.1533 14.9308C47.8052 13.8984 47.5314 12.8401 47.1325 11.8275C47.2341 13.4429 47.5797 15.0409 47.7284 16.6551C47.7333 18.8498 47.7271 21.0444 47.7309 23.2391C45.7487 23.2441 43.7665 23.2428 41.7831 23.2391C41.7831 17.5995 41.7831 11.9587 41.7843 6.31915V6.32039ZM201.565 6.31543C205.013 6.31543 208.461 6.31296 211.91 6.31791C211.91 8.29845 211.906 10.279 211.911 12.2595C213.251 12.2558 214.594 12.2558 215.936 12.2595C217.4 12.3004 218.887 12.5677 220.185 13.2708C221.217 13.8402 222.12 14.7055 222.583 15.8047C223.107 16.9559 223.102 18.2915 222.77 19.4959C222.409 20.7882 221.419 21.8552 220.203 22.3999C218.224 23.353 215.972 23.254 213.835 23.2441C211.024 23.2428 208.215 23.2465 205.406 23.2428C205.397 19.2508 205.421 15.2576 205.393 11.2655C204.116 11.2717 202.838 11.268 201.563 11.268C201.564 9.61798 201.563 7.96794 201.564 6.31667L201.565 6.31543ZM211.91 16.15C211.906 17.2121 211.913 18.2742 211.906 19.3362C212.793 19.3474 213.684 19.3474 214.573 19.3375C215.198 19.3003 215.935 19.2162 216.313 18.643C216.591 18.1145 216.581 17.4399 216.304 16.9113C215.927 16.3468 215.208 16.2156 214.579 16.176C213.689 16.1302 212.797 16.176 211.908 16.15H211.91Z" fill="white"/>
</g>
<defs>
<clipPath id="clip0_10_19043">
<rect width="223" height="29" fill="white"/>
</clipPath>
</defs>
</svg>
