<svg width="347" height="93" viewBox="0 0 347 93" fill="none" xmlns="http://www.w3.org/2000/svg">
<g clip-path="url(#clip0_10_19042)">
<path fill-rule="evenodd" clip-rule="evenodd" d="M138.28 50.0025C141.272 50.0025 144.264 50.0062 147.256 50C144.462 52.9547 141.587 55.8352 138.773 58.7725C141.904 63.5939 145.046 68.4091 148.152 73.2453C145.095 73.2366 142.039 73.2503 138.983 73.2391C137.139 70.1718 135.271 67.1193 133.445 64.042C132.787 64.6238 132.221 65.3009 131.613 65.9322C131.631 68.3682 131.615 70.8055 131.62 73.2428C129.081 73.2404 126.541 73.249 124.001 73.2379C124 65.4927 124.004 57.7488 124 50.0037C126.54 50.0012 129.081 50.0037 131.62 50.0037C131.62 52.5017 131.623 55.0009 131.62 57.4988C133.84 54.9996 136.065 52.5054 138.28 50.0025ZM153.548 55.9627C151.698 56.204 149.866 56.9022 148.475 58.1697C146.913 59.566 146.052 61.6134 145.852 63.6731C145.596 66.0114 146.005 68.5353 147.494 70.4206C148.835 72.1585 150.928 73.1673 153.06 73.5374C155.302 73.91 157.665 73.7912 159.802 72.9779C161.655 72.2847 163.263 70.8971 164.112 69.0973C165.036 67.1836 165.214 64.9704 164.906 62.8871C164.567 60.7308 163.345 58.7106 161.508 57.5062C159.191 55.9589 156.262 55.6284 153.548 55.9627ZM154.742 60.4832C155.588 60.2468 156.563 60.4597 157.161 61.1219C158.041 62.0714 158.299 63.4194 158.309 64.6733C158.279 65.8678 158.176 67.1453 157.486 68.1615C156.924 69.0045 155.81 69.3536 154.843 69.1283C154.114 68.9872 153.501 68.4623 153.165 67.8124C152.668 66.8915 152.557 65.8232 152.525 64.7946C152.521 63.7004 152.682 62.5578 153.267 61.6121C153.598 61.0687 154.127 60.6503 154.742 60.4832ZM211.672 59.1773C213.217 57.2698 215.596 56.1632 218.013 55.9144C220.173 55.7015 222.431 55.9639 224.38 56.9628C225.971 57.7724 227.274 59.1117 228.067 60.7073C228.945 62.4291 229.292 64.3849 229.276 66.306C225.008 66.3171 220.74 66.3097 216.472 66.3097C216.467 67.2839 216.895 68.2643 217.667 68.872C218.649 69.6704 220.126 69.8623 221.244 69.2384C221.698 68.9995 222.042 68.5948 222.275 68.1442C224.432 68.1244 226.59 68.1479 228.748 68.133C228.303 69.7534 227.26 71.2004 225.831 72.0929C223.717 73.4396 221.125 73.8147 218.661 73.7182C216.216 73.6055 213.701 72.7725 211.974 70.9776C210.657 69.6234 209.918 67.7803 209.773 65.9111C209.55 63.5407 210.137 61.0353 211.672 59.1773ZM217.317 60.7296C216.723 61.268 216.466 62.0924 216.48 62.8772C218.502 62.8772 220.525 62.8772 222.546 62.8784C222.52 61.3967 221.244 60.0785 219.771 59.9757C218.905 59.9349 217.971 60.1267 217.317 60.7296ZM238.302 56.4343C240.097 55.6297 242.222 55.6718 244.035 56.4008C245.734 57.0878 247.044 58.5349 247.759 60.2022C248.624 62.2174 248.788 64.479 248.492 66.6365C248.253 68.3571 247.606 70.0715 246.411 71.3588C245.317 72.5806 243.772 73.3419 242.166 73.6129C241.018 73.7986 239.803 73.8159 238.705 73.3839C237.781 73.0386 237.009 72.3776 236.397 71.6188C236.394 74.0784 236.402 76.5379 236.393 78.9975C234.142 78.9951 231.89 79.0074 229.639 78.9926C229.65 71.4344 229.646 63.8761 229.641 56.3179C231.666 56.3142 233.689 56.3142 235.713 56.3179C235.723 57.1671 235.706 58.0175 235.725 58.8666C236.243 57.7687 237.197 56.9183 238.302 56.4343ZM238.378 60.8546C237.364 61.1281 236.723 62.1036 236.469 63.0703C236.164 64.2425 236.199 65.5138 236.584 66.6637C236.834 67.3718 237.294 68.0588 238.004 68.3682C239.008 68.8176 240.299 68.523 240.991 67.6614C241.736 66.7702 241.921 65.5497 241.876 64.422C241.829 63.4553 241.639 62.4254 240.991 61.6691C240.375 60.9227 239.306 60.6082 238.378 60.8546ZM252.749 57.3874C254.394 56.3402 256.361 55.8748 258.298 55.85C260.094 55.8129 261.924 56.0716 263.575 56.8056C264.685 57.3032 265.703 58.0373 266.442 59.0102C267.287 60.097 267.725 61.4512 267.86 62.8091C265.585 62.8203 263.307 62.8091 261.032 62.8141C260.996 62.1976 260.8 61.5676 260.359 61.1195C259.545 60.2567 258.105 60.1713 257.124 60.789C256.256 61.3745 255.911 62.4415 255.762 63.428C255.603 64.6894 255.575 66.0114 255.992 67.2282C256.271 68.0526 256.88 68.8188 257.739 69.0738C258.591 69.3127 259.601 69.2075 260.281 68.6009C260.819 68.112 261.063 67.3891 261.169 66.6885C263.444 66.6699 265.72 66.6922 267.994 66.6786C267.818 68.112 267.352 69.5429 266.431 70.6768C265.234 72.203 263.387 73.0794 261.517 73.4557C259.508 73.8481 257.409 73.8494 255.417 73.3604C253.656 72.9061 251.961 72.0013 250.794 70.5802C249.684 69.2756 249.088 67.5872 248.953 65.8926C248.793 63.9739 249.09 61.9736 250.027 60.2716C250.67 59.0993 251.616 58.0979 252.749 57.3874ZM272.889 56.5865C274.369 56.079 275.944 55.9181 277.5 55.8574C279.153 55.8277 280.821 55.8451 282.445 56.1867C283.451 56.4008 284.46 56.745 285.273 57.3985C285.991 57.9692 286.473 58.8022 286.687 59.6885C287.039 61.0724 286.964 62.5133 286.973 63.9294V71.1076C286.978 71.5878 287.073 72.1028 287.419 72.4593C287.61 72.7007 287.981 72.8764 287.878 73.2428C285.557 73.2453 283.237 73.2379 280.917 73.2465C280.799 72.6561 280.692 72.0619 280.593 71.4678C279.978 72.0347 279.299 72.5385 278.538 72.8925C277.147 73.5882 275.561 73.7541 274.026 73.738C272.592 73.6909 271.102 73.3555 269.953 72.4543C269.022 71.7512 268.418 70.6632 268.259 69.5132C268.103 68.2754 268.227 66.941 268.912 65.869C269.546 64.8738 270.603 64.2462 271.69 63.8489C273.237 63.3043 274.881 63.1409 276.5 62.9403C277.449 62.8215 278.417 62.7262 279.316 62.3808C279.753 62.2013 280.212 61.8523 280.227 61.3373C280.275 60.7754 279.854 60.2777 279.337 60.1119C278.515 59.8334 277.588 59.8222 276.768 60.1082C276.156 60.3223 275.767 60.9202 275.702 61.549C273.543 61.5379 271.382 61.549 269.223 61.5428C269.232 60.5513 269.424 59.5276 269.98 58.6884C270.634 57.6436 271.75 56.9863 272.89 56.5865H272.889ZM276.88 66.7219C276.391 66.8655 275.876 67.0413 275.525 67.4312C275.073 67.9585 275.004 68.8671 275.542 69.361C276.111 69.8437 276.903 69.9477 277.624 69.8871C278.349 69.845 279.089 69.5467 279.525 68.9451C280.154 68.0291 280.22 66.8667 280.224 65.7911C279.169 66.2899 277.998 66.4224 276.88 66.7219ZM201.507 56.3204C204.079 56.3068 206.652 56.3229 209.224 56.3117C209.25 61.9538 209.229 67.5958 209.235 73.2379C207.242 73.2465 205.249 73.2441 203.256 73.2379C203.261 70.9194 203.251 68.5997 203.261 66.28C203.423 64.9184 203.66 63.5642 203.852 62.2051C203.864 62.0738 203.861 61.9439 203.842 61.8127C202.606 65.6153 201.416 69.4315 200.191 73.2379C199.125 73.2428 198.058 73.2478 196.992 73.2354C196.087 70.381 195.174 67.5302 194.268 64.677C193.937 63.735 193.713 62.7509 193.318 61.8349C193.447 63.4516 193.763 65.0508 193.93 66.6637C193.941 68.8559 193.93 71.0481 193.935 73.2404C191.942 73.2366 189.947 73.254 187.954 73.2317C187.964 67.5933 187.954 61.955 187.959 56.3167C190.534 56.3216 193.111 56.2969 195.685 56.3291C196.636 59.4422 197.624 62.543 198.594 65.65C199.567 62.5405 200.552 59.4348 201.507 56.3191V56.3204ZM288.335 56.3179C290.582 56.3117 292.831 56.3179 295.081 56.3142C295.104 58.2044 295.076 60.0945 295.094 61.9847C296.731 61.9736 298.366 61.9748 300.003 61.9847C300.022 60.0958 300.011 58.2068 300.009 56.3179C302.26 56.313 304.512 56.3167 306.763 56.3167C306.764 61.9575 306.767 67.5995 306.763 73.2416C304.512 73.2428 302.263 73.2465 300.011 73.2416C300.011 71.1286 300.017 69.0156 300.01 66.9026C298.367 66.9026 296.725 66.8927 295.082 66.9064C295.1 69.0181 295.087 71.1286 295.09 73.2404C292.839 73.249 290.587 73.2441 288.336 73.2428C288.336 67.6008 288.337 61.96 288.336 56.3191L288.335 56.3179ZM306.945 56.3204C313.091 56.3105 319.236 56.3167 325.379 56.3167C325.376 57.9679 325.383 59.6192 325.376 61.2693C323.427 61.2668 321.476 61.2655 319.528 61.2693C319.523 65.2588 319.527 69.2483 319.527 73.2379C317.287 73.2441 315.046 73.2441 312.804 73.2379C312.799 69.2471 312.814 65.2551 312.798 61.2643C310.85 61.2717 308.904 61.2593 306.958 61.2705C306.94 59.6205 306.959 57.9692 306.945 56.3191V56.3204ZM165.784 56.3204C168.35 56.3142 170.917 56.3092 173.483 56.3229C174.446 59.4335 175.415 62.5417 176.405 65.6438C177.364 62.5393 178.361 59.4447 179.299 56.334C181.871 56.2894 184.445 56.334 187.018 56.3117C187.044 61.9538 187.023 67.5971 187.028 73.2404C185.036 73.2453 183.044 73.2428 181.052 73.2404V67.5203C180.974 65.6066 181.514 63.7412 181.689 61.8448C181.633 61.9166 181.587 61.9934 181.551 62.0751C180.366 65.7985 179.188 69.5231 177.993 73.2441C176.93 73.2404 175.87 73.2391 174.808 73.2441C173.908 70.4787 173.043 67.701 172.153 64.9308C171.805 63.8984 171.531 62.8401 171.132 61.8275C171.234 63.4429 171.58 65.0409 171.728 66.6551C171.733 68.8498 171.727 71.0444 171.731 73.2391C169.749 73.2441 167.766 73.2428 165.783 73.2391C165.783 67.5995 165.783 61.9587 165.784 56.3191V56.3204ZM325.565 56.3154C329.013 56.3154 332.461 56.313 335.91 56.3179C335.91 58.2984 335.906 60.279 335.911 62.2595C337.251 62.2558 338.594 62.2558 339.936 62.2595C341.4 62.3004 342.887 62.5677 344.185 63.2708C345.217 63.8402 346.12 64.7055 346.583 65.8047C347.107 66.9559 347.102 68.2915 346.77 69.4959C346.409 70.7882 345.419 71.8552 344.203 72.3999C342.224 73.353 339.972 73.254 337.835 73.2441C335.024 73.2428 332.215 73.2465 329.406 73.2428C329.397 69.2508 329.421 65.2576 329.393 61.2655C328.116 61.2717 326.838 61.268 325.563 61.268C325.564 59.618 325.563 57.9679 325.564 56.3167L325.565 56.3154ZM335.91 66.15C335.906 67.2121 335.913 68.2742 335.906 69.3362C336.793 69.3474 337.684 69.3474 338.573 69.3375C339.198 69.3003 339.935 69.2162 340.313 68.643C340.591 68.1145 340.581 67.4399 340.304 66.9113C339.927 66.3468 339.208 66.2156 338.579 66.176C337.689 66.1302 336.797 66.176 335.908 66.15H335.91Z" fill="white"/>
</g>
<path d="M131.728 28.144C132.336 28.32 132.88 28.616 133.36 29.032C133.84 29.448 134.208 29.952 134.464 30.544C134.736 31.136 134.872 31.768 134.872 32.44C134.872 33.736 134.416 34.824 133.504 35.704C132.592 36.568 131.416 37 129.976 37H123.592V20.2H129.952C131.248 20.2 132.312 20.592 133.144 21.376C133.976 22.144 134.392 23.112 134.392 24.28C134.392 25.144 134.144 25.936 133.648 26.656C133.152 27.36 132.512 27.856 131.728 28.144ZM130.096 20.968H124.36V27.784H130.24C131.168 27.784 131.952 27.44 132.592 26.752C133.248 26.064 133.576 25.264 133.576 24.352C133.576 23.408 133.24 22.608 132.568 21.952C131.896 21.296 131.072 20.968 130.096 20.968ZM130.144 36.232C130.864 36.232 131.528 36.064 132.136 35.728C132.744 35.376 133.216 34.912 133.552 34.336C133.904 33.744 134.08 33.088 134.08 32.368C134.08 31.312 133.704 30.416 132.952 29.68C132.216 28.928 131.304 28.552 130.216 28.552H124.36V36.232H130.144ZM151.427 20.2C152.931 20.2 154.187 20.68 155.195 21.64C156.203 22.6 156.707 23.8 156.707 25.24C156.707 26.696 156.203 27.904 155.195 28.864C154.203 29.824 152.947 30.304 151.427 30.304H146.555V37H145.787V20.2H151.427ZM151.403 29.536C152.699 29.536 153.771 29.128 154.619 28.312C155.483 27.496 155.915 26.472 155.915 25.24C155.915 24.024 155.483 23.008 154.619 22.192C153.771 21.376 152.699 20.968 151.403 20.968H146.555V29.536H151.403ZM160.923 36.232H169.443V37H160.155V20.2H169.179V20.968H160.923V27.856H168.555V28.6H160.923V36.232ZM176.042 17.032V16.36H182.522V17.032H176.042ZM185.066 20.2H185.618V37H184.826V21.76L173.69 37H173.162V20.2H173.93V35.416L185.066 20.2ZM200.483 20.2V20.944H195.011V37H194.219V20.944H188.747V20.2H200.483ZM215.512 20.2H216.064V37H215.272V21.76L204.136 37H203.608V20.2H204.376V35.416L215.512 20.2ZM232.776 20.2H233.568V37H232.776V28.624H222.024V37H221.256V20.2H222.024V27.856H232.776V20.2ZM247.261 20.2V20.944H239.485V37H238.717V20.2H247.261ZM251.157 36.232H259.677V37H250.389V20.2H259.413V20.968H251.157V27.856H258.789V28.6H251.157V36.232Z" fill="white"/>
<path d="M29.72 57V56.64H30.76C32.68 56.64 32.92 56.44 32.92 54.52V30.72C32.92 28.8 32.68 28.6 30.76 28.6H29.72V28.24H35.84L46.8 49.28C47.24 50.04 47.52 50.6 47.52 50.76H47.76C47.72 50.32 47.72 49.76 47.72 49.08V31.12C47.72 29.2 47.08 28.6 45.16 28.6H43.36V28.24H52.8V28.6H50.96C49.04 28.6 48.4 29.2 48.4 31.12V58.64H48.08C48.08 58.12 47.48 57.12 46.96 56.16L34.56 32.76C34.16 32 33.76 31.36 33.76 31.2H33.56C33.6 31.64 33.6 32.24 33.6 32.92V54.52C33.6 56.44 33.84 56.64 35.76 56.64H36.8V57H29.72ZM62.32 54.08H53.4L53.52 53.36H62.48L62.32 54.08ZM62.96 41.12C62.96 36.2 61.32 33.52 58.36 33.52C55.52 33.52 54 35.4 54 38.84C54 43.76 55.56 46.4 58.56 46.4C61.4 46.4 62.96 44.56 62.96 41.12ZM65.28 39.96C65.28 44.28 62.56 47.12 58.48 47.12C54.36 47.12 51.64 44.28 51.64 39.96C51.64 35.68 54.36 32.8 58.48 32.8C62.56 32.8 65.28 35.68 65.28 39.96ZM79.4831 57H67.6031V56.64H70.1631C72.0831 56.64 72.3231 56.4 72.3231 54.16V35.44C72.3231 34.52 72.3631 33.68 72.4431 33.12L72.2831 33.04C72.1231 33.28 71.8431 33.72 71.2831 34.28L68.6031 37.36L68.3231 37.12L69.8831 35.16C72.9631 31.24 74.6431 28.76 74.6431 27.92H75.1631V54.16C75.1631 56.4 75.3631 56.64 77.2831 56.64H79.4831V57Z" fill="#F3E298"/>
<g opacity="0.62" clip-path="url(#clip1_10_19042)">
<path fill-rule="evenodd" clip-rule="evenodd" d="M67.8393 80.1513C65.3528 81.9136 63.044 81.8272 62.3433 82.0929L60.811 82.9829L60.6948 82.5475C63.7124 80.6955 60.7239 77.4285 65.0106 74.957C66.4911 74.1023 68.5239 73.0778 70.0012 72.2359C72.2083 70.9761 71.992 69.646 72.8897 68.2021C73.2788 69.5899 69.9915 78.8947 67.8409 80.1513H67.8393ZM77.241 7.35036C76.8179 6.57243 76.8212 5.49676 75.1808 5.04537C74.3719 4.82287 73.2788 4.58757 72.4731 4.36988C71.2686 4.04494 71.2041 3.38706 70.5986 2.81241C70.5873 3.51831 73.3143 7.52644 74.4913 7.85618C75.8912 8.38601 76.9762 8.05947 77.3411 8.09948L77.4218 8.12029C79.5078 9.58172 81.4518 11.2368 83.2327 13.0584C90.5903 20.5881 95.1402 30.9941 95.1402 42.4887C95.1402 53.9832 90.5887 64.3893 83.2327 71.9205C75.8766 79.4486 65.7145 84.1066 54.4916 84.1066C43.2687 84.1066 33.1065 79.4486 25.7505 71.9205C18.3929 64.3893 13.843 53.9832 13.843 42.4887C13.843 30.9941 18.3945 20.5881 25.7505 13.0584C27.5282 11.2384 29.4705 9.58812 31.5501 8.1283L31.6599 8.09788C32.0248 8.05787 33.1098 8.38441 34.5096 7.85458C35.6866 7.52324 38.412 3.51511 38.4023 2.81081C37.7953 3.38546 37.7323 4.04334 36.5278 4.36828C35.7221 4.58597 34.6307 4.81967 33.8202 5.04377C32.1959 5.49036 32.183 6.55162 31.7713 7.32795C29.4624 8.89342 27.3167 10.691 25.3663 12.6887C17.9134 20.3175 13.3038 30.8533 13.3038 42.4903C13.3038 54.1273 17.9134 64.6662 25.3663 72.2935C32.8191 79.9224 43.1169 84.6428 54.4916 84.6428C65.8663 84.6428 76.164 79.9224 83.6185 72.2935C91.0714 64.6662 95.681 54.1273 95.681 42.4903C95.681 30.8533 91.0714 20.3159 83.6185 12.6887C81.6762 10.7006 79.5401 8.91103 77.2426 7.35036H77.241ZM60.4591 92.3997C61.3067 92.3997 61.9994 91.7146 61.9994 90.8727C61.9994 90.0307 61.3067 89.3456 60.4591 89.3456C59.6114 89.3456 58.9188 90.0307 58.9188 90.8727C58.9188 91.7146 59.6114 92.3997 60.4591 92.3997ZM48.579 92.3997C49.4283 92.3997 50.1193 91.7146 50.1193 90.8727C50.1193 90.0307 49.4283 89.3456 48.579 89.3456C47.7298 89.3456 47.0387 90.0307 47.0387 90.8727C47.0387 91.7146 47.7298 92.3997 48.579 92.3997ZM54.6191 93C56.1062 93 57.3171 91.7979 57.3171 90.3252C57.3171 88.8526 56.1062 87.6505 54.6191 87.6505C53.1321 87.6505 51.9212 88.8526 51.9212 90.3252C51.9212 91.7979 53.1337 93 54.6191 93ZM31.542 10.2764C32.6125 9.67296 37.4368 10.5597 37.9406 11.0656C37.0962 11.0912 36.5746 10.675 35.4896 11.3009C34.7647 11.7202 33.8234 12.3317 33.092 12.7511C30.9737 13.9628 30.2956 11.8947 28.7569 12.7191L28.597 12.5638L29.3575 12.1316C29.6433 11.8995 30.1729 10.8975 31.542 10.2764ZM30.6863 6.34833C29.8629 7.58886 28.7908 7.95222 28.5163 8.19553L27.9738 8.87101L27.843 8.69174C28.8941 7.31835 26.9485 6.34513 28.4695 4.46592C28.9958 3.81604 29.7434 2.99329 30.2697 2.34981C31.056 1.3878 30.7202 0.816351 30.8752 0C31.2998 0.566644 31.4484 5.39752 30.6863 6.34833ZM24.9578 10.6878C24.0375 12.0724 22.8411 12.4774 22.5359 12.7511L21.9304 13.5034L21.7851 13.3033C22.9589 11.7699 20.7857 10.6846 22.4842 8.58769C23.0719 7.86258 23.9067 6.94379 24.4928 6.22668C25.3695 5.15422 24.9965 4.51714 25.1677 3.60475C25.6407 4.23702 25.807 9.62974 24.9578 10.6894V10.6878ZM25.0999 15.6035C26.1542 14.5391 32.1249 13.99 32.8853 14.419C31.9021 14.7279 31.1497 14.4094 30.084 15.5059C29.372 16.2374 28.4711 17.2682 27.751 18.0013C25.6682 20.1255 24.1763 17.9165 22.6441 19.3971L22.4051 19.2659L23.1543 18.5072C23.4126 18.139 23.6984 16.788 25.1015 15.6035H25.0999ZM20.0624 14.928C19.5393 16.7768 18.3638 17.6428 18.1233 18.0494L17.7212 19.0914L17.4904 18.9217C18.2395 16.8184 15.4544 16.3798 16.583 13.473C16.9737 12.4678 17.5679 11.1616 17.9602 10.166C18.5463 8.67573 17.9069 8.10268 17.7729 7.03503C18.5205 7.56645 20.6226 13.4602 20.0624 14.9264V14.928ZM16.5523 20.5865C16.5749 22.7682 15.5706 24.084 15.4382 24.6042L15.3349 25.8687L15.0281 25.7567C15.1702 23.226 11.9927 23.6262 12.2898 20.0966C12.3931 18.8769 12.6224 17.265 12.7306 16.0533C12.8904 14.2429 12.0105 13.8187 11.5197 12.6967C12.5062 13.0424 16.6911 18.8081 16.5507 20.5865H16.5523ZM19.3923 23.6614C20.2594 22.1375 26.8501 19.7109 27.843 19.9654C26.8258 20.6137 25.8749 20.4792 25.0062 22.0415C24.425 23.0867 23.7226 24.5257 23.1333 25.5742C21.4283 28.6091 19.0597 26.5602 17.781 28.6987L17.4694 28.6235L18.0829 27.5366C18.2621 27.0436 18.1701 25.4269 19.3923 23.6614ZM12.892 27.1237C13.4265 29.211 12.771 30.7044 12.7661 31.2326L12.9631 32.4684L12.6434 32.4315C12.1865 29.9729 9.23342 31.0886 8.69092 27.6375C8.50363 26.4434 8.3454 24.8443 8.16457 23.6582C7.89332 21.8846 6.95041 21.6813 6.21739 20.7177C7.24426 20.8218 12.6095 25.3853 12.8904 27.1221L12.892 27.1237ZM16.2229 33.9666C16.6572 32.2715 22.3777 28.2185 23.4046 28.2073C22.5924 29.0973 21.6398 29.2142 21.2136 30.9477C20.9294 32.1066 20.6307 33.6785 20.3369 34.8422C19.4924 38.2132 16.6653 36.8494 15.9936 39.2457L15.674 39.2537L15.9807 38.0468C16.0227 37.5233 15.5077 35.9867 16.2229 33.9666ZM11.0224 34.298C10.3701 32.6636 4.13943 29.3534 3.11256 29.4719C4.03772 30.2562 5.00323 30.2514 5.65391 31.9257C6.08823 33.0462 6.59036 34.5733 7.03275 35.6986C8.31311 38.9528 10.9546 37.232 11.9346 39.5354L12.2559 39.5018L11.7941 38.3381C11.6827 37.8211 11.9992 36.222 11.024 34.298H11.0224ZM9.68227 41.818C11.2678 43.5467 11.4066 45.3091 11.6747 45.8181L12.4997 46.9018L12.1736 47.0282C10.4718 44.9041 8.21624 47.4652 5.92354 44.4335C5.13078 43.3851 4.15719 41.9332 3.37412 40.8896C2.20356 39.3273 1.19445 39.6106 -0.00195312 39.0584C1.0346 38.639 8.51978 40.2989 9.68227 41.8196V41.818ZM15.5513 44.744C15.5206 42.852 20.3352 37.0207 21.4025 36.7198C20.8083 37.8755 19.8476 38.2661 19.8977 40.1949C19.9316 41.485 20.0672 43.2058 20.0947 44.5055C20.1754 48.2608 16.8365 47.6317 16.8203 50.3192L16.4877 50.4185L16.4635 49.0723C16.3585 48.5137 15.3817 47.0554 15.5513 44.7456V44.744ZM11.3421 50.4841C13.1617 52.4706 13.3215 54.4922 13.6299 55.0765L14.5777 56.3202L14.2031 56.4659C12.2494 54.0264 9.66128 56.9669 7.02791 53.4854C6.11729 52.2833 5 50.617 4.10068 49.4165C2.75736 47.6221 1.59971 47.947 0.225702 47.3131C1.41564 46.8313 10.0084 48.7378 11.3421 50.4825V50.4841ZM17.8052 57.0757C17.3644 55.1661 20.9762 48.2335 21.9934 47.7021C21.643 48.9987 20.7534 49.5989 21.2233 51.5422C21.5365 52.8419 22.0483 54.5579 22.3567 55.8656C23.2512 59.6529 19.733 59.7249 20.2997 62.4525L19.9849 62.6221L19.6684 61.2647C19.4408 60.7205 18.1362 59.4528 17.8068 57.0757H17.8052ZM13.7865 58.8349C15.9662 60.4244 16.5265 62.3756 16.9446 62.8862L18.1217 63.9203L17.7842 64.1364C15.3833 62.1275 13.4313 65.5178 10.1553 62.6221C9.02353 61.6217 7.59624 60.2067 6.47572 59.2079C4.79979 57.7128 3.73095 58.2587 2.25684 57.9081C3.3273 57.2038 12.13 57.3863 13.7865 58.8365V58.8349ZM17.0464 66.4718C19.4779 67.6483 20.3821 69.4683 20.8858 69.8973L22.2291 70.7056L21.9353 70.9777C19.2115 69.4299 17.9037 73.1098 14.1579 70.8433C12.863 70.0589 11.2032 68.9208 9.91961 68.1365C8.0015 66.9632 7.04728 67.6915 5.53443 67.6067C6.45958 66.7215 15.1541 65.3401 17.0464 66.4718ZM23.0897 73.398C26.0024 74.32 27.3118 76.2072 27.9447 76.6057L29.5803 77.2908L29.2978 77.643C25.9976 76.3528 25.1418 80.6795 20.5807 78.7523C19.0032 78.0848 16.9608 77.0811 15.3979 76.4121C13.06 75.4116 12.1138 76.3784 10.4088 76.5289C11.2985 75.3892 20.7889 72.4392 23.0897 73.398ZM22.3083 64.0003C21.8174 61.8746 25.8377 54.1593 26.9695 53.567C26.5804 55.0109 25.5907 55.6783 26.1122 57.8409C26.4609 59.2879 27.0293 61.1959 27.3748 62.6541C28.371 66.8688 24.4556 66.9504 25.0853 69.9837L24.735 70.1742L24.383 68.6631C24.1295 68.0581 22.6764 66.6447 22.3115 64.0003H22.3083ZM31.0996 79.4582C34.1286 79.8695 35.7464 81.5054 36.439 81.7888L38.1698 82.1857L37.9519 82.5811C34.4757 81.8736 34.3853 86.2819 29.5577 85.163C27.8882 84.7741 25.7021 84.137 24.0455 83.7432C21.5688 83.1574 20.8051 84.273 19.1518 84.7116C19.8299 83.4375 28.6648 78.9091 31.098 79.4598L31.0996 79.4582ZM30.0324 74.0991C28.4872 72.5496 27.8043 63.8899 28.4517 62.7966C28.886 64.2276 28.4 65.3113 29.9936 66.8768C31.0593 67.9236 32.556 69.2506 33.6232 70.3086C36.7087 73.3708 33.423 75.4837 35.5704 77.7358L35.3734 78.08L34.2706 76.9803C33.733 76.5977 31.7487 76.156 30.0324 74.0991ZM40.8856 83.5591C43.9403 83.4263 45.8278 84.7484 46.5608 84.9037L48.3352 84.987L48.1931 85.4143C44.6459 85.3359 45.3515 89.6882 40.3996 89.4433C38.6881 89.3568 36.4196 89.1167 34.7211 89.0239C32.1782 88.8862 31.6276 90.1188 30.0808 90.8423C30.5184 89.4689 38.3927 83.4471 40.8872 83.5575L40.8856 83.5591ZM41.1568 80.1513C39.0062 78.8947 35.7189 69.5883 36.108 68.2021C37.0057 69.646 36.7894 70.9761 38.9965 72.2359C40.4722 73.0778 42.505 74.1023 43.9872 74.957C48.2722 77.4285 45.2853 80.6955 48.3029 82.5475L48.1883 82.9829L46.6544 82.0929C45.9537 81.8272 43.6449 81.9136 41.1584 80.1513H41.1568ZM77.4573 10.2764C78.8281 10.8991 79.3561 11.9011 79.6418 12.1316L80.4023 12.5638L80.2425 12.7191C78.7038 11.8931 78.0257 13.9612 75.9073 12.7511C75.1759 12.3317 74.2346 11.7202 73.5097 11.3009C72.4247 10.6734 71.9032 11.0912 71.0588 11.0656C71.5625 10.5597 76.3868 9.67296 77.4573 10.2764ZM78.313 6.34833C77.5526 5.39912 77.7011 0.566644 78.1241 0C78.2775 0.816351 77.9433 1.3878 78.7296 2.34981C79.256 2.99169 80.0035 3.81604 80.5299 4.46592C82.0508 6.34513 80.1052 7.31835 81.1563 8.69174L81.0271 8.87101L80.483 8.19553C80.2086 7.95222 79.1381 7.58886 78.313 6.34833ZM84.0416 10.6878C83.1923 9.62814 83.3586 4.23542 83.8317 3.60315C84.0044 4.51554 83.6298 5.15262 84.5066 6.22508C85.0927 6.94379 85.929 7.86098 86.5151 8.58609C88.2136 10.683 86.0404 11.7699 87.2142 13.3017L87.0689 13.5018L86.4618 12.7495C86.1567 12.4774 84.9603 12.0724 84.0399 10.6862L84.0416 10.6878ZM83.8995 15.6035C85.3025 16.788 85.5883 18.139 85.8467 18.5072L86.5942 19.2659L86.3536 19.3971C84.8214 17.9181 83.3295 20.1271 81.2467 18.0013C80.5266 17.2666 79.6257 16.2374 78.9137 15.5059C77.8497 14.4094 77.0956 14.7279 76.1124 14.419C76.8745 13.99 82.8435 14.5391 83.8979 15.6035H83.8995ZM88.937 14.928C88.3767 13.4602 90.4789 7.56805 91.2264 7.03663C91.0908 8.10268 90.4514 8.67573 91.0375 10.1676C91.4298 11.1632 92.024 12.4694 92.4147 13.4746C93.5417 16.383 90.7582 16.8216 91.5074 18.9233L91.2765 19.093L90.8761 18.051C90.6355 17.6444 89.4601 16.7784 88.937 14.9296V14.928ZM92.447 20.5865C92.3066 18.8097 96.4899 13.0424 97.4781 12.6967C96.9888 13.8187 96.1073 14.2429 96.2687 16.0533C96.3769 17.265 96.6062 18.8769 96.7095 20.0966C97.0066 23.6246 93.8291 23.226 93.9712 25.7567L93.6644 25.8687L93.5611 24.6042C93.4303 24.084 92.4244 22.7682 92.4487 20.5865H92.447ZM89.6054 23.6614C90.8292 25.4269 90.7356 27.0436 90.9148 27.5366L91.5283 28.6235L91.2167 28.6987C89.9364 26.5602 87.5678 28.6091 85.8644 25.5742C85.2751 24.5241 84.5728 23.0867 83.9915 22.0415C83.1229 20.4792 82.1719 20.6121 81.1531 19.9654C82.1477 19.7109 88.7383 22.1375 89.6038 23.6614H89.6054ZM96.104 27.1237C96.3866 25.3869 101.75 20.8234 102.777 20.7193C102.044 21.6829 101.1 21.8846 100.83 23.6598C100.649 24.8459 100.491 26.445 100.304 27.6391C99.7611 31.0902 96.808 29.9745 96.3511 32.4331L96.0314 32.47L96.2284 31.2342C96.2235 30.706 95.5696 29.2126 96.104 27.1253V27.1237ZM92.7732 33.9666C93.4884 35.9883 92.9718 37.5233 93.0154 38.0468L93.3221 39.2537L93.0025 39.2457C92.3308 36.8494 89.5053 38.2132 88.6592 34.8422C88.367 33.6769 88.0683 32.1066 87.7825 30.9477C87.3563 29.2142 86.4037 29.0973 85.5915 28.2073C86.6184 28.2185 92.3389 32.2699 92.7732 33.9666ZM97.9737 34.298C96.9985 36.2236 97.3134 37.8211 97.202 38.3381L96.7402 39.5018L97.0599 39.5354C98.0399 37.232 100.683 38.9528 101.962 35.6986C102.404 34.5733 102.906 33.0462 103.341 31.9257C103.991 30.2514 104.957 30.2562 105.88 29.4719C104.855 29.3534 98.6244 32.6636 97.9721 34.298H97.9737ZM99.3138 41.818C100.476 40.2973 107.962 38.6358 108.998 39.0568C107.802 39.609 106.793 39.3257 105.622 40.888C104.839 41.9332 103.867 43.3835 103.073 44.4319C100.78 47.4652 98.5227 44.9041 96.8225 47.0266L96.4964 46.9002L97.3214 45.8165C97.5895 45.3075 97.7283 43.5467 99.3138 41.8164V41.818ZM93.4448 44.744C93.6144 47.0538 92.6376 48.5121 92.5326 49.0707L92.5084 50.4169L92.1758 50.3176C92.158 47.6301 88.8191 48.2592 88.8998 44.5039C88.9273 43.2058 89.0645 41.4834 89.0984 40.1933C89.1485 38.2645 88.1878 37.8739 87.5936 36.7182C88.6609 37.0191 93.4755 42.8504 93.4448 44.7424V44.744ZM97.6524 50.4841C98.9877 48.7394 107.579 46.8329 108.769 47.3147C107.395 47.9486 106.237 47.6221 104.894 49.4181C103.994 50.617 102.877 52.2833 101.967 53.487C99.3332 56.9685 96.7434 54.028 94.7914 56.4675L94.4168 56.3218L95.3646 55.0781C95.6713 54.4938 95.8328 52.4722 97.6508 50.4857L97.6524 50.4841ZM91.1893 57.0757C90.8599 59.4512 89.5553 60.7205 89.3277 61.2647L89.0112 62.6221L88.6964 62.4525C89.2615 59.7249 85.7433 59.6529 86.6378 55.8656C86.9478 54.5563 87.458 52.8419 87.7712 51.5422C88.2395 49.5989 87.3514 49.0003 87.0011 47.7021C88.0166 48.2335 91.6301 55.1677 91.1893 57.0757ZM95.208 58.8349C96.8645 57.3847 105.667 57.2022 106.738 57.9065C105.264 58.2587 104.195 57.7128 102.519 59.2063C101.398 60.2067 99.971 61.6217 98.8391 62.6205C95.5632 65.5162 93.6128 62.1275 91.2103 64.1348L90.8728 63.9187L92.0499 62.8846C92.468 62.3724 93.0283 60.4228 95.208 58.8333V58.8349ZM91.9465 66.4718C93.8388 65.3401 102.532 66.7215 103.458 67.6067C101.946 67.6915 100.991 66.9632 99.0733 68.1365C97.7897 68.9224 96.1299 70.0589 94.835 70.8433C91.0892 73.1098 89.7814 69.4299 87.056 70.9777L86.7637 70.7056L88.1071 69.8973C88.6108 69.4683 89.515 67.6483 91.9465 66.4718ZM85.9032 73.398C88.2039 72.4392 97.696 75.3892 98.584 76.5289C96.8791 76.3784 95.9329 75.4116 93.595 76.4121C92.0321 77.0811 89.9897 78.0864 88.4122 78.7523C83.8527 80.6795 82.9953 76.3544 79.6951 77.643L79.4126 77.2908L81.0481 76.6057C81.681 76.2072 82.9905 74.3184 85.9032 73.398ZM86.6846 64.0003C86.3181 66.6447 84.8666 68.0565 84.6131 68.6631L84.2611 70.1742L83.9108 69.9837C84.5405 66.9488 80.6235 66.8672 81.6213 62.6541C81.9652 61.1959 82.5335 59.2879 82.8823 57.8409C83.4038 55.6783 82.4141 55.0109 82.0249 53.567C83.1568 54.1593 87.1771 61.8746 86.6862 64.0003H86.6846ZM77.8932 79.4582C74.8643 79.8695 73.2465 81.5054 72.5522 81.7888L70.8214 82.1857L71.0394 82.5811C74.5156 81.8736 74.606 86.2819 79.4336 85.163C81.103 84.7741 83.2892 84.137 84.9457 83.7432C87.4225 83.1574 88.1862 84.273 89.8395 84.7116C89.1614 83.4375 80.3264 78.9091 77.8916 79.4598L77.8932 79.4582ZM78.9605 74.0991C80.5056 72.5496 81.1886 63.8899 80.5412 62.7966C80.1052 64.2276 80.5928 65.3113 78.9992 66.8768C77.9352 67.9236 76.4369 69.2506 75.3697 70.3086C72.2842 73.3708 75.5699 75.4837 73.4225 77.7358L73.6195 78.08L74.7222 76.9803C75.2599 76.5977 77.2442 76.156 78.9605 74.0991ZM68.1073 83.5591C70.6018 83.4487 78.4777 89.4705 78.9137 90.8439C77.3653 90.1188 76.8163 88.8878 74.2734 89.0255C72.5732 89.1183 70.3064 89.3584 68.5949 89.4449C63.643 89.6898 64.3486 85.3375 60.8014 85.4159L60.6593 84.9886L62.4337 84.9053C63.1683 84.75 65.0541 83.4279 68.1089 83.5607L68.1073 83.5591Z" fill="url(#paint0_linear_10_19042)"/>
</g>
<defs>
<linearGradient id="paint0_linear_10_19042" x1="109" y1="46.5" x2="-0.000341892" y2="46.5" gradientUnits="userSpaceOnUse">
<stop stop-color="white"/>
<stop offset="0.12" stop-color="#FFEE9D"/>
<stop offset="0.26" stop-color="#DEAC55"/>
<stop offset="0.38" stop-color="#EFC978"/>
<stop offset="0.44" stop-color="#FDDD90"/>
<stop offset="0.72" stop-color="#DFB156"/>
<stop offset="0.87" stop-color="#FCF6B2"/>
<stop offset="1" stop-color="#CE9F47"/>
</linearGradient>
<clipPath id="clip0_10_19042">
<rect width="223" height="29" fill="white" transform="translate(124 50)"/>
</clipPath>
<clipPath id="clip1_10_19042">
<rect width="109" height="93" fill="white"/>
</clipPath>
</defs>
</svg>
