<svg width="993" height="167" viewBox="0 0 993 167" fill="none" xmlns="http://www.w3.org/2000/svg">
<path d="M1.179 33.811H20.043V35.645C20.043 37.61 20.436 39.444 20.96 41.278L48.077 114.245C48.208 114.638 48.863 117.127 48.863 118.961H50.173C50.173 118.568 50.173 116.996 51.09 114.245L69.823 51.889L67.203 43.112C65.369 36.955 64.19 34.99 59.474 34.99H56.461V33.811H85.805V34.99H73.36V35.252C75.194 35.907 76.766 38.92 77.421 41.278L99.298 114.245C99.822 116.603 100.084 118.044 100.084 118.961H101.918C101.918 117.913 102.18 116.341 103.097 113.852L128.904 42.981C129.428 41.54 129.69 40.23 129.69 39.182C129.69 36.431 127.725 34.99 123.271 34.99H118.293V33.811H140.563V34.99H138.598C134.406 34.99 133.227 38.003 131.393 43.112L100.346 128.524L93.01 129.179L71.002 56.081L49.256 128.655L41.92 129.179L10.742 43.112C8.777 36.693 7.86 34.99 3.144 34.99H1.179V33.811ZM143.976 128V126.821H148.561C154.849 126.821 155.504 124.987 155.504 118.699V43.112C155.504 36.824 154.849 34.99 148.561 34.99H143.976V33.811H176.202V34.99H172.796C166.508 34.99 165.722 36.824 165.722 43.112V77.303H201.616V43.112C201.616 36.824 200.83 34.99 194.542 34.99H191.136V33.811H223.493V34.99H218.777C212.489 34.99 211.834 36.824 211.834 43.112V118.699C211.834 124.987 212.489 126.821 218.777 126.821H223.493V128H191.136V126.821H194.673C200.961 126.821 201.616 124.987 201.616 118.699V79.661H165.722V118.699C165.722 124.987 166.508 126.821 172.796 126.821H176.202V128H143.976ZM228.026 128V126.821H232.611C238.899 126.821 239.554 126.297 239.554 120.009V41.802C239.554 35.514 238.899 34.99 232.611 34.99H228.026V33.811H261.431V35.252H256.846C250.558 35.252 249.772 35.776 249.772 42.064V120.009C249.772 126.297 250.558 126.821 256.846 126.821H261.431V128H228.026ZM277.025 128V126.821H286.981C293.269 126.821 293.924 126.166 293.924 119.878V36.169H286.064C273.488 36.169 269.034 38.658 268.379 51.234L267.855 56.736L265.628 56.474L267.593 26.082L268.903 26.213L268.379 33.811H329.425L328.77 26.344L330.211 26.213L332.176 56.474L329.818 56.736L329.425 51.234C328.508 38.658 324.316 36.169 311.74 36.169H304.142V119.878C304.142 126.166 304.797 126.821 311.085 126.821H320.779V128H277.025ZM378.823 101.014H377.644V93.809C377.644 81.233 370.832 79.792 363.496 79.792H358.256V118.699C358.256 121.581 356.946 123.939 355.374 125.511V125.642H381.443C394.019 125.642 400.045 120.533 400.962 107.957L401.748 97.477H403.844L401.617 132.978H400.438L400.831 126.821H400.7C399.783 127.738 397.949 128 395.853 128H336.51V126.821H341.095C347.383 126.821 348.038 126.166 348.038 119.878V41.933C348.038 35.645 347.383 34.99 341.095 34.99H336.51V33.811H388.779C390.875 33.811 392.709 34.073 393.626 34.99H393.757L393.364 28.964L394.543 28.833L396.901 64.334H394.543L394.019 55.164C393.233 41.016 386.421 36.169 373.845 36.169H355.374V36.3C356.946 37.872 358.256 40.23 358.256 43.112V77.434H363.496C370.832 77.434 377.644 76.124 377.644 63.548V58.963H378.823V101.014ZM442.277 128V126.821H444.373C447.648 126.821 449.613 123.153 451.578 118.699L488.258 33.811H498.476V35.383C498.476 38.003 499 41.409 499.655 42.981L530.571 118.699C533.191 124.987 533.977 126.821 538.3 126.821H539.348V128H514.327V126.821H524.414V126.559C522.711 125.904 521.27 122.629 520.353 120.402L513.017 102.455H461.141L454.067 118.699C453.543 119.878 453.281 120.795 453.281 121.712C453.281 124.856 455.77 126.821 459.7 126.821H466.119V128H442.277ZM462.058 100.097H511.969L489.83 45.47C488.913 43.374 488.782 41.671 488.782 40.23H487.603C487.603 41.016 487.21 42.719 486.031 45.47L462.058 100.097ZM766.724 112.018C743.013 112.018 727.293 96.167 727.293 72.325C727.293 48.614 743.013 32.763 766.724 32.763C790.173 32.763 805.893 48.614 805.893 72.325C805.893 96.167 790.173 112.018 766.724 112.018ZM767.117 109.66C784.802 109.66 794.496 97.477 794.496 74.814C794.496 49.138 784.54 35.121 766.2 35.121C748.253 35.121 738.69 47.435 738.69 69.967C738.69 95.774 748.515 109.66 767.117 109.66ZM647.252 128V126.821H651.837C658.125 126.821 658.78 126.166 658.78 119.878V41.933C658.78 35.645 658.125 34.99 651.837 34.99H647.252V33.811H681.443C702.403 33.811 716.289 45.47 716.289 62.893C716.289 78.875 704.237 89.748 688.517 91.189L685.897 91.32V92.106C691.399 92.761 695.591 96.298 700.045 101.145C720.35 123.546 741.965 130.358 758.864 130.358C780.086 130.358 796.199 119.485 800.784 115.555L803.666 113.066L804.452 113.983L801.57 116.472C789.78 126.559 771.833 134.157 752.314 134.157C732.664 134.157 710.001 126.428 691.923 105.599L689.172 102.324C684.194 96.56 680.395 91.975 675.941 91.975H674.369V89.748H680.395C695.067 89.748 704.892 79.006 704.892 62.893C704.892 46.911 695.067 36.169 680.395 36.169H666.771V36.3C668.343 37.872 668.998 40.099 668.998 43.112V119.878C668.998 126.166 669.784 126.821 676.072 126.821H683.67V128H647.252ZM811.257 128V126.821H815.842C822.13 126.821 822.785 126.166 822.785 119.878V41.933C822.785 35.645 822.13 34.99 815.842 34.99H811.257V33.811H845.448C866.408 33.811 880.294 45.47 880.294 62.893C880.294 78.875 868.242 89.748 852.522 91.189L849.902 91.32V92.106C858.417 93.023 864.705 101.276 870.993 109.922C877.805 119.616 885.272 129.048 896.276 129.048C904.922 129.048 910.686 123.546 910.686 115.031C910.686 107.957 905.97 103.11 898.765 102.455H896.538L897.586 100.097H942.519L920.38 45.47C919.463 43.374 919.332 41.671 919.332 40.23H918.153C918.153 41.016 917.76 42.719 916.581 45.47L885.141 117.127L883.438 115.424L918.808 33.811H929.026V35.383C929.026 38.003 929.55 41.409 930.205 42.981L961.121 118.699C963.741 124.987 964.527 126.821 968.85 126.821H969.898V128H944.877V126.821H954.964V126.559C953.261 125.904 951.82 122.629 950.903 120.402L943.567 102.455H903.874C908.852 104.551 911.996 109.136 911.996 115.031C911.996 125.773 903.219 132.978 890.25 132.978C875.316 132.978 865.491 119.616 857.369 108.088C851.212 99.442 845.841 91.975 839.946 91.975H838.374V89.748H844.4C859.072 89.748 868.897 79.006 868.897 62.893C868.897 46.911 859.072 36.169 844.4 36.169H830.776V36.3C832.348 37.872 833.003 40.099 833.003 43.112V119.878C833.003 126.166 833.789 126.821 840.077 126.821H847.675V128H811.257Z" fill="white"/>
</svg>
