<svg width="28" height="28" viewBox="0 0 28 28" fill="none" xmlns="http://www.w3.org/2000/svg">
<path fill-rule="evenodd" clip-rule="evenodd" d="M28 0H0V28H28V0ZM27 1H1V27H27V1Z" fill="#9EA6B3"/>
<path fill-rule="evenodd" clip-rule="evenodd" d="M19.7871 15.1064C21.7581 10.9362 18.7588 6 14.0455 6C9.16084 6 6.16148 11.1064 8.30388 15.2766C9.14745 16.8877 11.1212 18.938 12.6995 20.5776C13.2056 21.1033 13.671 21.5868 14.0455 22C14.4316 21.5447 14.974 20.9678 15.577 20.3266C17.1154 18.6905 19.0483 16.6349 19.7871 15.1064ZM18 12C18 14.2091 16.2091 16 14 16C11.7909 16 10 14.2091 10 12C10 9.79086 11.7909 8 14 8C16.2091 8 18 9.79086 18 12Z" fill="#9EA6B3"/>
<path d="M14 14C15.1046 14 16 13.1046 16 12C16 10.8954 15.1046 10 14 10C12.8954 10 12 10.8954 12 12C12 13.1046 12.8954 14 14 14Z" fill="#9EA6B3"/>
</svg>
