<svg width="80" height="81" viewBox="0 0 80 81" fill="none" xmlns="http://www.w3.org/2000/svg">
<g clip-path="url(#clip0_10_18816)">
<path d="M34.8052 6.67523C32.7842 7.34887 31.0083 8.87988 28.8036 9.12484C27.2114 9.36981 25.6191 8.7574 24.2718 8.02252C23.5369 7.65507 22.9245 8.7574 23.6594 9.12484C25.0067 9.85973 26.4765 10.4721 28.0075 10.4109C29.2323 10.4109 30.3959 10.1047 31.4369 9.67601C33.3966 8.81864 35.2339 7.47135 37.561 7.47135C39.4594 7.53259 41.1129 8.4512 42.7052 9.43105C43.3788 9.85973 43.9912 8.7574 43.3176 8.32872C40.6843 6.67522 37.8059 5.63414 34.8052 6.67523Z" fill="#D1D5DB"/>
<path d="M61.3835 12.6768C61.3223 10.5334 60.8936 8.38999 59.9137 6.4303C59.0564 4.71556 57.6478 3.42952 55.8719 2.75587C53.606 1.95975 51.1564 2.32718 48.9517 2.93959C47.3595 3.42952 45.7672 4.04192 44.2974 4.77681C43.5625 5.14425 44.1749 6.24658 44.9711 5.94037C48.5843 4.1644 54.5246 1.8985 57.7703 5.51169C58.9951 6.85898 59.5463 8.63495 59.9137 10.3497C60.2812 12.5543 60.2812 14.8815 60.1587 17.0861C59.73 21.9241 58.5665 26.7621 57.0354 31.3552C56.5455 32.7024 55.8719 33.866 54.5858 34.5397C53.9122 34.8459 53.1773 34.9683 52.3812 35.0296C52.1362 35.0296 51.8912 35.0296 51.5238 35.0296C48.2168 35.0296 44.7874 35.0296 41.4804 35.0296C36.2137 35.0296 30.8245 35.0296 25.5579 35.0296C24.333 35.0296 23.1082 35.0296 21.8834 35.0296C21.6385 35.0296 21.271 35.0296 21.0261 35.0296C19.9237 35.0296 18.9439 34.6621 18.0865 34.0497C16.678 32.8862 16.1881 30.9265 15.6369 29.273C14.902 26.9458 14.3509 24.5575 14.0447 22.1691C13.6772 19.842 13.4935 17.4536 13.616 15.004C13.6772 12.983 13.9834 10.8396 14.7795 8.94116C15.5144 7.3489 16.5555 5.94038 18.209 5.26673C20.1687 4.40936 22.4958 4.65433 24.5168 5.20549C26.0478 5.63417 27.5176 6.24658 28.9261 6.92022C29.661 7.28766 30.3346 6.1241 29.5385 5.8179C29.0486 5.57293 28.5586 5.32797 27.9462 5.08301C29.4772 3.79696 31.1307 2.63339 33.2129 2.26595C34.9889 1.95975 36.8261 2.44967 38.5408 3.06208C39.7656 3.552 40.868 4.1644 42.0315 4.71557C42.7664 5.08301 43.3788 3.98068 42.6439 3.61324C40.623 2.57215 38.5408 1.46982 36.2749 1.04114C34.1928 0.673698 32.1718 0.979901 30.2734 1.89851C28.9873 2.57215 27.7625 3.552 26.6602 4.53185C22.9245 3.12332 18.5152 2.51091 15.4532 5.57293C12.3299 8.6962 12.1462 13.9016 12.3299 18.0047C12.4524 20.5768 12.8199 23.1489 13.371 25.6598C13.616 26.8846 13.9222 28.0482 14.2896 29.273C14.7795 30.9877 15.3307 33.0086 16.5555 34.3559C17.7803 35.8257 19.4951 36.3156 21.3323 36.3156C21.516 37.4792 21.6997 38.6428 21.8222 39.8676C21.9447 40.6025 22.0059 41.2761 22.4346 41.8273C22.9858 42.7459 23.9044 43.297 24.8842 43.297C25.0067 43.297 25.1292 43.297 25.2517 43.297C25.3741 44.6443 25.6191 45.9916 25.7416 47.3389C25.9865 49.1761 26.1703 50.9521 26.4152 52.7893C26.354 52.8505 26.2927 53.0343 26.2927 53.1567C26.354 53.3405 26.4152 53.5242 26.5377 53.6467C26.7214 55.0552 26.9664 56.525 27.0889 57.9947C26.9664 58.1172 26.7827 58.3009 26.7827 58.5459C26.7827 58.7909 26.9664 59.0971 27.2726 59.1583C27.3951 60.5056 27.64 61.8529 27.8238 63.2614C27.5176 63.3227 27.2726 63.5676 27.2726 63.9351C27.2726 64.3025 27.5788 64.6087 27.9462 64.6087L28.0075 64.6699C28.13 66.0172 28.3749 67.3645 28.4974 68.7118L28.3137 68.6506C27.9462 68.6506 27.64 68.9568 27.64 69.3242C27.64 69.6917 27.9462 69.9979 28.3137 69.9979L28.6811 69.9979C28.8036 71.3452 29.0486 72.6924 29.171 74.0397L28.6811 74.0397C28.3137 74.0397 28.0075 74.3459 28.0075 74.7134C28.0075 75.0808 28.3137 75.387 28.6811 75.387L29.416 75.387C29.5385 75.9994 29.5997 76.6731 29.661 77.3467C29.8447 78.3878 29.9672 79.3676 30.8858 80.0413C31.4982 80.5312 32.2331 80.5312 32.9679 80.5312C33.7028 80.5312 34.4377 80.5312 35.2951 80.5312C37.0098 80.1638 38.7246 80.1638 40.4393 80.1638C41.2354 80.225 41.9703 80.1025 42.6439 79.5514C43.2563 79.0614 43.5625 78.3878 43.6238 77.5917C43.7463 76.7343 43.8075 75.9382 43.93 75.0808L44.6036 75.1421C44.7874 75.2033 44.9098 75.0808 45.0323 74.9583C45.1548 74.8359 45.216 74.6521 45.216 74.5297C45.216 74.1622 44.9098 73.856 44.5424 73.856L44.0525 73.856C44.1749 73.2436 44.1749 72.6312 44.2974 72.0188C44.4199 71.2839 44.4812 70.6103 44.5424 69.8141L44.9098 69.8141C45.0936 69.8754 45.216 69.7529 45.3385 69.6304C45.461 69.5079 45.5222 69.3242 45.5222 69.2017C45.5222 68.8343 45.216 68.5281 44.8486 68.5281V68.4056C44.9711 67.0583 45.216 65.711 45.3385 64.3637L45.3998 64.425C45.6447 64.425 45.706 64.3637 45.8284 64.2413C45.9509 64.1188 46.0122 63.9351 46.0122 63.8126C46.0122 63.4451 45.7672 63.2002 45.461 63.1389C45.5835 62.404 45.6447 61.6079 45.706 60.9343C45.8284 60.3219 45.8897 59.6482 45.9509 59.0971C46.0734 59.0971 46.1346 59.0358 46.1959 58.9746C46.3184 58.8521 46.3796 58.6684 46.3796 58.5459C46.3796 58.3009 46.2571 58.1785 46.0734 57.9947C46.2571 56.5862 46.4408 55.0552 46.6246 53.6467C46.747 53.5242 46.8083 53.3405 46.8083 53.218C46.8083 53.0955 46.8083 52.973 46.6858 52.8505C46.8083 51.7482 46.992 50.7071 47.1145 49.6048C47.3595 47.5226 47.6044 45.4404 47.9106 43.297C48.0331 43.297 48.0331 43.297 48.1556 43.297C49.7478 43.297 51.0339 42.1335 51.3401 40.6025C51.585 39.1327 51.7688 37.7242 51.9525 36.3156C53.4223 36.3156 54.7695 35.9482 55.9331 35.0296C57.1579 34.0497 57.7091 32.7637 58.1378 31.3552C58.5664 30.1916 58.8727 29.028 59.2401 27.8032C59.9137 25.2923 60.4649 22.7815 60.8323 20.2094C61.3223 17.7598 61.506 15.2489 61.3835 12.6768ZM30.5183 43.297C31.3757 43.297 32.2331 43.297 33.0904 43.297C37.0098 43.297 40.8067 43.297 44.7261 43.297C45.3385 43.297 46.0734 43.297 46.6858 43.297C46.5021 44.5831 46.3796 45.8079 46.1959 47.0939L27.0889 47.0939C26.9051 45.8079 26.7827 44.5831 26.5989 43.297C27.885 43.3583 29.171 43.297 30.5183 43.297ZM45.461 52.4831L27.7625 52.4219C27.64 51.3195 27.5176 50.3397 27.3338 49.2986C27.2726 48.9924 27.2726 48.7474 27.2113 48.4412L45.9509 48.4412C45.8284 49.7885 45.706 51.1358 45.461 52.4831ZM44.7874 57.811L28.4362 57.7498C28.3137 56.4025 28.0687 55.0552 27.9462 53.7079L45.3385 53.7079C45.216 54.9327 45.0323 56.2188 44.8486 57.3823C44.7874 57.5661 44.8486 57.6273 44.7874 57.811ZM42.4602 76.6731C42.399 77.2242 42.399 77.8366 42.0928 78.2653C41.6641 78.939 41.0517 78.939 40.3168 78.939C39.5819 78.939 38.847 78.939 38.0509 79.0002C36.3362 79.0002 34.6214 79.0002 32.9067 79.0002C32.1718 79.0002 31.4982 78.939 31.192 78.2653C31.0695 78.0204 31.0083 77.8366 30.947 77.5304C30.8858 76.7343 30.7021 75.9382 30.6408 75.1421L42.6439 75.1421C42.5215 75.632 42.5215 76.1219 42.4602 76.6731ZM42.7664 73.7948L30.4571 73.7335C30.3346 72.8762 30.2734 72.08 30.1509 71.2227C30.0897 70.6715 29.9672 70.1816 29.9672 69.6917L43.3176 69.6917C43.1339 71.1002 42.9501 72.3862 42.7664 73.7948ZM43.4401 68.4669L29.7834 68.4056C29.661 67.0583 29.416 65.711 29.2935 64.3637L43.9912 64.3637C43.8075 65.7723 43.6238 67.0583 43.4401 68.4669ZM44.1137 63.1389L29.1098 63.0777C29.0486 62.1591 28.8648 61.2405 28.7424 60.2606C28.6811 59.832 28.6199 59.4033 28.5586 58.9746H44.6036C44.4812 60.4444 44.2974 61.7304 44.1137 63.1389ZM49.8091 41.0311C49.5029 41.5823 48.9517 42.011 48.2781 41.9497C48.0331 41.9497 47.6657 41.9497 47.4207 41.9497C45.8284 41.9497 44.3587 41.9497 42.7664 41.9497C42.6439 41.9497 42.399 41.9497 42.2765 41.9497C36.6424 41.9497 30.8858 41.9497 25.2517 41.9497C25.0067 41.9497 24.6392 41.9497 24.3943 41.8273C23.5369 41.4598 23.292 40.6025 23.1082 39.8063C22.9245 38.6428 22.7408 37.4792 22.6183 36.2544C23.2307 36.2544 23.9656 36.2544 24.578 36.2544C28.4974 36.2544 32.4168 36.2544 36.3362 36.2544C40.378 36.2544 44.2974 36.2544 48.3393 36.2544C49.1967 36.2544 49.9315 36.2544 50.7889 36.2544C50.6052 37.2955 50.4215 38.3366 50.299 39.3164C50.1153 39.9901 50.1153 40.6025 49.8091 41.0311Z" fill="#D0B5A9"/>
<path d="M63.7119 52.8505C62.6096 53.9529 60.7724 53.9529 59.6701 52.8505C59.4251 52.6056 58.9964 52.5443 58.6902 52.8505C58.384 53.1567 58.384 53.5242 58.6902 53.8304C59.7926 54.9327 59.7926 56.7699 58.6902 57.8722C58.4453 58.1172 58.384 58.5459 58.6902 58.8521C58.9964 59.1583 59.3639 59.1583 59.6701 58.8521C60.7724 57.7498 62.6096 57.7498 63.7119 58.8521C63.9569 59.0971 64.3856 59.1583 64.6918 58.8521C64.998 58.5459 64.998 58.1785 64.6918 57.8723C63.5895 56.7699 63.5895 54.9327 64.6918 53.8304C64.9368 53.5854 64.998 53.1567 64.6918 52.8505C64.3856 52.5443 63.9569 52.6056 63.7119 52.8505ZM62.6096 56.6474C61.9972 56.525 61.3848 56.525 60.7724 56.6474C60.8949 56.035 60.8949 55.4226 60.7724 54.8102C61.3848 54.9327 61.9972 54.9327 62.6096 54.8102C62.4871 55.4226 62.4871 56.035 62.6096 56.6474Z" fill="#D1D5DB"/>
<path d="M71.9791 23.8839C70.3256 25.5374 67.5697 25.5986 65.855 23.8839C65.61 23.6389 65.1814 23.5777 64.8752 23.8839C64.569 24.1901 64.6914 24.5575 64.9364 24.8025C66.5899 26.456 66.6511 29.2118 64.9364 30.9265C64.6914 31.1715 64.6302 31.6002 64.9364 31.9064C65.2426 32.2126 65.61 32.2126 65.9162 31.9064C67.5697 30.2529 70.3256 30.1916 72.0403 31.9064C72.2853 32.1513 72.7139 32.2126 73.0201 31.9064C73.3263 31.6002 73.3263 31.2327 73.0201 30.9265C71.3666 29.273 71.3054 26.5172 73.0201 24.8025C73.2651 24.5575 73.3263 24.1288 73.0201 23.8226C72.5915 23.6389 72.224 23.6389 71.9791 23.8839ZM70.5705 29.4567C69.4682 29.0893 68.3046 29.1505 67.2635 29.4568C67.631 28.3544 67.5697 27.1909 67.2635 26.1498C68.3659 26.5172 69.5294 26.456 70.5705 26.1498C70.2031 27.2521 70.2643 28.4157 70.5705 29.4567Z" fill="#D1D5DB"/>
<path d="M-6.8989 34.6621C-5.24541 33.0086 -2.48959 32.9474 -0.774858 34.6621C-0.529896 34.9071 -0.0399723 34.9071 0.20499 34.6621C0.449951 34.4171 0.511191 33.9885 0.204989 33.6823C-1.4485 32.0288 -1.50974 29.2729 0.20499 27.5582C0.449951 27.3133 0.449952 26.8233 0.20499 26.5784C-0.039972 26.3334 -0.468655 26.2722 -0.774857 26.5784C-2.42835 28.2319 -5.18417 28.2931 -6.8989 26.5784C-7.14386 26.4559 -7.5113 26.4559 -7.81751 26.7621C-8.06247 27.007 -8.12371 27.4357 -7.81751 27.7419C-6.16402 29.3954 -6.10277 32.1512 -7.81751 33.866C-8.06247 34.1109 -8.06247 34.6009 -7.81751 34.8458C-7.57255 35.0908 -7.14386 34.9071 -6.8989 34.6621ZM-5.49037 29.0892C-4.44928 29.3954 -3.22448 29.3954 -2.18339 29.0892C-2.48959 30.1303 -2.55083 31.2939 -2.18339 32.3962C-3.22447 32.09 -4.44928 32.09 -5.49037 32.3962C-5.12293 31.2939 -5.18417 30.1303 -5.49037 29.0892Z" fill="#D1D5DB"/>
<path d="M11.2271 54.2591C11.3496 54.2591 11.5333 54.1979 11.6558 54.0754C11.7783 53.9529 11.8395 53.7692 11.8395 53.6467C11.8395 53.5242 11.7783 53.3405 11.6558 53.218C11.5333 53.0955 11.3496 53.0343 11.2271 53.0343C11.1046 53.0343 11.0434 53.0955 10.9821 53.0343C10.7372 53.1568 10.6147 53.4017 10.6147 53.6467C10.6147 53.7692 10.6759 53.9529 10.7984 54.0754C10.8597 54.1366 10.9209 54.1979 11.0434 54.1979C11.1046 54.2591 11.1659 54.3204 11.2271 54.2591Z" fill="#D1D5DB"/>
<path d="M0.572486 46.0529C0.633727 45.9916 0.694967 45.9304 0.694967 45.8079C0.756207 45.7467 0.756207 45.6242 0.694966 45.563C0.694966 45.4405 0.633726 45.2568 0.511245 45.1343C0.388764 45.0118 0.205043 44.9506 0.0825621 44.9506C-0.0399188 44.9506 -0.039918 44.9506 -0.162399 44.9506C-0.407361 45.073 -0.529842 45.318 -0.529842 45.563C-0.529842 45.6854 -0.468602 45.8692 -0.346121 45.9916C-0.22364 46.1141 -0.0399188 46.1754 0.0825621 46.1754C0.266283 46.2366 0.450005 46.1754 0.572486 46.0529Z" fill="#D1D5DB"/>
<path d="M7.86029 36.1931C7.98277 36.0707 8.04401 35.8869 8.04401 35.7645C8.04401 35.642 7.98277 35.4583 7.86029 35.3358C7.79905 35.2745 7.73781 35.2133 7.61533 35.2133C7.55409 35.1521 7.4316 35.1521 7.37036 35.2133C7.1254 35.2133 6.88044 35.3358 6.75796 35.5807C6.69672 35.642 6.69672 35.7645 6.75796 35.8257C6.8192 35.8869 6.75796 35.9482 6.75796 36.0707C6.8192 36.1319 6.8192 36.2544 6.88044 36.3156C6.94168 36.3769 7.00292 36.4381 7.1254 36.4381C7.18664 36.4993 7.30912 36.4993 7.37036 36.4381C7.43161 36.3769 7.49285 36.4381 7.61533 36.4381C7.73781 36.3156 7.79905 36.2544 7.86029 36.1931Z" fill="#D1D5DB"/>
<path d="M19.9251 48.0125C20.0476 47.89 20.1088 47.7063 20.1088 47.5838C20.1088 47.4614 20.0476 47.2776 19.9251 47.1551C19.8026 47.0327 19.6189 46.9714 19.4964 46.9714C19.129 46.9714 18.8228 47.2776 18.8228 47.6451C18.8228 47.7676 18.884 47.9513 19.0065 48.0738C19.129 48.1962 19.3127 48.2575 19.4352 48.2575C19.6189 48.1962 19.8026 48.135 19.9251 48.0125Z" fill="#D1D5DB"/>
<path d="M18.2097 66.9971C18.1485 66.9359 18.026 66.9359 17.9647 66.9971C17.5973 66.9971 17.2911 67.3033 17.2911 67.6708C17.2911 67.7933 17.3523 67.8545 17.2911 67.9157C17.2298 67.977 17.4748 67.977 17.5361 68.0382C17.6585 68.1607 17.8423 68.2219 17.9647 68.2219C18.0872 68.2219 18.2709 68.1607 18.3934 68.0382C18.5159 67.9157 18.5771 67.732 18.5771 67.6095C18.5771 67.487 18.5159 67.3033 18.3934 67.1808C18.3934 67.0584 18.3322 66.9971 18.2097 66.9971Z" fill="#D1D5DB"/>
<path d="M69.1 41.0923C69.0387 41.1536 69.0387 41.2761 69.1 41.3373C69.1 41.4598 69.1612 41.6435 69.2837 41.766C69.3449 41.8272 69.4062 41.8885 69.5286 41.8885C69.5899 41.9497 69.7124 41.9497 69.7736 41.8885C69.8961 41.8885 69.9573 41.8272 70.0186 41.8885C70.0798 41.9497 70.2023 41.8272 70.2635 41.766C70.386 41.6435 70.4472 41.4598 70.4472 41.3373C70.4472 41.2148 70.386 41.1536 70.4472 41.0923C70.386 41.0311 70.386 40.9086 70.3248 40.8474C70.2023 40.7249 70.0186 40.6637 69.8961 40.6637C69.4674 40.7249 69.2224 40.8474 69.1 41.0923Z" fill="#D1D5DB"/>
<path d="M78.5314 26.3947C78.3477 26.4559 78.2252 26.5784 78.1639 26.7622C78.1027 26.8234 78.1027 26.9459 78.1639 27.0071C78.1639 27.1296 78.2252 27.3133 78.3477 27.4358C78.4089 27.497 78.4701 27.5583 78.5926 27.5583C78.6539 27.6195 78.7763 27.6195 78.8376 27.5583C78.9601 27.5583 79.0213 27.497 79.0825 27.5583C79.1438 27.497 79.2663 27.497 79.3275 27.4358C79.45 27.3133 79.5112 27.1296 79.5112 27.0071C79.5112 26.8846 79.45 26.8234 79.5112 26.7622C79.45 26.7009 79.45 26.5784 79.3887 26.5172C79.2663 26.3947 79.0825 26.3335 78.9601 26.3335C78.7151 26.3335 78.6539 26.3947 78.5314 26.3947Z" fill="#D1D5DB"/>
<path d="M70.0183 15.3101C69.957 15.2489 69.8958 15.1876 69.7733 15.1876C69.6508 15.1876 69.5896 15.1264 69.5284 15.1877C69.1609 15.1877 68.8547 15.4939 68.8547 15.8613C68.8547 15.9838 68.916 16.045 68.8547 16.1063C68.916 16.1675 68.916 16.29 68.9772 16.3512C69.0997 16.4737 69.2834 16.5349 69.4059 16.5349C69.5284 16.5349 69.7121 16.4737 69.8346 16.3512C69.957 16.2287 70.0183 16.045 70.0183 15.9225C70.202 15.6163 70.1408 15.4326 70.0183 15.3101Z" fill="#D1D5DB"/>
<path d="M78.3482 16.045C78.1032 16.045 77.797 16.2288 77.7358 16.4125C77.6745 16.4737 77.6745 16.5962 77.7358 16.6574C77.7358 16.7799 77.797 16.9636 77.9195 17.0861C78.042 17.2086 78.2257 17.2699 78.3482 17.2699C78.4707 17.2699 78.5319 17.2086 78.5931 17.2699C78.6544 17.2086 78.7769 17.2086 78.8381 17.1474C78.8994 17.0861 78.9606 17.0249 78.9606 16.9024C79.0218 16.8412 79.0218 16.7187 78.9606 16.6574C78.9606 16.535 78.8994 16.3512 78.7769 16.2288C78.6544 16.1063 78.4707 16.045 78.3482 16.045Z" fill="#D1D5DB"/>
</g>
<defs>
<clipPath id="clip0_10_18816">
<rect width="80" height="81" fill="white"/>
</clipPath>
</defs>
</svg>
