<svg width="61" height="99" viewBox="0 0 61 99" fill="none" xmlns="http://www.w3.org/2000/svg">
<g clip-path="url(#clip0_10_18735)">
<path d="M28.647 12.3877C28.2464 12.3877 27.8457 12.6923 27.8457 13.2C27.8457 13.7077 28.1462 14.0123 28.647 14.0123C29.1478 14.0123 29.4483 13.7077 29.4483 13.2C29.4483 12.6923 29.0477 12.3877 28.647 12.3877Z" fill="#D1D5DB"/>
<path d="M56.5937 71.5846C56.9944 71.5846 57.395 71.28 57.395 70.7723C57.395 70.2646 56.9944 70.0615 56.5937 70.0615C56.1931 70.0615 55.8926 70.3661 55.8926 70.8738C55.8926 71.3815 56.1931 71.5846 56.5937 71.5846Z" fill="#D1D5DB"/>
<path d="M55.3906 77.6769C55.7913 77.6769 56.1919 77.3723 56.1919 76.8646C56.1919 76.3569 55.7913 76.1538 55.3906 76.1538C54.9899 76.1538 54.6895 76.4584 54.6895 76.9661C54.6895 77.4738 54.9899 77.6769 55.3906 77.6769Z" fill="#D1D5DB"/>
<path d="M55.8912 83.6677C55.4905 83.6677 55.0898 83.9723 55.0898 84.48C55.0898 84.9877 55.3903 85.2923 55.8912 85.2923C56.392 85.2923 56.6925 84.9877 56.6925 84.48C56.6925 83.9723 56.392 83.6677 55.8912 83.6677Z" fill="#D1D5DB"/>
<path d="M51.9849 86.917C51.5843 86.917 51.1836 87.2216 51.1836 87.7293C51.1836 88.237 51.4841 88.5416 51.9849 88.5416C52.4857 88.5416 52.7862 88.237 52.7862 87.7293C52.7862 87.2216 52.3856 86.917 51.9849 86.917Z" fill="#D1D5DB"/>
<path d="M55.8912 92.7046C55.4905 92.7046 55.0898 93.0092 55.0898 93.5169C55.0898 94.0246 55.3903 94.3292 55.8912 94.3292C56.392 94.3292 56.6925 94.0246 56.6925 93.5169C56.6925 93.0092 56.392 92.7046 55.8912 92.7046Z" fill="#D1D5DB"/>
<path d="M48.2798 90.7754C47.8792 90.7754 47.4785 91.08 47.4785 91.5877C47.4785 92.0954 47.779 92.4 48.2798 92.4C48.7806 92.4 49.0811 92.0954 49.0811 91.5877C49.0811 91.08 48.7806 90.7754 48.2798 90.7754Z" fill="#D1D5DB"/>
<path d="M46.8775 94.9385C46.4768 94.9385 46.0762 95.2431 46.0762 95.7508C46.0762 96.2585 46.3767 96.5631 46.8775 96.5631C47.3783 96.5631 47.6788 96.2585 47.6788 95.7508C47.6788 95.2431 47.2781 94.9385 46.8775 94.9385Z" fill="#D1D5DB"/>
<path d="M42.3697 91.2831C41.969 91.2831 41.5684 91.5877 41.5684 92.0954C41.5684 92.6031 41.8689 92.9077 42.3697 92.9077C42.8705 92.9077 43.171 92.6031 43.171 92.0954C43.171 91.5877 42.7703 91.2831 42.3697 91.2831Z" fill="#D1D5DB"/>
<path d="M37.5611 94.2277C37.1604 94.2277 36.7598 94.5323 36.7598 95.04C36.7598 95.5477 37.0603 95.8523 37.5611 95.8523C38.0619 95.8523 38.3624 95.5477 38.3624 95.04C38.3624 94.5323 37.9617 94.2277 37.5611 94.2277Z" fill="#D1D5DB"/>
<path d="M27.8462 94.8369C27.4456 94.8369 27.0449 95.1415 27.0449 95.6492C27.0449 96.1569 27.3454 96.4615 27.8462 96.4615C28.3471 96.4615 28.6475 96.1569 28.6475 95.6492C28.6475 95.1415 28.2469 94.8369 27.8462 94.8369Z" fill="#D1D5DB"/>
<path d="M23.1392 93.3138C22.7385 93.3138 22.3379 93.6185 22.3379 94.1261C22.3379 94.6338 22.6384 94.9385 23.1392 94.9385C23.64 94.9385 23.9405 94.6338 23.9405 94.1261C23.9405 93.6185 23.5399 93.3138 23.1392 93.3138Z" fill="#D1D5DB"/>
<path d="M16.2271 93.0093C15.8264 93.0093 15.4258 93.3139 15.4258 93.8216C15.4258 94.3293 15.7263 94.6339 16.2271 94.6339C16.7279 94.6339 17.0284 94.3293 17.0284 93.8216C17.0284 93.3139 16.6278 93.0093 16.2271 93.0093Z" fill="#D1D5DB"/>
<path d="M10.7173 90.0646C10.3167 90.0646 9.91602 90.3692 9.91602 90.8769C9.91602 91.3846 10.2165 91.6892 10.7173 91.6892C11.2182 91.6892 11.5186 91.3846 11.5186 90.8769C11.5186 90.3692 11.118 90.0646 10.7173 90.0646Z" fill="#D1D5DB"/>
<path d="M7.31108 82.4492C6.91042 82.4492 6.50977 82.7538 6.50977 83.2615C6.50977 83.7692 6.81026 84.0738 7.31108 84.0738C7.8119 84.0738 8.01223 83.6677 8.01223 83.2615C8.01223 82.8554 7.71174 82.4492 7.31108 82.4492Z" fill="#D1D5DB"/>
<path d="M9.91653 77.5754C9.91653 77.1692 9.61603 76.7631 9.11521 76.7631C8.71456 76.7631 8.41406 77.0677 8.41406 77.5754C8.41406 78.0831 8.71456 78.3877 9.21538 78.3877C9.7162 78.3877 9.91653 77.9815 9.91653 77.5754Z" fill="#D1D5DB"/>
<path d="M9.81638 94.6339C9.41573 94.6339 9.11523 94.9385 9.11523 95.4462C9.11523 95.9539 9.41573 96.2585 9.81638 96.2585C10.217 96.2585 10.6177 95.9539 10.6177 95.4462C10.6177 94.9385 10.217 94.6339 9.81638 94.6339Z" fill="#D1D5DB"/>
<path d="M6.31108 88.6431C5.91042 88.6431 5.50977 88.9477 5.50977 89.4554C5.50977 89.9631 5.81026 90.2677 6.31108 90.2677C6.8119 90.2677 7.01223 89.8615 7.01223 89.4554C7.01223 89.0492 6.71174 88.6431 6.31108 88.6431Z" fill="#D1D5DB"/>
<path d="M4.00639 79.3015C3.60573 79.3015 3.20508 79.6061 3.20508 80.1138C3.20508 80.6215 3.50557 80.9261 4.00639 80.9261C4.50721 80.9261 4.80771 80.6215 4.80771 80.1138C4.80771 79.6061 4.40705 79.3015 4.00639 79.3015Z" fill="#D1D5DB"/>
<path d="M6.81108 72.7015C6.41042 72.7015 6.00977 73.1077 6.00977 73.5138C6.00977 73.92 6.31026 74.3262 6.81108 74.3262C7.3119 74.3262 7.61239 74.0215 7.61239 73.5138C7.61239 73.0062 7.21174 72.7015 6.81108 72.7015Z" fill="#D1D5DB"/>
<path d="M6.71091 69.2492C7.11157 69.2492 7.51223 68.9446 7.51223 68.4369C7.51223 67.9293 7.21174 67.6246 6.71091 67.6246C6.31026 67.6246 6.00977 67.9293 6.00977 68.4369C6.00977 68.9446 6.31026 69.2492 6.71091 69.2492Z" fill="#D1D5DB"/>
<path d="M3.30522 92.9077C2.90456 92.9077 2.50391 93.2123 2.50391 93.72C2.50391 94.2277 2.90456 94.4308 3.30522 94.4308C3.70588 94.4308 4.10653 94.1262 4.10653 93.6185C4.10653 93.1108 3.80604 92.9077 3.30522 92.9077Z" fill="#D1D5DB"/>
<path d="M60.2988 62.8523H50.3826C50.3826 62.7508 50.3826 62.7508 50.3826 62.6492C50.3826 60.4154 50.2824 58.08 50.5829 55.7446C50.8834 53.6123 52.0854 51.6831 52.7865 49.7538C53.4877 47.9262 54.0887 46.0985 54.6897 44.2708C55.7915 40.7169 56.7931 36.96 56.7931 33.3046C56.8933 30.36 56.2923 27.2123 53.8883 25.2831C52.0854 23.8615 49.6814 23.3538 47.4778 23.4554C45.775 23.5569 44.1724 24.0646 42.5698 24.6738C41.3678 21.7292 38.1626 16.6523 35.5583 14.1138C36.3596 13.4031 37.1609 12.6923 38.0624 11.9815C42.069 8.42769 46.1757 4.87385 49.1806 1.21846C49.1806 1.01538 49.1806 0.710769 49.0805 0.406154C48.9803 0.203077 48.6798 0 48.3793 0H30.7504C30.4499 0 30.1494 0.203077 30.0493 0.507692C29.6486 1.52308 29.1478 2.64 28.647 3.75692C28.046 2.53846 27.5452 1.52308 27.2447 0.507692C27.0443 0.203077 26.7438 0 26.4433 0H8.81445C8.51396 0 8.21346 0.203077 8.1133 0.406154C8.01314 0.609231 8.01314 1.01538 8.21346 1.21846C11.2184 4.77231 15.3251 8.32615 19.2315 11.88C20.133 12.6923 21.0345 13.5046 21.936 14.3169C16.9277 21.9323 13.1215 29.7508 20.8342 37.3662C21.0345 37.5692 21.4351 37.7723 21.7356 37.7723C21.936 37.7723 22.2365 37.6708 22.4368 37.5692C22.9376 37.1631 23.1379 36.4523 22.8374 35.8431C21.936 33.8123 21.936 31.7815 22.6371 29.6492C22.7373 29.7508 22.9376 29.7508 23.1379 29.6492C25.3415 28.8369 27.3448 27.6185 29.5484 27.1108C32.5534 26.4 35.358 27.5169 37.7619 29.2431C38.5632 29.7508 39.3645 28.4308 38.5632 27.9231C35.8588 26.0954 32.8539 24.9785 29.5484 25.5877C27.3448 25.9938 25.3415 27.1108 23.2381 28.0246C24.3399 25.5877 26.243 23.1508 28.5468 20.7138C29.4483 21.7292 30.9507 23.2523 31.4516 23.8615C31.6519 24.0646 31.7521 24.0646 32.0525 24.0646C32.2529 24.0646 32.4532 23.9631 32.5534 23.8615C32.8539 23.5569 32.8539 23.0492 32.6535 22.7446C32.1527 22.1354 30.6502 20.5108 29.6486 19.4954C31.0509 18.0738 32.6535 16.5508 34.2562 15.1292C36.7603 17.4646 39.9655 22.44 41.0673 25.1815C40.3662 25.4862 39.5649 25.7908 38.8637 26.1969C37.9622 26.6031 38.7635 27.9231 39.665 27.5169C41.3678 26.7046 43.0706 25.9938 44.8736 25.3846C45.1741 25.2831 45.5747 25.1815 45.8752 25.08C45.9754 25.08 46.0755 25.08 46.0755 25.08C46.1757 25.08 46.1757 25.08 46.2759 25.08C46.2759 25.08 46.2759 25.08 46.376 25.08C46.4762 25.08 46.376 25.08 46.4762 25.08C48.2791 24.8769 50.0821 24.9785 51.7849 25.6892C54.289 26.8062 55.2906 29.2431 55.491 31.8831C55.6913 35.2338 54.89 38.6862 53.9885 41.9354C53.087 44.9815 52.0854 48.0277 50.7832 50.9723C48.5796 50.0585 47.3777 47.6215 45.9754 44.6769C44.7734 42.0369 43.4713 39.3969 41.2677 37.4677C40.4663 36.8585 39.5649 36.3508 38.7635 35.8431C36.2594 34.4215 33.9557 33.1015 34.0558 28.5323C34.0558 28.1262 33.7553 27.72 33.3547 27.72C32.954 27.72 32.6535 28.0246 32.5534 28.4308C32.4532 34.0154 35.4581 35.64 38.0624 37.1631C38.8637 37.6708 39.665 38.0769 40.3662 38.6862C42.3695 40.4123 43.5714 42.9508 44.7734 45.3877C46.1757 48.4338 47.578 51.2769 50.3826 52.3938C50.3826 52.4954 50.2824 52.5969 50.2824 52.5969C49.4811 54.4246 49.2808 56.3539 49.1806 58.2831C49.1806 59.8062 49.1806 61.3292 49.1806 62.8523H11.619C11.8194 61.1262 11.9195 59.5015 11.8194 57.7754C11.9195 57.7754 12.0197 57.6739 12.0197 57.5723C15.8259 52.4954 15.5255 48.4338 14.624 45.8954C13.0213 41.4277 8.61412 38.7877 6.21018 38.1785C6.11002 37.1631 6.00985 36.2492 5.90969 35.2338C5.80952 32.8985 5.90969 30.2585 7.11166 28.1262C8.31363 26.0954 10.5172 25.5877 12.7209 25.6892C13.5222 25.6892 14.2233 25.8923 15.0246 26.0954C15.9261 26.2985 16.3268 24.8769 15.4253 24.5723C12.7209 23.9631 9.61576 23.76 7.41215 25.5877C5.50903 27.1108 4.80788 29.6492 4.50739 32.0862C4.2069 35.1323 4.70772 38.28 5.3087 41.2246C5.70936 42.9508 6.11002 44.5754 6.61084 46.2C7.31199 48.5354 8.31363 50.6677 9.31527 52.8C10.7176 55.8462 10.5172 59.4 10.2167 62.7508H0.801314C0.400657 62.7508 0 63.0554 0 63.5631V98.1877C0 98.5938 0.300493 99 0.801314 99H60.2988C60.6995 99 61.1002 98.6954 61.1002 98.1877V63.6646C61 63.2585 60.6995 62.8523 60.2988 62.8523ZM20.2332 10.7631C16.8276 7.71692 13.3218 4.67077 10.5172 1.52308H25.9425C26.3432 2.74154 26.9442 3.96 27.7455 5.28C26.5435 7.31077 25.2414 9.44308 23.8391 11.3723C23.5386 11.88 23.1379 12.3877 22.8374 12.8954C21.936 12.2862 21.0345 11.4738 20.2332 10.7631ZM28.046 18.9877C22.7373 24.4708 19.2315 29.9538 21.0345 35.4369C14.5238 28.0246 19.6322 20.4092 25.041 12.2862C27.445 8.73231 29.8489 5.07692 31.2512 1.52308H46.6765C43.8719 4.67077 40.266 7.81846 36.8604 10.8646C33.7553 13.5046 30.7504 16.2462 28.046 18.9877ZM9.71593 50.3631C8.81445 48.4338 8.1133 46.4031 7.51231 44.3723C7.11166 42.8492 6.711 41.3262 6.51067 39.8031C8.81445 40.6154 12.0197 42.9508 13.2217 46.4031C14.2233 49.2462 13.6223 52.3938 11.5189 55.6431C11.3186 53.7138 10.5172 52.0892 9.71593 50.3631ZM48.8801 64.3754C48.8801 64.5785 48.8801 64.7815 48.8801 64.9846C49.0805 72.8031 49.0805 81.1292 44.4729 87.7292C44.0723 88.3385 43.5714 89.0492 42.8703 89.4554C42.1691 89.76 41.3678 89.6585 41.2677 88.7446C41.1675 87.8308 41.1675 86.8154 41.1675 85.8C41.1675 84.6831 41.1675 83.6677 41.0673 82.6523C40.9672 78.6923 40.867 74.4277 39.3645 70.7723C39.064 70.1631 38.7635 69.5538 38.4631 68.9446C38.7635 68.3354 39.1642 67.7262 39.4647 67.32C39.665 67.0154 39.665 66.5077 39.3645 66.2031C39.064 66 38.5632 66 38.3629 66.3046C36.6601 68.5385 34.5566 72.8031 34.2562 80.4185C33.9557 87.0185 32.6535 91.5877 30.9507 92.0954C30.8506 92.0954 30.5501 92.1969 30.1494 91.8923C28.3465 90.6739 26.5435 85.5969 26.0427 80.4185C25.5419 76.3569 25.2414 72.4985 25.5419 69.96C25.7422 68.0308 25.4417 66.7108 25.3415 66.6092C25.2414 66.2031 24.8407 65.8985 24.4401 66C24.0394 66.1015 23.7389 66.5077 23.8391 66.9138C23.8391 66.9138 24.0394 67.8277 23.9392 69.2492C18.7307 73.2092 19.532 80.6215 19.1314 86.5108C19.1314 87.12 19.0312 87.7292 18.931 88.44C18.8309 89.0492 18.7307 89.8615 17.9294 89.9631C17.2282 90.0646 16.7274 89.2523 16.4269 88.7446C15.9261 88.1354 15.4253 87.4246 15.0246 86.6123C13.422 83.6677 12.5205 80.4185 11.8194 77.1692C11.619 75.9508 11.3186 74.7323 11.1182 73.5139C10.8177 71.6862 10.9179 69.7569 11.1182 67.9292C11.2184 66.7108 11.4187 65.4923 11.5189 64.2738H48.8801V64.3754ZM59.4975 97.4769H1.50246V64.3754H9.91625C9.91625 64.68 9.81609 64.9846 9.81609 65.2892C9.61576 67.32 9.31527 69.4523 9.31527 71.4831C9.31527 73.0062 9.61576 74.4277 9.81609 75.8492C10.4171 79.2 11.2184 82.4492 12.6207 85.5969C13.3218 87.2215 14.2233 88.7446 15.3251 90.1662C15.8259 90.7754 16.4269 91.3846 17.3284 91.4862C18.1297 91.5877 18.931 91.1815 19.4319 90.5723C20.3333 89.4554 20.3333 87.6277 20.4335 86.2062C20.5337 84.5815 20.5337 82.9569 20.6338 81.3323C20.734 78.1846 21.0345 74.7323 22.9376 72.0923C23.1379 71.7877 23.4384 71.4831 23.6388 71.28C23.6388 73.8185 23.8391 77.0677 24.2397 80.4185C24.7406 85.1908 26.4433 91.1815 29.0476 93.0092C29.6486 93.4154 30.1494 93.5169 30.5501 93.5169C30.7504 93.5169 30.9507 93.5169 31.1511 93.4154C31.4516 93.3139 31.6519 93.2123 31.8522 93.1108V93.2123C31.8522 93.6185 32.1527 94.0246 32.6535 94.0246C33.1543 94.0246 33.4548 93.72 33.4548 93.2123C33.4548 92.8062 33.1544 92.5015 32.7537 92.5015C34.757 90.2677 35.4581 84.9877 35.6585 80.4185C35.8588 76.0523 36.6601 72.8031 37.6617 70.5692C39.2644 73.92 39.4647 77.6769 39.665 81.3323C39.7652 83.5662 39.7652 85.9015 39.8653 88.1354C39.8653 88.8462 39.8653 89.6585 40.3662 90.2677C40.9672 90.9785 41.9688 91.2831 42.8703 91.08C44.6732 90.7754 45.775 88.8462 46.6765 87.4246C47.6782 85.6985 48.4795 83.8708 49.0805 81.9415C50.2824 77.9815 50.5829 73.8185 50.6831 69.6554C50.6831 67.8277 50.6831 66.1015 50.5829 64.2738H59.6979L59.4975 97.4769Z" fill="#D0B5A9"/>
<path d="M15.5262 29.6493C15.426 29.6493 15.3259 29.5477 15.2257 29.5477C15.1255 29.5477 15.0254 29.5477 14.9252 29.5477C14.825 29.5477 14.7249 29.6493 14.6247 29.6493C14.5245 29.6493 14.4244 29.7508 14.4244 29.8523C14.4244 29.9539 14.4244 29.9539 14.3242 30.0554C14.3242 30.157 14.3242 30.36 14.3242 30.4616C14.3242 30.5631 14.3242 30.5631 14.4244 30.6647C14.5245 30.7662 14.6247 30.8677 14.7249 30.9693C14.825 30.9693 14.9252 31.0708 15.0254 31.0708C15.1255 31.0708 15.2257 31.0708 15.3259 31.0708C15.426 31.0708 15.5262 30.9693 15.6264 30.9693C15.7265 30.9693 15.8267 30.8677 15.8267 30.7662C15.8267 30.6647 15.8267 30.6647 15.9268 30.5631C15.9268 30.4616 15.9268 30.2585 15.9268 30.157C15.9268 30.0554 15.9268 30.0554 15.8267 29.9539C15.8267 29.8523 15.7265 29.7508 15.5262 29.6493C15.6264 29.6493 15.6264 29.6493 15.5262 29.6493Z" fill="#D1D5DB"/>
<path d="M51.8847 82.5508C52.2854 82.5508 52.6861 82.2462 52.6861 81.7385C52.6861 81.2308 52.3856 80.9261 51.8847 80.9261C51.4841 80.9261 51.1836 81.2308 51.1836 81.7385C51.1836 82.2462 51.4841 82.5508 51.8847 82.5508Z" fill="#D1D5DB"/>
<path d="M52.3847 68.4369C52.7854 68.4369 53.1861 68.1323 53.1861 67.6246C53.1861 67.1169 52.8856 66.8123 52.3847 66.8123C51.9841 66.8123 51.6836 67.1169 51.6836 67.6246C51.6836 68.1323 51.8839 68.4369 52.3847 68.4369Z" fill="#D1D5DB"/>
<path d="M50.1822 36.2493C49.7815 36.2493 49.3809 36.5539 49.3809 37.0616C49.3809 37.5693 49.6814 37.8739 50.1822 37.8739C50.683 37.8739 50.9835 37.5693 50.9835 37.0616C50.9835 36.5539 50.5828 36.2493 50.1822 36.2493Z" fill="#D1D5DB"/>
<path d="M44.6724 34.2184C44.6724 33.8123 44.3719 33.4061 43.8711 33.4061C43.4704 33.4061 43.1699 33.7107 43.1699 34.2184C43.1699 34.7261 43.4704 35.0307 43.9712 35.0307C44.4721 35.0307 44.6724 34.7261 44.6724 34.2184Z" fill="#D1D5DB"/>
<path d="M42.9712 28.4308C42.9712 28.0247 42.6707 27.6185 42.1699 27.6185C41.7692 27.6185 41.4688 27.9231 41.4688 28.4308C41.4688 28.9385 41.7692 29.2431 42.2701 29.2431C42.7709 29.2431 42.9712 28.837 42.9712 28.4308Z" fill="#D1D5DB"/>
<path d="M54.5904 35.0308C54.5904 34.6247 54.2899 34.2185 53.789 34.2185C53.3884 34.2185 53.0879 34.5231 53.0879 35.0308C53.0879 35.5385 53.3884 35.8431 53.8892 35.8431C54.39 35.8431 54.5904 35.437 54.5904 35.0308Z" fill="#D1D5DB"/>
<path d="M48.9805 42.6462C48.9805 43.0523 49.281 43.4585 49.7818 43.4585C50.2826 43.4585 50.5831 43.1539 50.5831 42.6462C50.5831 42.1385 50.2826 41.8339 49.7818 41.8339C49.281 41.9354 48.9805 42.24 48.9805 42.6462Z" fill="#D1D5DB"/>
<path d="M50.2832 45.6923C49.8825 45.6923 49.582 45.9969 49.582 46.5046C49.582 47.0123 49.8825 47.3169 50.3833 47.3169C50.8842 47.3169 51.1847 47.0123 51.1847 46.5046C51.1847 45.9969 50.784 45.6923 50.2832 45.6923Z" fill="#D1D5DB"/>
<path d="M46.2759 39.0923C46.2759 38.6862 45.9754 38.28 45.4746 38.28C45.0739 38.28 44.7734 38.5846 44.7734 39.0923C44.7734 39.6 45.0739 39.9046 45.5748 39.9046C46.0756 39.9046 46.2759 39.4985 46.2759 39.0923Z" fill="#D1D5DB"/>
<path d="M39.7642 33.2031C39.7642 32.7969 39.4637 32.3907 38.9629 32.3907C38.5622 32.3907 38.2617 32.6954 38.2617 33.2031C38.2617 33.7107 38.5622 34.0154 39.063 34.0154C39.5639 34.0154 39.7642 33.6092 39.7642 33.2031Z" fill="#D1D5DB"/>
<path d="M45.9746 78.0831C46.3752 78.0831 46.7759 77.7785 46.7759 77.2708C46.7759 76.7631 46.4754 76.4585 45.9746 76.4585C45.5739 76.4585 45.2734 76.7631 45.2734 77.2708C45.2734 77.7785 45.5739 78.0831 45.9746 78.0831Z" fill="#D1D5DB"/>
<path d="M43.6718 73.2092C44.0725 73.2092 44.4732 72.9046 44.4732 72.3969C44.4732 71.8892 44.1727 71.5846 43.6718 71.5846C43.2712 71.5846 42.9707 71.8892 42.9707 72.3969C42.9707 72.9046 43.2712 73.2092 43.6718 73.2092Z" fill="#D1D5DB"/>
<path d="M47.2773 68.9446C47.678 68.9446 48.0786 68.6399 48.0786 68.1322C48.0786 67.6246 47.7781 67.3199 47.2773 67.3199C46.8767 67.3199 46.5762 67.6246 46.5762 68.1322C46.5762 68.6399 46.7765 68.9446 47.2773 68.9446Z" fill="#D1D5DB"/>
<path d="M32.8535 70.0615C33.2542 70.0615 33.6548 69.7569 33.6548 69.2492C33.6548 68.7415 33.3543 68.4369 32.8535 68.4369C32.4528 68.4369 32.1523 68.7415 32.1523 69.2492C32.1523 69.7569 32.4528 70.0615 32.8535 70.0615Z" fill="#D1D5DB"/>
<path d="M28.4458 71.6862C28.0452 71.6862 27.6445 71.9908 27.6445 72.4985C27.6445 73.0062 27.945 73.3108 28.4458 73.3108C28.9467 73.3108 29.2472 73.0062 29.2472 72.4985C29.2472 71.9908 28.8465 71.6862 28.4458 71.6862Z" fill="#D1D5DB"/>
<path d="M31.2519 77.6769C31.6526 77.6769 32.0532 77.3723 32.0532 76.8646C32.0532 76.3569 31.7528 76.1538 31.2519 76.1538C30.8513 76.1538 30.5508 76.4584 30.5508 76.9661C30.5508 77.4738 30.8513 77.6769 31.2519 77.6769Z" fill="#D1D5DB"/>
<path d="M30.3496 81.6369C30.7502 81.6369 31.1509 81.3323 31.1509 80.8246C31.1509 80.3169 30.8504 80.0123 30.3496 80.0123C29.9489 80.0123 29.6484 80.3169 29.6484 80.8246C29.6484 81.3323 29.9489 81.6369 30.3496 81.6369Z" fill="#D1D5DB"/>
<path d="M16.3261 78.8954C16.7268 78.8954 17.1275 78.5908 17.1275 78.0831C17.1275 77.5754 16.827 77.2708 16.3261 77.2708C15.9255 77.2708 15.625 77.5754 15.625 78.0831C15.625 78.5908 15.9255 78.8954 16.3261 78.8954Z" fill="#D1D5DB"/>
<path d="M13.8222 74.3262C14.2229 74.3262 14.6236 74.0215 14.6236 73.5138C14.6236 73.0062 14.3231 72.7015 13.8222 72.7015C13.4216 72.7015 13.1211 73.0062 13.1211 73.5138C13.1211 74.0215 13.4216 74.3262 13.8222 74.3262Z" fill="#D1D5DB"/>
<path d="M18.1308 70.7723C18.5315 70.7723 18.9322 70.4677 18.9322 69.96C18.9322 69.4523 18.6317 69.1477 18.1308 69.1477C17.7302 69.1477 17.4297 69.4523 17.4297 69.96C17.4297 70.4677 17.63 70.7723 18.1308 70.7723Z" fill="#D1D5DB"/>
<path d="M13.9219 68.1323C14.3225 68.1323 14.7232 67.8277 14.7232 67.32C14.7232 66.8123 14.4227 66.5077 13.9219 66.5077C13.5212 66.5077 13.2207 66.8123 13.2207 67.32C13.2207 67.8277 13.5212 68.1323 13.9219 68.1323Z" fill="#D1D5DB"/>
<path d="M43.4707 82.6523C43.8713 82.6523 44.272 82.3477 44.272 81.84C44.272 81.3323 43.9715 81.0277 43.4707 81.0277C43.07 81.0277 42.7695 81.3323 42.7695 81.84C42.7695 82.3477 43.07 82.6523 43.4707 82.6523Z" fill="#D1D5DB"/>
<path d="M30.1504 86.003C30.551 86.003 30.9517 85.6984 30.9517 85.1907C30.9517 84.683 30.6512 84.3784 30.1504 84.3784C29.7497 84.3784 29.4492 84.683 29.4492 85.1907C29.4492 85.6984 29.7497 86.003 30.1504 86.003Z" fill="#D1D5DB"/>
<path d="M28.2461 67.1169C28.6467 67.1169 29.0474 66.8123 29.0474 66.3046C29.0474 65.7969 28.7469 65.4923 28.2461 65.4923C27.8454 65.4923 27.5449 65.7969 27.5449 66.3046C27.5449 66.8123 27.8454 67.1169 28.2461 67.1169Z" fill="#D1D5DB"/>
<path d="M16.5259 82.2461C16.1253 82.2461 15.7246 82.5507 15.7246 83.0584C15.7246 83.5661 16.0251 83.8707 16.5259 83.8707C17.0267 83.8707 17.3272 83.5661 17.3272 83.0584C17.3272 82.5507 17.0267 82.2461 16.5259 82.2461Z" fill="#D1D5DB"/>
<path d="M20.7344 66.9138C21.135 66.9138 21.5357 66.6092 21.5357 66.1015C21.5357 65.5938 21.2352 65.2892 20.7344 65.2892C20.3337 65.2892 20.0332 65.5938 20.0332 66.1015C20.0332 66.6092 20.3337 66.9138 20.7344 66.9138Z" fill="#D1D5DB"/>
<path d="M8.61577 42.7477C8.21511 42.7477 7.81445 43.0523 7.81445 43.56C7.81445 44.0677 8.11495 44.3723 8.61577 44.3723C9.11659 44.3723 9.41708 44.0677 9.41708 43.56C9.41708 43.0523 9.01642 42.7477 8.61577 42.7477Z" fill="#D1D5DB"/>
<path d="M12.2193 45.8953C12.2193 45.4892 11.9188 45.083 11.4179 45.083C11.0173 45.083 10.7168 45.3876 10.7168 45.8953C10.7168 46.403 11.0173 46.7076 11.4179 46.7076C11.8186 46.7076 12.2193 46.3015 12.2193 45.8953Z" fill="#D1D5DB"/>
<path d="M11.7187 50.5661C12.1194 50.5661 12.52 50.2615 12.52 49.7538C12.52 49.2461 12.2195 48.9415 11.7187 48.9415C11.3181 48.9415 11.0176 49.2461 11.0176 49.7538C11.0176 50.2615 11.3181 50.5661 11.7187 50.5661Z" fill="#D1D5DB"/>
</g>
<defs>
<clipPath id="clip0_10_18735">
<rect width="61" height="99" fill="white"/>
</clipPath>
</defs>
</svg>
