<svg width="56" height="99" viewBox="0 0 56 99" fill="none" xmlns="http://www.w3.org/2000/svg">
<g clip-path="url(#clip0_10_18841)">
<path d="M55.3037 67.6246H47.1474C47.048 66.9138 47.048 66.203 46.9485 65.4923C46.849 63.36 46.9485 61.1261 47.6448 59.0953C48.0426 57.9784 48.6394 56.8615 49.1368 55.7446C49.6341 54.5261 50.032 53.4092 50.4298 52.1907C51.2256 49.3476 51.9218 46.5046 52.2202 43.56C52.4192 41.2246 52.5187 38.5846 51.7229 36.2492C51.0266 34.2184 49.6341 32.5938 47.5453 31.9846C44.7602 31.1723 41.5773 32.1876 38.9911 33.203C37.9964 33.6092 37.0018 34.0153 36.0071 34.523C35.1119 34.9292 35.9076 36.2492 36.8028 35.843C39.5879 34.4215 42.7709 33 45.9538 33.203C47.8437 33.3046 49.2362 34.2184 50.032 35.9446C50.9272 37.7723 50.9272 40.2092 50.8277 42.24C50.6288 44.9815 50.1314 47.6215 49.4352 50.16C48.8384 52.1907 48.1421 54.2215 47.2469 56.2523C46.849 57.1661 46.3517 58.1815 46.0533 59.1969C45.7549 60.2123 45.6554 61.2276 45.556 62.243C45.4565 63.9692 45.556 65.6953 45.7549 67.4215H43.2682C42.1741 56.1507 37.2007 50.7692 27.5524 50.7692C21.1865 50.7692 16.9094 53.1046 14.4227 57.8769C15.9147 51.2769 19.1972 42.7477 21.286 39.4984C21.9822 38.483 22.778 37.4676 23.7726 36.3507C24.9663 35.0307 26.0604 33.6092 26.8561 32.0861C28.0497 29.9538 28.1492 26.0953 28.0497 24.4707C29.3428 24.2676 30.3375 23.0492 30.3375 21.7292V20.9169H31.6306C32.6252 20.9169 33.421 20.1046 33.421 19.0892V16.6523H33.6199C34.6146 16.6523 35.4103 15.84 35.4103 14.8246V0.609183C35.4103 0.203029 35.1119 -0.203125 34.6146 -0.203125H19.4956C19.0977 -0.203125 18.6998 0.10149 18.6998 0.609183V14.8246C18.6998 15.84 19.4956 16.6523 20.4902 16.6523H20.6892V19.0892C20.6892 20.1046 21.4849 20.9169 22.4796 20.9169H23.7726V21.7292C23.7726 23.2523 24.9663 24.5723 26.5577 24.5723H26.6572C26.6572 26.0953 26.5577 29.5476 25.6625 31.3753C24.9663 32.6953 23.7726 34.0153 22.6785 35.3353C21.7833 36.4523 20.8881 37.5692 20.0924 38.5846C16.9094 43.4584 11.6377 58.6892 12.135 64.4769C12.135 64.5784 12.2345 64.7815 12.3339 64.883C12.2345 65.6953 12.135 66.6092 12.0355 67.523H10.8419C10.9414 66.8123 10.9414 66.1015 11.0409 65.2892C11.1403 63.2584 11.0409 61.2276 10.5435 59.2984C10.2451 58.283 9.74778 57.2677 9.34991 56.2523C8.85258 55.1353 8.35524 54.0184 7.95737 52.9015C6.9627 50.16 6.3659 47.2153 5.96803 44.2707C5.66963 42.0369 5.57016 39.6 6.16696 37.3661C6.6643 35.64 7.5595 34.2184 9.25044 33.6092C11.8366 32.7969 14.7211 33.7107 17.1083 34.6246C18.103 35.0307 18.9982 35.4369 19.8934 35.843C20.7886 36.2492 21.4849 34.9292 20.6892 34.523C20.2913 34.32 19.8934 34.1169 19.3961 33.9138C20.9876 32.5938 22.778 31.68 24.7673 31.3753C25.1652 31.2738 25.3641 30.7661 25.2647 30.4615C25.1652 30.0553 24.7673 29.8523 24.3694 29.9538C21.8828 30.2584 19.6945 31.5784 17.9041 33.3046C13.627 31.5784 8.15631 30.36 5.57016 34.8276C4.47602 36.8584 4.27709 39.2953 4.27709 41.5292C4.37655 44.3723 4.87389 47.1138 5.57016 49.8553C6.0675 51.8861 6.6643 53.8153 7.5595 55.7446C8.05684 56.8615 8.65364 57.8769 9.05151 58.9938C9.34991 60.0092 9.54885 61.0246 9.64831 62.04C9.84725 63.8676 9.64831 65.5938 9.44938 67.32H0.795737C0.397869 67.32 0 67.6246 0 68.1323V97.9846C0 98.3907 0.298401 98.7969 0.795737 98.7969H55.3037C55.7016 98.7969 56.0995 98.4923 56.0995 97.9846V68.3353C56 67.9292 55.7016 67.6246 55.3037 67.6246ZM20.1918 15.0276V1.52303H33.7194V15.0276C33.7194 15.1292 33.6199 15.2307 33.5204 15.2307H20.4902C20.3908 15.2307 20.1918 15.1292 20.1918 15.0276ZM22.1812 19.1907V16.7538H31.8295V19.1907C31.8295 19.2923 31.73 19.3938 31.6306 19.3938H29.6412H24.5684H22.579C22.2806 19.4953 22.1812 19.3938 22.1812 19.1907ZM25.1652 21.8307V21.0184H28.746V21.8307C28.746 22.5415 28.1492 23.0492 27.5524 23.0492H26.4583C25.762 23.0492 25.1652 22.5415 25.1652 21.8307ZM27.5524 52.2923C34.0178 52.2923 40.5826 54.2215 41.6767 67.6246H38.6927C36.405 61.4307 32.5258 59.9076 27.5524 59.9076C22.579 59.9076 18.6998 61.5323 16.4121 67.6246H13.4281C14.5222 54.2215 21.087 52.2923 27.5524 52.2923ZM41.7762 71.5846C41.7762 74.6307 41.4778 77.3723 40.7815 79.7076C40.4831 75.24 39.9858 71.7876 39.1901 69.0461H41.7762C41.7762 69.8584 41.7762 70.7723 41.7762 71.5846ZM37.1012 67.6246H18.0036C20.2913 62.1415 23.7726 61.4307 27.5524 61.4307C31.3321 61.4307 34.8135 62.04 37.1012 67.6246ZM13.3286 69.1476H15.9147C15.119 71.8892 14.5222 75.3415 14.3233 79.8092C13.627 77.3723 13.3286 74.7323 13.3286 71.6861C13.2291 70.7723 13.2291 69.8584 13.3286 69.1476ZM11.8366 69.1476C11.8366 69.96 11.7371 70.7723 11.7371 71.5846C11.7371 76.4584 12.5329 80.52 14.1243 83.8707C14.3233 84.1753 14.6217 84.3784 14.9201 84.2769C15.2185 84.1753 15.5169 83.8707 15.5169 83.5661C15.7158 77.0676 16.3126 72.3969 17.4067 69.1476H37.5986C38.5933 72.3969 39.2895 77.0676 39.4885 83.5661C39.4885 83.8707 39.6874 84.1753 40.0853 84.2769C40.1847 84.2769 40.1847 84.2769 40.2842 84.2769C40.5826 84.2769 40.881 84.0738 40.9805 83.8707C42.5719 80.6215 43.3677 76.4584 43.3677 71.5846C43.3677 70.7723 43.3677 69.8584 43.2682 69.1476H45.7549C45.9538 70.9753 46.2522 72.9046 46.2522 74.8338C46.3517 77.88 45.556 81.0276 44.7602 83.9723C44.2629 85.6984 43.6661 87.323 42.9698 88.9476C42.5719 89.7599 42.1741 90.4707 41.6767 91.1815C41.3783 91.6892 40.6821 92.7046 40.0853 92.7046C38.8917 92.603 38.9911 89.963 38.8917 89.2523C38.7922 87.6276 38.7922 86.1046 38.6927 84.4799C38.4938 81.2307 38.0959 77.88 36.1066 75.24C35.8082 74.8338 35.3108 74.4277 34.913 74.0215C35.3108 73.1077 35.8082 72.3969 36.206 71.8892C36.405 71.5846 36.405 71.0769 36.1066 70.7723C35.8082 70.5692 35.3108 70.5692 35.1119 70.8738C33.5204 72.9046 31.6306 76.8646 31.3321 83.8707C31.1332 89.1507 30.1385 92.0953 28.3481 92.5015C27.9503 92.603 27.5524 92.5015 27.1545 92.1969C25.9609 91.3846 24.3694 88.643 23.8721 83.7692C23.3748 80.1138 23.1758 76.4584 23.3748 74.123C23.5737 72.2953 23.2753 71.0769 23.2753 71.0769C23.1758 70.6707 22.778 70.3661 22.3801 70.4676C21.9822 70.5692 21.6838 70.9753 21.7833 71.3815C21.7833 71.3815 21.9822 72.1938 21.8828 73.5138C19.2966 75.5446 18.302 78.5907 17.9041 81.84C17.5062 84.8861 17.8046 88.1353 17.3073 91.1815C17.2078 91.6892 17.0089 92.7046 16.3126 92.603C15.7158 92.603 15.119 91.4861 14.8206 91.0799C13.8259 89.6584 13.0302 88.0338 12.5329 86.4092C11.5382 83.5661 10.8419 80.52 10.444 77.5753C10.1456 75.6461 10.3446 73.7169 10.5435 71.7876C10.643 70.9753 10.7425 70.0615 10.8419 69.2492L11.8366 69.1476ZM54.508 97.4769H1.49201V69.1476H9.15098C8.95204 71.1784 8.65364 73.3107 8.65364 75.3415C8.65364 76.8646 8.95204 78.4892 9.25044 80.0123C9.54885 81.6369 9.94671 83.2615 10.444 84.8861C10.9414 86.7138 11.6377 88.5415 12.5329 90.1661C12.9307 90.9784 13.4281 91.7907 14.0249 92.5015C14.5222 93.2123 15.119 93.923 16.0142 94.1261C16.8099 94.3292 17.7052 93.923 18.2025 93.3138C18.6998 92.7046 18.7993 91.8923 18.8988 91.0799C19.0977 89.4553 19.0977 87.8307 19.1972 86.2061C19.2966 82.9569 19.3961 79.3015 21.1865 76.56C21.3854 76.2553 21.5844 75.9507 21.8828 75.7476C21.8828 78.083 22.0817 81.0276 22.4796 84.0738C22.9769 88.643 24.3694 92.1969 26.3588 93.6184C26.9556 94.0246 27.5524 94.2276 28.1492 94.2276C28.3481 94.2276 28.6465 94.2276 28.8455 94.1261C32.1279 93.3138 32.8242 87.9323 32.9236 84.0738C33.1226 80.3169 33.7194 77.5753 34.5151 75.5446C36.7034 77.6769 37.2007 80.9261 37.3996 83.8707C37.4991 85.5969 37.4991 87.2215 37.5986 88.9476C37.698 90.3692 37.5986 92.4 38.5933 93.5169C39.0906 94.1261 39.9858 94.4307 40.7815 94.2276C41.6767 94.0246 42.1741 93.2123 42.7709 92.603C43.865 91.1815 44.7602 89.4553 45.357 87.7292C46.5506 84.683 47.1474 81.5353 47.7442 78.2861C48.2416 75.3415 47.8437 72.2953 47.4458 69.3507H54.7069L54.508 97.4769Z" fill="#9F694F" fill-opacity="0.49"/>
<path d="M25.1647 37.6707C26.5572 37.0615 28.0492 36.4523 29.6407 36.4523C31.7295 36.4523 33.7188 37.3661 35.4098 38.5846C36.2055 39.0923 37.0012 37.7723 36.2055 37.2646C34.2162 35.9446 32.0279 34.9292 29.6407 34.9292C27.8503 34.9292 26.1593 35.5384 24.4684 36.3507C23.4737 36.7569 24.2694 38.0769 25.1647 37.6707Z" fill="#9EA6B3" fill-opacity="0.47"/>
<path d="M17.9036 38.1784C17.8041 38.1784 17.7047 38.1784 17.7047 38.1784H17.6052C17.3068 38.1784 16.9089 38.0769 16.6105 37.9753C15.8148 37.7723 15.218 37.4677 14.4223 37.0615C14.1239 36.8584 13.6265 36.96 13.4276 37.3661C13.2287 37.6707 13.3281 38.1784 13.726 38.3815C15.218 39.1938 16.8095 39.803 18.5004 39.803C18.8983 39.803 19.2962 39.4984 19.2962 38.9907C19.2962 38.5846 18.9978 38.28 18.5004 38.1784C18.202 38.1784 18.0031 38.1784 17.9036 38.1784Z" fill="#9EA6B3" fill-opacity="0.47"/>
<path d="M32.6258 33.6092C32.9242 33.8123 33.4215 33.7108 33.6205 33.3046C33.8194 33 33.7199 32.4923 33.3221 32.2892C31.8301 31.4769 30.2386 30.8677 28.6471 30.4615C28.2492 30.36 27.8514 30.5631 27.7519 30.9692C27.6524 31.3754 27.8514 31.7815 28.2492 31.8831C29.8407 32.2892 31.2333 32.8985 32.6258 33.6092Z" fill="#9EA6B3" fill-opacity="0.47"/>
<path d="M51.9209 75.7477C52.3187 75.7477 52.7166 75.4431 52.7166 74.9354C52.7166 74.4277 52.4182 74.123 51.9209 74.123C51.523 74.123 51.2246 74.4277 51.2246 74.9354C51.2246 75.4431 51.523 75.7477 51.9209 75.7477Z" fill="#9EA6B3" fill-opacity="0.47"/>
<path d="M50.7295 81.4337C51.1273 81.4337 51.5252 81.1291 51.5252 80.6214C51.5252 80.1137 51.2268 79.8091 50.7295 79.8091C50.3316 79.8091 50.0332 80.1137 50.0332 80.6214C50.0332 81.1291 50.3316 81.4337 50.7295 81.4337Z" fill="#9EA6B3" fill-opacity="0.47"/>
<path d="M51.325 86.7139C50.9272 86.7139 50.5293 87.0185 50.5293 87.5262C50.5293 88.0339 50.8277 88.3385 51.325 88.3385C51.8224 88.3385 52.1208 88.0339 52.1208 87.5262C52.1208 87.0185 51.7229 86.7139 51.325 86.7139Z" fill="#9EA6B3" fill-opacity="0.47"/>
<path d="M47.6453 89.76C47.2475 89.76 46.8496 90.0646 46.8496 90.5723C46.8496 91.08 47.148 91.3846 47.6453 91.3846C48.1427 91.3846 48.4411 91.08 48.4411 90.5723C48.4411 90.0646 48.0432 89.76 47.6453 89.76Z" fill="#9EA6B3" fill-opacity="0.47"/>
<path d="M51.325 93.0092C50.9272 93.0092 50.5293 93.3138 50.5293 93.8215C50.5293 94.3292 50.8277 94.6338 51.325 94.6338C51.8224 94.6338 52.1208 94.3292 52.1208 93.8215C52.1208 93.3138 51.7229 93.0092 51.325 93.0092Z" fill="#9EA6B3" fill-opacity="0.47"/>
<path d="M44.3641 91.8923C43.9662 91.8923 43.5684 92.197 43.5684 92.7046C43.5684 93.2123 43.8668 93.5169 44.3641 93.5169C44.8614 93.5169 45.1598 93.2123 45.1598 92.7046C45.1598 92.197 44.762 91.8923 44.3641 91.8923Z" fill="#9EA6B3" fill-opacity="0.47"/>
<path d="M46.9481 94.6338C46.5502 94.6338 46.1523 94.9384 46.1523 95.4461C46.1523 95.9538 46.4507 96.2584 46.9481 96.2584C47.4454 96.2584 47.7438 95.9538 47.7438 95.4461C47.7438 94.9384 47.3459 94.6338 46.9481 94.6338Z" fill="#9EA6B3" fill-opacity="0.47"/>
<path d="M40.3836 94.7354C39.9858 94.7354 39.5879 95.04 39.5879 95.5477C39.5879 96.0553 39.8863 96.36 40.3836 96.36C40.881 96.36 41.1794 96.0553 41.1794 95.5477C41.1794 95.04 40.881 94.7354 40.3836 94.7354Z" fill="#9EA6B3" fill-opacity="0.47"/>
<path d="M34.4168 94.4307C34.019 94.4307 33.6211 94.7353 33.6211 95.243C33.6211 95.7507 33.9195 96.0553 34.4168 96.0553C34.9142 96.0553 35.2126 95.7507 35.2126 95.243C35.2126 94.7353 34.8147 94.4307 34.4168 94.4307Z" fill="#9EA6B3" fill-opacity="0.47"/>
<path d="M30.1395 94.0247C29.7416 94.0247 29.3438 94.3293 29.3438 94.837C29.3438 95.3447 29.6422 95.6493 30.1395 95.6493C30.6368 95.6493 30.9352 95.3447 30.9352 94.837C30.9352 94.3293 30.5374 94.0247 30.1395 94.0247Z" fill="#9EA6B3" fill-opacity="0.47"/>
<path d="M25.5633 95.0399C25.1654 95.0399 24.7676 95.3445 24.7676 95.8522C24.7676 96.3599 25.066 96.6645 25.5633 96.6645C26.0607 96.6645 26.3591 96.3599 26.3591 95.8522C26.3591 95.3445 25.9612 95.0399 25.5633 95.0399Z" fill="#9EA6B3" fill-opacity="0.47"/>
<path d="M21.286 93.6184C20.8881 93.6184 20.4902 93.923 20.4902 94.4307C20.4902 94.9384 20.7886 95.243 21.286 95.243C21.7833 95.243 22.0817 94.9384 22.0817 94.4307C22.0817 93.923 21.6838 93.6184 21.286 93.6184Z" fill="#9EA6B3" fill-opacity="0.47"/>
<path d="M15.2176 94.5322C14.8197 94.5322 14.4219 94.8368 14.4219 95.3445C14.4219 95.8522 14.7203 96.1568 15.2176 96.1568C15.7149 96.1568 16.0133 95.8522 16.0133 95.3445C16.0133 94.8368 15.6155 94.5322 15.2176 94.5322Z" fill="#9EA6B3" fill-opacity="0.47"/>
<path d="M9.84652 89.4553C9.44865 89.4553 9.05078 89.7599 9.05078 90.2676C9.05078 90.7753 9.34918 91.0799 9.84652 91.0799C10.3439 91.0799 10.6423 90.7753 10.6423 90.2676C10.6423 89.7599 10.2444 89.4553 9.84652 89.4553Z" fill="#9EA6B3" fill-opacity="0.47"/>
<path d="M7.46076 86.4092C7.46076 86.0031 7.16236 85.5969 6.66502 85.5969C6.26715 85.5969 5.96875 85.9015 5.96875 86.4092C5.96875 86.9169 6.26715 87.2215 6.76449 87.2215C7.26182 87.2215 7.46076 86.8154 7.46076 86.4092Z" fill="#9EA6B3" fill-opacity="0.47"/>
<path d="M8.45394 80.4185C8.05607 80.4185 7.6582 80.7231 7.6582 81.2308C7.6582 81.7385 7.9566 82.0431 8.45394 82.0431C8.95128 82.0431 9.24968 81.7385 9.24968 81.2308C9.24968 80.7231 8.85181 80.4185 8.45394 80.4185Z" fill="#9EA6B3" fill-opacity="0.47"/>
<path d="M7.95589 92.2983C7.55803 92.2983 7.16016 92.603 7.16016 93.1106C7.16016 93.6183 7.45856 93.923 7.95589 93.923C8.45323 93.923 8.75163 93.6183 8.75163 93.1106C8.75163 92.603 8.35376 92.2983 7.95589 92.2983Z" fill="#9EA6B3" fill-opacity="0.47"/>
<path d="M9.84652 95.0399C9.44865 95.0399 9.05078 95.3445 9.05078 95.8522C9.05078 96.3599 9.34918 96.6645 9.84652 96.6645C10.3439 96.6645 10.6423 96.3599 10.6423 95.8522C10.6423 95.3445 10.2444 95.0399 9.84652 95.0399Z" fill="#9EA6B3" fill-opacity="0.47"/>
<path d="M4.87386 88.8462C4.47599 88.8462 4.07812 89.1508 4.07812 89.6585C4.07812 90.1662 4.47599 90.3693 4.87386 90.3693C5.27173 90.3693 5.6696 90.0646 5.6696 89.557C5.6696 89.0493 5.27173 88.8462 4.87386 88.8462Z" fill="#9EA6B3" fill-opacity="0.47"/>
<path d="M3.78025 84.277C4.17812 84.277 4.57599 83.9723 4.57599 83.4646C4.57599 82.957 4.27759 82.6523 3.78025 82.6523C3.38239 82.6523 3.08398 82.957 3.08398 83.4646C3.08398 83.9723 3.38239 84.277 3.78025 84.277Z" fill="#9EA6B3" fill-opacity="0.47"/>
<path d="M7.06232 77.4738C7.06232 77.0677 6.76392 76.6615 6.26658 76.6615C5.86871 76.6615 5.57031 76.9661 5.57031 77.4738C5.57031 77.9815 5.86871 78.1846 6.26658 78.1846C6.66445 78.1846 7.06232 77.88 7.06232 77.4738Z" fill="#9EA6B3" fill-opacity="0.47"/>
<path d="M6.16697 73.6154C6.56484 73.6154 6.96271 73.3107 6.96271 72.8031C6.96271 72.2954 6.56484 72.0923 6.16697 72.0923C5.7691 72.0923 5.4707 72.3969 5.4707 72.9046C5.4707 73.4123 5.7691 73.6154 6.16697 73.6154Z" fill="#9EA6B3" fill-opacity="0.47"/>
<path d="M3.0848 93.3137C2.68693 93.3137 2.28906 93.6183 2.28906 94.126C2.28906 94.6337 2.58746 94.9383 3.0848 94.9383C3.58214 94.9383 3.88054 94.6337 3.88054 94.126C3.88054 93.6183 3.58214 93.3137 3.0848 93.3137Z" fill="#9EA6B3" fill-opacity="0.47"/>
<path d="M47.5459 85.7999C47.9437 85.7999 48.3416 85.4953 48.3416 84.9876C48.3416 84.4799 48.0432 84.2769 47.5459 84.2769C47.148 84.2769 46.8496 84.5815 46.8496 85.0892C46.8496 85.5969 47.148 85.7999 47.5459 85.7999Z" fill="#9EA6B3" fill-opacity="0.47"/>
<path d="M48.8388 72.2953C49.2367 72.2953 49.6346 71.9907 49.6346 71.483C49.6346 70.9753 49.3362 70.6707 48.8388 70.6707C48.441 70.6707 48.1426 70.9753 48.1426 71.483C48.1426 71.9907 48.3415 72.2953 48.8388 72.2953Z" fill="#9EA6B3" fill-opacity="0.47"/>
<path d="M21.1873 90.1661C21.1873 89.7599 20.8889 89.3538 20.3916 89.3538C19.9937 89.3538 19.6953 89.6584 19.6953 90.1661C19.6953 90.6738 19.9937 90.9784 20.4911 90.9784C20.9884 90.9784 21.1873 90.5722 21.1873 90.1661Z" fill="#9EA6B3" fill-opacity="0.47"/>
<path d="M21.0869 85.2922C21.4848 85.2922 21.8826 84.9876 21.8826 84.4799C21.8826 83.9722 21.5842 83.6676 21.0869 83.6676C20.689 83.6676 20.3906 83.9722 20.3906 84.4799C20.3906 84.9876 20.689 85.2922 21.0869 85.2922Z" fill="#9EA6B3" fill-opacity="0.47"/>
<path d="M34.7147 90.9783C34.7147 90.5722 34.4163 90.166 33.9189 90.166C33.5211 90.166 33.2227 90.4706 33.2227 90.9783C33.2227 91.486 33.5211 91.7906 34.0184 91.7906C34.5157 91.7906 34.7147 91.3845 34.7147 90.9783Z" fill="#9EA6B3" fill-opacity="0.47"/>
<path d="M34.4168 84.3784C34.019 84.3784 33.6211 84.683 33.6211 85.1907C33.6211 85.6984 33.9195 86.003 34.4168 86.003C34.9142 86.003 35.2126 85.6984 35.2126 85.1907C35.2126 84.683 34.8147 84.3784 34.4168 84.3784Z" fill="#9EA6B3" fill-opacity="0.47"/>
<path d="M34.7137 79.6061C34.3158 79.6061 33.918 79.9107 33.918 80.4184C33.918 80.9261 34.2164 81.2307 34.7137 81.2307C35.211 81.2307 35.5094 80.9261 35.5094 80.4184C35.5094 79.9107 35.211 79.6061 34.7137 79.6061Z" fill="#9EA6B3" fill-opacity="0.47"/>
</g>
<defs>
<clipPath id="clip0_10_18841">
<rect width="56" height="99" fill="white"/>
</clipPath>
</defs>
</svg>
