<svg width="99" height="87" viewBox="0 0 99 87" fill="none" xmlns="http://www.w3.org/2000/svg">
<g clip-path="url(#clip0_10_18723)">
<path d="M85.7305 85.4557H69.7662V62.0841C69.7662 61.6722 69.4552 61.2604 68.9368 61.2604C68.4185 61.2604 68.1075 61.5693 68.1075 62.0841V85.4557H57.3264V80.8225C57.3264 79.2782 56.0824 77.9397 54.4237 77.9397H46.7525V58.3776H54.4237C55.9787 58.3776 57.3264 57.1421 57.3264 55.4947V54.774L74.3274 60.1279C74.6384 60.2308 74.8457 60.2308 75.1567 60.2308C75.675 60.2308 76.1934 60.0249 76.608 59.716C77.3337 59.2012 77.6447 58.4805 77.6447 57.6569C77.6447 56.7302 77.1264 55.8036 76.1934 55.3918L50.2771 42.8308C48.3075 41.9042 46.1305 41.3894 43.8499 41.3894H16.897V39.7421C16.897 38.6095 16.6897 37.374 16.2751 36.3444L15.8604 35.2119C16.897 34.1823 17.208 32.6379 16.7934 31.1965L12.0248 17.8119C11.7138 16.7823 10.9881 15.9586 9.95149 15.5468C9.01851 15.135 7.8782 15.032 6.94521 15.3409L4.14626 16.3705L3.31694 12.7669L5.28657 12.3551C6.42689 12.1492 7.35987 11.4285 7.8782 10.5018C8.50019 9.5752 8.70752 8.44265 8.39652 7.31011L8.08553 5.66277C7.5672 3.39768 5.28657 1.95626 3.00594 2.57402L1.9693 2.77993C1.24364 2.88289 0.725317 3.29473 0.414322 3.80952C0.103327 4.32431 -0.000337444 5.04502 0.103327 5.66277C0.103327 5.66277 2.90228 17.606 3.00594 17.606L9.84783 37.0651C10.3662 38.6095 10.2625 40.2569 10.0552 42.0071C10.0552 42.0071 10.0552 42.2131 10.1588 42.5219C14.7201 51.3764 16.0677 51.2734 16.586 51.2734H23.7389V55.5977C23.7389 57.1421 24.9829 58.4805 26.6415 58.4805H34.2091V78.0426H26.5379C24.9829 78.0426 23.6353 79.2782 23.6353 80.9255V85.4557H7.35987C6.94521 85.4557 6.53055 85.7645 6.53055 86.2793C6.53055 86.7941 6.84155 87.103 7.35987 87.103H85.7305C86.1452 87.103 86.5599 86.7941 86.5599 86.2793C86.5599 85.7645 86.1452 85.4557 85.7305 85.4557ZM11.6101 41.4924C11.7138 40.1539 11.8175 38.7125 11.5065 37.374L14.4091 36.3444C14.5127 36.3444 14.5128 36.2415 14.6164 36.2415L14.8237 36.9622C15.1347 37.8888 15.3421 38.9184 15.3421 39.845V41.4924H11.6101ZM1.6583 4.63319C1.86563 4.42727 2.07296 4.32431 2.28029 4.22135L3.31694 4.01544C3.52427 3.91248 3.7316 3.91248 3.93893 3.91248C5.18291 3.91248 6.21956 4.73615 6.53055 5.97165L6.94521 7.61899C7.15254 8.3397 6.94521 9.06041 6.63422 9.67816C6.21956 10.2959 5.70123 10.7077 4.97558 10.9137L3.00594 11.3255L1.55464 5.3539C1.55464 5.14798 1.55464 4.8391 1.6583 4.63319ZM7.46354 16.8853C8.08553 16.6793 8.70751 16.6793 9.3295 16.9882C9.95149 17.2971 10.3662 17.7089 10.5735 18.3267L15.3421 31.7113C15.7567 32.9468 15.1347 34.3882 13.8908 34.8L10.9881 35.8296L4.66458 17.9148L7.46354 16.8853ZM12.1285 43.0367H43.9536C45.9232 43.0367 47.8929 43.4486 49.6552 44.3752L75.5714 56.9361C75.8824 57.1421 76.1934 57.4509 76.1934 57.8628C76.1934 58.1716 75.986 58.4805 75.7787 58.6864C75.4677 58.8924 75.1567 58.8924 74.8457 58.7894L46.9599 50.0379C46.4415 49.935 46.0269 49.832 45.5086 49.832H16.586C15.8604 49.3172 13.8908 46.1255 12.1285 43.0367ZM25.1902 55.5977V51.3764H45.4049C45.7159 51.3764 46.1305 51.3764 46.4415 51.4793L55.7714 54.3622V55.5977C55.7714 56.3184 55.1494 56.8332 54.5274 56.8332H26.5379C25.8122 56.9361 25.1902 56.3184 25.1902 55.5977ZM35.7641 58.4805H45.1976V78.0426H35.7641V58.4805ZM25.1902 80.8225C25.1902 80.1018 25.8122 79.587 26.4342 79.587H54.4237C55.1494 79.587 55.6677 80.2048 55.6677 80.8225V85.4557H25.1902V80.8225Z" fill="#D0B5A9"/>
<path d="M37.2148 35.1089C37.2148 35.5207 37.5258 35.9325 38.0442 35.9325H65.619C66.0337 35.9325 66.4483 35.6237 66.4483 35.1089C66.4483 34.5941 66.1374 34.2852 65.619 34.2852H64.2714V27.7988C64.2714 27.387 63.9604 26.9751 63.4421 26.9751H62.1981V24.4012C62.1981 23.1657 61.1614 22.1361 59.9175 22.1361H59.5028C59.0881 22.1361 58.6735 22.445 58.6735 22.9598C58.6735 23.4746 58.9845 23.7834 59.5028 23.7834H59.9175C60.3321 23.7834 60.6431 24.0923 60.6431 24.5041V27.0781H59.0881C58.6735 27.0781 58.2588 27.387 58.2588 27.9018V34.4911H55.1489C55.8745 33.1527 56.2892 31.7112 56.2892 30.1669C56.2892 29.755 55.9782 29.3432 55.4599 29.3432H47.685V23.1657C47.685 22.445 48.307 21.8272 49.0326 21.8272C49.7583 21.8272 50.3803 22.445 50.3803 23.1657C50.3803 23.5775 50.6913 23.9893 51.2096 23.9893C51.7279 23.9893 52.0389 23.6805 52.0389 23.1657C52.0389 21.6213 50.6913 20.2828 49.1363 20.2828C47.5813 20.2828 46.2337 21.6213 46.2337 23.1657V29.3432H39.9101C39.4955 29.3432 39.0808 29.6521 39.0808 30.1669C39.0808 31.7112 39.4955 33.2556 40.2211 34.4911H37.9405C37.5258 34.3882 37.2148 34.697 37.2148 35.1089ZM59.9175 28.5195H62.7164V34.2852H59.9175V28.5195ZM40.6358 30.7846H54.9415C54.8379 32.1231 54.3196 33.3586 53.4902 34.3882H42.0871C41.3614 33.3586 40.8431 32.1231 40.6358 30.7846Z" fill="#D0B5A9"/>
<path d="M97.134 29.4463H81.2733C80.2366 29.4463 79.4073 30.27 79.4073 31.2995V34.3883H69.7665V11.7374H79.4073V13.3847C79.4073 14.4143 80.2366 15.238 81.2733 15.238H92.4691C93.5057 15.238 94.3351 14.4143 94.3351 13.3847V8.64865C94.3351 7.61906 93.5057 6.89835 92.4691 6.89835H81.2733C80.2366 6.89835 79.4073 7.72202 79.4073 8.64865V10.296H69.2482L58.467 0.206046C58.2597 0.000128493 57.845 -0.10283 57.534 0.103087L42.9173 8.75161L40.7403 6.17764C40.0146 5.35397 38.8743 4.83918 37.6304 4.94214C36.49 4.94214 35.2461 5.45693 34.2094 6.2806C33.8984 6.58948 33.7948 7.00131 34.1057 7.31019L34.9351 8.33977C34.5204 8.85457 34.2094 9.47232 34.0021 10.0901C33.7947 11.0167 34.0021 11.9433 34.5204 12.5611L38.2523 17.0913C38.7707 17.709 39.6 18.1208 40.533 18.1208H40.6366C41.2586 18.1208 41.9843 17.9149 42.5026 17.606L43.3319 18.6356C43.4356 18.7386 43.6429 18.8416 43.8502 18.9445H43.9539C44.1612 18.9445 44.2649 18.8416 44.4722 18.7386C46.6492 16.8853 47.2712 14.1055 45.8199 12.3552L43.7466 9.88415L57.6377 1.64747L68.2115 11.3256V46.3315C68.2115 46.7433 68.5225 47.1552 69.0408 47.1552C69.4555 47.1552 69.8701 46.8463 69.8701 46.3315V35.9327H79.511V38.5066C79.511 39.5362 80.3403 40.3599 81.377 40.3599H97.2377C98.2743 40.3599 99.1037 39.5362 99.1037 38.5066V31.2995C99 30.27 98.1707 29.4463 97.134 29.4463ZM81.066 8.64865C81.066 8.54569 81.1696 8.44273 81.2733 8.44273H92.4691C92.5728 8.44273 92.6764 8.54569 92.6764 8.64865V13.3847C92.6764 13.4877 92.5728 13.5907 92.4691 13.5907H81.2733C81.1696 13.5907 81.066 13.4877 81.066 13.3847V8.64865ZM40.7403 16.6794C40.222 16.6794 39.911 16.5765 39.6 16.2676L35.868 11.7374C35.6607 11.4285 35.5571 11.0167 35.6607 10.6049C35.7644 10.296 35.868 9.98711 36.0754 9.78119L41.7769 16.5765C41.3623 16.5765 41.0513 16.6794 40.7403 16.6794ZM44.7832 13.3847C45.5089 14.3114 45.1979 15.8558 44.1612 16.9883L35.868 7.00131C36.49 6.58948 37.112 6.38356 37.734 6.38356C38.5633 6.38356 39.1853 6.58948 39.6 7.10427L44.7832 13.3847ZM97.445 38.4037C97.445 38.5066 97.3414 38.6096 97.2377 38.6096H81.2733C81.1696 38.6096 81.066 38.5066 81.066 38.4037V35.109V31.1966C81.066 31.0936 81.1696 30.9907 81.2733 30.9907H97.134C97.2377 30.9907 97.3414 31.0936 97.3414 31.1966V38.4037H97.445Z" fill="#D0B5A9"/>
</g>
<defs>
<clipPath id="clip0_10_18723">
<rect width="99" height="87" fill="white"/>
</clipPath>
</defs>
</svg>
