<svg width="49" height="99" viewBox="0 0 49 99" fill="none" xmlns="http://www.w3.org/2000/svg">
<g clip-path="url(#clip0_10_17586)">
<path d="M33.1359 39.9002C32.9338 40.2048 32.4287 40.4079 32.1256 40.2048C31.5194 39.7986 28.8926 38.4784 28.5895 38.4784C28.1854 38.3769 27.9833 37.9706 28.0843 37.5644C28.1854 37.1582 28.5895 36.9551 28.9936 37.0566C30.4081 37.4629 31.7215 38.1737 32.8328 38.9862C33.2369 39.0877 33.3379 39.4939 33.1359 39.9002Z" fill="#9EA6B3" fill-opacity="0.41"/>
<path d="M15.2553 41.2204C16.8718 41.1189 18.3873 40.5095 19.9027 39.9002C20.3068 39.6971 20.4079 39.1893 20.2058 38.8847C20.0038 38.4785 19.4986 38.4785 19.1955 38.58C17.9831 39.0878 16.6697 39.5956 15.3563 39.6971C13.6388 39.7987 12.0223 39.2909 10.6079 38.4785C9.79963 37.9707 8.99138 39.2909 9.79963 39.7987C11.4161 40.7127 13.3357 41.4235 15.2553 41.2204Z" fill="#9EA6B3" fill-opacity="0.41"/>
<path d="M48.9992 40.8142C49.1003 43.15 48.6961 45.5873 48.191 47.9231C47.6858 50.4619 46.9786 52.8992 46.1704 55.235C45.5642 56.9614 44.857 58.6878 44.0487 60.4142C43.0384 62.6484 43.1394 65.0857 43.1394 67.4215C43.1394 76.3583 44.2508 86.5137 38.391 94.0288C37.7848 94.7396 37.1786 95.4505 36.2693 95.7552C35.3601 96.0598 34.1477 95.8567 33.5415 95.1459C32.9353 94.435 33.0364 93.4194 33.0364 92.607C33.0364 91.3883 32.9353 90.0681 32.9353 88.8495C32.8343 84.8889 32.8343 80.6236 31.1168 76.9676C30.2075 79.1003 29.5003 82.0453 29.2982 86.006C29.0961 91.1852 28.1869 97.4816 25.0549 98.1925C24.8528 98.1925 24.7518 98.294 24.5498 98.294C24.1456 98.294 23.6405 98.1925 23.1353 97.7863C20.7106 96.0598 19.0941 90.4744 18.5889 86.006C18.1848 82.9593 17.9827 79.9127 17.9827 77.5769C17.7807 77.8816 17.4776 78.1863 17.2755 78.3894C15.3559 81.2329 15.3559 84.8889 15.2549 88.2402C15.2549 89.865 15.1539 91.4899 14.9518 93.1148C14.8508 93.9272 14.7498 94.7396 14.1436 95.349C13.6384 95.9583 12.7291 96.263 11.9209 96.0598C11.0116 95.8567 10.5065 95.0443 9.90027 94.435C9.29409 93.7241 8.78893 92.9117 8.38481 92.0992C7.47553 90.3728 6.86935 88.6464 6.26316 86.8184C5.75801 85.1935 5.45491 83.5687 5.05079 81.8422C4.7477 80.2174 4.54563 78.694 4.54563 77.0692C4.54563 72.7023 5.75801 68.3355 5.35388 63.8671C5.25285 62.8516 5.05079 61.836 4.64667 60.8205C4.24254 59.7034 3.63636 58.5863 3.1312 57.4692C2.32295 55.6412 1.71677 53.6101 1.21161 51.6806C0.605429 48.9386 0.100274 46.0951 -0.000757083 43.2515C-0.101788 41.0174 0.100274 38.4785 1.31264 36.4474C3.93945 31.979 9.59718 33.1977 13.9415 34.9241C15.558 33.5023 17.2755 32.3852 19.2962 31.7759C20.2054 31.4712 20.6096 32.9946 19.7003 33.2992C18.791 33.5023 18.0838 33.807 17.2755 34.3148C16.6693 34.721 16.0632 35.1272 15.457 35.5334C15.9621 35.7365 16.3663 35.9396 16.7704 36.1427C17.6797 36.549 16.8714 37.8692 15.9621 37.4629C14.9518 36.9552 14.0425 36.549 13.0322 36.1427C10.6075 35.2288 7.67759 34.2132 5.05079 35.0256C3.33326 35.5334 2.32295 37.0567 1.8178 38.7832C1.21161 41.0174 1.31264 43.4547 1.61574 45.7904C2.01986 48.7355 2.62605 51.6806 3.63636 54.4225C4.04048 55.5396 4.4446 56.6567 4.94976 57.6723C5.45491 58.6878 5.96007 59.6018 6.26316 60.7189C6.86935 62.6484 6.97038 64.7811 6.86935 66.8122C6.86935 71.0775 5.65697 75.3427 6.26316 79.4049C6.66728 82.4516 7.3745 85.3966 8.38481 88.3417C8.99099 89.9666 9.69821 91.5914 10.7085 93.1148C11.0116 93.6225 11.7188 94.7396 12.426 94.7396C13.1333 94.8412 13.3353 93.9272 13.4364 93.3179C13.9415 90.2712 13.6384 87.0215 14.0425 83.8733C14.4467 80.6236 15.457 77.4754 18.1848 75.4443C18.1848 74.1241 18.0838 73.3117 18.0838 73.3117C17.9827 72.9054 18.2858 72.4992 18.69 72.3977C19.0941 72.2961 19.4982 72.6008 19.5992 73.007C19.5992 73.1085 19.9023 74.3272 19.7003 76.1552C19.4982 78.4909 19.7003 82.1469 20.2054 85.9044C20.7106 90.779 22.4281 95.4505 24.0446 96.5676C24.4487 96.8723 24.7518 96.7707 24.7518 96.7707C26.3683 96.3645 27.5807 92.0992 27.7827 86.006C28.0858 78.8971 30.1065 74.9365 31.6219 72.9054C31.925 72.6008 32.3291 72.4992 32.6322 72.8039C32.9353 73.007 33.0364 73.5148 32.7333 73.921C32.4302 74.3272 32.1271 74.835 31.723 75.4443C32.1271 76.0536 32.4302 76.7645 32.7333 77.3738C34.3498 81.5376 34.2487 86.3106 34.3498 90.6775C34.3498 91.7946 34.2487 92.9117 34.4508 94.0288C34.6528 94.9427 35.7642 94.7396 36.2693 94.2319C36.9766 93.6225 37.4817 92.8101 37.9869 91.9977C38.492 91.0837 38.9972 90.1697 39.4013 89.2557C41.0178 85.3966 41.5229 81.1313 41.5229 76.9676C41.5229 74.6319 41.523 72.1946 41.4219 69.8588C41.4219 67.5231 41.3209 65.1873 41.624 62.8516C41.9271 60.6174 43.1394 58.7894 43.9477 56.7583C44.3518 55.6412 44.7559 54.5241 45.059 53.5085C45.7663 51.1728 46.3724 48.9386 46.7766 46.5013C47.1807 44.4702 47.3827 42.3376 47.1807 40.2049C47.0797 38.6816 46.5745 36.9552 45.5642 35.8381C44.4528 34.6194 42.8364 34.3148 41.2199 34.3148C38.29 34.4163 35.3601 35.635 32.8343 36.9552C31.925 37.3614 31.2178 36.0412 32.026 35.635C32.9353 35.2288 33.7436 34.8225 34.6528 34.4163C38.5931 32.7914 44.4528 31.2681 47.2817 35.5334C48.6961 36.8536 48.9992 38.9863 48.9992 40.8142Z" fill="#9EA6B3" fill-opacity="0.41"/>
<path d="M5.95559 48.7353C5.85456 54.0161 8.88549 58.5861 9.59271 63.7653C9.69374 64.1716 10.1989 64.3747 10.502 64.2731C10.9061 64.1716 11.1082 63.7653 11.0071 63.3591C10.2999 58.383 7.26899 53.813 7.37003 48.7353C7.57209 47.7197 6.05662 47.7197 5.95559 48.7353Z" fill="#9EA6B3" fill-opacity="0.41"/>
<path d="M40.7139 57.9768C42.8356 53.5084 44.351 48.7354 44.8562 43.7592C44.9572 42.7437 43.4418 42.7437 43.3407 43.7592C42.9366 48.4307 41.4211 53.0007 39.4005 57.1644C38.9964 58.0784 40.3098 58.7893 40.7139 57.9768Z" fill="#9EA6B3" fill-opacity="0.41"/>
<path d="M23.7378 7.40303C21.5151 8.11391 19.4945 9.53567 17.1707 9.84033C15.5542 10.0434 14.0388 9.53567 12.6243 8.82479C11.9171 8.31702 11.1089 9.53567 12.0182 10.0434C13.3316 10.7543 14.746 11.2621 16.2615 11.3636C17.4738 11.3636 18.6862 11.1605 19.7975 10.6528C22.0202 9.84033 24.0408 8.41857 26.4656 8.52013C28.2841 8.52013 30.0017 9.43412 31.5171 10.3481C32.3254 10.8559 33.0326 9.53567 32.3254 9.0279C29.6986 7.30147 26.7687 6.48904 23.7378 7.40303Z" fill="#9EA6B3" fill-opacity="0.41"/>
<path d="M48.9982 10.2462C49.0993 13.5975 48.291 17.0503 47.2807 20.1985C47.0786 21.0109 46.0683 24.0576 45.6642 24.6669C45.058 25.5809 44.0477 25.9871 43.0374 25.9871C42.6333 25.9871 27.9838 25.8856 24.8518 25.8856V28.2213C24.8518 28.6275 24.5487 29.0337 24.0436 29.0337C23.5384 29.0337 23.2353 28.7291 23.2353 28.2213V25.8856C19.5982 25.8856 8.08071 25.784 5.95906 25.784C5.04978 25.784 4.1405 25.6824 3.43329 25.0731C2.32195 24.1591 2.01885 22.5343 1.61473 21.2141C1.10957 19.6907 0.806481 18.269 0.503389 16.7457C-0.40589 12.1757 -0.810013 4.55913 4.54463 2.52804C6.46421 1.81716 8.68689 2.02027 10.7075 2.52804C11.8189 2.83271 12.9302 3.13737 13.9405 3.54359C16.1632 1.71561 18.689 0.3954 21.6189 0.192292C24.3467 0.0907372 26.9735 1.00473 29.3982 2.12183C30.3075 2.52804 29.4993 3.84825 28.59 3.44203C26.4683 2.42649 24.1446 1.61405 21.7199 1.71561C19.3962 1.81716 17.2745 2.83271 15.456 4.35602C15.8601 4.55913 16.3652 4.76224 16.7694 4.96535C17.6786 5.37157 16.8704 6.69177 15.9611 6.28556C15.1529 5.87934 14.2436 5.47312 13.4353 5.16846C10.4044 3.9498 5.35287 2.42649 2.92813 5.67623C1.41267 7.80887 1.31164 10.8555 1.41267 13.2928C1.61473 16.2379 2.32195 19.183 3.23122 21.9249C3.63535 23.042 3.93844 24.3622 5.25184 24.4638C5.35287 24.4638 42.7343 24.6669 43.1384 24.5653C43.8457 24.4638 44.2498 23.956 44.4518 23.3467C44.6539 22.6358 46.0683 18.269 46.4725 16.7457C47.1797 13.699 47.5838 10.4493 46.8766 7.40265C46.4725 5.57468 45.4622 3.84825 43.6436 3.23892C41.9261 2.6296 40.0065 2.93426 38.289 3.34048C36.3694 3.84825 34.5508 4.55913 32.8333 5.47312C31.924 5.87934 31.2168 4.55913 32.025 4.15291C32.9343 3.7467 33.8436 3.34048 34.7529 2.93426C38.289 1.5125 43.3405 0.192292 46.3714 3.13737C48.4931 4.86379 48.9982 7.70732 48.9982 10.2462Z" fill="#57565C"/>
<path d="M24.1442 37.3609C24.5483 37.3609 24.9524 37.0563 24.9524 36.5485V33.2988C24.9524 32.8925 24.6493 32.4863 24.1442 32.4863C23.639 32.4863 23.3359 32.791 23.3359 33.2988V36.5485C23.3359 36.9547 23.7401 37.3609 24.1442 37.3609Z" fill="#57565C"/>
<path d="M23.3359 46.501C23.3359 46.9072 23.639 47.3134 24.1442 47.3134C24.6493 47.3134 24.9524 47.0088 24.9524 46.501V41.5248C24.9524 41.1186 24.6493 40.7124 24.1442 40.7124C23.639 40.7124 23.3359 41.0171 23.3359 41.5248V46.501Z" fill="#57565C"/>
<path d="M23.6409 54.1177C23.843 54.3208 23.944 54.3208 24.1461 54.3208C24.3481 54.3208 24.5502 54.2193 24.6512 54.1177L28.9955 49.7509C29.2986 49.4462 29.2986 48.9384 28.9955 48.6338C28.6924 48.3291 28.1873 48.3291 27.8842 48.6338L24.8533 51.6804V49.7509C24.8533 49.3447 24.5502 48.9384 24.045 48.9384C23.5399 48.9384 23.2368 49.2431 23.2368 49.7509V51.6804L20.2058 48.6338C19.9028 48.3291 19.3976 48.3291 19.0945 48.6338C18.7914 48.9384 18.7914 49.4462 19.0945 49.7509L23.6409 54.1177Z" fill="#57565C"/>
</g>
<defs>
<clipPath id="clip0_10_17586">
<rect width="49" height="98" fill="white" transform="translate(0 0.192383)"/>
</clipPath>
</defs>
</svg>
