<svg width="84" height="100" viewBox="0 0 84 100" fill="none" xmlns="http://www.w3.org/2000/svg">
<g clip-path="url(#clip0_10_17340)">
<path d="M77.2723 41.115C76.5798 43.9052 75.7882 46.6954 74.7988 49.3822C73.9084 51.8624 72.5232 54.2392 72.1275 56.8227C71.7317 59.7162 71.9296 62.6098 71.9296 65.6066C72.0285 68.5002 72.0285 71.3937 72.0285 74.2872C71.9296 79.3509 71.237 84.6212 69.1593 89.2716C68.6646 90.4083 67.972 91.5451 67.3783 92.5785C66.7847 93.4052 66.0921 94.6453 65.0038 94.8519C64.608 94.9553 64.0144 94.8519 63.7176 94.3352C63.5197 93.9219 63.6186 93.3018 63.5197 92.8885C63.5197 91.4417 63.4207 89.9949 63.4207 88.5482C63.3218 82.8645 63.3218 76.7674 60.4525 71.6004C60.8483 70.877 61.2441 70.257 61.6398 69.7402C61.8377 69.4302 61.8377 68.9135 61.5409 68.6035C61.2441 68.2935 60.7494 68.3968 60.4525 68.7068C58.6716 71.187 56.396 75.9407 56.0002 84.4146C55.7034 91.9584 54.3183 97.0221 52.3395 97.5388C52.0427 97.6421 51.7458 97.5388 51.3501 97.3321C49.3713 95.9887 47.3925 90.305 46.7988 84.4146C46.2052 79.8676 46.0073 75.5273 46.2052 72.7371C46.4031 70.567 46.0073 69.1202 46.0073 69.0169C45.9084 68.6035 45.5126 68.2935 45.1169 68.3968C44.7211 68.5002 44.4243 68.9135 44.5232 69.3269C44.5232 69.3269 44.7211 70.4636 44.7211 72.0137C39.4773 76.1473 39.873 83.6912 39.5762 89.8916C39.4773 91.235 39.4773 92.7851 39.0815 94.1286C38.8836 94.7486 38.3889 95.3686 37.6964 95.162C37.0038 94.9553 36.5091 94.0252 36.1133 93.5085C34.1345 90.7183 32.9472 87.2048 32.0568 83.8979C31.661 82.3478 31.3642 80.901 31.0674 79.3509C30.8695 78.0075 30.5727 76.664 30.4737 75.3206C30.2759 71.187 31.0674 67.0534 31.3642 63.0231C31.5621 60.9563 31.5621 58.8895 31.1663 56.8227C30.8695 54.6526 29.979 52.8958 29.0886 50.9323C27.4066 47.1087 26.3183 43.0785 25.6257 39.0482C25.0321 35.8446 24.6363 32.4344 25.2299 29.2309C25.7246 26.854 26.813 24.4772 29.1875 23.6505C29.7812 23.4438 30.4737 23.3405 31.1663 23.2371C32.1557 23.2371 32.1557 21.687 31.1663 21.687C28.396 21.7904 25.9225 23.2371 24.7352 25.8206C23.449 28.7142 23.3501 32.1244 23.6469 35.2246C23.9437 39.0482 24.8342 42.9751 25.9225 46.6954C26.6151 49.0722 27.7034 51.3457 28.6928 53.6192C29.5833 55.4793 29.8801 57.6494 29.8801 59.7162C29.979 64.0565 29.0886 68.3968 28.8907 72.7371C28.6928 76.044 29.2865 79.2476 29.979 82.3478C30.7706 85.8613 31.8589 89.4782 33.6398 92.6818C34.0356 93.5085 34.5303 94.2319 35.1239 94.9553C35.7176 95.6787 36.2123 96.402 37.1027 96.7121C38.8836 97.3321 40.1699 95.782 40.5656 94.1286C41.1593 91.0284 40.9614 87.7215 41.1593 84.5179C41.3571 81.3144 41.7529 77.6975 43.7317 75.1139C43.9296 74.8039 44.2264 74.4939 44.5232 74.2872C44.4243 77.1807 44.7211 80.901 45.2158 84.7246C45.8094 90.2016 47.6893 96.8154 50.3607 98.7789C50.9543 99.1922 51.548 99.2956 51.9437 99.2956C52.1416 99.2956 52.3395 99.2956 52.5373 99.1922C56.0002 98.2622 56.9896 90.8217 57.2865 84.7246C57.4843 79.6609 58.3748 76.044 59.4631 73.4605C60.3536 75.424 60.9472 77.4908 61.2441 79.6609C61.6398 82.5544 61.7388 85.5513 61.7388 88.4448C61.7388 89.9949 61.8377 91.4417 61.8377 92.9918C61.8377 94.0252 61.8377 95.162 62.7282 95.8853C63.6186 96.7121 65.0038 96.6087 65.9932 96.092C66.9826 95.5753 67.6752 94.5419 68.3677 93.6119C74.7988 83.8979 73.1169 71.7037 73.2158 60.6463C73.2158 58.9929 73.2158 57.3394 73.6116 55.686C74.0073 54.1359 74.7988 52.6891 75.3925 51.2423C76.5798 48.1421 77.5691 44.8352 78.3607 41.6317C78.9543 40.4949 77.4702 40.0816 77.2723 41.115Z" fill="#9EA6B3" fill-opacity="0.41"/>
<path d="M30.6718 39.8753C30.4739 46.2824 34.1347 51.7594 34.9262 57.9598C34.9262 58.3732 35.5198 58.5799 35.8167 58.4765C36.2124 58.3732 36.4103 57.9598 36.3114 57.5465C35.5198 51.5527 31.958 46.0757 32.1559 39.8753C32.2548 38.9452 30.7707 38.9452 30.6718 39.8753Z" fill="#9EA6B3" fill-opacity="0.41"/>
<path d="M70.544 50.9327C71.6324 48.5558 72.5228 46.179 73.3143 43.6988C73.6112 42.7688 72.1271 42.3554 71.9292 43.2855C71.2366 45.6623 70.3462 47.9358 69.3568 50.1059C69.1589 50.5193 69.2578 50.9327 69.6536 51.1393C69.8515 51.4494 70.4451 51.346 70.544 50.9327Z" fill="#9EA6B3" fill-opacity="0.41"/>
<path d="M84.0032 27.8876C84.0032 25.8208 82.6181 24.1673 80.7382 23.754C80.7382 21.7905 79.452 20.1371 77.6711 19.7237C77.2753 18.7937 76.4838 18.0703 75.4944 17.6569C75.0986 17.5536 74.7029 17.7603 74.505 18.1736C74.4061 18.587 74.6039 19.0003 74.9008 19.207C75.5933 19.4137 76.088 20.0337 76.3849 20.7571C76.4838 21.0671 76.6817 21.2738 76.9785 21.2738C78.2647 21.3772 79.1552 22.5139 79.1552 23.8573C79.1552 24.064 79.1552 24.1673 79.1552 24.2707C79.0562 24.4774 79.1552 24.7874 79.3531 24.8907C79.5509 24.9941 79.7488 25.2008 79.9467 25.2008C81.3319 25.2008 82.5191 26.3375 82.5191 27.7843C82.5191 28.921 81.8265 29.9544 80.7382 30.2644C80.5403 30.3678 80.3425 30.4711 80.2435 30.7811C80.1446 30.9878 80.2435 31.2978 80.3424 31.5045C80.6393 31.9179 80.7382 32.4346 80.7382 32.9513C80.7382 34.398 79.6499 35.5348 78.2647 35.5348C77.6711 35.5348 77.0774 35.3281 76.6817 34.9147C76.3849 34.7081 75.9891 34.7081 75.6923 34.9147C74.9997 35.5348 74.1092 35.7415 73.1198 35.3281C72.922 35.2248 72.7241 35.2248 72.5262 35.4314C72.3283 35.5348 72.2294 35.7415 72.1304 35.9481C71.9326 37.1882 70.8442 38.2216 69.6569 38.2216C68.2718 38.2216 67.0845 37.0849 67.0845 35.6381C67.0845 35.4314 67.0845 35.1214 67.1834 34.9147C67.2824 34.5014 67.0845 34.088 66.7877 33.9847C66.4909 33.778 65.9962 33.9847 65.8972 34.2947C65.4025 35.1214 64.611 35.5348 63.7205 35.5348C63.1269 35.5348 62.5333 35.3281 62.1375 34.9147C61.9396 34.7081 61.6428 34.7081 61.4449 34.7081C61.247 34.7081 61.0492 35.0181 60.9502 35.2248C60.6534 36.3615 59.664 37.0849 58.5757 37.0849C57.4873 37.0849 56.4979 36.3615 56.2011 35.2248C56.1022 35.0181 55.9043 34.8114 55.7064 34.7081C55.5085 34.6047 55.2117 34.7081 55.0138 34.8114C54.1234 35.6381 52.6393 35.5348 51.7488 34.7081C51.452 34.398 51.0562 34.398 50.7594 34.7081C50.2647 35.1214 49.6711 35.4314 49.0774 35.4314C47.6923 35.4314 46.6039 34.2947 46.6039 32.7446C46.6039 32.3312 46.4061 32.0212 46.0103 32.0212C44.823 31.8145 43.9326 30.6778 44.0315 29.4377C44.0315 29.1277 43.8336 28.8177 43.5368 28.7143C43.24 28.611 42.9432 28.7143 42.7453 28.921C42.2506 29.4377 41.4591 29.7477 40.7665 29.7477C40.0739 29.7477 39.4803 29.4377 38.9856 28.8177C38.4909 28.301 38.293 27.5776 38.3919 26.8542C38.3919 26.3375 38.5898 25.8208 38.9856 25.3041C39.1834 25.0974 39.1834 24.8907 39.1834 24.6841C39.1834 24.4774 38.9856 24.2707 38.7877 24.1673C37.7983 23.6506 37.1057 22.6172 37.1057 21.3772C37.1057 19.7237 38.3919 18.3803 39.975 18.3803C40.1728 18.3803 40.3707 18.3803 40.4697 18.3803C40.8654 18.4836 41.2612 18.1736 41.3601 17.7603C41.6569 16.3135 42.8442 15.2801 44.2294 15.2801C44.922 15.2801 45.6145 15.4868 46.1092 16.0035C46.4061 16.3135 46.9008 16.2101 47.1976 16.0035C47.4944 15.6934 47.3955 15.1767 47.1976 14.8667C46.4061 14.1433 45.4167 13.73 44.3283 13.73C42.4485 13.73 40.8654 14.9701 40.1728 16.7268C37.6993 16.7268 35.7205 18.7937 35.7205 21.2738C35.7205 22.7206 36.4131 24.1673 37.5015 24.9941C37.2046 25.5108 37.1057 26.1308 37.0068 26.6475C36.611 28.0943 36.9078 29.1277 37.6004 29.9544C38.293 30.7811 39.2824 31.2978 40.3707 31.4012C41.1622 31.4012 41.8548 31.2978 42.4485 30.9878C42.5474 31.4012 42.7453 31.7112 43.0421 32.0212C40.3707 32.2279 37.6004 31.9179 35.028 30.8845C34.6322 30.6778 34.2364 30.8845 34.0386 31.2978C33.8407 31.7112 34.0386 32.1245 34.4343 32.3312C36.611 33.2613 38.9856 33.6747 41.3601 33.6747C42.3495 33.6747 43.3389 33.5713 44.2294 33.468C44.3283 33.468 44.3283 33.468 44.4273 33.3646C44.5262 33.468 44.6251 33.468 44.823 33.5713C45.0209 35.6381 46.8018 37.1882 48.7806 37.1882C49.5721 37.1882 50.3637 36.9815 50.9573 36.4648C52.0456 37.2916 53.6287 37.3949 54.816 36.7749C55.5085 38.0149 56.7948 38.8417 58.2789 38.8417C59.664 38.8417 61.0492 38.0149 61.7417 36.7749C62.929 37.3949 64.4131 37.2916 65.5015 36.6715C65.8972 38.5316 67.4803 39.9784 69.3601 39.9784C71.0421 39.9784 72.5262 38.8417 73.1198 37.1882C74.1092 37.3949 75.0986 37.1882 75.8902 36.6715C76.4838 37.0849 77.2753 37.2916 77.9679 37.2916C80.1446 37.2916 81.9255 35.4314 81.9255 33.158C81.9255 32.6413 81.8266 32.1245 81.6287 31.6078C83.2117 30.7811 84.0032 29.4377 84.0032 27.8876Z" fill="#57565C"/>
<path d="M52.735 21.3772C51.7456 21.5838 50.8551 22.1005 50.0636 22.9273C49.7668 23.2373 49.7668 23.754 50.0636 24.064C50.3604 24.374 50.8551 24.374 51.1519 24.064C53.5265 21.6872 56.9894 23.0306 60.0565 24.1673C62.629 25.2007 64.9046 25.3041 67.2792 25.3041C68.0707 25.3041 68.8622 25.3041 69.5548 25.3041C70.7421 25.3041 72.0283 25.2007 73.3145 25.3041C73.7103 25.3041 74.106 24.9941 74.106 24.5807C74.106 24.1673 73.8092 23.754 73.4134 23.754C72.9187 23.754 72.3251 23.754 71.8304 23.754L72.9187 14.8667L73.4134 11.0431C73.4134 10.8364 73.4134 10.6298 73.2155 10.4231C73.1166 10.2164 72.9187 10.1131 72.7208 10.1131L1.28622 0.192392C0.890459 0.0890519 0.59364 0.399073 0.4947 0.812434L0 4.73937C0 4.94605 0 5.15273 0.0989399 5.35941C0.19788 5.56609 0.39576 5.66943 0.59364 5.66943L53.7244 13.1099L52.735 21.3772ZM64.5088 23.6506C64.0141 23.6506 63.5194 23.5473 63.0247 23.444L64.1131 14.7634C64.1131 14.66 64.1131 14.5567 64.1131 14.4534L65.6961 14.66L64.5088 23.6506ZM59.7597 13.8333L58.6714 22.1005C58.1767 21.8939 57.682 21.7905 57.1873 21.6872L58.1767 13.73L59.7597 13.8333ZM54.2191 21.1705L55.2085 13.2133L56.6926 13.4199L55.7032 21.2738C55.2085 21.1705 54.7138 21.1705 54.2191 21.1705ZM60.0565 22.6172L61.1449 14.04L62.7279 14.2467C62.629 14.35 62.629 14.4534 62.629 14.5567L61.5406 23.1339C61.1449 23.0306 60.7491 22.9273 60.3534 22.7206C60.2544 22.6172 60.1555 22.6172 60.0565 22.6172ZM65.9929 23.754L67.1802 14.8667L68.7633 15.0734L67.6749 23.754C67.0813 23.8573 66.4876 23.8573 65.9929 23.754ZM69.3569 23.754C69.2579 23.754 69.159 23.754 69.0601 23.754L70.1484 15.2801L71.2367 15.3834L70.1484 23.6506C69.9505 23.754 69.6537 23.754 69.3569 23.754ZM1.87986 1.84584L71.7315 11.5598L71.4346 13.8333L1.58304 4.11932L1.87986 1.84584Z" fill="#57565C"/>
</g>
<defs>
<clipPath id="clip0_10_17340">
<rect width="84" height="99" fill="white" transform="translate(0 0.192383)"/>
</clipPath>
</defs>
</svg>
