<svg width="99" height="59" viewBox="0 0 99 59" fill="none" xmlns="http://www.w3.org/2000/svg">
<g clip-path="url(#clip0_10_17353)">
<path d="M3.96058 38.7251C3.96058 38.3238 3.65596 37.9224 3.14827 37.9224C2.74212 37.9224 2.4375 38.2234 2.4375 38.7251C2.4375 39.2269 2.74212 39.5279 3.24981 39.5279C3.7575 39.5279 3.96058 39.1265 3.96058 38.7251Z" fill="#57565C"/>
<path d="M4.06231 41.936C3.65615 41.936 3.25 42.2371 3.25 42.7388C3.25 43.2405 3.55462 43.5416 4.06231 43.5416C4.57 43.5416 4.87462 43.2405 4.87462 42.7388C4.87462 42.2371 4.46846 41.936 4.06231 41.936Z" fill="#57565C"/>
<path d="M3.65606 46.853C3.2499 46.853 2.84375 47.1541 2.84375 47.6558C2.84375 48.1575 3.2499 48.3582 3.65606 48.3582C4.06221 48.3582 4.46837 48.0572 4.46837 47.5555C4.46837 47.0537 4.06221 46.853 3.65606 46.853Z" fill="#57565C"/>
<path d="M6.29668 48.9604C5.89053 48.9604 5.48438 49.2615 5.48438 49.7632C5.48438 50.265 5.78899 50.566 6.29668 50.566C6.80437 50.566 7.10899 50.1646 7.10899 49.6629C7.10899 49.1611 6.70284 48.9604 6.29668 48.9604Z" fill="#57565C"/>
<path d="M3.65606 52.6733C3.2499 52.6733 2.84375 52.9744 2.84375 53.4761C2.84375 53.9778 3.14837 54.2789 3.65606 54.2789C4.16375 54.2789 4.46837 53.9778 4.46837 53.4761C4.46837 52.9744 4.06221 52.6733 3.65606 52.6733Z" fill="#57565C"/>
<path d="M9.44495 52.2715C9.44495 51.8701 9.14034 51.4688 8.63264 51.4688C8.22649 51.4688 7.92188 51.7698 7.92188 52.2715C7.92188 52.7733 8.22649 53.0743 8.73418 53.0743C9.24188 53.0743 9.44495 52.6729 9.44495 52.2715Z" fill="#57565C"/>
<path d="M9.64825 54.1787C9.24209 54.1787 8.83594 54.4797 8.83594 54.9815C8.83594 55.4832 9.14055 55.7842 9.64825 55.7842C10.1559 55.7842 10.4606 55.4832 10.4606 54.9815C10.4606 54.4797 10.0544 54.1787 9.64825 54.1787Z" fill="#57565C"/>
<path d="M14.1131 49.7632C13.7069 49.7632 13.3008 50.0642 13.3008 50.566C13.3008 51.0677 13.6054 51.3687 14.1131 51.3687C14.6208 51.3687 14.9254 51.0677 14.9254 50.566C14.9254 50.0642 14.5192 49.7632 14.1131 49.7632Z" fill="#57565C"/>
<path d="M12.6912 51.77C12.2851 51.77 11.8789 52.0711 11.8789 52.5728C11.8789 53.0745 12.1835 53.3756 12.6912 53.3756C13.1989 53.3756 13.5035 53.0745 13.5035 52.5728C13.5035 52.0711 13.0974 51.77 12.6912 51.77Z" fill="#57565C"/>
<path d="M15.9412 53.6768C15.5351 53.6768 15.1289 53.9778 15.1289 54.4795C15.1289 54.9813 15.4335 55.2823 15.9412 55.2823C16.4489 55.2823 16.7535 54.9813 16.7535 54.4795C16.7535 53.9778 16.3474 53.6768 15.9412 53.6768Z" fill="#57565C"/>
<path d="M19.1912 52.5728C18.7851 52.5728 18.3789 52.8738 18.3789 53.3755C18.3789 53.8773 18.6835 54.1783 19.1912 54.1783C19.6989 54.1783 20.0035 53.8773 20.0035 53.3755C20.0035 52.8738 19.5974 52.5728 19.1912 52.5728Z" fill="#57565C"/>
<path d="M22.3357 54.4795C21.9296 54.4795 21.5234 54.7805 21.5234 55.2823C21.5234 55.784 21.8281 56.085 22.3357 56.085C22.8434 56.085 23.1481 55.784 23.1481 55.2823C23.1481 54.7805 22.8434 54.4795 22.3357 54.4795Z" fill="#57565C"/>
<path d="M22.3397 52.7735C22.7458 52.7735 23.152 52.4725 23.152 51.9707C23.152 51.469 22.8474 51.168 22.3397 51.168C21.9335 51.168 21.6289 51.469 21.6289 51.9707C21.6289 52.4725 21.9335 52.7735 22.3397 52.7735Z" fill="#57565C"/>
<path d="M25.4842 53.0742C25.078 53.0742 24.6719 53.3753 24.6719 53.877C24.6719 54.3787 24.9765 54.6798 25.4842 54.6798C25.9919 54.6798 26.2965 54.3787 26.2965 53.877C26.2965 53.3753 25.9919 53.0742 25.4842 53.0742Z" fill="#57565C"/>
<path d="M26.9061 50.9673C26.4999 50.9673 26.0938 51.2683 26.0938 51.7701C26.0938 52.2718 26.3984 52.5728 26.9061 52.5728C27.4137 52.5728 27.7184 52.2718 27.7184 51.7701C27.7184 51.2683 27.3122 50.9673 26.9061 50.9673Z" fill="#57565C"/>
<path d="M30.1561 52.874C29.7499 52.874 29.3438 53.1751 29.3438 53.6768C29.3438 54.1785 29.6484 54.4796 30.1561 54.4796C30.6638 54.4796 30.9684 54.1785 30.9684 53.6768C30.9684 53.1751 30.5622 52.874 30.1561 52.874Z" fill="#57565C"/>
<path d="M30.0545 51.0675C30.4607 51.0675 30.8668 50.7664 30.8668 50.2647C30.8668 49.763 30.5622 49.4619 30.0545 49.4619C29.6484 49.4619 29.3438 49.763 29.3438 50.2647C29.3438 50.7664 29.6484 51.0675 30.0545 51.0675Z" fill="#57565C"/>
<path d="M34.0153 52.2715C34.0153 51.8701 33.7106 51.4688 33.203 51.4688C32.7968 51.4688 32.4922 51.7698 32.4922 52.2715C32.4922 52.7733 32.7968 53.0743 33.3045 53.0743C33.8122 53.0743 34.0153 52.6729 34.0153 52.2715Z" fill="#57565C"/>
<path d="M34.7264 49.3618C34.3202 49.3618 33.9141 49.6629 33.9141 50.1646C33.9141 50.6663 34.2187 50.9674 34.7264 50.9674C35.1325 50.9674 35.5387 50.6663 35.5387 50.1646C35.5387 49.6629 35.1325 49.3618 34.7264 49.3618Z" fill="#57565C"/>
<path d="M32.8981 48.2578C32.8981 47.8565 32.5935 47.4551 32.1873 47.4551C31.7812 47.4551 31.4766 47.7561 31.4766 48.2578C31.4766 48.7596 31.7812 49.0606 32.2889 49.0606C32.5935 49.0606 32.8981 48.6592 32.8981 48.2578Z" fill="#57565C"/>
<path d="M34.8279 45.5483C34.4218 45.5483 34.0156 45.8494 34.0156 46.3511C34.0156 46.8528 34.3202 47.1539 34.8279 47.1539C35.2341 47.1539 35.6402 46.8528 35.6402 46.3511C35.6402 45.8494 35.2341 45.5483 34.8279 45.5483Z" fill="#57565C"/>
<path d="M34.9295 42.3374C34.5233 42.3374 34.1172 42.6384 34.1172 43.1402C34.1172 43.6419 34.4218 43.9429 34.9295 43.9429C35.3357 43.9429 35.7418 43.6419 35.7418 43.1402C35.7418 42.6384 35.3357 42.3374 34.9295 42.3374Z" fill="#57565C"/>
<path d="M32.3903 44.9463C32.3903 44.5449 32.0856 44.1436 31.578 44.1436C31.1718 44.1436 30.8672 44.4446 30.8672 44.9463C30.8672 45.4481 31.1718 45.7491 31.6795 45.7491C32.1872 45.7491 32.3903 45.3477 32.3903 44.9463Z" fill="#57565C"/>
<path d="M34.3201 38.8252C33.914 38.8252 33.5078 39.1262 33.5078 39.628C33.5078 40.1297 33.8124 40.4307 34.3201 40.4307C34.7263 40.4307 35.1324 40.1297 35.1324 39.628C35.1324 39.1262 34.8278 38.8252 34.3201 38.8252Z" fill="#57565C"/>
<path d="M34.117 37.0191C34.5232 37.0191 34.9293 36.7181 34.9293 36.2163C34.9293 35.7146 34.6247 35.4136 34.117 35.4136C33.7109 35.4136 33.4062 35.7146 33.4062 36.2163C33.4062 36.7181 33.7109 37.0191 34.117 37.0191Z" fill="#57565C"/>
<path d="M34.4217 54.2788C34.0155 54.2788 33.6094 54.5798 33.6094 55.0816C33.6094 55.5833 33.914 55.8843 34.4217 55.8843C34.8278 55.8843 35.234 55.5833 35.234 55.0816C35.234 54.5798 34.8278 54.2788 34.4217 54.2788Z" fill="#57565C"/>
<path d="M37.8748 51.2686C37.4687 51.2686 37.0625 51.5696 37.0625 52.0713C37.0625 52.5731 37.3671 52.8741 37.8748 52.8741C38.281 52.8741 38.6871 52.5731 38.6871 52.0713C38.6871 51.5696 38.3825 51.2686 37.8748 51.2686Z" fill="#57565C"/>
<path d="M39.8045 53.3755C39.3983 53.3755 38.9922 53.6765 38.9922 54.1783C38.9922 54.68 39.2968 54.981 39.8045 54.981C40.2106 54.981 40.6168 54.68 40.6168 54.1783C40.6168 53.6765 40.2106 53.3755 39.8045 53.3755Z" fill="#57565C"/>
<path d="M61.0272 50.5659C60.621 50.5659 60.2148 50.867 60.2148 51.3687C60.2148 51.8704 60.5195 52.1715 61.0272 52.1715C61.5348 52.1715 61.8395 51.8704 61.8395 51.3687C61.8395 50.867 61.4333 50.5659 61.0272 50.5659Z" fill="#57565C"/>
<path d="M59.0936 53.3755C58.6874 53.3755 58.2812 53.6765 58.2812 54.1783C58.2812 54.68 58.5859 54.981 59.0936 54.981C59.4997 54.981 59.9059 54.68 59.9059 54.1783C59.9059 53.6765 59.4997 53.3755 59.0936 53.3755Z" fill="#57565C"/>
<path d="M42.7498 54.2783C42.3437 54.2783 41.9375 54.5794 41.9375 55.0811C41.9375 55.5828 42.2421 55.8839 42.7498 55.8839C43.156 55.8839 43.5621 55.5828 43.5621 55.0811C43.5621 54.5794 43.156 54.2783 42.7498 54.2783Z" fill="#57565C"/>
<path d="M44.1678 51.2686C43.7616 51.2686 43.3555 51.5696 43.3555 52.0713C43.3555 52.5731 43.6601 52.8741 44.1678 52.8741C44.5739 52.8741 44.9801 52.5731 44.9801 52.0713C44.9801 51.5696 44.6755 51.2686 44.1678 51.2686Z" fill="#57565C"/>
<path d="M47.8279 52.1714C47.4218 52.1714 47.0156 52.4724 47.0156 52.9742C47.0156 53.4759 47.3202 53.7769 47.8279 53.7769C48.2341 53.7769 48.6402 53.4759 48.6402 52.9742C48.6402 52.4724 48.2341 52.1714 47.8279 52.1714Z" fill="#57565C"/>
<path d="M51.074 53.4761C50.6679 53.4761 50.2617 53.7771 50.2617 54.2788C50.2617 54.7806 50.5663 55.0816 51.074 55.0816C51.4802 55.0816 51.8863 54.7806 51.8863 54.2788C51.8863 53.7771 51.4802 53.4761 51.074 53.4761Z" fill="#57565C"/>
<path d="M55.0348 52.1714C55.0348 51.77 54.7302 51.3687 54.2225 51.3687C53.8163 51.3687 53.5117 51.6697 53.5117 52.1714C53.5117 52.6731 53.8163 52.9742 54.324 52.9742C54.7302 52.9742 55.0348 52.5728 55.0348 52.1714Z" fill="#57565C"/>
<path d="M55.2342 54.2783C54.828 54.2783 54.4219 54.5794 54.4219 55.0811C54.4219 55.5828 54.7265 55.8839 55.2342 55.8839C55.6403 55.8839 56.0465 55.5828 56.0465 55.0811C56.0465 54.5794 55.6403 54.2783 55.2342 54.2783Z" fill="#57565C"/>
<path d="M12.7964 13.7389C14.0149 13.6386 15.1318 13.1368 16.2488 12.6351C17.2641 12.1334 18.2795 11.732 19.3964 11.6317C21.0211 11.5313 22.4426 12.1334 23.6611 13.0365C24.4734 13.5382 25.1841 12.2337 24.4734 11.732C23.1534 10.8289 21.5288 10.1265 19.9041 10.1265C18.6857 10.1265 17.4672 10.5278 16.3503 11.0296C15.3349 11.431 14.3195 12.033 13.3041 12.2337C11.9841 12.5348 10.6641 12.1334 9.54721 11.5313C8.73491 11.0296 7.9226 12.3341 8.73491 12.8358C9.85183 13.5382 11.2734 13.9396 12.7964 13.7389Z" fill="#57565C"/>
<path d="M5.98805 18.154C5.88651 21.7664 7.91728 24.7768 8.42498 28.2889C8.52651 28.6903 8.72959 29.0917 9.23728 29.0917C9.64344 29.0917 10.0496 28.7906 10.0496 28.2889C9.5419 24.8771 7.51113 21.6661 7.61267 18.154C7.51113 17.1505 5.98805 17.1505 5.98805 18.154Z" fill="#57565C"/>
<path d="M28.4294 23.3723C29.8509 20.2615 30.8663 17.0505 31.2724 13.6387C31.2724 13.2373 30.8663 12.8359 30.4601 12.8359C30.054 12.8359 29.7494 13.137 29.6478 13.6387C29.3432 16.7494 28.3278 19.8602 27.1094 22.6698C26.9063 23.0712 27.0078 23.4726 27.414 23.6733C27.7186 23.874 28.2263 23.7737 28.4294 23.3723Z" fill="#57565C"/>
<path d="M27.8201 43.5416C28.2263 43.5416 28.6325 43.2405 28.6325 42.7388C28.6325 42.2371 28.3278 41.936 27.8201 41.936C27.414 41.936 27.1094 42.2371 27.1094 42.7388C27.1094 43.2405 27.414 43.5416 27.8201 43.5416Z" fill="#57565C"/>
<path d="M26.3983 40.732C26.8044 40.732 27.2106 40.431 27.2106 39.9292C27.2106 39.5278 26.906 39.1265 26.3983 39.1265C25.9921 39.1265 25.6875 39.4275 25.6875 39.9292C25.6875 40.3306 25.9921 40.732 26.3983 40.732Z" fill="#57565C"/>
<path d="M28.5311 38.2237C28.9372 38.2237 29.3434 37.9227 29.3434 37.4209C29.3434 36.9192 29.0388 36.6182 28.5311 36.6182C28.1249 36.6182 27.8203 36.9192 27.8203 37.4209C27.8203 37.9227 28.1249 38.2237 28.5311 38.2237Z" fill="#57565C"/>
<path d="M20.0037 38.9258C20.4099 38.9258 20.816 38.6248 20.816 38.1231C20.816 37.6213 20.5114 37.3203 20.0037 37.3203C19.5976 37.3203 19.293 37.6213 19.293 38.1231C19.293 38.6248 19.5976 38.9258 20.0037 38.9258Z" fill="#57565C"/>
<path d="M17.3631 39.2266C16.9569 39.2266 16.5508 39.5276 16.5508 40.0293C16.5508 40.5311 16.8554 40.7318 17.3631 40.7318C17.8708 40.7318 18.1754 40.4307 18.1754 39.929C18.1754 39.5276 17.7692 39.2266 17.3631 39.2266Z" fill="#57565C"/>
<path d="M19.0897 43.2408C19.4958 43.2408 19.902 42.9398 19.902 42.438C19.902 41.9363 19.5974 41.6353 19.0897 41.6353C18.6835 41.6353 18.3789 41.9363 18.3789 42.438C18.3789 42.9398 18.6835 43.2408 19.0897 43.2408Z" fill="#57565C"/>
<path d="M18.4803 44.1436C18.0741 44.1436 17.668 44.4446 17.668 44.9463C17.668 45.4481 17.9726 45.7491 18.4803 45.7491C18.988 45.7491 19.2926 45.4481 19.2926 44.9463C19.2926 44.4446 18.8864 44.1436 18.4803 44.1436Z" fill="#57565C"/>
<path d="M10.1561 44.043C10.5622 44.043 10.9684 43.742 10.9684 43.2403C10.9684 42.7385 10.6638 42.4375 10.1561 42.4375C9.74993 42.4375 9.44531 42.7385 9.44531 43.2403C9.44531 43.742 9.74993 44.043 10.1561 44.043Z" fill="#57565C"/>
<path d="M8.63264 41.3341C9.0388 41.3341 9.44495 41.033 9.44495 40.5313C9.44495 40.1299 9.14034 39.7285 8.63264 39.7285C8.22649 39.7285 7.92188 40.0296 7.92188 40.5313C7.92188 41.033 8.22649 41.3341 8.63264 41.3341Z" fill="#57565C"/>
<path d="M11.1717 39.3272C11.5779 39.3272 11.984 39.0262 11.984 38.5244C11.984 38.0227 11.6794 37.7217 11.1717 37.7217C10.7656 37.7217 10.4609 38.0227 10.4609 38.5244C10.4609 39.0262 10.7656 39.3272 11.1717 39.3272Z" fill="#57565C"/>
<path d="M8.73421 37.722C9.14036 37.722 9.54651 37.4209 9.54651 36.9192C9.54651 36.4175 9.14036 36.2168 8.73421 36.2168C8.32805 36.2168 8.02344 36.5178 8.02344 37.0196C8.02344 37.5213 8.32805 37.722 8.73421 37.722Z" fill="#57565C"/>
<path d="M18.3787 46.6523C17.9726 46.6523 17.5664 46.9534 17.5664 47.4551C17.5664 47.9568 17.871 48.2579 18.3787 48.2579C18.8864 48.2579 19.191 47.9568 19.191 47.4551C19.191 46.9534 18.7849 46.6523 18.3787 46.6523Z" fill="#57565C"/>
<path d="M17.2616 37.2198C17.6677 37.2198 18.0739 36.9188 18.0739 36.417C18.0739 35.9153 17.7692 35.6143 17.2616 35.6143C16.8554 35.6143 16.5508 35.9153 16.5508 36.417C16.5508 36.9188 16.8554 37.2198 17.2616 37.2198Z" fill="#57565C"/>
<path d="M10.2576 45.3477C9.85147 45.3477 9.44531 45.6487 9.44531 46.1504C9.44531 46.6522 9.74993 46.9532 10.2576 46.9532C10.7653 46.9532 11.0699 46.6522 11.0699 46.1504C11.0699 45.6487 10.7653 45.3477 10.2576 45.3477Z" fill="#57565C"/>
<path d="M12.7967 37.0191C13.2029 37.0191 13.609 36.7181 13.609 36.2163C13.609 35.7146 13.3044 35.4136 12.7967 35.4136C12.3906 35.4136 12.0859 35.7146 12.0859 36.2163C12.0859 36.7181 12.3906 37.0191 12.7967 37.0191Z" fill="#57565C"/>
<path d="M58.4842 43.5416C58.8904 43.5416 59.2965 43.2405 59.2965 42.7388C59.2965 42.2371 58.9919 41.936 58.4842 41.936C58.078 41.936 57.7734 42.2371 57.7734 42.7388C57.7734 43.2405 58.078 43.5416 58.4842 43.5416Z" fill="#57565C"/>
<path d="M57.0623 40.732C57.4685 40.732 57.8746 40.431 57.8746 39.9292C57.8746 39.5278 57.57 39.1265 57.0623 39.1265C56.6562 39.1265 56.3516 39.4275 56.3516 39.9292C56.3516 40.3306 56.6562 40.732 57.0623 40.732Z" fill="#57565C"/>
<path d="M59.1951 38.2237C59.6013 38.2237 60.0075 37.9227 60.0075 37.4209C60.0075 36.9192 59.7028 36.6182 59.1951 36.6182C58.789 36.6182 58.4844 36.9192 58.4844 37.4209C58.4844 37.9227 58.789 38.2237 59.1951 38.2237Z" fill="#57565C"/>
<path d="M50.6678 38.9258C51.074 38.9258 51.4801 38.6248 51.4801 38.1231C51.4801 37.6213 51.1755 37.3203 50.6678 37.3203C50.2616 37.3203 49.957 37.6213 49.957 38.1231C49.957 38.6248 50.2616 38.9258 50.6678 38.9258Z" fill="#57565C"/>
<path d="M48.0272 39.2266C47.621 39.2266 47.2148 39.5276 47.2148 40.0293C47.2148 40.5311 47.5195 40.7318 48.0272 40.7318C48.4333 40.7318 48.8395 40.4307 48.8395 39.929C48.8395 39.5276 48.4333 39.2266 48.0272 39.2266Z" fill="#57565C"/>
<path d="M49.7537 43.2408C50.1599 43.2408 50.566 42.9398 50.566 42.438C50.566 41.9363 50.2614 41.6353 49.7537 41.6353C49.3476 41.6353 49.043 41.9363 49.043 42.438C49.043 42.9398 49.3476 43.2408 49.7537 43.2408Z" fill="#57565C"/>
<path d="M49.1443 44.1436C48.7382 44.1436 48.332 44.4446 48.332 44.9463C48.332 45.4481 48.6366 45.7491 49.1443 45.7491C49.5505 45.7491 49.9566 45.4481 49.9566 44.9463C49.9566 44.4446 49.5505 44.1436 49.1443 44.1436Z" fill="#57565C"/>
<path d="M40.8201 44.043C41.2263 44.043 41.6325 43.742 41.6325 43.2403C41.6325 42.7385 41.3278 42.4375 40.8201 42.4375C40.414 42.4375 40.1094 42.7385 40.1094 43.2403C40.1094 43.742 40.414 44.043 40.8201 44.043Z" fill="#57565C"/>
<path d="M39.2967 39.8291C38.8905 39.8291 38.4844 40.1301 38.4844 40.6319C38.4844 41.0333 38.789 41.4346 39.2967 41.4346C39.7028 41.4346 40.109 41.1336 40.109 40.6319C40.109 40.2305 39.8044 39.8291 39.2967 39.8291Z" fill="#57565C"/>
<path d="M41.8358 39.3272C42.2419 39.3272 42.6481 39.0262 42.6481 38.5244C42.6481 38.0227 42.3435 37.7217 41.8358 37.7217C41.4296 37.7217 41.125 38.0227 41.125 38.5244C41.125 39.0262 41.4296 39.3272 41.8358 39.3272Z" fill="#57565C"/>
<path d="M39.3983 37.7217C39.8044 37.7217 40.2106 37.4207 40.2106 36.919C40.2106 36.4172 39.906 36.1162 39.3983 36.1162C38.9921 36.1162 38.6875 36.4172 38.6875 36.919C38.6875 37.4207 38.9921 37.7217 39.3983 37.7217Z" fill="#57565C"/>
<path d="M49.0428 46.6523C48.6366 46.6523 48.2305 46.9534 48.2305 47.4551C48.2305 47.9568 48.5351 48.2579 49.0428 48.2579C49.4489 48.2579 49.8551 47.9568 49.8551 47.4551C49.8551 46.9534 49.4489 46.6523 49.0428 46.6523Z" fill="#57565C"/>
<path d="M47.9256 37.2198C48.3318 37.2198 48.7379 36.9188 48.7379 36.417C48.7379 35.9153 48.4333 35.6143 47.9256 35.6143C47.5195 35.6143 47.2148 35.9153 47.2148 36.417C47.2148 36.9188 47.5195 37.2198 47.9256 37.2198Z" fill="#57565C"/>
<path d="M40.9217 45.3477C40.5155 45.3477 40.1094 45.6487 40.1094 46.1504C40.1094 46.6522 40.414 46.9532 40.9217 46.9532C41.3278 46.9532 41.734 46.6522 41.734 46.1504C41.734 45.6487 41.4294 45.3477 40.9217 45.3477Z" fill="#57565C"/>
<path d="M43.4608 37.0191C43.8669 37.0191 44.2731 36.7181 44.2731 36.2163C44.2731 35.7146 43.9685 35.4136 43.4608 35.4136C43.0546 35.4136 42.75 35.7146 42.75 36.2163C42.75 36.7181 43.0546 37.0191 43.4608 37.0191Z" fill="#57565C"/>
<path d="M58.5858 19.0572C58.9919 19.0572 59.3981 18.7562 59.3981 18.2544C59.3981 17.7527 59.0935 17.4517 58.5858 17.4517C58.1796 17.4517 57.875 17.7527 57.875 18.2544C57.875 18.7562 58.1796 19.0572 58.5858 19.0572Z" fill="#57565C"/>
<path d="M57.367 13.9395C56.9608 13.9395 56.5547 14.2405 56.5547 14.7422C56.5547 15.244 56.8593 15.545 57.367 15.545C57.7731 15.545 58.1793 15.244 58.1793 14.7422C58.1793 14.2405 57.7731 13.9395 57.367 13.9395Z" fill="#57565C"/>
<path d="M53.41 12.5347C53.0038 12.5347 52.6992 12.8357 52.6992 13.3374C52.6992 13.8392 53.0038 14.1402 53.5115 14.1402C53.9177 14.1402 54.3238 13.8392 54.3238 13.3374C54.3238 12.8357 53.8161 12.5347 53.41 12.5347Z" fill="#57565C"/>
<path d="M56.4568 10.1265C56.0507 10.1265 55.6445 10.4275 55.6445 10.9292C55.6445 11.431 55.9491 11.732 56.4568 11.732C56.863 11.732 57.2691 11.431 57.2691 10.9292C57.2691 10.4275 56.863 10.1265 56.4568 10.1265Z" fill="#57565C"/>
<path d="M60.1131 10.8291C59.7069 10.8291 59.3008 11.1301 59.3008 11.6319C59.3008 12.1336 59.6054 12.4346 60.1131 12.4346C60.5192 12.4346 60.9254 12.1336 60.9254 11.6319C60.9254 11.1301 60.6208 10.8291 60.1131 10.8291Z" fill="#57565C"/>
<path d="M64.5778 11.1299C64.5778 10.7285 64.2731 10.3271 63.7655 10.3271C63.3593 10.3271 63.0547 10.6282 63.0547 11.1299C63.0547 11.6316 63.3593 11.9327 63.867 11.9327C64.3747 11.9327 64.5778 11.6316 64.5778 11.1299Z" fill="#57565C"/>
<path d="M61.6326 14.04C61.2265 14.04 60.8203 14.3411 60.8203 14.8428C60.8203 15.3445 61.1249 15.6456 61.6326 15.6456C62.1403 15.6456 62.4449 15.3445 62.4449 14.8428C62.4449 14.3411 62.1403 14.04 61.6326 14.04Z" fill="#57565C"/>
<path d="M62.5465 18.2544C62.5465 17.853 62.2419 17.4517 61.7342 17.4517C61.3281 17.4517 61.0234 17.7527 61.0234 18.2544C61.0234 18.7562 61.3281 19.0572 61.8357 19.0572C62.3434 19.0572 62.5465 18.6558 62.5465 18.2544Z" fill="#57565C"/>
<path d="M60.9256 21.1646C60.5195 21.1646 60.2148 21.4656 60.2148 21.9673C60.2148 22.4691 60.5195 22.7701 61.0272 22.7701C61.5348 22.7701 61.8395 22.4691 61.8395 21.9673C61.8395 21.4656 61.3318 21.1646 60.9256 21.1646Z" fill="#57565C"/>
<path d="M38.4842 24.2755C38.8904 24.2755 39.2965 23.9744 39.2965 23.4727C39.2965 22.971 38.9919 22.6699 38.4842 22.6699C38.0781 22.6699 37.7734 22.971 37.7734 23.4727C37.7734 23.9744 38.0781 24.2755 38.4842 24.2755Z" fill="#57565C"/>
<path d="M38.6873 25.8809C38.2812 25.8809 37.875 26.1819 37.875 26.6836C37.875 27.1854 38.1796 27.4864 38.6873 27.4864C39.0935 27.4864 39.4996 27.1854 39.4996 26.6836C39.4996 26.1819 39.0935 25.8809 38.6873 25.8809Z" fill="#57565C"/>
<path d="M99 29.8944C99 23.0708 93.3139 17.4515 86.4092 17.4515H73.6154C70.4677 17.4515 67.4215 18.6556 65.1877 20.7629C65.4923 19.6591 65.7969 18.6556 66 17.5518C66.6092 14.8425 67.2185 11.1297 65.5938 8.62101C63.1569 4.90821 57.8769 7.11582 54.8308 8.62101C53.8154 8.92205 54.6277 10.2266 55.5415 9.82517C57.2677 9.0224 59.1969 8.11928 61.1262 8.01894C62.2431 7.91859 63.2585 8.21963 63.9692 9.0224C64.5785 9.72482 64.8831 10.929 64.8831 11.9324C64.9846 13.4376 64.7815 14.8425 64.5785 16.3477C64.2738 17.9532 63.8677 19.5587 63.36 21.0639C63.1569 21.7663 62.8523 22.5691 62.6492 23.2715C62.2431 24.275 61.7354 25.2785 61.4308 26.2819C59.9077 25.6798 59.0954 24.0743 58.1815 22.0674C57.2677 20.2612 56.3539 18.3546 54.8308 17.0501C54.2215 16.5483 53.6123 16.2473 53.0031 15.8459C51.2769 14.9428 49.8554 14.14 49.8554 11.23C50.0585 11.23 50.16 11.1297 50.2615 11.1297C51.8862 11.0293 53.3077 11.7317 54.5262 12.5345C55.3385 13.0362 56.0492 11.7317 55.3385 11.23C54.0185 10.3269 52.3938 9.62448 50.7692 9.52413C49.4492 9.52413 48.2308 9.92551 47.1138 10.4272C46.0985 10.929 45.0831 11.4307 43.8646 11.6314C42.5446 11.9324 41.2246 11.531 40.1077 10.929C39.2954 10.4272 38.4831 11.7317 39.2954 12.2335C40.6154 12.9359 42.0369 13.4376 43.4585 13.2369C44.6769 13.1366 45.7938 12.6349 47.0123 12.0328C47.4185 11.8321 47.8246 11.6314 48.2308 11.531C48.4338 14.9428 50.4646 16.0466 52.1908 17.0501C52.8 17.3511 53.3077 17.6522 53.7139 18.0535C55.0339 19.1573 55.9477 20.8632 56.76 22.5691C57.7754 24.6764 58.8923 26.884 61.0246 27.5864C60.8215 28.9913 60.9231 30.4964 60.9231 31.9013C60.9231 32.2023 60.9231 32.403 60.9231 32.7041C56.0492 32.5034 51.7846 32.3027 48.84 32.3027C46.4031 32.3027 42.9508 32.403 38.9908 32.6037C42.0369 28.5899 41.8338 25.2785 41.1231 23.2715C39.8031 19.7594 36.3508 17.6522 34.32 17.1504C34.2185 16.8494 34.2185 16.448 34.1169 16.0466C33.9138 14.4411 33.8123 12.8355 34.1169 11.23C34.4215 9.92551 35.1323 8.82171 36.5538 8.52067C38.7877 8.01894 41.4277 9.22309 43.3569 10.2266C44.2708 10.6279 44.9815 9.32344 44.1692 8.92205C43.9662 8.82171 43.7631 8.72136 43.56 8.62101C44.6769 7.7179 45.9969 7.11582 47.52 7.11582C49.1446 7.11582 50.7692 7.7179 52.2923 8.42032C53.1046 8.82171 53.9169 7.51721 53.1046 7.11582C51.3785 6.21271 49.4492 5.51029 47.52 5.61063C45.4892 5.71098 43.6615 6.61409 42.1385 8.01894C39.3969 6.91513 35.9446 6.21271 34.0154 8.42032C33.3046 7.51721 32.2892 6.91513 30.9692 6.71444C28.4308 6.4134 25.7908 7.61755 23.6585 8.62101C22.7446 9.0224 23.5569 10.3269 24.4708 9.92551C26.4 9.22309 28.6338 8.21963 30.7662 8.42032C31.8831 8.52067 32.6954 9.12274 33.2031 10.0259C32.5938 11.23 32.4923 12.8355 32.5938 14.2404C32.5938 15.6452 32.7969 17.0501 33.1015 18.3546C33.1015 18.6556 32.8985 19.057 32.7969 19.358C32.6954 19.7594 32.5938 20.1608 32.4923 20.5622C32.2892 21.365 31.9846 22.0674 31.7815 22.8701C31.4769 23.6729 31.2738 24.3753 30.8677 25.0778C30.5631 25.7802 30.2585 26.4826 30.0554 27.185C29.7508 28.7906 29.8523 30.3961 29.8523 32.0016C29.8523 32.403 29.8523 32.9048 29.8523 33.3061C22.1354 33.6072 12.5908 33.9082 6.80308 33.5068C6.90462 32.6037 7.00615 31.7006 7.10769 30.7975C7.20923 29.3926 7.10769 27.9878 6.80308 26.6833C6.39692 25.1781 5.58462 23.8736 5.07692 22.4688C4.36615 20.5622 3.96 18.4549 3.65538 16.448C3.45231 14.9428 3.35077 13.2369 3.65538 11.7317C3.96 10.4272 4.67077 9.32344 6.09231 9.0224C8.32615 8.52067 10.8646 9.72482 12.7938 10.7283C13.7077 11.1297 14.4185 9.82517 13.6062 9.42378C13.4031 9.32344 13.2 9.32344 12.9969 9.22309C14.1138 8.42032 15.3323 7.7179 16.7538 7.7179C18.3785 7.7179 19.9015 8.21963 21.3231 8.92205C22.2369 9.32344 22.9477 8.01894 22.1354 7.61755C20.4092 6.81479 18.5815 6.11236 16.6523 6.21271C14.6215 6.31306 12.8954 7.21617 11.4738 8.52067C8.42769 7.31652 4.67077 6.61409 2.84308 9.72482C2.03077 11.1297 1.92923 12.8355 1.92923 14.3407C2.03077 16.3477 2.33538 18.3546 2.84308 20.2612C3.14769 21.5656 3.65538 22.9705 4.16308 24.275C4.77231 25.7802 5.48308 27.0847 5.58462 28.7906C5.68615 30.2958 5.48308 31.8009 5.38154 33.4065C3.24923 33.2058 1.82769 32.8044 1.52308 32.3027C1.52308 31.9013 1.21846 31.4999 0.710769 31.4999C0.203077 31.4999 0 31.8009 0 32.2023V57.4895C0 57.8909 0.304615 58.2923 0.812308 58.2923H98.2892C98.4923 58.2923 98.6954 58.1919 98.7969 58.0916C98.8985 57.9913 99 57.7906 99 57.5899V32.2023V29.8944ZM49.0431 34.0086C51.9877 34.0086 56.2523 34.2092 61.1262 34.4099C61.1262 35.3131 61.1262 36.2162 61.1262 37.1193C61.1262 39.929 60.8215 42.839 59.8062 45.5484C59.5015 46.2508 59.1969 46.9532 58.7908 47.6556C58.4862 48.1573 57.9785 49.0605 57.3692 49.2612C56.5569 49.5622 56.76 48.2577 56.76 47.756C56.76 47.1539 56.76 46.6522 56.76 46.0501C56.8615 46.1504 56.9631 46.1504 57.0646 46.1504C57.4708 46.1504 57.8769 45.8494 57.8769 45.3477C57.8769 44.8459 57.5723 44.5449 57.0646 44.5449C56.9631 44.5449 56.8615 44.5449 56.6585 44.6452C56.5569 41.7352 56.3538 38.7248 54.9323 36.1158C55.1354 35.8148 55.3385 35.4134 55.5415 35.2127C55.7446 34.9117 55.7446 34.4099 55.3385 34.2093C54.9323 34.0086 54.5262 34.0086 54.2215 34.4099C53.1046 35.9151 51.7846 38.6245 51.48 43.6418C51.2769 48.358 50.3631 50.666 49.5508 50.8667C49.5508 50.8667 49.4492 50.8667 49.2462 50.7663C48.3323 50.1643 47.0123 47.1539 46.7077 43.5414C46.4031 41.0328 46.2 38.4238 46.4031 36.8182C46.5046 35.5137 46.3015 34.6106 46.3015 34.6106C46.2 34.2092 45.7938 33.9082 45.3877 34.0086C44.9815 34.1089 44.6769 34.5103 44.7785 34.9117C44.7785 34.9117 44.88 35.4134 44.88 36.3165C41.2246 39.3269 42.24 44.3442 41.7323 48.4584C41.7323 48.7594 41.6308 49.4618 41.3262 49.5622C41.0215 49.6625 40.5139 48.8598 40.3108 48.5587C39.6 47.5553 39.0923 46.4515 38.6862 45.3477C37.9754 43.3407 37.5692 41.3338 37.1631 39.2266C36.96 37.621 37.0615 36.0155 37.2646 34.4099C42.1385 34.1089 46.2 34.0086 49.0431 34.0086ZM39.8031 23.974C40.7169 26.4826 40.0062 29.1919 37.8738 32.0016C37.6708 32.3027 37.6708 32.6037 37.8738 32.9047C37.7723 32.9047 37.6708 32.9047 37.6708 32.9047C37.7723 32.2023 37.8738 31.6003 37.8738 30.8978C37.9754 29.493 37.8738 28.0881 37.5692 26.6833C37.1631 25.1781 36.3508 23.7733 35.8431 22.3684C35.8431 22.2681 35.8431 22.2681 35.7415 22.1677C35.8431 22.2681 36.0462 22.3684 36.1477 22.3684C36.5538 22.3684 36.96 22.0674 36.96 21.5656C36.96 21.0639 36.6554 20.7629 36.1477 20.7629C35.8431 20.7629 35.5385 20.9636 35.4369 21.2646C35.2338 20.4618 34.9292 19.6591 34.7262 18.8563C36.5538 19.6591 38.8892 21.4653 39.8031 23.974ZM31.4769 29.2923C31.4769 28.2888 31.5785 27.2854 31.9846 26.3823C32.3908 25.5795 32.7969 24.6764 33.1015 23.7733C33.4062 22.9705 33.7108 22.0674 33.9138 21.2646C34.2185 22.2681 34.5231 23.2715 35.0308 24.275C35.64 25.7802 36.3508 27.0847 36.4523 28.6902C36.5538 30.0951 36.4523 31.4999 36.2492 32.8044C36.0462 32.8044 35.8431 32.8044 35.64 32.8044C34.4215 32.9048 33 32.9048 31.5785 33.0051C31.4769 31.8009 31.3754 30.4964 31.4769 29.2923ZM29.9538 36.9186C29.9538 39.8286 29.6492 42.7387 28.5323 45.448C28.3292 46.0501 28.0246 46.6522 27.6185 47.2542C27.3138 47.756 26.9077 48.5587 26.4 48.8598C26.1969 48.9601 25.8923 49.0605 25.6892 48.8598C25.5877 48.6591 25.6892 48.2577 25.6892 48.1573C25.6892 47.3546 25.6892 46.5518 25.6892 45.8494C25.7908 46.1504 26.0954 46.2508 26.4 46.2508C26.8062 46.2508 27.2123 45.9497 27.2123 45.448C27.2123 44.9463 26.9077 44.6452 26.4 44.6452C26.0954 44.6452 25.7908 44.8459 25.6892 45.147C25.5877 42.0362 25.4862 38.9255 24.0646 36.1158C24.2677 35.8148 24.4708 35.4134 24.6738 35.2127C24.7754 35.1124 24.7754 35.012 24.7754 34.9117C26.5015 34.8113 28.2277 34.8113 30.0554 34.711C29.9538 35.4134 29.9538 36.1158 29.9538 36.9186ZM15.6369 35.1124C17.8708 35.1124 20.3077 35.012 22.8462 34.9117C21.8308 36.5172 20.8154 39.1262 20.6123 43.3407C20.4092 47.9567 19.4954 50.2646 18.6831 50.4653C18.5815 50.4653 18.5815 50.4653 18.48 50.365C17.5662 49.7629 16.3477 46.8528 15.9415 43.2404C15.6369 40.7317 15.4338 38.2231 15.6369 36.7179C15.7385 36.0155 15.6369 35.5137 15.6369 35.1124ZM14.1138 35.1124C14.1138 35.3131 14.2154 35.7144 14.1138 36.2162C10.56 39.1262 11.5754 44.0432 10.9662 48.057C10.9662 48.2577 10.8646 49.1608 10.56 49.1608C10.2554 49.1608 9.74769 48.2577 9.54462 48.057C8.93538 47.0535 8.42769 45.9497 8.02154 44.8459C7.41231 42.9394 6.90462 41.0328 6.6 39.0259C6.39692 37.621 6.49846 36.3165 6.6 34.9117C8.73231 35.012 11.2708 35.1124 14.1138 35.1124ZM1.52308 56.6868V33.9082C2.33538 34.2092 3.65538 34.5103 5.17846 34.711C5.07692 35.7144 5.07692 36.6176 5.07692 37.621C5.07692 39.8286 5.68615 42.1366 6.29538 44.2439C6.70154 45.448 7.10769 46.6522 7.71692 47.756C8.22462 48.7594 9.03692 50.2646 10.1538 50.5657C10.8646 50.7663 11.4738 50.4653 11.9815 49.9636C12.3877 49.4618 12.4892 48.7594 12.5908 48.1573C12.7938 46.9532 12.7938 45.6487 12.7938 44.3442C12.8954 42.4376 12.9969 40.0293 14.1138 38.3234C14.1138 39.8286 14.2154 41.5345 14.52 43.3407C14.8246 46.4515 15.9415 50.365 17.6677 51.5691C18.0738 51.8701 18.48 51.8701 18.7846 51.8701C18.9877 51.8701 19.0892 51.8702 19.1908 51.7698C20.9169 51.3684 21.9323 48.4584 22.2369 43.2404C22.3385 40.9324 22.7446 39.1262 23.1508 37.7214C24.1662 40.3304 24.0646 43.2404 24.1662 46.0501C24.1662 46.8528 24.1662 47.756 24.2677 48.5587C24.2677 49.1608 24.5723 49.7629 25.1815 50.0639C26.6031 50.8667 27.9231 49.4618 28.6338 48.358C31.4769 44.1435 31.5785 39.2265 31.5785 34.4099C32.8985 34.3096 34.32 34.3096 35.64 34.2093C35.7415 34.2093 35.8431 34.2093 36.0462 34.2093C35.9446 35.4134 35.8431 36.5172 35.8431 37.7214C35.8431 39.929 36.4523 42.2369 37.0615 44.3442C37.4677 45.6487 37.8738 46.8528 38.5846 48.057C38.9908 48.8598 39.6 49.8632 40.4123 50.4653C40.4123 50.8667 40.7169 51.1677 41.1231 51.1677C41.4277 51.1677 41.6308 50.967 41.7323 50.7663C42.7477 50.5657 43.2554 49.2612 43.3569 48.2577C43.56 46.9532 43.56 45.6487 43.56 44.3442C43.6615 42.3373 43.7631 40.0293 44.88 38.3234C44.88 39.8286 45.0831 41.6349 45.2862 43.4411C45.5908 46.6522 46.7077 50.5657 48.5354 51.7698C48.9415 52.0708 49.3477 52.0708 49.6523 52.0708C49.8554 52.0708 49.9569 52.0708 50.0585 51.9705C51.8862 51.5691 52.9015 48.6591 53.1046 43.3407C53.2062 40.9324 53.6123 39.1262 54.12 37.7214C55.0338 40.1297 55.0338 42.839 55.1354 45.448C55.1354 46.2508 55.1354 47.1539 55.2369 47.9567C55.2369 48.6591 55.2369 49.2612 55.6431 49.8632C56.6585 51.0674 58.3846 50.365 59.1969 49.3615C63.36 44.1435 62.6492 37.0189 62.6492 30.7975C62.6492 29.1919 62.5477 27.4861 63.1569 25.9809C63.2585 25.7802 63.36 25.4791 63.4615 25.2785C63.4615 25.2785 63.5631 25.1781 63.5631 25.0778C64.0708 23.8736 64.8831 22.7698 65.8985 21.7663C68.0308 19.6591 70.7723 18.5553 73.7169 18.5553H86.5108C92.6031 18.5553 97.5785 23.4722 97.5785 29.493V31.8009V56.2854L1.52308 56.6868Z" fill="#9EA6B3" fill-opacity="0.41"/>
<path d="M72.191 34.0089H88.7418C91.3818 34.0089 93.6156 32.5037 94.7325 30.0954C95.7479 27.7874 95.3418 25.2788 93.6156 23.4725C91.8895 21.6663 89.351 20.5625 86.8125 20.5625H74.2218C71.6833 20.5625 69.3479 21.566 67.6218 23.2718L67.5202 23.3722C65.6925 25.1784 65.2864 27.6871 66.3018 30.0954C67.3172 32.5037 69.551 34.0089 72.191 34.0089ZM68.6371 24.3756C70.0587 22.8705 72.0895 22.0677 74.1202 22.0677H86.711C88.8433 22.0677 90.8741 22.9708 92.3972 24.476C93.7172 25.8808 94.0218 27.6871 93.2095 29.4933C92.6002 30.8981 91.0772 32.5037 88.6402 32.5037H72.191C69.7541 32.5037 68.231 30.8981 67.6218 29.4933C66.911 27.6871 67.2156 25.7805 68.6371 24.3756Z" fill="#57565C"/>
<path d="M67.5231 42.5381C67.5231 42.1367 67.2185 41.7354 66.7108 41.7354C66.3046 41.7354 66 42.0364 66 42.5381C66 43.0398 66.3046 43.3409 66.8123 43.3409C67.32 43.3409 67.5231 42.9395 67.5231 42.5381Z" fill="#57565C"/>
<path d="M65.1871 46.3511C65.1871 45.9497 64.8825 45.5483 64.3748 45.5483C63.9687 45.5483 63.6641 45.8494 63.6641 46.3511C63.6641 46.8528 63.9687 47.1539 64.4764 47.1539C64.9841 47.1539 65.1871 46.7525 65.1871 46.3511Z" fill="#57565C"/>
<path d="M68.1326 48.3584C67.7265 48.3584 67.3203 48.6594 67.3203 49.1612C67.3203 49.6629 67.6249 49.9639 68.1326 49.9639C68.6403 49.9639 68.9449 49.6629 68.9449 49.1612C68.9449 48.6594 68.5388 48.3584 68.1326 48.3584Z" fill="#57565C"/>
<path d="M65.5936 52.874C65.1874 52.874 64.7812 53.1751 64.7812 53.6768C64.7812 54.1785 65.0859 54.4796 65.5936 54.4796C66.1012 54.4796 66.4059 54.1785 66.4059 53.6768C66.4059 53.1751 65.9997 52.874 65.5936 52.874Z" fill="#57565C"/>
<path d="M72.4998 52.3721C72.0937 52.3721 71.6875 52.6731 71.6875 53.1748C71.6875 53.6766 71.9921 53.9776 72.4998 53.9776C73.0075 53.9776 73.3121 53.6766 73.3121 53.1748C73.3121 52.6731 72.906 52.3721 72.4998 52.3721Z" fill="#57565C"/>
<path d="M73.3123 46.853C72.9061 46.853 72.5 47.1541 72.5 47.6558C72.5 48.1575 72.8046 48.4586 73.3123 48.4586C73.82 48.4586 74.1246 48.1575 74.1246 47.6558C74.1246 47.1541 73.7185 46.853 73.3123 46.853Z" fill="#57565C"/>
<path d="M69.7576 43.2407C69.3515 43.2407 68.9453 43.5418 68.9453 44.0435C68.9453 44.5452 69.2499 44.8463 69.7576 44.8463C70.2653 44.8463 70.5699 44.5452 70.5699 44.0435C70.5699 43.5418 70.1638 43.2407 69.7576 43.2407Z" fill="#57565C"/>
<path d="M72.9061 39.0264C72.4999 39.0264 72.1953 39.3274 72.1953 39.8291C72.1953 40.3309 72.4999 40.5316 73.0076 40.5316C73.5153 40.5316 73.8199 40.2305 73.8199 39.7288C73.8199 39.2271 73.3122 39.0264 72.9061 39.0264Z" fill="#57565C"/>
<path d="M64.578 38.6246C64.9841 38.6246 65.3903 38.3235 65.3903 37.8218C65.3903 37.3201 65.0856 37.019 64.578 37.019C64.1718 37.019 63.8672 37.3201 63.8672 37.8218C63.8672 38.3235 64.1718 38.6246 64.578 38.6246Z" fill="#57565C"/>
<path d="M64.578 32.6041C64.9841 32.6041 65.3903 32.303 65.3903 31.8013C65.3903 31.3999 65.0856 30.9985 64.578 30.9985C64.1718 30.9985 63.8672 31.2996 63.8672 31.8013C63.8672 32.303 64.1718 32.6041 64.578 32.6041Z" fill="#57565C"/>
<path d="M69.2498 37.4204C68.8437 37.4204 68.5391 37.7215 68.5391 38.2232C68.5391 38.7249 68.8437 39.0259 69.3514 39.0259C69.8591 39.0259 70.1637 38.7249 70.1637 38.2232C70.1637 37.7215 69.7575 37.4204 69.2498 37.4204Z" fill="#57565C"/>
<path d="M75.0389 34.3096C74.6327 34.3096 74.2266 34.6106 74.2266 35.1123C74.2266 35.6141 74.5312 35.9151 75.0389 35.9151C75.5466 35.9151 75.8512 35.6141 75.8512 35.1123C75.8512 34.6106 75.445 34.3096 75.0389 34.3096Z" fill="#57565C"/>
<path d="M78.6912 38.4238C78.2851 38.4238 77.9805 38.7249 77.9805 39.2266C77.9805 39.7283 78.2851 40.0294 78.7928 40.0294C79.3005 40.0294 79.6051 39.7283 79.6051 39.2266C79.6051 38.7249 79.0974 38.4238 78.6912 38.4238Z" fill="#57565C"/>
<path d="M73.7186 42.4375C73.3124 42.4375 73.0078 42.7385 73.0078 43.2403C73.0078 43.742 73.3124 44.043 73.8201 44.043C74.3278 44.043 74.6324 43.742 74.6324 43.2403C74.6324 42.7385 74.1247 42.4375 73.7186 42.4375Z" fill="#57565C"/>
<path d="M78.7926 43.0401C78.7926 42.6387 78.488 42.2373 77.9803 42.2373C77.5742 42.2373 77.2695 42.5383 77.2695 43.0401C77.2695 43.5418 77.5741 43.8428 78.0818 43.8428C78.5895 43.8428 78.7926 43.4415 78.7926 43.0401Z" fill="#57565C"/>
<path d="M79.6053 45.0469C79.1991 45.0469 78.793 45.3479 78.793 45.8496C78.793 46.3514 79.0976 46.6524 79.6053 46.6524C80.113 46.6524 80.4176 46.3514 80.4176 45.8496C80.4176 45.3479 80.0114 45.0469 79.6053 45.0469Z" fill="#57565C"/>
<path d="M78.9996 49.4619C78.9996 49.0606 78.695 48.6592 78.1873 48.6592C77.7812 48.6592 77.4766 48.9602 77.4766 49.4619C77.4766 49.9637 77.7812 50.2647 78.2889 50.2647C78.7966 50.2647 78.9996 49.9637 78.9996 49.4619Z" fill="#57565C"/>
<path d="M81.535 51.0674C81.1288 51.0674 80.7227 51.3684 80.7227 51.8702C80.7227 52.3719 81.0273 52.6729 81.535 52.6729C82.0427 52.6729 82.3473 52.3719 82.3473 51.8702C82.3473 51.3684 81.9411 51.0674 81.535 51.0674Z" fill="#57565C"/>
<path d="M78.492 53.9775C78.0858 53.9775 77.6797 54.2786 77.6797 54.7803C77.6797 55.282 77.9843 55.5831 78.492 55.5831C78.9997 55.5831 79.3043 55.282 79.3043 54.7803C79.3043 54.2786 78.9997 53.9775 78.492 53.9775Z" fill="#57565C"/>
<path d="M86.1053 54.7803C85.6991 54.7803 85.293 55.0813 85.293 55.583C85.293 56.0848 85.5976 56.3858 86.1053 56.3858C86.613 56.3858 86.9176 56.0848 86.9176 55.583C86.9176 55.0813 86.5114 54.7803 86.1053 54.7803Z" fill="#57565C"/>
<path d="M84.6834 48.3584C84.2773 48.3584 83.8711 48.6594 83.8711 49.1612C83.8711 49.6629 84.1757 49.9639 84.6834 49.9639C85.1911 49.9639 85.4957 49.6629 85.4957 49.1612C85.4957 48.6594 85.0896 48.3584 84.6834 48.3584Z" fill="#57565C"/>
<path d="M86.5115 47.1544C86.9177 47.1544 87.3239 46.8533 87.3239 46.3516C87.3239 45.8499 87.0192 45.5488 86.5115 45.5488C86.1054 45.5488 85.8008 45.8499 85.8008 46.3516C85.8008 46.8533 86.1054 47.1544 86.5115 47.1544Z" fill="#57565C"/>
<path d="M82.8553 42.0366C82.4491 42.0366 82.043 42.3377 82.043 42.8394C82.043 43.3411 82.3476 43.6422 82.8553 43.6422C83.363 43.6422 83.6676 43.3411 83.6676 42.8394C83.6676 42.3377 83.2614 42.0366 82.8553 42.0366Z" fill="#57565C"/>
<path d="M85.3943 39.0259C84.9882 39.0259 84.582 39.3269 84.582 39.8286C84.582 40.3304 84.8866 40.5311 85.3943 40.5311C85.902 40.5311 86.2066 40.23 86.2066 39.7283C86.2066 39.2266 85.8005 39.0259 85.3943 39.0259Z" fill="#57565C"/>
<path d="M82.2498 36.2168C81.8437 36.2168 81.5391 36.5178 81.5391 37.0196C81.5391 37.5213 81.8437 37.8223 82.3514 37.8223C82.8591 37.8223 83.1637 37.5213 83.1637 37.0196C83.1637 36.5178 82.656 36.2168 82.2498 36.2168Z" fill="#57565C"/>
<path d="M87.9293 35.9151C87.9293 35.5137 87.6247 35.1123 87.117 35.1123C86.7109 35.1123 86.4062 35.4133 86.4062 35.9151C86.4062 36.4168 86.7109 36.7178 87.2186 36.7178C87.7263 36.7178 87.9293 36.3165 87.9293 35.9151Z" fill="#57565C"/>
<path d="M90.574 37.4209C90.1679 37.4209 89.8633 37.7219 89.8633 38.2237C89.8633 38.7254 90.1679 39.0264 90.6756 39.0264C91.1833 39.0264 91.4879 38.7254 91.4879 38.2237C91.4879 37.7219 90.9802 37.4209 90.574 37.4209Z" fill="#57565C"/>
<path d="M88.035 41.7354C87.6288 41.7354 87.2227 42.0364 87.2227 42.5381C87.2227 43.0398 87.5273 43.3409 88.035 43.3409C88.5427 43.3409 88.8473 43.0398 88.8473 42.5381C88.8473 42.0364 88.4411 41.7354 88.035 41.7354Z" fill="#57565C"/>
<path d="M91.6871 46.3516C91.6871 45.9502 91.3825 45.5488 90.8748 45.5488C90.4687 45.5488 90.1641 45.8499 90.1641 46.3516C90.1641 46.8533 90.4687 47.1544 90.9764 47.1544C91.4841 47.1544 91.6871 46.753 91.6871 46.3516Z" fill="#57565C"/>
<path d="M89.3514 49.3618C88.9452 49.3618 88.5391 49.6629 88.5391 50.1646C88.5391 50.6663 88.8437 50.9674 89.3514 50.9674C89.8591 50.9674 90.1637 50.6663 90.1637 50.1646C90.1637 49.6629 89.8591 49.3618 89.3514 49.3618Z" fill="#57565C"/>
<path d="M87.0193 51.4688C86.6132 51.4688 86.207 51.7698 86.207 52.2715C86.207 52.7733 86.5116 53.0743 87.0193 53.0743C87.527 53.0743 87.8316 52.7733 87.8316 52.2715C87.8316 51.7698 87.4255 51.4688 87.0193 51.4688Z" fill="#57565C"/>
<path d="M91.5857 53.7773C91.1796 53.7773 90.7734 54.0784 90.7734 54.5801C90.7734 55.0818 91.078 55.3829 91.5857 55.3829C92.0934 55.3829 92.3981 55.0818 92.3981 54.5801C92.3981 54.0784 91.9919 53.7773 91.5857 53.7773Z" fill="#57565C"/>
<path d="M95.0389 50.3652C94.6327 50.3652 94.2266 50.6663 94.2266 51.168C94.2266 51.6697 94.5312 51.9708 95.0389 51.9708C95.5466 51.9708 95.8512 51.6697 95.8512 51.168C95.8512 50.6663 95.5466 50.3652 95.0389 50.3652Z" fill="#57565C"/>
<path d="M93.617 45.6489C93.2108 45.6489 92.8047 45.95 92.8047 46.4517C92.8047 46.9534 93.1093 47.2545 93.617 47.2545C94.1247 47.2545 94.4293 46.7527 94.4293 46.3513C94.4293 45.95 94.0231 45.6489 93.617 45.6489Z" fill="#57565C"/>
<path d="M96.1561 41.7354C95.7499 41.7354 95.3438 42.0364 95.3438 42.5381C95.3438 43.0398 95.6484 43.3409 96.1561 43.3409C96.6637 43.3409 96.9684 43.0398 96.9684 42.5381C96.9684 42.0364 96.5622 41.7354 96.1561 41.7354Z" fill="#57565C"/>
<path d="M92.9061 40.4307C92.4999 40.4307 92.0938 40.7317 92.0938 41.2334C92.0938 41.7352 92.3984 42.0362 92.9061 42.0362C93.4138 42.0362 93.7184 41.7352 93.7184 41.2334C93.7184 40.7317 93.3122 40.4307 92.9061 40.4307Z" fill="#57565C"/>
<path d="M94.5312 36.6177C94.5312 37.0191 94.8359 37.4205 95.3436 37.4205C95.8513 37.4205 96.1559 37.1194 96.1559 36.6177C96.1559 36.116 95.8513 35.8149 95.3436 35.8149C94.8359 35.8149 94.5312 36.116 94.5312 36.6177Z" fill="#57565C"/>
<path d="M92.9061 33.3062C92.4999 33.3062 92.0938 33.6072 92.0938 34.1089C92.0938 34.6106 92.3984 34.9117 92.9061 34.9117C93.4138 34.9117 93.7184 34.6106 93.7184 34.1089C93.7184 33.6072 93.3122 33.3062 92.9061 33.3062Z" fill="#57565C"/>
<path d="M96.4607 29.8945C96.0546 29.8945 95.6484 30.1956 95.6484 30.6973C95.6484 31.199 95.9531 31.5001 96.4607 31.5001C96.9684 31.5001 97.2731 31.199 97.2731 30.6973C97.2731 30.1956 96.8669 29.8945 96.4607 29.8945Z" fill="#57565C"/>
<path d="M77.0662 26.5831C77.4724 26.5831 77.8785 26.282 77.8785 25.7803C77.8785 25.2786 77.5739 24.9775 77.0662 24.9775C76.6601 24.9775 76.3555 25.2786 76.3555 25.7803C76.3555 26.282 76.6601 26.5831 77.0662 26.5831Z" fill="#57565C"/>
<path d="M74.6326 25.0782C75.0388 25.0782 75.445 24.7772 75.445 24.2754C75.445 23.7737 75.1403 23.4727 74.6326 23.4727C74.2265 23.4727 73.9219 23.7737 73.9219 24.2754C73.9219 24.7772 74.1249 25.0782 74.6326 25.0782Z" fill="#57565C"/>
<path d="M71.2811 27.8878C71.6872 27.8878 72.0934 27.5867 72.0934 27.085C72.0934 26.5833 71.7888 26.2822 71.2811 26.2822C70.8749 26.2822 70.5703 26.5833 70.5703 27.085C70.5703 27.5867 70.7734 27.8878 71.2811 27.8878Z" fill="#57565C"/>
<path d="M76.2576 29.5938C76.6638 29.5938 77.07 29.2928 77.07 28.791C77.07 28.2893 76.7653 27.9883 76.2576 27.9883C75.8515 27.9883 75.5469 28.2893 75.5469 28.791C75.5469 29.2928 75.8515 29.5938 76.2576 29.5938Z" fill="#57565C"/>
<path d="M84.5819 26.8843C84.988 26.8843 85.3942 26.5833 85.3942 26.0816C85.3942 25.5798 85.0896 25.2788 84.5819 25.2788C84.1757 25.2788 83.8711 25.5798 83.8711 26.0816C83.8711 26.5833 84.1757 26.8843 84.5819 26.8843Z" fill="#57565C"/>
<path d="M81.3319 25.5797C81.738 25.5797 82.1442 25.2786 82.1442 24.7769C82.1442 24.2752 81.8396 23.9741 81.3319 23.9741C80.9257 23.9741 80.6211 24.2752 80.6211 24.7769C80.6211 25.2786 80.8242 25.5797 81.3319 25.5797Z" fill="#57565C"/>
<path d="M79.5037 27.6871C79.9099 27.6871 80.316 27.386 80.316 26.8843C80.316 26.3826 80.0114 26.0815 79.5037 26.0815C79.0976 26.0815 78.793 26.3826 78.793 26.8843C78.793 27.386 79.0976 27.6871 79.5037 27.6871Z" fill="#57565C"/>
<path d="M81.0272 31.0987C81.4333 31.0987 81.8395 30.7977 81.8395 30.2959C81.8395 29.7942 81.5349 29.4932 81.0272 29.4932C80.621 29.4932 80.3164 29.7942 80.3164 30.2959C80.3164 30.7977 80.5195 31.0987 81.0272 31.0987Z" fill="#57565C"/>
<path d="M89.0467 29.3926C89.4529 29.3926 89.859 29.0916 89.859 28.5899C89.859 28.0881 89.5544 27.7871 89.0467 27.7871C88.6405 27.7871 88.3359 28.0881 88.3359 28.5899C88.3359 29.0916 88.6405 29.3926 89.0467 29.3926Z" fill="#57565C"/>
<path d="M90.2655 25.7806C90.6716 25.7806 91.0778 25.4795 91.0778 24.9778C91.0778 24.4761 90.6716 24.2754 90.2655 24.2754C89.8593 24.2754 89.5547 24.5764 89.5547 25.0782C89.5547 25.5799 89.8593 25.7806 90.2655 25.7806Z" fill="#57565C"/>
<path d="M85.2889 29.5938C84.8827 29.5938 84.4766 29.8948 84.4766 30.3965C84.4766 30.8982 84.7812 31.1993 85.2889 31.1993C85.7966 31.1993 86.1012 30.8982 86.1012 30.3965C86.1012 29.8948 85.695 29.5938 85.2889 29.5938Z" fill="#57565C"/>
<path d="M86.5115 24.6768C86.9177 24.6768 87.3239 24.3758 87.3239 23.8741C87.3239 23.3723 87.0192 23.0713 86.5115 23.0713C86.1054 23.0713 85.8008 23.3723 85.8008 23.8741C85.8008 24.3758 86.0039 24.6768 86.5115 24.6768Z" fill="#57565C"/>
<path d="M71.4844 29.8946C71.4844 30.296 71.789 30.6973 72.2967 30.6973C72.8044 30.6973 73.109 30.3963 73.109 29.8946C73.109 29.3928 72.8044 29.0918 72.2967 29.0918C71.8905 29.1921 71.4844 29.4932 71.4844 29.8946Z" fill="#57565C"/>
<path d="M74.4256 9.22332L80.721 8.21986L76.4564 14.0399C76.2533 14.341 76.2533 14.8427 76.6594 15.0434C76.761 15.1437 76.964 15.2441 77.0656 15.2441C77.2687 15.2441 77.5733 15.1437 77.6748 14.943L83.0563 7.71813C83.2594 7.51744 83.2594 7.11605 83.0563 6.91536C82.8533 6.61432 82.5487 6.51398 82.244 6.51398L75.9487 7.51744L80.4163 1.49668C80.6194 1.19564 80.6194 0.693909 80.2133 0.493217C79.8071 0.292525 79.604 0.192179 79.2994 0.493217L73.7148 8.01917C73.5117 8.21986 73.5117 8.62125 73.7148 8.82194C73.9179 9.12298 74.121 9.22332 74.4256 9.22332Z" fill="#57565C"/>
<path d="M91.2855 15.7457C91.4886 15.9464 91.5901 15.9464 91.7932 15.9464C91.9963 15.9464 92.1993 15.8461 92.3009 15.7457L95.2455 12.936C95.5501 12.635 95.5501 12.1333 95.2455 11.8322C94.9409 11.5312 94.4332 11.5312 94.1286 11.8322L91.387 14.6419C91.0824 14.943 90.9809 15.4447 91.2855 15.7457Z" fill="#57565C"/>
<path d="M88.6421 13.8393C88.7436 13.8393 88.8451 13.9396 88.9467 13.9396C89.2513 13.9396 89.4544 13.739 89.6575 13.5383L91.3836 9.82546C91.5867 9.42407 91.3836 9.02269 91.079 8.822C90.7744 8.6213 90.2667 8.822 90.0636 9.12303L88.2359 12.7355C88.0328 13.1369 88.2359 13.6386 88.6421 13.8393Z" fill="#57565C"/>
</g>
<defs>
<clipPath id="clip0_10_17353">
<rect width="99" height="58" fill="white" transform="translate(0 0.192383)"/>
</clipPath>
</defs>
</svg>
