<svg width="61" height="100" viewBox="0 0 61 100" fill="none" xmlns="http://www.w3.org/2000/svg">
<g clip-path="url(#clip0_10_17525)">
<path d="M28.6451 12.5801C28.2444 12.5801 27.8438 12.8847 27.8438 13.3924C27.8438 13.9001 28.1442 14.2047 28.6451 14.2047C29.1459 14.2047 29.4464 13.9001 29.4464 13.3924C29.4464 12.8847 29.0457 12.5801 28.6451 12.5801Z" fill="#9EA6B3" fill-opacity="0.41"/>
<path d="M56.5918 71.777C56.9924 71.777 57.3931 71.4724 57.3931 70.9647C57.3931 70.457 56.9924 70.2539 56.5918 70.2539C56.1911 70.2539 55.8906 70.5585 55.8906 71.0662C55.8906 71.5739 56.1911 71.777 56.5918 71.777Z" fill="#9EA6B3" fill-opacity="0.41"/>
<path d="M55.3887 77.8693C55.7893 77.8693 56.19 77.5646 56.19 77.057C56.19 76.5493 55.7893 76.3462 55.3887 76.3462C54.988 76.3462 54.6875 76.6508 54.6875 77.1585C54.6875 77.6662 54.988 77.8693 55.3887 77.8693Z" fill="#9EA6B3" fill-opacity="0.41"/>
<path d="M55.8912 83.8604C55.4905 83.8604 55.0898 84.165 55.0898 84.6727C55.0898 85.1803 55.3903 85.485 55.8912 85.485C56.392 85.485 56.6925 85.1803 56.6925 84.6727C56.6925 84.165 56.392 83.8604 55.8912 83.8604Z" fill="#9EA6B3" fill-opacity="0.41"/>
<path d="M51.9849 87.1094C51.5843 87.1094 51.1836 87.414 51.1836 87.9217C51.1836 88.4294 51.4841 88.734 51.9849 88.734C52.4857 88.734 52.7862 88.4294 52.7862 87.9217C52.7862 87.414 52.3856 87.1094 51.9849 87.1094Z" fill="#9EA6B3" fill-opacity="0.41"/>
<path d="M55.8912 92.897C55.4905 92.897 55.0898 93.2016 55.0898 93.7093C55.0898 94.217 55.3903 94.5216 55.8912 94.5216C56.392 94.5216 56.6925 94.217 56.6925 93.7093C56.6925 93.2016 56.392 92.897 55.8912 92.897Z" fill="#9EA6B3" fill-opacity="0.41"/>
<path d="M48.2779 90.9678C47.8772 90.9678 47.4766 91.2724 47.4766 91.7801C47.4766 92.2878 47.7771 92.5924 48.2779 92.5924C48.7787 92.5924 49.0792 92.2878 49.0792 91.7801C49.0792 91.2724 48.7787 90.9678 48.2779 90.9678Z" fill="#9EA6B3" fill-opacity="0.41"/>
<path d="M46.8794 95.1309C46.4788 95.1309 46.0781 95.4355 46.0781 95.9432C46.0781 96.4509 46.3786 96.7555 46.8794 96.7555C47.3803 96.7555 47.6808 96.4509 47.6808 95.9432C47.6808 95.4355 47.2801 95.1309 46.8794 95.1309Z" fill="#9EA6B3" fill-opacity="0.41"/>
<path d="M42.3677 91.4756C41.9671 91.4756 41.5664 91.7802 41.5664 92.2879C41.5664 92.7956 41.8669 93.1002 42.3677 93.1002C42.8685 93.1002 43.169 92.7956 43.169 92.2879C43.169 91.7802 42.7684 91.4756 42.3677 91.4756Z" fill="#9EA6B3" fill-opacity="0.41"/>
<path d="M37.5591 94.4199C37.1585 94.4199 36.7578 94.7245 36.7578 95.2322C36.7578 95.7399 37.0583 96.0445 37.5591 96.0445C38.0599 96.0445 38.3604 95.7399 38.3604 95.2322C38.3604 94.7245 37.9598 94.4199 37.5591 94.4199Z" fill="#9EA6B3" fill-opacity="0.41"/>
<path d="M27.8482 95.0293C27.4475 95.0293 27.0469 95.3339 27.0469 95.8416C27.0469 96.3493 27.3474 96.6539 27.8482 96.6539C28.349 96.6539 28.6495 96.3493 28.6495 95.8416C28.6495 95.3339 28.2488 95.0293 27.8482 95.0293Z" fill="#9EA6B3" fill-opacity="0.41"/>
<path d="M23.1373 93.5063C22.7366 93.5063 22.3359 93.811 22.3359 94.3187C22.3359 94.8263 22.6364 95.131 23.1373 95.131C23.6381 95.131 23.9386 94.8263 23.9386 94.3187C23.9386 93.811 23.5379 93.5063 23.1373 93.5063Z" fill="#9EA6B3" fill-opacity="0.41"/>
<path d="M16.2271 93.2017C15.8264 93.2017 15.4258 93.5063 15.4258 94.014C15.4258 94.5217 15.7263 94.8263 16.2271 94.8263C16.7279 94.8263 17.0284 94.5217 17.0284 94.014C17.0284 93.5063 16.6278 93.2017 16.2271 93.2017Z" fill="#9EA6B3" fill-opacity="0.41"/>
<path d="M10.7154 90.2568C10.3147 90.2568 9.91406 90.5615 9.91406 91.0691C9.91406 91.5768 10.2146 91.8815 10.7154 91.8815C11.2162 91.8815 11.5167 91.5768 11.5167 91.0691C11.5167 90.5615 11.116 90.2568 10.7154 90.2568Z" fill="#9EA6B3" fill-opacity="0.41"/>
<path d="M7.30913 82.6416C6.90847 82.6416 6.50781 82.9462 6.50781 83.4539C6.50781 83.9616 6.80831 84.2662 7.30913 84.2662C7.80995 84.2662 8.01028 83.8601 8.01028 83.4539C8.01028 83.0478 7.70978 82.6416 7.30913 82.6416Z" fill="#9EA6B3" fill-opacity="0.41"/>
<path d="M9.91653 77.7679C9.91653 77.3617 9.61603 76.9556 9.11521 76.9556C8.71456 76.9556 8.41406 77.2602 8.41406 77.7679C8.41406 78.2756 8.71456 78.5802 9.21538 78.5802C9.7162 78.5802 9.91653 78.174 9.91653 77.7679Z" fill="#9EA6B3" fill-opacity="0.41"/>
<path d="M9.81834 94.8262C9.41768 94.8262 9.11719 95.1308 9.11719 95.6385C9.11719 96.1462 9.41768 96.4508 9.81834 96.4508C10.219 96.4508 10.6197 96.1462 10.6197 95.6385C10.6197 95.1308 10.219 94.8262 9.81834 94.8262Z" fill="#9EA6B3" fill-opacity="0.41"/>
<path d="M6.30913 88.8354C5.90847 88.8354 5.50781 89.1401 5.50781 89.6478C5.50781 90.1554 5.80831 90.4601 6.30913 90.4601C6.80995 90.4601 7.01028 90.0539 7.01028 89.6478C7.01028 89.2416 6.70978 88.8354 6.30913 88.8354Z" fill="#9EA6B3" fill-opacity="0.41"/>
<path d="M4.00444 79.4941C3.60378 79.4941 3.20312 79.7988 3.20312 80.3065C3.20312 80.8141 3.50362 81.1188 4.00444 81.1188C4.50526 81.1188 4.80575 80.8141 4.80575 80.3065C4.80575 79.7988 4.4051 79.4941 4.00444 79.4941Z" fill="#9EA6B3" fill-opacity="0.41"/>
<path d="M6.81303 72.894C6.41238 72.894 6.01172 73.3002 6.01172 73.7064C6.01172 74.1125 6.31221 74.5187 6.81303 74.5187C7.31385 74.5187 7.61435 74.214 7.61435 73.7064C7.61435 73.1987 7.21369 72.894 6.81303 72.894Z" fill="#9EA6B3" fill-opacity="0.41"/>
<path d="M6.71287 69.4415C7.11352 69.4415 7.51418 69.1369 7.51418 68.6292C7.51418 68.1215 7.21369 67.8169 6.71287 67.8169C6.31221 67.8169 6.01172 68.1215 6.01172 68.6292C6.01172 69.1369 6.31221 69.4415 6.71287 69.4415Z" fill="#9EA6B3" fill-opacity="0.41"/>
<path d="M3.30522 93.1001C2.90456 93.1001 2.50391 93.4047 2.50391 93.9124C2.50391 94.4201 2.90456 94.6232 3.30522 94.6232C3.70588 94.6232 4.10653 94.3186 4.10653 93.8109C4.10653 93.3032 3.80604 93.1001 3.30522 93.1001Z" fill="#9EA6B3" fill-opacity="0.41"/>
<path d="M60.2988 63.0447H50.3826C50.3826 62.9432 50.3826 62.9432 50.3826 62.8416C50.3826 60.6078 50.2824 58.2724 50.5829 55.937C50.8834 53.8047 52.0854 51.8755 52.7865 49.9462C53.4877 48.1185 54.0887 46.2908 54.6897 44.4632C55.7915 40.9093 56.7931 37.1524 56.7931 33.497C56.8933 30.5524 56.2923 27.4047 53.8883 25.4755C52.0854 24.0539 49.6814 23.5462 47.4778 23.6478C45.775 23.7493 44.1724 24.257 42.5698 24.8662C41.3678 21.9216 38.1626 16.8447 35.5583 14.3062C36.3596 13.5955 37.1609 12.8847 38.0624 12.1739C42.069 8.62008 46.1757 5.06623 49.1806 1.41084C49.1806 1.20777 49.1806 0.903152 49.0805 0.598537C48.9803 0.39546 48.6798 0.192383 48.3793 0.192383H30.7504C30.4499 0.192383 30.1494 0.39546 30.0493 0.700075C29.6486 1.71546 29.1478 2.83238 28.647 3.94931C28.046 2.73084 27.5452 1.71546 27.2447 0.700075C27.0443 0.39546 26.7438 0.192383 26.4433 0.192383H8.81445C8.51396 0.192383 8.21346 0.39546 8.1133 0.598537C8.01314 0.801614 8.01314 1.20777 8.21346 1.41084C11.2184 4.96469 15.3251 8.51854 19.2315 12.0724C20.133 12.8847 21.0345 13.697 21.936 14.5093C16.9277 22.1247 13.1215 29.9432 20.8342 37.5585C21.0345 37.7616 21.4351 37.9647 21.7356 37.9647C21.936 37.9647 22.2365 37.8632 22.4368 37.7616C22.9376 37.3555 23.1379 36.6447 22.8374 36.0355C21.936 34.0047 21.936 31.9739 22.6371 29.8416C22.7373 29.9432 22.9376 29.9432 23.1379 29.8416C25.3415 29.0293 27.3448 27.8108 29.5484 27.3032C32.5534 26.5924 35.358 27.7093 37.7619 29.4355C38.5632 29.9432 39.3645 28.6232 38.5632 28.1155C35.8588 26.2878 32.8539 25.1708 29.5484 25.7801C27.3448 26.1862 25.3415 27.3032 23.2381 28.217C24.3399 25.7801 26.243 23.3432 28.5468 20.9062C29.4483 21.9216 30.9507 23.4447 31.4516 24.0539C31.6519 24.257 31.7521 24.257 32.0525 24.257C32.2529 24.257 32.4532 24.1555 32.5534 24.0539C32.8539 23.7493 32.8539 23.2416 32.6535 22.937C32.1527 22.3278 30.6502 20.7032 29.6486 19.6878C31.0509 18.2662 32.6535 16.7432 34.2562 15.3216C36.7603 17.657 39.9655 22.6324 41.0673 25.3739C40.3662 25.6785 39.5649 25.9832 38.8637 26.3893C37.9622 26.7955 38.7635 28.1155 39.665 27.7093C41.3678 26.897 43.0706 26.1862 44.8736 25.577C45.1741 25.4755 45.5747 25.3739 45.8752 25.2724C45.9754 25.2724 46.0755 25.2724 46.0755 25.2724C46.1757 25.2724 46.1757 25.2724 46.2759 25.2724C46.2759 25.2724 46.2759 25.2724 46.376 25.2724C46.4762 25.2724 46.376 25.2724 46.4762 25.2724C48.2791 25.0693 50.0821 25.1708 51.7849 25.8816C54.289 26.9985 55.2906 29.4355 55.491 32.0755C55.6913 35.4262 54.89 38.8785 53.9885 42.1278C53.087 45.1739 52.0854 48.2201 50.7832 51.1647C48.5796 50.2508 47.3777 47.8139 45.9754 44.8693C44.7734 42.2293 43.4713 39.5893 41.2677 37.6601C40.4663 37.0508 39.5649 36.5432 38.7635 36.0355C36.2594 34.6139 33.9557 33.2939 34.0558 28.7247C34.0558 28.3185 33.7553 27.9124 33.3547 27.9124C32.954 27.9124 32.6535 28.217 32.5534 28.6232C32.4532 34.2078 35.4581 35.8324 38.0624 37.3555C38.8637 37.8632 39.665 38.2693 40.3662 38.8785C42.3695 40.6047 43.5714 43.1432 44.7734 45.5801C46.1757 48.6262 47.578 51.4693 50.3826 52.5862C50.3826 52.6878 50.2824 52.7893 50.2824 52.7893C49.4811 54.617 49.2808 56.5462 49.1806 58.4755C49.1806 59.9985 49.1806 61.5216 49.1806 63.0447H11.619C11.8194 61.3185 11.9195 59.6939 11.8194 57.9678C11.9195 57.9678 12.0197 57.8662 12.0197 57.7647C15.8259 52.6878 15.5255 48.6262 14.624 46.0878C13.0213 41.6201 8.61412 38.9801 6.21018 38.3708C6.11002 37.3555 6.00985 36.4416 5.90969 35.4262C5.80952 33.0908 5.90969 30.4508 7.11166 28.3185C8.31363 26.2878 10.5172 25.7801 12.7209 25.8816C13.5222 25.8816 14.2233 26.0847 15.0246 26.2878C15.9261 26.4908 16.3268 25.0693 15.4253 24.7647C12.7209 24.1555 9.61576 23.9524 7.41215 25.7801C5.50903 27.3032 4.80788 29.8416 4.50739 32.2785C4.2069 35.3247 4.70772 38.4724 5.3087 41.417C5.70936 43.1432 6.11002 44.7678 6.61084 46.3924C7.31199 48.7278 8.31363 50.8601 9.31527 52.9924C10.7176 56.0385 10.5172 59.5924 10.2167 62.9432H0.801314C0.400657 62.9432 0 63.2478 0 63.7555V98.3801C0 98.7862 0.300493 99.1924 0.801314 99.1924H60.2988C60.6995 99.1924 61.1002 98.8878 61.1002 98.3801V63.857C61 63.4508 60.6995 63.0447 60.2988 63.0447ZM20.2332 10.9555C16.8276 7.90931 13.3218 4.86315 10.5172 1.71546H25.9425C26.3432 2.93392 26.9442 4.15238 27.7455 5.47238C26.5435 7.50315 25.2414 9.63546 23.8391 11.5647C23.5386 12.0724 23.1379 12.5801 22.8374 13.0878C21.936 12.4785 21.0345 11.6662 20.2332 10.9555ZM28.046 19.1801C22.7373 24.6632 19.2315 30.1462 21.0345 35.6293C14.5238 28.217 19.6322 20.6016 25.041 12.4785C27.445 8.92469 29.8489 5.26931 31.2512 1.71546H46.6765C43.8719 4.86315 40.266 8.01084 36.8604 11.057C33.7553 13.697 30.7504 16.4385 28.046 19.1801ZM9.71593 50.5555C8.81445 48.6262 8.1133 46.5955 7.51231 44.5647C7.11166 43.0416 6.711 41.5185 6.51067 39.9955C8.81445 40.8078 12.0197 43.1432 13.2217 46.5955C14.2233 49.4385 13.6223 52.5862 11.5189 55.8355C11.3186 53.9062 10.5172 52.2816 9.71593 50.5555ZM48.8801 64.5678C48.8801 64.7709 48.8801 64.9739 48.8801 65.177C49.0805 72.9955 49.0805 81.3216 44.4729 87.9216C44.0723 88.5309 43.5714 89.2416 42.8703 89.6478C42.1691 89.9524 41.3678 89.8509 41.2677 88.937C41.1675 88.0232 41.1675 87.0078 41.1675 85.9924C41.1675 84.8755 41.1675 83.8601 41.0673 82.8447C40.9672 78.8847 40.867 74.6201 39.3645 70.9647C39.064 70.3555 38.7635 69.7462 38.4631 69.137C38.7635 68.5278 39.1642 67.9185 39.4647 67.5124C39.665 67.2078 39.665 66.7001 39.3645 66.3955C39.064 66.1924 38.5632 66.1924 38.3629 66.497C36.6601 68.7309 34.5566 72.9955 34.2562 80.6108C33.9557 87.2108 32.6535 91.7801 30.9507 92.2878C30.8506 92.2878 30.5501 92.3893 30.1494 92.0847C28.3465 90.8662 26.5435 85.7893 26.0427 80.6108C25.5419 76.5493 25.2414 72.6908 25.5419 70.1524C25.7422 68.2232 25.4417 66.9032 25.3415 66.8016C25.2414 66.3955 24.8407 66.0909 24.4401 66.1924C24.0394 66.2939 23.7389 66.7001 23.8391 67.1062C23.8391 67.1062 24.0394 68.0201 23.9392 69.4416C18.7307 73.4016 19.532 80.8139 19.1314 86.7032C19.1314 87.3124 19.0312 87.9216 18.931 88.6324C18.8309 89.2416 18.7307 90.0539 17.9294 90.1555C17.2282 90.257 16.7274 89.4447 16.4269 88.937C15.9261 88.3278 15.4253 87.617 15.0246 86.8047C13.422 83.8601 12.5205 80.6108 11.8194 77.3616C11.619 76.1432 11.3186 74.9247 11.1182 73.7062C10.8177 71.8785 10.9179 69.9493 11.1182 68.1216C11.2184 66.9032 11.4187 65.6847 11.5189 64.4662H48.8801V64.5678ZM59.4975 97.6693H1.50246V64.5678H9.91625C9.91625 64.8724 9.81609 65.177 9.81609 65.4816C9.61576 67.5124 9.31527 69.6447 9.31527 71.6755C9.31527 73.1985 9.61576 74.6201 9.81609 76.0416C10.4171 79.3924 11.2184 82.6416 12.6207 85.7893C13.3218 87.4139 14.2233 88.937 15.3251 90.3585C15.8259 90.9678 16.4269 91.577 17.3284 91.6785C18.1297 91.7801 18.931 91.3739 19.4319 90.7647C20.3333 89.6478 20.3333 87.8201 20.4335 86.3985C20.5337 84.7739 20.5337 83.1493 20.6338 81.5247C20.734 78.377 21.0345 74.9247 22.9376 72.2847C23.1379 71.9801 23.4384 71.6755 23.6388 71.4724C23.6388 74.0108 23.8391 77.2601 24.2397 80.6108C24.7406 85.3832 26.4433 91.3739 29.0476 93.2016C29.6486 93.6078 30.1494 93.7093 30.5501 93.7093C30.7504 93.7093 30.9507 93.7093 31.1511 93.6078C31.4516 93.5062 31.6519 93.4047 31.8522 93.3032V93.4047C31.8522 93.8109 32.1527 94.217 32.6535 94.217C33.1543 94.217 33.4548 93.9124 33.4548 93.4047C33.4548 92.9985 33.1544 92.6939 32.7537 92.6939C34.757 90.4601 35.4581 85.1801 35.6585 80.6108C35.8588 76.2447 36.6601 72.9955 37.6617 70.7616C39.2644 74.1124 39.4647 77.8693 39.665 81.5247C39.7652 83.7585 39.7652 86.0939 39.8653 88.3278C39.8653 89.0385 39.8653 89.8509 40.3662 90.4601C40.9672 91.1709 41.9688 91.4755 42.8703 91.2724C44.6732 90.9678 45.775 89.0385 46.6765 87.617C47.6782 85.8908 48.4795 84.0632 49.0805 82.1339C50.2824 78.1739 50.5829 74.0108 50.6831 69.8478C50.6831 68.0201 50.6831 66.2939 50.5829 64.4662H59.6979L59.4975 97.6693Z" fill="#57565C"/>
<path d="M15.5262 29.8418C15.426 29.8418 15.3259 29.7402 15.2257 29.7402C15.1255 29.7402 15.0254 29.7402 14.9252 29.7402C14.825 29.7402 14.7249 29.8418 14.6247 29.8418C14.5245 29.8418 14.4244 29.9433 14.4244 30.0448C14.4244 30.1464 14.4244 30.1464 14.3242 30.2479C14.3242 30.3495 14.3242 30.5525 14.3242 30.6541C14.3242 30.7556 14.3242 30.7556 14.4244 30.8572C14.5245 30.9587 14.6247 31.0602 14.7249 31.1618C14.825 31.1618 14.9252 31.2633 15.0254 31.2633C15.1255 31.2633 15.2257 31.2633 15.3259 31.2633C15.426 31.2633 15.5262 31.1618 15.6264 31.1618C15.7265 31.1618 15.8267 31.0602 15.8267 30.9587C15.8267 30.8572 15.8267 30.8572 15.9268 30.7556C15.9268 30.6541 15.9268 30.451 15.9268 30.3495C15.9268 30.2479 15.9268 30.2479 15.8267 30.1464C15.8267 30.0448 15.7265 29.9433 15.5262 29.8418C15.6264 29.8418 15.6264 29.8418 15.5262 29.8418Z" fill="#9EA6B3" fill-opacity="0.41"/>
<path d="M51.8847 82.7433C52.2854 82.7433 52.6861 82.4387 52.6861 81.931C52.6861 81.4233 52.3856 81.1187 51.8847 81.1187C51.4841 81.1187 51.1836 81.4233 51.1836 81.931C51.1836 82.4387 51.4841 82.7433 51.8847 82.7433Z" fill="#9EA6B3" fill-opacity="0.41"/>
<path d="M52.3847 68.6295C52.7854 68.6295 53.1861 68.3249 53.1861 67.8172C53.1861 67.3095 52.8856 67.0049 52.3847 67.0049C51.9841 67.0049 51.6836 67.3095 51.6836 67.8172C51.6836 68.3249 51.8839 68.6295 52.3847 68.6295Z" fill="#9EA6B3" fill-opacity="0.41"/>
<path d="M50.1841 36.4414C49.7835 36.4414 49.3828 36.746 49.3828 37.2537C49.3828 37.7614 49.6833 38.066 50.1841 38.066C50.6849 38.066 50.9854 37.7614 50.9854 37.2537C50.9854 36.746 50.5848 36.4414 50.1841 36.4414Z" fill="#9EA6B3" fill-opacity="0.41"/>
<path d="M44.6743 34.4109C44.6743 34.0048 44.3738 33.5986 43.873 33.5986C43.4724 33.5986 43.1719 33.9032 43.1719 34.4109C43.1719 34.9186 43.4724 35.2232 43.9732 35.2232C44.474 35.2232 44.6743 34.9186 44.6743 34.4109Z" fill="#9EA6B3" fill-opacity="0.41"/>
<path d="M42.9712 28.6233C42.9712 28.2172 42.6707 27.811 42.1699 27.811C41.7692 27.811 41.4688 28.1156 41.4688 28.6233C41.4688 29.131 41.7692 29.4356 42.2701 29.4356C42.7709 29.4356 42.9712 29.0295 42.9712 28.6233Z" fill="#9EA6B3" fill-opacity="0.41"/>
<path d="M54.5884 35.2234C54.5884 34.8173 54.2879 34.4111 53.7871 34.4111C53.3864 34.4111 53.0859 34.7157 53.0859 35.2234C53.0859 35.7311 53.3864 36.0357 53.8873 36.0357C54.3881 36.0357 54.5884 35.6296 54.5884 35.2234Z" fill="#9EA6B3" fill-opacity="0.41"/>
<path d="M48.9805 42.8387C48.9805 43.2448 49.281 43.651 49.7818 43.651C50.2826 43.651 50.5831 43.3464 50.5831 42.8387C50.5831 42.331 50.2826 42.0264 49.7818 42.0264C49.281 42.1279 48.9805 42.4325 48.9805 42.8387Z" fill="#9EA6B3" fill-opacity="0.41"/>
<path d="M50.2832 45.8848C49.8825 45.8848 49.582 46.1894 49.582 46.6971C49.582 47.2048 49.8825 47.5094 50.3833 47.5094C50.8842 47.5094 51.1847 47.2048 51.1847 46.6971C51.1847 46.1894 50.784 45.8848 50.2832 45.8848Z" fill="#9EA6B3" fill-opacity="0.41"/>
<path d="M46.2759 39.285C46.2759 38.8788 45.9754 38.4727 45.4746 38.4727C45.0739 38.4727 44.7734 38.7773 44.7734 39.285C44.7734 39.7927 45.0739 40.0973 45.5748 40.0973C46.0756 40.0973 46.2759 39.6911 46.2759 39.285Z" fill="#9EA6B3" fill-opacity="0.41"/>
<path d="M39.7642 33.3953C39.7642 32.9892 39.4637 32.583 38.9629 32.583C38.5622 32.583 38.2617 32.8876 38.2617 33.3953C38.2617 33.903 38.5622 34.2076 39.063 34.2076C39.5639 34.2076 39.7642 33.8015 39.7642 33.3953Z" fill="#9EA6B3" fill-opacity="0.41"/>
<path d="M45.9746 78.2755C46.3752 78.2755 46.7759 77.9709 46.7759 77.4632C46.7759 76.9555 46.4754 76.6509 45.9746 76.6509C45.5739 76.6509 45.2734 76.9555 45.2734 77.4632C45.2734 77.9709 45.5739 78.2755 45.9746 78.2755Z" fill="#9EA6B3" fill-opacity="0.41"/>
<path d="M43.6738 73.402C44.0745 73.402 44.4751 73.0973 44.4751 72.5897C44.4751 72.082 44.1746 71.7773 43.6738 71.7773C43.2731 71.7773 42.9727 72.082 42.9727 72.5897C42.9727 73.0973 43.2731 73.402 43.6738 73.402Z" fill="#9EA6B3" fill-opacity="0.41"/>
<path d="M47.2793 69.1373C47.6799 69.1373 48.0806 68.8327 48.0806 68.325C48.0806 67.8173 47.7801 67.5127 47.2793 67.5127C46.8786 67.5127 46.5781 67.8173 46.5781 68.325C46.5781 68.8327 46.7785 69.1373 47.2793 69.1373Z" fill="#9EA6B3" fill-opacity="0.41"/>
<path d="M32.8535 70.254C33.2542 70.254 33.6548 69.9494 33.6548 69.4417C33.6548 68.934 33.3543 68.6294 32.8535 68.6294C32.4528 68.6294 32.1523 68.934 32.1523 69.4417C32.1523 69.9494 32.4528 70.254 32.8535 70.254Z" fill="#9EA6B3" fill-opacity="0.41"/>
<path d="M28.4458 71.8784C28.0452 71.8784 27.6445 72.183 27.6445 72.6907C27.6445 73.1984 27.945 73.503 28.4458 73.503C28.9467 73.503 29.2472 73.1984 29.2472 72.6907C29.2472 72.183 28.8465 71.8784 28.4458 71.8784Z" fill="#9EA6B3" fill-opacity="0.41"/>
<path d="M31.2519 77.8693C31.6526 77.8693 32.0532 77.5646 32.0532 77.057C32.0532 76.5493 31.7528 76.3462 31.2519 76.3462C30.8513 76.3462 30.5508 76.6508 30.5508 77.1585C30.5508 77.6662 30.8513 77.8693 31.2519 77.8693Z" fill="#9EA6B3" fill-opacity="0.41"/>
<path d="M30.3496 81.8292C30.7502 81.8292 31.1509 81.5246 31.1509 81.0169C31.1509 80.5092 30.8504 80.2046 30.3496 80.2046C29.9489 80.2046 29.6484 80.5092 29.6484 81.0169C29.6484 81.5246 29.9489 81.8292 30.3496 81.8292Z" fill="#9EA6B3" fill-opacity="0.41"/>
<path d="M16.3261 79.088C16.7268 79.088 17.1275 78.7834 17.1275 78.2757C17.1275 77.768 16.827 77.4634 16.3261 77.4634C15.9255 77.4634 15.625 77.768 15.625 78.2757C15.625 78.7834 15.9255 79.088 16.3261 79.088Z" fill="#9EA6B3" fill-opacity="0.41"/>
<path d="M13.8222 74.5187C14.2229 74.5187 14.6236 74.214 14.6236 73.7064C14.6236 73.1987 14.3231 72.894 13.8222 72.894C13.4216 72.894 13.1211 73.1987 13.1211 73.7064C13.1211 74.214 13.4216 74.5187 13.8222 74.5187Z" fill="#9EA6B3" fill-opacity="0.41"/>
<path d="M18.1308 70.9645C18.5315 70.9645 18.9322 70.6598 18.9322 70.1522C18.9322 69.6445 18.6317 69.3398 18.1308 69.3398C17.7302 69.3398 17.4297 69.6445 17.4297 70.1522C17.4297 70.6598 17.63 70.9645 18.1308 70.9645Z" fill="#9EA6B3" fill-opacity="0.41"/>
<path d="M13.9238 68.3248C14.3245 68.3248 14.7251 68.0202 14.7251 67.5125C14.7251 67.0048 14.4246 66.7002 13.9238 66.7002C13.5231 66.7002 13.2227 67.0048 13.2227 67.5125C13.2227 68.0202 13.5231 68.3248 13.9238 68.3248Z" fill="#9EA6B3" fill-opacity="0.41"/>
<path d="M43.4707 82.8448C43.8713 82.8448 44.272 82.5402 44.272 82.0325C44.272 81.5248 43.9715 81.2202 43.4707 81.2202C43.07 81.2202 42.7695 81.5248 42.7695 82.0325C42.7695 82.5402 43.07 82.8448 43.4707 82.8448Z" fill="#9EA6B3" fill-opacity="0.41"/>
<path d="M30.1504 86.1954C30.551 86.1954 30.9517 85.8908 30.9517 85.3831C30.9517 84.8754 30.6512 84.5708 30.1504 84.5708C29.7497 84.5708 29.4492 84.8754 29.4492 85.3831C29.4492 85.8908 29.7497 86.1954 30.1504 86.1954Z" fill="#9EA6B3" fill-opacity="0.41"/>
<path d="M28.248 67.3092C28.6487 67.3092 29.0493 67.0046 29.0493 66.4969C29.0493 65.9892 28.7488 65.6846 28.248 65.6846C27.8474 65.6846 27.5469 65.9892 27.5469 66.4969C27.5469 67.0046 27.8474 67.3092 28.248 67.3092Z" fill="#9EA6B3" fill-opacity="0.41"/>
<path d="M16.5279 82.4385C16.1272 82.4385 15.7266 82.7431 15.7266 83.2508C15.7266 83.7585 16.0271 84.0631 16.5279 84.0631C17.0287 84.0631 17.3292 83.7585 17.3292 83.2508C17.3292 82.7431 17.0287 82.4385 16.5279 82.4385Z" fill="#9EA6B3" fill-opacity="0.41"/>
<path d="M20.7324 67.1061C21.1331 67.1061 21.5337 66.8014 21.5337 66.2937C21.5337 65.7861 21.2332 65.4814 20.7324 65.4814C20.3317 65.4814 20.0312 65.7861 20.0312 66.2937C20.0312 66.8014 20.3317 67.1061 20.7324 67.1061Z" fill="#9EA6B3" fill-opacity="0.41"/>
<path d="M8.61381 42.9399C8.21316 42.9399 7.8125 43.2446 7.8125 43.7523C7.8125 44.2599 8.11299 44.5646 8.61381 44.5646C9.11463 44.5646 9.41513 44.2599 9.41513 43.7523C9.41513 43.2446 9.01447 42.9399 8.61381 42.9399Z" fill="#9EA6B3" fill-opacity="0.41"/>
<path d="M12.2173 46.0877C12.2173 45.6815 11.9168 45.2754 11.416 45.2754C11.0153 45.2754 10.7148 45.58 10.7148 46.0877C10.7148 46.5954 11.0153 46.9 11.416 46.9C11.8166 46.9 12.2173 46.4939 12.2173 46.0877Z" fill="#9EA6B3" fill-opacity="0.41"/>
<path d="M11.7168 50.7584C12.1174 50.7584 12.5181 50.4538 12.5181 49.9461C12.5181 49.4384 12.2176 49.1338 11.7168 49.1338C11.3161 49.1338 11.0156 49.4384 11.0156 49.9461C11.0156 50.4538 11.3161 50.7584 11.7168 50.7584Z" fill="#9EA6B3" fill-opacity="0.41"/>
</g>
<defs>
<clipPath id="clip0_10_17525">
<rect width="61" height="99" fill="white" transform="translate(0 0.192383)"/>
</clipPath>
</defs>
</svg>
